<?xml version="1.0" encoding="utf-8"?>
<!-- Generator: Adobe Illustrator 15.0.0, SVG Export Plug-In . SVG Version: 6.00 Build 0)  -->
<!DOCTYPE svg PUBLIC "-//W3C//DTD SVG 1.1//EN" "http://www.w3.org/Graphics/SVG/1.1/DTD/svg11.dtd">
<svg version="1.1" id="Capa_1" xmlns="http://www.w3.org/2000/svg" xmlns:xlink="http://www.w3.org/1999/xlink" x="0px" y="0px"
	 width="270px" height="204px" viewBox="0 0 270 204" enable-background="new 0 0 270 204" xml:space="preserve">
<path fill="#FFFFFF" d="M195.312,33.263c0.744,0.084,1.315,0.338,1.445,1.033c0.474,0.058,0.776-0.049,0.826-0.412
	c0.321,1.165,1.423,1.921,0.622,3.098C196.533,36.447,195.989,34.788,195.312,33.263z"/>
<path d="M150.279,36.567c0.422,1.834-0.22,3.76,0.826,5.164c-1.342,0.579-3.201,0.45-4.957,0.414
	c-0.63-2.249-0.455-5.398,1.448-6.404C147.949,36.118,149.047,36.504,150.279,36.567z M146.768,37.394
	c0.451,1.451-0.425,2.956,0.414,3.926c0.506-0.626,1.345,0.156,2.065,0c0.576-0.916,0.051-1.707,0.826-2.479
	c-0.355,0.011-0.529-0.16-0.622-0.413c0.207,0,0.414,0,0.622,0C149.579,37.037,148.062,36.4,146.768,37.394z"/>
<path fill="#FFFFFF" d="M150.073,38.427c-0.206,0-0.413,0-0.622,0c0.091,0.254,0.267,0.424,0.622,0.414
	c-0.775,0.771-0.25,1.562-0.826,2.479c-0.723,0.157-1.56-0.627-2.065,0c-0.841-0.97,0.037-2.475-0.414-3.926
	C148.062,36.4,149.579,37.037,150.073,38.427z"/>
<path fill="#FFFFFF" d="M139.125,46.069c0.835,1.833,3.662,4.383,1.448,6.197c-0.275,0-0.554,0-0.826,0
	C139.255,50.067,134.851,46.525,139.125,46.069z"/>
<path d="M152.139,49.168c-0.551,0-1.1,0-1.652,0c0.462,2.062,1.832,1.208,3.101,0.62c-0.025-0.595-0.881-0.359-0.826-1.033
	c0.616-0.513,1.336,0.194,1.652,0.62c-0.328,2.557-5.075,2.394-4.96,0C149.512,48.202,151.606,46.93,152.139,49.168z"/>
<path d="M130.243,50.407c0.45,1.478,2.313,1.542,2.686,3.1c-1.224,0.283-2.646-0.902-2.893-2.274
	c-0.394,0.089-0.375,0.592-1.033,0.414c0.053,0.521-0.079,1.938-1.238,1.859C128.597,52.162,128.049,50.533,130.243,50.407z"/>
<path d="M144.289,51.854c2.218,0.885,1.244,3.417,2.686,4.543c-0.137,0.826-0.772,1.154-0.826,2.066
	c-2.062-0.003-2.146-1.985-4.131-2.066C141.227,53.336,144.518,54.354,144.289,51.854z M143.05,54.333
	c0.582,0.207-0.057,0.876,0,1.238c1.013,0.808,1.485,0.874,2.479,1.652c1.267-1.079-0.211-3.256-1.446-3.717
	C144.084,54.508,143.359,54.001,143.05,54.333z"/>
<path fill="#FFFFFF" d="M144.083,53.506c1.235,0.46,2.711,2.638,1.446,3.717c-0.994-0.778-1.467-0.843-2.479-1.652
	c-0.057-0.362,0.582-1.031,0-1.238C143.359,54.001,144.084,54.508,144.083,53.506z"/>
<path d="M149.041,59.083c-1.059-2.07,1.674-1.819,1.652-3.512c1.008-0.177,1.309-0.424,2.686-0.412
	c1.327,1.305,2.842,2.509,3.716,3.718c-0.061,4.649-2.767,1.376-4.132,0.825c-0.324-0.129-1.045,0.25-1.237,0.207
	C150.605,59.659,150.057,58.808,149.041,59.083z M151.52,56.192c-0.261,1.116-1.32,1.434-1.859,2.272
	c1.622,0.07,2.32,0.937,3.719,0.207c0.964,0.343,0.799,1.815,2.479,1.445C155.615,58.378,154.415,55.951,151.52,56.192z"/>
<path fill="#FFFFFF" d="M155.857,60.116c-1.68,0.372-1.515-1.102-2.479-1.445c-1.398,0.73-2.099-0.137-3.719-0.207
	c0.539-0.838,1.599-1.156,1.859-2.272C154.415,55.951,155.615,58.378,155.857,60.116z"/>
<path d="M145.529,60.323c0.766,0.52,2.695,0.819,2.065,2.066c-0.202-0.007-0.162-0.255-0.207-0.414
	c-0.324,0.089-0.176,0.649-0.826,0.414C146.597,61.321,145.45,61.435,145.529,60.323z"/>
<path fill="#FFFFFF" d="M206.259,61.149c0.46,1.14,0.431,1.457,0.413,2.892c-0.801-0.794-1.523-0.395-2.892-0.621
	c0.204-0.829,0.683-1.382,1.033-2.064C205.466,61.458,205.543,60.983,206.259,61.149z"/>
<path d="M155.031,63.009c0.592,1.058,0.643,2.662,1.859,3.098c-0.361,6.533-10.324,1.736-4.753-1.859
	c-0.065-0.483-0.326-0.773-0.207-1.446C152.485,62.753,154.151,62.989,155.031,63.009z M151.312,66.726
	c0.262,0.358,0.699,0.542,0.619,1.24c1.025-0.199,1.103,0.551,1.859,0.62c0.824-0.69,1.667-1.365,2.274-2.272
	c-0.479,0.063-0.231-0.597-0.622-0.62c-0.084,0.26-0.266,0.421-0.619,0.412c0.058-0.884-0.631-1.022-0.412-2.066
	C152.668,62.908,152.303,65.828,151.312,66.726z"/>
<path fill="#FFFFFF" d="M154.411,64.042c-0.218,1.044,0.471,1.182,0.412,2.064c0.354,0.009,0.535-0.153,0.619-0.412
	c0.392,0.022,0.144,0.683,0.622,0.62c-0.607,0.907-1.449,1.581-2.274,2.272c-0.757-0.069-0.834-0.819-1.858-0.62
	c0.08-0.698-0.357-0.882-0.62-1.24C152.303,65.828,152.668,62.908,154.411,64.042z"/>
<path d="M200.476,65.694c1.659,0.682,3.274,1.407,3.512,3.512c-0.371,0.025-0.436-0.252-0.826-0.207
	c0.992,0.955,2.756,2.802,1.652,4.544c-1.599-0.307,0.223-2.792-1.859-3.099c-0.707,0.165-0.029,1.206-0.412,1.447
	c-1.115-0.378-0.523-1.203-0.622-2.48c0.24-0.171,0.556-0.271,1.033-0.205c0.123-0.741-0.238-1-0.412-1.447
	c-3.609-0.054-0.68,5.19-2.274,6.404c-1.324-1.632-0.203-4.891-0.204-6.611c0.242-0.236,0.729-0.233,1.237-0.205
	c-0.123-1.211-0.793-0.188-1.445-0.207C199.804,66.398,200.477,66.383,200.476,65.694z"/>
<path fill="#FFFFFF" d="M108.554,67.347c-0.848,0.888-2.091,0.168-3.1,0.619c-1.912,0.855-3.435,4.913-3.098,6.816
	c0.25,1.401,2.385,2.829,3.512,3.719c0.728,0.575,1.005,1.52,1.652,2.064c0.882,0.744,2.01,0.894,3.098,1.447
	c1.412,0.715,1.89,1.587,3.719,1.858c3.582,0.533,7.36-0.113,10.328-0.62c1.138,0.465,1.968,0.262,3.305,0
	c-3.366,2.557-6.712,5.13-7.85,9.916c-1.637-0.617-3.238-0.043-5.165-0.413c-0.881-0.167-2.064-1.237-3.305-1.653
	c-1.972-0.661-3.967-0.812-5.99-1.652c-0.707-0.294-1.59-0.836-2.479-1.239c-6.634-3.011-6.131-9.055-4.75-17.972
	c-0.16-0.598-0.328-1.188-0.826-1.446C100.751,67.041,104.565,65.751,108.554,67.347z"/>
<path fill="#FFFFFF" d="M181.471,66.521c0.176-0.038,0.197,0.08,0.207,0.205c0.483,0.961,2.025,0.865,2.686,1.653
	c-0.7,0.676-1.379,1.377-2.274,1.858c0.104,2.749,3.14,4.878,0.622,7.23c-0.359-1.638-1.595-2.401-2.686-3.305
	c-0.796,2.097-1.398,4.385-2.273,6.402c-2.336-0.873-1.271-3.748-2.064-6.61c-0.429-1.541-1.964-2.384-1.445-4.958
	c1.611-1.417,3.431-1.789,5.99-1.24C180.148,66.851,181.693,67.568,181.471,66.521z"/>
<path d="M215.761,71.064c-1.152-0.476-1.034-0.957-1.859-1.652c-1.194,0.932-0.001,3.156,0,4.752
	c-0.369-0.027-0.435,0.252-0.826,0.206c-1.094-1.603-0.163-4.326-0.411-5.37C213.854,68.208,215.6,69.548,215.761,71.064z"/>
<path d="M120.947,68.792c1.085,0.432,2.005,1.024,1.859,2.686c0.815,0.631,1.745,1.147,2.066,2.272
	c0.394-0.088,0.519-0.445,1.033-0.412c-0.482,0.413-0.643,1.147-1.033,1.652c-1.606-0.253-0.875-2.844-2.892-2.686
	c0.12-1.151-0.092-1.972-0.62-2.479c-0.556-0.078-1.686,1.017-1.859,0C120.237,69.789,119.879,69.207,120.947,68.792z"/>
<path d="M120.947,70.444c0.092,0.919-0.559,1.095-0.827,1.653c-0.168,0.789,0.996,0.244,0.827,1.033
	c-0.664-0.045-0.875,0.365-1.653,0.207C119.279,71.806,119.608,70.62,120.947,70.444z"/>
<path d="M196.344,75.815c-0.841,0.623-0.8-1.397-1.652-1.445c-1.25,1.183,0.51,2.557,0.412,3.924
	c-1.272-1.139-2.592-3.402-1.03-5.164C195.858,72.996,195.954,74.553,196.344,75.815z"/>
<path d="M146.355,77.055c-0.751,0.062-0.276-1.101-0.62-1.446c-1.675-0.16-1.38,1.651-2.892,1.652
	C142.439,74.141,148.07,73.932,146.355,77.055z"/>
<path d="M132.515,77.261c-1.124-0.876-3.316-1.195-4.338,0c0-0.482,0-0.964,0-1.446C130.108,74.951,132.018,75.352,132.515,77.261z"
	/>
<path fill="#FFFFFF" d="M86.245,76.642c-0.268,0.974-1.101,1.379-2.066,1.652C84.816,77.691,85.337,76.976,86.245,76.642z"/>
<path d="M205.02,79.327c-1.014-0.02-0.921-1.145-1.858-1.24c0.14,1.327,0.789,1.558,1.032,3.1c-1.712-0.257-2.026-2.638-1.448-4.133
	C204.171,77.146,204.687,78.147,205.02,79.327z"/>
<path fill="#FFFFFF" d="M139.538,78.914c0.458,0.602,0.839,0.083,1.859,0.207c0.491,0.54,0.763,1.303,1.446,1.653
	c-1.25,0.326-2.607,0.434-4.338,0.62c0.232-0.254,0.18-0.425-0.207-0.412C138.783,80.33,140.074,79.967,139.538,78.914z"/>
<path d="M214.521,79.534c1.132,0.522-0.638,3.118-1.239,1.445C213.322,80.124,214.373,80.28,214.521,79.534z"/>
<path fill="#FFFFFF" d="M76.949,82.839c0.009-2.9,3.519-2.32,1.446,0C77.653,82.667,77.396,83.305,76.949,82.839z"/>
<path fill="#FFFFFF" d="M68.066,86.351c-1.192,2.532-2.638,4.257-3.718,7.229c-0.503-0.528-0.94-1.125-1.238-1.859
	c-2.631-2.947-6.573-3.93-10.123-5.369c-1.209-0.491-2.18-1.528-3.511-1.859c-1.7-0.423-4.056-0.242-5.577-0.413
	c-3.425-0.387-6.936,0.683-9.502-1.238c-0.102-0.653,1.025-0.077,0.826-0.826c4.982-0.39,9.78-0.081,15.699-0.207
	c2.464-0.054,4.837,0.922,6.817,1.033C61.002,83.021,64.791,84.669,68.066,86.351z"/>
<path fill="#FFFFFF" d="M237.038,82.219c0.798,1.619-1.295,4.322-0.622,7.23c0.585,2.517,3.32,3.046,4.752,4.75
	c-8.373,3.195-11.16,11.348-23.135,10.535c2.807-1.597,6.204-2.607,7.85-5.371c0.164,0.179,0.563,0.125,0.619,0.414
	c0.51-0.798,1.375-1.242,2.271-1.653c-0.055-1.089,1.363-1.097,0.826-2.066c2.221-1.126,1.774-3.709,2.479-5.784
	c0.435-1.277,1.944-2.322,2.892-3.924C235.926,84.74,235.76,83.2,237.038,82.219z"/>
<path fill="#FFFFFF" d="M82.939,82.632c0.357,0.469,0.855,0.798,0.826,1.653C83.264,83.96,82.992,83.405,82.939,82.632z"/>
<path fill="#FFFFFF" d="M207.292,84.698c0.814,0.287,1.43,0.772,2.274,1.031c0.041,1.626-0.508,2.662-1.654,3.1
	c-0.09-0.254-0.265-0.424-0.62-0.413C207.694,87.275,206.817,85.497,207.292,84.698z"/>
<path fill="#FFFFFF" d="M74.47,85.73c0.01,0.905-0.59,1.201-1.031,1.652C72.934,86.799,73.773,85.8,74.47,85.73z"/>
<path fill="#FFFFFF" d="M231.048,89.655c0.35-0.075,0.387,0.161,0.411,0.412c-1.574,2.695-1.795,6.743-4.957,7.85
	C227.557,94.704,228.41,91.287,231.048,89.655z"/>
<path fill="#FFFFFF" d="M165.566,90.688c-3.966,1.546-10.053,4.545-10.535,9.296c-0.055,0.51,0.012,1.841,0.206,2.479
	c0.387,1.271,1.582,2.04,2.063,3.098c0.471,1.029,0.809,1.781,1.652,2.686c-1.635-0.017-2.8-2.293-5.575-1.859
	c-5.319-2.807-8.68-7.57-16.319-8.055c4.135-3.285,8.847-4.781,15.079-5.578c1.848-1.646,5.772-1.083,7.85-1.033
	C160.627,89.524,163.313,90.65,165.566,90.688z"/>
<path fill="#FFFFFF" d="M92.647,91.928c2.69,1.717,4.726,5.878,9.297,6.403C97.249,98.619,94.985,94.686,92.647,91.928z"/>
<path fill="#FFFFFF" d="M80.874,93.787c0.611,0.284,1.493,0.297,1.859,0.826c-0.321,0.712-1.103,0.963-1.859,1.239
	c0.097-0.441-0.295-0.393-0.62-0.412C80.109,94.537,80.85,94.521,80.874,93.787z"/>
<path fill="#FFFFFF" d="M205.227,97.505c-0.041,0.167-0.207,0.205-0.207,0.412c-1.817,1.229-4.681,1.285-6.612,2.892
	c-1.213,1.011-2.462,2.083-2.063,4.544c0.193,1.183,1.739,1.841,1.033,3.717c1.983,0.426,3.009,1.811,4.957,2.272
	c-4.128,1.822-10.87,1.053-13.014-2.479c-1.644,0.838-3.531-0.742-5.783-1.032c-4.595-0.592-9.67,0.042-14.255-1.447
	c5.804-2.613,13.648,2.875,19.211,1.239c-0.162-1.039-0.197-1.133,0.413-1.652c-0.129-0.491-1.273,0.032-1.448-0.413
	c-1.045-1.946-1.616-4.349,0.826-6.197c0.296-0.223,2.152-0.628,2.893-1.032c0.495-0.271,1.295-1.081,1.859-1.24
	c1.106-0.314,2.61,0.048,3.716-0.207c2.08-0.477,3.872-1.347,5.786-0.826C203.111,97.648,204.386,96.27,205.227,97.505z"/>
<path fill="#FFFFFF" d="M85.831,96.059c0.297,0.254,0.392,0.71,0.414,1.24C85.463,97.476,85.513,96.374,85.831,96.059z"/>
<path fill="#FFFFFF" d="M89.756,96.059c1.112-0.044,0.534,1.713,0.206,2.066C89.009,98.131,89.249,96.363,89.756,96.059z"/>
<path fill="#FFFFFF" d="M70.959,97.092c-0.302,0.457-0.14,1.376-0.621,1.652c-0.569-0.119-0.863-0.514-1.446-0.62
	C68.809,96.746,70.14,96.492,70.959,97.092z"/>
<path fill="#FFFFFF" d="M105.249,98.744c-0.532,0.132-2.844,0.162-2.892-0.206C102.303,98.14,104.747,98.269,105.249,98.744z"/>
<path fill="#FFFFFF" d="M118.262,102.256c-2.079-0.523-4.18-0.919-6.611-1.859C113.359,99.592,117.344,100.378,118.262,102.256z"/>
<path fill="#FFFFFF" d="M81.08,100.19c0.742-0.151,2.099,0.358,2.686,0.62C83.195,101.222,82.012,100.538,81.08,100.19z"/>
<path fill="#FFFFFF" d="M89.756,101.636c0.987,1.042-1.038,2.317-1.033,3.718C88.05,103.919,89.533,102.861,89.756,101.636z"/>
<path fill="#FFFFFF" d="M119.089,102.669c0.505-0.155,2.251,0.22,2.479,1.032C120.481,103.616,119.888,103.04,119.089,102.669z"/>
<path fill="#FFFFFF" d="M94.094,103.908c-0.487-0.004-0.609,0.355-1.24,0.207c0.17-0.584-0.291-0.535-0.207-1.033
	C93.349,102.611,94.41,102.442,94.094,103.908z"/>
<path fill="#FFFFFF" d="M79.221,106.18c0.007,1.514-2.807,2.942-4.545,1.654C74.521,105.236,78.117,104.015,79.221,106.18z"/>
<path fill="#FFFFFF" d="M106.487,107.42c2.471,4.054-4.088,7.637-4.957,3.926C100.816,108.297,104.014,107.584,106.487,107.42z"/>
<path fill="#FFFFFF" d="M122.806,107.834c0.334-0.06,0.355,0.194,0.621,0.203c0.218,1.458-0.84,1.641-1.033,2.686
	C121.303,109.979,123.391,109.391,122.806,107.834z"/>
<path fill="#FFFFFF" d="M114.957,108.66c-0.014,0.741-0.861,0.651-1.652,0.619C113.317,108.55,114.342,108.147,114.957,108.66z"/>
<path fill="#FFFFFF" d="M92.647,109.486c0.132,0.82-0.262,1.114-0.619,1.445c-0.361-0.189-0.457-0.646-0.412-1.238
	C92.112,109.776,92.064,109.315,92.647,109.486z"/>
<path fill="#FFFFFF" d="M82.939,110.725c-0.199,0.767-0.619,1.311-1.447,1.448C81.142,111.655,82.042,109.992,82.939,110.725z"/>
<path fill="#FFFFFF" d="M121.98,110.932c-0.429,2.946-3.234,5.303-5.99,6.609C117.661,115.013,120.039,113.191,121.98,110.932z"/>
<path fill="#FFFFFF" d="M160.814,117.748c-6.562-1.176-10.167-4.149-15.904-5.99c2.074-0.395,5.219,0.489,6.609,2.272
	c2.502,0.606,4,0.951,5.784,2.274C159.103,116.155,160.521,116.389,160.814,117.748z"/>
<path fill="#FFFFFF" d="M126.318,116.509c0.122-2.857,5.448-4.599,5.785-1.654C132.42,117.646,127.972,119.484,126.318,116.509z"/>
<path fill="#FFFFFF" d="M111.858,114.65c0.409,0.391,0.101,0.976,0,1.445c-1.04-0.198-1.791,1.197-2.272-0.619
	C110.71,115.53,110.618,114.829,111.858,114.65z"/>
<path fill="#FFFFFF" d="M82.113,115.477c-1.176,0.416-3.876,0.012-3.718,0.619c-0.941-0.381-2.933-0.066-4.338-0.207
	C75.139,115.382,80.964,114.6,82.113,115.477z"/>
<path fill="#FFFFFF" d="M140.984,117.336c0.695-0.213,0.321,0.642,0.413,1.03c-0.678-0.03-0.913,0.925-1.448,0.413
	C139.831,117.835,140.642,117.818,140.984,117.336z"/>
<path fill="#FFFFFF" d="M155.031,117.336c0.879,0.133,2.274,1.783,2.892,0.826c0.354,1.733-3.271,1.272-4.134,2.479
	c-4.747-1.456-8.214,1.609-10.74,3.717c1.083-3.532,6.171-4.847,10.948-5.369C154.658,118.753,154.528,117.728,155.031,117.336z"/>
<path fill="#FFFFFF" d="M195.725,118.988c0.392,0.846,1.283,1.193,1.856,1.859c-3.099-0.441-7.308-2.389-11.154-2.066
	c-0.914,0.077-1.748,0.733-2.683,0.826c-1.884,0.187-4.257-0.66-6.197,0.412c-3.276-1.285-7.967-0.143-10.535-1.858
	c2.173-1.237,3.704,0.005,5.99-0.205c2.151,1.317,6.264,1.012,9.09,0c0.8-0.181,0.734,0.504,1.238,0.619
	c1.238-1.162,4.513,0.483,5.164-0.619C190.29,118.781,193.258,119.584,195.725,118.988z"/>
<path fill="#FFFFFF" d="M113.098,118.781c-1.674,0.964-5.683,2.982-7.644,1.033C108.405,119.587,110.236,118.64,113.098,118.781z"/>
<path fill="#FFFFFF" d="M78.602,120.434c-0.048,0.573-0.656,0.584-0.826,1.033c-0.773,0.016-0.705-0.811-0.826-1.448
	C77.699,119.531,78.303,119.543,78.602,120.434z"/>
<path fill="#FFFFFF" d="M116.196,119.607c1.03,0.485,2.159,0.871,1.859,2.686C117.383,121.451,116.901,120.417,116.196,119.607z"/>
<path fill="#FFFFFF" d="M120.741,120.434c0.481,0.069,0.89,0.212,1.033,0.619c-0.094,0.734-0.508,1.146-1.24,1.24
	C120.06,121.757,120.542,120.926,120.741,120.434z"/>
<path fill="#FFFFFF" d="M157.303,120.641c0.026,0.37-0.253,0.436-0.207,0.826c-0.496,0.085-0.447-0.378-1.03-0.207
	C156.184,120.76,156.844,120.8,157.303,120.641z"/>
<path fill="#FFFFFF" d="M181.265,120.848c0.413,0,0.826,0,1.239,0c5.884,5.896,1.572,17.637-6.403,17.764
	c3.43-1.871,6.627-3.977,8.472-7.436c-0.033-1.713-0.422-4.056-0.828-5.993c-0.773-0.533-1.067-1.548-1.238-2.683
	C182.242,121.798,181.358,121.717,181.265,120.848z"/>
<path fill="#FFFFFF" d="M83.766,121.053c0.556,0.245,0,1.078,0,1.448C83.209,122.255,83.767,121.422,83.766,121.053z"/>
<path fill="#FFFFFF" d="M101.944,121.673c0.854-0.778,1.51,1.279,1.031,1.857C102.183,123.362,102.914,121.667,101.944,121.673z"/>
<path fill="#FFFFFF" d="M93.061,122.086c-1.063,1.21-1.814,2.73-3.926,2.893c-0.09-0.185-0.181-0.372-0.412-0.414
	C89.104,122.675,90.949,122.246,93.061,122.086z"/>
<path fill="#FFFFFF" d="M134.167,123.326c1.032-0.206,1.011,0.641,1.859,0.619c-0.073,0.686-0.618,0.896-1.033,1.237
	C134.146,125.18,133.636,124.058,134.167,123.326z"/>
<path fill="#FFFFFF" d="M103.183,123.738c0.493,0.199,0.803,1.203,0.414,1.652C102.952,125.157,103.547,124.505,103.183,123.738z"/>
<path fill="#FFFFFF" d="M119.708,124.359c1.293,1.254,2,3.096,3.924,3.717C121.31,128.677,120.562,125.916,119.708,124.359z"/>
<path fill="#FFFFFF" d="M161.021,124.771c1.776-0.261,2.912,1.905,3.719,3.305C162.905,127.569,162.431,125.703,161.021,124.771z"/>
<path fill="#FFFFFF" d="M141.191,124.979c0.063-0.281,0.517-0.172,0.826-0.207c-0.246,1.063-1.553,1.064-1.446,2.479
	c-4.396,1.36-7.344,1.987-12.188,2.066c0.274-1.095,1.872-0.842,2.686-0.414C134.462,128.396,139.608,126.526,141.191,124.979z"/>
<path fill="#FFFFFF" d="M110.825,128.902c-0.757,0-1.515,0-2.271,0c-0.529-1.084-0.941-1.325-0.414-2.686
	c1.851-1.107,3.79-1.119,3.512,1.24C111.575,128.107,111.164,128.223,110.825,128.902z"/>
<path fill="#FFFFFF" d="M175.895,125.185c0.333-0.057,0.355,0.197,0.619,0.206c-0.033,2.102-1.232,3.037-2.686,3.719
	C172.579,127.336,175.165,126.307,175.895,125.185z"/>
<path fill="#FFFFFF" d="M191.387,125.598c1.13,0.384,1.589,1.44,2.89,1.652c0.38,0.24-0.108,1.349,0.826,1.033
	c-0.515,1.273-0.554,3.025-2.479,2.893C191.647,129.679,190.276,127.488,191.387,125.598z"/>
<path fill="#FFFFFF" d="M103.183,126.012c0.593,0.026,0.378,0.86,0.414,1.445C102.811,127.623,103.333,126.48,103.183,126.012z"/>
<path fill="#FFFFFF" d="M82.939,126.217c0.556-0.055,0.588,1.455,0.205,1.653C82.187,127.828,83.066,126.73,82.939,126.217z"/>
<path fill="#FFFFFF" d="M95.747,127.87c0.27,0.211,0.761,0.202,1.033,0.413c-0.064,0.774-0.692,0.839-1.24,0.619
	C95.473,128.424,95.573,128.11,95.747,127.87z"/>
<path fill="#FFFFFF" d="M102.976,127.87c0.849,0.597,0.987,1.907,1.24,3.101C103.425,130.313,103.044,129.248,102.976,127.87z"/>
<path fill="#FFFFFF" d="M158.336,130.349c0.886,1.624-0.361,2.384-1.652,2.892C154.777,132.537,156.658,128.862,158.336,130.349z"/>
<path fill="#FFFFFF" d="M120.947,131.588c-0.781,2.086-4.076,3.568-2.891,7.23C115.975,136.718,118.988,133.243,120.947,131.588z"/>
<path fill="#FFFFFF" d="M179.406,132.001c-0.456,0.437,0.265,0.61,0.204,1.238c-1.222-0.228-1.359,1.339-2.063-0.826
	C178.368,132.479,178.584,131.938,179.406,132.001z"/>
<path fill="#FFFFFF" d="M175.688,133.447c-0.15,1.089-0.368,2.11-1.652,2.065C174.017,134.25,174.526,132.902,175.688,133.447z"/>
<path fill="#FFFFFF" d="M131.689,133.447c0.064,1.234-0.3,2.041-1.653,1.859C129.841,133.939,130.179,133.108,131.689,133.447z"/>
<path fill="#FFFFFF" d="M154.411,133.654c0.595,0.09,0.487,0.887,1.03,1.031c-0.361,0.328-1.098,0.275-1.652,0.412
	C154.004,134.623,154.502,134.434,154.411,133.654z"/>
<path fill="#FFFFFF" d="M108.347,134.48c0.129,1.162-0.449,1.614-1.238,1.859C106.636,135.556,107.187,134.292,108.347,134.48z"/>
<path fill="#FFFFFF" d="M184.57,135.307c0.705-0.089,0.62,0.619,1.03,0.826c-0.533,0.945-0.562,1.295-0.412,2.686
	C184.275,138.011,184.492,136.707,184.57,135.307z"/>
<path fill="#FFFFFF" d="M191.18,136.959c-0.463,0.362-0.799,0.854-1.033,1.445c-0.726-0.237-0.796-1.13-1.238-1.652
	C189.023,135.366,191.297,135.455,191.18,136.959z"/>
<path fill="#FFFFFF" d="M122.806,135.926c0.276,0,0.552,0,0.826,0c0.096,0.646-0.179,0.922-0.826,0.826
	C122.806,136.477,122.806,136.202,122.806,135.926z"/>
<path fill="#FFFFFF" d="M102.149,136.133c0.461,0.211-0.269,0.95,0,1.652c-0.885,0.059-1.365-0.287-1.859-0.62
	C100.917,136.827,102.024,136.972,102.149,136.133z"/>
<path fill="#FFFFFF" d="M162.26,136.34c0.947,0.018,0.866,1.062,1.033,1.856c-1.133-0.063,0.064,1.743-1.445,1.654
	c0.446-0.777-0.324-0.876-0.413-1.654C162.362,138.231,161.994,136.968,162.26,136.34z"/>
<path fill="#FFFFFF" d="M136.853,137.165c5.375-0.195,0.592,7.152-0.619,2.891C135.88,138.814,136.675,138.361,136.853,137.165z"/>
<path fill="#FFFFFF" d="M224.437,153.69c-5.446,2.994-12.636,3.64-18.797,3.719c-2.502,0.032-5.266-0.812-6.817-2.479
	c-3.945,0.746-8.043-0.907-11.154,0.412c-1.672,0.711-4.611,3.035-5.577,4.134c-2.087,2.37-2.688,6.187-3.716,9.089
	c-3.132-5.991-3.64-13.678-5.578-20.656c3.61-1.645,9.496-2.154,15.287-2.686c2.172-2.992,6.242-4.087,9.09-6.402
	c0.176-0.038,0.195,0.08,0.207,0.205c1.669,0.189,1.919,1.799,3.924,1.654c1.704,2.866,5.158,3.565,7.85,5.99
	c1.361,1.227,4.448,3.737,6.61,4.751c1.093,0.512,2.268,0.912,3.101,1.24C220.539,153.321,222.752,152.598,224.437,153.69z"/>
<path d="M92.441,139.024c1.777,0.78,0.165,3.026-1.652,2.686c-0.902-0.808-0.683-2.84,1.031-2.686
	c0.004,0.764-0.091,1.423-0.826,1.448C91.775,141.141,92.57,139.316,92.441,139.024z"/>
<path fill="#FFFFFF" d="M155.237,139.438c1.013,1.121-0.6,1.798-1.239,2.479C152.637,141.246,153.829,139.235,155.237,139.438z"/>
<path fill="#FFFFFF" d="M182.091,140.884c1.144,0.501-0.169,1.812-0.62,2.065c-0.444-0.176-0.73-0.508-0.619-1.239
	C181.578,141.748,181.741,141.223,182.091,140.884z"/>
<path fill="#FFFFFF" d="M127.97,141.71c0.149,1.878-1.702,3.367-2.89,2.065c0.125-0.495,0.296-0.941,0.205-1.652
	C126.341,142.828,126.795,140.846,127.97,141.71z"/>
<path d="M105.661,145.016c-0.244,1.615-0.892,2.826-2.891,2.685c-2.026-1.263,1.102-4.892,1.653-2.89
	C104.427,145.174,105.396,144.479,105.661,145.016z M104.628,145.428c-0.395-0.088-0.374-0.591-1.031-0.412
	c-0.182,0.664,0.682,0.282,0.619,0.825c-0.631,0.151-0.753-0.209-1.24-0.204c-0.218,0.833-0.27,1.485,0.826,1.445
	c-0.16-0.994,1.442-1.303,1.033-1.859C104.823,145.348,104.804,145.466,104.628,145.428z"/>
<path fill="#FFFFFF" d="M167.012,145.635c0.425,0.055,0.194,0.77,0.619,0.826c-0.058,0.627-1.092,0.284-1.237,0.826
	C165.727,146.675,167.015,146.27,167.012,145.635z"/>
<path d="M127.765,150.799c0.99,1.858,0.19,2.744,0,4.751c-3.376,1.189-4.711-2.015-3.1-4.545
	C125.848,150.726,126.396,150.511,127.765,150.799z M125.079,154.311c0.482,0.068,0.854,0.248,1.238,0.412
	c0.957-0.661,1.556-1.908,0.622-2.891C125.083,151.397,124.49,152.945,125.079,154.311z"/>
<path fill="#FFFFFF" d="M126.938,151.832c0.934,0.983,0.336,2.23-0.622,2.89c-0.385-0.163-0.756-0.343-1.238-0.412
	C124.49,152.945,125.083,151.397,126.938,151.832z"/>
<path d="M121.774,156.169c-0.068,0.484-0.249,0.854-0.414,1.24c-0.771,0.221-0.588-0.513-1.24-0.413
	C119.817,155.424,121.269,155.336,121.774,156.169z"/>
<path d="M230.221,102.256c-1.476,2.873-7.07,3.87-11.156,3.719c0.207,1.735,1.287,3.204,1.448,4.544
	c0.569,4.821-3.687,5.424-6.612,7.437c6.47,2.436,10.682,6.921,18.178,5.783c0.74-0.111,1.891-0.765,2.479,0.414
	c-0.857,0.48-2.146-0.234-3.098,0.826c-0.813,0.33-0.072-0.893-0.62-0.826c-1.3,1.871-3.96,1.08-6.197,1.03
	c-0.208-0.621,0.461-0.366,0.826-0.412c0.178-0.865-0.924-0.452-1.237-0.826c-0.334,0.083,0.008,1.212,0.205,1.446
	c-1.626,0.234-3.243,0.37-4.543,0c-0.382,0.512-2.852,1.14-3.927-0.206c2.437-0.028,3.367-0.099,4.753-0.413
	c0.439-0.097,0.393,0.295,0.411,0.619c0.428-0.604,1.341-0.725,2.479-0.619c0.242-0.445,0.428-0.95,0.621-1.445
	c-0.303,1.09-2.937-0.12-2.686-0.826c-0.793-0.038-0.075,0.167-0.206,0.619c-0.77-1.072-3.799-2.01-6.197-3.101
	c-0.44,0.097-0.394-0.295-0.412-0.62c-3.516-1.487-8.497,1.143-13.014,0.827c-0.164,0.832-2.688,1.454-3.927,1.239
	c1.955,1.387,4.154,2.791,4.131,5.576c0.463-0.746,1.489-1.073,2.274-1.237c2.46-0.521,5.897-0.63,7.85-0.413
	c0.52,0.058,0.258,0.104,0.204,0.413c1.203-0.709,2.771-0.965,3.512,0.206c-2.173,0.284-3.271,0.48-5.99,0
	c-0.731,0.021,0.441,0.683-0.204,0.62c-0.699-1.006-3.498,0.459-5.577,0.826c-0.412,0.072-1.841-0.425-2.272,0.826
	c-0.182,0.524,0.097,1.114,0,1.652c-0.534,2.898-1.826,5.907-3.307,7.85c0.479,0.624,1.295,0.91,1.654,1.653
	c3.345,0.393,5.469,3.742,7.849,5.783c1.191,0.014,2.9,1.205,3.717,2.271c1.702,0.642,3.186,1.497,4.338,2.686
	c2.13,0.094,3.517,1.967,5.783,1.24c-2.102-1.924-3.326-4.247-5.368-7.023c0.129-1.453,0.053-3.115,1.03-3.719
	c-0.235-0.698-0.41-0.324-0.204-1.237c0.925-2.312,2.315-4.154,4.132-5.577c4.758-0.612,7.584-3.154,10.74-5.369
	c0.632-0.152,0.607,0.355,1.239,0.205c-1.37-1.417,2.058-2.903,2.892-4.132c-0.593-0.196-0.881-0.371-1.858,0
	c1.015-1.396,2.46-2.357,4.338-2.892c0.666,0.943-0.471,2.564-1.24,2.065c-0.456,2.918-3.693,3.054-4.338,5.784
	c-3.538,1.816-7.061,5.438-11.154,5.371c-0.979,1.066-3.114,2.635-3.305,5.164c-0.371-0.026-0.436,0.252-0.826,0.206
	c-0.391,4.016,0.669,6.77,3.512,8.47c-0.192,1.108-0.651-0.409-1.24-0.207c1.405,1.848,3.651,3.139,6.197,4.338
	c0.154,1.723-3.261,3.701-4.751,3.101c-1.373,0.984-4.465,2.398-5.99,1.857c-5.021,0.896-10.209,1.197-15.493-0.205
	c-0.63-0.012-0.495,0.743-1.239,0.619c-4.5,5.278-11.403,8.151-18.797,10.535c-0.117,1.769,1.568,2.655,1.237,3.512
	c2.439,1.048,4.803,3.841,7.644,5.164c-0.16,0.184-0.223,0.467-0.205,0.826c-1.615,0.149-4.542-0.277-5.164-1.239
	c-3.434,0.12-7.102-1.292-9.502-2.891c-1.096-2.691-2.491-5.084-4.959-6.403c-1.262,0.667-1.721,2.135-3.717,2.066
	c-2.037,2.025-6.423,1.702-8.469,3.716c-5.49,0.518-10.254,1.401-17.146,0.207c-0.941,3.271,1.893,6.293,3.511,9.295
	c-0.798,0.781-1.752,0.196-2.272-0.412c-2.456-0.453-5.5-0.726-7.85-1.652c-1.323-0.522-2.07-1.23-3.924-1.654
	c-0.981-1.72-2.886-3.568-3.512-4.958c-1.5-0.015-1.657-1.372-2.273-2.271c-0.949,1.087-2.98-0.197-3.924,0.619
	c-0.125-0.839-1.607-0.32-1.653-1.237c-7.065-1.596-14.617-2.331-19.211-5.786c-3.147,4.809-4.527,11.189-1.652,16.94
	c0.373,0.482,1.284,1.2,0.62,2.063c-4.838-2.735-9.24-5.906-11.155-11.565c-0.076-0.352,0.162-0.39,0.414-0.413
	c-0.051-0.26-0.411-0.208-0.414,0c-0.894-2.737-1.367-7.686-2.686-11.155c-8.306-1.059-15.727-4.786-20.035-10.533
	c-5.927,3.896-9.994,10.847-11.155,17.766c1.344,0.83,0.459,2.801,1.238,4.338c-0.166,0.178-0.564,0.123-0.62,0.412
	c-1.917-1.269-2.334-4.529-3.305-7.229c-1.84-5.124-2.9-11.797-0.414-17.559c0.183-0.16,0.466-0.222,0.826-0.206
	c-0.555-1.383,1.076-3.781,2.066-4.958c-0.688-2.324,0.897-3.832,0.207-6.197c-1.688-5.777-6.224-9.226-13.221-9.706
	c-5.009,0.474-10.812,0.374-15.079,2.479c-0.396-0.794,0.01-1.69,0.826-1.859c1.606-4.743,4.679-6.748,7.85-9.917
	c2.419-0.953,5.061-2.785,7.022-3.511c0.377-0.931,1.743-0.873,2.066-1.857c0.583,0.241,0.879,0.042,1.446-0.206
	c0.53-0.021,0.333-0.771,0.621-1.033c3.69-1.305,5.205-5.283,6.195-8.676c-0.197-4.685-1.323-9.201-2.479-11.774
	c-3.225-3.133-7.208-6.061-12.807-6.197c-0.323-0.296-0.719-0.52-0.826-1.032c-1.267-0.042-2.735,0.12-2.891-1.032
	c2.146-1.786,4.556-2.86,8.674-2.686c5.041,0.213,8.946,0.046,14.254,0.62c2.031,0.219,4.306,0.048,6.197,0.413
	c1.02,0.197,1.991,1.133,3.098,1.653c2.128,0.999,3.851,1.185,5.371,2.479c3.135-3.001,4.973-8.693,10.329-10.123
	c2.76-1.541,6.495-2.994,10.328-2.272c1.692-3.344-0.261-7.738-0.207-11.566c0.023-1.56-0.308-3.357,0-4.545
	c0.152-0.586,0.696-0.809,1.033-1.445c1.499-2.823,1.771-5.525,3.924-7.438c2.314-1.542,4.837-2.875,6.404-5.164
	c3.311-0.545,5.522-2.189,8.057-3.512c0.308,0.242,0.844,0.256,1.031,0.621c0.82-0.731,1.827-0.777,3.1-0.621
	c0.833-0.129,1.115-0.811,2.064-0.826c5.49-4.839,14.343-7.414,20.863-10.535c2.321-3.087,6.095-5.602,10.328-6.61
	c0.748-0.178,2.03-0.402,2.893-0.412c4.554-0.059,10.74,0.455,15.079-0.207c10.023-0.737,16.624,3.147,23.342,6.403
	c3.766,1.825,7.493,3.492,11.154,5.577c6.358,3.625,10.298,9.671,15.286,14.666c3.393,5.765,4.461,13.857,6.197,21.276
	c6.275-1.652,10.232,1.81,14.666,4.131c0.735,2.189,2.722,4.12,2.479,6.612c0.258,0.51,1.058-0.798,1.448-0.207
	c-0.484,2.432-0.716,5.281-0.827,7.436c-0.014,0.258-0.438,0.784-0.412,1.033c0.259,2.62,2.187,3.15,3.926,4.752
	c1.575,0.268,4.035-1.254,5.164,0c-1.348,1.471-3.34,1.464-4.959,2.272c-3.569,1.782-6.438,4.646-9.502,6.816
	c-0.514,0.022-0.64,0.387-1.031,0C231.581,102.241,230.594,102.731,230.221,102.256z M142.431,24.587
	c-4.972,2.188-8.187,6.137-10.742,10.742c-1.033,0.138-1.399,0.942-1.653,1.859c-3.403,3.689-6.842,7.34-8.056,13.219
	c-0.51,0.522-1.027,1.037-1.033,2.066c0.744-0.056,0.996,0.38,1.654,0.412c-0.005,0.486,0.355,0.608,0.205,1.239
	c1.142-0.527,0.72,0.494,1.652,0.62c2.414-1.721,3.33-9.379,5.578-10.535c1.955-1.003,6.63,0.272,6.816,1.859
	c0.957-0.817,2.178-0.503,3.306-0.412c0.287,0.881,0.448,1.89,1.445,2.064c-0.25,0.024-0.486,0.062-0.412,0.414
	c3.554,1.795-1.476,8.394-3.098,3.098c-0.656,4.944,4.155,6.884,4.542,10.742c-1.561-2.271-3.569-4.425-4.957-6.816
	c-0.994-1.715,0.085-4.63-1.859-5.991c1.115-3.845-3.246-5.15-6.197-3.512c0.804,1.437-1.384,1.929-0.826,3.925
	c-1.832,0.63-1.094,3.784-2.685,4.131c-0.012,1.435-1.017,1.877-1.858,2.479c-1.295-1.185-2.091-2.869-4.545-2.891
	c-0.284,1.883-2.286,2.324-1.859,4.338c-2.071,0.2-1.388,3.157-3.305,3.512c-0.413,2.9,3.353,3.521,3.305,7.229
	c2.05-1.162,1.568-3.604,4.545-3.717c-0.208-0.003-0.26-0.363,0-0.414c0.846,0.677,1.941,1.984,1.652,3.512
	c-1.273-0.104-0.86-1.893-1.446-2.686c-1.409-0.083-1.678,0.545-2.273,0.826c0.741,0.298,2.047,1.113,1.859,1.653
	c-0.592-0.31-2.261-0.621-2.686-0.412c0.098,0.313-0.696,1.5-0.62,2.479c-0.275,0-0.55,0-0.826,0
	c-0.578,1.719,1.124,1.971,0.412,3.717c2.588,3.472,6.674,5.445,10.123,8.057c2.038-0.538,4.419,0.916,5.99,0
	c3.183,1.566,5.488,4.014,9.089,5.164c7.046-0.985,11.817-0.87,18.591,0.826c0.3,0.46,0.52,0.996,0.413,1.859
	c2.554-0.113,4.448,1.088,7.23,1.033c-0.449,0.43,0.023,0.666,0.204,1.032c1.472-0.093,2.148,0.605,3.307,0.826
	c-0.121-0.669,0.14-0.96,0.205-1.446c1.022-0.494,1.396-1.632,2.065-2.479c3.123-1.215,2.788-5.888,7.437-5.577
	c1.998-1.446,5.043-1.843,5.785-4.543c0.265,0.012,0.286,0.265,0.62,0.205c0.536-1.745,2.126-4.475,1.446-5.99
	c-0.023,0.252-0.062,0.488-0.412,0.413c0.062-2.622,1.657-3.713,2.271-5.784c0.544-0.062,0.679,0.287,0.62,0.826
	c1.027-0.418,1.759-1.133,2.892-1.447c-0.562-1.02,0.332-4.04,1.859-3.512c-0.2,1.523-1.427,2.017-1.239,3.926
	c-0.994,1.469-2.338,0.808-3.512,1.652c-0.329,0.237-1.513,1.667-1.652,2.066c-0.428,1.222,0.553,2.148,0.413,3.717
	c-0.142,1.618-1.312,2.52-1.859,3.306c-0.539,0.774-0.387,1.583-1.033,2.065c-0.688,0.513-0.044-0.002-0.619,0.826
	c-1.583,2.282-5.125,2.339-7.85,3.512c-1.854,3.241-5.135,5.056-6.61,8.676c2.505,1.317,5.453,1.06,8.47,1.859
	c0.084-0.259,0.267-0.422,0.619-0.412c-1.502-4.078,2.44-6.386,5.371-6.61c-0.027-0.66,0.453-1.87,0.826-1.447
	c-0.542,1.18,0.197-0.236,0.619,0.414c0.355,1.112-0.936,0.579-1.236,1.033c1.635,0.36,1.198,2.794,2.89,3.098
	c0.773-0.466,1.333-1.146,2.479-1.238c0.483-2.315,1.202-3.12,2.892-4.752c2.55,0.273,4.628,1.019,4.751,3.718
	c0.586,0.034,0.483-0.621,1.033-0.621c1.001,0.518,3.187,2.679,1.652,3.718c-0.829-0.548-0.367-2.386-1.859-2.272
	c-0.771,0.14,0.155,0.686-0.619,0.827c-0.176-0.307-0.52-0.446-1.033-0.414c-0.593,0.439-0.971,1.096-1.237,1.859
	c1.181,0.597-0.26,1.869-0.619,2.273c-1.127-1.527,0.578-4.136,1.237-5.785c-1.217-3.847-5.368-1.088-5.164,2.273
	c-2.548,2.291-6.179,1.794-6.197-1.653c-1.744,0.234-3.174,1.477-4.542,1.447c-0.139,1.762-1.49,3.424-0.622,4.958
	c4.993,0.943,8.819,1.2,13.429,0.412c-0.801-0.488-0.041-1.623,0.826-1.653c-0.107,0.651-0.23,1.287-0.826,1.447
	c4.979-0.418,10.932-2.992,16.523-3.926c5.727-0.955,10.687-3.101,9.502-10.948c-1.121-1.702-2.506-3.138-3.51-4.958
	c-1.315-0.572-2.203-1.608-2.481-3.099c-0.154-0.833,0.239-1.473,0.207-2.272c-0.051-1.277-0.957-2.643-1.237-4.338
	c-0.221-1.326,0.188-2.859,0-3.925c-0.107-0.608-0.926-1.24-0.622-1.859c-1.732-0.747-2.017-2.941-3.512-3.926
	c-1.09-4.003-4.144-6.043-7.847-7.436c-0.342,0.691-0.072,1.994-0.414,2.686c1.934,1.715,3.111,5.617,1.652,9.088
	c3.084,0.634,0.848,5.332,2.686,7.23c-0.248,0.232-0.374,0.589-1.032,0.412c0.308-1.685-1.104-1.65-1.033-3.098
	c-0.707,0.229-1.668-1.035-1.858,0c0.148,1.025,1.417,2.713,2.064,3.925c-0.41,0.003-0.262,0.563-0.826,0.413
	c-1.294-1.46-1.611-3.896-2.892-5.371c0.391-0.779,0.55-1.792,1.033-2.479c-1.933,0.753-2.878,2.493-5.371,2.686
	c-0.384-0.367,0.168-0.525,0-1.24c1.525-0.541,3.111-1.02,3.927-2.272c0.34,0.003,0.115,0.573,0.412,0.62
	c0.185-1.193,1.75-1.004,2.274-1.859c1.438-4.936-4.125-7.512-1.24-11.981c7.229,0.417,8.894,8.184,13.014,12.395
	c-0.761-3.854-2.528-6.698-3.512-10.328c-1.127-0.938-2.175-1.955-2.686-3.512c-4.269-2.822-5.949-8.234-11.154-10.122
	c-1.099,5.282-5.586-0.689-5.369-3.718c-8.094-2.674-14.739-8.399-23.757-9.502c-2.637-0.323-5.703,0.028-8.676,0
	c-3.179-0.03-6.456,0.81-9.502,0.62c-3.607-0.226-6.459-0.483-8.881,1.652c0.838,0.899,1.809,1.505,2.064,2.479
	c3.367,0.69,7.204-0.453,9.295-2.272c3.062,0.824,5.357-0.094,9.298-0.412c0.43-0.396,0.863-0.789,1.031-1.447
	c0.309,0.312,1.177,0.062,1.032,0.827c-1.597,3.037-6.638,1.882-10.535,2.891c-0.099-0.245-0.22-0.468-0.411-0.62
	c-2.645,2.14-6.6,2.817-10.328,2.064c-0.353-1.037-1.792-2.205-1.24-2.891C143.113,25.177,142.457,25.485,142.431,24.587z
	 M113.304,40.493c-0.708,0.748-1.539,0.104-2.686,0.412c0.016,1.707,0.762,2.682,1.033,4.133
	c-1.402,11.246-18.779,9.304-16.938,23.342c2.57-0.591,4.6-2.256,7.23-2.892c5.757-1.393,11.088,2.184,14.666,4.957
	c0.361-4.211-2.505-6.813-5.164-8.676c-1.478-2.019-1.188-6.308,0.62-7.85c2.277-0.956,5.245-1.226,6.816-2.891
	c0.156-1.674-0.933-3.193-0.414-4.544c1.791,0.755,1.381,2.959,1.652,4.751c0.951-1.565,1.165-3.68,1.859-5.37
	c0.375-0.908,1.058-2.543,1.652-3.1c0.218-0.202,0.649,0.052,0.826-0.205c0.405-0.587,0.311-1.356,0.622-1.859
	c0.537-0.875,1.577-1.263,2.271-2.066c-0.045,0.054-0.506-0.089-0.412-0.207c0.049-0.059,0.714-0.094,1.031-0.412
	c0.521-0.522,0.308-1.769,1.24-1.033c0.394-2.189,3.528-3.33,3.719-6.403c-6.018,3.21-13.464,4.991-17.973,9.708
	c1.314,0.802,1.709,2.53,3.718,3.512c-0.843,0.36,0.332,1.531-0.619,1.859c-0.388-1.345-2.322-1.974-2.273-3.098
	C114.941,42.707,114.149,41.03,113.304,40.493z M198.203,36.981c0.803-1.176-0.301-1.933-0.622-3.098
	c-0.05,0.363-0.353,0.471-0.826,0.412c-0.128-0.696-0.699-0.95-1.445-1.033C195.989,34.788,196.533,36.447,198.203,36.981z
	 M139.745,52.267c0.273,0,0.551,0,0.826,0c2.214-1.814-0.613-4.362-1.448-6.197C134.851,46.525,139.255,50.067,139.745,52.267z
	 M204.813,61.356c-0.351,0.682-0.829,1.237-1.033,2.064c1.37,0.226,2.093-0.173,2.892,0.621c0.018-1.436,0.047-1.752-0.413-2.892
	C205.543,60.983,205.466,61.458,204.813,61.356z M218.033,66.313c-0.266-0.582,0.053-2.765-0.826-2.479
	C217.871,64.272,217.225,66.02,218.033,66.313z M97.606,68.792c0.499,0.258,0.667,0.847,0.826,1.446
	c-1.381,8.917-1.884,14.962,4.75,17.972c0.889,0.403,1.771,0.945,2.479,1.239c2.023,0.84,4.019,0.992,5.991,1.652
	c1.24,0.416,2.422,1.484,3.305,1.653c1.926,0.37,3.528-0.203,5.164,0.413c1.137-4.786,4.483-7.359,7.85-9.916
	c-1.337,0.262-2.167,0.465-3.305,0c-2.968,0.507-6.746,1.153-10.329,0.62c-1.829-0.271-2.307-1.143-3.718-1.858
	c-1.088-0.553-2.215-0.703-3.098-1.447c-0.647-0.546-0.925-1.489-1.652-2.064c-1.126-0.89-3.263-2.317-3.512-3.719
	c-0.338-1.903,1.186-5.961,3.098-6.816c1.007-0.45,2.251,0.269,3.1-0.619C104.565,65.751,100.751,67.041,97.606,68.792z
	 M84.179,78.294c0.965-0.273,1.799-0.679,2.066-1.652C85.337,76.976,84.816,77.691,84.179,78.294z M78.395,82.839
	c2.073-2.32-1.437-2.9-1.446,0C77.396,83.305,77.653,82.667,78.395,82.839z M57.738,82.839c-1.979-0.111-4.352-1.087-6.816-1.033
	c-5.919,0.125-10.718-0.183-15.699,0.207c0.199,0.749-0.928,0.174-0.827,0.826c2.566,1.921,6.076,0.852,9.502,1.238
	c1.523,0.172,3.878-0.009,5.578,0.413c1.331,0.331,2.3,1.369,3.51,1.858c3.55,1.44,7.493,2.423,10.124,5.37
	c0.298,0.736,0.734,1.33,1.238,1.859c1.08-2.971,2.527-4.697,3.719-7.229C64.791,84.669,61.002,83.021,57.738,82.839z
	 M234.972,86.351c-0.949,1.601-2.458,2.647-2.892,3.924c-0.705,2.075-0.26,4.658-2.479,5.784c0.537,0.969-0.881,0.979-0.826,2.066
	c-0.896,0.412-1.762,0.855-2.271,1.653c-0.054-0.29-0.453-0.234-0.62-0.412c-1.645,2.762-5.042,3.771-7.85,5.369
	c11.976,0.812,14.763-7.339,23.136-10.533c-1.431-1.706-4.168-2.236-4.752-4.752c-0.673-2.909,1.419-5.611,0.622-7.23
	C235.76,83.2,235.926,84.74,234.972,86.351z M83.766,84.285c0.029-0.855-0.469-1.184-0.826-1.653
	C82.992,83.405,83.264,83.96,83.766,84.285z M44.725,87.383c1.141-0.131,1.566,1.02,2.272,1.859
	c3.598,2.564,4.724,8.174,4.133,14.047c-0.545,5.396-3.813,8.406-7.85,10.121c-1.185,2.137-3.91,2.611-5.991,3.719
	c-2.886,1.535-5.091,3.502-7.438,5.371c-0.418,1.302-1.774,1.667-2.064,3.098c0.423,0.218,1.176-1.186,1.652,0
	c0.018-0.771,0.231-0.588,0-1.238c2.683-0.954,5.82-2.83,9.502-2.687c0.196-0.351,0.649-0.451,1.033-0.62
	c0.593-0.288,1.049,0.563,1.238,0c-0.208-0.002-0.26-0.361,0-0.411c0.554-0.138,1.291-0.089,1.652-0.414
	c1.74-0.493,3.732-1.408,5.785-1.652c7.155-0.85,13.154,0.299,20.656,0.62c-0.265-9.687-5.15-14.188-4.751-23.962
	c-0.606-0.296-0.969-1.913-1.445-1.652c0.428,0.523-0.279-0.436-0.827-0.207c-1.755-2.946-4.752-4.474-8.056-5.369
	c0.011-0.266,0.266-0.286,0.207-0.621c-0.632-0.15-0.607,0.356-1.24,0.207c-2.436-2.099-8.142-1.739-10.533-2.272
	C43.249,86.105,44.566,86.164,44.725,87.383z M73.438,87.383c0.442-0.451,1.042-0.748,1.032-1.652
	C73.773,85.8,72.934,86.799,73.438,87.383z M226.503,97.918c3.162-1.107,3.383-5.155,4.957-7.85
	c-0.023-0.251-0.062-0.488-0.411-0.412C228.41,91.287,227.557,94.704,226.503,97.918z M159.988,91.721
	c-2.078-0.05-6.003-0.613-7.85,1.033c-6.229,0.797-10.944,2.292-15.079,5.577c7.64,0.483,11.001,5.249,16.319,8.055
	c2.775-0.434,3.939,1.845,5.575,1.859c-0.844-0.904-1.182-1.655-1.652-2.686c-0.483-1.058-1.677-1.827-2.063-3.098
	c-0.196-0.638-0.261-1.969-0.207-2.479c0.483-4.752,6.57-7.75,10.535-9.297C163.313,90.65,160.627,89.524,159.988,91.721z
	 M122.187,91.308c-1.562,5.823,4.539,5.126,8.263,5.576c1.954,0.237,4.54,1.494,5.371-0.205c-0.766,0.242-2.787-0.202-2.891-0.621
	C129.363,96.467,123.338,95.583,122.187,91.308z M101.944,98.331c-4.572-0.525-6.606-4.687-9.297-6.403
	C94.985,94.686,97.249,98.619,101.944,98.331z M159.162,95.026c0,0.343,0,0.688,0,1.031c-0.636-0.154-0.396,0.567-1.033,0.414
	c-0.381,2.019-2.497,2.724-1.859,5.165c2.291,2.667,3.281,6.634,5.99,8.881c0.09-1.495,1.633-1.538,1.448-3.306
	c0.868-0.233,1.486-0.717,2.479-0.826c-2.377-2.793-5.532-8.187-2.272-12.392c0.441-0.448,2.278-1.49,1.446-1.859
	c-0.529,0.305-3.093,1.209-3.927,1.238C161.401,94.209,160.12,95.079,159.162,95.026z M80.254,95.439
	c0.325,0.019,0.716-0.028,0.62,0.412c0.756-0.275,1.538-0.527,1.859-1.239c-0.367-0.529-1.249-0.542-1.859-0.826
	C80.85,94.521,80.109,94.537,80.254,95.439z M202.541,96.059c-1.914-0.521-3.705,0.35-5.786,0.826
	c-1.104,0.253-2.608-0.107-3.716,0.207c-0.563,0.161-1.364,0.969-1.859,1.239c-0.739,0.404-2.598,0.809-2.892,1.032
	c-2.442,1.849-1.871,4.251-0.827,6.197c0.176,0.447,1.317-0.077,1.449,0.414c-0.612,0.52-0.575,0.613-0.414,1.652
	c-5.562,1.634-13.407-3.854-19.211-1.24c4.583,1.489,9.66,0.856,14.255,1.448c2.252,0.289,4.14,1.869,5.784,1.031
	c2.144,3.532,8.885,4.301,13.014,2.479c-1.948-0.46-2.974-1.846-4.957-2.272c0.704-1.877-0.843-2.531-1.033-3.717
	c-0.399-2.461,0.851-3.532,2.064-4.543c1.931-1.607,4.791-1.666,6.611-2.892c-0.001-0.208,0.167-0.246,0.207-0.412
	C204.386,96.27,203.111,97.648,202.541,96.059z M86.245,97.298c-0.022-0.53-0.117-0.987-0.414-1.24
	C85.513,96.374,85.463,97.476,86.245,97.298z M89.962,98.125c0.329-0.353,0.907-2.11-0.205-2.066
	C89.249,96.363,89.009,98.131,89.962,98.125z M68.893,98.125c0.583,0.106,0.877,0.5,1.446,0.62c0.482-0.276,0.319-1.195,0.621-1.652
	C70.14,96.492,68.809,96.746,68.893,98.125z M102.356,98.538c0.049,0.367,2.36,0.339,2.892,0.206
	C104.747,98.269,102.303,98.14,102.356,98.538z M205.64,99.363c-0.811,0.637-2.923-0.03-3.306,1.033
	c-1.894-0.688-2.197,1.909-3.718,2.274c-0.065,0.692-0.213,1.302-0.62,1.652c-0.287-0.26-0.09-1.168-0.619-0.621
	c0.516,1.856,0.668,4.177,3.099,4.337c2.464,0.166,4.34-1.807,5.99-2.89c2.874-0.331,5.936,0.657,8.056-0.206
	C210.946,103.696,208.678,101.146,205.64,99.363z M111.652,100.396c2.431,0.94,4.534,1.336,6.611,1.859
	C117.344,100.378,113.359,99.592,111.652,100.396z M73.23,102.256c0.551-1.238,2.555-1.026,3.099-2.272
	c-0.635,0.145-0.397,0.145-1.032,0c0.04,0.73-0.983,1.022-1.447,0.62C73.858,101.242,72.805,101.884,73.23,102.256z M83.766,100.81
	c-0.586-0.261-1.943-0.771-2.686-0.62C82.012,100.538,83.195,101.222,83.766,100.81z M101.53,99.984
	c-0.084,0.498,0.377,0.448,0.207,1.032c0.574,0.077,1.358-0.687,1.033-0.826C102.65,100.621,101.99,99.892,101.53,99.984z
	 M85.625,102.462c-0.265-0.425-0.331-1.048-1.033-1.033C84.42,102.132,86.139,102.748,85.625,102.462z M88.723,105.354
	c-0.005-1.402,2.021-2.677,1.033-3.718C89.533,102.861,88.05,103.919,88.723,105.354z M99.258,103.495
	c0.788-0.251,1.854-1.306,1.652-1.859C100.294,102.19,99.57,102.638,99.258,103.495z M121.567,103.702
	c-0.228-0.812-1.974-1.187-2.479-1.031C119.888,103.04,120.481,103.616,121.567,103.702z M92.647,103.082
	c-0.084,0.498,0.377,0.449,0.207,1.033c0.631,0.148,0.753-0.211,1.24-0.207C94.41,102.442,93.349,102.611,92.647,103.082z
	 M131.069,107.834c-2.317-1.059-5.333-1.418-7.643-2.479c-0.09-0.394-0.446-0.521-0.414-1.032c-0.377,0.029-1.452-0.728-1.033-0.207
	c1.031,1.172,2.207,2.201,3.512,3.098c4.197,0.418,7.729,2.601,11.777,2.479C135.434,108.903,133.561,107.303,131.069,107.834z
	 M74.676,107.834c1.74,1.288,4.552-0.141,4.545-1.654C78.117,104.015,74.521,105.236,74.676,107.834z M88.31,106.594
	c-0.161-0.045-0.239-0.173-0.205-0.412c-2.521-2.796-0.019,1.275,0.205,1.857C88.31,107.558,88.31,107.076,88.31,106.594z
	 M101.53,111.344c0.87,3.711,7.428,0.128,4.957-3.926C104.014,107.584,100.816,108.297,101.53,111.344z M122.394,110.725
	c0.193-1.045,1.25-1.228,1.033-2.686c-0.266-0.011-0.287-0.265-0.622-0.204C123.391,109.391,121.303,109.979,122.394,110.725z
	 M113.304,109.279c0.79,0.032,1.638,0.123,1.652-0.619C114.342,108.147,113.317,108.55,113.304,109.279z M91.615,109.691
	c-0.044,0.595,0.052,1.052,0.412,1.24c0.358-0.331,0.752-0.626,0.619-1.445C92.064,109.315,92.112,109.776,91.615,109.691z
	 M81.493,112.172c0.828-0.137,1.246-0.682,1.447-1.449C82.042,109.992,81.142,111.655,81.493,112.172z M115.99,117.541
	c2.756-1.307,5.562-3.663,5.99-6.609C120.039,113.191,117.661,115.013,115.99,117.541z M88.723,113.617
	c0.165,0.716-0.308,0.794-0.207,1.445c1.217-2.34,6.1-0.898,5.99-3.717C93.356,113.339,90.972,112.871,88.723,113.617z
	 M157.303,116.303c-1.785-1.322-3.28-1.668-5.783-2.273c-1.39-1.782-4.537-2.667-6.61-2.273c5.736,1.841,9.342,4.814,15.904,5.99
	C160.521,116.389,159.103,116.155,157.303,116.303z M132.103,114.855c-0.337-2.943-5.665-1.202-5.786,1.654
	C127.972,119.484,132.42,117.646,132.103,114.855z M101.323,119.814c-2.351-1.573-3.604-4.246-5.576-6.197
	C97.372,115.778,98.789,119.25,101.323,119.814z M109.586,115.477c0.481,1.814,1.232,0.418,2.272,0.619
	c0.101-0.47,0.409-1.055,0-1.445C110.618,114.829,110.71,115.53,109.586,115.477z M74.057,115.889
	c1.405,0.141,3.397-0.174,4.338,0.207c-0.16-0.607,2.542-0.201,3.718-0.619C80.964,114.6,75.139,115.382,74.057,115.889z
	 M139.951,118.781c0.535,0.511,0.77-0.445,1.448-0.414c-0.092-0.39,0.28-1.242-0.413-1.03
	C140.642,117.818,139.831,117.835,139.951,118.781z M153.998,118.988c-4.777,0.522-9.865,1.839-10.948,5.369
	c2.527-2.107,5.994-5.175,10.74-3.717c0.863-1.205,4.487-0.745,4.134-2.479c-0.619,0.957-2.013-0.693-2.893-0.826
	C154.528,117.728,154.658,118.753,153.998,118.988z M188.494,117.955c-0.651,1.103-3.927-0.543-5.164,0.619
	c-0.504-0.115-0.44-0.799-1.239-0.619c-2.823,1.012-6.938,1.318-9.089,0c-2.286,0.21-3.817-1.032-5.99,0.207
	c2.568,1.715,7.261,0.572,10.535,1.858c1.94-1.073,4.313-0.229,6.197-0.413c0.935-0.093,1.769-0.749,2.683-0.826
	c3.847-0.322,8.056,1.626,11.154,2.066c-0.573-0.666-1.465-1.014-1.856-1.859C193.258,119.584,190.29,118.781,188.494,117.955z
	 M83.972,120.848c0.396-0.51,1.129-1.756,0.826-2.275C84.628,119.306,83.411,120.069,83.972,120.848z M105.455,119.814
	c1.962,1.949,5.97-0.069,7.645-1.033C110.236,118.64,108.405,119.587,105.455,119.814z M63.729,120.434
	c-1.074-0.129-1.972-0.854-3.098-1.033c-2.599-0.41-5.395,0.832-8.676,0.207c0.001-0.115-0.167-0.234-0.207,0
	c0.114-0.001,0.232,0.167,0,0.207c-5.732-0.402-10.259,2.253-15.493,3.512c-2.351-0.083-4.873,1.089-6.404,2.479
	c-1.543,0.002-1.532,0.483-2.064,1.652c-0.724-0.032-1.586,0.419-1.24,0.826c2.237-1.367,5.78-1.596,9.09-1.446
	c1.644,0.073,3.09-0.307,4.543-0.206c5.17,0.358,10.59,2.403,11.568,7.023c2.499,1.823,2.817,7.513,1.033,9.915
	c-0.589,4.333-4.518,8.824-3.926,14.459c0.1,0.951,0.824,1.99,1.033,3.101c0.55,2.911,0.572,4.787,1.859,6.61
	c0.287-5.72,2.812-10.247,3.512-14.873c1.816-3.417,3.829-6.637,5.371-10.329c5.537-5.275,10.756-11.96,18.797-14.044
	c-1.226-1.667-3.716-2.067-4.958-3.718c0.504-0.303-0.551-1.356-0.826-0.826c0.252,0.023,0.488,0.061,0.412,0.413
	c-1.256-1.684-2.736-1.917-3.718-3.927C68.08,120.324,65.941,120.701,63.729,120.434z M76.949,120.021
	c0.121,0.636,0.053,1.462,0.826,1.448c0.17-0.449,0.778-0.46,0.826-1.033C78.303,119.543,77.699,119.531,76.949,120.021z
	 M118.056,122.293c0.299-1.814-0.83-2.2-1.859-2.686C116.901,120.417,117.383,121.451,118.056,122.293z M120.534,122.293
	c0.732-0.094,1.146-0.508,1.24-1.24c-0.143-0.407-0.552-0.55-1.033-0.619C120.542,120.926,120.06,121.757,120.534,122.293z
	 M156.063,121.26c0.584-0.171,0.535,0.292,1.031,0.207c-0.047-0.391,0.233-0.456,0.206-0.826
	C156.844,120.8,156.184,120.76,156.063,121.26z M182.504,122.5c0.171,1.135,0.465,2.15,1.24,2.685
	c0.405,1.937,0.793,4.278,0.826,5.991c-1.845,3.459-5.04,5.564-8.472,7.436c7.978-0.125,12.287-11.867,6.403-17.764
	c-0.413,0-0.826,0-1.239,0C181.358,121.717,182.242,121.798,182.504,122.5z M83.766,122.5c0-0.371,0.556-1.202,0-1.448
	C83.767,121.422,83.209,122.255,83.766,122.5z M102.976,123.531c0.479-0.578-0.177-2.635-1.031-1.858
	C102.914,121.667,102.183,123.362,102.976,123.531z M88.723,124.564c0.231,0.045,0.322,0.231,0.412,0.414
	c2.111-0.162,2.862-1.683,3.926-2.893C90.949,122.246,89.104,122.675,88.723,124.564z M134.994,125.185
	c0.415-0.342,0.959-0.554,1.033-1.237c-0.848,0.021-0.827-0.826-1.859-0.619C133.636,124.058,134.146,125.18,134.994,125.185z
	 M103.596,125.391c0.389-0.447,0.08-1.452-0.414-1.652C103.547,124.505,102.952,125.157,103.596,125.391z M123.632,128.076
	c-1.923-0.623-2.631-2.463-3.924-3.717C120.562,125.916,121.31,128.677,123.632,128.076z M164.74,128.076
	c-0.809-1.399-1.942-3.565-3.719-3.305C162.431,125.703,162.905,127.569,164.74,128.076z M131.069,128.902
	c-0.813-0.427-2.412-0.68-2.686,0.414c4.843-0.081,7.792-0.706,12.188-2.066c-0.106-1.415,1.2-1.415,1.446-2.479
	c-0.31,0.035-0.763-0.074-0.826,0.207C139.608,126.526,134.462,128.396,131.069,128.902z M111.652,127.457
	c0.278-2.359-1.661-2.35-3.512-1.24c-0.527,1.36-0.115,1.602,0.414,2.686c0.757,0,1.515,0,2.271,0
	C111.164,128.223,111.575,128.107,111.652,127.457z M173.828,129.109c1.453-0.682,2.652-1.617,2.686-3.719
	c-0.264-0.011-0.286-0.265-0.619-0.206C175.165,126.307,172.579,127.336,173.828,129.109z M192.626,131.176
	c1.925,0.132,1.964-1.619,2.479-2.893c-0.935,0.315-0.446-0.793-0.826-1.033c-1.303-0.212-1.761-1.269-2.89-1.652
	C190.276,127.488,191.647,129.679,192.626,131.176z M103.596,127.457c-0.035-0.584,0.178-1.417-0.414-1.445
	C103.333,126.48,102.811,127.623,103.596,127.457z M83.146,127.87c0.382-0.197,0.349-1.708-0.205-1.653
	C83.066,126.73,82.187,127.828,83.146,127.87z M95.54,128.902c0.548,0.22,1.175,0.155,1.24-0.619
	c-0.271-0.211-0.763-0.202-1.033-0.413C95.573,128.11,95.473,128.424,95.54,128.902z M104.216,130.969
	c-0.253-1.193-0.391-2.502-1.24-3.101C103.044,129.248,103.425,130.313,104.216,130.969z M81.493,128.696
	c-9.527,3.829-17.16,9.557-21.483,18.593c-1.536,0.637-1.125,1.861-1.652,3.305c-0.097,0.269-0.917,0.106-0.827,0.62
	c0.153,0.849,0.272-0.093-0.412,0.62c-0.85,0.886-0.637,2.136-1.033,3.511c-0.26,0.907-1.281,1.645-0.826,2.274
	c0,0.206,0.166,0.244,0.206,0.412c2.446-3.339,4.941-6.626,8.47-8.881c2.672-0.489,6.407-2.346,10.329-2.479
	c3.215-0.111,9.233,0.41,10.122,3.305c0.23,0.749-0.059,1.883,0,2.891c0.211,3.655,1.077,8.699,1.24,11.154
	c1.058,0.763,0.663,4.304,1.031,6.197c0.051,0.255,0.551,0.369,0.621,0.619c1.11,4.004,2.893,8.445,6.61,9.709
	c0.123-0.728-0.767-1.579,0.413-1.859c-1.565-5.392-2.838-10.489-2.685-15.698c0.13-4.49,1.74-8.273,2.479-12.393
	c2.223-4.181,4.79-8.017,8.676-10.535C95.976,136.104,88.224,132.026,81.493,128.696z M167.012,131.588
	c0.463,2.395,2.251,3.839,2.066,5.784c0.812,0.225,1.934,1.226,2.89,0.62c-0.482-0.689-1.684-0.658-2.063-1.446
	c-0.681-2.212-2.158-3.629-3.102-5.576c0.17-0.938-0.451-2.151-1.032-1.653C165.771,130.048,165.887,131.415,167.012,131.588z
	 M156.684,133.24c1.291-0.509,2.538-1.269,1.652-2.892C156.658,128.862,154.777,132.537,156.684,133.24z M118.056,138.818
	c-1.185-3.662,2.109-5.146,2.891-7.23C118.988,133.243,115.975,136.718,118.056,138.818z M143.05,145.016
	c0.657-0.168,1.05-0.602,1.446-1.031c-0.467-1.465-0.586-2.766,0.413-3.927c-0.786-2.933-1.579-6.958-3.308-8.263
	C144.027,135.34,144.673,140.263,143.05,145.016z M177.547,132.414c0.704,2.166,0.842,0.6,2.063,0.826
	c0.059-0.627-0.661-0.803-0.204-1.237C178.584,131.938,178.368,132.479,177.547,132.414z M174.035,135.513
	c1.284,0.047,1.502-0.977,1.652-2.063C174.526,132.902,174.017,134.25,174.035,135.513z M130.036,135.307
	c1.353,0.182,1.717-0.627,1.653-1.859C130.179,133.108,129.841,133.939,130.036,135.307z M153.791,135.1
	c0.554-0.137,1.291-0.086,1.652-0.412c-0.544-0.145-0.436-0.941-1.03-1.031C154.502,134.434,154.004,134.623,153.791,135.1z
	 M107.108,136.34c0.789-0.245,1.368-0.699,1.238-1.859C107.187,134.292,106.636,135.556,107.108,136.34z M185.189,138.818
	c-0.151-1.391-0.122-1.74,0.412-2.686c-0.412-0.207-0.325-0.914-1.03-0.826C184.492,136.707,184.275,138.011,185.189,138.818z
	 M188.908,136.752c0.442,0.521,0.513,1.415,1.237,1.652c0.233-0.592,0.569-1.083,1.032-1.445
	C191.297,135.455,189.023,135.366,188.908,136.752z M122.806,136.752c0.646,0.096,0.922-0.18,0.826-0.826c-0.274,0-0.55,0-0.826,0
	C122.806,136.202,122.806,136.477,122.806,136.752z M100.291,137.165c0.494,0.333,0.974,0.679,1.859,0.62
	c-0.269-0.702,0.461-1.442,0-1.652C102.024,136.972,100.917,136.827,100.291,137.165z M161.434,138.198
	c0.09,0.778,0.86,0.876,0.414,1.653c1.51,0.09,0.311-1.717,1.445-1.653c-0.167-0.794-0.088-1.839-1.033-1.858
	C161.994,136.968,162.362,138.231,161.434,138.198z M136.233,140.058c1.211,4.26,5.994-3.086,0.619-2.891
	C136.675,138.361,135.88,138.814,136.233,140.058z M218.86,152.657c-0.833-0.33-2.008-0.729-3.101-1.238
	c-2.162-1.014-5.25-3.525-6.61-4.751c-2.691-2.426-6.146-3.126-7.85-5.993c-2.003,0.145-2.253-1.462-3.925-1.652
	c-0.013-0.125-0.03-0.244-0.206-0.205c-2.85,2.315-6.917,3.412-9.091,6.402c-5.79,0.532-11.675,1.041-15.286,2.686
	c1.939,6.978,2.447,14.665,5.577,20.656c1.03-2.902,1.632-6.721,3.717-9.09c0.966-1.097,3.905-3.422,5.577-4.132
	c3.11-1.32,7.208,0.332,11.154-0.412c1.552,1.667,4.315,2.512,6.817,2.479c6.161-0.08,13.351-0.727,18.797-3.719
	C222.752,152.598,220.539,153.321,218.86,152.657z M153.998,141.916c0.64-0.681,2.252-1.357,1.239-2.479
	C153.829,139.235,152.637,141.246,153.998,141.916z M118.675,141.916c-0.302-0.555,0.079-1.346-0.619-1.858
	C117.883,140.218,118.396,142.237,118.675,141.916z M134.167,171.868c-0.811-2.188-1.058-4.465-1.652-6.816
	c-0.705-2.79-2.18-5.606-2.479-8.056c-0.164-1.342-0.118-6.477,0.62-5.991c-1.031-0.641,0.277-1.952-0.207-2.89
	c-3.075,0.606-6.26-0.117-9.502-0.826c-0.275,0.204-0.405,0.557-0.827,0.619c-0.939-0.301-1.343-1.135-1.652-2.065
	c-0.049,0.364-0.355,0.472-0.826,0.413c-5.381-1.611-8.979-3.863-13.633-5.99c-0.614,0.625-1.446,1.033-2.272,1.445
	c0.439,0.066-0.295,0.641-0.414,0.826c-4.433,2.453-5.471,8.302-7.85,12.808c-0.049,2.127,0.176,4.347-0.412,5.371
	c-0.851,1.485-0.108,7.439,0.207,8.882c0.358,1.641-0.107,3.496,1.238,3.717c0.149-2.832,2.332-6.069,2.479-8.881
	c0.897,0.03,0.811-0.923,1.24-0.826c0.012-1.352,2.362-3.838,3.924-4.959c1.87-1.34,6.136-2.554,8.469-2.891
	c2.668-0.386,4.388,1.038,5.785,2.891c1.458,1.937,2.742,3.949,4.543,5.37c0.276,1.239,1.307,1.725,1.033,3.512
	c3.22,5.112,6.745,9.917,12.188,12.808c1.567-0.512,4.036,0.855,5.991,0.826C137.438,178.862,135.603,175.74,134.167,171.868z
	 M180.852,141.71c-0.111,0.732,0.175,1.063,0.619,1.239c0.449-0.254,1.764-1.564,0.62-2.065
	C181.741,141.223,181.578,141.748,180.852,141.71z M125.285,142.123c0.09,0.711-0.082,1.157-0.205,1.652
	c1.189,1.302,3.04-0.188,2.89-2.065C126.795,140.846,126.341,142.828,125.285,142.123z M166.393,147.287
	c0.146-0.542,1.179-0.198,1.236-0.826c-0.425-0.057-0.193-0.771-0.619-0.826C167.015,146.27,165.727,146.675,166.393,147.287z
	 M164.533,148.526c-0.001-0.205,0.165-0.245,0.207-0.412c-1.63,1.308-3.745-0.385-5.787-0.62c-0.293-0.033-0.736,0.271-1.03,0.205
	c-0.146-0.031-0.202-0.564-0.413-0.619c-5.513-1.377-11.791-1.432-17.146-0.62c0.081-0.295,0.248-0.349,0-0.62
	c-1.753,0.205-3.071,0.234-4.544,0.412c0.355-0.011,0.529,0.16,0.619,0.413c-0.698,0.05-2.505-0.201-1.446,0.412
	c-3.1-0.497-3.271,2.171-4.131,4.958c0.531,0.021,0.332,0.771,0.62,1.032c-0.409,1.798-0.364,3.249,0,4.958
	c1.407,6.608,4.135,15.26,7.23,19.83c-0.547-2.218,0.298-3.668-0.826-5.368c1.325-1.799,2.042-4.29,3.716-5.786
	c0.844-0.75,2.334-0.979,3.512-1.859c0.432-0.321,0.615-0.904,1.033-1.237c2.231-1.781,4.836-2.423,7.643-2.893
	c2.393-2.301,6.397-1.737,9.917-1.031c1.019,1.391,2.365,2.455,3.716,3.511c0.729,2.557,3.38,3.358,4.96,5.164
	c1.419,1.626,1.849,4.032,3.512,5.577c2.033,0.788,4.54,1.104,6.194,2.272c0.062-0.875,0.871,0.133,1.033-0.412
	c-4.195-3.425-6.812-8.159-8.469-13.634c-0.718-5.923-1.658-8.711-2.893-14.461C169.131,148.184,165.908,147.866,164.533,148.526z"
	/>
<path fill="#FFFFFF" d="M143.463,25.207c-0.553,0.686,0.888,1.853,1.239,2.891c3.729,0.753,7.685,0.075,10.329-2.064
	c0.192,0.151,0.312,0.376,0.411,0.62c3.897-1.01,8.938,0.145,10.535-2.892c0.145-0.764-0.724-0.516-1.032-0.826
	c-0.168,0.657-0.602,1.05-1.031,1.447c-3.941,0.316-6.236,1.237-9.298,0.412c-2.091,1.819-5.928,2.962-9.295,2.272
	c-0.257-0.974-1.229-1.579-2.063-2.479c2.421-2.137,5.273-1.878,8.88-1.652c3.046,0.191,6.323-0.649,9.502-0.62
	c2.973,0.028,6.038-0.322,8.676,0c9.018,1.103,15.661,6.828,23.757,9.502c-0.217,3.03,4.271,9,5.369,3.718
	c5.204,1.886,6.886,7.298,11.154,10.122c0.511,1.556,1.561,2.574,2.686,3.512c0.984,3.63,2.751,6.474,3.512,10.329
	c-4.12-4.215-5.785-11.978-13.014-12.395c-2.885,4.469,2.678,7.043,1.24,11.98c-0.523,0.855-2.09,0.667-2.274,1.859
	c-0.298-0.046-0.072-0.616-0.411-0.619c-0.814,1.252-2.4,1.731-3.927,2.271c0.168,0.715-0.384,0.875,0,1.24
	c2.493-0.193,3.438-1.934,5.37-2.686c-0.483,0.685-0.642,1.699-1.032,2.479c1.28,1.475,1.598,3.911,2.892,5.371
	c0.564,0.15,0.416-0.412,0.826-0.414c-0.649-1.209-1.918-2.898-2.063-3.924c0.19-1.035,1.15,0.229,1.856,0
	c-0.069,1.447,1.344,1.413,1.033,3.098c0.661,0.176,0.784-0.18,1.033-0.412c-1.838-1.899,0.397-6.596-2.686-7.23
	c1.459-3.472,0.281-7.372-1.652-9.089c0.342-0.692,0.071-1.994,0.414-2.685c3.703,1.39,6.758,3.429,7.848,7.436
	c1.494,0.983,1.778,3.179,3.511,3.925c-0.305,0.62,0.515,1.25,0.622,1.859c0.188,1.065-0.221,2.599,0,3.925
	c0.281,1.695,1.188,3.06,1.237,4.338c0.032,0.799-0.361,1.438-0.206,2.271c0.277,1.491,1.165,2.527,2.479,3.1
	c1.004,1.817,2.39,3.254,3.511,4.958c1.186,7.847-3.775,9.991-9.502,10.947c-5.593,0.934-11.545,3.508-16.523,3.926
	c0.596-0.162,0.719-0.797,0.826-1.447c-0.868,0.03-1.627,1.165-0.826,1.652c-4.609,0.787-8.437,0.53-13.43-0.412
	c-0.869-1.533,0.483-3.196,0.622-4.958c1.369,0.029,2.798-1.213,4.542-1.448c0.019,3.446,3.65,3.944,6.197,1.653
	c-0.202-3.359,3.948-6.118,5.164-2.272c-0.66,1.648-2.363,4.256-1.237,5.784c0.36-0.404,1.801-1.673,0.62-2.272
	c0.268-0.764,0.645-1.42,1.237-1.859c0.515-0.031,0.857,0.107,1.032,0.413c0.773-0.14-0.152-0.686,0.621-0.826
	c1.49-0.116,1.028,1.724,1.858,2.272c1.533-1.04-0.651-3.202-1.653-3.719c-0.551,0-0.447,0.654-1.031,0.621
	c-0.124-2.701-2.202-3.445-4.752-3.718c-1.691,1.631-2.41,2.435-2.893,4.75c-1.146,0.094-1.702,0.774-2.479,1.24
	c-1.692-0.306-1.255-2.739-2.89-3.099c0.303-0.455,1.594,0.079,1.237-1.033c-0.419-0.651-1.161,0.766-0.619-0.414
	c-0.372-0.424-0.854,0.788-0.826,1.447c-2.932,0.225-6.873,2.532-5.371,6.61c-0.354-0.009-0.535,0.153-0.619,0.413
	c-3.017-0.798-5.965-0.542-8.47-1.858c1.476-3.62,4.754-5.435,6.61-8.676c2.724-1.172,6.267-1.229,7.85-3.512
	c0.574-0.829-0.068-0.312,0.619-0.826c0.646-0.483,0.493-1.291,1.033-2.066c0.547-0.786,1.717-1.688,1.859-3.305
	c0.137-1.569-0.843-2.495-0.414-3.717c0.14-0.398,1.324-1.829,1.652-2.065c1.175-0.843,2.52-0.184,3.512-1.653
	c-0.188-1.909,1.04-2.403,1.24-3.926c-1.528-0.527-2.422,2.493-1.859,3.512c-1.133,0.313-1.864,1.028-2.893,1.448
	c0.06-0.54-0.075-0.889-0.619-0.827c-0.614,2.07-2.207,3.163-2.271,5.785c0.35,0.075,0.389-0.163,0.411-0.414
	c0.681,1.515-0.91,4.246-1.445,5.991c-0.334,0.058-0.355-0.195-0.619-0.206c-0.741,2.703-3.787,3.1-5.786,4.544
	c-4.646-0.309-4.313,4.362-7.437,5.578c-0.669,0.844-1.045,1.984-2.065,2.479c-0.065,0.483-0.326,0.776-0.205,1.446
	c-1.158-0.22-1.834-0.918-3.307-0.826c-0.182-0.365-0.655-0.604-0.205-1.032c-2.781,0.054-4.678-1.148-7.229-1.032
	c0.105-0.863-0.115-1.4-0.412-1.859c-6.772-1.696-11.546-1.812-18.593-0.826c-3.601-1.15-5.902-3.599-9.088-5.164
	c-1.571,0.914-3.951-0.538-5.991,0c-3.448-2.612-7.533-4.585-10.123-8.057c0.711-1.747-0.99-1.999-0.412-3.717
	c0.275,0,0.55,0,0.826,0c-0.077-0.98,0.718-2.166,0.619-2.479c0.425-0.208,2.095,0.103,2.686,0.413
	c0.188-0.54-1.119-1.354-1.859-1.652c0.595-0.281,0.865-0.911,2.274-0.827c0.585,0.792,0.171,2.582,1.446,2.686
	c0.288-1.528-0.806-2.835-1.653-3.512c-0.259,0.052-0.208,0.411,0,0.412c-2.977,0.113-2.495,2.558-4.544,3.719
	c0.05-3.708-3.715-4.329-3.305-7.23c1.919-0.354,1.234-3.31,3.305-3.511c-0.427-2.014,1.576-2.455,1.859-4.339
	c2.457,0.023,3.25,1.708,4.544,2.893c0.842-0.603,1.847-1.043,1.859-2.479c1.59-0.346,0.852-3.5,2.684-4.131
	c-0.558-1.995,1.63-2.49,0.826-3.926c2.952-1.638,7.313-0.332,6.197,3.512c1.947,1.361,0.866,4.276,1.859,5.99
	c1.387,2.393,3.396,4.546,4.958,6.817c-0.386-3.857-5.198-5.797-4.542-10.741c1.622,5.296,6.651-1.303,3.098-3.098
	c-0.075-0.352,0.162-0.39,0.413-0.414c-0.997-0.174-1.16-1.183-1.448-2.064c-1.127-0.091-2.348-0.405-3.305,0.412
	c-0.188-1.587-4.861-2.862-6.816-1.859c-2.248,1.154-3.165,8.814-5.578,10.535c-0.931-0.127-0.51-1.147-1.652-0.619
	c0.15-0.631-0.21-0.753-0.205-1.24c-0.658-0.032-0.911-0.468-1.653-0.412c0.004-1.029,0.521-1.543,1.032-2.066
	c1.213-5.879,4.654-9.531,8.056-13.219c0.254-0.917,0.62-1.722,1.652-1.859c2.557-4.606,5.771-8.554,10.742-10.742
	C142.457,25.485,143.113,25.177,143.463,25.207z M157.096,40.699c0.313,1.327,3.397,4.385,5.371,5.165
	c0.748,0.295,1.621,0.119,2.274,0.412c3.128,1.41,3.985,4.847,5.576,7.85c1.541,1.032,3.824,3.283,5.783,3.512
	c2.854,0.331,7.96-2.237,8.472-4.545c-0.981-3.123,1.748-5.611,1.857-7.023c-0.32-1.951-0.589-3.957-1.237-5.576
	c-1.98-2.297-4.009-3.18-6.817-4.752c-1.383-0.772-2.583-2.111-3.718-2.479c-1.94-0.627-5.009-0.442-6.197-0.207
	c-2.303,0.458-3.063,2.43-5.368,3.512c-0.449,0.211-2.278-0.293-2.893,0.826c0.523,0.546,0.836-0.038,1.033-0.412
	c0.286,1.496,1.383-0.054,2.063,0.826c0.821-0.694,2.207-0.823,2.479-2.066c1.469-0.458,2.339-1.518,3.926-1.857
	c1.097,0.574,3.91,0.626,4.752,0.205c2.342,3.279,8.561,3.862,10.123,7.85c0.337,0.863,0.87,3.282,0.412,4.957
	c-0.424,1.558-2.314,2.728-1.653,5.786c-0.923,2.725-4.163,3.134-7.022,3.924c-1.919-1.601-4.158-1.547-5.371-3.512
	c-1.164-1.884-1.638-4.126-3.099-5.784c-0.899-1.021-2.175-1.303-3.098-2.272c-0.944,0.104-1.171-0.359-1.859,0
	c-0.541-1.318-2.651-1.067-2.686-2.892c-2.082,0.018-2.134-1.999-2.479-3.718c0.714-0.455,2.061-0.279,2.686-0.826
	c-0.753-0.963-1.778-0.266-2.893,0C157.157,38.627,156.879,39.779,157.096,40.699z M147.595,35.741
	c-1.901,1.005-2.077,4.155-1.448,6.404c1.756,0.036,3.615,0.164,4.957-0.414c-1.046-1.404-0.404-3.33-0.826-5.164
	C149.047,36.504,147.949,36.118,147.595,35.741z M199.236,37.601c-0.174,0.859-0.706,1.36-0.622,2.479
	c1.391,2.397,2.983,4.591,5.164,6.197c0.439-0.318,0.771-0.746,1.24-1.033c-0.312-3.681-2.604-5.383-4.545-7.436
	c-0.559,2.835,3.858,4.002,3.305,7.023c-0.807-0.844-1.845-1.46-1.859-3.1C199.022,41.602,201.152,38.021,199.236,37.601z
	 M159.781,53.093c0.156,1.498-1.158,2.483-0.619,4.338c2.1,1.345,3.709,3.178,4.957,5.371c-0.4,0.425-0.392,1.26-1.445,1.033
	c-0.422-0.269-0.376-1.002-1.239-0.826c-0.73,0.853-1.548,1.619-1.653,3.098c2.421,2.267,3.564,6.898,6.612,7.85
	c-0.262-0.702-0.907-0.949-1.448-1.652c-0.842-1.099-1.338-2.743-2.063-3.926c-0.634-1.03-1.487-1.164-1.652-2.272
	c0.016,0.103,0.095-1.713,0.826-1.859c0.487,0.407,1.001,0.79,2.063,0.62c0.484-0.272,0.096-1.419,0.827-1.446
	c1.839,3.286-0.805,7.863,2.479,10.329c-0.265,0.287-1.013,0.09-1.032,0.619c0.859,0.242,0.858,1.346,1.859,1.447
	c0.446-3.387-3.281-5.461-1.239-8.883c-0.91-1.401-0.537-2.94-1.446-4.131c0.372-2.898,0.325-6.096,0.826-8.469
	c0.274,0,0.551,0,0.826,0c-0.044-2.435-1.889-3.07-2.685-4.753c-0.912-0.259-1.692-0.648-2.066-1.445
	c-2.025-0.297-2.7-2.064-3.925-2.893c-2.083-1.408-4.966-1.488-5.577-3.924c0.162-0.048,0.409-0.006,0.413-0.207
	c-1.469,0.296-0.545-0.862-1.239-1.033c-0.07,1.023-0.542-0.172-1.031,0c0.155,0.948,0.169,2.033,0.411,2.893
	c0.513-0.03,1.003-0.039,1.033,0.412c-1.218,1.606,1.428,2.278,1.859,3.926c0.639,0.554,0.802-0.559,1.237,0
	c-0.018,0.325-0.525,0.161-0.412,0.619c0.284,0.556,1.028,0.5,1.237,0.62C156.639,50.532,159.544,50.781,159.781,53.093z
	 M145.322,42.972c-0.729,1.274-1.954,3.077-0.62,4.544c1.243-0.218,2.625-0.669,3.719-0.826c-0.153-1.226-1.106-1.648-1.653-2.479
	c-0.234,1.113,0.067,0.866,0.205,1.858c-0.821-0.063-1.037,0.478-1.859,0.414c0.096-0.868,0.006-1.924,0.622-2.274
	c0.956-0.175,0.216,0.327,0.62,0.414c0.043-0.231,0.229-0.322,0.412-0.414C146.635,43.449,146.062,43.127,145.322,42.972z
	 M130.449,49.581c0.883-0.081,1.166-0.763,2.066-0.826c-0.071,1.042,0.753,2.034,1.446,1.652c-0.006-0.896-1.132-1.748-0.412-2.686
	c1.058-0.022,0.811,1.253,1.652,1.448C136.31,45.849,130.905,47.141,130.449,49.581z M149.453,49.375
	c-0.117,2.393,4.633,2.556,4.96,0c-0.316-0.428-1.036-1.133-1.652-0.621c-0.055,0.675,0.801,0.438,0.826,1.033
	c-1.269,0.589-2.637,1.443-3.101-0.619c0.553,0,1.102,0,1.652,0C151.606,46.93,149.512,48.202,149.453,49.375z M127.765,53.506
	c1.16,0.079,1.291-1.336,1.238-1.859c0.661,0.177,0.639-0.325,1.033-0.414c0.246,1.372,1.668,2.557,2.892,2.274
	c-0.374-1.558-2.235-1.623-2.686-3.1C128.049,50.533,128.597,52.162,127.765,53.506z M142.018,56.398
	c1.984,0.082,2.069,2.062,4.131,2.066c0.054-0.913,0.689-1.239,0.826-2.066c-1.441-1.126-0.468-3.658-2.686-4.543
	C144.518,54.354,141.227,53.336,142.018,56.398z M128.591,55.778c-0.642,0.022-0.591-0.649-1.447-0.412
	c-0.342,1.608-2.619,2.307-1.858,4.338c0.458-0.162,1.12-0.121,1.239-0.622c-0.277-0.143,0.103-0.55-0.207-1.031
	c1.076,0.18,0.638-1.153,1.24-1.447c0.842,0.253,1.584,0.92,2.272,0.207c0.665,0.23,0.083,1.708,0.827,1.859
	C131.593,57.465,130.218,53.879,128.591,55.778z M151.726,59.91c0.194,0.044,0.914-0.337,1.237-0.205
	c1.365,0.549,4.071,3.822,4.133-0.827c-0.877-1.209-2.39-2.414-3.717-3.718c-1.376-0.011-1.678,0.236-2.686,0.413
	c0.022,1.692-2.711,1.441-1.652,3.511C150.057,58.808,150.605,59.659,151.726,59.91z M124.046,60.116
	c-0.945,1.007-2.838,2.086-2.479,3.719c0.683-0.044,0.387-1.464,1.033-0.414c0.374-0.796,0.899-1.441,1.446-2.064
	c0.695,0.337,1.736,0.329,1.446,1.652c1.082-0.188,0.777,1.013,1.859,0.827C127.629,62.016,125.61,60.773,124.046,60.116z
	 M146.562,62.389c0.65,0.236,0.502-0.325,0.826-0.413c0.047,0.16,0.005,0.407,0.207,0.413c0.628-1.246-1.301-1.546-2.065-2.065
	C145.45,61.435,146.597,61.321,146.562,62.389z M138.093,69.618c1.52,2.937,4.508,5.102,9.089,4.338
	c0.714-0.938,2.041,0.029,2.892,0.207c-0.386,0.367,0.166,0.523,0,1.238c-0.906,1.268-1.737,1.332-3.308,1.859
	c-0.056,2.044-1.676,3.244-3.509,3.512c-1.004-2.229-0.901-4.429-2.893-5.784c-1.511-0.031-3.869,2.823-1.652,3.305
	c-0.042-1.35,0.353-2.264,1.652-2.273c0.188,0.706,0.511,1.279,0.62,2.065c-1.825-0.5-2.56,1.647-3.716,2.479
	c-1.915-0.587-4.222-1.764-2.275-3.512c0.954,0.234,0.956,1.992,2.066,1.447c0.436-1.31-1.03-2.378-2.274-2.686
	c-1.044,0.678-1.445,1.995-2.272,2.891c-1.897-0.166-3.903-0.013-6.197-0.205c1.633,1.477,4.786,1.526,6.611,1.237
	c3.601,2.536,7.859,3.036,12.601,1.652c1.844-1.244,1.344-3.706,4.338-3.924c0.197-1.17,2.474-2.076,1.237-4.131
	c-2.311-1.486-5.273-0.388-8.47-0.621c-1.708-0.63-2.241-2.438-3.512-3.511c1.886-1.488,1.749-5,2.274-7.849
	c-0.266-0.013-0.286-0.267-0.622-0.207C140.186,63.947,139.699,66.994,138.093,69.618z M145.115,63.214
	c0.394-0.386,0.521-0.021,1.033,0c0.046-0.734-0.139-1.237-0.619-1.446c-2.566,1.651-0.696,5.449,2.065,4.958
	c1.244-1.093,1.572-3.121-0.207-3.924c0.34,1.119,0.694,1.821,0.207,2.479C146.946,65.952,144.932,65.149,145.115,63.214z
	 M151.932,62.802c-0.119,0.671,0.142,0.961,0.207,1.446c-5.572,3.596,4.393,8.392,4.752,1.859c-1.216-0.436-1.269-2.038-1.859-3.098
	C154.151,62.989,152.485,62.753,151.932,62.802z M176.514,67.553c-0.046-0.39,0.232-0.456,0.207-0.827
	c-1.353,0.094-1.938,0.954-3.101,1.24c-1.64,4.338,2.113,6.403,1.239,10.74c1.196,1.144,1.026,3.161,2.89,2.893
	c2.06-0.296,1.671-3.952,2.686-5.784c0.984,0.478,0.868,1.709,0.414,2.686c1.104,0.383,2.776-0.166,3.512-1.033
	c0.086-0.104,0.617-1.586,0.619-1.653c0.037-1.629-1.543-2.678-1.859-4.338c0.718-1.794,2.815-1.437,2.479-3.926
	C183.432,65.88,178.131,65.572,176.514,67.553z M119.501,69.825c0.173,1.017,1.303-0.077,1.859,0
	c0.525,0.507,0.738,1.327,0.62,2.479c2.018-0.158,1.286,2.433,2.892,2.686c0.391-0.505,0.552-1.238,1.033-1.652
	c-0.515-0.032-0.64,0.324-1.033,0.412c-0.321-1.125-1.25-1.642-2.066-2.272c0.146-1.662-0.774-2.254-1.859-2.686
	C119.879,69.207,120.237,69.789,119.501,69.825z M119.294,73.337c0.778,0.158,0.988-0.252,1.653-0.207
	c0.169-0.789-0.995-0.244-0.827-1.033c0.268-0.558,0.919-0.734,0.827-1.653C119.608,70.62,119.279,71.806,119.294,73.337z
	 M142.844,77.261c1.514-0.001,1.217-1.811,2.892-1.652c0.343,0.344-0.131,1.508,0.62,1.446
	C148.07,73.932,142.439,74.141,142.844,77.261z M128.177,75.815c0,0.481,0,0.964,0,1.446c1.023-1.195,3.214-0.876,4.338,0
	C132.018,75.352,130.108,74.951,128.177,75.815z M211.217,63.214c-0.692-1.052-3.03-0.551-2.892,1.033
	c1.112,0.287,0.865-0.787,1.858-0.62c1.135,0.654,0.866,2.715,2.064,3.305c0.598-1.571-0.896-3.872,0.413-5.783
	c1.569,0.84,1.551,3.269,2.479,4.75c0.776-2.376-0.946-4.146-2.065-5.784C210.832,59.525,211.693,62.039,211.217,63.214z
	 M199.855,67.14c0.653,0.02,1.323-1.004,1.446,0.207c-0.51-0.028-0.995-0.031-1.237,0.205c0.001,1.721-1.121,4.98,0.204,6.611
	c1.595-1.215-1.337-6.458,2.274-6.404c0.172,0.448,0.534,0.705,0.412,1.447c-0.479-0.066-0.793,0.033-1.033,0.205
	c0.097,1.276-0.493,2.102,0.622,2.479c0.382-0.239-0.295-1.28,0.411-1.446c2.082,0.307,0.262,2.792,1.859,3.099
	c1.104-1.741-0.659-3.587-1.652-4.543c0.391-0.048,0.456,0.232,0.826,0.206c-0.236-2.104-1.852-2.829-3.512-3.511
	C200.477,66.383,199.804,66.398,199.855,67.14z M212.663,68.999c0.248,1.044-0.684,3.768,0.411,5.371
	c0.392,0.046,0.457-0.234,0.827-0.207c-0.002-1.596-1.195-3.82,0-4.752c0.825,0.697,0.706,1.177,1.858,1.653
	C215.6,69.548,213.854,68.208,212.663,68.999z M212.043,73.75c0.124-0.997-1.11-1.229-1.859-0.412
	c0.468,0.962-0.312,0.858-0.413,1.032c-0.767,1.311,0.05,4.423,1.652,3.717C210.111,76.668,210.266,73.377,212.043,73.75z
	 M194.072,73.13c-1.561,1.762-0.242,4.025,1.03,5.164c0.097-1.367-1.663-2.742-0.412-3.924c0.851,0.049,0.812,2.067,1.653,1.445
	C195.954,74.553,195.858,72.996,194.072,73.13z M200.889,75.815c-0.412-0.484-0.438-1.353-1.448-1.24
	c-1.009,0.616-1.34,2.687-0.204,3.306c0.776-0.197-0.177-2.328,0.412-2.48C200.038,75.446,200.723,76.23,200.889,75.815z
	 M202.747,77.055c-0.58,1.494-0.266,3.875,1.448,4.133c-0.244-1.542-0.893-1.773-1.033-3.1c0.938,0.095,0.845,1.22,1.859,1.24
	C204.687,78.147,204.171,77.146,202.747,77.055z M191.387,80.153c0.579-0.109,0.401-0.976,1.03-1.033
	c1.088,0.073,0.753,2.475,1.859,1.859C195.836,77.398,189.876,76.895,191.387,80.153z M213.282,80.979
	c0.602,1.673,2.373-0.922,1.239-1.445C214.373,80.28,213.322,80.124,213.282,80.979z M202.954,84.285
	c-0.883,0.085-1.401,1.62-1.237,2.066c-0.063-0.844,0.431-0.111,0.826-0.207c0.23-0.711,0.53-1.579,1.445-1.033
	c0.06-1.302-1.793-1.781-1.033-3.098c0.632,0.264,1.033,0.758,1.859,0.826c-0.734-0.779-1.502-1.528-2.686-1.859
	C201.579,82.384,202.938,82.849,202.954,84.285z M192.832,84.491c0.002-0.974-0.829-0.151-1.032-0.62
	c0.503-0.585-0.337-1.583-1.033-1.653c-0.879,0.565-1.289,1.604-1.237,3.1c1.1-0.069,0.785-1.557,1.652-1.859
	C191.33,84.162,192.34,84.782,192.832,84.491z M207.911,89.862c1.514,0.252,2.82-2.321,2.686-3.719
	c-0.192-2.007-2.253-2.744-3.716-2.892C206.412,85.345,205.857,89.519,207.911,89.862z"/>
<path fill="#FFFFFF" d="M115.783,42.558c-0.049,1.126,1.885,1.754,2.274,3.1c0.95-0.328-0.226-1.5,0.619-1.859
	c-2.008-0.982-2.404-2.711-3.718-3.512c4.508-4.717,11.956-6.499,17.973-9.708c-0.191,3.074-3.324,4.214-3.718,6.404
	c-0.932-0.735-0.718,0.511-1.24,1.033c-0.319,0.319-0.984,0.353-1.031,0.412c-0.093,0.117,0.367,0.26,0.412,0.207
	c-0.694,0.802-1.735,1.191-2.272,2.065c-0.309,0.504-0.215,1.272-0.621,1.858c-0.177,0.257-0.608,0.003-0.826,0.206
	c-0.593,0.557-1.278,2.192-1.652,3.1c-0.696,1.69-0.91,3.805-1.859,5.369c-0.27-1.793,0.138-3.996-1.652-4.75
	c-0.52,1.35,0.57,2.87,0.414,4.544c-1.572,1.665-4.538,1.935-6.817,2.891c-1.808,1.542-2.098,5.831-0.619,7.85
	c2.658,1.863,5.525,4.466,5.164,8.676c-3.578-2.774-8.909-6.35-14.667-4.958c-2.631,0.634-4.66,2.302-7.23,2.891
	c-1.842-14.037,15.535-12.095,16.938-23.342c-0.27-1.45-1.018-2.423-1.032-4.131c1.148-0.308,1.977,0.335,2.685-0.412
	C114.149,41.03,114.941,42.707,115.783,42.558z"/>
<path fill="#FFFFFF" d="M156.684,45.243c2.03,2.278,7.638,4.452,9.502,8.264c-1.23,1.873-1.471,5.73-1.033,8.055
	c-0.754-0.141-1.007-0.784-1.652-1.031c-0.16-2.457-3.177-2.059-3.719-4.133c3.232-4.332-1.732-6.076-3.305-9.088
	c-1.271-1.138-2.973-1.848-3.512-3.719C154.32,43.824,155.585,46.105,156.684,45.243z"/>
<path d="M146.768,44.211c-0.184,0.09-0.369,0.182-0.412,0.412c-0.403-0.087,0.338-0.59-0.619-0.412
	c-0.616,0.348-0.524,1.404-0.622,2.272c0.822,0.063,1.038-0.478,1.859-0.414C146.837,45.077,146.533,45.324,146.768,44.211
	c0.549,0.831,1.502,1.253,1.655,2.479c-1.095,0.158-2.477,0.608-3.719,0.826c-1.336-1.467-0.108-3.271,0.62-4.544
	C146.062,43.127,146.635,43.449,146.768,44.211z"/>
<path fill="#FFFFFF" d="M217.207,63.835c0.879-0.287,0.561,1.897,0.826,2.479C217.225,66.02,217.871,64.272,217.207,63.835z"/>
<path d="M211.423,78.087c-1.603,0.705-2.419-2.406-1.652-3.717c0.102-0.175,0.881-0.071,0.413-1.033
	c0.749-0.816,1.983-0.584,1.859,0.412C210.266,73.377,210.111,76.668,211.423,78.087z"/>
<path d="M199.649,75.402c-0.59,0.152,0.365,2.282-0.412,2.48c-1.134-0.62-0.806-2.69,0.204-3.306c1.01-0.113,1.035,0.755,1.448,1.24
	C200.723,76.23,200.038,75.446,199.649,75.402z"/>
<path d="M140.777,61.149c0.335-0.059,0.355,0.195,0.622,0.207c-0.524,2.85-0.388,6.36-2.274,7.85c1.27,1.072,1.805,2.88,3.512,3.51
	c3.196,0.233,6.158-0.864,8.47,0.621c1.235,2.055-1.04,2.96-1.238,4.131c-2.994,0.219-2.493,2.68-4.338,3.925
	c-4.74,1.382-8.999,0.882-12.6-1.652c-1.826,0.289-4.978,0.237-6.611-1.237c2.294,0.192,4.3,0.038,6.197,0.206
	c0.826-0.896,1.229-2.214,2.273-2.891c1.242,0.306,2.708,1.376,2.274,2.686c-1.11,0.545-1.112-1.212-2.066-1.448
	c-1.948,1.749,0.36,2.924,2.274,3.512c1.158-0.831,1.892-2.978,3.716-2.479c-0.109-0.786-0.431-1.359-0.619-2.066
	c-1.301,0.009-1.694,0.923-1.652,2.273c-2.218-0.483,0.141-3.336,1.652-3.305c1.993,1.356,1.889,3.554,2.893,5.783
	c1.833-0.269,3.452-1.467,3.51-3.512c1.569-0.524,2.399-0.592,3.307-1.859c0.165-0.714-0.386-0.872,0-1.238
	c-0.851-0.178-2.178-1.146-2.893-0.207c-4.579,0.763-7.568-1.401-9.088-4.338C139.699,66.994,140.186,63.947,140.777,61.149z
	 M138.299,80.979c0.387-0.011,0.439,0.159,0.207,0.412c1.73-0.186,3.088-0.293,4.338-0.62c-0.684-0.35-0.953-1.112-1.446-1.652
	c-1.021-0.125-1.401,0.394-1.859-0.207C140.074,79.967,138.783,80.33,138.299,80.979z"/>
<path d="M202.128,80.979c1.184,0.331,1.951,1.079,2.686,1.859c-0.827-0.068-1.229-0.562-1.859-0.826
	c-0.761,1.317,1.094,1.796,1.033,3.098c-0.914-0.546-1.216,0.322-1.446,1.033c-0.395,0.097-0.889-0.637-0.826,0.207
	c-0.162-0.447,0.354-1.981,1.237-2.066C202.938,82.849,201.579,82.384,202.128,80.979z"/>
<path d="M191.18,83.458c-0.867,0.303-0.553,1.79-1.652,1.859c-0.051-1.495,0.359-2.533,1.237-3.099
	c0.698,0.07,1.536,1.067,1.033,1.653c0.203,0.468,1.034-0.355,1.033,0.619C192.34,84.782,191.33,84.162,191.18,83.458z"/>
<path fill="#FFFFFF" d="M42.659,85.317c2.393,0.532,8.099,0.171,10.535,2.272c0.632,0.149,0.608-0.356,1.24-0.207
	c0.057,0.335-0.196,0.355-0.207,0.621c3.305,0.895,6.301,2.423,8.056,5.369c0.547-0.229,1.254,0.731,0.827,0.207
	c0.477-0.261,0.839,1.356,1.445,1.652c-0.4,9.772,4.487,14.275,4.751,23.962c-7.502-0.321-13.5-1.47-20.657-0.62
	c-2.052,0.244-4.044,1.16-5.784,1.652c-0.361,0.327-1.1,0.277-1.652,0.414c-0.26,0.051-0.208,0.41,0,0.412
	c-0.19,0.562-0.646-0.289-1.24,0c-0.382,0.167-0.835,0.269-1.031,0.62c-3.683-0.145-6.821,1.731-9.502,2.686
	c0.231,0.651,0.018,0.467,0,1.238c-0.479-1.186-1.231,0.218-1.652,0c0.292-1.43,1.647-1.796,2.064-3.099
	c2.347-1.866,4.551-3.836,7.438-5.37c2.081-1.108,4.806-1.582,5.991-3.719c4.037-1.716,7.304-4.723,7.849-10.121
	c0.593-5.874-0.534-11.483-4.132-14.047c-0.706-0.841-1.131-1.989-2.272-1.859C44.566,86.164,43.249,86.105,42.659,85.317z"/>
<path fill="#FFFFFF" d="M132.929,96.059c0.105,0.418,2.125,0.862,2.891,0.621c-0.832,1.7-3.418,0.443-5.371,0.205
	c-3.723-0.45-9.826,0.246-8.262-5.576C123.338,95.583,129.363,96.467,132.929,96.059z"/>
<path fill="#FFFFFF" d="M161.434,93.374c0.835-0.029,3.396-0.933,3.928-1.239c0.834,0.369-1.005,1.412-1.446,1.859
	c-3.26,4.206-0.104,9.602,2.272,12.393c-0.993,0.109-1.611,0.593-2.479,0.825c0.185,1.771-1.358,1.811-1.448,3.308
	c-2.707-2.248-3.699-6.217-5.99-8.882c-0.638-2.44,1.479-3.145,1.859-5.165c0.637,0.154,0.397-0.567,1.033-0.412
	c0-0.344,0-0.689,0-1.032C160.12,95.079,161.401,94.209,161.434,93.374z"/>
<path fill="#FFFFFF" d="M73.85,100.604c0.464,0.402,1.486,0.111,1.447-0.62c0.635,0.145,0.397,0.145,1.032,0
	c-0.544,1.246-2.548,1.032-3.099,2.272C72.805,101.884,73.858,101.242,73.85,100.604z"/>
<path fill="#FFFFFF" d="M102.77,100.19c0.325,0.14-0.458,0.903-1.033,0.826c0.171-0.585-0.291-0.535-0.207-1.032
	C101.99,99.892,102.65,100.621,102.77,100.19z"/>
<path fill="#FFFFFF" d="M84.592,101.43c0.702-0.016,0.77,0.607,1.033,1.033C86.139,102.748,84.42,102.132,84.592,101.43z"/>
<path fill="#FFFFFF" d="M100.911,101.636c0.201,0.555-0.865,1.608-1.652,1.859C99.57,102.638,100.294,102.19,100.911,101.636z"/>
<path fill="#FFFFFF" d="M137.267,109.691c-4.046,0.122-7.58-2.061-11.776-2.479c-1.306-0.896-2.48-1.924-3.512-3.098
	c-0.42-0.521,0.654,0.236,1.033,0.207c-0.032,0.513,0.325,0.639,0.412,1.032c2.311,1.062,5.326,1.42,7.645,2.479
	C133.561,107.303,135.434,108.903,137.267,109.691z"/>
<path fill="#FFFFFF" d="M88.31,108.039c-0.225-0.582-2.727-4.653-0.205-1.859c-0.034,0.241,0.045,0.37,0.205,0.414
	C88.31,107.076,88.31,107.558,88.31,108.039z"/>
<path fill="#FFFFFF" d="M94.507,111.344c0.11,2.818-4.773,1.379-5.99,3.717c-0.101-0.65,0.374-0.729,0.207-1.445
	C90.972,112.871,93.356,113.339,94.507,111.344z"/>
<path fill="#FFFFFF" d="M95.747,113.617c1.972,1.952,3.225,4.624,5.576,6.197C98.789,119.25,97.372,115.778,95.747,113.617z"/>
<path fill="#FFFFFF" d="M84.798,118.574c0.303,0.52-0.431,1.766-0.826,2.273C83.411,120.069,84.628,119.306,84.798,118.574z"/>
<path fill="#FFFFFF" d="M70.338,120.434c0.983,2.01,2.463,2.241,3.719,3.926c0.076-0.352-0.161-0.389-0.414-0.412
	c0.276-0.529,1.331,0.523,0.826,0.826c1.241,1.65,3.73,2.053,4.959,3.719c-8.042,2.083-13.261,8.768-18.797,14.044
	c-1.542,3.691-3.556,6.911-5.371,10.328c-0.699,4.626-3.225,9.153-3.512,14.873c-1.288-1.821-1.31-3.699-1.859-6.61
	c-0.209-1.109-0.933-2.148-1.033-3.101c-0.592-5.635,3.337-10.126,3.926-14.459c1.785-2.4,1.466-8.092-1.033-9.916
	c-0.979-4.619-6.4-6.665-11.568-7.023c-1.454-0.1-2.9,0.279-4.543,0.205c-3.31-0.147-6.854,0.081-9.09,1.448
	c-0.346-0.409,0.517-0.857,1.24-0.826c0.532-1.167,0.521-1.65,2.064-1.652c1.531-1.389,4.052-2.561,6.404-2.479
	c5.234-1.259,9.76-3.915,15.492-3.512c0.233-0.04,0.114-0.206,0-0.206c0.039-0.234,0.208-0.115,0.207,0
	c3.281,0.625,6.078-0.617,8.674-0.207c1.128,0.179,2.025,0.904,3.1,1.033C65.941,120.701,68.08,120.324,70.338,120.434z"/>
<path fill="#FFFFFF" d="M165.771,129.316c0.582-0.499,1.203,0.716,1.033,1.652c0.944,1.948,2.421,3.364,3.101,5.576
	c0.38,0.788,1.584,0.757,2.063,1.448c-0.957,0.604-2.076-0.396-2.89-0.622c0.186-1.945-1.603-3.389-2.065-5.783
	C165.887,131.415,165.771,130.048,165.771,129.316z"/>
<path fill="#FFFFFF" d="M141.604,131.795c1.729,1.305,2.521,5.328,3.308,8.263c-0.999,1.16-0.88,2.461-0.414,3.927
	c-0.396,0.43-0.789,0.863-1.445,1.031C144.673,140.263,144.027,135.34,141.604,131.795z"/>
<path fill="#FFFFFF" d="M102.77,140.058c-3.887,2.519-6.453,6.354-8.676,10.534c-0.737,4.121-2.349,7.904-2.479,12.395
	c-0.154,5.211,1.12,10.307,2.684,15.697c-1.178,0.279-0.29,1.132-0.412,1.859c-3.716-1.265-5.5-5.705-6.61-9.708
	c-0.07-0.251-0.57-0.365-0.621-0.621c-0.369-1.893,0.027-5.433-1.031-6.196c-0.163-2.456-1.028-7.5-1.24-11.153
	c-0.059-1.009,0.23-2.141,0-2.892c-0.889-2.895-6.906-3.415-10.122-3.305c-3.922,0.133-7.656,1.988-10.328,2.479
	c-3.529,2.256-6.024,5.542-8.47,8.882c-0.04-0.167-0.207-0.206-0.206-0.413c-0.455-0.627,0.565-1.367,0.826-2.272
	c0.396-1.377,0.182-2.626,1.033-3.511c0.685-0.715,0.565,0.229,0.412-0.62c-0.091-0.516,0.729-0.353,0.826-0.621
	c0.529-1.444,0.119-2.667,1.652-3.306c4.322-9.036,11.956-14.76,21.483-18.591C88.224,132.026,95.976,136.104,102.77,140.058z
	 M90.995,140.471c0.735-0.023,0.831-0.684,0.826-1.448c-1.715-0.153-1.934,1.88-1.032,2.686c1.818,0.341,3.43-1.905,1.653-2.686
	C92.57,139.316,91.775,141.141,90.995,140.471z M86.864,149.766c1.27,0.233,3.267-0.52,2.479-2.272
	c-1.189,0.681-0.537-0.035-1.238-0.413c-0.254,0.641,0.792,1.571-0.207,1.653c0.064-0.279,0.293-0.395,0.207-0.826
	C87.156,147.433,86.693,148.515,86.864,149.766z M86.245,159.475c0.745,0.289,1.193,0.872,2.064,1.031
	c-0.037-0.449,0.169-0.657,0.621-0.62c0.042-0.868,0.074-1.727-0.621-1.859c0.027,0.374-0.203,0.484-0.619,0.414
	c0.046-0.391-0.233-0.456-0.207-0.826C88.22,157.168,85.526,157.948,86.245,159.475z"/>
<path fill="#FFFFFF" d="M118.056,140.058c0.698,0.514,0.317,1.305,0.619,1.858C118.396,142.237,117.883,140.218,118.056,140.058z"/>
<path fill="#FFFFFF" d="M140.158,181.164c-1.954,0.029-4.424-1.338-5.991-0.826c-5.442-2.889-8.967-7.693-12.188-12.808
	c0.273-1.786-0.755-2.272-1.033-3.511c-1.802-1.422-3.083-3.433-4.543-5.369c-1.397-1.854-3.118-3.279-5.785-2.893
	c-2.332,0.338-6.598,1.552-8.469,2.893c-1.562,1.119-3.913,3.604-3.924,4.957c-0.429-0.097-0.342,0.856-1.24,0.826
	c-0.147,2.814-2.331,6.051-2.479,8.882c-1.346-0.224-0.88-2.076-1.238-3.718c-0.315-1.444-1.058-7.398-0.207-8.882
	c0.588-1.024,0.363-3.245,0.412-5.37c2.379-4.507,3.417-10.355,7.85-12.808c0.12-0.187,0.853-0.761,0.414-0.827
	c0.826-0.411,1.657-0.82,2.272-1.445c4.656,2.128,8.252,4.379,13.633,5.99c0.471,0.058,0.777-0.05,0.826-0.412
	c0.309,0.931,0.713,1.766,1.654,2.064c0.419-0.061,0.549-0.411,0.826-0.619c3.24,0.71,6.426,1.433,9.502,0.826
	c0.482,0.939-0.825,2.251,0.205,2.891c-0.736-0.486-0.783,4.648-0.62,5.992c0.299,2.449,1.775,5.264,2.479,8.054
	c0.593,2.351,0.842,4.628,1.652,6.816C135.603,175.74,137.438,178.862,140.158,181.164z M104.422,144.809
	c-0.55-2-3.678,1.629-1.652,2.89c1.999,0.142,2.646-1.069,2.891-2.685C105.396,144.479,104.427,145.174,104.422,144.809z
	 M124.666,151.005c-1.611,2.53-0.276,5.734,3.1,4.545c0.19-2.007,0.99-2.891,0-4.751
	C126.396,150.511,125.848,150.726,124.666,151.005z M104.216,154.104c-0.051-0.295-0.341-0.349-0.414-0.619
	c0.501-0.605,2.421-0.879,2.066-1.652c-1.285,0.526-2.832,0.041-2.686,2.271c0.726,0.031,0.497,1.02,1.446,0.826
	c0.267-0.491,0.926-0.59,1.447-0.826c-0.125-0.694,0.074-1.391,0.62-0.826c0.03-0.512,0.039-1.002-0.412-1.032
	C106.025,153.298,105.297,153.876,104.216,154.104z M96.779,152.245c-3.363,3.163,3.461,6.514,2.891,2.685
	c-0.157,0.67-1.275,0.376-1.445,1.033c-0.742-0.498-1.309-1.172-1.24-2.479c0.618-0.005,0.703-0.538,1.24-0.622
	c0.506,0.527,1.64,0.427,1.445,1.652c0.636-0.145,0.397-0.145,1.033,0c-0.082-0.675-0.179-1.334-0.826-1.445
	c-0.082,0.355,0.306,0.529,0,0.619c-0.79-0.87-0.208-0.61-0.826-1.652C97.306,151.776,97.884,152.578,96.779,152.245z
	 M120.121,156.996c0.652-0.1,0.468,0.632,1.24,0.412c0.165-0.386,0.346-0.757,0.414-1.239
	C121.269,155.336,119.817,155.424,120.121,156.996z"/>
<path fill="#FFFFFF" d="M104.835,145.222c0.41,0.556-1.192,0.864-1.033,1.858c-1.096,0.04-1.045-0.612-0.827-1.445
	c0.487-0.005,0.609,0.355,1.24,0.206c0.061-0.545-0.801-0.162-0.62-0.825c0.659-0.179,0.64,0.324,1.031,0.412
	C104.804,145.466,104.823,145.348,104.835,145.222z"/>
<path d="M106.282,152.245c0.45,0.03,0.443,0.521,0.412,1.032c-0.545-0.564-0.743,0.131-0.619,0.826
	c-0.521,0.236-1.181,0.335-1.447,0.826c-0.95,0.193-0.72-0.795-1.446-0.826c-0.146-2.231,1.4-1.744,2.685-2.273
	c0.355,0.775-1.564,1.049-2.066,1.654c0.072,0.27,0.365,0.324,0.414,0.619C105.297,153.876,106.025,153.298,106.282,152.245z"/>
<path d="M99.051,152.038c0.619,1.042,0.036,0.782,0.827,1.652c0.307-0.089-0.082-0.264,0-0.619c0.646,0.11,0.745,0.771,0.826,1.445
	c-0.636-0.145-0.397-0.145-1.033,0c0.196-1.227-0.939-1.125-1.446-1.652c-0.537,0.085-0.623,0.618-1.24,0.622
	c-0.068,1.307,0.499,1.98,1.24,2.479c0.17-0.658,1.289-0.363,1.446-1.033c0.572,3.829-6.255,0.478-2.892-2.686
	C97.884,152.578,97.306,151.776,99.051,152.038z"/>
<path d="M87.483,157.615c-0.025,0.371,0.252,0.436,0.207,0.826c0.416,0.07,0.646-0.041,0.62-0.413
	c0.695,0.133,0.663,0.991,0.621,1.859c-0.45-0.037-0.658,0.169-0.621,0.619c-0.872-0.16-1.319-0.742-2.064-1.03
	C85.526,157.948,88.22,157.168,87.483,157.615z"/>
<path d="M157.51,37.601c1.113-0.266,2.14-0.964,2.892,0c-0.627,0.545-1.971,0.371-2.685,0.826c0.344,1.72,0.396,3.734,2.479,3.718
	c0.034,1.825,2.145,1.574,2.686,2.892c0.688-0.358,0.914,0.104,1.859,0c0.92,0.969,2.198,1.251,3.098,2.272
	c1.459,1.657,1.935,3.899,3.098,5.783c1.213,1.964,3.454,1.91,5.371,3.512c2.859-0.79,6.1-1.199,7.023-3.924
	c-0.664-3.058,1.229-4.229,1.652-5.785c0.458-1.674-0.075-4.094-0.412-4.958c-1.56-3.987-7.781-4.571-10.123-7.85
	c-0.84,0.42-3.652,0.368-4.75-0.207c-1.589,0.342-2.457,1.401-3.927,1.859c-0.271,1.243-1.658,1.373-2.479,2.066
	c-0.681-0.879-1.777,0.67-2.062-0.826c-0.198,0.374-0.511,0.956-1.033,0.412c0.614-1.12,2.443-0.615,2.891-0.826
	c2.309-1.083,3.066-3.054,5.37-3.512c1.188-0.235,4.257-0.421,6.196,0.207c1.135,0.368,2.336,1.706,3.719,2.479
	c2.809,1.571,4.835,2.456,6.816,4.753c0.651,1.62,0.916,3.626,1.237,5.576c-0.108,1.413-2.838,3.9-1.858,7.023
	c-0.51,2.308-5.615,4.875-8.47,4.544c-1.958-0.229-4.243-2.479-5.783-3.512c-1.593-3.003-2.449-6.439-5.577-7.85
	c-0.652-0.293-1.523-0.117-2.272-0.412c-1.974-0.779-5.058-3.838-5.371-5.164C156.879,39.779,157.157,38.627,157.51,37.601z"/>
<path d="M201.921,41.731c0.016,1.639,1.053,2.255,1.859,3.1c0.556-3.022-3.863-4.188-3.305-7.023
	c1.94,2.052,4.232,3.754,4.544,7.436c-0.471,0.287-0.802,0.714-1.239,1.033c-2.182-1.606-3.774-3.8-5.164-6.197
	c-0.086-1.119,0.448-1.62,0.62-2.479C201.152,38.021,199.022,41.602,201.921,41.731z"/>
<path d="M156.477,48.549c-0.209-0.121-0.953-0.065-1.237-0.621c-0.115-0.457,0.395-0.293,0.412-0.619
	c-0.438-0.559-0.601,0.554-1.237,0c-0.433-1.647-3.077-2.319-1.859-3.925c-0.03-0.452-0.521-0.444-1.033-0.413
	c-0.242-0.859-0.258-1.945-0.412-2.893c0.489-0.17,0.961,1.023,1.032,0c0.695,0.171-0.229,1.329,1.239,1.033
	c-0.006,0.201-0.253,0.162-0.413,0.207c0.611,2.435,3.496,2.516,5.577,3.924c1.225,0.828,1.899,2.597,3.925,2.893
	c0.376,0.797,1.154,1.187,2.065,1.445c0.797,1.682,2.641,2.317,2.686,4.753c-0.275,0-0.553,0-0.826,0
	c-0.501,2.373-0.455,5.57-0.826,8.469c0.908,1.191,0.536,2.729,1.445,4.131c-2.04,3.425,1.687,5.497,1.239,8.883
	c-1-0.101-0.999-1.204-1.858-1.445c0.02-0.531,0.77-0.334,1.031-0.621c-3.282-2.464-0.64-7.043-2.479-10.329
	c-0.731,0.026-0.34,1.172-0.826,1.447c-1.062,0.168-1.577-0.213-2.063-0.621c-0.732,0.148-0.811,1.962-0.826,1.859
	c0.165,1.108,1.019,1.241,1.652,2.273c0.728,1.184,1.223,2.827,2.063,3.924c0.54,0.704,1.186,0.951,1.448,1.652
	c-3.049-0.95-4.189-5.581-6.612-7.85c0.105-1.479,0.923-2.243,1.652-3.098c0.865-0.176,0.818,0.559,1.24,0.826
	c1.054,0.227,1.045-0.608,1.445-1.033c-1.25-2.193-2.856-4.028-4.957-5.37c-0.539-1.854,0.773-2.841,0.619-4.339
	C159.544,50.781,156.639,50.532,156.477,48.549z M152.965,43.591c0.539,1.871,2.242,2.581,3.512,3.719
	c1.572,3.012,6.538,4.755,3.305,9.088c0.542,2.074,3.561,1.674,3.719,4.133c0.646,0.25,0.898,0.892,1.652,1.031
	c-0.438-2.325-0.196-6.183,1.033-8.055c-1.864-3.812-7.472-5.987-9.502-8.264C155.585,46.105,154.32,43.824,152.965,43.591z"/>
<path d="M135.201,49.168c-0.841-0.195-0.595-1.47-1.653-1.447c-0.72,0.937,0.407,1.79,0.412,2.686
	c-0.693,0.38-1.517-0.61-1.446-1.653c-0.901,0.063-1.183,0.746-2.066,0.826C130.905,47.141,136.31,45.849,135.201,49.168z"/>
<path d="M130.656,58.671c-0.744-0.151-0.161-1.631-0.826-1.859c-0.688,0.713-1.431,0.046-2.272-0.207
	c-0.602,0.293-0.164,1.627-1.24,1.446c0.309,0.483-0.07,0.89,0.207,1.033c-0.119,0.501-0.78,0.46-1.239,0.62
	c-0.76-2.03,1.517-2.729,1.859-4.336c0.856-0.237,0.807,0.435,1.448,0.412C130.218,53.879,131.593,57.465,130.656,58.671z"/>
<path d="M213.075,60.116c1.122,1.638,2.845,3.407,2.066,5.784c-0.928-1.482-0.909-3.91-2.479-4.75
	c-1.31,1.911,0.184,4.212-0.414,5.783c-1.199-0.59-0.927-2.65-2.063-3.305c-0.993-0.167-0.746,0.906-1.859,0.62
	c-0.139-1.584,2.201-2.085,2.893-1.033C211.693,62.039,210.832,59.525,213.075,60.116z"/>
<path d="M127.351,63.835c-1.082,0.187-0.778-1.014-1.859-0.826c0.291-1.324-0.75-1.315-1.446-1.653
	c-0.546,0.624-1.072,1.269-1.446,2.064c-0.646-1.049-0.35,0.372-1.033,0.414c-0.36-1.632,1.534-2.711,2.479-3.719
	C125.61,60.773,127.629,62.016,127.351,63.835z"/>
<path d="M147.595,65.28c0.486-0.657,0.131-1.36-0.207-2.479c1.779,0.804,1.453,2.83,0.207,3.924
	c-2.762,0.491-4.634-3.307-2.065-4.958c0.48,0.209,0.663,0.711,0.619,1.447c-0.514-0.022-0.64-0.387-1.033,0
	C144.932,65.149,146.946,65.952,147.595,65.28z"/>
<path d="M185.603,67.553c0.336,2.489-1.761,2.131-2.479,3.925c0.316,1.66,1.896,2.708,1.859,4.338
	c-0.001,0.066-0.532,1.549-0.619,1.652c-0.735,0.867-2.407,1.417-3.512,1.033c0.455-0.976,0.569-2.208-0.413-2.686
	c-1.016,1.832-0.628,5.487-2.686,5.784c-1.862,0.269-1.695-1.747-2.89-2.891c0.874-4.338-2.883-6.404-1.24-10.742
	c1.162-0.286,1.747-1.146,3.101-1.238c0.025,0.37-0.253,0.436-0.206,0.826C178.131,65.572,183.432,65.88,185.603,67.553z
	 M180.232,67.759c-2.56-0.549-4.379-0.177-5.99,1.24c-0.52,2.573,1.017,3.417,1.445,4.957c0.795,2.861-0.27,5.737,2.063,6.61
	c0.876-2.019,1.479-4.307,2.274-6.402c1.093,0.903,2.326,1.667,2.686,3.305c2.519-2.349-0.519-4.48-0.622-7.23
	c0.896-0.482,1.572-1.182,2.274-1.858c-0.66-0.789-2.203-0.692-2.686-1.653c-0.012-0.125-0.031-0.243-0.207-0.205
	C181.693,67.568,180.148,66.851,180.232,67.759z"/>
<path d="M194.278,80.979c-1.106,0.615-0.771-1.786-1.859-1.859c-0.629,0.059-0.451,0.924-1.03,1.033
	C189.876,76.895,195.836,77.398,194.278,80.979z"/>
<path d="M206.879,83.251c1.465,0.15,3.525,0.885,3.716,2.892c0.135,1.398-1.171,3.971-2.685,3.719
	C205.857,89.519,206.412,85.345,206.879,83.251z M207.292,88.416c0.355-0.011,0.529,0.16,0.619,0.413
	c1.147-0.438,1.696-1.473,1.655-3.1c-0.843-0.259-1.458-0.744-2.274-1.031C206.817,85.497,207.694,87.275,207.292,88.416z"/>
<path fill="#FFFFFF" d="M214.521,104.941c-2.121,0.863-5.182-0.123-8.056,0.207c-1.65,1.084-3.526,3.057-5.99,2.889
	c-2.43-0.161-2.583-2.479-3.099-4.335c0.528-0.551,0.332,0.36,0.619,0.62c0.407-0.352,0.555-0.961,0.62-1.653
	c1.522-0.366,1.824-2.961,3.718-2.274c0.382-1.062,2.493-0.396,3.306-1.031C208.678,101.146,210.946,103.696,214.521,104.941z"/>
<path d="M88.104,147.907c0.087,0.432-0.142,0.547-0.207,0.826c1-0.082-0.048-1.013,0.207-1.653c0.702,0.378,0.05,1.094,1.238,0.413
	c0.789,1.753-1.209,2.506-2.479,2.272C86.693,148.515,87.156,147.433,88.104,147.907z"/>
<path fill="#FFFFFF" d="M171.763,147.7c1.235,5.751,2.174,8.537,2.892,14.462c1.658,5.474,4.274,10.209,8.469,13.633
	c-0.162,0.547-0.971-0.462-1.032,0.412c-1.655-1.166-4.161-1.484-6.195-2.271c-1.662-1.547-2.093-3.953-3.511-5.578
	c-1.581-1.806-4.23-2.607-4.961-5.164c-1.351-1.057-2.698-2.12-3.716-3.511c-3.52-0.703-7.523-1.27-9.916,1.032
	c-2.808,0.469-5.411,1.111-7.643,2.893c-0.417,0.334-0.602,0.916-1.033,1.236c-1.176,0.881-2.671,1.11-3.512,1.859
	c-1.675,1.495-2.391,3.987-3.716,5.786c1.124,1.702,0.279,3.149,0.826,5.368c-3.096-4.569-5.822-13.222-7.23-19.83
	c-0.364-1.707-0.409-3.16,0-4.957c-0.287-0.264-0.089-1.012-0.619-1.033c0.86-2.786,1.031-5.454,4.131-4.957
	c-1.059-0.615,0.746-0.363,1.447-0.412c-0.09-0.256-0.266-0.425-0.621-0.414c1.474-0.177,2.792-0.206,4.545-0.412
	c0.248,0.271,0.081,0.326,0,0.621c5.354-0.812,11.633-0.758,17.145,0.619c0.211,0.054,0.27,0.589,0.414,0.62
	c0.293,0.065,0.737-0.239,1.03-0.205c2.042,0.233,4.156,1.926,5.786,0.62c-0.039,0.166-0.207,0.205-0.207,0.412
	C165.908,147.866,169.131,148.184,171.763,147.7z"/>
</svg>
