<?xml version="1.0" encoding="utf-8"?>
<!-- Generator: Adobe Illustrator 15.0.0, SVG Export Plug-In . SVG Version: 6.00 Build 0)  -->
<!DOCTYPE svg PUBLIC "-//W3C//DTD SVG 1.1//EN" "http://www.w3.org/Graphics/SVG/1.1/DTD/svg11.dtd">
<svg version="1.1" id="Capa_1" xmlns="http://www.w3.org/2000/svg" xmlns:xlink="http://www.w3.org/1999/xlink" x="0px" y="0px"
	 width="270px" height="204px" viewBox="405.5 978.5 270 204" enable-background="new 405.5 978.5 270 204" xml:space="preserve">
<g>
	<path fill="#FFFFFF" d="M610.92,1001.72c0.865,0.097,1.529,0.392,1.68,1.2c0.549,0.067,0.902-0.058,0.96-0.479
		c0.373,1.354,1.653,2.233,0.722,3.6C612.34,1005.42,611.708,1003.492,610.92,1001.72z"/>
	<path d="M558.6,1005.56c0.49,2.13-0.256,4.368,0.96,6c-1.56,0.672-3.72,0.522-5.76,0.48c-0.732-2.612-0.528-6.271,1.682-7.44
		C555.893,1005.037,557.167,1005.485,558.6,1005.56z M554.52,1006.52c0.524,1.685-0.495,3.434,0.48,4.561
		c0.588-0.727,1.562,0.182,2.4,0c0.669-1.063,0.059-1.982,0.96-2.88c-0.413,0.013-0.615-0.186-0.722-0.48c0.24,0,0.48,0,0.722,0
		C557.786,1006.105,556.024,1005.365,554.52,1006.52z"/>
	<path fill="#FFFFFF" d="M558.36,1007.72c-0.24,0-0.48,0-0.722,0c0.105,0.295,0.309,0.493,0.722,0.48
		c-0.901,0.896-0.291,1.815-0.96,2.88c-0.839,0.182-1.812-0.728-2.4,0c-0.977-1.127,0.044-2.876-0.48-4.561
		C556.024,1005.365,557.786,1006.105,558.36,1007.72z"/>
	<path fill="#FFFFFF" d="M545.64,1016.6c0.969,2.129,4.255,5.091,1.682,7.2c-0.32,0-0.642,0-0.96,0
		C545.791,1021.244,540.674,1017.129,545.64,1016.6z"/>
	<path d="M560.76,1020.2c-0.64,0-1.278,0-1.92,0c0.537,2.396,2.129,1.403,3.602,0.72c-0.029-0.691-1.023-0.417-0.96-1.2
		c0.716-0.596,1.553,0.225,1.92,0.72c-0.38,2.97-5.896,2.781-5.762,0C557.707,1019.077,560.142,1017.599,560.76,1020.2z"/>
	<path d="M535.32,1021.64c0.524,1.716,2.688,1.792,3.12,3.601c-1.421,0.329-3.074-1.048-3.36-2.641
		c-0.458,0.103-0.436,0.687-1.2,0.48c0.061,0.607-0.092,2.251-1.439,2.16C533.407,1023.678,532.771,1021.785,535.32,1021.64z"/>
	<path d="M551.64,1023.32c2.577,1.029,1.445,3.971,3.12,5.279c-0.159,0.96-0.898,1.34-0.96,2.4c-2.396-0.004-2.493-2.307-4.8-2.4
		C548.082,1025.042,551.905,1026.226,551.64,1023.32z M550.2,1026.2c0.676,0.241-0.066,1.019,0,1.439
		c1.176,0.938,1.726,1.015,2.88,1.92c1.472-1.253-0.245-3.784-1.68-4.319C551.401,1026.404,550.56,1025.814,550.2,1026.2z"/>
	<path fill="#FFFFFF" d="M551.4,1025.24c1.435,0.535,3.15,3.065,1.68,4.319c-1.154-0.905-1.704-0.98-2.88-1.92
		c-0.066-0.421,0.676-1.198,0-1.439C550.56,1025.814,551.401,1026.404,551.4,1025.24z"/>
	<path d="M557.16,1031.72c-1.229-2.405,1.945-2.114,1.92-4.08c1.172-0.206,1.521-0.493,3.12-0.479
		c1.543,1.517,3.302,2.915,4.318,4.32c-0.071,5.401-3.214,1.598-4.8,0.959c-0.377-0.151-1.214,0.291-1.438,0.24
		C558.979,1032.389,558.341,1031.399,557.16,1031.72z M560.04,1028.36c-0.303,1.297-1.534,1.666-2.16,2.64
		c1.885,0.081,2.696,1.089,4.32,0.24c1.12,0.399,0.929,2.11,2.88,1.68C564.799,1030.9,563.404,1028.08,560.04,1028.36z"/>
	<path fill="#FFFFFF" d="M565.08,1032.92c-1.951,0.432-1.76-1.28-2.88-1.68c-1.624,0.849-2.437-0.159-4.32-0.24
		c0.626-0.974,1.857-1.343,2.16-2.64C563.404,1028.08,564.799,1030.9,565.08,1032.92z"/>
	<path d="M553.08,1033.16c0.891,0.604,3.132,0.952,2.4,2.4c-0.234-0.008-0.188-0.295-0.24-0.48c-0.377,0.104-0.205,0.755-0.96,0.48
		C554.32,1034.32,552.988,1034.451,553.08,1033.16z"/>
	<path fill="#FFFFFF" d="M623.64,1034.12c0.534,1.324,0.5,1.692,0.48,3.36c-0.931-0.922-1.77-0.459-3.36-0.721
		c0.237-0.963,0.793-1.606,1.2-2.399C622.718,1034.479,622.808,1033.928,623.64,1034.12z"/>
	<path d="M564.12,1036.28c0.688,1.23,0.747,3.093,2.16,3.6c-0.419,7.59-11.994,2.017-5.521-2.16c-0.076-0.562-0.379-0.899-0.24-1.68
		C561.163,1035.983,563.099,1036.258,564.12,1036.28z M559.8,1040.6c0.304,0.416,0.812,0.629,0.72,1.44
		c1.191-0.231,1.28,0.64,2.16,0.72c0.958-0.802,1.936-1.586,2.642-2.64c-0.555,0.073-0.268-0.693-0.722-0.72
		c-0.098,0.302-0.309,0.49-0.72,0.479c0.067-1.027-0.733-1.187-0.479-2.4C561.375,1036.164,560.95,1039.556,559.8,1040.6z"/>
	<path fill="#FFFFFF" d="M563.4,1037.48c-0.254,1.213,0.547,1.373,0.479,2.399c0.411,0.011,0.622-0.178,0.72-0.479
		c0.454,0.026,0.167,0.793,0.722,0.72c-0.706,1.054-1.684,1.837-2.642,2.64c-0.88-0.08-0.969-0.951-2.159-0.72
		c0.092-0.812-0.416-1.024-0.721-1.44C560.95,1039.556,561.375,1036.164,563.4,1037.48z"/>
	<path d="M616.92,1039.4c1.929,0.792,3.805,1.635,4.08,4.08c-0.431,0.03-0.506-0.293-0.96-0.24c1.153,1.11,3.202,3.256,1.92,5.279
		c-1.857-0.356,0.259-3.243-2.16-3.6c-0.821,0.191-0.034,1.401-0.479,1.68c-1.296-0.438-0.608-1.397-0.722-2.88
		c0.279-0.2,0.645-0.315,1.2-0.239c0.143-0.861-0.278-1.161-0.479-1.681c-4.194-0.063-0.79,6.03-2.642,7.44
		c-1.539-1.896-0.237-5.682-0.238-7.681c0.282-0.275,0.848-0.271,1.438-0.239c-0.143-1.407-0.921-0.217-1.68-0.24
		C616.14,1040.219,616.921,1040.201,616.92,1039.4z"/>
	<path fill="#FFFFFF" d="M510.12,1041.32c-0.985,1.032-2.43,0.196-3.601,0.72c-2.222,0.993-3.992,5.708-3.6,7.92
		c0.29,1.628,2.771,3.286,4.08,4.32c0.846,0.668,1.168,1.766,1.92,2.399c1.024,0.864,2.335,1.039,3.6,1.681
		c1.64,0.831,2.195,1.844,4.32,2.159c4.162,0.62,8.552-0.13,12-0.72c1.322,0.54,2.287,0.304,3.84,0
		c-3.911,2.97-7.799,5.961-9.12,11.521c-1.902-0.717-3.762-0.051-6-0.48c-1.025-0.195-2.399-1.438-3.84-1.92
		c-2.291-0.768-4.61-0.943-6.96-1.92c-0.822-0.342-1.848-0.972-2.88-1.439c-7.708-3.498-7.123-10.521-5.52-20.881
		c-0.185-0.696-0.38-1.38-0.96-1.68C501.055,1040.966,505.486,1039.467,510.12,1041.32z"/>
	<path fill="#FFFFFF" d="M594.84,1040.36c0.204-0.044,0.228,0.094,0.24,0.239c0.562,1.117,2.354,1.004,3.12,1.92
		c-0.813,0.787-1.601,1.601-2.642,2.16c0.12,3.194,3.647,5.668,0.722,8.4c-0.417-1.903-1.852-2.79-3.12-3.84
		c-0.925,2.436-1.625,5.095-2.641,7.439c-2.714-1.014-1.477-4.355-2.399-7.68c-0.498-1.79-2.281-2.77-1.68-5.76
		c1.872-1.646,3.987-2.078,6.96-1.44C593.304,1040.744,595.098,1041.578,594.84,1040.36z"/>
	<path d="M634.68,1045.64c-1.339-0.553-1.201-1.112-2.16-1.92c-1.389,1.083-0.002,3.667,0,5.521c-0.43-0.031-0.506,0.293-0.96,0.239
		c-1.272-1.861-0.19-5.026-0.479-6.239C632.464,1042.321,634.492,1043.878,634.68,1045.64z"/>
	<path d="M524.52,1043c1.26,0.501,2.33,1.189,2.16,3.12c0.947,0.733,2.027,1.333,2.4,2.64c0.457-0.103,0.603-0.517,1.2-0.479
		c-0.56,0.48-0.747,1.333-1.2,1.92c-1.866-0.294-1.018-3.304-3.36-3.12c0.139-1.338-0.108-2.291-0.72-2.88
		c-0.646-0.09-1.959,1.182-2.16,0C523.695,1044.158,523.278,1043.482,524.52,1043z"/>
	<path d="M524.52,1044.92c0.107,1.067-0.649,1.271-0.96,1.92c-0.196,0.917,1.157,0.283,0.96,1.2c-0.772-0.053-1.016,0.424-1.92,0.24
		C522.582,1046.502,522.964,1045.124,524.52,1044.92z"/>
	<path d="M612.12,1051.16c-0.977,0.724-0.93-1.623-1.92-1.68c-1.453,1.375,0.592,2.971,0.479,4.56c-1.479-1.323-3.011-3.953-1.198-6
		C611.556,1047.885,611.667,1049.693,612.12,1051.16z"/>
	<path d="M554.04,1052.6c-0.872,0.072-0.32-1.279-0.72-1.68c-1.946-0.186-1.603,1.919-3.36,1.92
		C549.491,1049.214,556.033,1048.972,554.04,1052.6z"/>
	<path d="M537.96,1052.84c-1.306-1.019-3.853-1.389-5.04,0c0-0.56,0-1.12,0-1.68C535.163,1050.156,537.382,1050.621,537.96,1052.84z
		"/>
	<path fill="#FFFFFF" d="M484.2,1052.12c-0.31,1.131-1.279,1.602-2.4,1.92C482.541,1053.34,483.146,1052.508,484.2,1052.12z"/>
	<path d="M622.2,1055.24c-1.179-0.022-1.07-1.33-2.16-1.44c0.163,1.542,0.917,1.81,1.2,3.601c-1.989-0.297-2.354-3.064-1.682-4.801
		C621.214,1052.706,621.812,1053.869,622.2,1055.24z"/>
	<path fill="#FFFFFF" d="M546.12,1054.76c0.532,0.699,0.975,0.096,2.16,0.24c0.571,0.627,0.886,1.514,1.68,1.92
		c-1.452,0.379-3.029,0.504-5.04,0.72c0.27-0.295,0.209-0.493-0.24-0.479C545.242,1056.405,546.743,1055.983,546.12,1054.76z"/>
	<path d="M633.24,1055.48c1.315,0.608-0.741,3.623-1.44,1.68C631.846,1056.166,633.067,1056.348,633.24,1055.48z"/>
	<path fill="#FFFFFF" d="M473.4,1059.32c0.011-3.369,4.089-2.696,1.68,0C474.219,1059.121,473.919,1059.861,473.4,1059.32z"/>
	<path fill="#FFFFFF" d="M463.08,1063.4c-1.385,2.942-3.065,4.947-4.32,8.399c-0.585-0.614-1.093-1.307-1.439-2.16
		c-3.056-3.425-7.636-4.567-11.761-6.239c-1.406-0.57-2.533-1.775-4.079-2.16c-1.975-0.491-4.712-0.281-6.48-0.48
		c-3.98-0.449-8.059,0.794-11.04-1.439c-0.118-0.758,1.191-0.089,0.96-0.96c5.788-0.453,11.363-0.093,18.24-0.24
		c2.863-0.062,5.62,1.071,7.92,1.2C454.872,1059.532,459.274,1061.446,463.08,1063.4z"/>
	<path fill="#FFFFFF" d="M659.4,1058.6c0.928,1.881-1.504,5.021-0.722,8.4c0.679,2.924,3.858,3.539,5.521,5.52
		c-9.728,3.711-12.967,13.184-26.88,12.24c3.262-1.856,7.209-3.029,9.12-6.24c0.192,0.207,0.656,0.144,0.72,0.48
		c0.593-0.927,1.598-1.442,2.64-1.92c-0.064-1.266,1.584-1.274,0.96-2.4c2.579-1.309,2.061-4.31,2.88-6.72
		c0.505-1.483,2.259-2.698,3.36-4.56C658.108,1061.529,657.915,1059.74,659.4,1058.6z"/>
	<path fill="#FFFFFF" d="M480.36,1059.08c0.415,0.545,0.993,0.927,0.96,1.92C480.737,1060.623,480.421,1059.979,480.36,1059.08z"/>
	<path fill="#FFFFFF" d="M624.84,1061.48c0.946,0.334,1.661,0.898,2.642,1.199c0.048,1.889-0.589,3.092-1.922,3.601
		c-0.104-0.296-0.307-0.493-0.72-0.48C625.308,1064.475,624.288,1062.408,624.84,1061.48z"/>
	<path fill="#FFFFFF" d="M470.52,1062.68c0.011,1.051-0.686,1.395-1.199,1.92C468.735,1063.921,469.711,1062.761,470.52,1062.68z"/>
	<path fill="#FFFFFF" d="M652.44,1067.24c0.407-0.088,0.451,0.187,0.479,0.479c-1.829,3.131-2.086,7.834-5.76,9.12
		C648.385,1073.105,649.376,1069.136,652.44,1067.24z"/>
	<path fill="#FFFFFF" d="M576.36,1068.439c-4.607,1.796-11.678,5.281-12.24,10.801c-0.062,0.593,0.014,2.139,0.24,2.88
		c0.45,1.477,1.838,2.37,2.398,3.6c0.547,1.196,0.938,2.069,1.92,3.12c-1.901-0.02-3.254-2.664-6.479-2.16
		c-6.179-3.262-10.084-8.796-18.96-9.359c4.804-3.817,10.279-5.554,17.52-6.48c2.146-1.912,6.706-1.258,9.12-1.2
		C570.622,1067.088,573.743,1068.396,576.36,1068.439z"/>
	<path fill="#FFFFFF" d="M491.64,1069.88c3.125,1.995,5.49,6.83,10.801,7.44C496.985,1077.654,494.355,1073.085,491.64,1069.88z"/>
	<path fill="#FFFFFF" d="M477.96,1072.04c0.71,0.33,1.734,0.346,2.16,0.96c-0.373,0.827-1.281,1.119-2.16,1.439
		c0.112-0.512-0.343-0.457-0.72-0.479C477.072,1072.912,477.933,1072.893,477.96,1072.04z"/>
	<path fill="#FFFFFF" d="M622.44,1076.36c-0.047,0.194-0.241,0.238-0.24,0.479c-2.112,1.428-5.438,1.493-7.682,3.36
		c-1.41,1.175-2.862,2.42-2.398,5.28c0.224,1.375,2.021,2.139,1.2,4.318c2.305,0.495,3.496,2.104,5.76,2.641
		c-4.797,2.117-12.63,1.223-15.12-2.88c-1.91,0.973-4.104-0.863-6.72-1.199c-5.339-0.688-11.235,0.048-16.562-1.682
		c6.743-3.036,15.858,3.341,22.32,1.44c-0.188-1.207-0.229-1.316,0.48-1.92c-0.15-0.57-1.479,0.037-1.682-0.48
		c-1.214-2.261-1.878-5.052,0.96-7.2c0.344-0.259,2.501-0.73,3.36-1.199c0.575-0.314,1.505-1.255,2.16-1.44
		c1.287-0.365,3.034,0.055,4.318-0.24c2.417-0.554,4.499-1.566,6.722-0.96C619.982,1076.526,621.463,1074.925,622.44,1076.36z"/>
	<path fill="#FFFFFF" d="M483.72,1074.68c0.345,0.295,0.455,0.825,0.48,1.44C483.292,1076.326,483.351,1075.046,483.72,1074.68z"/>
	<path fill="#FFFFFF" d="M488.28,1074.68c1.292-0.051,0.62,1.99,0.239,2.4C487.412,1077.088,487.69,1075.033,488.28,1074.68z"/>
	<path fill="#FFFFFF" d="M466.44,1075.88c-0.35,0.531-0.162,1.599-0.721,1.92c-0.661-0.139-1.003-0.597-1.68-0.72
		C463.942,1075.479,465.489,1075.184,466.44,1075.88z"/>
	<path fill="#FFFFFF" d="M506.28,1077.8c-0.618,0.153-3.304,0.188-3.36-0.239C502.858,1077.098,505.697,1077.247,506.28,1077.8z"/>
	<path fill="#FFFFFF" d="M521.4,1081.88c-2.415-0.608-4.856-1.067-7.681-2.16C515.704,1078.785,520.333,1079.698,521.4,1081.88z"/>
	<path fill="#FFFFFF" d="M478.2,1079.48c0.862-0.175,2.439,0.416,3.12,0.72C480.657,1080.679,479.282,1079.884,478.2,1079.48z"/>
	<path fill="#FFFFFF" d="M488.28,1081.16c1.148,1.21-1.206,2.691-1.2,4.32C486.298,1083.812,488.021,1082.584,488.28,1081.16z"/>
	<path fill="#FFFFFF" d="M522.36,1082.36c0.587-0.18,2.617,0.255,2.88,1.199C523.979,1083.461,523.289,1082.791,522.36,1082.36z"/>
	<path fill="#FFFFFF" d="M493.32,1083.8c-0.565-0.005-0.707,0.413-1.44,0.24c0.198-0.679-0.338-0.622-0.24-1.2
		C492.454,1082.293,493.688,1082.097,493.32,1083.8z"/>
	<path fill="#FFFFFF" d="M476.04,1086.439c0.009,1.758-3.261,3.418-5.28,1.921C470.579,1085.343,474.757,1083.924,476.04,1086.439z"
		/>
	<path fill="#FFFFFF" d="M507.72,1087.88c2.87,4.71-4.75,8.873-5.76,4.561C501.13,1088.898,504.846,1088.07,507.72,1087.88z"/>
	<path fill="#FFFFFF" d="M526.68,1088.36c0.388-0.068,0.413,0.227,0.721,0.238c0.253,1.693-0.976,1.905-1.2,3.12
		C524.934,1090.854,527.358,1090.17,526.68,1088.36z"/>
	<path fill="#FFFFFF" d="M517.56,1089.32c-0.017,0.862-1.001,0.758-1.92,0.72C515.655,1089.192,516.846,1088.726,517.56,1089.32z"/>
	<path fill="#FFFFFF" d="M491.64,1090.28c0.153,0.953-0.305,1.295-0.72,1.68c-0.419-0.221-0.53-0.75-0.479-1.439
		C491.018,1090.618,490.962,1090.082,491.64,1090.28z"/>
	<path fill="#FFFFFF" d="M480.36,1091.72c-0.231,0.89-0.719,1.522-1.681,1.682C478.271,1092.801,479.317,1090.868,480.36,1091.72z"
		/>
	<path fill="#FFFFFF" d="M525.72,1091.96c-0.498,3.423-3.758,6.161-6.96,7.68C520.702,1096.701,523.465,1094.585,525.72,1091.96z"/>
	<path fill="#FFFFFF" d="M570.84,1099.88c-7.625-1.366-11.813-4.821-18.479-6.96c2.41-0.458,6.064,0.568,7.68,2.641
		c2.906,0.704,4.646,1.104,6.72,2.641C568.851,1098.029,570.5,1098.3,570.84,1099.88z"/>
	<path fill="#FFFFFF" d="M530.76,1098.439c0.141-3.319,6.33-5.342,6.721-1.921C537.85,1099.762,532.682,1101.896,530.76,1098.439z"
		/>
	<path fill="#FFFFFF" d="M513.96,1096.28c0.476,0.454,0.117,1.134,0,1.68c-1.208-0.231-2.081,1.392-2.64-0.72
		C512.626,1097.303,512.519,1096.488,513.96,1096.28z"/>
	<path fill="#FFFFFF" d="M479.4,1097.24c-1.366,0.484-4.504,0.014-4.32,0.72c-1.093-0.442-3.407-0.077-5.04-0.24
		C471.297,1097.131,478.065,1096.222,479.4,1097.24z"/>
	<path fill="#FFFFFF" d="M547.8,1099.4c0.808-0.247,0.374,0.746,0.48,1.198c-0.788-0.036-1.06,1.074-1.682,0.48
		C546.46,1099.98,547.401,1099.961,547.8,1099.4z"/>
	<path fill="#FFFFFF" d="M564.12,1099.4c1.022,0.156,2.643,2.073,3.36,0.96c0.411,2.015-3.799,1.479-4.802,2.88
		c-5.516-1.691-9.544,1.87-12.479,4.319c1.258-4.104,7.169-5.631,12.72-6.239C563.688,1101.047,563.536,1099.855,564.12,1099.4z"/>
	<path fill="#FFFFFF" d="M611.4,1101.32c0.455,0.983,1.491,1.387,2.158,2.16c-3.601-0.512-8.492-2.775-12.96-2.4
		c-1.063,0.09-2.032,0.853-3.118,0.96c-2.188,0.217-4.945-0.767-7.2,0.479c-3.806-1.493-9.256-0.166-12.24-2.159
		c2.524-1.438,4.304,0.005,6.96-0.239c2.499,1.532,7.277,1.176,10.56,0c0.93-0.209,0.854,0.586,1.44,0.72
		c1.438-1.351,5.243,0.562,6-0.72C605.086,1101.08,608.534,1102.013,611.4,1101.32z"/>
	<path fill="#FFFFFF" d="M515.4,1101.08c-1.945,1.12-6.602,3.465-8.881,1.2C509.947,1102.017,512.075,1100.916,515.4,1101.08z"/>
	<path fill="#FFFFFF" d="M475.32,1103c-0.055,0.666-0.762,0.679-0.96,1.2c-0.898,0.019-0.819-0.941-0.96-1.682
		C474.271,1101.952,474.974,1101.965,475.32,1103z"/>
	<path fill="#FFFFFF" d="M519,1102.04c1.196,0.563,2.508,1.012,2.16,3.12C520.379,1104.182,519.819,1102.98,519,1102.04z"/>
	<path fill="#FFFFFF" d="M524.28,1103c0.56,0.08,1.034,0.246,1.2,0.72c-0.109,0.852-0.59,1.331-1.44,1.44
		C523.488,1104.537,524.049,1103.572,524.28,1103z"/>
	<path fill="#FFFFFF" d="M566.76,1103.24c0.03,0.431-0.294,0.506-0.24,0.96c-0.577,0.099-0.521-0.438-1.198-0.24
		C565.459,1103.379,566.227,1103.426,566.76,1103.24z"/>
	<path fill="#FFFFFF" d="M594.6,1103.48c0.48,0,0.96,0,1.44,0c6.836,6.852,1.826,20.493-7.44,20.64c3.985-2.175,7.7-4.62,9.842-8.64
		c-0.038-1.99-0.489-4.711-0.961-6.962c-0.899-0.62-1.241-1.798-1.439-3.118C595.735,1104.585,594.709,1104.491,594.6,1103.48z"/>
	<path fill="#FFFFFF" d="M481.32,1103.72c0.646,0.284-0.001,1.252,0,1.682C480.674,1105.116,481.321,1104.148,481.32,1103.72z"/>
	<path fill="#FFFFFF" d="M502.44,1104.439c0.993-0.903,1.755,1.487,1.199,2.159C502.718,1106.402,503.567,1104.433,502.44,1104.439z
		"/>
	<path fill="#FFFFFF" d="M492.12,1104.92c-1.235,1.405-2.108,3.173-4.561,3.36c-0.105-0.214-0.211-0.431-0.479-0.48
		C487.523,1105.604,489.666,1105.105,492.12,1104.92z"/>
	<path fill="#FFFFFF" d="M539.88,1106.36c1.199-0.239,1.175,0.745,2.16,0.72c-0.085,0.796-0.719,1.041-1.2,1.438
		C539.855,1108.514,539.263,1107.211,539.88,1106.36z"/>
	<path fill="#FFFFFF" d="M503.88,1106.84c0.573,0.23,0.933,1.397,0.48,1.92C503.611,1108.488,504.304,1107.73,503.88,1106.84z"/>
	<path fill="#FFFFFF" d="M523.08,1107.561c1.502,1.457,2.324,3.597,4.56,4.319C524.941,1112.577,524.072,1109.37,523.08,1107.561z"
		/>
	<path fill="#FFFFFF" d="M571.08,1108.04c2.064-0.303,3.384,2.214,4.32,3.84C573.27,1111.291,572.718,1109.122,571.08,1108.04z"/>
	<path fill="#FFFFFF" d="M548.04,1108.28c0.074-0.326,0.601-0.199,0.96-0.24c-0.285,1.235-1.804,1.236-1.68,2.88
		c-5.107,1.58-8.533,2.309-14.16,2.4c0.318-1.271,2.175-0.978,3.12-0.48C540.222,1112.251,546.201,1110.079,548.04,1108.28z"/>
	<path fill="#FFFFFF" d="M512.76,1112.84c-0.88,0-1.76,0-2.64,0c-0.614-1.26-1.094-1.54-0.48-3.12c2.15-1.287,4.403-1.301,4.08,1.44
		C513.631,1111.916,513.153,1112.05,512.76,1112.84z"/>
	<path fill="#FFFFFF" d="M588.36,1108.52c0.388-0.066,0.413,0.229,0.72,0.24c-0.038,2.441-1.432,3.528-3.12,4.32
		C584.509,1111.02,587.513,1109.824,588.36,1108.52z"/>
	<path fill="#FFFFFF" d="M606.36,1109c1.313,0.445,1.846,1.674,3.358,1.92c0.441,0.279-0.126,1.566,0.96,1.2
		c-0.598,1.48-0.644,3.516-2.88,3.36C606.663,1113.741,605.07,1111.196,606.36,1109z"/>
	<path fill="#FFFFFF" d="M503.88,1109.48c0.688,0.032,0.439,1,0.48,1.68C503.448,1111.354,504.055,1110.025,503.88,1109.48z"/>
	<path fill="#FFFFFF" d="M480.36,1109.72c0.646-0.065,0.684,1.69,0.239,1.92C479.485,1111.592,480.508,1110.316,480.36,1109.72z"/>
	<path fill="#FFFFFF" d="M495.24,1111.64c0.314,0.245,0.884,0.235,1.2,0.48c-0.075,0.899-0.804,0.975-1.44,0.72
		C494.923,1112.283,495.039,1111.919,495.24,1111.64z"/>
	<path fill="#FFFFFF" d="M503.64,1111.64c0.986,0.693,1.146,2.216,1.44,3.602C504.162,1114.479,503.719,1113.241,503.64,1111.64z"/>
	<path fill="#FFFFFF" d="M567.96,1114.52c1.029,1.887-0.42,2.77-1.92,3.36C563.825,1117.062,566.011,1112.793,567.96,1114.52z"/>
	<path fill="#FFFFFF" d="M524.52,1115.96c-0.908,2.423-4.736,4.146-3.359,8.4C518.742,1121.92,522.243,1117.883,524.52,1115.96z"/>
	<path fill="#FFFFFF" d="M592.44,1116.439c-0.529,0.508,0.308,0.709,0.238,1.439c-1.419-0.264-1.579,1.556-2.398-0.96
		C591.234,1116.994,591.485,1116.365,592.44,1116.439z"/>
	<path fill="#FFFFFF" d="M588.12,1118.12c-0.175,1.265-0.428,2.452-1.92,2.399C586.179,1119.053,586.771,1117.486,588.12,1118.12z"
		/>
	<path fill="#FFFFFF" d="M537,1118.12c0.074,1.434-0.349,2.371-1.92,2.16C534.854,1118.692,535.246,1117.727,537,1118.12z"/>
	<path fill="#FFFFFF" d="M563.4,1118.36c0.691,0.105,0.566,1.031,1.198,1.199c-0.42,0.38-1.277,0.32-1.92,0.479
		C562.927,1119.486,563.506,1119.266,563.4,1118.36z"/>
	<path fill="#FFFFFF" d="M509.88,1119.32c0.15,1.35-0.522,1.876-1.439,2.16C507.893,1120.569,508.532,1119.102,509.88,1119.32z"/>
	<path fill="#FFFFFF" d="M598.44,1120.28c0.82-0.103,0.721,0.719,1.198,0.96c-0.619,1.099-0.654,1.504-0.479,3.12
		C598.098,1123.422,598.35,1121.907,598.44,1120.28z"/>
	<path fill="#FFFFFF" d="M606.12,1122.2c-0.538,0.421-0.929,0.991-1.2,1.68c-0.844-0.276-0.925-1.314-1.439-1.92
		C603.614,1120.35,606.256,1120.452,606.12,1122.2z"/>
	<path fill="#FFFFFF" d="M526.68,1121c0.32,0,0.641,0,0.96,0c0.111,0.751-0.208,1.071-0.96,0.96
		C526.68,1121.64,526.68,1121.32,526.68,1121z"/>
	<path fill="#FFFFFF" d="M502.68,1121.24c0.535,0.245-0.313,1.104,0,1.92c-1.029,0.068-1.586-0.334-2.16-0.721
		C501.247,1122.047,502.534,1122.215,502.68,1121.24z"/>
	<path fill="#FFFFFF" d="M572.52,1121.48c1.099,0.021,1.005,1.235,1.2,2.158c-1.317-0.074,0.075,2.025-1.68,1.922
		c0.519-0.904-0.376-1.018-0.479-1.922C572.639,1123.679,572.21,1122.21,572.52,1121.48z"/>
	<path fill="#FFFFFF" d="M543,1122.439c6.244-0.226,0.688,8.31-0.72,3.359C541.869,1124.355,542.793,1123.829,543,1122.439z"/>
	<path fill="#FFFFFF" d="M644.76,1141.64c-6.328,3.478-14.681,4.228-21.84,4.32c-2.906,0.038-6.117-0.943-7.92-2.88
		c-4.585,0.866-9.346-1.055-12.96,0.479c-1.942,0.825-5.357,3.525-6.48,4.802c-2.424,2.753-3.122,7.188-4.318,10.56
		c-3.638-6.961-4.228-15.892-6.48-24c4.194-1.91,11.033-2.502,17.761-3.12c2.523-3.477,7.252-4.748,10.561-7.438
		c0.204-0.045,0.227,0.093,0.24,0.238c1.94,0.22,2.231,2.089,4.56,1.921c1.979,3.331,5.993,4.143,9.12,6.961
		c1.581,1.424,5.168,4.342,7.68,5.52c1.27,0.595,2.634,1.059,3.602,1.44C640.231,1141.211,642.802,1140.37,644.76,1141.64z"/>
	<path d="M491.4,1124.6c2.065,0.906,0.192,3.516-1.92,3.12c-1.047-0.938-0.793-3.299,1.199-3.12c0.005,0.887-0.106,1.653-0.96,1.682
		C490.626,1127.059,491.55,1124.939,491.4,1124.6z"/>
	<path fill="#FFFFFF" d="M564.36,1125.08c1.176,1.303-0.697,2.089-1.44,2.88C561.339,1127.181,562.724,1124.845,564.36,1125.08z"/>
	<path fill="#FFFFFF" d="M595.56,1126.76c1.329,0.583-0.197,2.104-0.72,2.4c-0.517-0.204-0.849-0.591-0.72-1.44
		C594.964,1127.764,595.153,1127.153,595.56,1126.76z"/>
	<path fill="#FFFFFF" d="M532.68,1127.72c0.173,2.182-1.978,3.912-3.359,2.4c0.146-0.575,0.345-1.095,0.239-1.92
		C530.787,1129.02,531.314,1126.716,532.68,1127.72z"/>
	<path d="M506.76,1131.561c-0.283,1.877-1.036,3.283-3.359,3.119c-2.354-1.467,1.281-5.683,1.92-3.358
		C505.325,1131.745,506.452,1130.938,506.76,1131.561z M505.56,1132.04c-0.458-0.103-0.434-0.687-1.199-0.479
		c-0.211,0.771,0.792,0.328,0.72,0.959c-0.733,0.175-0.875-0.244-1.44-0.238c-0.254,0.968-0.314,1.726,0.96,1.68
		c-0.187-1.155,1.674-1.514,1.2-2.16C505.786,1131.946,505.764,1132.084,505.56,1132.04z"/>
	<path fill="#FFFFFF" d="M578.04,1132.28c0.494,0.064,0.226,0.894,0.72,0.96c-0.068,0.729-1.269,0.33-1.438,0.96
		C576.547,1133.488,578.044,1133.018,578.04,1132.28z"/>
	<path d="M532.44,1138.28c1.151,2.159,0.221,3.188,0,5.52c-3.921,1.382-5.473-2.341-3.601-5.28
		C530.214,1138.195,530.85,1137.945,532.44,1138.28z M529.32,1142.36c0.561,0.079,0.992,0.288,1.439,0.479
		c1.111-0.769,1.807-2.217,0.721-3.358C529.325,1138.976,528.636,1140.773,529.32,1142.36z"/>
	<path fill="#FFFFFF" d="M531.48,1139.48c1.085,1.143,0.391,2.591-0.721,3.358c-0.447-0.19-0.879-0.399-1.439-0.479
		C528.636,1140.773,529.325,1138.976,531.48,1139.48z"/>
	<path d="M525.48,1144.52c-0.079,0.562-0.289,0.992-0.48,1.44c-0.896,0.257-0.684-0.596-1.44-0.479
		C523.207,1143.653,524.894,1143.551,525.48,1144.52z"/>
	<path fill="#FFFFFF" d="M399.24,959c93.995,0,188.007,0,282,0c0,80.959,0,161.921,0,242.88c-94.078,0-188.164,0-282.24,0
		c0-80.723,0-161.437,0-242.16C398.979,959.379,398.96,959.041,399.24,959z M652.44,1081.16c0.456,0.449,0.603,0.025,1.198,0
		c3.559-2.523,6.892-5.85,11.04-7.92c1.881-0.939,4.193-0.932,5.761-2.641c-1.311-1.457-4.169,0.312-6,0
		c-2.02-1.859-4.26-2.476-4.561-5.52c-0.028-0.29,0.465-0.902,0.48-1.2c0.128-2.504,0.396-5.813,0.96-8.64
		c-0.454-0.688-1.383,0.833-1.682,0.24c0.282-2.894-2.024-5.138-2.88-7.681c-5.15-2.699-9.749-6.72-17.04-4.8
		c-2.02-8.62-3.258-18.022-7.2-24.72c-5.796-5.805-10.372-12.828-17.76-17.04c-4.254-2.426-8.585-4.359-12.96-6.48
		c-7.805-3.784-15.477-8.296-27.12-7.439c-5.039,0.771-12.229,0.172-17.52,0.239c-1.002,0.014-2.492,0.273-3.36,0.48
		c-4.919,1.17-9.304,4.093-12,7.68c-7.576,3.626-17.861,6.618-24.24,12.24c-1.104,0.016-1.432,0.808-2.399,0.96
		c-1.479-0.182-2.647-0.128-3.601,0.72c-0.218-0.422-0.841-0.438-1.2-0.72c-2.943,1.536-5.513,3.446-9.359,4.08
		c-1.82,2.66-4.752,4.208-7.44,6c-2.502,2.222-2.818,5.361-4.56,8.64c-0.394,0.74-1.023,0.998-1.2,1.681
		c-0.358,1.38,0.026,3.469,0,5.279c-0.063,4.45,2.207,9.556,0.24,13.44c-4.454-0.838-8.793,0.848-12,2.64
		c-6.223,1.66-8.357,8.273-12,11.76c-1.766-1.502-3.768-1.72-6.24-2.88c-1.284-0.602-2.414-1.689-3.6-1.92
		c-2.197-0.425-4.841-0.225-7.2-0.479c-6.168-0.666-10.704-0.474-16.561-0.721c-4.787-0.201-7.585,1.046-10.08,3.12
		c0.184,1.337,1.89,1.151,3.36,1.2c0.125,0.596,0.585,0.855,0.96,1.2c6.504,0.158,11.133,3.562,14.88,7.2
		c1.341,2.987,2.65,8.234,2.88,13.68c-1.151,3.941-2.91,8.564-7.199,10.08c-0.334,0.306-0.104,1.176-0.721,1.2
		c-0.661,0.288-1.002,0.521-1.68,0.239c-0.375,1.146-1.963,1.076-2.4,2.159c-2.279,0.843-5.349,2.972-8.16,4.08
		c-3.683,3.681-7.252,6.01-9.119,11.521c-0.948,0.195-1.42,1.237-0.96,2.159c4.958-2.443,11.699-2.328,17.52-2.88
		c8.13,0.562,13.399,4.566,15.36,11.279c0.802,2.748-1.041,4.5-0.24,7.2c-1.15,1.367-3.045,4.152-2.4,5.76
		c-0.418-0.018-0.747,0.054-0.96,0.24c-2.889,6.693-1.657,14.447,0.48,20.4c1.127,3.139,1.612,6.927,3.84,8.398
		c0.063-0.337,0.526-0.272,0.72-0.479c-0.906-1.786,0.124-4.075-1.439-5.04c1.349-8.039,6.074-16.113,12.96-20.642
		c5.006,6.68,13.628,11.008,23.28,12.24c1.531,4.031,2.082,9.779,3.119,12.96c0.003-0.242,0.422-0.302,0.48,0
		c-0.293,0.027-0.568,0.072-0.48,0.479c2.224,6.576,7.34,10.262,12.96,13.439c0.771-1.006-0.288-1.84-0.72-2.399
		c-3.34-6.681-1.738-14.094,1.92-19.681c5.337,4.013,14.111,4.869,22.32,6.721c0.053,1.067,1.773,0.465,1.92,1.439
		c1.098-0.946,3.457,0.544,4.56-0.721c0.716,1.046,0.897,2.623,2.641,2.641c0.729,1.612,2.941,3.762,4.08,5.761
		c2.154,0.492,3.022,1.312,4.56,1.92c2.73,1.077,6.266,1.395,9.12,1.92c0.603,0.706,1.714,1.389,2.641,0.479
		c-1.88-3.488-5.173-7-4.08-10.8c8.008,1.388,13.542,0.358,19.921-0.24c2.378-2.342,7.474-1.966,9.84-4.319
		c2.32,0.081,2.854-1.626,4.319-2.399c2.867,1.531,4.486,4.312,5.761,7.439c2.789,1.858,7.051,3.498,11.04,3.359
		c0.723,1.116,4.122,1.612,6,1.439c-0.02-0.418,0.054-0.747,0.239-0.96c-3.301-1.538-6.047-4.783-8.881-6
		c0.385-0.995-1.574-2.024-1.438-4.08c8.59-2.77,16.611-6.107,21.84-12.239c0.864,0.145,0.707-0.732,1.439-0.721
		c6.139,1.63,12.167,1.28,18,0.24c1.772,0.629,5.366-1.017,6.96-2.16c1.73,0.699,5.698-1.6,5.521-3.601
		c-2.958-1.396-5.567-2.896-7.2-5.04c0.685-0.234,1.219,1.528,1.44,0.24c-3.303-1.975-4.533-5.176-4.08-9.841
		c0.454,0.055,0.528-0.271,0.96-0.239c0.222-2.939,2.702-4.761,3.84-6c4.756,0.078,8.849-4.13,12.96-6.239
		c0.748-3.173,4.51-3.331,5.04-6.721c0.895,0.577,2.217-1.307,1.44-2.4c-2.181,0.621-3.861,1.739-5.04,3.36
		c1.136-0.433,1.473-0.229,2.159,0c-0.97,1.427-4.951,3.153-3.359,4.8c-0.734,0.175-0.706-0.414-1.44-0.239
		c-3.665,2.574-6.95,5.528-12.479,6.239c-2.107,1.653-3.725,3.797-4.8,6.48c-0.237,1.062-0.037,0.628,0.238,1.438
		c-1.139,0.701-1.048,2.633-1.198,4.32c2.371,3.227,3.795,5.925,6.238,8.159c-2.634,0.846-4.246-1.332-6.72-1.439
		c-1.339-1.381-3.063-2.375-5.04-3.12c-0.949-1.239-2.937-2.623-4.32-2.64c-2.766-2.371-5.231-6.264-9.118-6.721
		c-0.417-0.862-1.365-1.194-1.922-1.92c1.72-2.256,3.222-5.753,3.842-9.119c0.113-0.625-0.211-1.311,0-1.921
		c0.501-1.452,2.161-0.876,2.64-0.96c2.416-0.426,5.67-2.129,6.48-0.96c0.75,0.073-0.61-0.692,0.238-0.72
		c3.16,0.559,4.434,0.331,6.96,0c-0.862-1.361-2.683-1.063-4.08-0.24c0.061-0.359,0.365-0.412-0.238-0.479
		c-2.27-0.251-6.262-0.124-9.12,0.479c-0.91,0.192-2.104,0.572-2.642,1.439c0.027-3.235-2.529-4.867-4.8-6.479
		c1.438,0.25,4.37-0.474,4.562-1.439c5.248,0.367,11.034-2.69,15.12-0.96c0.021,0.377-0.032,0.832,0.479,0.72
		c2.787,1.267,6.309,2.354,7.2,3.601c0.151-0.522-0.682-0.764,0.24-0.72c-0.292,0.822,2.77,2.228,3.118,0.96
		c-0.222,0.577-0.438,1.162-0.72,1.681c-1.322-0.122-2.383,0.018-2.88,0.72c-0.021-0.377,0.032-0.832-0.479-0.72
		c-1.608,0.363-2.689,0.444-5.521,0.479c1.247,1.564,4.116,0.833,4.561,0.24c1.513,0.429,3.392,0.271,5.279,0
		c-0.229-0.271-0.626-1.583-0.24-1.681c0.366,0.436,1.646-0.046,1.44,0.961c-0.425,0.055-1.202-0.242-0.96,0.479
		c2.602,0.056,5.689,0.975,7.2-1.199c0.637-0.077-0.226,1.344,0.72,0.96c1.104-1.229,2.602-0.4,3.6-0.96
		c-0.684-1.369-2.02-0.609-2.88-0.479c-8.709,1.321-13.604-3.891-21.12-6.72c3.398-2.339,8.344-3.039,7.682-8.641
		c-0.186-1.557-1.44-3.264-1.682-5.28c4.747,0.178,11.248-0.981,12.961-4.319C651.913,1082.433,653.061,1081.862,652.44,1081.16z"/>
	<path d="M651.48,1081.88c-1.714,3.338-8.215,4.497-12.962,4.32c0.24,2.017,1.496,3.724,1.682,5.28
		c0.662,5.601-4.282,6.302-7.682,8.64c7.517,2.83,12.411,8.041,21.12,6.72c0.86-0.13,2.196-0.889,2.88,0.48
		c-0.997,0.559-2.495-0.271-3.6,0.96c-0.944,0.384-0.083-1.037-0.72-0.96c-1.511,2.174-4.6,1.255-7.2,1.198
		c-0.242-0.722,0.535-0.425,0.96-0.479c0.206-1.006-1.074-0.525-1.439-0.96c-0.387,0.097,0.01,1.408,0.239,1.68
		c-1.889,0.272-3.768,0.43-5.278,0c-0.444,0.594-3.313,1.324-4.562-0.24c2.831-0.033,3.912-0.114,5.521-0.479
		c0.512-0.112,0.457,0.343,0.479,0.72c0.497-0.702,1.558-0.842,2.88-0.72c0.282-0.518,0.498-1.104,0.721-1.68
		c-0.351,1.267-3.411-0.139-3.119-0.96c-0.922-0.044-0.088,0.195-0.24,0.72c-0.893-1.246-4.413-2.335-7.2-3.602
		c-0.512,0.112-0.457-0.343-0.479-0.72c-4.085-1.729-9.872,1.327-15.12,0.96c-0.19,0.967-3.123,1.69-4.562,1.44
		c2.271,1.612,4.827,3.244,4.8,6.479c0.538-0.866,1.73-1.247,2.642-1.438c2.858-0.604,6.852-0.731,9.12-0.48
		c0.604,0.067,0.299,0.12,0.238,0.48c1.397-0.824,3.218-1.121,4.08,0.24c-2.526,0.33-3.8,0.558-6.96,0
		c-0.85,0.025,0.512,0.793-0.238,0.72c-0.812-1.169-4.064,0.534-6.48,0.96c-0.479,0.084-2.139-0.493-2.64,0.96
		c-0.211,0.609,0.113,1.295,0,1.92c-0.62,3.367-2.122,6.864-3.842,9.12c0.557,0.725,1.505,1.057,1.922,1.92
		c3.887,0.457,6.354,4.349,9.119,6.72c1.384,0.017,3.37,1.4,4.319,2.64c1.977,0.745,3.701,1.739,5.04,3.12
		c2.475,0.108,4.086,2.285,6.72,1.44c-2.443-2.235-3.866-4.934-6.238-8.16c0.15-1.688,0.061-3.619,1.198-4.32
		c-0.275-0.812-0.477-0.377-0.238-1.438c1.075-2.685,2.691-4.827,4.8-6.48c5.528-0.711,8.813-3.665,12.479-6.238
		c0.734-0.176,0.706,0.413,1.44,0.238c-1.592-1.646,2.391-3.373,3.359-4.8c-0.688-0.228-1.023-0.432-2.159,0
		c1.179-1.621,2.859-2.739,5.04-3.359c0.775,1.095-0.547,2.978-1.44,2.399c-0.53,3.39-4.292,3.548-5.04,6.721
		c-4.111,2.109-8.204,6.317-12.96,6.239c-1.138,1.24-3.618,3.062-3.84,6c-0.431-0.03-0.506,0.294-0.96,0.24
		c-0.453,4.665,0.777,7.866,4.08,9.84c-0.223,1.288-0.757-0.475-1.44-0.24c1.633,2.146,4.242,3.646,7.2,5.04
		c0.179,2.001-3.789,4.3-5.52,3.602c-1.595,1.144-5.188,2.788-6.961,2.159c-5.833,1.041-11.861,1.39-18-0.239
		c-0.732-0.013-0.575,0.864-1.439,0.72c-5.229,6.132-13.25,9.471-21.84,12.24c-0.136,2.055,1.823,3.085,1.438,4.08
		c2.834,1.217,5.58,4.462,8.881,6c-0.187,0.213-0.259,0.542-0.239,0.96c-1.877,0.173-5.277-0.323-6-1.44
		c-3.989,0.139-8.251-1.501-11.04-3.359c-1.273-3.127-2.894-5.907-5.761-7.439c-1.466,0.774-1.999,2.48-4.319,2.4
		c-2.366,2.354-7.462,1.978-9.84,4.318c-6.378,0.601-11.913,1.628-19.921,0.24c-1.093,3.8,2.2,7.312,4.08,10.8
		c-0.927,0.908-2.037,0.228-2.641-0.479c-2.854-0.526-6.39-0.843-9.12-1.92c-1.537-0.607-2.405-1.429-4.56-1.921
		c-1.139-1.998-3.352-4.147-4.08-5.761c-1.743-0.017-1.925-1.595-2.641-2.64c-1.103,1.264-3.462-0.228-4.56,0.72
		c-0.146-0.975-1.867-0.372-1.92-1.438c-8.209-1.853-16.982-2.708-22.32-6.722c-3.657,5.587-5.26,13-1.92,19.682
		c0.433,0.56,1.491,1.394,0.72,2.398c-5.621-3.179-10.736-6.862-12.96-13.438c-0.088-0.408,0.188-0.453,0.48-0.48
		c-0.06-0.302-0.478-0.241-0.48,0c-1.038-3.181-1.588-8.929-3.12-12.96c-9.651-1.231-18.273-5.562-23.279-12.239
		c-6.886,4.526-11.611,12.602-12.96,20.641c1.562,0.965,0.533,3.254,1.439,5.04c-0.193,0.206-0.656,0.143-0.72,0.479
		c-2.228-1.474-2.712-5.262-3.84-8.399c-2.138-5.953-3.369-13.706-0.48-20.4c0.213-0.187,0.542-0.258,0.96-0.239
		c-0.645-1.607,1.25-4.394,2.4-5.761c-0.8-2.7,1.042-4.452,0.24-7.2c-1.961-6.713-7.23-10.719-15.36-11.278
		c-5.82,0.551-12.562,0.436-17.52,2.88c-0.46-0.922,0.012-1.964,0.96-2.16c1.866-5.511,5.437-7.84,9.12-11.521
		c2.811-1.108,5.88-3.237,8.159-4.079c0.438-1.083,2.025-1.015,2.4-2.159c0.678,0.281,1.021,0.048,1.68-0.24
		c0.616-0.024,0.387-0.895,0.721-1.2c4.288-1.516,6.048-6.139,7.199-10.08c-0.229-5.443-1.538-10.69-2.88-13.68
		c-3.747-3.639-8.375-7.042-14.88-7.2c-0.375-0.345-0.835-0.604-0.96-1.199c-1.472-0.049-3.178,0.138-3.359-1.2
		c2.494-2.075,5.293-3.322,10.079-3.12c5.856,0.248,10.393,0.054,16.561,0.72c2.36,0.255,5.003,0.056,7.2,0.48
		c1.186,0.229,2.314,1.317,3.6,1.92c2.473,1.16,4.475,1.377,6.24,2.88c3.643-3.487,5.777-10.1,12-11.76
		c3.207-1.792,7.546-3.479,12-2.641c1.966-3.885-0.303-8.99-0.24-13.439c0.026-1.812-0.357-3.9,0-5.28
		c0.177-0.682,0.809-0.94,1.2-1.68c1.741-3.279,2.058-6.418,4.56-8.641c2.688-1.792,5.62-3.34,7.44-6
		c3.847-0.634,6.416-2.544,9.36-4.08c0.358,0.281,0.981,0.298,1.199,0.721c0.953-0.849,2.122-0.902,3.601-0.721
		c0.968-0.151,1.295-0.943,2.399-0.96c6.379-5.622,16.664-8.613,24.24-12.24c2.696-3.587,7.081-6.509,12-7.68
		c0.868-0.207,2.358-0.467,3.36-0.479c5.291-0.068,12.479,0.529,17.52-0.24c11.645-0.856,19.315,3.656,27.12,7.44
		c4.375,2.12,8.706,4.056,12.96,6.479c7.388,4.212,11.964,11.236,17.76,17.04c3.942,6.697,5.182,16.1,7.2,24.72
		c7.291-1.92,11.889,2.102,17.04,4.8c0.854,2.543,3.162,4.787,2.88,7.681c0.299,0.593,1.228-0.928,1.682-0.24
		c-0.562,2.826-0.832,6.136-0.96,8.64c-0.017,0.299-0.51,0.911-0.48,1.2c0.301,3.044,2.541,3.66,4.562,5.521
		c1.83,0.312,4.688-1.457,6,0c-1.567,1.709-3.881,1.701-5.762,2.64c-4.148,2.07-7.481,5.397-11.04,7.92
		c-0.597,0.026-0.743,0.449-1.198,0C653.061,1081.862,651.913,1082.433,651.48,1081.88z M549.48,991.64
		c-5.776,2.543-9.511,7.13-12.48,12.48c-1.2,0.16-1.625,1.095-1.92,2.16c-3.954,4.286-7.95,8.528-9.36,15.359
		c-0.593,0.606-1.194,1.205-1.2,2.4c0.864-0.064,1.157,0.442,1.921,0.479c-0.006,0.565,0.413,0.707,0.239,1.44
		c1.327-0.613,0.837,0.573,1.92,0.72c2.804-2,3.868-10.898,6.48-12.24c2.271-1.166,7.702,0.316,7.92,2.16
		c1.111-0.949,2.529-0.585,3.84-0.479c0.334,1.025,0.521,2.197,1.68,2.399c-0.292,0.027-0.566,0.072-0.479,0.48
		c4.129,2.086-1.715,9.752-3.6,3.6c-0.761,5.744,4.828,7.998,5.278,12.48c-1.814-2.639-4.147-5.141-5.76-7.92
		c-1.154-1.992,0.1-5.378-2.16-6.96c1.296-4.467-3.771-5.985-7.2-4.08c0.933,1.668-1.609,2.241-0.96,4.56
		c-2.128,0.733-1.271,4.397-3.12,4.8c-0.013,1.667-1.18,2.181-2.159,2.88c-1.505-1.376-2.428-3.333-5.28-3.359
		c-0.33,2.188-2.656,2.701-2.16,5.04c-2.406,0.233-1.612,3.668-3.84,4.08c-0.479,3.37,3.896,4.091,3.84,8.399
		c2.382-1.35,1.821-4.188,5.28-4.319c-0.242-0.003-0.302-0.421,0-0.48c0.983,0.786,2.255,2.306,1.92,4.08
		c-1.479-0.121-1-2.199-1.68-3.12c-1.636-0.096-1.95,0.634-2.641,0.96c0.86,0.347,2.378,1.293,2.16,1.92
		c-0.688-0.359-2.627-0.722-3.12-0.479c0.114,0.365-0.809,1.743-0.72,2.88c-0.32,0-0.64,0-0.96,0
		c-0.672,1.997,1.306,2.29,0.479,4.319c3.006,4.033,7.754,6.326,11.761,9.36c2.368-0.625,5.135,1.064,6.96,0
		c3.698,1.82,6.376,4.664,10.56,6c8.186-1.145,13.73-1.011,21.6,0.96c0.348,0.534,0.604,1.157,0.48,2.16
		c2.967-0.132,5.168,1.264,8.4,1.2c-0.521,0.5,0.028,0.775,0.238,1.2c1.71-0.109,2.496,0.703,3.842,0.959
		c-0.141-0.778,0.162-1.116,0.238-1.68c1.188-0.574,1.623-1.896,2.4-2.88c3.628-1.412,3.239-6.841,8.64-6.479
		c2.321-1.68,5.859-2.142,6.722-5.28c0.307,0.014,0.332,0.308,0.72,0.239c0.622-2.028,2.47-5.199,1.68-6.959
		c-0.026,0.293-0.071,0.567-0.479,0.479c0.072-3.046,1.926-4.313,2.64-6.72c0.632-0.072,0.788,0.333,0.72,0.96
		c1.194-0.486,2.044-1.316,3.36-1.681c-0.653-1.185,0.385-4.694,2.16-4.08c-0.232,1.769-1.658,2.343-1.44,4.561
		c-1.154,1.707-2.716,0.939-4.08,1.92c-0.382,0.275-1.758,1.938-1.92,2.4c-0.496,1.42,0.642,2.497,0.48,4.319
		c-0.165,1.88-1.524,2.927-2.16,3.841c-0.627,0.899-0.449,1.839-1.2,2.399c-0.799,0.597-0.052-0.003-0.72,0.96
		c-1.839,2.651-5.955,2.718-9.12,4.08c-2.154,3.766-5.966,5.875-7.68,10.08c2.91,1.53,6.335,1.232,9.84,2.16
		c0.098-0.301,0.31-0.49,0.72-0.479c-1.745-4.737,2.835-7.419,6.24-7.68c-0.032-0.767,0.527-2.173,0.96-1.681
		c-0.63,1.37,0.23-0.275,0.72,0.48c0.412,1.292-1.088,0.672-1.438,1.2c1.9,0.418,1.393,3.247,3.358,3.6
		c0.899-0.541,1.549-1.331,2.88-1.439c0.561-2.69,1.396-3.625,3.36-5.521c2.962,0.317,5.377,1.184,5.52,4.32
		c0.68,0.039,0.561-0.721,1.2-0.721c1.163,0.601,3.702,3.112,1.92,4.32c-0.964-0.637-0.427-2.772-2.16-2.64
		c-0.896,0.163,0.179,0.797-0.72,0.96c-0.204-0.356-0.604-0.517-1.2-0.48c-0.689,0.51-1.128,1.272-1.438,2.16
		c1.372,0.693-0.302,2.171-0.72,2.641c-1.308-1.775,0.672-4.806,1.438-6.721c-1.413-4.47-6.236-1.265-6,2.641
		c-2.96,2.662-7.179,2.084-7.2-1.92c-2.027,0.271-3.688,1.715-5.278,1.68c-0.161,2.047-1.731,3.979-0.722,5.76
		c5.801,1.096,10.247,1.395,15.602,0.479c-0.93-0.568-0.048-1.886,0.96-1.921c-0.125,0.756-0.267,1.495-0.96,1.681
		c5.785-0.485,12.701-3.476,19.199-4.561c6.653-1.11,12.416-3.603,11.039-12.72c-1.302-1.978-2.912-3.646-4.078-5.76
		c-1.528-0.665-2.559-1.868-2.882-3.6c-0.18-0.969,0.277-1.712,0.24-2.641c-0.059-1.484-1.112-3.07-1.438-5.04
		c-0.256-1.541,0.219-3.322,0-4.56c-0.125-0.707-1.075-1.441-0.722-2.16c-2.013-0.867-2.343-3.417-4.08-4.561
		c-1.267-4.652-4.815-7.022-9.118-8.64c-0.397,0.803-0.084,2.317-0.48,3.12c2.246,1.994,3.614,6.526,1.92,10.56
		c3.582,0.736,0.984,6.194,3.12,8.4c-0.289,0.271-0.435,0.685-1.2,0.479c0.358-1.958-1.282-1.917-1.2-3.6
		c-0.822,0.267-1.938-1.202-2.159,0c0.172,1.191,1.646,3.153,2.399,4.561c-0.477,0.003-0.305,0.654-0.96,0.479
		c-1.504-1.696-1.872-4.527-3.36-6.24c0.454-0.905,0.638-2.083,1.2-2.88c-2.245,0.875-3.344,2.896-6.24,3.12
		c-0.446-0.427,0.195-0.61,0-1.44c1.772-0.628,3.615-1.185,4.562-2.64c0.396,0.003,0.134,0.666,0.479,0.72
		c0.214-1.386,2.033-1.167,2.642-2.16c1.671-5.736-4.792-8.728-1.44-13.92c8.398,0.484,10.333,9.507,15.12,14.4
		c-0.884-4.477-2.938-7.782-4.08-12c-1.31-1.09-2.528-2.271-3.12-4.08c-4.96-3.279-6.913-9.567-12.96-11.76
		c-1.277,6.137-6.491-0.8-6.239-4.32c-9.404-3.106-17.125-9.759-27.601-11.04c-3.065-0.375-6.627,0.032-10.08,0
		c-3.694-0.035-7.501,0.941-11.04,0.72c-4.192-0.262-7.505-0.562-10.319,1.92c0.974,1.045,2.102,1.748,2.399,2.881
		c3.912,0.801,8.37-0.527,10.8-2.641c3.556,0.958,6.223-0.109,10.801-0.479c0.5-0.46,1.004-0.917,1.199-1.681
		c0.359,0.362,1.368,0.072,1.2,0.961c-1.856,3.528-7.713,2.186-12.24,3.359c-0.116-0.284-0.256-0.544-0.479-0.72
		c-3.072,2.487-7.668,3.273-12,2.399c-0.409-1.205-2.082-2.562-1.44-3.359C550.273,992.325,549.511,992.684,549.48,991.64z
		 M515.64,1010.12c-0.824,0.868-1.788,0.12-3.12,0.479c0.018,1.983,0.885,3.115,1.2,4.801c-1.629,13.066-21.819,10.81-19.68,27.119
		c2.986-0.686,5.345-2.621,8.4-3.359c6.69-1.618,12.883,2.537,17.04,5.76c0.42-4.893-2.911-7.916-6-10.08
		c-1.716-2.346-1.379-7.329,0.72-9.12c2.646-1.111,6.094-1.425,7.92-3.359c0.182-1.945-1.084-3.711-0.48-5.28
		c2.08,0.877,1.604,3.438,1.92,5.52c1.104-1.818,1.352-4.275,2.16-6.239c0.436-1.054,1.229-2.955,1.92-3.601
		c0.253-0.235,0.754,0.06,0.96-0.239c0.47-0.681,0.361-1.575,0.721-2.16c0.624-1.016,1.833-1.468,2.64-2.4
		c-0.053,0.062-0.588-0.104-0.479-0.24c0.057-0.069,0.83-0.109,1.199-0.479c0.605-0.606,0.357-2.055,1.44-1.2
		c0.458-2.544,4.1-3.869,4.32-7.439c-6.991,3.729-15.643,5.798-20.881,11.279c1.527,0.931,1.986,2.939,4.32,4.08
		c-0.98,0.418,0.385,1.779-0.72,2.16c-0.45-1.562-2.698-2.294-2.641-3.6C517.542,1012.692,516.621,1010.744,515.64,1010.12z
		 M614.28,1006.04c0.933-1.366-0.349-2.246-0.722-3.6c-0.058,0.422-0.411,0.547-0.96,0.479c-0.149-0.809-0.813-1.104-1.68-1.2
		C611.708,1003.492,612.34,1005.42,614.28,1006.04z M546.36,1023.8c0.318,0,0.64,0,0.96,0c2.573-2.109-0.713-5.069-1.682-7.2
		C540.674,1017.129,545.791,1021.244,546.36,1023.8z M621.96,1034.36c-0.407,0.792-0.963,1.437-1.2,2.399
		c1.592,0.262,2.431-0.201,3.36,0.721c0.02-1.668,0.054-2.036-0.48-3.36C622.808,1033.928,622.718,1034.479,621.96,1034.36z
		 M637.32,1040.12c-0.308-0.676,0.061-3.212-0.96-2.88C637.132,1037.748,636.381,1039.779,637.32,1040.12z M497.4,1043
		c0.58,0.3,0.775,0.983,0.96,1.68c-1.604,10.36-2.188,17.383,5.52,20.881c1.032,0.468,2.058,1.098,2.88,1.439
		c2.35,0.977,4.669,1.152,6.96,1.92c1.44,0.482,2.814,1.725,3.84,1.92c2.238,0.43,4.098-0.236,6,0.48
		c1.321-5.56,5.209-8.551,9.12-11.521c-1.554,0.304-2.518,0.54-3.84,0c-3.448,0.59-7.838,1.34-12,0.72
		c-2.125-0.315-2.681-1.328-4.32-2.159c-1.265-0.642-2.575-0.816-3.6-1.681c-0.752-0.634-1.074-1.731-1.92-2.399
		c-1.309-1.034-3.791-2.692-4.08-4.32c-0.393-2.212,1.378-6.927,3.6-7.92c1.17-0.523,2.615,0.312,3.601-0.72
		C505.486,1039.467,501.055,1040.966,497.4,1043z M481.8,1054.04c1.122-0.318,2.091-0.789,2.4-1.92
		C483.146,1052.508,482.541,1053.34,481.8,1054.04z M475.08,1059.32c2.409-2.696-1.669-3.369-1.68,0
		C473.919,1059.861,474.219,1059.121,475.08,1059.32z M451.08,1059.32c-2.3-0.129-5.056-1.262-7.92-1.2
		c-6.877,0.146-12.452-0.213-18.24,0.24c0.231,0.87-1.078,0.202-0.96,0.96c2.981,2.233,7.06,0.99,11.04,1.439
		c1.77,0.2,4.506-0.011,6.48,0.48c1.546,0.384,2.673,1.59,4.079,2.16c4.125,1.672,8.705,2.814,11.761,6.239
		c0.347,0.854,0.854,1.545,1.439,2.16c1.255-3.452,2.936-5.457,4.32-8.399C459.274,1061.446,454.872,1059.532,451.08,1059.32z
		 M657,1063.4c-1.104,1.861-2.855,3.076-3.36,4.56c-0.819,2.411-0.301,5.411-2.88,6.72c0.624,1.126-1.024,1.136-0.96,2.4
		c-1.042,0.479-2.047,0.993-2.64,1.92c-0.062-0.337-0.526-0.272-0.72-0.479c-1.911,3.209-5.858,4.382-9.12,6.239
		c13.913,0.943,17.152-8.528,26.88-12.239c-1.662-1.981-4.843-2.597-5.521-5.521c-0.782-3.38,1.648-6.52,0.722-8.4
		C657.915,1059.74,658.108,1061.529,657,1063.4z M481.32,1061c0.033-0.993-0.545-1.375-0.96-1.92
		C480.421,1059.979,480.737,1060.623,481.32,1061z M435.96,1064.6c1.325-0.153,1.819,1.184,2.64,2.16
		c4.18,2.979,5.488,9.497,4.801,16.32c-0.633,6.271-4.429,9.767-9.12,11.76c-1.377,2.482-4.542,3.033-6.96,4.32
		c-3.353,1.783-5.915,4.07-8.641,6.24c-0.486,1.513-2.062,1.938-2.399,3.6c0.491,0.253,1.366-1.378,1.92,0
		c0.021-0.896,0.269-0.684,0-1.439c3.117-1.109,6.762-3.287,11.04-3.121c0.229-0.408,0.754-0.524,1.2-0.72
		c0.689-0.335,1.219,0.654,1.439,0c-0.242-0.003-0.302-0.421,0-0.479c0.643-0.159,1.5-0.102,1.92-0.48
		c2.021-0.573,4.336-1.637,6.72-1.92c8.314-0.987,15.284,0.347,24,0.721c-0.307-11.255-5.984-16.485-5.52-27.841
		c-0.704-0.344-1.126-2.223-1.68-1.92c0.497,0.608-0.324-0.506-0.96-0.24c-2.04-3.423-5.521-5.199-9.36-6.239
		c0.013-0.308,0.309-0.332,0.24-0.721c-0.734-0.174-0.706,0.414-1.44,0.24c-2.83-2.439-9.46-2.021-12.239-2.64
		C434.245,1063.115,435.776,1063.184,435.96,1064.6z M469.32,1064.6c0.514-0.525,1.21-0.869,1.199-1.92
		C469.711,1062.761,468.735,1063.921,469.32,1064.6z M647.16,1076.84c3.674-1.286,3.931-5.989,5.76-9.12
		c-0.027-0.292-0.071-0.567-0.479-0.479C649.376,1069.136,648.385,1073.105,647.16,1076.84z M569.88,1069.64
		c-2.414-0.058-6.975-0.712-9.12,1.2c-7.238,0.927-12.716,2.663-17.52,6.48c8.876,0.562,12.781,6.098,18.96,9.359
		c3.226-0.504,4.577,2.142,6.479,2.16c-0.981-1.051-1.373-1.924-1.92-3.12c-0.562-1.229-1.948-2.123-2.398-3.6
		c-0.228-0.741-0.302-2.287-0.24-2.88c0.562-5.521,7.633-9.005,12.24-10.801C573.743,1068.396,570.622,1067.088,569.88,1069.64z
		 M525.96,1069.16c-1.815,6.766,5.273,5.956,9.6,6.479c2.27,0.275,5.274,1.735,6.24-0.239c-0.89,0.282-3.237-0.234-3.359-0.721
		C534.298,1075.154,527.298,1074.127,525.96,1069.16z M502.44,1077.32c-5.311-0.61-7.675-5.445-10.801-7.44
		C494.355,1073.085,496.985,1077.654,502.44,1077.32z M568.92,1073.48c0,0.399,0,0.8,0,1.199c-0.738-0.179-0.461,0.659-1.2,0.48
		c-0.443,2.346-2.902,3.165-2.16,6c2.661,3.1,3.812,7.708,6.96,10.319c0.103-1.738,1.896-1.786,1.682-3.841
		c1.009-0.271,1.727-0.833,2.88-0.96c-2.762-3.244-6.427-9.512-2.64-14.398c0.513-0.52,2.648-1.731,1.68-2.16
		c-0.614,0.355-3.593,1.405-4.561,1.439C571.521,1072.531,570.033,1073.541,568.92,1073.48z M477.24,1073.96
		c0.377,0.022,0.832-0.032,0.72,0.479c0.879-0.32,1.787-0.612,2.16-1.439c-0.426-0.614-1.45-0.63-2.16-0.96
		C477.933,1072.893,477.072,1072.912,477.24,1073.96z M619.32,1074.68c-2.223-0.606-4.305,0.406-6.722,0.96
		c-1.284,0.294-3.031-0.125-4.318,0.24c-0.655,0.187-1.585,1.126-2.16,1.44c-0.859,0.469-3.019,0.94-3.36,1.199
		c-2.838,2.148-2.174,4.939-0.96,7.2c0.203,0.519,1.53-0.09,1.682,0.48c-0.711,0.604-0.668,0.713-0.48,1.92
		c-6.462,1.899-15.577-4.478-22.32-1.44c5.325,1.729,11.223,0.994,16.562,1.682c2.616,0.336,4.81,2.172,6.72,1.199
		c2.49,4.103,10.323,4.997,15.12,2.879c-2.264-0.535-3.455-2.145-5.76-2.64c0.819-2.181-0.978-2.942-1.2-4.319
		c-0.464-2.859,0.988-4.104,2.399-5.279c2.243-1.867,5.567-1.934,7.681-3.36c-0.001-0.241,0.194-0.285,0.24-0.479
		C621.463,1074.925,619.982,1076.526,619.32,1074.68z M484.2,1076.12c-0.025-0.615-0.136-1.146-0.48-1.44
		C483.351,1075.046,483.292,1076.326,484.2,1076.12z M488.52,1077.08c0.381-0.41,1.053-2.451-0.239-2.4
		C487.69,1075.033,487.412,1077.088,488.52,1077.08z M464.04,1077.08c0.677,0.123,1.019,0.581,1.68,0.72
		c0.559-0.321,0.371-1.389,0.721-1.92C465.489,1075.184,463.942,1075.479,464.04,1077.08z M502.92,1077.561
		c0.057,0.426,2.742,0.393,3.36,0.239C505.697,1077.247,502.858,1077.098,502.92,1077.561z M622.92,1078.52
		c-0.941,0.739-3.396-0.036-3.84,1.2c-2.2-0.8-2.554,2.218-4.32,2.642c-0.076,0.804-0.247,1.513-0.72,1.92
		c-0.334-0.301-0.104-1.357-0.72-0.721c0.599,2.157,0.776,4.852,3.6,5.039c2.863,0.192,5.043-2.1,6.96-3.358
		c3.34-0.384,6.896,0.764,9.36-0.24C629.086,1083.554,626.45,1080.59,622.92,1078.52z M513.72,1079.72
		c2.824,1.093,5.267,1.552,7.681,2.16C520.333,1079.698,515.704,1078.785,513.72,1079.72z M469.08,1081.88
		c0.64-1.439,2.968-1.192,3.6-2.64c-0.738,0.168-0.461,0.168-1.199,0c0.045,0.849-1.143,1.188-1.681,0.72
		C469.809,1080.702,468.586,1081.448,469.08,1081.88z M481.32,1080.2c-0.681-0.304-2.258-0.896-3.12-0.72
		C479.282,1079.884,480.657,1080.679,481.32,1080.2z M501.96,1079.24c-0.098,0.578,0.438,0.521,0.24,1.199
		c0.667,0.09,1.578-0.797,1.2-0.959C503.261,1079.98,502.494,1079.134,501.96,1079.24z M483.48,1082.12
		c-0.307-0.494-0.384-1.218-1.2-1.2C482.081,1081.736,484.077,1082.452,483.48,1082.12z M487.08,1085.48
		c-0.006-1.629,2.349-3.11,1.2-4.32C488.021,1082.584,486.298,1083.812,487.08,1085.48z M499.32,1083.32
		c0.915-0.292,2.155-1.517,1.92-2.16C500.523,1081.804,499.683,1082.323,499.32,1083.32z M525.24,1083.561
		c-0.264-0.944-2.293-1.379-2.88-1.199C523.289,1082.791,523.979,1083.461,525.24,1083.561z M491.64,1082.84
		c-0.098,0.578,0.438,0.521,0.24,1.2c0.733,0.173,0.875-0.245,1.44-0.24C493.688,1082.097,492.454,1082.293,491.64,1082.84z
		 M536.28,1088.36c-2.692-1.229-6.196-1.646-8.88-2.88c-0.104-0.457-0.518-0.604-0.48-1.2c-0.439,0.035-1.688-0.845-1.2-0.24
		c1.198,1.362,2.563,2.558,4.08,3.6c4.876,0.485,8.98,3.021,13.682,2.88C541.352,1089.604,539.175,1087.743,536.28,1088.36z
		 M470.76,1088.36c2.021,1.497,5.289-0.163,5.28-1.921C474.757,1083.924,470.579,1085.343,470.76,1088.36z M486.6,1086.92
		c-0.187-0.053-0.278-0.201-0.239-0.479c-2.929-3.249-0.021,1.482,0.239,2.159C486.6,1088.04,486.6,1087.48,486.6,1086.92z
		 M501.96,1092.439c1.011,4.312,8.63,0.149,5.76-4.561C504.846,1088.07,501.13,1088.898,501.96,1092.439z M526.2,1091.72
		c0.225-1.215,1.453-1.427,1.2-3.12c-0.308-0.013-0.333-0.308-0.721-0.238C527.358,1090.17,524.934,1090.854,526.2,1091.72z
		 M515.64,1090.04c0.918,0.038,1.903,0.144,1.92-0.72C516.846,1088.726,515.655,1089.192,515.64,1090.04z M490.44,1090.52
		c-0.051,0.69,0.061,1.221,0.479,1.44c0.416-0.385,0.874-0.728,0.72-1.68C490.962,1090.082,491.018,1090.618,490.44,1090.52z
		 M478.68,1093.4c0.962-0.158,1.448-0.792,1.681-1.682C479.317,1090.868,478.271,1092.801,478.68,1093.4z M518.76,1099.64
		c3.202-1.519,6.462-4.257,6.96-7.68C523.465,1094.585,520.702,1096.701,518.76,1099.64z M487.08,1095.08
		c0.191,0.832-0.357,0.923-0.24,1.68c1.414-2.719,7.088-1.044,6.96-4.319C492.463,1094.757,489.692,1094.214,487.08,1095.08z
		 M566.76,1098.2c-2.074-1.536-3.812-1.937-6.72-2.641c-1.614-2.071-5.271-3.099-7.68-2.641c6.665,2.139,10.854,5.594,18.479,6.96
		C570.5,1098.3,568.851,1098.029,566.76,1098.2z M537.48,1096.52c-0.391-3.421-6.581-1.398-6.721,1.921
		C532.682,1101.896,537.85,1099.762,537.48,1096.52z M501.72,1102.28c-2.732-1.827-4.188-4.933-6.479-7.2
		C497.129,1097.591,498.774,1101.625,501.72,1102.28z M511.32,1097.24c0.559,2.109,1.432,0.486,2.64,0.72
		c0.117-0.546,0.476-1.226,0-1.68C512.519,1096.488,512.626,1097.303,511.32,1097.24z M470.04,1097.72
		c1.633,0.163,3.947-0.202,5.04,0.24c-0.186-0.706,2.954-0.234,4.32-0.72C478.065,1096.222,471.297,1097.131,470.04,1097.72z
		 M546.6,1101.08c0.622,0.594,0.894-0.518,1.682-0.48c-0.106-0.453,0.326-1.445-0.48-1.198
		C547.401,1099.961,546.46,1099.98,546.6,1101.08z M562.92,1101.32c-5.551,0.608-11.462,2.137-12.72,6.239
		c2.936-2.449,6.964-6.012,12.479-4.319c1.003-1.399,5.213-0.865,4.802-2.88c-0.719,1.113-2.338-0.804-3.36-0.96
		C563.536,1099.855,563.688,1101.047,562.92,1101.32z M603,1100.12c-0.757,1.281-4.562-0.631-6,0.72
		c-0.586-0.134-0.512-0.929-1.44-0.72c-3.281,1.176-8.061,1.532-10.56,0c-2.656,0.244-4.436-1.199-6.96,0.24
		c2.984,1.993,8.436,0.665,12.24,2.159c2.255-1.246,5.012-0.264,7.2-0.479c1.086-0.107,2.055-0.87,3.118-0.96
		c4.468-0.375,9.359,1.89,12.96,2.4c-0.667-0.773-1.703-1.177-2.158-2.16C608.534,1102.013,605.086,1101.08,603,1100.12z
		 M481.56,1103.48c0.46-0.591,1.311-2.039,0.96-2.642C482.322,1101.689,480.908,1102.577,481.56,1103.48z M506.52,1102.28
		c2.279,2.265,6.936-0.08,8.881-1.2C512.075,1100.916,509.947,1102.017,506.52,1102.28z M458.04,1103
		c-1.248-0.15-2.291-0.993-3.6-1.2c-3.019-0.477-6.267,0.966-10.08,0.24c0.001-0.134-0.194-0.272-0.24,0
		c0.133-0.001,0.271,0.194,0,0.24c-6.66-0.468-11.919,2.618-18,4.08c-2.731-0.095-5.661,1.266-7.44,2.88
		c-1.793,0.002-1.781,0.562-2.399,1.92c-0.841-0.037-1.843,0.486-1.44,0.96c2.598-1.588,6.716-1.854,10.561-1.681
		c1.91,0.086,3.59-0.356,5.279-0.239c6.006,0.416,12.304,2.792,13.44,8.16c2.903,2.118,3.274,8.729,1.2,11.52
		c-0.684,5.034-5.249,10.253-4.561,16.8c0.116,1.104,0.957,2.312,1.2,3.602c0.639,3.382,0.665,5.562,2.16,7.68
		c0.333-6.646,3.268-11.905,4.08-17.28c2.11-3.97,4.449-7.711,6.24-12c6.433-6.13,12.497-13.897,21.84-16.318
		c-1.425-1.936-4.317-2.402-5.761-4.32c0.586-0.352-0.639-1.575-0.959-0.96c0.293,0.027,0.567,0.071,0.479,0.48
		c-1.459-1.956-3.179-2.227-4.32-4.562C463.096,1102.873,460.61,1103.311,458.04,1103z M473.4,1102.52
		c0.141,0.739,0.062,1.699,0.96,1.682c0.198-0.521,0.905-0.534,0.96-1.2C474.974,1101.965,474.271,1101.952,473.4,1102.52z
		 M521.16,1105.16c0.348-2.108-0.964-2.557-2.16-3.12C519.819,1102.98,520.379,1104.182,521.16,1105.16z M524.04,1105.16
		c0.851-0.109,1.331-0.59,1.44-1.44c-0.166-0.474-0.641-0.64-1.2-0.72C524.049,1103.572,523.488,1104.537,524.04,1105.16z
		 M565.32,1103.96c0.678-0.198,0.621,0.339,1.198,0.24c-0.054-0.454,0.271-0.529,0.24-0.96
		C566.227,1103.426,565.459,1103.379,565.32,1103.96z M596.04,1105.4c0.198,1.32,0.54,2.499,1.44,3.119
		c0.471,2.25,0.922,4.971,0.96,6.961c-2.142,4.02-5.855,6.465-9.842,8.64c9.268-0.146,14.276-13.788,7.44-20.64
		c-0.48,0-0.96,0-1.44,0C594.709,1104.491,595.735,1104.585,596.04,1105.4z M481.32,1105.4c-0.001-0.43,0.646-1.396,0-1.682
		C481.321,1104.148,480.674,1105.116,481.32,1105.4z M503.64,1106.6c0.556-0.672-0.206-3.062-1.199-2.16
		C503.567,1104.433,502.718,1106.402,503.64,1106.6z M487.08,1107.8c0.269,0.052,0.374,0.268,0.479,0.48
		c2.452-0.188,3.325-1.955,4.561-3.36C489.666,1105.105,487.523,1105.604,487.08,1107.8z M540.84,1108.52
		c0.481-0.397,1.115-0.644,1.2-1.438c-0.985,0.025-0.961-0.959-2.16-0.72C539.263,1107.211,539.855,1108.514,540.84,1108.52z
		 M504.36,1108.76c0.452-0.521,0.093-1.688-0.48-1.92C504.304,1107.73,503.611,1108.488,504.36,1108.76z M527.64,1111.88
		c-2.235-0.724-3.058-2.862-4.56-4.319C524.072,1109.37,524.941,1112.577,527.64,1111.88z M575.4,1111.88
		c-0.938-1.626-2.256-4.143-4.32-3.84C572.718,1109.122,573.27,1111.291,575.4,1111.88z M536.28,1112.84
		c-0.945-0.496-2.802-0.79-3.12,0.48c5.627-0.093,9.053-0.82,14.16-2.4c-0.124-1.645,1.395-1.645,1.68-2.88
		c-0.359,0.041-0.886-0.086-0.96,0.24C546.201,1110.079,540.222,1112.251,536.28,1112.84z M513.72,1111.16
		c0.323-2.741-1.93-2.729-4.08-1.44c-0.613,1.58-0.134,1.86,0.48,3.12c0.88,0,1.76,0,2.64,0
		C513.153,1112.05,513.631,1111.916,513.72,1111.16z M585.96,1113.08c1.688-0.792,3.082-1.879,3.12-4.32
		c-0.307-0.013-0.332-0.308-0.72-0.24C587.513,1109.824,584.509,1111.02,585.96,1113.08z M607.8,1115.48
		c2.236,0.154,2.282-1.88,2.88-3.36c-1.086,0.366-0.519-0.921-0.96-1.2c-1.514-0.246-2.045-1.475-3.358-1.92
		C605.07,1111.196,606.663,1113.741,607.8,1115.48z M504.36,1111.16c-0.041-0.679,0.207-1.646-0.48-1.68
		C504.055,1110.025,503.448,1111.354,504.36,1111.16z M480.6,1111.64c0.444-0.229,0.405-1.985-0.239-1.92
		C480.508,1110.316,479.485,1111.592,480.6,1111.64z M495,1112.84c0.637,0.255,1.365,0.18,1.44-0.72
		c-0.315-0.245-0.886-0.235-1.2-0.48C495.039,1111.919,494.923,1112.283,495,1112.84z M505.08,1115.24
		c-0.294-1.387-0.454-2.907-1.44-3.602C503.719,1113.241,504.162,1114.479,505.08,1115.24z M478.68,1112.6
		c-11.07,4.449-19.938,11.103-24.96,21.602c-1.784,0.74-1.307,2.162-1.92,3.84c-0.112,0.311-1.066,0.123-0.96,0.72
		c0.178,0.986,0.316-0.108-0.479,0.721c-0.987,1.029-0.74,2.481-1.2,4.079c-0.303,1.053-1.488,1.911-0.96,2.642
		c-0.001,0.239,0.193,0.284,0.239,0.479c2.842-3.879,5.742-7.698,9.841-10.319c3.105-0.568,7.444-2.725,12-2.88
		c3.736-0.128,10.728,0.478,11.76,3.841c0.268,0.871-0.068,2.188,0,3.358c0.246,4.247,1.251,10.107,1.44,12.96
		c1.23,0.886,0.771,5,1.199,7.2c0.059,0.297,0.64,0.429,0.721,0.72c1.29,4.652,3.362,9.812,7.68,11.28
		c0.143-0.845-0.891-1.835,0.479-2.16c-1.818-6.265-3.297-12.187-3.119-18.239c0.152-5.217,2.022-9.613,2.88-14.399
		c2.583-4.857,5.565-9.314,10.08-12.24C495.507,1121.206,486.5,1116.469,478.68,1112.6z M578.04,1115.96
		c0.538,2.781,2.615,4.46,2.4,6.72c0.945,0.262,2.247,1.424,3.358,0.721c-0.56-0.801-1.956-0.765-2.398-1.681
		c-0.79-2.569-2.506-4.216-3.602-6.479c0.197-1.089-0.525-2.5-1.2-1.921C576.6,1114.17,576.733,1115.759,578.04,1115.96z
		 M566.04,1117.88c1.5-0.592,2.949-1.475,1.92-3.36C566.011,1112.793,563.825,1117.062,566.04,1117.88z M521.16,1124.36
		c-1.377-4.255,2.451-5.979,3.359-8.4C522.243,1117.883,518.742,1121.92,521.16,1124.36z M550.2,1131.561
		c0.763-0.196,1.22-0.7,1.68-1.199c-0.542-1.701-0.681-3.213,0.48-4.562c-0.914-3.407-1.835-8.084-3.842-9.6
		C551.336,1120.319,552.086,1126.038,550.2,1131.561z M590.28,1116.92c0.819,2.516,0.979,0.696,2.398,0.96
		c0.068-0.729-0.769-0.933-0.238-1.439C591.485,1116.365,591.234,1116.994,590.28,1116.92z M586.2,1120.52
		c1.492,0.054,1.745-1.135,1.92-2.398C586.771,1117.486,586.179,1119.053,586.2,1120.52z M535.08,1120.28
		c1.571,0.211,1.994-0.728,1.92-2.16C535.246,1117.727,534.854,1118.692,535.08,1120.28z M562.68,1120.04
		c0.643-0.159,1.5-0.101,1.92-0.479c-0.632-0.168-0.507-1.094-1.198-1.199C563.506,1119.266,562.927,1119.486,562.68,1120.04z
		 M508.44,1121.48c0.917-0.284,1.59-0.812,1.439-2.16C508.532,1119.102,507.893,1120.569,508.44,1121.48z M599.16,1124.36
		c-0.176-1.616-0.141-2.021,0.479-3.12c-0.479-0.241-0.378-1.062-1.198-0.96C598.35,1121.907,598.098,1123.422,599.16,1124.36z
		 M603.48,1121.96c0.515,0.604,0.596,1.644,1.438,1.92c0.271-0.688,0.662-1.259,1.2-1.68
		C606.256,1120.452,603.614,1120.35,603.48,1121.96z M526.68,1121.96c0.751,0.111,1.071-0.209,0.96-0.96c-0.319,0-0.64,0-0.96,0
		C526.68,1121.32,526.68,1121.64,526.68,1121.96z M500.52,1122.439c0.574,0.387,1.131,0.789,2.16,0.721
		c-0.313-0.816,0.535-1.676,0-1.92C502.534,1122.215,501.247,1122.047,500.52,1122.439z M571.56,1123.64
		c0.104,0.904,0.999,1.018,0.48,1.921c1.755,0.104,0.361-1.995,1.68-1.921c-0.195-0.923-0.103-2.137-1.2-2.159
		C572.21,1122.21,572.639,1123.679,571.56,1123.64z M542.28,1125.8c1.407,4.949,6.964-3.585,0.72-3.359
		C542.793,1123.829,541.869,1124.355,542.28,1125.8z M638.28,1140.439c-0.968-0.383-2.332-0.846-3.602-1.439
		c-2.512-1.178-6.099-4.096-7.68-5.52c-3.127-2.818-7.142-3.631-9.12-6.962c-2.327,0.168-2.618-1.7-4.56-1.92
		c-0.015-0.146-0.036-0.284-0.24-0.239c-3.31,2.691-8.036,3.964-10.562,7.439c-6.727,0.618-13.564,1.21-17.76,3.12
		c2.254,8.108,2.844,17.039,6.48,24c1.197-3.372,1.896-7.808,4.318-10.561c1.123-1.274,4.538-3.976,6.48-4.801
		c3.614-1.534,8.375,0.387,12.96-0.479c1.803,1.937,5.014,2.918,7.92,2.88c7.159-0.094,15.512-0.844,21.84-4.32
		C642.802,1140.37,640.231,1141.211,638.28,1140.439z M562.92,1127.96c0.743-0.791,2.616-1.577,1.44-2.88
		C562.724,1124.845,561.339,1127.181,562.92,1127.96z M521.88,1127.96c-0.351-0.646,0.092-1.563-0.72-2.16
		C520.96,1125.986,521.556,1128.333,521.88,1127.96z M539.88,1162.76c-0.942-2.543-1.23-5.188-1.92-7.92
		c-0.818-3.242-2.533-6.514-2.88-9.359c-0.19-1.559-0.138-7.526,0.72-6.961c-1.198-0.744,0.321-2.269-0.24-3.358
		c-3.573,0.704-7.274-0.136-11.04-0.96c-0.32,0.238-0.471,0.647-0.96,0.72c-1.091-0.35-1.561-1.318-1.92-2.4
		c-0.058,0.423-0.413,0.548-0.96,0.48c-6.252-1.873-10.432-4.488-15.84-6.96c-0.714,0.726-1.68,1.2-2.64,1.68
		c0.51,0.077-0.343,0.743-0.48,0.96c-5.151,2.849-6.357,9.644-9.12,14.88c-0.058,2.471,0.204,5.049-0.479,6.24
		c-0.988,1.725-0.126,8.643,0.24,10.32c0.416,1.906-0.125,4.062,1.439,4.319c0.173-3.291,2.709-7.052,2.88-10.319
		c1.042,0.034,0.942-1.072,1.44-0.96c0.014-1.571,2.744-4.459,4.56-5.761c2.173-1.558,7.129-2.968,9.84-3.359
		c3.099-0.448,5.098,1.206,6.721,3.359c1.695,2.25,3.186,4.587,5.279,6.239c0.321,1.439,1.518,2.004,1.2,4.08
		c3.741,5.939,7.837,11.522,14.16,14.88c1.82-0.594,4.688,0.994,6.96,0.96C543.681,1170.886,541.547,1167.258,539.88,1162.76z
		 M594.12,1127.72c-0.129,0.851,0.203,1.236,0.72,1.44c0.521-0.296,2.049-1.817,0.72-2.4
		C595.153,1127.153,594.964,1127.764,594.12,1127.72z M529.56,1128.2c0.105,0.825-0.095,1.345-0.239,1.92
		c1.382,1.512,3.533-0.22,3.359-2.4C531.314,1126.716,530.787,1129.02,529.56,1128.2z M577.32,1134.2
		c0.171-0.63,1.37-0.23,1.438-0.96c-0.494-0.066-0.226-0.896-0.72-0.96C578.044,1133.018,576.547,1133.488,577.32,1134.2z
		 M575.16,1135.64c-0.001-0.239,0.193-0.284,0.24-0.479c-1.893,1.52-4.35-0.447-6.722-0.721c-0.341-0.039-0.857,0.315-1.198,0.239
		c-0.17-0.037-0.235-0.657-0.48-0.72c-6.404-1.6-13.699-1.663-19.92-0.72c0.094-0.343,0.288-0.405,0-0.721
		c-2.037,0.239-3.568,0.273-5.28,0.479c0.413-0.013,0.615,0.186,0.72,0.48c-0.812,0.058-2.911-0.234-1.68,0.479
		c-3.602-0.577-3.801,2.521-4.8,5.76c0.616,0.024,0.386,0.896,0.72,1.2c-0.476,2.088-0.423,3.774,0,5.76
		c1.635,7.678,4.805,17.73,8.4,23.04c-0.636-2.577,0.346-4.262-0.96-6.238c1.54-2.089,2.372-4.984,4.318-6.722
		c0.979-0.871,2.712-1.138,4.08-2.16c0.501-0.373,0.714-1.051,1.2-1.438c2.593-2.069,5.618-2.815,8.88-3.36
		c2.779-2.674,7.432-2.019,11.521-1.199c1.184,1.616,2.748,2.853,4.318,4.08c0.847,2.969,3.926,3.901,5.762,6
		c1.649,1.888,2.149,4.684,4.08,6.479c2.363,0.915,5.275,1.283,7.198,2.64c0.072-1.017,1.011,0.155,1.2-0.479
		c-4.874-3.978-7.914-9.479-9.84-15.84c-0.834-6.882-1.927-10.121-3.36-16.801C580.502,1135.241,576.758,1134.873,575.16,1135.64z"
		/>
	<path fill="#FFFFFF" d="M550.68,992.36c-0.642,0.797,1.031,2.153,1.44,3.359c4.332,0.875,8.928,0.087,12-2.399
		c0.224,0.176,0.363,0.437,0.479,0.72c4.527-1.174,10.384,0.169,12.24-3.36c0.168-0.888-0.841-0.599-1.2-0.96
		c-0.195,0.763-0.699,1.22-1.198,1.681c-4.579,0.369-7.246,1.438-10.802,0.479c-2.43,2.113-6.888,3.441-10.8,2.64
		c-0.299-1.132-1.427-1.835-2.398-2.88c2.813-2.483,6.127-2.182,10.318-1.92c3.539,0.222,7.347-0.754,11.04-0.72
		c3.453,0.032,7.016-0.375,10.08,0c10.477,1.281,18.195,7.933,27.602,11.04c-0.252,3.52,4.961,10.457,6.238,4.32
		c6.047,2.192,8,8.48,12.96,11.76c0.593,1.808,1.812,2.99,3.12,4.08c1.143,4.218,3.196,7.522,4.08,12
		c-4.787-4.896-6.722-13.916-15.12-14.4c-3.352,5.192,3.111,8.183,1.44,13.92c-0.607,0.993-2.427,0.774-2.641,2.16
		c-0.347-0.054-0.084-0.716-0.479-0.72c-0.945,1.455-2.788,2.012-4.561,2.64c0.194,0.83-0.447,1.015,0,1.44
		c2.896-0.225,3.994-2.246,6.239-3.12c-0.562,0.796-0.746,1.974-1.199,2.88c1.487,1.713,1.855,4.544,3.359,6.24
		c0.655,0.175,0.483-0.478,0.96-0.48c-0.755-1.406-2.229-3.368-2.398-4.56c0.221-1.202,1.336,0.267,2.158,0
		c-0.081,1.682,1.56,1.642,1.2,3.6c0.767,0.205,0.911-0.209,1.2-0.479c-2.136-2.206,0.462-7.664-3.12-8.4
		c1.694-4.033,0.326-8.566-1.92-10.56c0.397-0.804,0.083-2.317,0.48-3.12c4.303,1.615,7.853,3.985,9.119,8.64
		c1.736,1.143,2.066,3.693,4.079,4.56c-0.354,0.72,0.597,1.454,0.722,2.16c0.219,1.238-0.256,3.02,0,4.561
		c0.327,1.97,1.381,3.555,1.438,5.04c0.037,0.929-0.42,1.671-0.239,2.64c0.322,1.732,1.353,2.936,2.881,3.601
		c1.166,2.112,2.776,3.782,4.079,5.76c1.377,9.117-4.387,11.608-11.04,12.72c-6.498,1.085-13.414,4.075-19.199,4.561
		c0.693-0.187,0.835-0.926,0.96-1.681c-1.008,0.035-1.889,1.353-0.96,1.92c-5.354,0.914-9.801,0.616-15.602-0.479
		c-1.011-1.781,0.561-3.713,0.722-5.76c1.591,0.034,3.251-1.409,5.278-1.681c0.021,4.004,4.24,4.582,7.2,1.92
		c-0.235-3.903,4.587-7.109,6-2.64c-0.768,1.915-2.746,4.945-1.438,6.72c0.418-0.469,2.092-1.945,0.72-2.64
		c0.312-0.888,0.749-1.65,1.438-2.16c0.598-0.036,0.996,0.124,1.2,0.479c0.897-0.162-0.178-0.797,0.721-0.959
		c1.732-0.134,1.195,2.003,2.159,2.64c1.782-1.208-0.757-3.721-1.92-4.32c-0.641-0.001-0.521,0.759-1.199,0.72
		c-0.144-3.137-2.559-4.002-5.521-4.319c-1.966,1.894-2.801,2.829-3.36,5.52c-1.331,0.109-1.979,0.899-2.88,1.44
		c-1.967-0.354-1.458-3.182-3.358-3.6c0.352-0.528,1.852,0.092,1.438-1.2c-0.487-0.756-1.35,0.89-0.72-0.48
		c-0.432-0.493-0.992,0.915-0.96,1.681c-3.405,0.261-7.985,2.942-6.24,7.68c-0.41-0.011-0.622,0.178-0.72,0.479
		c-3.505-0.927-6.929-0.629-9.84-2.159c1.714-4.206,5.524-6.314,7.68-10.08c3.165-1.362,7.281-1.429,9.12-4.08
		c0.668-0.963-0.079-0.363,0.72-0.96c0.751-0.562,0.573-1.5,1.2-2.4c0.636-0.914,1.995-1.961,2.16-3.84
		c0.16-1.823-0.978-2.9-0.48-4.32c0.162-0.462,1.538-2.125,1.92-2.399c1.364-0.98,2.927-0.213,4.08-1.92
		c-0.218-2.218,1.208-2.792,1.44-4.561c-1.775-0.614-2.813,2.896-2.16,4.08c-1.316,0.363-2.166,1.194-3.36,1.681
		c0.068-0.627-0.088-1.032-0.72-0.961c-0.714,2.406-2.565,3.675-2.64,6.721c0.408,0.088,0.452-0.188,0.479-0.48
		c0.79,1.76-1.058,4.932-1.68,6.96c-0.388,0.067-0.413-0.227-0.72-0.239c-0.861,3.139-4.399,3.601-6.722,5.279
		c-5.399-0.36-5.012,5.068-8.64,6.48c-0.777,0.981-1.214,2.306-2.4,2.88c-0.075,0.562-0.379,0.901-0.238,1.68
		c-1.346-0.256-2.131-1.068-3.842-0.96c-0.21-0.424-0.761-0.701-0.238-1.199c-3.232,0.062-5.435-1.334-8.4-1.2
		c0.123-1.002-0.134-1.626-0.479-2.16c-7.869-1.971-13.415-2.105-21.601-0.96c-4.184-1.336-6.859-4.18-10.56-6
		c-1.825,1.063-4.591-0.625-6.96,0c-4.006-3.034-8.753-5.327-11.761-9.36c0.826-2.03-1.151-2.323-0.479-4.319c0.32,0,0.64,0,0.96,0
		c-0.089-1.138,0.834-2.516,0.72-2.881c0.493-0.241,2.433,0.12,3.12,0.48c0.218-0.627-1.3-1.573-2.16-1.92
		c0.69-0.326,1.005-1.057,2.641-0.96c0.68,0.92,0.2,2.999,1.68,3.12c0.335-1.775-0.936-3.294-1.92-4.08
		c-0.302,0.06-0.242,0.478,0,0.479c-3.459,0.132-2.898,2.971-5.28,4.32c0.058-4.309-4.317-5.029-3.84-8.4
		c2.229-0.411,1.434-3.846,3.84-4.079c-0.496-2.34,1.831-2.853,2.16-5.041c2.854,0.027,3.776,1.984,5.28,3.36
		c0.979-0.7,2.146-1.212,2.16-2.88c1.848-0.402,0.991-4.066,3.119-4.8c-0.649-2.318,1.893-2.893,0.96-4.561
		c3.429-1.904,8.496-0.386,7.2,4.08c2.261,1.582,1.006,4.968,2.16,6.96c1.611,2.78,3.944,5.282,5.76,7.92
		c-0.449-4.481-6.039-6.735-5.278-12.479c1.885,6.152,7.729-1.514,3.6-3.6c-0.088-0.408,0.188-0.453,0.479-0.48
		c-1.158-0.202-1.347-1.374-1.681-2.399c-1.311-0.105-2.729-0.47-3.84,0.479c-0.218-1.844-5.648-3.326-7.92-2.16
		c-2.612,1.341-3.677,10.241-6.48,12.24c-1.082-0.147-0.593-1.333-1.92-0.72c0.174-0.733-0.245-0.875-0.239-1.44
		c-0.764-0.037-1.057-0.544-1.92-0.479c0.004-1.195,0.606-1.793,1.199-2.4c1.41-6.831,5.407-11.074,9.36-15.359
		c0.295-1.065,0.72-2,1.92-2.16c2.971-5.351,6.704-9.938,12.48-12.48C549.511,992.684,550.273,992.325,550.68,992.36z
		 M566.52,1010.36c0.364,1.541,3.947,5.095,6.24,6c0.869,0.343,1.883,0.139,2.642,0.479c3.634,1.639,4.63,5.631,6.479,9.12
		c1.79,1.199,4.443,3.815,6.72,4.08c3.314,0.385,9.248-2.599,9.842-5.28c-1.14-3.629,2.031-6.52,2.158-8.16
		c-0.373-2.267-0.684-4.597-1.438-6.479c-2.301-2.669-4.657-3.695-7.92-5.521c-1.607-0.898-3.002-2.453-4.32-2.88
		c-2.254-0.729-5.82-0.514-7.2-0.24c-2.676,0.532-3.559,2.822-6.238,4.08c-0.521,0.245-2.646-0.341-3.36,0.96
		c0.608,0.633,0.972-0.045,1.2-0.479c0.333,1.738,1.607-0.062,2.398,0.96c0.954-0.807,2.564-0.956,2.88-2.4
		c1.707-0.533,2.718-1.764,4.562-2.159c1.274,0.667,4.543,0.728,5.52,0.239c2.722,3.81,9.947,4.487,11.762,9.12
		c0.392,1.003,1.011,3.813,0.479,5.76c-0.493,1.809-2.689,3.169-1.92,6.721c-1.074,3.166-4.838,3.642-8.16,4.56
		c-2.229-1.86-4.831-1.798-6.24-4.08c-1.352-2.189-1.903-4.794-3.6-6.72c-1.045-1.187-2.528-1.515-3.6-2.64
		c-1.097,0.121-1.36-0.417-2.16,0c-0.628-1.532-3.08-1.24-3.12-3.36c-2.419,0.02-2.479-2.322-2.88-4.32
		c0.83-0.529,2.394-0.325,3.12-0.96c-0.874-1.119-2.066-0.309-3.36,0C566.591,1007.952,566.268,1009.291,566.52,1010.36z
		 M555.48,1004.6c-2.209,1.168-2.414,4.828-1.682,7.44c2.04,0.042,4.2,0.19,5.76-0.48c-1.216-1.632-0.47-3.87-0.96-6
		C557.167,1005.485,555.893,1005.037,555.48,1004.6z M615.48,1006.76c-0.202,0.998-0.82,1.581-0.722,2.88
		c1.615,2.785,3.466,5.334,6,7.2c0.511-0.37,0.895-0.866,1.44-1.2c-0.362-4.277-3.025-6.255-5.28-8.64
		c-0.648,3.294,4.483,4.649,3.84,8.16c-0.938-0.98-2.144-1.696-2.16-3.601C615.232,1011.409,617.707,1007.248,615.48,1006.76z
		 M569.64,1024.76c0.181,1.74-1.346,2.885-0.72,5.04c2.439,1.562,4.309,3.692,5.76,6.24c-0.466,0.494-0.455,1.464-1.68,1.2
		c-0.49-0.312-0.437-1.164-1.439-0.96c-0.849,0.991-1.799,1.882-1.921,3.6c2.812,2.634,4.14,8.015,7.682,9.12
		c-0.304-0.816-1.054-1.104-1.682-1.92c-0.979-1.276-1.555-3.187-2.398-4.561c-0.736-1.197-1.728-1.353-1.92-2.64
		c0.018,0.12,0.11-1.99,0.96-2.16c0.566,0.472,1.163,0.917,2.398,0.72c0.562-0.317,0.11-1.649,0.961-1.68
		c2.136,3.817-0.936,9.136,2.88,12c-0.307,0.334-1.176,0.104-1.199,0.72c0.998,0.281,0.997,1.563,2.16,1.681
		c0.519-3.935-3.812-6.344-1.44-10.32c-1.057-1.628-0.624-3.416-1.68-4.8c0.432-3.367,0.378-7.083,0.96-9.84c0.319,0,0.64,0,0.96,0
		c-0.052-2.828-2.194-3.566-3.12-5.521c-1.06-0.301-1.966-0.754-2.4-1.68c-2.353-0.345-3.137-2.398-4.56-3.36
		c-2.42-1.636-5.77-1.73-6.48-4.56c0.188-0.055,0.475-0.007,0.48-0.24c-1.707,0.344-0.634-1.002-1.44-1.2
		c-0.081,1.188-0.63-0.2-1.199,0c0.181,1.101,0.197,2.362,0.479,3.36c0.596-0.035,1.165-0.045,1.2,0.479
		c-1.415,1.866,1.658,2.646,2.16,4.561c0.742,0.644,0.932-0.649,1.438,0c-0.021,0.378-0.611,0.188-0.479,0.72
		c0.33,0.645,1.195,0.581,1.438,0.72C565.988,1021.784,569.363,1022.074,569.64,1024.76z M552.84,1013
		c-0.846,1.48-2.271,3.575-0.72,5.28c1.443-0.254,3.05-0.777,4.32-0.96c-0.177-1.424-1.285-1.915-1.921-2.88
		c-0.272,1.293,0.079,1.006,0.239,2.159c-0.954-0.074-1.205,0.555-2.16,0.48c0.111-1.009,0.006-2.235,0.722-2.641
		c1.111-0.205,0.251,0.379,0.72,0.48c0.051-0.269,0.267-0.374,0.479-0.48C554.365,1013.555,553.699,1013.181,552.84,1013z
		 M535.56,1020.68c1.026-0.094,1.354-0.887,2.4-0.96c-0.082,1.211,0.875,2.363,1.68,1.92c-0.007-1.041-1.316-2.032-0.479-3.12
		c1.229-0.027,0.943,1.455,1.92,1.681C542.369,1016.343,536.09,1017.844,535.56,1020.68z M557.64,1020.44
		c-0.136,2.78,5.382,2.969,5.762,0c-0.367-0.497-1.204-1.316-1.92-0.721c-0.063,0.784,0.931,0.509,0.96,1.2
		c-1.473,0.685-3.063,1.677-3.602-0.72c0.642,0,1.28,0,1.92,0C560.142,1017.599,557.707,1019.077,557.64,1020.44z M532.44,1025.24
		c1.348,0.091,1.5-1.553,1.439-2.16c0.767,0.206,0.742-0.378,1.2-0.48c0.286,1.593,1.939,2.97,3.36,2.641
		c-0.434-1.809-2.596-1.885-3.12-3.601C532.771,1021.785,533.407,1023.678,532.44,1025.24z M549,1028.6
		c2.307,0.094,2.404,2.396,4.8,2.4c0.062-1.061,0.801-1.439,0.96-2.4c-1.675-1.309-0.543-4.25-3.12-5.279
		C551.905,1026.226,548.082,1025.042,549,1028.6z M533.4,1027.88c-0.745,0.025-0.686-0.755-1.681-0.479
		c-0.398,1.869-3.042,2.68-2.159,5.04c0.533-0.187,1.301-0.14,1.439-0.721c-0.321-0.166,0.119-0.64-0.24-1.199
		c1.25,0.209,0.741-1.339,1.44-1.681c0.978,0.294,1.84,1.068,2.64,0.24c0.772,0.268,0.097,1.984,0.96,2.16
		C536.889,1029.84,535.291,1025.673,533.4,1027.88z M560.28,1032.68c0.226,0.051,1.062-0.392,1.438-0.239
		c1.586,0.638,4.729,4.441,4.801-0.96c-1.019-1.405-2.776-2.804-4.319-4.32c-1.599-0.013-1.948,0.274-3.12,0.48
		c0.026,1.965-3.149,1.674-1.92,4.079C558.341,1031.399,558.979,1032.389,560.28,1032.68z M528.12,1032.92
		c-1.099,1.17-3.298,2.424-2.88,4.32c0.794-0.051,0.449-1.7,1.2-0.48c0.434-0.926,1.045-1.675,1.68-2.399
		c0.808,0.392,2.018,0.382,1.68,1.92c1.257-0.218,0.903,1.177,2.16,0.96C532.283,1035.127,529.938,1033.684,528.12,1032.92z
		 M554.28,1035.561c0.755,0.274,0.583-0.377,0.96-0.48c0.054,0.186,0.006,0.473,0.24,0.48c0.73-1.448-1.511-1.796-2.4-2.4
		C552.988,1034.451,554.32,1034.32,554.28,1035.561z M544.44,1043.96c1.766,3.412,5.238,5.927,10.56,5.04
		c0.83-1.091,2.372,0.033,3.36,0.24c-0.448,0.427,0.193,0.609,0,1.439c-1.053,1.473-2.018,1.548-3.842,2.16
		c-0.066,2.375-1.948,3.768-4.078,4.08c-1.166-2.59-1.046-5.145-3.36-6.72c-1.756-0.036-4.496,3.28-1.92,3.84
		c-0.049-1.568,0.409-2.631,1.92-2.64c0.219,0.82,0.593,1.486,0.72,2.399c-2.12-0.58-2.974,1.914-4.318,2.88
		c-2.224-0.683-4.904-2.049-2.642-4.08c1.108,0.272,1.11,2.314,2.4,1.681c0.506-1.521-1.197-2.763-2.642-3.12
		c-1.213,0.787-1.68,2.318-2.64,3.359c-2.204-0.194-4.535-0.016-7.2-0.239c1.897,1.716,5.56,1.774,7.681,1.438
		c4.184,2.946,9.132,3.527,14.64,1.92c2.143-1.446,1.562-4.306,5.04-4.56c0.23-1.359,2.874-2.412,1.438-4.8
		c-2.685-1.726-6.126-0.451-9.84-0.721c-1.984-0.733-2.605-2.833-4.08-4.08c2.19-1.729,2.031-5.809,2.642-9.119
		c-0.309-0.014-0.333-0.309-0.722-0.24C546.872,1037.371,546.307,1040.911,544.44,1043.96z M552.6,1036.52
		c0.457-0.449,0.604-0.025,1.2,0c0.054-0.854-0.161-1.438-0.72-1.68c-2.981,1.918-0.809,6.331,2.4,5.76
		c1.446-1.271,1.828-3.626-0.24-4.56c0.395,1.3,0.807,2.116,0.24,2.88C554.727,1039.7,552.387,1038.768,552.6,1036.52z
		 M560.52,1036.04c-0.139,0.779,0.164,1.116,0.24,1.68c-6.474,4.178,5.103,9.75,5.521,2.16c-1.413-0.507-1.474-2.368-2.16-3.6
		C563.099,1036.258,561.163,1035.983,560.52,1036.04z M589.08,1041.561c-0.054-0.454,0.271-0.53,0.24-0.961
		c-1.571,0.109-2.252,1.108-3.602,1.44c-1.906,5.04,2.456,7.44,1.44,12.479c1.39,1.329,1.193,3.673,3.358,3.36
		c2.392-0.344,1.94-4.592,3.12-6.72c1.143,0.555,1.009,1.986,0.48,3.12c1.283,0.446,3.227-0.192,4.08-1.2
		c0.101-0.12,0.718-1.843,0.72-1.92c0.043-1.893-1.793-3.111-2.16-5.04c0.834-2.085,3.27-1.669,2.88-4.561
		C597.118,1039.616,590.959,1039.259,589.08,1041.561z M522.84,1044.2c0.201,1.182,1.514-0.09,2.16,0
		c0.61,0.589,0.857,1.542,0.72,2.88c2.345-0.184,1.494,2.826,3.36,3.12c0.454-0.587,0.642-1.438,1.2-1.92
		c-0.598-0.037-0.743,0.377-1.2,0.479c-0.373-1.307-1.453-1.907-2.4-2.64c0.17-1.931-0.9-2.619-2.16-3.12
		C523.278,1043.482,523.695,1044.158,522.84,1044.2z M522.6,1048.28c0.904,0.184,1.147-0.293,1.92-0.24
		c0.197-0.917-1.156-0.283-0.96-1.2c0.311-0.649,1.067-0.853,0.96-1.92C522.964,1045.124,522.582,1046.502,522.6,1048.28z
		 M549.96,1052.84c1.759-0.001,1.414-2.105,3.36-1.92c0.398,0.4-0.152,1.752,0.72,1.68
		C556.033,1048.972,549.491,1049.214,549.96,1052.84z M532.92,1051.16c0,0.56,0,1.12,0,1.68c1.188-1.389,3.734-1.019,5.04,0
		C537.382,1050.621,535.163,1050.156,532.92,1051.16z M629.4,1036.52c-0.804-1.223-3.521-0.641-3.36,1.2
		c1.293,0.333,1.006-0.914,2.16-0.72c1.319,0.76,1.006,3.154,2.398,3.84c0.694-1.826-1.041-4.499,0.48-6.72
		c1.823,0.977,1.802,3.798,2.88,5.52c0.902-2.761-1.1-4.817-2.4-6.72C628.953,1032.233,629.953,1035.153,629.4,1036.52z
		 M616.2,1041.08c0.759,0.023,1.537-1.167,1.68,0.24c-0.592-0.032-1.156-0.036-1.438,0.239c0.001,2-1.301,5.786,0.238,7.681
		c1.852-1.411-1.554-7.504,2.642-7.44c0.2,0.52,0.621,0.819,0.479,1.681c-0.557-0.077-0.921,0.039-1.2,0.239
		c0.112,1.482-0.574,2.442,0.722,2.88c0.444-0.278-0.343-1.488,0.479-1.68c2.419,0.356,0.303,3.243,2.16,3.6
		c1.282-2.023-0.767-4.168-1.92-5.279c0.454-0.055,0.529,0.271,0.96,0.24c-0.275-2.445-2.151-3.288-4.08-4.08
		C616.921,1040.201,616.14,1040.219,616.2,1041.08z M631.08,1043.24c0.288,1.213-0.794,4.378,0.479,6.24
		c0.454,0.054,0.53-0.271,0.961-0.24c-0.003-1.854-1.39-4.438,0-5.521c0.959,0.809,0.82,1.367,2.159,1.92
		C634.492,1043.878,632.464,1042.321,631.08,1043.24z M630.36,1048.76c0.144-1.158-1.29-1.428-2.16-0.479
		c0.543,1.118-0.362,0.997-0.48,1.199c-0.891,1.524,0.057,5.139,1.92,4.32C628.116,1052.15,628.295,1048.327,630.36,1048.76z
		 M609.48,1048.04c-1.812,2.047-0.281,4.677,1.198,6c0.112-1.589-1.933-3.187-0.479-4.56c0.989,0.058,0.943,2.403,1.92,1.68
		C611.667,1049.693,611.556,1047.885,609.48,1048.04z M617.4,1051.16c-0.479-0.562-0.509-1.572-1.682-1.44
		c-1.173,0.716-1.557,3.121-0.238,3.841c0.903-0.229-0.205-2.705,0.479-2.881C616.412,1050.73,617.207,1051.642,617.4,1051.16z
		 M619.56,1052.6c-0.674,1.736-0.309,4.502,1.682,4.801c-0.283-1.791-1.037-2.059-1.2-3.601c1.09,0.11,0.981,1.418,2.16,1.44
		C621.812,1053.869,621.214,1052.706,619.56,1052.6z M606.36,1056.2c0.673-0.127,0.467-1.134,1.198-1.2
		c1.263,0.085,0.875,2.875,2.16,2.16C611.529,1052.999,604.605,1052.414,606.36,1056.2z M631.8,1057.16
		c0.699,1.943,2.757-1.071,1.44-1.68C633.067,1056.348,631.846,1056.166,631.8,1057.16z M619.8,1061
		c-1.026,0.1-1.628,1.882-1.438,2.4c-0.073-0.98,0.501-0.129,0.96-0.24c0.268-0.826,0.616-1.835,1.68-1.2
		c0.068-1.513-2.084-2.069-1.2-3.6c0.733,0.307,1.199,0.881,2.16,0.96c-0.854-0.905-1.745-1.775-3.12-2.16
		C618.202,1058.792,619.782,1059.332,619.8,1061z M608.04,1061.24c0.002-1.132-0.964-0.176-1.2-0.721
		c0.585-0.679-0.391-1.839-1.2-1.92c-1.021,0.657-1.497,1.863-1.438,3.601c1.278-0.081,0.912-1.809,1.92-2.16
		C606.294,1060.857,607.468,1061.578,608.04,1061.24z M625.56,1067.48c1.758,0.293,3.276-2.696,3.12-4.32
		c-0.224-2.332-2.617-3.188-4.318-3.36C623.817,1062.232,623.173,1067.081,625.56,1067.48z"/>
	<path fill="#FFFFFF" d="M518.52,1012.52c-0.058,1.307,2.19,2.038,2.641,3.601c1.104-0.381-0.262-1.742,0.72-2.16
		c-2.333-1.141-2.793-3.15-4.32-4.08c5.238-5.481,13.89-7.551,20.881-11.28c-0.221,3.571-3.862,4.896-4.32,7.44
		c-1.083-0.854-0.834,0.594-1.44,1.2c-0.37,0.37-1.144,0.409-1.199,0.479c-0.108,0.135,0.427,0.301,0.479,0.24
		c-0.807,0.932-2.016,1.385-2.64,2.4c-0.359,0.585-0.25,1.479-0.721,2.159c-0.206,0.299-0.707,0.003-0.96,0.24
		c-0.69,0.646-1.485,2.547-1.92,3.601c-0.809,1.964-1.057,4.421-2.16,6.239c-0.314-2.083,0.16-4.643-1.92-5.52
		c-0.604,1.568,0.662,3.335,0.48,5.28c-1.826,1.935-5.272,2.248-7.92,3.359c-2.1,1.791-2.437,6.774-0.72,9.12
		c3.089,2.164,6.42,5.188,6,10.08c-4.157-3.223-10.35-7.378-17.04-5.76c-3.056,0.737-5.414,2.674-8.4,3.359
		c-2.141-16.31,18.05-14.053,19.68-27.12c-0.314-1.685-1.183-2.816-1.2-4.8c1.334-0.359,2.296,0.389,3.12-0.479
		C516.621,1010.744,517.542,1012.692,518.52,1012.52z"/>
	<path fill="#FFFFFF" d="M566.04,1015.64c2.359,2.646,8.874,5.173,11.04,9.601c-1.43,2.176-1.708,6.658-1.2,9.359
		c-0.876-0.164-1.17-0.91-1.92-1.199c-0.186-2.854-3.69-2.391-4.32-4.801c3.756-5.034-2.014-7.06-3.84-10.56
		c-1.478-1.322-3.454-2.146-4.08-4.32C563.294,1013.99,564.764,1016.641,566.04,1015.64z"/>
	<path d="M554.52,1014.44c-0.213,0.105-0.429,0.211-0.479,0.479c-0.469-0.102,0.393-0.686-0.72-0.479
		c-0.716,0.404-0.609,1.631-0.722,2.64c0.955,0.074,1.206-0.555,2.16-0.48C554.6,1015.446,554.247,1015.733,554.52,1014.44
		c0.637,0.965,1.745,1.456,1.922,2.88c-1.271,0.184-2.877,0.707-4.32,0.96c-1.553-1.705-0.126-3.8,0.72-5.28
		C553.699,1013.181,554.365,1013.555,554.52,1014.44z"/>
	<path fill="#FFFFFF" d="M636.36,1037.24c1.021-0.333,0.652,2.204,0.96,2.88C636.381,1039.779,637.132,1037.748,636.36,1037.24z"/>
	<path d="M629.64,1053.8c-1.863,0.818-2.811-2.795-1.92-4.319c0.118-0.203,1.023-0.082,0.48-1.2c0.87-0.948,2.304-0.679,2.16,0.479
		C628.295,1048.327,628.116,1052.15,629.64,1053.8z"/>
	<path d="M615.96,1050.68c-0.685,0.176,0.425,2.651-0.479,2.881c-1.317-0.72-0.935-3.125,0.238-3.841
		c1.173-0.132,1.203,0.878,1.682,1.44C617.207,1051.642,616.412,1050.73,615.96,1050.68z"/>
	<path d="M547.56,1034.12c0.389-0.068,0.413,0.227,0.722,0.24c-0.609,3.312-0.45,7.39-2.642,9.12
		c1.475,1.246,2.096,3.346,4.08,4.079c3.714,0.271,7.155-1.004,9.841,0.721c1.435,2.388-1.209,3.44-1.439,4.8
		c-3.479,0.254-2.897,3.113-5.04,4.56c-5.508,1.606-10.456,1.025-14.64-1.92c-2.122,0.336-5.783,0.276-7.681-1.438
		c2.666,0.224,4.996,0.045,7.2,0.24c0.959-1.041,1.427-2.573,2.641-3.36c1.442,0.356,3.146,1.599,2.641,3.12
		c-1.29,0.634-1.292-1.408-2.4-1.681c-2.264,2.031,0.418,3.397,2.642,4.08c1.346-0.966,2.198-3.46,4.318-2.88
		c-0.127-0.913-0.501-1.579-0.72-2.4c-1.511,0.01-1.969,1.072-1.92,2.641c-2.576-0.561,0.164-3.876,1.92-3.84
		c2.315,1.576,2.194,4.13,3.36,6.72c2.13-0.313,4.012-1.705,4.079-4.08c1.823-0.61,2.788-0.688,3.841-2.16
		c0.193-0.83-0.448-1.013,0-1.439c-0.988-0.207-2.53-1.331-3.36-0.24c-5.32,0.887-8.794-1.628-10.56-5.04
		C546.307,1040.911,546.872,1037.371,547.56,1034.12z M544.68,1057.16c0.449-0.013,0.51,0.185,0.24,0.479
		c2.011-0.216,3.588-0.341,5.04-0.72c-0.794-0.406-1.107-1.292-1.68-1.92c-1.187-0.146-1.628,0.458-2.16-0.24
		C546.743,1055.983,545.242,1056.405,544.68,1057.16z"/>
	<path d="M618.84,1057.16c1.375,0.385,2.267,1.254,3.12,2.16c-0.961-0.079-1.427-0.653-2.16-0.96c-0.884,1.53,1.27,2.087,1.2,3.6
		c-1.062-0.635-1.412,0.374-1.68,1.2c-0.459,0.112-1.033-0.74-0.96,0.24c-0.188-0.519,0.412-2.301,1.438-2.4
		C619.782,1059.332,618.202,1058.792,618.84,1057.16z"/>
	<path d="M606.12,1060.04c-1.008,0.353-0.642,2.079-1.92,2.16c-0.059-1.737,0.417-2.943,1.438-3.601
		c0.811,0.082,1.785,1.241,1.2,1.921c0.236,0.544,1.202-0.412,1.2,0.72C607.468,1061.578,606.294,1060.857,606.12,1060.04z"/>
	<path fill="#FFFFFF" d="M433.56,1062.2c2.78,0.618,9.41,0.198,12.24,2.64c0.734,0.174,0.706-0.414,1.44-0.24
		c0.066,0.389-0.228,0.413-0.24,0.721c3.84,1.04,7.32,2.816,9.36,6.239c0.636-0.266,1.457,0.849,0.96,0.24
		c0.554-0.303,0.976,1.576,1.68,1.92c-0.465,11.354,5.213,16.586,5.52,27.841c-8.716-0.374-15.686-1.708-24-0.721
		c-2.384,0.283-4.699,1.348-6.72,1.92c-0.42,0.38-1.278,0.321-1.92,0.48c-0.302,0.059-0.242,0.477,0,0.479
		c-0.221,0.654-0.75-0.335-1.44,0c-0.445,0.194-0.97,0.312-1.199,0.721c-4.278-0.168-7.924,2.011-11.04,3.12
		c0.269,0.757,0.021,0.543,0,1.439c-0.556-1.378-1.43,0.253-1.92,0c0.339-1.661,1.914-2.087,2.399-3.601
		c2.726-2.168,5.288-4.457,8.641-6.239c2.418-1.287,5.583-1.838,6.96-4.32c4.691-1.993,8.487-5.487,9.12-11.76
		c0.688-6.824-0.621-13.342-4.801-16.32c-0.82-0.977-1.314-2.312-2.64-2.16C435.776,1063.184,434.245,1063.115,433.56,1062.2z"/>
	<path fill="#FFFFFF" d="M538.44,1074.68c0.122,0.485,2.47,1.002,3.359,0.721c-0.966,1.975-3.971,0.515-6.24,0.239
		c-4.326-0.523-11.416,0.286-9.6-6.479C527.298,1074.127,534.298,1075.154,538.44,1074.68z"/>
	<path fill="#FFFFFF" d="M571.56,1071.561c0.969-0.035,3.946-1.084,4.562-1.44c0.97,0.429-1.167,1.641-1.68,2.16
		c-3.787,4.887-0.122,11.155,2.64,14.399c-1.153,0.127-1.871,0.688-2.88,0.959c0.214,2.056-1.579,2.103-1.682,3.842
		c-3.146-2.612-4.299-7.222-6.96-10.32c-0.742-2.835,1.717-3.654,2.16-6c0.739,0.179,0.462-0.659,1.2-0.48c0-0.399,0-0.8,0-1.199
		C570.033,1073.541,571.521,1072.531,571.56,1071.561z"/>
	<path fill="#FFFFFF" d="M469.8,1079.96c0.539,0.468,1.726,0.129,1.681-0.72c0.738,0.168,0.461,0.168,1.199,0
		c-0.632,1.447-2.96,1.199-3.6,2.64C468.586,1081.448,469.809,1080.702,469.8,1079.96z"/>
	<path fill="#FFFFFF" d="M503.4,1079.48c0.378,0.163-0.532,1.049-1.2,0.959c0.198-0.679-0.338-0.621-0.24-1.199
		C502.494,1079.134,503.261,1079.98,503.4,1079.48z"/>
	<path fill="#FFFFFF" d="M482.28,1080.92c0.816-0.018,0.894,0.706,1.2,1.2C484.077,1082.452,482.081,1081.736,482.28,1080.92z"/>
	<path fill="#FFFFFF" d="M501.24,1081.16c0.234,0.645-1.005,1.868-1.92,2.16C499.683,1082.323,500.523,1081.804,501.24,1081.16z"/>
	<path fill="#FFFFFF" d="M543.48,1090.52c-4.701,0.141-8.806-2.395-13.682-2.88c-1.517-1.042-2.882-2.236-4.08-3.6
		c-0.488-0.604,0.76,0.275,1.2,0.24c-0.037,0.597,0.377,0.743,0.479,1.2c2.685,1.234,6.188,1.65,8.881,2.88
		C539.175,1087.743,541.352,1089.604,543.48,1090.52z"/>
	<path fill="#FFFFFF" d="M486.6,1088.6c-0.261-0.677-3.168-5.408-0.239-2.16c-0.039,0.279,0.053,0.429,0.239,0.48
		C486.6,1087.48,486.6,1088.04,486.6,1088.6z"/>
	<path fill="#FFFFFF" d="M493.8,1092.439c0.128,3.275-5.546,1.602-6.96,4.319c-0.117-0.757,0.434-0.848,0.24-1.68
		C489.692,1094.214,492.463,1094.757,493.8,1092.439z"/>
	<path fill="#FFFFFF" d="M495.24,1095.08c2.291,2.269,3.747,5.373,6.479,7.2C498.774,1101.625,497.129,1097.591,495.24,1095.08z"/>
	<path fill="#FFFFFF" d="M482.52,1100.84c0.351,0.603-0.501,2.051-0.96,2.641C480.908,1102.577,482.322,1101.689,482.52,1100.84z"/>
	<path fill="#FFFFFF" d="M465.72,1103c1.142,2.335,2.861,2.604,4.32,4.561c0.088-0.408-0.187-0.452-0.48-0.479
		c0.321-0.615,1.546,0.608,0.96,0.96c1.442,1.918,4.334,2.386,5.761,4.32c-9.343,2.421-15.407,10.188-21.84,16.318
		c-1.791,4.289-4.131,8.03-6.24,12c-0.812,5.375-3.747,10.635-4.08,17.28c-1.496-2.116-1.521-4.298-2.16-7.68
		c-0.243-1.289-1.084-2.497-1.2-3.602c-0.688-6.547,3.877-11.766,4.561-16.8c2.074-2.789,1.704-9.401-1.2-11.52
		c-1.137-5.368-7.436-7.744-13.44-8.16c-1.689-0.117-3.369,0.324-5.279,0.238c-3.845-0.172-7.963,0.094-10.561,1.682
		c-0.402-0.475,0.6-0.997,1.44-0.96c0.618-1.356,0.606-1.918,2.399-1.92c1.779-1.614,4.708-2.975,7.44-2.88
		c6.081-1.463,11.34-4.549,18-4.08c0.271-0.047,0.133-0.241,0-0.24c0.045-0.272,0.241-0.134,0.24,0
		c3.813,0.726,7.062-0.717,10.079-0.24c1.31,0.207,2.353,1.05,3.601,1.2C460.61,1103.311,463.096,1102.873,465.72,1103z"/>
	<path fill="#FFFFFF" d="M576.6,1113.32c0.675-0.58,1.397,0.832,1.2,1.92c1.097,2.264,2.812,3.909,3.602,6.479
		c0.442,0.916,1.84,0.88,2.398,1.682c-1.112,0.703-2.413-0.46-3.358-0.722c0.215-2.26-1.862-3.938-2.4-6.72
		C576.733,1115.759,576.6,1114.17,576.6,1113.32z"/>
	<path fill="#FFFFFF" d="M548.52,1116.2c2.007,1.516,2.928,6.191,3.842,9.6c-1.161,1.349-1.022,2.859-0.48,4.562
		c-0.46,0.499-0.917,1.003-1.68,1.199C552.086,1126.038,551.336,1120.319,548.52,1116.2z"/>
	<path fill="#FFFFFF" d="M503.4,1125.8c-4.515,2.927-7.497,7.384-10.08,12.24c-0.856,4.787-2.728,9.184-2.88,14.4
		c-0.178,6.054,1.301,11.975,3.119,18.238c-1.369,0.325-0.337,1.315-0.479,2.16c-4.317-1.469-6.391-6.628-7.68-11.28
		c-0.081-0.291-0.662-0.423-0.721-0.72c-0.429-2.2,0.031-6.313-1.199-7.2c-0.189-2.853-1.194-8.713-1.44-12.959
		c-0.068-1.171,0.268-2.487,0-3.359c-1.033-3.363-8.023-3.968-11.76-3.84c-4.556,0.154-8.895,2.311-12,2.88
		c-4.099,2.621-6.999,6.439-9.841,10.319c-0.045-0.194-0.24-0.239-0.239-0.479c-0.528-0.729,0.657-1.589,0.96-2.641
		c0.46-1.599,0.212-3.051,1.2-4.079c0.796-0.83,0.657,0.266,0.479-0.721c-0.106-0.598,0.848-0.409,0.96-0.721
		c0.614-1.678,0.138-3.099,1.92-3.84c5.021-10.499,13.89-17.15,24.96-21.601C486.5,1116.469,495.507,1121.206,503.4,1125.8z
		 M489.72,1126.28c0.854-0.027,0.965-0.795,0.96-1.682c-1.992-0.179-2.247,2.183-1.199,3.12c2.112,0.396,3.985-2.214,1.92-3.12
		C491.55,1124.939,490.626,1127.059,489.72,1126.28z M484.92,1137.08c1.475,0.271,3.796-0.604,2.88-2.641
		c-1.382,0.791-0.623-0.041-1.439-0.479c-0.295,0.744,0.921,1.825-0.24,1.92c0.075-0.324,0.341-0.458,0.24-0.96
		C485.26,1134.369,484.722,1135.626,484.92,1137.08z M484.2,1148.36c0.865,0.335,1.387,1.013,2.399,1.198
		c-0.043-0.522,0.196-0.763,0.721-0.72c0.049-1.009,0.086-2.006-0.721-2.16c0.031,0.433-0.237,0.562-0.72,0.48
		c0.054-0.454-0.271-0.529-0.24-0.96C486.495,1145.68,483.365,1146.587,484.2,1148.36z"/>
	<path fill="#FFFFFF" d="M521.16,1125.8c0.812,0.597,0.369,1.516,0.72,2.16C521.556,1128.333,520.96,1125.986,521.16,1125.8z"/>
	<path fill="#FFFFFF" d="M546.84,1173.561c-2.271,0.033-5.14-1.555-6.96-0.961c-6.323-3.356-10.419-8.939-14.16-14.88
		c0.317-2.075-0.878-2.641-1.2-4.079c-2.094-1.653-3.582-3.989-5.279-6.239c-1.624-2.154-3.623-3.81-6.721-3.36
		c-2.709,0.393-7.666,1.803-9.84,3.36c-1.815,1.301-4.546,4.188-4.56,5.76c-0.498-0.112-0.397,0.994-1.44,0.96
		c-0.171,3.27-2.708,7.029-2.88,10.32c-1.564-0.26-1.023-2.414-1.439-4.32c-0.366-1.679-1.229-8.597-0.24-10.32
		c0.684-1.191,0.422-3.771,0.479-6.239c2.763-5.237,3.969-12.032,9.12-14.88c0.138-0.218,0.99-0.884,0.48-0.961
		c0.96-0.479,1.925-0.953,2.64-1.68c5.409,2.473,9.588,5.087,15.84,6.96c0.547,0.067,0.902-0.058,0.96-0.479
		c0.359,1.082,0.829,2.051,1.921,2.399c0.488-0.071,0.639-0.479,0.96-0.72c3.765,0.825,7.466,1.664,11.04,0.96
		c0.561,1.091-0.959,2.615,0.239,3.359c-0.856-0.566-0.91,5.401-0.72,6.961c0.347,2.846,2.062,6.116,2.88,9.358
		c0.689,2.73,0.978,5.377,1.92,7.92C541.547,1167.258,543.681,1170.886,546.84,1173.561z M505.32,1131.32
		c-0.639-2.323-4.273,1.893-1.92,3.358c2.323,0.164,3.076-1.243,3.359-3.119C506.452,1130.938,505.325,1131.745,505.32,1131.32z
		 M528.84,1138.52c-1.872,2.939-0.32,6.662,3.601,5.28c0.221-2.332,1.151-3.359,0-5.52
		C530.85,1137.945,530.214,1138.195,528.84,1138.52z M505.08,1142.12c-0.059-0.343-0.396-0.405-0.48-0.72
		c0.583-0.703,2.813-1.021,2.4-1.92c-1.493,0.612-3.29,0.048-3.12,2.64c0.844,0.036,0.577,1.184,1.68,0.96
		c0.31-0.571,1.076-0.686,1.681-0.96c-0.145-0.808,0.086-1.616,0.72-0.96c0.035-0.596,0.045-1.165-0.479-1.2
		C507.183,1141.184,506.337,1141.855,505.08,1142.12z M496.44,1139.96c-3.908,3.675,4.022,7.568,3.359,3.12
		c-0.183,0.777-1.482,0.437-1.68,1.2c-0.861-0.579-1.52-1.361-1.44-2.88c0.717-0.005,0.816-0.625,1.44-0.722
		c0.588,0.612,1.905,0.495,1.68,1.92c0.739-0.168,0.461-0.168,1.2,0c-0.095-0.784-0.208-1.551-0.96-1.68
		c-0.095,0.413,0.356,0.615,0,0.72c-0.918-1.011-0.241-0.709-0.96-1.92C497.052,1139.416,497.724,1140.347,496.44,1139.96z
		 M523.56,1145.48c0.757-0.116,0.544,0.735,1.44,0.479c0.191-0.448,0.401-0.879,0.48-1.439
		C524.894,1143.551,523.207,1143.653,523.56,1145.48z"/>
	<path fill="#FFFFFF" d="M505.8,1131.8c0.475,0.646-1.386,1.005-1.2,2.16c-1.274,0.046-1.214-0.712-0.96-1.68
		c0.565-0.006,0.707,0.413,1.44,0.239c0.071-0.632-0.931-0.188-0.72-0.959c0.766-0.207,0.743,0.377,1.199,0.479
		C505.764,1132.084,505.786,1131.946,505.8,1131.8z"/>
	<path d="M507.48,1139.96c0.524,0.035,0.515,0.604,0.479,1.2c-0.634-0.656-0.863,0.152-0.72,0.96
		c-0.604,0.274-1.372,0.389-1.68,0.96c-1.104,0.224-0.837-0.924-1.681-0.96c-0.169-2.593,1.627-2.026,3.12-2.641
		c0.413,0.9-1.817,1.218-2.4,1.921c0.084,0.313,0.423,0.377,0.48,0.72C506.337,1141.855,507.183,1141.184,507.48,1139.96z"/>
	<path d="M499.08,1139.72c0.719,1.211,0.042,0.909,0.96,1.92c0.356-0.104-0.095-0.307,0-0.72c0.751,0.129,0.865,0.896,0.96,1.68
		c-0.739-0.168-0.461-0.168-1.2,0c0.227-1.425-1.092-1.308-1.68-1.92c-0.624,0.098-0.724,0.718-1.44,0.722
		c-0.079,1.519,0.579,2.301,1.44,2.88c0.197-0.765,1.497-0.423,1.68-1.2c0.664,4.448-7.268,0.555-3.36-3.12
		C497.724,1140.347,497.052,1139.416,499.08,1139.72z"/>
	<path d="M485.64,1146.2c-0.03,0.431,0.293,0.506,0.24,0.96c0.482,0.081,0.751-0.049,0.72-0.48c0.807,0.154,0.77,1.151,0.721,2.16
		c-0.523-0.043-0.764,0.196-0.721,0.72c-1.013-0.187-1.534-0.863-2.399-1.198C483.365,1146.587,486.495,1145.68,485.64,1146.2z"/>
	<path d="M567,1006.76c1.294-0.309,2.486-1.12,3.36,0c-0.728,0.634-2.29,0.431-3.12,0.96c0.4,1.998,0.461,4.339,2.88,4.32
		c0.04,2.12,2.492,1.828,3.12,3.36c0.8-0.417,1.063,0.121,2.16,0c1.07,1.125,2.555,1.453,3.6,2.64c1.695,1.926,2.248,4.53,3.6,6.72
		c1.409,2.282,4.012,2.219,6.24,4.08c3.322-0.918,7.086-1.394,8.16-4.56c-0.771-3.552,1.427-4.913,1.92-6.721
		c0.531-1.946-0.088-4.757-0.479-5.76c-1.812-4.633-9.04-5.311-11.761-9.12c-0.977,0.488-4.244,0.428-5.52-0.24
		c-1.845,0.396-2.854,1.627-4.562,2.16c-0.314,1.444-1.926,1.594-2.88,2.4c-0.791-1.021-2.065,0.778-2.398-0.96
		c-0.229,0.435-0.592,1.112-1.2,0.479c0.714-1.301,2.839-0.715,3.359-0.96c2.682-1.258,3.563-3.548,6.239-4.08
		c1.38-0.273,4.946-0.49,7.2,0.24c1.318,0.428,2.713,1.981,4.32,2.88c3.263,1.825,5.618,2.852,7.92,5.521
		c0.756,1.883,1.065,4.213,1.438,6.479c-0.127,1.641-3.298,4.531-2.159,8.16c-0.593,2.682-6.525,5.665-9.841,5.28
		c-2.275-0.265-4.93-2.881-6.72-4.08c-1.85-3.489-2.846-7.481-6.479-9.12c-0.758-0.341-1.771-0.137-2.641-0.479
		c-2.293-0.905-5.876-4.459-6.24-6C566.268,1009.291,566.591,1007.952,567,1006.76z"/>
	<path d="M618.6,1011.56c0.018,1.904,1.222,2.62,2.16,3.601c0.645-3.511-4.488-4.866-3.84-8.16c2.255,2.385,4.918,4.362,5.28,8.64
		c-0.547,0.333-0.931,0.83-1.44,1.2c-2.534-1.866-4.385-4.415-6-7.2c-0.1-1.3,0.52-1.882,0.721-2.88
		C617.707,1007.248,615.232,1011.409,618.6,1011.56z"/>
	<path d="M565.8,1019.48c-0.243-0.14-1.108-0.076-1.438-0.721c-0.134-0.531,0.458-0.341,0.479-0.72
		c-0.508-0.649-0.697,0.644-1.438,0c-0.503-1.914-3.575-2.694-2.16-4.56c-0.035-0.525-0.604-0.516-1.2-0.48
		c-0.282-0.998-0.3-2.26-0.48-3.36c0.57-0.199,1.118,1.188,1.2,0c0.808,0.198-0.267,1.544,1.44,1.2
		c-0.007,0.233-0.294,0.188-0.48,0.24c0.711,2.829,4.062,2.924,6.48,4.56c1.423,0.962,2.207,3.016,4.56,3.36
		c0.436,0.926,1.341,1.379,2.4,1.68c0.926,1.954,3.067,2.692,3.12,5.521c-0.32,0-0.642,0-0.96,0c-0.582,2.757-0.528,6.473-0.96,9.84
		c1.056,1.384,0.623,3.171,1.68,4.8c-2.371,3.979,1.959,6.387,1.439,10.32c-1.162-0.117-1.161-1.399-2.159-1.68
		c0.023-0.616,0.894-0.387,1.198-0.721c-3.813-2.863-0.743-8.183-2.88-12c-0.85,0.03-0.396,1.362-0.96,1.681
		c-1.235,0.196-1.832-0.248-2.398-0.721c-0.85,0.171-0.942,2.28-0.96,2.16c0.192,1.287,1.184,1.442,1.92,2.641
		c0.845,1.375,1.421,3.284,2.398,4.56c0.627,0.817,1.377,1.104,1.682,1.92c-3.542-1.105-4.868-6.485-7.682-9.12
		c0.122-1.718,1.072-2.607,1.92-3.6c1.004-0.204,0.95,0.649,1.44,0.96c1.225,0.264,1.214-0.706,1.68-1.2
		c-1.452-2.548-3.32-4.68-5.76-6.239c-0.626-2.155,0.898-3.301,0.72-5.041C569.363,1022.074,565.988,1021.784,565.8,1019.48z
		 M561.72,1013.72c0.626,2.174,2.604,2.998,4.08,4.32c1.826,3.5,7.597,5.525,3.84,10.56c0.63,2.41,4.136,1.945,4.32,4.801
		c0.75,0.291,1.044,1.037,1.92,1.199c-0.508-2.701-0.229-7.184,1.2-9.359c-2.166-4.428-8.681-6.956-11.04-9.601
		C564.764,1016.641,563.294,1013.99,561.72,1013.72z"/>
	<path d="M541.08,1020.2c-0.977-0.226-0.691-1.708-1.92-1.681c-0.837,1.088,0.473,2.079,0.479,3.12
		c-0.806,0.442-1.762-0.709-1.68-1.92c-1.047,0.073-1.374,0.866-2.4,0.96C536.09,1017.844,542.369,1016.343,541.08,1020.2z"/>
	<path d="M535.8,1031.24c-0.864-0.176-0.188-1.894-0.96-2.16c-0.799,0.828-1.662,0.054-2.64-0.24c-0.699,0.341-0.19,1.891-1.44,1.68
		c0.359,0.561-0.081,1.034,0.24,1.2c-0.139,0.582-0.906,0.534-1.44,0.72c-0.883-2.359,1.762-3.171,2.16-5.039
		c0.995-0.275,0.937,0.505,1.681,0.479C535.291,1025.673,536.889,1029.84,535.8,1031.24z"/>
	<path d="M631.56,1032.92c1.302,1.902,3.304,3.959,2.4,6.72c-1.078-1.722-1.057-4.543-2.88-5.52c-1.521,2.221,0.214,4.894-0.48,6.72
		c-1.394-0.686-1.078-3.08-2.398-3.84c-1.154-0.194-0.867,1.053-2.16,0.72c-0.161-1.841,2.558-2.423,3.36-1.2
		C629.953,1035.153,628.953,1032.233,631.56,1032.92z"/>
	<path d="M531.96,1037.24c-1.257,0.217-0.903-1.178-2.16-0.96c0.338-1.538-0.872-1.528-1.68-1.92
		c-0.635,0.725-1.246,1.474-1.68,2.399c-0.75-1.219-0.406,0.431-1.2,0.48c-0.418-1.896,1.782-3.15,2.88-4.32
		C529.938,1033.684,532.283,1035.127,531.96,1037.24z"/>
	<path d="M555.48,1038.92c0.565-0.764,0.153-1.58-0.24-2.88c2.068,0.934,1.688,3.288,0.24,4.56c-3.209,0.57-5.383-3.842-2.4-5.76
		c0.559,0.242,0.772,0.826,0.72,1.681c-0.597-0.026-0.743-0.45-1.2,0C552.387,1038.768,554.727,1039.7,555.48,1038.92z"/>
	<path d="M599.64,1041.561c0.39,2.891-2.046,2.475-2.88,4.56c0.367,1.929,2.203,3.147,2.16,5.04c-0.002,0.077-0.619,1.8-0.72,1.92
		c-0.854,1.008-2.797,1.646-4.08,1.2c0.528-1.134,0.661-2.565-0.48-3.12c-1.18,2.128-0.729,6.375-3.12,6.72
		c-2.164,0.312-1.97-2.03-3.358-3.359c1.016-5.04-3.349-7.44-1.44-12.48c1.35-0.332,2.029-1.331,3.602-1.439
		c0.029,0.43-0.294,0.506-0.24,0.96C590.959,1039.259,597.118,1039.616,599.64,1041.561z M593.4,1041.8
		c-2.973-0.638-5.088-0.205-6.96,1.44c-0.603,2.99,1.182,3.97,1.68,5.76c0.924,3.324-0.313,6.666,2.398,7.68
		c1.017-2.345,1.717-5.004,2.642-7.439c1.27,1.05,2.703,1.937,3.12,3.84c2.927-2.73-0.602-5.206-0.722-8.4
		c1.041-0.56,1.827-1.373,2.642-2.16c-0.766-0.916-2.559-0.803-3.12-1.92c-0.014-0.146-0.036-0.283-0.24-0.239
		C595.098,1041.578,593.304,1040.744,593.4,1041.8z"/>
	<path d="M609.72,1057.16c-1.285,0.714-0.897-2.075-2.16-2.16c-0.731,0.067-0.525,1.073-1.198,1.2
		C604.605,1052.414,611.529,1052.999,609.72,1057.16z"/>
	<path d="M624.36,1059.8c1.702,0.174,4.096,1.028,4.318,3.36c0.156,1.624-1.362,4.613-3.12,4.32
		C623.173,1067.081,623.817,1062.232,624.36,1059.8z M624.84,1065.8c0.413-0.013,0.615,0.186,0.72,0.48
		c1.333-0.509,1.97-1.712,1.922-3.601c-0.979-0.301-1.694-0.865-2.642-1.199C624.288,1062.408,625.308,1064.475,624.84,1065.8z"/>
	<path fill="#FFFFFF" d="M633.24,1085c-2.465,1.004-6.021-0.143-9.36,0.24c-1.917,1.26-4.097,3.552-6.96,3.358
		c-2.822-0.188-3.001-2.882-3.6-5.038c0.614-0.639,0.386,0.418,0.72,0.72c0.473-0.407,0.644-1.116,0.72-1.92
		c1.768-0.425,2.12-3.44,4.32-2.642c0.443-1.235,2.897-0.461,3.84-1.199C626.45,1080.59,629.086,1083.554,633.24,1085z"/>
	<path d="M486.36,1134.92c0.102,0.502-0.165,0.636-0.24,0.96c1.161-0.095-0.056-1.176,0.24-1.92
		c0.816,0.438,0.058,1.271,1.439,0.479c0.917,2.037-1.405,2.912-2.88,2.641C484.722,1135.626,485.26,1134.369,486.36,1134.92z"/>
	<path fill="#FFFFFF" d="M583.56,1134.68c1.435,6.681,2.526,9.919,3.36,16.802c1.926,6.36,4.966,11.862,9.84,15.84
		c-0.189,0.635-1.128-0.537-1.2,0.479c-1.923-1.355-4.835-1.725-7.198-2.64c-1.931-1.797-2.431-4.593-4.08-6.48
		c-1.836-2.098-4.915-3.03-5.762-6c-1.57-1.228-3.136-2.463-4.318-4.08c-4.09-0.817-8.741-1.474-11.521,1.2
		c-3.262,0.545-6.287,1.291-8.88,3.36c-0.485,0.389-0.698,1.066-1.2,1.438c-1.367,1.022-3.103,1.289-4.08,2.16
		c-1.946,1.736-2.778,4.632-4.318,6.722c1.306,1.978,0.324,3.66,0.96,6.238c-3.597-5.31-6.765-15.363-8.4-23.04
		c-0.423-1.984-0.476-3.672,0-5.76c-0.334-0.306-0.104-1.176-0.72-1.2c0.999-3.238,1.198-6.337,4.8-5.76
		c-1.231-0.714,0.867-0.422,1.681-0.479c-0.104-0.297-0.308-0.493-0.721-0.48c1.712-0.206,3.243-0.24,5.28-0.48
		c0.288,0.315,0.094,0.379,0,0.722c6.221-0.943,13.516-0.88,19.92,0.72c0.245,0.062,0.312,0.683,0.48,0.72
		c0.341,0.076,0.857-0.278,1.198-0.239c2.372,0.272,4.829,2.239,6.722,0.721c-0.046,0.193-0.241,0.238-0.24,0.479
		C576.758,1134.873,580.502,1135.241,583.56,1134.68z"/>
</g>
</svg>
