<?xml version="1.0" encoding="utf-8"?>
<!-- Generator: Adobe Illustrator 15.0.0, SVG Export Plug-In . SVG Version: 6.00 Build 0)  -->
<!DOCTYPE svg PUBLIC "-//W3C//DTD SVG 1.1//EN" "http://www.w3.org/Graphics/SVG/1.1/DTD/svg11.dtd">
<svg version="1.1" id="Capa_1" xmlns="http://www.w3.org/2000/svg" xmlns:xlink="http://www.w3.org/1999/xlink" x="0px" y="0px"
	 width="225px" height="242px" viewBox="0 0 225 242" enable-background="new 0 0 225 242" xml:space="preserve">
<g>
	<path fill-rule="evenodd" clip-rule="evenodd" d="M177.16,34.44c-1.018,1.694-5.062-0.702-6.72-1.44
		c-3.693,0.842-8.351,3.095-12,2.4C162.287,31.398,173.556,29.36,177.16,34.44z"/>
	<path fill-rule="evenodd" clip-rule="evenodd" d="M156.52,36.84c-1.238,3.561-4.459,5.14-3.84,10.56
		c-2.442-1.765-0.628-5.489,0.48-7.68c-0.472-0.648-1.281-0.959-1.92-1.439c-2.837,0.363-3.182,3.219-5.28,4.32
		c-0.372-2.933,0.926-4.194,1.92-5.76C150.171,37.87,154.394,33.146,156.52,36.84z M152.68,38.76c1.291,0.331,0.928-0.992,1.44-1.44
		C153.073,37.233,152.593,37.713,152.68,38.76z"/>
	<path fill-rule="evenodd" clip-rule="evenodd" d="M171.4,37.8c-1.9,1.781-4.508,2.853-7.681,3.36
		c-0.48-0.64-0.791-1.449-1.439-1.92C163.712,35.469,168.245,36.103,171.4,37.8z M165.16,38.28c-0.157,1.898,3.617,0.777,3.359-0.48
		C167.245,37.805,165.778,37.619,165.16,38.28z"/>
	<path fill-rule="evenodd" clip-rule="evenodd" d="M155.56,93.48c-0.324,2.236-3.148,1.971-4.8,2.88
		C151.163,94.362,153.824,92.605,155.56,93.48z"/>
	<path fill-rule="evenodd" clip-rule="evenodd" d="M162.28,98.28c-0.17,0.63-0.846,0.755-0.96,1.439
		C160.125,99.525,161.291,97.859,162.28,98.28z"/>
	<path fill-rule="evenodd" clip-rule="evenodd" d="M156.52,100.68c0.768,0.908-0.832,2.359-0.96,3.84
		C154.686,103.923,154.6,100.071,156.52,100.68z"/>
	<path fill-rule="evenodd" clip-rule="evenodd" d="M153.16,105.96c1.024-0.224,0.914,0.686,0.96,1.44
		c-0.389-0.091-0.479-0.481-0.96-0.48C153.16,106.6,153.16,106.28,153.16,105.96z"/>
	<path fill-rule="evenodd" clip-rule="evenodd" d="M168.52,109.8c1.17,1.357-1.017,3.442-2.88,3.36
		C166.116,111.557,167.458,110.818,168.52,109.8z"/>
	<path fill-rule="evenodd" clip-rule="evenodd" d="M174.28,113.16c0.085,1.685-1.622,1.579-1.92,2.88
		C171.032,114.989,172.663,112.855,174.28,113.16z"/>
	<path fill-rule="evenodd" clip-rule="evenodd" d="M163.24,114.12c0.258,1.729-2.559,2.851-2.4,0.48
		C162.196,114.997,162.084,113.923,163.24,114.12z"/>
	<path fill-rule="evenodd" clip-rule="evenodd" d="M169.48,115.56c0.329,1.609-0.806,1.754-1.921,1.92
		C168.127,116.767,167.976,115.335,169.48,115.56z"/>
	<path fill-rule="evenodd" clip-rule="evenodd" d="M106.6,32.04c-6.389-8.15-0.201-22.635,12.48-20.64
		c-5.423,3.803-18.163,7.953-12,17.76c-0.916-8.698,8.281-10.729,13.92-14.4c1.719-0.25,7.249,0.275,2.88,0.48
		c-4.521,0.598-6.947,3.293-9.6,5.76c1.709,1.727,6.665-0.796,10.56,0c1.907,1.933,5.326,2.354,8.16,3.36
		c-0.072,0.888-1.625,0.295-1.92,0.96c2.958,3.442,9.126,3.674,9.12,10.08c2.221,1.779,4.383,3.618,4.8,7.2
		c-1.749-0.651-2.002-2.798-2.88-4.32c-1.296,0.867,1.401,1.761,0.479,3.84c-1.783-1.818-2.849-6.64-6.239-5.28
		c6.088,3.208,8.471,12.628,8.64,20.16c-1.844-0.716-2.103-3.018-2.88-4.8c-1.746,2.461,2.251,6.775-0.96,8.16
		c0.375-2.135-0.64-2.88-0.48-4.8c-0.996,0.123-0.131,2.109-0.96,2.4c-1.49-4.109-2.617-8.583-4.8-12
		c-0.849,3.631-3.212,5.748-5.76,7.68c-1.024,0.224-0.914-0.686-0.96-1.44c-0.986,0.134-0.958,1.282-1.44,1.92
		c-0.562-0.078-0.404-0.875-0.479-1.44c-1.623,1.897-4.208,2.833-4.8,5.76c-0.562-0.078-0.405-0.875-0.48-1.44
		c-0.838,0.441-1.06,1.5-0.96,2.88c-1.852-1.7-1.851-0.005-2.88,1.44c-2.12-0.341,1.025-3.164-2.4-2.4
		c-0.085-1.686,1.621-1.579,1.92-2.88c-1.489-0.05-1.369,1.51-3.36,0.96c-1.349-0.411-0.737-2.783-2.88-2.4
		c-0.336-2.097,0.816-2.704,0.48-4.8c-3.1,0.1-0.289,6.112-1.92,7.68c0.599,2.389,3.307,1.41,3.84,2.88
		c0.164,1.892-2.915,0.075-3.84,0c-0.474-1.126-0.842-2.358-0.96-3.84c-0.773,0.561-2.291,5.685,0.48,5.28
		c-1.077,3.403-3.364,5.597-5.76,7.68c-0.952-1.547,1.338-3.264,0.96-5.76c-1.559,1.481-1.346,4.734-2.88,6.24
		c-2.022-0.599,0.046-1.967,0-3.36c-1.873,0.367-1.599,2.88-3.84,2.88c-1.656-0.35-0.32-1.444,0-2.4
		c-6.958,0.082-11.216,2.864-15.84,5.28c-0.706-1.998,3.005-3.705,4.8-4.8c-1.583-1.776-5.534-1.186-6.72-3.36
		c7.207,1.938,14.788-1.513,17.76-6.72c-4.88,3.604-15.592,7.406-23.04,3.84c5.15-0.319,13.226-1.316,17.76-4.8
		c-5-0.311-13.054,0.438-18.24-2.4c1.496-2.003,2.305-3.308,2.88-5.28c-0.924,3.745,9.919,2.764,13.44,1.44
		c-2.141-0.568-10.399-0.679-11.52-4.32c0.541,1.059,2.114,1.087,3.36,1.44c-0.585-1.815-2.738-2.062-3.84-3.36
		c-0.132-1.947-1.526-2.634-0.96-5.28c0.553-1.553,0.543,1.289,0.48,1.92c2.979,7.051,12.002,6.249,19.68,4.8
		c1.291-1.43,1.859-3.581,2.88-5.28c-1.617,0.784-5.192,1.626-7.2,0.48c0.649,1.911,3.818,1.301,4.8,2.88
		c-3.063,2.012-7.119-2.371-9.6-4.8c-1.763-1.726-4-3.999-4.8-7.2c-0.432-1.729,0.708-3.75-0.48-5.28
		c1.263,1.595,2.223,0.461,2.88-0.96c0.746,0.109-1.119,4.691,0.96,4.8c2.005-3.275,2.861-7.699,7.68-8.16
		c-2.085,2.187-0.394,6.911,1.44,8.16c-0.498-1.485-1.735-4.036-0.48-5.76c0.817,5.583,3.504,9.295,8.16,11.04
		c0.63-0.169,0.755-0.845,1.44-0.96c-8.99-3.56-7.944-18.294-0.48-20.64c2.849-0.896,2.075,1.403-0.96,1.92
		c-0.066,0.895-0.316,1.604-0.96,1.92C102.311,23.85,102.073,30.327,106.6,32.04z M102.76,30.6c-2.338-2.622-1.43-8.49-2.4-12.48
		C99.191,22.183,99.835,30.676,102.76,30.6z M115.72,28.68c-0.276-2.677,0.86-3.94,1.92-5.28c-4.105,0.214-6.813,1.827-6.72,6.24
		c0.619,0.661,2.085,0.475,3.36,0.48c-0.642,2.069,2.264,0.557,2.399,2.88c-2.294-0.055-3.713,0.767-4.32,2.4
		c2.506,1.44-0.258,4.535-1.92,3.84c-0.29,1.967-0.531,4.491,0,6.24c0.204-1.716,1.279-2.562,0.96-4.8
		c0.914-0.206,1.206-1.034,2.4-0.96c-0.719-4.718,3.373-4.627,3.84-8.16c-0.053-0.907-1.587-0.333-1.439-1.44
		c1.187-1.079,3.869-2.358,1.92-3.84c1.706-1.334,4.229-1.851,5.76-3.36C118.571,22.252,118.684,27.004,115.72,28.68z M97.96,36.84
		c-3.393-3.007-5.097-7.703-6.72-12.48C84.656,29.375,91.799,37.84,97.96,36.84z M123.4,25.32c0.326,1.233,6.098,0.431,7.199,0.48
		C129.256,24.509,125.348,24.574,123.4,25.32z M121.48,39.24c0.907,0.107,1.059-0.541,1.92-0.48c0.604,1.317,0.488,3.352,1.92,3.84
		c0.299-1.301,2.005-1.195,1.92-2.88c-1.156-0.196-1.044,0.877-2.4,0.48c-2.258-2.154,0.619-5.838-0.479-8.16
		c0.903-0.856,2.222-1.298,2.88-2.4c-2.37-0.129-5.137,3.678-6.24,0.48c0.688-1.392,3.282-0.878,3.84-2.4
		c-2.737,0.623-5.506,1.214-6.72,3.36c1.049,0.07,1.03,1.209,0.96,2.4c-1.5,1.999-1.351,4.262-2.4,5.76
		c-0.906-0.054-0.333-1.587-1.439-1.44c0.148,1.932,1.038,3.122,1.439,4.8c0.368-2.329,1.328,1.701,2.88,0
		c0.72-2.799-1.328-2.831-1.439-4.8c1.095-2.266,1.491-5.229,3.84-6.24C122.014,33.567,121.812,36.73,121.48,39.24z M110.92,33
		c0.25-0.71,0.71-1.21,0.96-1.92c-1.253,0.398-2.633-1.452-3.36,0C109.478,31.562,109.277,33.203,110.92,33z M126.28,33.48
		c3.13-1.484,8.014-2.489,11.52-0.96C135.601,29.059,128.396,31.238,126.28,33.48z M86.92,33C88.548,37.32,86.818,31.467,86.92,33
		L86.92,33z M102.28,37.32c-1.105-1.558-5.663-4.437-5.28-4.32C98.478,34.723,99.275,37.125,102.28,37.32z M137.32,34.92
		c0.24-1.865-3.88-1.849-4.801-0.96C134.047,34.353,136.054,34.266,137.32,34.92z M109.48,37.8c0.158-1.122,0.577-1.983,0.96-2.88
		c-0.718,0.009-1.963-1.783-2.4-0.48C109.17,34.91,108.47,37.21,109.48,37.8z M130.12,35.4c-0.64,0.072-1.449-1.952-1.92-0.48
		C128.839,34.849,129.648,36.872,130.12,35.4z M134.44,37.32c0.505-1.214-1.619-2.127-1.921-0.96
		C133.23,36.61,133.729,37.07,134.44,37.32z M129.16,39.24c0.334-1.615-0.986-1.574-1.44-2.4
		C126.432,38.121,128.398,38.598,129.16,39.24z M129.64,37.8C131.257,39.258,131.096,36.025,129.64,37.8L129.64,37.8z M133.48,39.72
		c-0.56-0.081-0.521-0.759-0.48-1.439c-1.291-0.331-0.928,0.992-1.44,1.439C132.654,39.061,133.364,40.958,133.48,39.72z
		 M107.56,41.16c-1.279-0.616-3.5-0.993-6.24-0.48c0,0.8,0,1.6,0,2.4c2.744-0.432,3.384-0.919,6.72-0.96
		c-0.189-0.826,0.712-1.23,0-1.44C108.013,40.973,107.968,41.248,107.56,41.16z M140.2,44.52c-1.462-1.098-1.542-3.579-3.84-3.84
		C136.891,42.403,139.273,44.787,140.2,44.52z M115.72,50.28c1.42-0.835,2.512-4.509,1.44-6.24
		C116.695,46.135,116.268,48.267,115.72,50.28z M126.76,47.88c1.227-0.823,1.681,0.55,2.4-0.48c-1.433-0.008,0.677-3.557-1.44-2.88
		C127.64,45.88,126.84,46.521,126.76,47.88z M119.56,50.76c0.663-1.275,2.424-3.952,0.96-5.76
		C120.997,47.415,118.621,49.477,119.56,50.76z M139.24,47.88c-0.066-0.894-0.316-1.604-0.96-1.92
		C138.146,47.054,138.396,47.765,139.24,47.88z M122.92,50.28c1.428-0.04,2.346-3.058,1.44-3.84
		C123.715,47.555,123.565,49.166,122.92,50.28z M101.32,49.32c-0.617-1.243-0.992-1.508-2.4-0.96c0.014,1.586,2.026,1.174,2.4,2.4
		c0.299-2.534,2.187-0.627,3.84-1.44c0.107,0.373,0.013,0.947,0.48,0.96c-0.036-0.836,0.107-1.493,0.48-1.92
		c-2.388,0.379-3.357,0.803-3.84-1.44C102.352,48.112,102.032,48.912,101.32,49.32z M106.6,47.88c2.174,0.802-1.199,6.056,1.44,7.2
		c-1.012-3.743,1.609-6.376,0.96-8.16C109.216,48.256,106.384,46.544,106.6,47.88z M85.48,48.36c3.681-0.418,6.307,1.058,8.64-0.48
		C91.18,48.424,86.272,46.891,85.48,48.36z M112.36,52.2c-0.232-1.512,2.201-0.359,2.4-1.44c-0.915-0.204-0.868-1.371-2.4-0.96
		C112.083,50.091,111.236,52.077,112.36,52.2z M83.08,53.64c-2.516-0.067-6.451-2.275-7.68,0c5.836,1.296,14.17,2.208,18.72-0.96
		C90.115,52.908,86.583,53.733,83.08,53.64z M113.32,55.08c1.565,0.125,2.31-0.57,2.4-1.92c-0.907,0.107-1.059-0.541-1.92-0.48
		C113.528,53.679,112.429,54.231,113.32,55.08z M100.84,58.44c0.115-0.685,0.791-0.81,0.96-1.44
		C100.812,56.579,99.645,58.245,100.84,58.44z M100.36,60.84c-0.45,0.406-1.025,3.06,0,3.36
		C100.521,62.578,101.1,60.286,100.36,60.84z M90.76,65.16c2.648-0.072,3.971-1.47,6.72-1.44c-0.213-0.907,0.653-2.893-0.96-2.4
		C95.54,63.54,91.949,63.148,90.76,65.16z"/>
	<path fill-rule="evenodd" clip-rule="evenodd" d="M157.48,25.32c-0.506-1.415-2.172-1.668-3.36-2.4
		c1.043-2.963-2.047-1.793-1.92-3.84c0.095-1.844,3.479-2.896,4.8-1.92c4.498-1.681,7.265-2.26,13.44-2.4
		c2.424,5.247,12.948-0.514,14.399,5.76c4.948,0.333,6.102,4.458,8.641,7.2c-0.004,1.277-1.336,1.225-1.921,1.92
		c0.272,1.967,1.812,2.667,3.36,3.36c0.38,1.66-0.533,2.026-0.96,2.88c1.132,1.268,2.607,2.193,4.32,2.88
		c1.331,6.075-0.77,8.836,1.439,14.4c1.625-0.615,1.905-2.575,3.36-3.36c0.143-1.262-1.862-0.377-1.44-1.92
		c0.904-0.696,2.495-0.706,2.88-1.92c-0.245-2.726-2.743-0.216-3.84-1.92c-0.038-1.798,3.398-0.122,3.36-1.92
		c0.146-2.546-3.353-1.448-3.36-3.84c1.38,0.099,2.438-0.122,2.88-0.96c-1.546-1.457-3.331-0.189-4.8-0.96
		c0.658-1.102,1.977-1.543,2.88-2.4c-1.592-1.994-3.078-5.888-7.199-3.84c2.568-4.08,9.133,1.77,7.68,4.8
		c1.651,1.868,4.565,2.475,5.28,5.28c-0.885,0.716-1.685,1.516-2.4,2.4c2.642,4.945-3.643,8.174-0.96,12.96
		c-3.854,1.248-9.29,9.032-12.96,4.32c2.271,0.032,4.557,0.077,5.28-1.44c-1.086-0.076-5.519-1.8-5.761,0.96
		c-1.741,0.462-0.402-2.157-1.92-1.92c-2.258,4.746-1.251,11.678-1.439,16.32c1.492,1.388,3.787,1.973,6.72,1.92
		c1.666,0.414,2.663,1.497,3.84,2.4c8.922,1.159,11.961,8.199,16.8,13.44c0.342,3.658,1.802,6.199,2.881,9.12
		c-0.954,5.887-3.147,13.5-8.641,16.32c-1.43,7.159,0.297,17.251-6.24,18.24c-2.127,0.321-2.592-0.849-4.319-1.44
		c-3.501-1.199-7.629-2.109-10.08-4.8c-5.26,3.7-5.309,12.611-12.48,14.4c-2.166-0.394-2.815-2.305-5.279-2.4
		c0.327,1.753,1.993,2.166,2.88,3.36c0.688,3.151,0.319,7.36,3.84,7.68c1.56,4.829,4.41,7.342,2.399,13.44
		c-0.233,0.708-1.179,1.617-1.439,2.399c-1.17,3.511-1.953,7.132-3.84,10.561c-0.854,1.55-2.485,2.906-3.36,4.319
		c-1.176,1.899-1.547,3.768-2.88,4.8c-3.815,1.219-6.176,2.011-12,1.44c-1.845-0.181-4.086-1.352-6.72-1.92
		c-11.14-2.403-17.217-3.785-21.601-12c-1.448-2.716-2.814-5.91-2.399-8.641c2.353,1.648,1.913,4.95,2.88,7.2
		c1.516,3.53,4.336,6.459,7.2,9.12c8.613,1.146,14.424,5.097,24.479,4.8c0.631-0.169,0.755-0.845,1.44-0.96
		c5.229-7.89,11.897-14.342,15.84-23.52c-0.758-1.643-2.286-2.514-3.84-3.36c-1.293,0.567,0.002,2.503,0,3.36
		c-3.019,2.102-3.134,7.106-6.721,8.64c-0.806,4.19-4.761,6.323-9.119,8.641c-1.934,1.027-3.434,2.375-4.801,2.399
		c-2.697,0.048-7.099-3.745-10.08-6.24c-6.223-5.206-10.299-12.142-14.88-19.199c3.878-6.523,5.883-14.918,12-19.2
		c5.329,0.265,9.895,2.647,15.84,1.44c5.453,4.787,10.145,10.335,15.36,15.359c0.916-3.709,0.402-6.755,1.44-9.6
		c-0.832-2.529-3.47-3.251-4.801-5.28c-1.858-0.419-0.784,2.096-2.88,1.44c2.191-4.645-0.021-10.046-4.319-11.041
		c-0.442-2.438-2.016-3.744-3.841-4.8c0.691-5.098-3.321-8.979-4.8-13.439c-5.887-4.833-8.771-12.669-12.479-19.68
		c-2.389-0.171-3.444-1.676-6.24-1.44c-1.218-1.663-1.358-4.401-4.8-3.84c-0.411-1.532,0.755-1.485,0.96-2.4
		c-14.597-4.696-19.152,8.586-21.6,19.2c3.715-2.525,5.677-6.803,10.08-8.64c-0.445,3.327-3.791,4.277-5.76,6.24
		c-2.104,2.098-3.424,5.026-5.28,7.2c-3.971,4.651-8.551,8.72-12,13.92c-3.494,5.269-4.76,11.643-8.64,17.28
		c4.378,1.895,8.178,3.816,11.52,6.72c2.993,2.601,4.746,6.459,8.16,8.641c0.051,2.508,1.3,3.819,2.88,4.8
		c-0.36-5.155,3.125-9.407,1.44-12.96c4.832-2.208,5.957-8.123,6.24-14.88c2.509,0.41,2.37-0.5,4.8-1.921
		c0.199-3.621-1.236-12.22,1.92-14.399c1.124,2.704-0.179,6.759-0.479,9.6c4.93-3.069,7.487-8.512,7.68-16.32
		c2.817,1.558,0.68,9.688-0.96,12.48c-0.91,1.55-3.205,3.197-4.32,3.84c-0.176,1.425-0.832,2.368-1.92,2.88
		c0.011,1.131-0.826,1.414-0.479,2.881c-1.11,0.969-2.565,1.595-2.881,3.359c-1.156,0.197-1.043-0.877-2.399-0.479
		c0.59,6.829-1.268,11.213-5.28,13.439c-0.125,1.405,1.085,1.476,0.96,2.88c-2.098,2.113-2.889,9.677-2.4,15.36
		c0.141,1.642,2.646,8.641-0.48,10.08c0.601,3.239,2.433,5.247,4.8,6.72c1.264,5.297,4.247,8.873,5.28,14.4
		c-2.61,5.562-6.641,7.935-12,12.479c-4.027,3.416-6.009,4.559-11.52,6.721c-2.364,0.927-3.735,2.118-5.76,1.92
		c-4.281-0.42-9.701-0.084-14.88-0.96c-5.529-0.937-13.473-4.134-14.4-6.24c-2.606-5.922,5.206-7.727,9.6-10.561
		c2.795-1.802,3.982-4.08,5.76-5.76c-0.282-2.117-3.127-1.672-4.32-2.88c0.647-4.152,3.95-5.649,7.2-7.2
		c-6.914-1.098-12.911,2.512-17.28,5.28c-0.371,4.27-1.504,7.776-3.36,10.56c-2.88-2.239-7.992-2.248-10.08-5.279
		c2.52-0.336,6.849,1.395,8.64,3.359c0.831-0.769,1.406-1.794,1.92-2.88c-3.726-1.717-9.483-3.952-10.56-6.72
		c0.884-1.839,4.324,2.135,6.24,2.88c1.448,0.563,2.996,0.132,4.32,0.96c-1.161-2.039-3.707-2.693-4.32-5.28
		c-5.423,1.263-3.937-4.383-8.64-3.84c-0.359,2.201-1.926,3.194-2.4,5.28c0.044,2.195,2.635,1.845,3.36,3.36
		c0.097,1.856-2.375,1.145-3.36,1.92c1.417,4.502,7.616,4.224,11.04,6.72c-0.168,3.513,0.137,7.497-2.88,8.16
		c0.191-2.689,1.408-4.352,1.44-7.2c-3.327-2.913-10.8-1.68-11.04-7.68c-0.146-1.267,1.002-1.238,1.92-1.44
		c-1.79-2.129-2.565-5.256-0.48-7.68c-2.09-1.409-5.329-2.654-8.16-1.92c-1.509-11.442,6.095-17.896,15.36-20.16
		c-1.03,6.159,4.386,8.708,5.76,13.92c2.003-2.752-1.245-10.229,0-14.88c0.392-1.466,1.654-2.341,2.4-3.36
		c4.227,0.094,7.144,1.496,9.6,3.36c-1.261,1.459-1.746,3.694-1.44,6.72c4.312-3.984,10.376,2.467,7.2,7.2
		c1.832-0.249,2.448-1.712,2.4-3.84c2.464,0.096,3.021,2.099,4.32,3.36c-1.147,3.333-4.297,4.662-6.24,7.199
		c7.566-0.535,12.869-0.409,15.36-5.76c-0.498-3.857,0.866-5.854,1.44-8.64c-3.659-7.414-11.036-11.333-10.08-22.08
		c-15.463,4.696-32.86,7.46-46.08,14.399c-4.041,11-10.682,19.398-12.96,32.16c-1.077,0.523-0.844,2.356-1.92,2.88
		c-0.485,5.951-3.698,12.333-4.8,18.721c-0.341,1.976-0.062,3.915-0.48,5.76c-0.313,1.383-1.535,3.027-1.92,4.8
		c-0.747,3.437,0.394,8.76-3.84,8.64c4.565-14.49,6.085-29.484,10.56-43.199c1.976-6.059,6.014-13.236,9.12-19.681
		c1.145-2.375,1.525-4.654,2.4-6.72c0.153-0.362,1.306-0.623,1.44-0.96c0.626-1.579,0.691-3.025,1.92-4.32
		c3.963-1.956,8.324-3.516,12.96-4.8c-0.363-8.618-10.134-11.218-7.2-22.08c0.381-1.412,1.794-3.258,2.4-4.8
		c1.918-4.878,2.937-10.933,5.76-15.84c-0.041-1.72-0.747-2.773-0.96-4.32c1.179-1.982,1.733-3.829,2.88-5.76
		c1.06-1.784,3.3-3.339,3.84-4.8c0.126-0.342-1-1.989-0.96-2.4c0.233-2.448,3.166-3.987,4.8-5.76c2.096-0.337,2.704,0.816,4.8,0.48
		c0.383-4.83,6.14-11.471,9.6-12.96c3.825-1.646,11.507-0.317,16.32-0.479c1.544-0.052,2.688-2.228,3.84,0
		c1.22-0.7,0.929-2.911,2.4-3.36c3.417,0.423,4.052,3.628,6.24,5.28c-0.523,8.77,4.015,16.362,3.84,23.52
		c2.025-2.775,2.624-6.976,4.32-10.08c-2.678-2.48-3-7.287,0.48-9.12c-2.066-0.494-2.681-2.438-5.76-1.92
		c0.815-5.745,3.241-9.878,9.12-10.56c2.059-0.661,2.305-3.135,3.359-4.8c1.932-0.629,3.87-1.25,6.721-0.96
		c2.143-2.817,7.202-2.718,11.52-3.36c0.729,1.031,2.086,1.435,1.92,3.36c-1.747,0.493-2.801,1.679-4.8,1.92
		c-0.535,1.866-3.607,3.211-5.76,1.92c-1.391,1.383,0.935,1.501,0.479,3.36c-2.586,3.494-9.814,2.345-11.52,6.72
		c3.062,0.071,6.123-2.044,9.12-0.48c-0.136,0.775,0.453,0.826,0.479,1.44c-0.824,3.016-4.727,2.954-7.68,3.84
		c4.294,1.024,7.864-0.951,11.52,1.44c2.086-4.314,3.749-9.052,8.641-10.56c4.105,0.952,9.681,1.35,11.52,5.76
		c0.462,2.382-1.279,2.56-1.439,4.32c2.585,3.495,7.017,5.143,10.08,8.16c0.258-2.286-2.85-3.258-3.36-6.24
		c-0.698-4.077,1.245-8.815,2.88-11.52c0.994,0.286,3.153-0.593,3.36,0.48c1.066-0.854,1.697-2.142,1.92-3.84
		c-3.903-2.497-8.371-4.429-9.12-10.08c6.854-1.987,15.94-8.832,25.439-7.68c1.312,0.159,3.179,0.15,3.841,1.92
		c-0.877,1.655-2.316-0.339-3.841-0.48c-7.474-0.691-17.853,4.204-24,7.2c0.792,5.976,7.186,5.932,9.12,9.6
		c-2.104,3.975-1.216,10.944-4.319,13.92c-0.488-0.312-0.497-1.104-1.44-0.96c0.441,5.258,2.333,7.174,7.2,4.8
		c0.461-0.225,1.088-0.798,1.439-0.96c0.732-0.337,0.957,0.226,1.44,0c6.5-3.043,12.601-7.902,16.8-12.48
		c-0.345-3.75,0.45-9.944,0.48-14.4c0.012-1.715-1.342-3.518,0-4.32c-0.237-1.363-2.509-0.691-1.92-2.88
		c1.193-0.074,1.485,0.754,2.399,0.96c1.37-3.206,7.278-5.577,4.8-9.6c-2.916,0.444-4.188,2.531-7.68,2.4
		c-0.366-1.133-0.946-3.317,0-4.32c-0.938-0.663-2.528-0.672-2.88-1.92c0.524-2.036,2.318-2.801,4.32-3.36
		c-0.662-1.967-1.762-0.998-3.84-0.96c-0.433-1.968-1.971-4.848-1.44-6.24c-0.051-1.869-3.015-0.826-3.36-2.4
		c-0.619-1.899,1.58-0.98,0.96-2.88c0.203-1.643-1.438-1.442-1.92-2.4c-2.229-0.468-0.651,2.869-2.88,2.4
		c0.01-2.088,0.848-2.656-0.96-3.36c-2.829,0.187-3.288,3.172-6.24,1.92c-0.79-0.746,0.164-1.871,0.48-2.88
		c-6.485-3.023-4.086,3.172-1.44,5.76c-1.49,2.35-3.152,4.527-7.199,4.32C156.198,28.751,154.549,26.505,157.48,25.32z
		 M159.88,26.76c0.329,0.523,3.031,0.825,3.36-0.96c-1.77-0.768-4.557,1.058-6.721,1.44c-0.107,0.907,0.541,1.059,0.48,1.92
		C159.49,29.891,158.327,26.967,159.88,26.76z M167.08,18.12c0.325-1.115,2.18-0.7,2.4-1.92c-5.005,0.932-4.502,1.153-9.12,0.96
		c-0.358,1.478,1.317,0.922,0.96,2.4c3.909-2.08,8.401,4.028,11.04-1.44C170.848,18.276,167.955,20.285,167.08,18.12z M178.12,21.48
		c-1.567,0.127-1.018-1.863-2.4-1.92c0.35,1.31-0.953,0.966-0.96,1.92c3.086,1.714,6.06,3.541,6.721,7.68
		c2.772-0.533,2.527,1.952,3.359,3.36c-0.335,0.823-3.915,0.833-2.88,1.44c3.487-0.325,5.271,2.654,4.32,5.28
		c3.91,0.175,4.75,3.954,7.68,6.24c0.87-1.209,2.97-1.19,3.84-2.4c-1.284-1.228-2.531,0.29-4.319,0
		c-0.027-0.614-0.615-0.665-0.48-1.44c0.364-1.716,3.834-0.326,3.84-2.4c-2.489-1.034-2.844,0.779-5.76,0.479
		c-0.459-1.869-0.211-2.619-2.4-1.92c0.107-0.907-0.541-1.059-0.479-1.92c1.892-0.668,4.603-0.518,5.28-2.4
		c-2.273-0.193-3.304,0.857-5.761,0.48c-0.402-0.557-0.633-1.287-0.479-2.4c1.487,0.047,2.662-0.217,3.359-0.96
		c-1.147-0.292-3.482,0.603-3.84-0.48c0.479-1.921,4.496-0.305,4.32-2.88c-2.068,0.076-4.193,1.248-4.8-0.96
		c1.097-0.823,3.384-0.457,4.319-1.44c-2.135-2.289-6.006,1.188-7.68-0.96c0.476-1.285,2.925-0.596,2.88-2.4
		c-1.664-0.256-4.553,0.713-4.8-0.96c0.115-0.685,0.79-0.81,0.96-1.44c-1.127-0.153-1.802-0.758-3.36-0.48
		C178.571,20.222,179.466,20.648,178.12,21.48z M156.52,23.4c2.474-0.341,4.115,0.347,4.801-0.96
		C159.918,21.892,157.793,22.485,156.52,23.4z M204.04,39.72c0.638,0.624,1.786,0.633,1.92-0.479
		C205.322,38.617,204.174,38.607,204.04,39.72z M182.92,40.68c0.826,0.026,1.23-0.37,1.44-0.96
		C183.605,39.766,182.695,39.656,182.92,40.68z M184.84,43.56c-0.146,1.12-1.024,2.068,0.48,2.4c0.317-2.563,3.447-0.317,4.319-2.88
		C187.721,42.921,186.976,43.936,184.84,43.56z M193.48,46.92c-0.241,4.56-4.688,4.912-5.28,9.12c1.634,0.445,2.815,1.345,5.28,0.96
		c-0.055-3.094,5.936-0.144,5.279-3.84c-0.857-0.002-2.792,1.292-3.359,0c0-0.64,0-1.28,0-1.92c1.407-0.713,1.782,0.542,2.399-0.96
		c-1.055-1.412-3.78,1.334-4.319-0.96c0.092-1.988,2.936-1.224,3.359-2.88C195.325,46.205,195.145,47.305,193.48,46.92z
		 M200.68,55.08c1.202,0.081,1.503-0.737,1.92-1.44c-0.64,0-1.279,0-1.92,0C200.68,54.12,200.68,54.6,200.68,55.08z M130.12,63.24
		c2.475,0.444,4.312,0.191,5.76-1.44C133.629,61.949,131.051,61.771,130.12,63.24z M118.12,68.52c4.093-0.228,6.403-2.236,9.6-3.36
		C123.366,64.981,118.303,63.591,118.12,68.52z M109.96,76.68c5.576-0.184,7.405-4.115,11.521-5.76
		C116.818,68.359,111.555,73.023,109.96,76.68z M109,75.24c0.215-0.943,2.35-2.399,1.44-2.88
		C110.375,73.453,107.551,74.22,109,75.24z M145.48,81.48c-0.087,2.219-2.242,2.753-2.4,4.32c6.995-2.998,1.829-12.712-4.32-11.52
		C141.758,75.381,145.615,78.032,145.48,81.48z M92.68,80.04c2.241,1.119,4.44,2.279,4.32,5.76c-4.051-0.371-5.723,1.638-10.08,0.96
		c2.489,10.259,1.876,21.74-4.32,27.84c-0.402,4.082,1.202,6.158,1.44,9.6c2.692,0.188,3.864,1.896,6.24,2.399
		c4.163-7.036,9.879-12.52,14.4-19.2c-5.862-2.04-6.256-9.178-8.16-14.88c-0.704-2.108-3.079-3.672-1.44-5.76
		c1.993,1.6,2.903,4.905,3.84,7.68c1.429,4.234,1.719,9.365,5.76,11.04c-0.939-8.661-1.863-17.337-4.8-24
		c1.158-3.146-0.156-6.071-2.88-6.72C95.921,76.881,94.048,78.208,92.68,80.04z M157.96,78.12c0.732-1.027,1.952-1.568,1.92-3.36
		C158.222,74.569,157.102,77.384,157.96,78.12z M107.08,77.16C109.458,76.521,107.83,74.893,107.08,77.16L107.08,77.16z
		 M137.8,86.28c0.511,0.021,1.219-0.227,0.48-0.48c-4.477-2.238-5.086-9.772,1.439-10.08c-2.612-0.373-3.742,0.737-5.279,1.44
		c-0.521,2.495-1.343,5.117-0.48,7.68C135.081,85.479,136.664,85.655,137.8,86.28z M186.76,75.72
		c-1.626,2.375-3.911,4.089-5.279,6.72c-6.613,2.827-11.615,7.266-19.681,8.64c2.34,3.568,7.265,0.205,8.641-0.48
		c2.91-1.45,5.424-3.004,7.68-3.84c1.261-1.939,3.021-3.378,4.8-4.8c3.147-0.853,5.055-2.945,7.2-4.8
		C189.195,76.484,188.188,75.892,186.76,75.72z M73.96,78.12c7.187-0.307,9.022,4.737,12.96,7.68c0.948-0.332,1.28-1.28,1.44-2.4
		c-0.195-0.925-1.861-0.379-1.44-1.92c1.162-2.198,3.203-3.517,4.8-5.28C86.356,76.77,78.747,75.292,73.96,78.12z M159.88,81.96
		c0.405-1.85,3.082-3.938,1.92-5.76C161.435,78.089,158.232,79.653,159.88,81.96z M148.36,79.08c0.022-1.029-1.118-3.301-1.92-1.92
		C147.568,77.311,146.725,79.435,148.36,79.08z M110.92,79.08c1.495,0.489,3.426-0.993,2.4-1.44
		C113.014,78.614,111.076,77.956,110.92,79.08z M136.36,79.08c-0.528,3.087,1.254,3.866,2.399,5.28
		C148.325,84.276,140.801,74.176,136.36,79.08z M190.6,79.56c-0.35,1.31,0.954,0.966,0.96,1.92c-1.461,1.579-3.058,3.022-3.359,5.76
		c1.889-0.512,2.922-1.878,3.359-3.84c1.864-1.497,4.298-2.422,6.24-3.84C195.821,77.429,192.911,78.374,190.6,79.56z M109.96,83.88
		c-0.094,1.854-0.017,3.537,0.48,4.8c1.974-0.106,1.045-3.115,3.36-2.88c0.197-1.156-0.876-1.043-0.48-2.4
		c2.424-1.256,4.454-2.906,6.72-4.32C115.031,77.182,113.318,82.546,109.96,83.88z M158.44,87.24
		c-1.761-2.359,0.446-5.818-0.96-8.64C156.966,81.549,155.678,86.103,158.44,87.24z M69.64,82.92c2.809,1.991,5.29,4.31,8.16,6.24
		c1.729-1.312,4.194-1.886,6.72-2.4C84.293,80.584,71.779,75.723,69.64,82.92z M90.76,84.36c1.303-0.297,3.81,0.609,4.32-0.48
		c-1.083-1.797-3.48-2.28-5.28-3.36C89.827,82.093,91.165,82.355,90.76,84.36z M201.64,80.52c-0.718,0.082-1.771-0.171-1.92,0.48
		C200.357,81.623,201.506,81.633,201.64,80.52z M206.44,117.96c1.115-3.905,3.057-7.932,3.359-12c0.109-1.461-0.64-2.882-0.479-4.32
		c0.41-3.706,3.067-7.554,1.92-12c-1.445-1.436-3.367-2.394-3.84-4.8c-1.668,0.404-2.676-1.857-4.32-1.92
		c-3.92-0.15-5.575,3.96-7.68,6.24c-3.975,4.307-11.15,10.516-12.96,14.4c6.038,1.859,12.63,0.676,15.84,5.76
		c1.716,2.719,1.3,6.727,2.399,10.08c0.204,0.622,1.186,1.298,1.44,1.92c1.145,2.797,0.854,6.334,3.36,7.68
		C206.681,126.167,207.305,121.404,206.44,117.96z M148.84,86.28c-0.674-0.606-0.027-2.533-1.92-1.92
		c-0.94,1.78-2.354,3.086-2.88,5.28c2.29,5.457,3.684,9.905,6.72,14.88c2.541,4.164,4.616,7.575,6.721,11.04
		c0.898,1.48,1.525,2.958,2.399,4.32c1.897,2.955,3.306,6.818,4.8,8.64c1.06,1.292,2.28,2.611,4.801,2.4
		c2.806-3.532,7.441-7.762,7.199-13.44c-0.084-1.967-2.252-3.296-1.439-5.76c-1.814-1.065-4.101-1.659-5.76-2.88
		c1.223-3.033,2.133,0.534,3.84-0.48c-0.219-2.022-2.438-2.042-2.88-3.84c-2.019-0.003-2.017,2.013-3.841,0.96
		c0.327-0.953,1.462-1.098,1.92-1.92c-1.673-4.567-6.434-6.046-8.64-10.08c-1.582-0.424-2.398,2.351-3.36,0.96
		c0.192-1.248,1.433-1.448,1.44-2.88C154.529,90.19,153.371,86.548,148.84,86.28z M76.84,90.12c-2.802-3.008-5.455-5.726-9.6-4.8
		c-0.32,0-0.64,0-0.96,0c-0.113,1.967-0.235,3.925-0.96,5.28c-1.661-0.579-3.434-1.046-5.76-0.96
		c-1.195,1.205-2.228,2.572-3.36,3.84c1.669,2.993-0.604,4.792,0.96,7.68c-1.915,0.475-1.445-1.435-3.36-0.96
		c-0.831,2.688-2.953,4.087-3.36,7.2c2.098,2.95,0.509,6.621,1.44,10.56c-0.754,0.046-1.664-0.064-1.44,0.96
		c-1.252,11.241-1.237,25.247,0,34.08c7.337-2.104,15.287-3.593,22.56-5.76c-3.609-3.928-6.409-7.954-8.64-13.44
		c-2.336-5.745-3.726-11.327-5.76-17.28c-1.165-3.41-3.198-6.738-2.4-10.08c2.434,2.386,2.77,6.29,3.84,9.6
		c1.066,3.298,2.773,6.807,2.88,10.56c2.386,3.055,2.858,8.021,5.28,11.04c3.3-6.177,9.35-8.987,14.88-12.479
		c-1.813-4.099-3.872-11.815-0.96-16.32c-1.709-7.634-12.949-5.439-19.68-5.76c1.416-1.958,5.217-1.945,7.68-1.92
		c4.841,0.05,8.602,2.113,12,3.36C82.692,97.351,80.063,93.58,76.84,90.12z M179.56,92.04c0.844,1.237,0.692,3.468,1.921,4.32
		c1.605-2.719,2.774-8.418,2.399-11.52C182.106,86.907,180.799,89.438,179.56,92.04z M131.56,86.76
		c1.364,0.237,0.691,2.509,2.881,1.92c0.026-0.293,0.071-0.568,0.479-0.48c0.371-2.131-1.588-1.933-2.4-2.88
		C132.664,86.264,131.872,86.272,131.56,86.76z M190.6,91.56c1.162-2.519,3.855-3.505,4.801-6.24
		C193.029,86.316,189.564,88.755,190.6,91.56z M186.28,88.2c0.063-0.631,0.072-3.473-0.48-1.92
		C185.736,86.911,185.728,89.753,186.28,88.2z M137.32,88.2c0.826,1.254,2.158,2.002,3.359,2.88c0.645-0.853,3.647-3.733,1.92-3.84
		C141.25,87.97,138.896,87.697,137.32,88.2z M78.76,90.12c2.865,4.016,5.111,8.649,5.76,14.88c2.226-1.035,2.357-5.151,2.4-8.16
		c0.043-3.042-0.533-6.658-1.44-8.64C82.344,87.944,81.77,90.25,78.76,90.12z M162.28,93.96c0.554,3.126,3.239,4.121,5.279,5.76
		c1.774,3.187,4.608,5.312,7.2,7.68c1.953-2.367,3.607-5.032,5.28-7.68c-0.936-2.097-2.369-1.919-2.88-4.32
		c-0.355-1.672,1.651-4.265,0-6.24C173.537,91.908,167.524,95.843,162.28,93.96z M145.96,104.04c2.321,3.655,6.051,6.034,8.16,9.6
		c2.294,3.878,3.085,8.612,5.28,12.48c1.69,2.98,4.447,4.612,6.239,7.2c0.982,1.417,1.386,2.844,2.4,4.319
		c2.912,1.249,4.97,3.351,8.64,3.841c-2.802-3.697-7.688-5.386-11.04-9.12c-3.837-4.276-6.683-11.521-10.08-17.28
		c-3.623-6.143-7.857-11.79-10.079-17.28c-0.952-2.353-0.54-5.174-2.881-6.72c0.088,1.047-0.393,1.527-1.439,1.44
		C142.917,96.182,143.965,100.897,145.96,104.04z M182.92,99.72c0.926-1.954,3.309-2.451,3.84-4.8
		C184.045,94.777,182.771,98.595,182.92,99.72z M215.56,101.16c-0.236-2.163-0.658-4.141-1.92-5.28
		C213.705,98.215,213.049,101.271,215.56,101.16z M209.8,113.16c3.909-1.279,7.342-10.35,1.92-12.48
		C212.032,104.923,211.065,109.236,209.8,113.16z M177.64,106.92c9.289-1.038,20.626,1.891,19.681,11.04
		c1.487,2.353,2.393,5.287,4.319,7.2c-1.271-6.244-4.097-8.562-3.84-14.88C193.464,107.327,183.115,102.646,177.64,106.92z
		 M83.08,108.36c0.481-0.001,0.571,0.389,0.96,0.48c-0.046-0.754,0.064-1.664-0.96-1.44C83.08,107.72,83.08,108.04,83.08,108.36z
		 M176.2,109.32c1.543,2.617,2.987,5.333,3.359,9.12c-0.953,0.799-0.61-0.043-1.92,0c-0.755,5.805-4.168,8.952-6.239,13.44
		c-1.157-0.196-1.044,0.877-2.4,0.48c1.889,3.71,5.65,5.549,9.6,7.2c3.834-5.287,7.008-11.233,11.521-15.841
		c-0.538-4.332,3.646-5.042,3.84-8.16c0.08-1.288-1.569-2.208-0.96-4.32C188.875,109.19,182.067,107.646,176.2,109.32z M195.4,117
		c-2.567,2.873-3.71,7.17-5.761,10.561c3.33,1.63,6.869,3.051,12,2.879c-0.696-5.146-4.649-8.045-5.76-12.959
		c-0.284-1.258,0.9-3.306-0.96-4.32C194.814,114.706,195.769,115.191,195.4,117z M42.76,138.6c0.714,2.516,2.965,7.118,5.28,7.2
		c-0.168-6.088-0.398-18.308,0.96-26.88c-0.106-0.374-0.402-0.558-0.96-0.48C47.702,124.464,41.114,132.797,42.76,138.6z
		 M76.84,145.8c2.216,0.296,2.763-1.077,4.8-0.96c1.942-3.684,0.016-10.65,1.92-14.88c0.985-2.187,4.143-2.72,2.88-4.32
		C79.87,128.99,77.362,136.401,76.84,145.8z M203.08,128.04c0.134-1.095-0.115-1.805-0.96-1.92
		C202.186,127.014,202.436,127.725,203.08,128.04z M84.04,138.6c3.044-2.075,3.788-6.452,5.28-10.08
		c-1.156,0.197-1.043-0.876-2.4-0.479C85.368,130.969,84.834,134.915,84.04,138.6z M202.6,132.36
		c-1.147,0.292-3.482-0.603-3.84,0.479c3.107,2.028,8.384-1.954,4.8-3.84C203.824,130.755,204.139,131.571,202.6,132.36z
		 M69.16,140.52c1.262-0.142,0.377,1.862,1.92,1.44c0.526-3.474,1.086-6.913,4.32-7.68c-0.285,4.034-3.064,5.575-2.88,10.08
		c0.999,0.281,1.551,1.009,2.4,1.439c-0.145-6.864,1.536-11.903,4.32-15.84C74.743,132.343,71.235,135.715,69.16,140.52z
		 M148.36,141c-3.165-0.369-6.123-2.479-8.641-0.96c3.154,1.054,13.375,1.828,17.28,1.92
		C154.653,140.094,151.248,141.337,148.36,141z M139.72,142.439c-1.305,1.867-0.904,3.722-1.92,5.761
		c-1.335,2.681-4.684,4.76-4.8,7.2c-0.204,4.266,5.179,5.592,5.28,11.039c7.645-5.154,13.145-12.455,20.64-17.76
		c-0.838-2.042-2.191-3.567-3.36-5.279C149.187,143.894,145.235,141.879,139.72,142.439z M85.48,144.36c0.64,0,1.28,0,1.92,0
		c-0.036-0.837,0.107-1.493,0.48-1.921C86.048,142.048,86.021,143.462,85.48,144.36z M88.84,145.32c0.115,0.74,1.785,2.3,2.4,0.96
		c-1.418-0.418,1.113-0.719,0.479-1.92c-0.914-0.206-1.206-1.034-2.4-0.96C89.428,144.308,88.779,144.459,88.84,145.32z
		 M91.72,146.76c0.059,1.222,0.699,1.861,1.92,1.92c0.206-0.914,1.034-1.205,0.96-2.399c-0.661,0.021-1.054-0.227-1.44-0.48
		C92.963,146.403,92.541,146.781,91.72,146.76z M134.92,148.2c0.141-0.568,1.934-1.813,0.48-2.4
		C135.409,146.518,133.617,147.764,134.92,148.2z M84.04,147.24c-0.654,6.922,2.041,8.735,4.32,12
		c1.487,2.131,2.105,4.799,4.32,5.76c0.997-3.803,2.015-7.585,3.36-11.04C92.525,151.598,89.133,144.933,84.04,147.24z
		 M96.04,151.561c0.268-1.173,1.857-1.023,1.44-2.881c-0.614-0.026-0.665-0.615-1.44-0.479
		C95.26,148.767,94.295,151.238,96.04,151.561z M168.52,155.88c-0.617-3.062-2.97-4.39-4.8-6.24
		C161.868,151.936,165.913,155.018,168.52,155.88z M98.92,153.96c1.131-1.105,1.937-2.438,0-3.36
		C98.14,151.167,97.175,153.639,98.92,153.96z M159.4,150.6c-6.641,5.52-12.749,11.572-19.2,17.28
		c-0.98,0.345-1.899,1.505-2.88,0.48c0.663,2.379,1.835,2.55,2.88,1.439c2.882-3.062,6.989-4.404,10.08-6.239
		c5.259-3.125,8.541-8.059,10.56-12.48C160.227,151.054,160.175,150.465,159.4,150.6z M172.84,157.32
		c2.193,1.166,2.957,3.763,5.76,4.319c-0.777-4.502-1.744-8.815-5.279-10.56C173.294,153.294,173.533,155.772,172.84,157.32z
		 M140.68,170.76c1.873,3.697,4.13,6.55,9.12,5.76c2.538-0.401,6.62-3.042,9.12-5.279c4.336-3.881,7.413-9.63,8.64-12.96
		c-1.774-1.905-3.236-4.123-5.76-5.28C158.75,162.91,148.374,165.494,140.68,170.76z M99.88,156.36c1.286,0.779,1.825,1.103,2.88,0
		c0.125-1.565-0.569-2.311-1.92-2.4C100.634,154.874,99.806,155.166,99.88,156.36z M96.52,161.16c0.602-1.174,3.217-3.753,0.96-4.8
		C97.181,157.686,95.769,160.377,96.52,161.16z M136.84,167.4c-1.291-4.149-2.844-8.037-6.24-10.08
		C132.337,161.023,134.133,164.667,136.84,167.4z M102.28,160.2c1.542-0.423,0.658,1.582,1.92,1.439
		c0.269-0.69,0.749-1.171,1.44-1.439c-0.3-1.141-0.646-2.234-1.92-2.4C103.722,159.082,102.203,158.843,102.28,160.2z M60.52,160.68
		c-3.819,5.506,0.23,14.217-1.44,19.681c-4.404-4.077-7.262-9.698-10.56-14.88c-6.966,1.835-11.684,8.474-11.04,16.319
		c2.863-0.513,5.994,2.439,9.6,0.48c3.969,0.604,4.74,4.782,9.6,4.8c0.519,1.721,1.324,3.156,3.36,3.36
		c0.192-1.248,1.432-1.448,1.44-2.881c-7.021-2.579-12.362-9.396-12.48-17.279c2.082,2.382,2.949,7.924,5.76,11.52
		c2.268,2.901,7.482,6.787,11.52,3.84c-1.244-3.037-2.997-7.568-3.84-12c-0.741-3.896-2.055-9.024,0.48-11.04
		c1.375,1.52,0.305,4.285,0.48,6.721c0.346,4.815,2.134,10.32,3.84,13.439c-0.704-3.457,0.022-9.532,3.36-9.6
		c-0.001,0.481,0.389,0.571,0.48,0.96c-0.974,2.066-2.124,3.956-2.4,6.72c2.705-2.492,6.846-7.062,3.84-11.04
		c-4.593-0.593-3.938,4.062-7.2,4.8c-0.881-3.607,0.804-8.791,1.44-12.479C64.865,161.455,63.465,160.295,60.52,160.68z
		 M146.92,178.44c2.351,0.369,2.594,2.846,5.28,2.88c3.487-2.113,7.531-3.669,10.56-6.24c2.201-4.999,6.811-7.59,8.16-13.44
		c-0.685-0.114-0.81-0.79-1.439-0.96C163.945,168.585,158.313,176.394,146.92,178.44z M98.44,168.36
		c0.907,0.053,0.333,1.587,1.44,1.439c1.138-2.223,1.441-5.279,2.4-7.68c-0.614-0.026-0.665-0.615-1.44-0.48
		C100.405,164.244,98.825,165.705,98.44,168.36z M105.16,163.08c0.184,1.597,1.839,4.213,3.36,2.88
		c-0.391-1.037-0.019-2.802-0.96-4.32c-0.48,0-0.96,0-1.44,0C105.887,162.207,105.608,162.729,105.16,163.08z M103.72,170.28
		c-0.019-1.778,0.737-2.783,1.44-3.841C103.448,166.397,102.115,169.964,103.72,170.28z M106.6,171.24
		c1.35-0.09,2.045-0.835,1.92-2.4c-0.614-0.026-0.665-0.615-1.44-0.479C107.427,169.827,106.589,170.109,106.6,171.24z
		 M100.84,172.2c-1.49-0.75-3.056-1.425-4.32-2.4C95.514,172.815,100.342,173.717,100.84,172.2z M93.16,176.52
		c1.449-0.489,1.286-5.089,0.48-6.239C93.492,172.07,92.511,175.526,93.16,176.52z M105.16,173.16
		c-0.916-0.205-0.869-1.371-2.4-0.96C102.188,173.627,104.783,174.262,105.16,173.16z M108.52,173.16
		c-0.424-0.369-1.371,0.295-1.44,0.479C106.401,175.449,109.468,173.984,108.52,173.16z M169.48,179.88
		c-2.813,1.667-4.447,4.513-6.24,7.2c1.526-0.073,2.111-1.088,3.84-0.96c1.83-4.253,6.371-8.345,6.24-12.96
		C171.966,175.325,169.77,176.649,169.48,179.88z M96.52,177c1.467-0.347,1.749,0.491,2.88,0.48c-0.275-1.806-0.839-3.321-2.88-3.36
		C96.52,175.08,96.52,176.04,96.52,177z M77.32,177.48c1.408-0.033,1.783-1.098,2.4-1.92
		C78.312,175.593,77.937,176.657,77.32,177.48z M101.32,177.96c2.625,0.978,4.778,4.711,7.2,4.32
		c-1.169-1.391,0.526-5.646-1.44-6.24c-0.256,1.664,0.713,4.553-0.96,4.8c-1.313-1.087-1.188-3.612-1.92-5.279
		c-0.96-0.001-1.92,0-2.88,0C101.32,176.36,101.32,177.16,101.32,177.96z M73,181.32c0.75-1.171,2.586-1.255,2.88-2.88
		c-0.512-0.448-0.149-1.771-1.44-1.44C73.967,178.15,71.701,179.989,73,181.32z M99.88,180.84c-1.487-3.41-5.465-1.613-9.6-1.92
		c0.121,1.722-1.441,1.759-1.44,3.36c1.608-0.45,3.026,1.723,3.84,0.479c-0.609-0.396-2.737-1.682-1.44-2.399
		c3.569,1.07,5.023,4.256,8.16,5.76c2.946-3.394,5.791,2.62,8.64,2.399c1.006-0.077,3.388-1.029,3.36-3.84
		C106.677,186.008,104.363,179.753,99.88,180.84z M112.84,183.72c0.026-0.825-0.369-1.23-0.96-1.439
		C111.854,183.105,112.25,183.511,112.84,183.72z M83.08,187.08c1.058,0.202,2.647-1.438,1.44-1.92
		C84.379,186.139,83.221,186.102,83.08,187.08z M73.96,191.4c4.633,0.312,5.185-3.455,7.2-5.761
		C77.787,186.587,75.519,188.639,73.96,191.4z M85.96,188.04c0.718-0.082,1.771,0.171,1.92-0.48c-1.749-0.301,1.295-2.425-0.96-1.92
		C87.279,187.119,85.265,186.225,85.96,188.04z M111.88,189.96c1.1,0.66,1.127,2.393,2.4,2.88c1.05-2.259,0.933-4.74-0.48-6.72
		C113.583,187.823,112.18,188.34,111.88,189.96z M100.36,189.48c0.963,0.107,1.944-2.143,2.88-0.48
		c1.206,1.264-1.204,1.616-1.44,2.88c3.519,0.506,5.608,4.376,9.6,2.88c-0.373-1.867-0.382-4.098-1.92-4.8
		c-3.61,1.999-4.631-2.721-7.68-2.88C101.371,187.931,99.852,187.691,100.36,189.48z M90.76,192.36
		c0.087-1.245-1.347-3.402-2.4-1.92C89.713,190.526,88.958,192.722,90.76,192.36z M92.68,191.4c0.026-0.826-0.37-1.23-0.96-1.44
		C91.694,190.786,92.089,191.19,92.68,191.4z M87.4,191.88c-0.925-0.195-0.379-1.86-1.92-1.439
		C85.119,191.656,87.313,192.691,87.4,191.88z M96.04,192.36c1.058,0.202,2.647-1.438,1.44-1.92
		C97.339,191.419,96.181,191.381,96.04,192.36z M80.68,192.84c2.323-0.385,3.917,2.458,5.76,0.96
		C85.036,192.509,81.849,188.898,80.68,192.84z M107.56,204.84c-1.974,1.593-5.304,2-6.24,4.8c-5.76,1.209-12.501,4.5-20.16,3.841
		c-6.29-0.542-13.387-2.256-18.24-4.32c1.972,4.305,10.098,6.403,14.4,6.72c4.757,0.351,11.496,1.166,15.36,0.48
		c3.338-0.593,8.863-3.919,12.48-6.721c4.233-3.279,8.499-6.502,10.56-9.12c2.005-2.545,3.381-5.628,0.96-7.68
		C114.081,197.185,111.485,201.673,107.56,204.84z M82.6,201.48c6.331,1.205,9.284-3.855,12.96-7.681
		c-0.908,0.107-1.059-0.541-1.92-0.479C92.745,198.824,84.831,197.311,82.6,201.48z M99.4,194.28c0.261,2.785,4.632,5.603,5.76,9.12
		C104.928,198.94,102.4,194.391,99.4,194.28z M107.56,201.48c1.138-1.742,2.886-2.874,3.84-4.801c-2.973,1.275-6.348-2.2-8.16-1.92
		C105.257,196.423,105.922,199.438,107.56,201.48z M93.64,199.08c3.373,1.267,4.962,4.317,6.72,7.2c1.452-0.309,2.77-0.75,2.88-2.4
		c-1.386-3.415-3.73-5.87-6.24-8.16C95.837,196.797,94.444,197.645,93.64,199.08z M75.88,198.6c3.136-0.332,4.831,0.817,7.2,0
		C82.4,195.477,76.894,196.639,75.88,198.6z M79.72,200.52c-0.841,0.133-2.395-1.352-2.88,0
		C77.173,200.896,79.518,201.588,79.72,200.52z M97.96,208.2c1.021-3.053-2.106-5.812-5.28-6.24c0.688-0.702,0.368-1.521-0.96-1.44
		C93.487,203.393,95.848,205.672,97.96,208.2z M64.36,207.72c5.251,2.798,10.798,2.55,17.76,3.84
		c-1.218-3.262-2.916-6.044-4.32-9.119C71.955,200.346,67.086,203.918,64.36,207.72z M80.68,203.4
		c0.754,2.926,2.407,4.952,3.36,7.68c0.96,0,1.92,0,2.88,0c-0.407-1.993-2.448-2.352-2.4-4.8c-0.396-1.708,2.975-2.103,1.44-3.36
		C85.139,204.019,82.296,203.096,80.68,203.4z M90.28,202.92c-1.649,0.051-3.541,2.438-3.36,4.32c0.323,3.369,4.623,4.057,8.16,1.92
		C94.938,207.09,91.94,202.869,90.28,202.92z"/>
	<path fill-rule="evenodd" clip-rule="evenodd" d="M165.16,103.56c-1.158,2.202-2.756,3.964-5.28,4.8
		C159.413,106.313,163.429,104.971,165.16,103.56z"/>
</g>
</svg>
