<?xml version="1.0" encoding="utf-8"?>
<!-- Generator: Adobe Illustrator 15.0.0, SVG Export Plug-In . SVG Version: 6.00 Build 0)  -->
<!DOCTYPE svg PUBLIC "-//W3C//DTD SVG 1.1//EN" "http://www.w3.org/Graphics/SVG/1.1/DTD/svg11.dtd">
<svg version="1.1" id="Capa_1" xmlns="http://www.w3.org/2000/svg" xmlns:xlink="http://www.w3.org/1999/xlink" x="0px" y="0px"
	 width="133px" height="405px" viewBox="0 0 133 405" enable-background="new 0 0 133 405" xml:space="preserve">
<path fill-rule="evenodd" clip-rule="evenodd" d="M86.96,22.8c-1.092-0.671-0.46-1.702-0.72-2.64
	c-0.597-2.149-2.405-3.817-2.641-6.24c1.25-0.309,2.218,1.579,2.881,2.64c0.132,0.532-0.459,0.342-0.48,0.72
	C87.004,18.711,87.726,20.875,86.96,22.8z"/>
<path fill-rule="evenodd" clip-rule="evenodd" d="M87.68,22.8c0.279-0.039,0.428,0.053,0.48,0.24c0.715,2.583,2.505,7.776-0.24,9.6
	C87.981,29.539,87.653,26.002,87.68,22.8z"/>
<path fill-rule="evenodd" clip-rule="evenodd" d="M93.2,34.8c1.643,0.37,1.668,3.324,1.2,5.04
	C93.311,38.849,93.831,36.249,93.2,34.8z"/>
<path fill-rule="evenodd" clip-rule="evenodd" d="M41.6,36c0.194,0.046,0.239,0.241,0.48,0.24C41.952,36.806,40.944,36.387,41.6,36z
	"/>
<path fill-rule="evenodd" clip-rule="evenodd" d="M57.44,38.16C58.54,38.32,57.247,39.613,57.44,38.16L57.44,38.16z"/>
<path fill-rule="evenodd" clip-rule="evenodd" d="M50.24,38.4c-0.309,0.412-0.497,0.944-1.2,0.96
	C49.349,38.949,49.536,38.416,50.24,38.4z"/>
<path fill-rule="evenodd" clip-rule="evenodd" d="M56,42.72c0.534,0.506,0.661,1.419,1.44,1.68C56.549,45.271,55.5,43.271,56,42.72z
	"/>
<path fill-rule="evenodd" clip-rule="evenodd" d="M53.6,49.92c0.24,0,0.48,0,0.72,0c-0.61,3.23-1.337,6.343-2.16,9.36
	C50.826,56.535,53.221,52.729,53.6,49.92z"/>
<path fill-rule="evenodd" clip-rule="evenodd" d="M76.4,50.16c0.192,0.127,0.39,0.25,0.72,0.24c-0.747,2.838-2.064,6.167-1.2,9.84
	C73.495,57.32,75.972,53.552,76.4,50.16z"/>
<path fill-rule="evenodd" clip-rule="evenodd" d="M65.36,51.84c0.825,0.215-0.143,1.116-0.24,1.68
	c-0.445,2.578-0.196,6.981,0.72,9.12c-1.287-0.015-1.55-2.198-1.68-3.36C63.863,56.622,64.448,53.36,65.36,51.84z"/>
<path fill-rule="evenodd" clip-rule="evenodd" d="M86,56.88c0.279-0.039,0.427,0.053,0.48,0.24c-0.278,2.516-1.271,4.962-1.2,8.4
	c0.01,0.506,0.568,1.721-0.24,1.92C83.592,64.49,85.257,59.867,86,56.88z"/>
<path fill-rule="evenodd" clip-rule="evenodd" d="M87.68,61.2c0.408-0.088,0.453,0.187,0.48,0.48
	c-0.204-0.044-0.227,0.093-0.24,0.24C87.639,61.881,87.718,61.482,87.68,61.2z"/>
<path fill-rule="evenodd" clip-rule="evenodd" d="M89.84,63.12c1.312,2.049,2.941,3.779,3.601,6.48
	c-1.085-0.188-1.442-1.575-1.921-2.4c-0.501-0.864-0.875-1.886-1.68-2.4C90.053,63.924,89.416,63.521,89.84,63.12z"/>
<path fill-rule="evenodd" clip-rule="evenodd" d="M53.36,66.24c-1.448,0.104-0.074,1.443,0,2.16c-0.356,0.899-0.395,0.726-0.24,1.92
	c-0.431-0.03-0.506,0.294-0.96,0.24c-1.042-1.899-0.456-2.701-0.96-4.8c2.437-1.519,5.992,1.582,7.68,0
	c0.407,1.24,1.108,3.307,0.48,4.8c-1-0.04-0.837-1.243-1.44-1.68c-0.715,0.005-0.308,1.132-0.72,1.44
	c-2.048-0.032-0.413-3.747-2.64-3.6c-0.542,0.562,0.787,2.282,0.24,2.88C53.728,69.072,53.19,68.01,53.36,66.24z"/>
<path fill-rule="evenodd" clip-rule="evenodd" d="M94.16,66c2.092,1.908,3.51,4.49,4.32,7.68c-0.982-0.912-1.857-2.339-2.641-3.6
	C95.058,68.819,94.096,67.327,94.16,66z"/>
<path fill-rule="evenodd" clip-rule="evenodd" d="M63.2,67.2c0.83-0.03,1.131,0.469,1.68,0.72c0.092,0.972-0.655,1.104-0.96,1.68
	c0.071,1.351,0.138,2.698-1.44,2.4c0.025-1.065-0.671-1.409-0.48-2.64c0.678-0.198,0.622,0.338,1.2,0.24
	C62.991,69.005,62.731,67.739,63.2,67.2z"/>
<path fill-rule="evenodd" clip-rule="evenodd" d="M92,70.32c0.502,0.218,0.731,0.708,0.72,1.44
	C91.978,71.782,92.005,71.035,92,70.32z"/>
<path fill-rule="evenodd" clip-rule="evenodd" d="M47.84,71.28c0.703,0.017,1.353,0.087,1.2,0.96
	C48.22,72.34,47.672,72.167,47.84,71.28z"/>
<path fill-rule="evenodd" clip-rule="evenodd" d="M80.24,72.96c-0.51,0.481-1.069-0.341-1.681-0.48
	c-2.416-0.192-3.74,2.219-5.04,1.68C74.492,72.416,78.898,70.757,80.24,72.96z"/>
<path fill-rule="evenodd" clip-rule="evenodd" d="M63.44,73.68c1.336,0.586,0.401,1.816,0.24,3.12c-0.133,1.075,0.214,2.035,0,2.88
	c-0.5,1.975-2.401,3.572-2.16,5.76c-2.061-1.562,0.477-3.716,0.96-5.52C63.051,77.788,62.4,75.545,63.44,73.68z"/>
<path fill-rule="evenodd" clip-rule="evenodd" d="M84.08,75.6c0.021,0.833-1.291,1.573-1.92,0.96c-2.062,2.433-5.122,1.985-8.4,1.92
	c-0.098-0.462-0.93-0.189-0.72-0.96c-1.029,0.17-1.291,1.109-2.4,1.2c0.833-2.005-1.136-1.866-0.72-4.08
	c1.241,0.039,0.912,1.648,1.92,1.92c1.349-0.572,2.233-1.607,3.36-2.4C77.684,74.171,82.537,73.373,84.08,75.6z M79.04,77.04
	c1.329,0.129,1.916-0.484,1.68-1.92c-0.421,0.066-1.197-0.676-1.439,0C79.928,75.554,78.579,76,79.04,77.04z M75.44,75.6
	c-0.194,0.846-1.465,0.615-1.44,1.68c0.563,0.076,0.9,0.379,1.68,0.24C75.891,77.281,76.348,75.442,75.44,75.6z"/>
<path fill-rule="evenodd" clip-rule="evenodd" d="M36.32,76.8c-0.875,0.245-0.627,1.613-1.68,1.68
	C34.375,77.155,35.253,76.03,36.32,76.8z"/>
<path fill-rule="evenodd" clip-rule="evenodd" d="M58.4,76.8c-0.187,2.326-3.189,2.727-6.24,2.64c-0.42-0.54-0.603-1.318-1.2-1.68
	C53.028,76.496,55.479,77.019,58.4,76.8z"/>
<path fill-rule="evenodd" clip-rule="evenodd" d="M45.44,78.72c0.24,0,0.48,0,0.72,0c-0.28,1.878-0.943,4.526-0.72,6.72
	c0.096,0.949,0.946,1.637,0.48,2.4C43.168,87.262,45.015,81.187,45.44,78.72z"/>
<path fill-rule="evenodd" clip-rule="evenodd" d="M80.48,79.68c-1.298,1.762-6.248,2.062-6.961-0.48
	c1.188-0.342,2.118,0.929,3.601,0.96C78.33,80.185,79.343,79.007,80.48,79.68z"/>
<path fill-rule="evenodd" clip-rule="evenodd" d="M34.64,79.44c0.24,0,0.48,0,0.72,0c-0.357,2.029,0.292,3.867,0.96,5.52
	C34.174,84.564,34.057,81.189,34.64,79.44z"/>
<path fill-rule="evenodd" clip-rule="evenodd" d="M57.2,79.68c0.399,1.119-2.616,2.399-3.6,1.44
	C54.052,79.892,56.207,80.366,57.2,79.68z"/>
<path fill-rule="evenodd" clip-rule="evenodd" d="M69.92,88.56c-1.42-0.049-3.03,0.786-3.36-0.72
	c-0.682,0.119-0.346,1.255-1.44,0.96c0.005-0.565-0.414-0.707-0.24-1.44C66.129,86.288,70.074,86.147,69.92,88.56z"/>
<path fill-rule="evenodd" clip-rule="evenodd" d="M59.12,86.88c1.399,0.041,2.565,0.314,2.64,1.68
	C60.578,89.17,58.703,88.644,59.12,86.88z"/>
<path fill-rule="evenodd" clip-rule="evenodd" d="M85.52,88.08c0.24,0,0.48,0,0.721,0c-0.354,1.894,0.394,3.85,0.96,5.52
	c-0.734-0.174-0.706,0.414-1.44,0.24C85.885,91.765,84.276,89.789,85.52,88.08z"/>
<path fill-rule="evenodd" clip-rule="evenodd" d="M45.68,89.52c-0.029,0.691,0.131,1.571-0.24,1.92
	C44.448,91.297,44.482,89.407,45.68,89.52z"/>
<path fill-rule="evenodd" clip-rule="evenodd" d="M63.92,90.72c-0.086,1.514-0.612,2.588-0.96,3.84
	c-0.988-0.429-0.669-0.737-2.16-0.48c0.18-1.18-0.262-1.985,0-2.64C61.354,90.056,63.129,90.85,63.92,90.72z"/>
<path fill-rule="evenodd" clip-rule="evenodd" d="M59.36,90.72c0.627,0.944,1.126,3.124,0.96,4.08
	c-1.07-0.049-0.574-1.666-1.44-1.92c-0.544,0.496,0.056,2.136-0.72,2.4c3.535-0.133,8.655,0.072,12.48,0.96
	c0.181,0.9-0.917,0.523-0.96,1.2c-5.395,0.095-7.646-0.641-12.48-0.72c0.351-1.065-0.002-1.408,0-2.64
	c-0.656,0.6-0.198,0.923-0.24,1.92c-1.001-0.007-1.184-0.83-2.16-0.24c0.479-1.324-0.807-1.042-0.72-1.92
	c0.151-1.528,2.177-1.112,3.6-0.96C57.936,91.855,59.084,91.725,59.36,90.72z"/>
<path fill-rule="evenodd" clip-rule="evenodd" d="M65.84,90.72c1.199,0.533-0.291,2.332,0.48,3.36
	C64.717,93.901,65.11,91.492,65.84,90.72z"/>
<path fill-rule="evenodd" clip-rule="evenodd" d="M66.8,91.44c0.24,0,0.48,0,0.72,0c-0.088,1.108-0.295,1.381,0,2.4
	C66.235,94.133,66.432,92.043,66.8,91.44z"/>
<path fill-rule="evenodd" clip-rule="evenodd" d="M70.16,92.16c-0.597,0.363,0.147,2.067-0.48,2.4
	C68.513,94.477,68.688,91.722,70.16,92.16z"/>
<path fill-rule="evenodd" clip-rule="evenodd" d="M72.08,92.4c-0.491,1.159-0.188,2.169-0.72,2.88c-0.193-0.127-0.39-0.25-0.72-0.24
	C70.654,93.694,70.668,92.349,72.08,92.4z"/>
<path fill-rule="evenodd" clip-rule="evenodd" d="M73.52,93.36c0.279-0.039,0.428,0.053,0.48,0.24c0.58,0.65-0.264,1.333,0,2.4
	C72.34,96.241,73.196,93.93,73.52,93.36z"/>
<path fill-rule="evenodd" clip-rule="evenodd" d="M83.84,96.48c-0.766,0.206-0.742-0.377-1.2-0.48
	c-0.639,1.437-1.039,3.007-0.96,4.56c-2.637-0.319-0.42-3.252,0-4.32c0.543-1.38,0.727-1.912,1.681-2.64
	C84.385,93.695,83.589,95.611,83.84,96.48z"/>
<path fill-rule="evenodd" clip-rule="evenodd" d="M75.2,94.32c0.882-0.146,0.642,2.062-0.24,1.68
	C74.442,95.486,74.837,94.659,75.2,94.32z"/>
<path fill-rule="evenodd" clip-rule="evenodd" d="M85.04,96.48c0.913,0.354,0.586,2.762-0.72,2.4
	C84.216,97.736,84.357,96.837,85.04,96.48z"/>
<path fill-rule="evenodd" clip-rule="evenodd" d="M66.32,100.56c-1.588,0.207-3.417,0.898-4.8,0c-0.292-0.909,0.389-0.36,0.96-0.48
	C62.964,99.978,66,99.209,66.32,100.56z"/>
<path fill-rule="evenodd" clip-rule="evenodd" d="M84.32,99.6c0.48,0.6,0.197,1.975-0.721,1.92
	C83.119,100.919,83.402,99.545,84.32,99.6z"/>
<path fill-rule="evenodd" clip-rule="evenodd" d="M76.16,100.56c0.388-0.068,0.413,0.227,0.72,0.24
	c0.107,1.067-0.171,1.75-0.479,2.4C75.116,103.053,75.902,101.264,76.16,100.56z"/>
<path fill-rule="evenodd" clip-rule="evenodd" d="M81.92,101.04c0.388-0.067,0.413,0.227,0.72,0.24
	c0.024,0.744-0.108,1.331-0.479,1.68C81.059,102.875,81.522,101.522,81.92,101.04z"/>
<path fill-rule="evenodd" clip-rule="evenodd" d="M62.48,101.76c1.032,0.418,0.568,1.558,2.16,0.96
	c-0.326,1.515-1.173,2.507-1.68,3.84c-0.746-0.387-0.638-2.476,0-2.88C62.66,103.176,61.86,102.45,62.48,101.76z"/>
<path fill-rule="evenodd" clip-rule="evenodd" d="M80.24,101.76c0.807,0.154,0.769,1.151,0.72,2.16
	c-2.592,2.007,0.032,6.757-1.92,8.88c-1.046-0.245-0.633-1.479-0.24-2.16c-0.085-1.595-0.373-2.987-0.24-4.8
	c-1.065-0.499-1.212,1.982-2.64,1.92c-0.101-1.656,1.434-3.66,2.64-4.8c1.119-0.21-0.33,0.623,0.48,0.72
	C79.947,103.547,79.315,101.875,80.24,101.76z"/>
<path fill-rule="evenodd" clip-rule="evenodd" d="M49.52,102.24c1.567,0.528,0.859,2.371,0.96,4.32c0.064,1.233,1.204,4.715-0.24,6
	c-1.188-0.694-0.189-2.294-0.24-3.36c-0.029-0.613-0.394-1.046-0.48-1.68C49.26,105.608,49.845,103.633,49.52,102.24z"/>
<path fill-rule="evenodd" clip-rule="evenodd" d="M65.36,103.44c1.176-0.056,1.257,0.983,1.44,1.92
	C65.511,105.529,65.43,104.49,65.36,103.44z"/>
<path fill-rule="evenodd" clip-rule="evenodd" d="M74,103.92c0.32,0,0.64,0,0.96,0c-0.313,0.966-0.069,2.491-1.2,2.64
	C73.202,105.827,73.765,104.61,74,103.92z"/>
<path fill-rule="evenodd" clip-rule="evenodd" d="M56.72,104.16c0.653,0.147,0.941,0.659,0.96,1.44
	C56.692,105.784,56.169,104.782,56.72,104.16z"/>
<path fill-rule="evenodd" clip-rule="evenodd" d="M59.6,104.64c0.703-0.063,0.737,0.542,1.44,0.48
	c0.055,2.147-1.882,2.542-3.12,2.16C58.261,106.181,58.678,105.158,59.6,104.64z"/>
<path fill-rule="evenodd" clip-rule="evenodd" d="M70.4,105.36c0.279,0.202,0.643,0.317,1.2,0.24
	c-0.146,0.653-0.659,0.94-1.439,0.96C69.894,105.807,70.048,105.926,70.4,105.36z"/>
<path fill-rule="evenodd" clip-rule="evenodd" d="M52.16,105.84c1.175,0.429-0.07,2.233-0.72,2.4
	C50.943,107.509,51.837,106.509,52.16,105.84z"/>
<path fill-rule="evenodd" clip-rule="evenodd" d="M68.24,107.04c0.279-0.039,0.427,0.053,0.479,0.24c0.627,0.747-0.255,1.521,0,2.64
	C66.764,110.208,67.754,107.688,68.24,107.04z"/>
<path fill-rule="evenodd" clip-rule="evenodd" d="M53.6,107.52c0.388-0.068,0.413,0.227,0.72,0.24c-0.16,1.04-0.426,1.974-1.44,2.16
	C52.244,109.049,53.267,108.178,53.6,107.52z"/>
<path fill-rule="evenodd" clip-rule="evenodd" d="M72.32,107.76c-0.075,0.726,0.267,1.867-0.48,1.92
	C70.547,109.729,71.12,107.381,72.32,107.76z"/>
<path fill-rule="evenodd" clip-rule="evenodd" d="M76.88,107.76c0.976-0.226,0.832,1.3,0.48,1.68
	C76.597,109.229,76.547,108.476,76.88,107.76z"/>
<path fill-rule="evenodd" clip-rule="evenodd" d="M73.76,109.2c0.943-0.025,0.854,1.438-0.24,1.2
	C73.443,109.843,73.559,109.479,73.76,109.2z"/>
<path fill-rule="evenodd" clip-rule="evenodd" d="M70.88,111.12c-1.161,1.229-3.809,0.822-6.24,0.72
	c-1.274-0.053-2.741,0.22-3.84-0.24c1.103-1.724,3.633-0.461,5.76-0.48C68.093,111.106,69.675,110.054,70.88,111.12z"/>
<path fill-rule="evenodd" clip-rule="evenodd" d="M49.04,113.76c-3.325,0.995-5.486,3.155-8.16,4.8c0.961-3.199,4.798-3.522,6.48-6
	C48.225,112.655,48.889,112.951,49.04,113.76z"/>
<path fill-rule="evenodd" clip-rule="evenodd" d="M71.84,120c-0.082,0.486,0.796,2.111-0.72,1.92c0.275-0.995-0.505-0.935-0.48-1.68
	C70.918,120.039,71.283,119.923,71.84,120z"/>
<path fill-rule="evenodd" clip-rule="evenodd" d="M39.44,120.96c-1.255-0.732-0.957,0.125-2.16,0.48
	c0.276,0.284,0.272,0.848,0.24,1.44c-0.351-0.209-0.929-0.19-0.72-0.96c-0.829,0.591-0.567,3.35-1.92,2.64
	c-0.341-0.682,0.599-1.328,0.96-2.16c0.099-0.228-0.15-0.769,0-0.96C36.572,120.509,38.618,119.37,39.44,120.96z"/>
<path fill-rule="evenodd" clip-rule="evenodd" d="M60.32,126c-1.265,0.065-1.15-1.25-1.44-2.16c-1.288-0.178-2.165-1.319-3.6-1.44
	c-1.104-0.093-3.039,0.502-3.6-0.96c-0.385-0.944,1.036-0.083,0.96-0.72C56.22,121.309,60.992,121.956,60.32,126z"/>
<path fill-rule="evenodd" clip-rule="evenodd" d="M77.6,121.44c-0.398,1.237-2.43,0.588-1.92,2.16
	c-1.799-0.907-4.083-0.322-5.04,0.96c0.08,0.85,0.661,0.59,0.24,1.44c-0.896,0.257-0.684-0.596-1.44-0.48
	c0.034-3.966,4.608-3.392,7.44-4.56C77.073,121.167,77.537,121.103,77.6,121.44z"/>
<path fill-rule="evenodd" clip-rule="evenodd" d="M64.64,123.36c0.667,0.133,0.614,0.986,1.44,0.96
	c0.062,0.783-0.285,1.155-0.96,1.2C64.425,124.841,64.964,124.411,64.64,123.36z"/>
<path fill-rule="evenodd" clip-rule="evenodd" d="M34.88,125.04c-0.114,0.846-0.763,1.156-1.2,1.68
	c-0.297,0.777,0.776,0.184,0.48,0.96c-0.827,1.493-0.821,3.82-2.16,4.8C32.593,130.314,31.79,124.571,34.88,125.04z"/>
<path fill-rule="evenodd" clip-rule="evenodd" d="M52.4,125.52c0.988-0.184,1.511,0.818,0.96,1.44
	C52.532,126.988,52.244,126.476,52.4,125.52z"/>
<path fill-rule="evenodd" clip-rule="evenodd" d="M58.88,127.68c0.516,0.604,1.294,0.946,1.2,2.16
	C59.037,129.824,58.377,128.48,58.88,127.68z"/>
<path fill-rule="evenodd" clip-rule="evenodd" d="M62.48,132.24c0.87-0.23,0.244,1.036,0.72,1.2c0.278,0.842,1.213,1.027,1.2,2.16
	C63.1,136.197,61.292,133.332,62.48,132.24z"/>
<path fill-rule="evenodd" clip-rule="evenodd" d="M26.24,190.56c-1.297-0.522-0.271-1.981-0.24-2.88
	c0.034-0.958-0.255-2.146-0.24-3.12c0.058-3.729,0.18-7.967,0.48-12.24c0.189-2.696-0.137-5.66,0-8.4
	c0.053-1.071,0.473-2.136,0.48-3.12c0.004-0.663-0.29-1.254-0.24-1.92c0.292-3.892,1.416-9.015,2.4-12.96
	c0.497-1.99,0.427-3.814,0.72-6c0.111-0.825,0.479-1.637,0.72-2.4c0.223-0.707-0.026-1.886,0.96-2.16
	c0.937,1.487-0.74,2.753-0.96,4.32c-0.101,0.721,0.263,1.638,0.24,2.4c-0.049,1.672-0.707,2.91-1.2,4.32
	c-0.012,2.599-0.771,6.392-1.68,8.88c-0.202,8.5-0.493,15.952-0.72,24.24C26.852,183.481,27.478,187.838,26.24,190.56z"/>
<path fill-rule="evenodd" clip-rule="evenodd" d="M65.36,139.44c0.24,0,0.48,0,0.72,0c0,0.24,0,0.48,0,0.72c-0.24,0-0.48,0-0.72,0
	C65.36,139.92,65.36,139.68,65.36,139.44z"/>
<path fill-rule="evenodd" clip-rule="evenodd" d="M66.08,140.64c0.24,0,0.48,0,0.72,0c-0.12,0.755,0.523,0.938,0,1.44
	C65.94,142.22,66.07,141.37,66.08,140.64z"/>
<path fill-rule="evenodd" clip-rule="evenodd" d="M72.56,142.8c0.628-0.067,1.033,0.088,0.96,0.72
	c-0.213,0.186-0.541,0.258-0.96,0.24C72.56,143.44,72.56,143.12,72.56,142.8z"/>
<path fill-rule="evenodd" clip-rule="evenodd" d="M79.52,144c-0.517,0.923-1.072,1.808-1.68,2.64
	c-0.956,0.157-0.688-0.913-0.72-1.68C78.042,144.823,78.347,143.125,79.52,144z"/>
<path fill-rule="evenodd" clip-rule="evenodd" d="M67.04,144c1.012,0.268,0.752,1.808,1.2,2.64
	C66.488,147.714,65.778,144.719,67.04,144z"/>
<path fill-rule="evenodd" clip-rule="evenodd" d="M52.16,147.12c-1.377,0.586-3.072-0.396-3.12-1.92
	C50.14,145.003,52.135,145.495,52.16,147.12z"/>
<path fill-rule="evenodd" clip-rule="evenodd" d="M84.08,145.44c-0.414,0.946-1.15,1.57-1.68,2.4
	C80.723,147.203,82.697,144.452,84.08,145.44z"/>
<path fill-rule="evenodd" clip-rule="evenodd" d="M54.8,146.16c1.925-0.005,3.091,0.75,3.36,2.4c-1.689,0.195-0.989-1.37-2.64-0.72
	C55.612,146.948,54.547,147.212,54.8,146.16z"/>
<path fill-rule="evenodd" clip-rule="evenodd" d="M29.6,146.88c0.104-0.295,0.307-0.493,0.72-0.48
	C30.529,147.232,29.951,147.223,29.6,146.88z"/>
<path fill-rule="evenodd" clip-rule="evenodd" d="M57.2,151.44c0.888,0.693,2.732,1.23,1.92,2.88c-1.281-0.239-1.625-1.416-2.4-2.16
	C56.588,151.628,57.178,151.818,57.2,151.44z"/>
<path fill-rule="evenodd" clip-rule="evenodd" d="M28.88,152.4c0.16,0,0.32,0,0.48,0c0,0.16,0,0.32,0,0.48c-0.16,0-0.32,0-0.48,0
	C28.88,152.72,28.88,152.56,28.88,152.4z"/>
<path fill-rule="evenodd" clip-rule="evenodd" d="M93.92,155.28c-0.423,1.239-1.987,2.125-2.88,0.96
	C91.227,155.123,93.294,153.789,93.92,155.28z"/>
<path fill-rule="evenodd" clip-rule="evenodd" d="M47.12,158.16c-0.214,0.106-0.429,0.21-0.48,0.48
	c-1.35-0.06-2.262-1.155-2.16-1.92C44.71,154.994,47.209,156.048,47.12,158.16z"/>
<path fill-rule="evenodd" clip-rule="evenodd" d="M66.56,159.12c0.655-0.175,0.483,0.477,0.96,0.48
	c0.024,0.744-0.109,1.331-0.48,1.68C65.63,161.448,66.089,159.62,66.56,159.12z"/>
<path fill-rule="evenodd" clip-rule="evenodd" d="M65.36,166.56c0.1,1.244-2.014,0.644-2.64,0.48c0-0.24,0-0.48,0-0.72
	C63.2,166.015,65.235,165.759,65.36,166.56z"/>
<path fill-rule="evenodd" clip-rule="evenodd" d="M70.4,167.28c0.24,0,0.48,0,0.72,0c0.343,0.856,0.853,1.547,0.96,2.64
	C70.714,169.846,70.441,168.679,70.4,167.28z"/>
<path fill-rule="evenodd" clip-rule="evenodd" d="M110.72,178.8c0.748,1.156-1.396,1.844-2.399,1.2
	C108.437,178.917,109.536,178.816,110.72,178.8z"/>
<path fill-rule="evenodd" clip-rule="evenodd" d="M67.04,179.28c-0.013,1.348-0.923,1.797-1.92,2.16
	C65.26,180.22,65.815,179.416,67.04,179.28z"/>
<path fill-rule="evenodd" clip-rule="evenodd" d="M61.28,183.12c-0.485,0.555-0.798,1.282-1.68,1.44
	c-0.106-0.214-0.211-0.429-0.48-0.48C59.379,183.168,60.449,182.068,61.28,183.12z"/>
<path fill-rule="evenodd" clip-rule="evenodd" d="M69.44,184.08c0.06,1.18-0.149,2.091-0.72,2.64
	C67.396,186.644,67.871,183.509,69.44,184.08z"/>
<path fill-rule="evenodd" clip-rule="evenodd" d="M74.48,185.28c0.194,1.474-1.135,1.425-1.921,1.92
	C71.788,185.998,73.476,185.476,74.48,185.28z"/>
<path fill-rule="evenodd" clip-rule="evenodd" d="M69.68,188.88c-0.583,0.777-1.062,1.659-1.92,2.16
	c-0.371-0.349-0.211-1.229-0.24-1.92C68.25,189.046,68.956,188.226,69.68,188.88z"/>
<path fill-rule="evenodd" clip-rule="evenodd" d="M72.08,192.48c0.628-0.068,1.032,0.087,0.96,0.72
	c-0.214,0.186-0.542,0.258-0.96,0.24C72.08,193.12,72.08,192.8,72.08,192.48z"/>
<path fill-rule="evenodd" clip-rule="evenodd" d="M64.4,195.84c-0.703,1.297-1.522,2.478-2.16,3.84
	c-1.193-0.513-0.044-2.517,0.24-3.12c-0.134-0.542-0.375,0.291-0.72-0.24C61.524,193.822,63.718,194.863,64.4,195.84z"/>
<path fill-rule="evenodd" clip-rule="evenodd" d="M70.64,195.36c0.948,0.252,1.989,0.411,2.16,1.44
	C71.935,197.302,70.626,196.503,70.64,195.36z"/>
<path fill-rule="evenodd" clip-rule="evenodd" d="M68.24,197.76c-0.01,0.74-1.273,0.858-1.68,0.48
	C66.374,197.312,68.029,196.848,68.24,197.76z"/>
<path fill-rule="evenodd" clip-rule="evenodd" d="M64.88,198.24c-0.164,1.355-0.973,2.067-2.16,2.4
	C62.764,199.164,63.346,198.226,64.88,198.24z"/>
<path fill-rule="evenodd" clip-rule="evenodd" d="M72.08,198.24c0.935-0.186,1.338,0.793,0.96,1.2
	C72.152,199.607,71.979,199.061,72.08,198.24z"/>
<path fill-rule="evenodd" clip-rule="evenodd" d="M67.04,200.64c0.722-0.242,0.425,0.535,0.48,0.96
	c0.282,0.758,1.245,0.835,1.68,1.44c0.301,3.337-3.178,2.654-5.52,2.16c0.066-0.974,0.763-1.317,0.48-2.64
	C65.394,202.349,66.548,200.795,67.04,200.64z"/>
<path fill-rule="evenodd" clip-rule="evenodd" d="M61.04,202.8c-0.2,0.84-1.104,0.977-2.16,0.96
	C58.584,202.574,60.388,202.242,61.04,202.8z"/>
<path fill-rule="evenodd" clip-rule="evenodd" d="M100.88,203.76c0.21,0.799-0.683,1.203-1.2,1.68
	c-1.025,0.946-1.793,1.724-3.12,2.64c-2.532,1.749-6.615,2.521-10.56,3.84c-0.947,0.317-1.802,1.021-2.64,1.2
	c-0.703,0.15-1.599-0.084-2.4,0c-2.1,0.22-4.059,1.594-6,1.92c-3.511,0.589-7.629-0.408-11.52-0.72c-1.129-0.09-2.308,0.133-3.36,0
	c-0.671-0.084-1.229-0.565-1.92-0.72c-1.951-0.436-4.181-0.168-6.24-0.48c-1.358-0.206-2.719-0.928-4.08-1.2
	c-1.109-0.222-2.249,0.009-3.36-0.24c-0.782-0.175-1.397-0.784-2.16-0.96c-2.464-0.567-5.161-0.613-7.44-1.439
	c3.387-1.03,8.028,1.073,11.76,1.68c0.849,0.138,1.671,0.062,2.4,0.24c0.762,0.185,1.402,0.572,2.16,0.72
	c1.233,0.241,2.588-0.115,3.84,0c2.429,0.224,4.13,1.446,7.2,1.2c0.067-0.981,0.156-3.135,2.16-2.88
	c-0.267,1.173-1.185,1.694-1.44,2.88c3.812,0.753,6.432,0.918,11.28,0.72c0.441-0.203-1.478-0.869-0.48-1.68
	c1.012-0.051,0.846,1.074,1.44,1.44c1.737-0.308,3.2-1.385,5.04-1.68c0.707-0.113,1.625,0.15,2.399,0
	c0.981-0.19,1.793-0.85,2.88-1.2c3.823-1.231,8.226-1.815,10.801-3.84c1.407-1.106,2.202-2.762,3.84-3.36
	C100.548,203.452,100.573,203.747,100.88,203.76z"/>
<path fill-rule="evenodd" clip-rule="evenodd" d="M71.12,204.24c0.17,0.89-0.41,1.03-0.24,1.92
	C70.017,206.146,69.67,203.875,71.12,204.24z"/>
<path fill-rule="evenodd" clip-rule="evenodd" d="M72.32,206.88c0.898-0.019,0.818,0.941,0.96,1.68
	C72.209,208.768,71.84,207.48,72.32,206.88z"/>
<path fill-rule="evenodd" clip-rule="evenodd" d="M62,208.08c-0.671,1.329-2.356,1.644-3.36,2.64c-0.304-1.259-1.133,0.862-1.92,0
	c0-0.399,0-0.8,0-1.2c0.615-0.218,1.361-0.389,1.68,0.24C59.426,209.024,60.375,206.757,62,208.08z"/>
<path fill-rule="evenodd" clip-rule="evenodd" d="M66.8,207.6c0.355,0.125,0.605,0.355,0.96,0.48c-0.281,0.359-0.298,0.981-0.72,1.2
	C66.142,209.139,66.282,207.952,66.8,207.6z"/>
<path fill-rule="evenodd" clip-rule="evenodd" d="M57.68,207.84c-1.09,1.63-4.411,1.03-4.8,3.36c-0.7,0.06-0.828-0.452-1.2-0.72
	c0.316-1.284,1.883-1.316,2.4-2.4C55.843,208.39,56.075,208.014,57.68,207.84z"/>
<path fill-rule="evenodd" clip-rule="evenodd" d="M77.12,209.52c0.38,0.02,0.915-0.116,0.96,0.24
	C78.342,210.603,76.607,210.403,77.12,209.52z"/>
<path fill-rule="evenodd" clip-rule="evenodd" d="M71.84,210c0.8,0.16,1.303,0.617,1.2,1.68
	C71.804,211.991,71.319,210.696,71.84,210z"/>
<path fill-rule="evenodd" clip-rule="evenodd" d="M68.24,210.72c-0.129,0.929,0.428,1.172,0.24,2.16
	c-0.843,0.043-0.79-0.811-1.44-0.96c0.137,0.777-0.073,1.207-0.48,1.44c-0.655,0.175-0.483-0.477-0.96-0.48
	C65.539,211.219,67.242,211.322,68.24,210.72z"/>
<path fill-rule="evenodd" clip-rule="evenodd" d="M69.2,211.2c0.741,0.299,1.795,0.284,1.68,1.44
	C70.222,213.063,69.025,212.366,69.2,211.2z"/>
<path fill-rule="evenodd" clip-rule="evenodd" d="M34.64,217.92c0.006-0.233,0.293-0.186,0.48-0.24
	c4.468,1.597,11.289,3.428,16.8,3.601c1.597,0.05,2.87-0.765,3.84,0.479c-0.54,1.477-2.935,0.91-4.56,0.721
	c-4.204-0.491-9.312-1.561-13.2-2.161C37.229,219.171,35.819,218.661,34.64,217.92z"/>
<path fill-rule="evenodd" clip-rule="evenodd" d="M28.64,236.4c0.279-0.039,0.427,0.053,0.48,0.239
	c-0.351,3.791,1.844,5.036,2.16,8.16c-0.973-0.043-1.49-1.646-1.92-2.64C28.514,240.203,27.658,238.334,28.64,236.4z"/>
<path fill-rule="evenodd" clip-rule="evenodd" d="M92.24,307.92c-1.674-0.326-3.016-0.984-3.36-2.64
	C90.463,304.789,91.737,306.545,92.24,307.92z"/>
<path fill-rule="evenodd" clip-rule="evenodd" d="M79.04,306.48c0.24,0,0.479,0,0.72,0c0.2,1.8,0.967,3.033,1.92,4.079
	C79.425,311.331,78.548,307.906,79.04,306.48z"/>
<path fill-rule="evenodd" clip-rule="evenodd" d="M84.08,306.48c0.32,0,0.64,0,0.96,0c0.024,0.803,0.399,1.317,0,2.159
	c-0.597,0.037-0.743-0.377-1.2-0.479C83.843,307.522,83.749,306.789,84.08,306.48z"/>
<path fill-rule="evenodd" clip-rule="evenodd" d="M66.08,308.88c0.864,0.409,0.523,3.057,0.24,3.84
	C65.128,312.547,65.449,309.417,66.08,308.88z"/>
<path fill-rule="evenodd" clip-rule="evenodd" d="M87.2,312.48c1.183,0.178,1.691,1.028,1.68,2.399
	C87.672,314.815,86.703,313.477,87.2,312.48z"/>
<path fill-rule="evenodd" clip-rule="evenodd" d="M63.92,316.32c0.082,1.281-0.51,1.89-0.96,2.64
	C61.411,318.617,62.66,316.111,63.92,316.32z"/>
<path fill-rule="evenodd" clip-rule="evenodd" d="M86.96,322.56c1.322,0.038,1.493,1.228,1.68,2.4
	C87.274,325.053,86.408,323.612,86.96,322.56z"/>
<path fill-rule="evenodd" clip-rule="evenodd" d="M56.96,322.8c0.388-0.067,0.413,0.227,0.72,0.24
	C57.775,323.506,56.587,323.391,56.96,322.8z"/>
<path fill-rule="evenodd" clip-rule="evenodd" d="M66.32,325.68c-0.765,1.155-2.495,1.346-2.64,3.12
	C61.626,327.607,65.082,324.304,66.32,325.68z"/>
<path fill-rule="evenodd" clip-rule="evenodd" d="M77.12,325.44c-0.312,0.967-0.96,1.6-2.16,1.68
	C74.962,325.805,75.993,324.914,77.12,325.44z"/>
<path fill-rule="evenodd" clip-rule="evenodd" d="M83.6,329.52c-0.149,0.73-0.532,1.228-1.439,1.2
	c-1.18,1.062-1.781,2.699-3.601,3.12c0.257-1.69,2.638-3.263,3.36-5.28C82.893,328.468,83.024,329.215,83.6,329.52z"/>
<path fill-rule="evenodd" clip-rule="evenodd" d="M66.08,329.52c0.388-0.067,0.413,0.228,0.72,0.24
	c-0.306,2.236-1.076,5.079-0.48,7.44C63.834,337.125,65.263,331.286,66.08,329.52z"/>
<path fill-rule="evenodd" clip-rule="evenodd" d="M89.12,329.52c0.513,1.303-2.153,1.351-1.92,0.24
	C87.549,329.389,88.429,329.549,89.12,329.52z"/>
<path fill-rule="evenodd" clip-rule="evenodd" d="M60.8,331.68c-0.977-0.062-1.628-0.451-2.4-0.72
	C58.753,330.047,61.162,330.374,60.8,331.68z"/>
<path fill-rule="evenodd" clip-rule="evenodd" d="M67.52,337.92c-0.153,2.407-2.199,2.921-2.88,4.8c0.367,1.233,2.76,0.439,3.6,1.2
	c0.387,0.814-0.263,1.523-0.72,2.16c1.433,0.789,0.164,2.337,0.24,3.84c1.178,0.218,0.915-1.006,1.92-0.96
	c-0.139,1.447-0.487,2.317-0.48,3.36c-0.734-0.706-1.578-1.303-2.64-1.681c-0.1-1.299,0.518-1.882,0.72-2.88
	c0.063-0.783-0.932-0.509-0.96-1.2c-0.129-0.929,0.612-0.988,0.72-1.68c-1.546-0.854-3.023-0.381-3.36-1.92
	c-0.445-2.032,2.609-3.168,2.88-5.04C66.88,337.92,67.2,337.92,67.52,337.92z"/>
<path fill-rule="evenodd" clip-rule="evenodd" d="M77.12,338.16c0.32,0,0.64,0,0.96,0c-0.143,0.497,0.297,1.576-0.24,1.68
	C77.021,339.858,77.129,338.951,77.12,338.16z"/>
<path fill-rule="evenodd" clip-rule="evenodd" d="M86,339.36c1.288,0.951,2.729,1.75,3.6,3.12
	C88.023,342.871,85.351,341.194,86,339.36z"/>
<path fill-rule="evenodd" clip-rule="evenodd" d="M82.64,344.88c0.24,0,0.48,0,0.721,0c-0.222,2.222,1.083,2.917,1.92,4.08
	C83.132,349.907,81.539,346.458,82.64,344.88z"/>
<path fill-rule="evenodd" clip-rule="evenodd" d="M87.44,348.96c-1.258-0.103-2.278-0.442-2.4-1.68
	C85.635,347.186,87.725,347.402,87.44,348.96z"/>
<path fill-rule="evenodd" clip-rule="evenodd" d="M63.44,351.84c1.167,0.033,1.142,2.268,0.72,3.12
	C63.085,354.835,63.059,352.652,63.44,351.84z"/>
<path fill-rule="evenodd" clip-rule="evenodd" d="M47.36,372.24c-0.63,0.963,0.084,1.952-0.24,2.64
	c-1.254,2.66-5.551,1.307-6.72-0.72c1.612-0.672,2.417,1.379,4.56,0.96c0.315-0.085,0.377-0.423,0.72-0.48
	c0.192-0.832-0.358-0.922-0.24-1.68C46.119,372.591,46.462,371.744,47.36,372.24z"/>
<path fill-rule="evenodd" clip-rule="evenodd" d="M83.6,378.96c-1.357,0.237-1.331-0.908-2.159-1.2
	c-1.336-0.409-1.632,1.073-2.4,0.48C79.697,375.443,83.294,376.823,83.6,378.96z"/>
<path fill-rule="evenodd" clip-rule="evenodd" d="M77.84,379.2c-0.718,0.542-1.142-0.813-1.68-1.2
	c-1.908,0.859-4.256,1.371-5.76-0.24c0.407-1.012,2.132-0.14,2.64,0.24C74.647,376.411,78.311,376.658,77.84,379.2z"/>
<path fill-rule="evenodd" clip-rule="evenodd" d="M89.36,377.52c0.16,1.041-1.114,0.646-1.92,0.721c0-0.24,0-0.48,0-0.721
	C87.789,377.167,89.011,377.167,89.36,377.52z"/>
<path fill-rule="evenodd" clip-rule="evenodd" d="M86.24,377.52c0.344,1.199-1.233,1.176-1.2,0.24
	C85.318,377.559,85.684,377.443,86.24,377.52z"/>
<path fill-rule="evenodd" clip-rule="evenodd" d="M68.24,383.28c-3.706,0.265-5.274-1.606-7.92-2.4
	c-0.159-0.545-0.62-2.013,0.24-2.16c0.87-0.229,0.244,1.036,0.72,1.2c1.856,0.686,4.05,2.543,6.24,2.16
	c1.637-0.287,1.667-1.939,3.36-2.16C71.514,381.646,69.005,382.167,68.24,383.28z"/>
<path fill-rule="evenodd" clip-rule="evenodd" d="M70.88,381.12c1.746-0.146,2.337,0.863,3.601,1.2
	c1.171-0.429,1.489-1.711,2.88-1.92c1.756,1.55,4.405,1.296,6-0.24c0.947,0.093,1.305,0.775,1.92,1.2
	c1.144-0.921,2.541-1.193,3.84-0.24c0.976-0.305,0.535-2.025,1.439-2.4c1.758,0.643-0.008,2.906-0.479,3.601
	c-2.462-0.12-2.85-0.53-4.8,0.239c-0.878-0.002-1.286-0.474-1.681-0.96c-1.493,1.222-4.599,1.692-6.239,0.24
	c-1.046,0.155-1.152,1.248-2.16,1.44C73.05,383.27,71.507,382.653,70.88,381.12z"/>
<path fill-rule="evenodd" clip-rule="evenodd" d="M81.2,42.48c0.489,0.299,0.612-0.226,0.96-0.48c1.005-0.737,3.489-2.929,3.84-4.32
	c0.322-1.278-0.765-3.385,0.72-4.32c1.017,3.105,0.249,5.337,0.96,8.64c1.362-0.398,1.807-1.714,1.681-3.6c0.239,0,0.479,0,0.72,0
	c0.504-1.816,0.736-3.904,1.439-5.52c1.201,3.892-1.742,5.993-0.96,9.6c1.363-1.117,1.593-3.368,2.881-4.56
	c-0.202,2.039-1.093,3.387-1.921,4.8c0.433,1.088,0.171,2.87,0.24,4.32c0.557-0.688,1.277-1.588,1.681-2.64
	c0.387-1.01,0.104-2.617,1.199-3.12c-0.143,3.857-2.124,5.875-3.359,8.64c0.118,1.162,0.816,1.743,0.96,2.88
	c0.878-0.082,1.098-0.821,1.439-1.44c-0.206-0.594-1.67,0.071-1.92-0.48c3.417-0.583,4.027-3.973,4.561-7.44
	c0.795,0.004,0.243,1.356,0.72,1.68c1.712-2.42-0.104-6.502-0.48-9.12c2.386,2.322,3.162,9.407,1.921,13.44
	c-0.463,1.501-1.536,2.759-2.641,3.6c-0.678-0.835,1.259-2.257,1.68-3.84c0.23-0.863,0.087-1.87,0.24-2.88
	c-1.749,2.331-2.899,5.261-4.8,7.44c0.266,1.734,1.934,2.066,1.92,4.08c-0.388,0.068-0.413-0.227-0.72-0.24
	c0.229,1.61,0.674,3.006,0.479,5.04c0.994,1.728,2.263,3.629,2.16,5.76c-1.411-1.104-0.876-5.499-3.6-3.84
	c-0.571-1.349-1.039-2.801-2.641-3.12c-0.689-3.47-2.221-6.099-3.359-9.12c1.585,0.495,1.865,2.294,2.64,3.6
	c0.349-2.11-0.787-4.811-2.16-6c-0.896,0.333-0.124,1.801-0.479,2.16c-0.388,0.067-0.413-0.227-0.72-0.24
	c-0.533,0.827-1.186,1.535-2.16,1.92c-0.628,2.093-1.55,3.891-1.44,6.72c0.938-1.622,1.155-3.965,2.16-5.52
	c-0.464,2.861-1.47,8.39-1.68,11.52c0.176,1.024,1.697,0.703,1.68,1.92c-0.578-0.098-0.521,0.438-1.2,0.24
	c0.654,0.638,2.091,0.022,2.641-0.24c-0.222-3.555-0.33-7.235,0.96-9.84c0.697,0.922-0.329,2.79-0.48,4.56
	c-0.207,2.424,0.277,4.922,0.24,6.48c0.86-0.22,0.704-1.863,0.72-2.88c0.024-1.603-0.173-3.361-0.24-4.32
	c1.268,0.982,0.525,3.201,0.96,4.56c0.75,0.11,0.768-0.513,0.721-1.2c1.111,2.809,1.962,5.878,3.359,8.4
	c0.408,0.088,0.453-0.188,0.48-0.48c0.979,1.381,2.013,2.067,2.16,3.6c0.163,1.696-1.388,3.082-1.44,4.56
	c-0.102,2.858,2.35,4.437,4.08,6.24c-2.791,0.549-3.833-2.726-4.8-4.8c-0.636,0.564-0.901,1.499-1.44,2.16
	c0.633,1.607,1.889,2.591,2.16,4.56c-0.912-0.368-1.248-1.312-1.92-1.92c-0.881,0.605-0.442,1.037-0.48,2.4
	c-0.73-0.149-1.227-0.533-1.199-1.44c-1.725,1.44-1.12,4.703,0,5.52c-1.842,0.761-2.828-2.759-1.681-4.32
	c-0.775-0.57-1.976-1.773-1.199-3.12c0.73,0.149,0.469,1.291,1.199,1.44c0.319-0.241,0.894-0.227,0.96-0.72
	c-0.591-1.643-2.354-2.179-2.88-4.08c-0.896-3.25,0.499-7.559,0.721-11.28c-0.207-0.594-1.671,0.071-1.921-0.48
	c0.471-1.123,2.335,0.469,2.16-1.44c-0.267-0.967-1.32,0.097-2.399-0.24c0.308-0.412,1.143-0.297,1.2-0.96
	c-1.718,0.599-3.628-0.425-5.761-0.72c-0.201-0.519-0.621-0.819-0.479-1.68c-1.623,0.377-2.608,1.392-4.08,1.92
	c0.187-0.213,0.258-0.542,0.24-0.96c-1.21-0.169-1.195,0.885-2.16,0.96c0.205-0.836-0.378-0.832-0.48-0.24
	c-0.697-0.334,0.068-1.185,0.24-1.44c-0.617-0.856-1.036,1.31-1.68,0.48c0.059-1.461,1.577-1.463,2.16-2.4
	c-2.065,0.021-2.189,2.971-4.081,2.4c0.055,1.095-0.404,1.676-0.72,2.4c-0.989,0.189-0.451-1.149-1.44-0.96
	c-0.662,0.618-0.314,2.246-1.44,2.4c-0.942-1.585,0.922-2.217,0.48-4.08c1.065-0.375,1.674-1.206,1.92-2.4
	c0.524,0.035,0.515,0.604,0.48,1.2c0.841-0.119,0.685-1.235,1.44-1.44c1.606,0.153,2.326,0.265,3.12-0.72
	c0.863,0.553,0.499,1.045,1.2,1.92c1.347-0.537,2.376,0.01,2.88,0.96c1.246-0.335,2.116-1.846,3.84-0.96
	c1.548-1.482-0.121-3.289-0.24-5.04c-0.281-4.124,2.242-7.273,3.84-10.08c-1.293,0.387-1.567,1.792-3.12,1.92
	c-1.295,1.825-1.859,4.38-1.92,7.44c-0.237,0.9,1.18,0.523,0.48,1.2c-1.034,0.314-0.759-0.681-1.2-0.96
	c0.057-2.542,0.161-4.171,0.96-6.48c0.521-1.508,2.169-2.876,1.68-4.56c-0.408-0.088-0.452,0.187-0.479,0.48
	c-1.243-2.997-2.195-6.284-5.04-7.68c1.413,2.746,3.747,4.573,3.36,9.12c-1.578,2.011-3.383,7.452-0.961,9.84
	c-1.204,0.16-1.573-2.583-2.399-3.6c0.558-0.587,0.63-2.029,0.24-2.88c2.761-3.643-0.249-8.91-2.4-11.28
	c-0.734,1.222,0.477,2.558,0.96,3.36c-0.485,1.114-0.528,2.671-0.479,4.32c-0.868,0.227-0.335-0.945-0.48-1.44
	C73.246,50.453,73.422,52,73.28,54c-1.201,0.905-2.509,4.084-2.88,6.24c-0.164,0.95,0.092,1.878,0.48,2.64
	c-0.899,0.18-1.169-0.271-1.2-0.96c-0.787,0.014-0.917,0.683-1.92,0.48c0.251-0.789,1.084-0.996,1.44-1.68
	c-1.247-1.563,0.066-4.215-0.96-6c-1.084,0.756-0.934,2.747-0.96,4.561c-0.119,0.758,1.19,0.089,0.96,0.96c-0.4,0-0.8,0-1.2,0
	c-1.519-2.435-1.323-6.389-0.24-9.12c-0.223-1.092-1.503,0.123-1.92-0.48c0.054-0.747,1.194-0.406,1.92-0.48
	c0.722-1.078,1.794-2.832,0.96-4.08c-2.11,1.169-3.927,2.632-4.32,5.52c0.058,0.422,0.413,0.547,0.96,0.48
	c-0.894,1.978-1.344,5.163-1.2,7.44c-1.251-0.109-0.817-1.803-0.96-2.64c-0.064-0.373-0.468-0.838-0.48-1.2
	c-0.076-2.356,1.739-4.845,0.72-6.48c-0.96-0.305-0.917,1.621-0.48,1.92c-1.844,0.776-0.573-2.41-1.68-3.36
	c-1.322,2.335-2.728,5.555-1.92,8.64c-1.055,0.095-0.626-1.293-1.44-1.44c-0.767,0.273-0.616,1.464-1.2,1.92
	c-1.283-1.102,0.572-3.9-0.96-4.8c-0.018-1.844,1.82-3.066,0.72-4.56c0.4,0,0.8,0,1.2,0c1.938-3.103,5.508-4.572,6.48-8.64
	c0.213-0.187,0.542-0.258,0.96-0.24c0.876-1.604,2.899-2.061,3.12-4.32c0.601-0.041,0.751,0.369,0.96,0.72
	c1.002-1.077,2.622-1.538,2.4-3.84c1.069,0.89,1.001,0.333,2.4,0c-2.04,3.96-6.893,5.107-8.88,9.12
	c-0.281-0.039-0.203-0.438-0.24-0.72c-0.679,0.361-0.836,1.244-0.96,2.16c0.87,0.23,0.244-1.036,0.72-1.2
	c0.617,1.687,1.516-0.894,2.4-0.24c-1.445,0.795-1.753,2.727-2.88,3.84c0.018,1.342,1.311,1.409,2.4,1.68
	c-0.373,1.505-3.34,1.568-2.4,3.6c1.299-0.861,2.106-2.214,3.12-3.36c-0.353-0.502-0.866-1.542,0.24-1.68
	c0.141-0.842-1.134-0.79-0.48-1.44c0.49,0.229,0.95,0.49,1.44,0.72c0.562-1.119-0.106-3.466,0.72-4.32
	c0.805,1.024-0.024,3.478,0.479,5.28c1.705-0.216,3.171-0.669,4.561-1.2c0.093-1.454-1.366-1.354-0.96-3.12
	c1.465,0.135,2.233,0.966,3.12,1.68c0.451-3.046-3.447-4.726-6.24-4.56c1.096-1.147,2.597-1.671,3.6-2.88
	c1.408-1.696,2.072-3.937,3.36-5.76c0.764,1.297-0.618,2.816-1.44,4.08c-0.851,1.31-1.836,2.812-2.88,3.6
	c2.061,1.14,3.709,2.691,5.04,4.56c0.904-0.056,1.017-0.904,1.92-0.96c0.663,0.733-0.844,0.752-0.72,1.68
	c0.795,1.013,2.824,0.235,3.12-0.72c-0.425-1.976-2.075-2.725-1.681-5.52c0.616,0.024,0.386,0.894,0.721,1.2
	c0.655-0.544,0.45-1.949,0.479-3.12c-2.692,0.507-2.17,4.229-5.279,4.32c-0.043-0.843,0.811-0.789,0.96-1.44
	c-0.355-0.493-0.929,0.816-1.681,0.72c0.946-2.353,3.733-2.906,4.32-5.52c0.391-1.738-0.049-3.641,0.24-5.04
	c-0.719,0.322-1.163,0.917-1.44,1.68c-1.223-1.499,1.551-2.845,1.68-4.56c-1.069,0.065-2.142,1.76-3.119,2.88
	c-1.017,1.165-1.797,2.778-3.36,3.12c0.425-1.175,1.436-1.765,1.92-2.88c-1.521-0.078-3.531,1.426-4.8,2.4
	c-0.042,0.682,1.57-0.291,1.2,0.72c-1.964,0.297-4.697,1.496-3.601,3.36c-2.286,1.234-4.523,2.517-6,4.56
	c-0.498-0.062-0.065-1.054-0.479-1.2c-1.134,0.534-2.379,1.903-1.44,3.12c-0.637,0.003-1.371-0.091-1.68,0.24
	c0.117,1.163,1.398,1.161,1.68,2.16c-0.761,0.526-1.143-0.986-2.16-0.96c-0.326,0.074-0.199,0.601-0.24,0.96
	c-0.637-0.003-1.371,0.09-1.68-0.24c-2.597,2.763-5.752,4.968-6.24,9.84c0.256,0.692,0.728,0.796,1.44,0.48
	c-0.866,2.256-2.077,5.169-2.16,7.44c-1.811-1.532,0.591-4.33,0.96-6c0.092-0.972-0.655-1.104-0.96-1.68
	c-0.149-4.229,2.778-5.382,3.84-8.4c-1.77,0.23-2.524,1.476-2.88,3.12c-2.446,0.752-3.955,3.457-3.84,6
	c0.182,0.618,0.766,0.834,1.68,0.72c-1.397,2.583-0.614,4.403-1.68,7.2c0.541-0.5,0.686-1.394,1.2-1.92
	c0.612,0.398-0.003,1.578-0.48,1.68c-0.536,5.367-4.369,8.506-4.32,13.68c-0.307,0.333-1.133,0.146-1.44,0.48
	c-0.044,2.089-0.924,4.394,0.24,5.76c0.921-1.537,0.617-3.723,1.2-5.52c0.739-2.278,1.985-4.33,2.64-6.96
	c0.46,0.544-0.312,1.589,0.48,2.16c1.627-1.023,3.303-0.526,4.56-1.92c0.667,0.293,0.7,1.22,1.2,1.68
	c-0.864,0.084-1.157,0.367-1.92,0c-0.673,0.236,0.348,0.641-0.24,0.96c-1.067,0.107-1.27-0.65-1.92-0.96
	c-0.826,0.454-1.44,1.12-1.2,2.64c-0.816,0.016-0.367-1.233-1.2-1.2c-0.47,4.242-2.299,10.521-0.96,14.88
	c-1.209,0.609-1.494-1.029-1.44-2.4c-0.757,0.247-0.006,1.271-0.48,2.16c-0.565-0.005-0.707,0.414-1.44,0.24
	c-0.42,0.85,0.16,0.59,0.24,1.44c-1.537-0.177-2.093,0.627-1.92,2.16c1.641,0.441,1.58-1.829,2.88-0.96
	c-1.721,1.351-1.625,4.676-0.96,7.2c0.164,0.477,0.731,0.549,0.96,0.96c-0.878,0.998-1.339-0.572-1.92-1.2
	c-1.499-1.622-2.086-3.437-1.92-6.72c0.061-1.059,0.976-1.265,1.2-2.16c-0.085-0.315-0.422-0.377-0.48-0.72
	c-0.976-0.016-0.524,1.396-1.68,1.2c-0.156-1.036,0.415-1.345,0.72-1.92c-0.277-4.82-0.193-9.548-2.16-12.48
	c-1.173,0.835-0.369,2.75-0.48,3.6c-1.003,0.204-0.95-0.65-1.44-0.96c0.758-2.506-0.498-4.017-0.48-6.48
	c0.025-3.562,2.506-5.541,2.88-9.36c0.923-1.16,2.012-3.425,2.16-4.56c0.624-0.417,1.061-1.019,1.44-1.68
	c-1.223-0.656-2.31,0.885-3.12,1.44c1.117,0.578-2.418,1.815-1.92,4.08c-0.523,0.043-0.764-0.196-0.72-0.72
	c-0.82,0.78-0.785,2.416-1.2,3.6c1.661-0.088,1.166-2.825,3.12-1.92c-0.999,0.991-3.042,2.717-1.92,4.32
	c-1.904-0.889-0.922,3.768-1.2,4.56c-1.608-0.976-0.357-3.25-0.24-5.04c0.148-2.254-0.31-5.109,1.2-6.72
	c-0.452-1.851,0.231-4.236,1.2-5.52c0.845-1.12,1.572-2.715,2.64-3.84c1.408-1.483,2.955-1.919,5.28-2.88
	c1.814-0.75,2.872-1.523,4.56-1.68c0.787-0.073,1.758,0.221,2.64,0c1.219-0.305,2.399-1.587,3.6-2.16
	c-0.518-0.807-1.102,0.315-1.68,0.24c0.555-0.725,1.503-1.057,1.92-1.92c-0.399-1.11-0.645,0.362-1.44,0.24
	c0.085-0.715,0.988-0.612,0.72-1.68c-2.302,0.658-2.525,3.395-4.08,4.8c-0.289-1.688,1.47-3.301,2.64-4.32
	c-0.105-0.295-0.307-0.493-0.72-0.48c0.341-0.699,1.421-0.659,2.16-0.96c-0.164-0.876-0.91-1.17-1.2-1.92
	c-0.444,0.036-0.147,0.812-0.48,0.96c-1.122-0.581-4.845,3.5-4.8,4.32c0.062,1.138,0.781,1.051,1.68,1.92
	c-1.335,0.215-1.631-0.609-2.4-0.96c-0.02-3.22,2.377-4.023,3.84-5.76c-1.34-0.525-3.379-0.312-4.8,0.72
	c0.058,0.742,1.976-0.375,1.68,0.72c-3.629,0.451-5.827,2.333-6.96,5.28c-1.19-0.546,0.35-1.456,0.24-2.4
	c2.267-1.492,3.604-3.916,6.24-5.04c-0.798-0.31-2.001,1.033-3.36,0.96c0.179-0.781,1.19-0.729,1.68-1.2
	c-2.216-1.161-6.07,0.575-7.92,2.88c-0.337,0.42-0.092,1.338-0.96,1.2c-0.105-2.95,2.79-4.857,6-5.28
	c2.475-3.186,6.05-7.933,11.28-7.44c3.274,0.309,5.666,2.284,7.44,5.04c0.315,0.245,0.885,0.235,1.2,0.48
	c-0.499,0.733,0.276,1.852,0,3.12c1.548,0.646,2.083-1.306,2.16-2.88c-0.074-0.326-0.601-0.199-0.96-0.24
	c0.626-0.784,1.645-0.619,2.4-0.96c1.823-0.823,3.135-2.453,5.04-3.12c1.379,0.802,2.672-0.904,4.32-1.44
	c0.342-0.111,0.879,0.157,1.2,0c1.386-0.679,2.157-1.947,2.88-3.12c-0.739-1.341-1.737-2.423-3.601-2.64
	c0.66-1.647,2.193-0.214,3.12,0.24c1.066,0.522,2.265,1.141,2.88,1.68c0.928-0.752,1.151-2.209,1.681-3.36
	c1.243,0.905-0.094,2.789-0.48,3.6c-0.093,1.293,1.192,1.208,0.96,2.64c-1.15,0.271-0.845-0.915-1.439-1.2
	c-1.886,1.541,1.087,3.664,1.92,4.8c0.65-0.589-0.03-1.876-0.24-2.4c0.793-1.455,1.655-2.946,1.68-4.8
	c0.031-2.398-1.88-3.866-1.92-5.52c1.964,1.797,3.253,2.983,2.88,6.24c-0.163,1.423-1.258,2.433-1.439,3.84
	c-0.304,2.354,0.617,4.49,0.96,6.48c-0.563-0.077-0.537-0.743-0.96-0.96c-0.785,0.735-1.321,1.719-1.92,2.64
	c-0.781-1.322,0.112-1.486,0.72-2.88c-0.65-0.303-1.448,0.614-1.68,1.2c-0.338,0.853,0.295,1.343,0.239,2.4
	c-0.093,1.759-1.516,4.1-0.239,5.28c3.011-0.917,0.795-5.874,4.319-6.48C84.254,36.574,83.413,40.213,81.2,42.48z M66.56,56.16
	c0.316-1.31,2.434-3.474,0.72-4.56C66.728,53.114,65.904,55.213,66.56,56.16z M50.96,32.88c-0.053,0.187-0.201,0.279-0.48,0.24
	c0.552,1.208,1.872,1.648,2.64,2.64c0.385,0.575,0.325,1.596,0.96,1.92c0.224-0.577,0.964-0.636,0.72-1.68
	C53.06,35.42,52.474,33.686,50.96,32.88z M51.92,32.88c1.083,0.713,1.759,1.516,2.4,2.64c2.154,0.663,3.836-0.549,4.8-1.44
	c-1.337-1.224-2.01-3.11-4.8-2.88c-0.587,0.319,0.264,0.893-0.24,0.96c-0.69,0.05-1.219-0.061-1.44-0.48
	c1.178,0.138,1.314-0.766,1.68-1.44c-0.481-0.399-1.78,0.02-2.16-0.48c3.769-1.393,6.343,1.769,8.4,3.6
	c-0.592-2.928-3.426-3.614-4.8-5.76c-1.379-0.141-2.719-0.32-3.84-0.72c-0.476,0.164,0.15,1.43-0.72,1.2
	c-0.575,0.095,0.133-1.093-0.72-0.72c-1.804-0.364-1.95,0.93-2.64,1.68c-1.521,0.079-2.043,1.157-2.88,1.92
	c-1.128,0.312-1.682,1.198-2.16,2.16c0.557-0.077,0.922,0.039,1.2,0.24c1.165-1.555,4.202-1.238,6.48-1.68
	C50.119,32.854,51.457,32.575,51.92,32.88z M80.96,31.44c2.29-0.506,2.171-3.23,0.24-4.08C80.923,28.647,80.506,30.092,80.96,31.44z
	 M66.56,30.24c0.926,0.759,3.615-1.852,2.64-1.92C68.577,29.217,66.918,29.079,66.56,30.24z M63.92,32.88
	c1.073-0.447,2.025-1.015,2.64-1.92C64.98,30.9,64.459,31.899,63.92,32.88z M80,32.64c0.07-0.147,0.597-0.924,0-0.96
	C79.93,31.827,79.403,32.604,80,32.64z M64.16,34.8c0.415-1.185,2.212-0.987,2.4-2.4C65.426,32.71,63.94,33.934,64.16,34.8z
	 M47.36,34.08c1.4-0.034,2.994,0.999,3.84,0.72C50.284,34.07,48.566,33.151,47.36,34.08z M62,36.48
	c0.728-0.021,2.068-1.622,1.2-1.68C63.02,35.58,62.286,35.806,62,36.48z M57.44,36.96c-0.864,0.736-1.574,1.626-2.16,2.64
	c2.798,0.958,4.039-1.503,4.8-3.36C58.99,36.349,58.804,37.821,57.44,36.96z M82.4,43.2c1.182,1.858,3.348,2.731,4.8,4.32
	c1.06-1.057,0.434-3.466-0.72-4.32c0.097-0.463,0.93-0.19,0.72-0.96c-1.239-0.201-0.186-2.695-1.2-3.12
	C85.009,40.688,83.435,41.674,82.4,43.2z M56,40.32c-0.48,0-0.96,0-1.44,0C54.363,41.388,56.011,41.066,56,40.32z M89.36,41.76
	c-0.396,0.644-1.018,1.062-1.44,1.68c0.553,1.928,0.139,4.822,2.16,5.28c0.997-0.625,1.558-3.9,0.72-4.8
	c-0.93,0.763,0.245,2.152-0.96,2.64C89.364,44.817,90.389,42.217,89.36,41.76z M52.88,43.2c0.413,0.013,0.615-0.185,0.72-0.48
	C53.223,42.743,52.768,42.688,52.88,43.2z M80.48,42.96c-0.325-0.075-0.459-0.342-0.961-0.24
	C79.339,43.539,80.437,43.656,80.48,42.96z M80.48,43.92c0.321,1.678,1.271,2.729,2.399,3.6c0.224,1.376,0.727,2.474,0.72,4.08
	c1.17-0.35,1.502-1.538,1.92-2.64c-0.84-2.36-2.658-3.741-4.319-5.28C80.869,43.669,80.673,43.793,80.48,43.92z M77.6,44.88
	c-0.101-0.459-0.087-1.033-0.72-0.96C76.839,44.521,77.249,44.671,77.6,44.88z M39.2,49.92c1.908-0.012,2.715-1.125,3.6-2.16
	c1.853-1.027,3.626-2.134,5.04-3.6c-2.445-0.286-2.446,1.874-4.32,2.16c0.093-0.342,0.288-0.405,0-0.72c-2,0.08-3.01,1.15-4.32,1.92
	c-0.297,0.777,0.776,0.183,0.48,0.96c-0.217,0.423-0.537,0.743-0.96,0.96c0.067-0.547-0.058-0.902-0.48-0.96
	c-0.518,1.242-0.13,1.277,0.72,1.44c-2.329,1.271-4.69,2.51-4.8,6c1.572-1.147,2.781-2.659,4.32-3.84
	c0.458,0.102,0.434,0.686,1.2,0.48c0.819-0.308,1.979-1.531,1.44-2.4c-0.482,0.329-1.658,1.206-1.92,0.96
	C40.042,50.931,39.477,50.281,39.2,49.92z M69.68,45.84c-0.626,1.059,0.559,2.159,0.72,3.36c0.197,1.474-0.192,2.908-0.96,3.6
	c0.794,1.341,1.108-1.059,1.68-0.48c-0.68,1.069-1.302,2.69-0.72,4.32c1.326-1.314,1.772-3.508,2.4-5.52
	c-0.737-0.905-0.519-1.274-0.479-2.88c-0.151-0.409-0.726-0.396-0.96-0.72c0.479-0.241,0.378-1.061,1.199-0.96
	c0.105,1.255,0.615,2.105,0.721,3.36c0.937-0.022,0.748-1.171,1.68-1.2c0.143-1.982-0.633-3.047-0.96-4.56
	C72.014,44.174,71.081,45.241,69.68,45.84z M45.92,46.8c0.547-0.067,0.902,0.058,0.96,0.48c-0.756-0.116-0.543,0.736-1.44,0.479
	c-0.229-0.447,0.719-0.802,0-0.96c-1.077,1.086-3.529,2.068-3.6,3.36c0.181-0.623,1.348-0.982,1.92-0.48
	c0.298-0.502,0.698-0.902,1.2-1.2c0.635-0.069,1.809-0.412,2.4-0.96c0.453-0.419,1.665-2.758,0.96-2.4
	C47.621,45.781,46.316,45.836,45.92,46.8z M79.04,48c0.204,0.568-0.067,1.531,0.72,1.68c-0.285-1.635-0.481-3.359-1.68-4.08
	C78.138,46.475,78.762,47.226,79.04,48z M68.96,51.36c0.214-1.025,0.654-3.041-0.72-3.12C68.002,49.26,67.009,51.455,68.96,51.36z
	 M86.24,49.92c0.926,0.047,1.289-1.408,0.24-1.44C86.203,48.764,86.208,49.328,86.24,49.92z M93.2,60.24
	c0.071,0.631-0.932,0.188-0.72,0.96c0.131,0.794,0.789,1.915,1.439,1.44c-0.224-2.47-0.268-4.92-1.2-6.96
	c-0.45-0.986-2.045-1.81-0.96-2.64c-1.411-1.229-1.718-3.562-3.359-4.56C90.006,52.394,91.391,56.529,93.2,60.24z M42.8,52.56
	c0.727-0.074,0.857-0.743,1.92-0.48c0.052-0.908,1.715-2.496,0.72-2.88C45.032,50.792,43.413,51.173,42.8,52.56z M36.08,50.88
	c0.075-0.504,1.611-0.763,0.72-1.44C36.403,49.622,35.611,50.626,36.08,50.88z M38.24,63.12c-0.093,0.229-1.396,0.627-0.48,1.2
	c1.01,0.37,0.038-1.242,0.72-1.2c0.28,0.36,0.693,0.587,0.72,1.2c-0.418-0.018-0.747,0.054-0.96,0.24
	c0.049,1.569-1.499,1.542-1.2,3.36c0.282,0.038,0.681-0.041,0.72,0.24c2.959-2.082,5.436-4.645,5.76-9.36
	c0.055,0.426-0.242,1.202,0.48,0.96c1.527-1.193,2.082-3.358,2.64-5.52c-0.953-0.328-1.445-1.115-2.88-0.96
	c-1.007,1.152-2.468,1.851-2.64,3.84c-0.008,0.742,1.414,1.288,0.96,1.68c-1.095-0.025-0.979-1.261-1.92-1.44
	C38.961,58.774,38.925,61.424,38.24,63.12z M37.76,60.24c0.68-1.482,2.257-3.34,2.16-4.8C39.013,56.695,37.252,58.369,37.76,60.24z
	 M92.24,60.48c-0.332-1.428-0.638-2.883-1.681-3.6C90.547,58.653,91.222,59.738,92.24,60.48z M69.44,58.32
	c0.039-0.167-0.084-1.396-0.24-0.72C68.989,58.514,69.329,58.802,69.44,58.32z M37.52,61.44C37.81,61.464,37.667,61.091,37.52,61.44
	L37.52,61.44z M34.4,72c0.579-2.425,3.731-6.155,1.44-8.4c-0.419,0.541-0.123,1.797-0.72,2.16c-0.531-0.346,0.302-0.585-0.24-0.72
	C34.012,66.451,33.226,70.831,34.4,72z M71.12,66.96c-0.24-0.743,1.277-0.932,0.479-1.44C71.525,65.948,70.331,66.46,71.12,66.96z
	 M38.96,68.4c-2.488-0.135-3.621,3.125-2.16,4.8c-0.237-1.275,0.862-0.997,1.44-0.96c-1.465,3.181-0.068,6.553,0.96,9.12
	c-0.045,0.355-0.58,0.22-0.96,0.24c0.236,0.964,0.294,2.106,0.24,3.36c0.896-0.257,0.684,0.596,1.44,0.48
	c0.558-0.163,0.643-0.797,1.2-0.96c0-0.8,0-1.6,0-2.4c-1.257-1.416-1.743-2.82-1.44-5.28c0.536-4.35,3.631-7.404,3.36-11.04
	c-1.575,1.147-2.622,4.096-4.8,3.84c1.036-1.125,2.283-2.037,3.12-3.36C40.195,66.595,39.739,67.659,38.96,68.4z M74.24,66.72
	c0.413,0.013,0.615-0.185,0.72-0.479C74.547,66.227,74.345,66.425,74.24,66.72z M81.44,67.68c0.355,0.359,1.24,0.022,1.199-0.72
	C82.08,67.04,81.605,67.206,81.44,67.68z M90.32,86.16c0.77-1.468-1.646-3.68-0.24-5.04c0.752,0.608,0.577,2.143,0.96,3.12
	c0.744-0.056,0.749-0.852,0.96-1.44c-2.077-3.667-1.847-10.704-3.12-14.4c-0.622,2.764,0.308,7.091-0.96,9.36
	c0.011-0.255-0.113-0.609-0.24-0.24C88.443,79.691,88.058,84.725,90.32,86.16z M90.32,70.8c-0.027-0.613-0.44-0.84-0.721-1.2
	C89.822,70.018,89.592,70.888,90.32,70.8z M93.44,80.64c0.676-0.726,1.357-3.764,0-4.32c0.03,0.431-0.239,0.562-0.721,0.48
	c0.017-1.057-0.574-1.506-1.2-1.92C91.842,77.119,92.665,78.855,93.44,80.64z M42.32,82.8c-0.23-0.809,0.735-1.639,0-2.16
	C42.045,80.943,41.838,82.532,42.32,82.8z M58.4,49.68c-0.17,0.177-0.598,1.174,0.24,0.96C58.599,50.281,58.726,49.754,58.4,49.68z
	 M61.76,45.36c0.329-0.413,0.943-1.917,0-2.16C61.662,43.681,61.166,44.98,61.76,45.36z M57.44,49.2
	c0.757,0.117,0.848-0.433,1.68-0.24c0.584-1.496,1.983-2.177,1.68-4.56c-0.053-0.187-0.201-0.279-0.48-0.24
	C59.316,45.698,57.017,47.012,57.44,49.2z M62.48,47.28c0.694-0.106,1.094-0.506,1.2-1.2c-0.309-0.412-0.497-0.944-1.2-0.96
	C62.09,45.893,62.365,46.42,62.48,47.28z M61.76,49.2c0.774-0.541,0.582-0.799,0.48-1.92C61.364,47.189,60.899,49.016,61.76,49.2z
	 M56.96,52.8c-0.069-1.371,0.619-2.5-0.48-3.12C56.663,50.697,56.038,52.522,56.96,52.8z M62.72,54.96
	c0.251-0.718,0.944-2.244,0.48-2.88C62.673,52.522,62.054,54.122,62.72,54.96z"/>
<path fill-rule="evenodd" clip-rule="evenodd" d="M60.08,318c2.65-0.072,2.79,4.396,4.08,6.48c-0.5-0.461-1-0.921-1.2-1.681
	c-0.235-0.324-0.64-0.479-0.96-0.72C61.854,320.348,59.979,319.193,60.08,318z"/>
<path fill-rule="evenodd" clip-rule="evenodd" d="M91.76,352.8c-1.411,3.709,1.775,7.718,0,10.32
	c-1.459-0.312-0.617-1.979-0.72-2.88c-0.546-4.776-1.313-10.143-0.72-15.84c0.227-2.175,0.497-5.432,0.239-8.4
	c-0.578-0.417-1.812,0.34-2.159-0.72c0.228-0.973,2.341-0.059,2.64-0.96c1.561-10.359,1.822-22.018,3.36-32.4
	c-1.327,0.198-2.472,1.42-4.08,1.92c-1.024,0.318-2.325,0.246-3.601,0.48c-2.84,0.521-4.954,1.188-7.92,0.96
	c-1.244-0.097-2.836-0.031-4.08,0c-1.107,0.027-3.033-0.447-3.359,0.96c0.095,1.16,1.176-0.056,1.92,0.24
	c0.276,1.156-1.116,0.644-1.2,1.439c0.998-0.449,2.618-0.274,3.12,0.48c-0.581,1.099-3.013-0.466-3.601,0.96
	c0.051,1.709,0.033,3.486,0.96,4.319c-1.315,1.854-0.073,3.999-0.72,6.721c1.309,0.518,1.016-2.453,2.641-2.4
	c0.868,0.704-0.414,1.443-0.961,2.16c-0.594,0.779-1.15,1.86-1.92,2.16c0.402,0.797,0.435,1.965,0.721,2.88
	c1.744-0.495,1.204-3.275,3.359-3.36c0.048,1.759-2.096,3.321-3.12,4.8c-0.384,1.479,0.312,3.193,0.48,4.32
	c0.323,2.153-0.296,5.002,0,7.2c0.066,0.493,0.009,1.839,0.96,1.92c0.13,0.85-0.85,0.59-0.72,1.439
	c0.252,0.372,0.69-0.907,1.439-0.239c-0.567,1.432-2.862,4.893-0.479,6.239c-0.439,1.001-1.247,1.634-0.96,3.36
	c0.699,0.314,1.142-0.645,1.68-1.2c0.092-0.095,0.666-0.152,0.72-0.239c0.222-0.36,0.013-1.636,0.96-1.44
	c0.534,2.089-1.616,3.478-3.359,4.08c-0.175,3.025-0.224,6.176-1.92,7.68c-1.116,6.404-4.789,10.252-6.72,15.84
	c1.636,0.444,3.944,0.216,4.32,1.92c-0.62,0.141-1.541-0.553-2.16,0.48c-2.133,0.361-4.277-0.085-5.76,0.48
	c0.204-1.557,1.367-2.153,2.4-2.881c1.259-2.501,2.252-5.268,3.6-7.68c-3.749,0.812-6.085,5.114-9.6,6.96
	c-3.767-0.212-6.845,1.428-10.08,0.96c1.356-1.684,5.118-0.963,6.72-2.399c0.88-0.044,1.793,0.4,2.64,0.239
	c2.381-0.451,3.454-3.125,5.28-4.56c0.643-0.505,1.503-0.528,2.16-0.96c1.472-0.967,3.066-2.957,4.8-3.84
	c1.188-2.252,1.427-5.453,2.16-8.16c0.077-1.357-1.386-1.175-1.2-2.641c1.142-0.101,1.237,0.843,1.92,1.2
	c0.234-1.508,0.653-2.776,0.24-4.319c-0.035-0.536-0.604,0.311-1.2,0c0.022-1.179,1.33-1.07,1.44-2.16
	c-0.283-2.326,0.386-4.814,0-6.721c-0.282-1.393-1.436-1.934-1.44-3.119c0.754-0.114,0.634,0.646,1.2,0.72
	c0.231-8.668-1.888-15.309-1.2-24.96c0.02-1.14-1.262-0.978-1.2-2.16c-0.231-0.871,1.078-0.201,0.96-0.96
	c-1.33-1.089,0.261-3.283-0.48-5.28c-1.699,0.203-3.767-0.209-5.52,0.24c-1.385,0.354-2.056,1.515-3.36,1.68
	c-0.519-0.514-0.123-1.341,0.24-1.68c-1.12,0-2.24,0-3.36,0c-1.082,0.918-3.444,0.556-3.6,2.4c-0.068,1.027,1.857,0.062,1.92,0.96
	c-0.271,1.305-1.571,0.132-2.16,0.96c1.539,8.885,3.094,16.271,3.36,26.399c0.119,0.9,1.338-0.253,1.68,0.721
	c0.087,0.807-1.04,0.399-1.44,0.72c0.194,3.867,0.332,7.549-0.24,11.52c2.498-0.32,4.134-2.45,3.36-5.279
	c1.613-0.093,0.843,2.197,2.16,2.399c-1.25,1.71-2.826,3.095-4.32,4.561c-0.895,0.255-0.38-0.9-1.2-0.721
	c0.733,4.371-1.144,5.734-3.84,8.16c-2.657,2.391-4.545,4.241-7.92,6.24c-0.757,0.448-1.691,0.761-2.4,1.2
	c-1.702,1.056-3.888,2.315-6.72,2.16c-0.05,0.851,1.126,0.474,0.96,1.439c-0.833-0.075-0.911-0.364-1.68,0
	c0.324,0.557,1.805-0.045,1.92,0.72c-0.212,1.309-2.239,0.802-3.12,1.44c0.625,1.564,2.361,3.199,4.56,2.4
	c-0.071-0.723-0.69-1.688-0.48-2.641c0.57-2.582,6.675-2.953,7.44-0.479c-1.482-0.312-4.253-1.036-6.24,0.239
	c-0.53,0.939,0.497,2.742-0.24,3.841c-3.16,1.056-5.242-0.979-6.24-2.88c0.603-1.157,0.953-2.567,1.68-3.601
	c-1.199-0.471-1.988-0.176-2.16,0.96c-1.034,0.313-0.759-0.681-1.2-0.96c-1.333,0.45-0.364,1.663,0,2.4
	c-2.503-0.613-2.126-4.024-0.24-5.04c1.891,1.448,6.707,1.477,9.36,0.24c5.591-2.605,11.896-8.247,15.36-11.761
	c-0.188-2.89,0.427-5.607,0.48-8.88c-0.3-0.102-1.646,0.055-1.92-0.72c-0.077-2.638,2.432-2.688,1.92-5.76
	c-0.419-0.658-0.824,1.522-1.68,0.479c-0.183-1.382,1.087-1.312,1.439-2.16c-0.633-5.84-0.423-11.072-1.68-16.319
	c-1.031,0.408-1.813,1.066-3.12,1.199c-1.081,0.039-0.576,1.664-1.92,1.44c-0.833-2.623,3.09-2.487,4.56-3.6
	c0-0.881,0-1.761,0-2.641c-0.153-0.486-1.122-0.158-1.2-0.72c0.576-3.663,0.164-8.647-1.44-11.521
	c-5.231,0.241-9.231,0.299-11.04-3.359c-0.632-1.278-0.84-3.531-1.68-5.521c-0.735-1.74-1.667-3.294-2.16-5.04
	c-1.152-4.078-2.524-8.195-2.88-11.279c-0.084-0.73,0.111-1.259,0-1.92c-0.367-2.174-1.724-5.066-1.92-6.961
	c-0.104-0.995,0.181-1.818,0.24-2.879c0.399-7.164,0.319-15.756-0.48-22.08c-1.351-0.729-3.574-0.586-4.56-1.681
	c-1.034-1.985-0.741-4.781-1.44-6.96c-0.406-1.266-1.378-2.011-1.68-3.12c1.624-6.045,2.561-13.223,2.4-18.96
	c-0.042-1.516-0.406-3.208-0.48-4.8c-0.083-1.767,0.248-3.538,0-5.04c-0.132-0.796-0.82-1.566-0.96-2.4
	c-0.26-1.548,0.116-3.275,0-4.8c-0.211-2.792-1.289-5.307-0.96-7.92c1.784-0.076,1.079,2.224,1.2,3.12
	c0.154,1.144,0.579,2.452,0.72,3.6c0.213,1.731-0.263,3.641,0,5.28c0.171,1.07,1.079,2.038,1.2,3.12
	c0.156,1.391-0.354,3.196-0.24,5.04c0.119,1.918,0.253,3.625,0.24,5.76c-0.008,1.291,0.539,2.739,0.48,3.84
	c-0.101,1.88-1.025,4.237-1.2,6.48c-0.066,0.842,0.117,1.669,0,2.399c-0.459,2.857-2.394,5.27,0,7.2
	c0.413,2.547,0.851,5.069,1.44,7.44c1.062,0.458,1.985,1.055,3.6,0.96c0.996-2.679-1.631-3.808-1.2-6.72
	c0.621-0.551,1.145,0.451,0.96,1.439c-0.114-5.834,1.088-11.607,1.2-17.279c0.085-4.316-0.947-8.863,0.48-12.721
	c-1.36-4.444-2.611-8.73-2.16-12.96c0.249-2.333,1.434-4.558,1.92-6.96c0.655-3.234,0.675-6.935,1.68-10.32
	c0.976-3.289,2.398-6.261,3.6-9.6c0.625-1.735,1.604-3.51,1.68-4.8c0.044-0.743-0.375-1.246-0.48-1.92
	c-0.193-1.235,0.026-2.835-0.24-4.08c-0.464-2.17-0.834-5.512,0.72-8.16c0.039-1.162-0.145-2.545,0.96-2.64
	c0.487,3.248-1.339,5.271-0.96,9.6c0.049,0.56,0.378,1.063,0.48,1.68c0.147,0.891-0.128,1.917,0,2.64
	c0.142,0.801,0.711,1.6,0.72,2.4c0.023,2.059-1.589,5.152-2.4,7.2c-0.902,2.277-1.751,4.528-2.88,6.48
	c-1.034,5.334-1.509,10.482-2.88,15.6c-0.425,1.587-0.988,3.765-0.72,6.48c0.087,0.882,0.552,1.876,0.72,2.88
	c0.168,1.009-0.01,1.98,0.24,2.88c0.117,0.422,0.618,0.969,0.72,1.44c0.542,2.504-0.286,5.172-0.48,8.16
	c-0.168,2.604,0.139,5.412,0,8.4c-0.29,6.228-0.867,13.84-0.48,20.64c0.235,4.136,1.252,9.227,0.96,14.4
	c-0.252,1.052,0.812,0.788,0.72,1.68c-1.734,2.151-0.166,6.271-1.2,8.88c0.074,0.566,0.833,0.447,0.72,1.2
	c-0.474,3.099,1.017,5.302,1.44,7.44c0.282,1.429-0.319,2.97,0.72,4.319c-0.345,3.206,1.53,5.889,2.16,8.88
	c1.428,0.42,0.896,2.468,1.44,3.601c0.506,1.054,1.134,1.243,1.92,1.92c-0.148,1.008,0.454,1.831,0.72,2.88
	c0.676,2.661,0.276,4.253,3.84,4.56c0.677,0.059,1.278-0.188,1.92-0.239c4.042-0.322,8.347,1.108,12.48,0.72
	c2.961-0.278,6.98-0.289,10.08-0.72c3.979-0.554,7.995,0.465,11.76,0c0.68-0.084,1.304-0.533,2.16-0.721
	c1.792-0.392,4.11-0.359,5.76-0.96c1.74-0.633,3.752-1.856,5.761-2.88c2.398-1.223,3.934-2.521,6.96-3.359
	c1.337-0.371,2.922-1.319,4.319-2.16c2.189-1.317,3.433-2.21,4.801-3.601c0.1-7.089-1.454-16.184-2.16-23.76
	c-0.186-1.983-0.016-4.063-0.24-6c-0.291-2.508-0.795-4.898-0.72-7.2c0.068-2.105,0.442-4.045,0.479-6
	c0.017-0.846-0.288-1.788-0.24-2.64c0.197-3.454,1.521-6.729,1.44-10.32c-0.175-7.715,1.09-16.015-0.479-24.24
	c-7.153,6.772-20.459,8.655-31.681,10.56c-0.132-0.966,1.247-0.996,1.92-1.2c2.394-0.727,4.451-0.618,7.2-1.2
	c1.146-0.243,2.201-0.944,3.36-1.2c2.219-0.491,4.545-0.452,6.72-1.2c1.681-0.579,3.639-1.645,5.52-2.4
	c2.929-1.175,4.677-2.476,6.24-4.56c0.082-3.134,1.271-6.905-0.72-8.88c-2.904,0.073-3.892,3.285-6.48,2.88
	c0.902-2.098,3.982-2.228,5.04-4.32c1.03-4.455-1.355-8.531-1.439-12.72c-0.066-3.283,0.037-7.059-0.72-10.561
	c-0.382-1.763-1.188-3.198-1.681-4.8c-0.681-2.218-1.097-4.87-1.439-7.2c-0.312-2.119,0.384-4.407-0.96-6
	c0.027-2.07-0.012-4.872-0.48-7.2c-0.285-1.417-1.468-2.864-0.479-3.84c2.446,2.414,1.494,6.967,2.159,10.32
	c0.193,0.973,0.835,1.783,0.96,2.64c0.084,0.572-0.232,1.077-0.239,1.68c-0.078,6.404,3.996,12.464,3.84,19.2
	c-0.022,0.956,0.41,2.093,0.479,3.12c0.092,1.343-0.136,2.752,0,4.08c0.385,3.755,2.261,7.303,1.44,11.28
	c0.657,0.302,1.228,0.692,1.68,1.2c0.943,2.798,0.554,5.817,0.721,8.88c0.258,4.742,1.404,8.695,1.199,13.2
	c-0.115,2.546-0.585,5.981-0.72,8.88c-0.205,4.402-0.059,8.526-0.72,12.479c2.275,0.139,1.631-3,1.439-5.039
	c-0.159-1.7-0.966-3.208,0-4.08c1.26,0.629,1.292,5.05,1.2,6.959c-0.051,1.058-0.542,1.85-0.479,2.641
	c2.103-0.935,0.649-6.436,1.68-8.88c1.277-0.034,0.437,1.477,0.479,2.16c0.163,2.548-0.114,5.52-0.239,7.68
	c0.911-0.844,1.042-3.019,1.2-4.32c0.146-1.204,0.429-2.474,0.479-3.6c0.148-3.274-0.987-6.376-0.479-9.84
	c0.139-0.952,0.608-1.877,0.72-2.88c0.651-5.862,0.067-12.275,0.72-17.76c0.261-2.191,0.929-4.281,0.96-6.48
	c0.014-0.931-0.209-1.71-0.24-2.64c-0.078-2.344,0.572-4.855,0.721-7.44c0.207-3.614-0.364-7.496,0-10.56
	c0.062-0.521,0.474-1.179,0.479-1.68c0.02-1.65-0.791-3.37-0.96-5.04c-0.431-4.259,0.274-8.469,0-12.72
	c-0.173-2.684-1.263-5.978-1.439-9.36c-0.168-3.203-0.164-6.362-0.721-9.12c-0.125-0.621-0.602-1.273-0.72-1.92
	c-0.112-0.612,0.145-1.195,0-1.68c-0.957-3.2-3.777-4.669-4.56-7.44c-0.417-0.863-1.716-0.844-1.44-2.4
	c-1.449-0.391-2.375-1.305-4.08-1.44c-4.702-5.137-10.97-8.71-18.24-11.28c-0.779-0.139-1.116,0.164-1.68,0.24
	c-1.061-0.973-3.847-1.389-3.36-3.12c1.548-0.187,1.477,1.244,2.641,1.44c6.053,0.827,9.981,3.778,14.88,5.76
	c2.956,3.124,6.113,6.047,10.8,7.44c-0.005,0.565,0.413,0.707,0.24,1.44c1.958,1.562,2.387,4.653,4.56,6
	c1.816,3.956,2.608,9.07,2.88,14.88c0.166,3.538,1.179,7.096,1.44,10.56c0.299,3.952-0.352,8.141,0,12.24
	c0.161,1.886,0.953,3.66,0.96,5.52c0.006,1.582-0.569,3.181-0.48,4.8c0.108,1.957,0.16,5.084,0,7.68
	c-0.032,0.537-0.403,0.888-0.479,1.44c-0.16,1.164,0.396,2.578,0.24,3.84c-0.06,0.48-0.446,0.984-0.48,1.44
	c-0.146,1.948,0.188,3.862,0,5.76c-0.149,1.517-0.81,3.04-0.96,4.56c-0.354,3.574,0.116,7.091,0,10.56
	c-0.138,4.119-1.661,8.702-1.439,12.96c0.11,2.135,0.895,4.277,0.72,6.24c-0.054,0.597-0.604,1.119-0.72,1.68
	c-0.454,2.199,0.268,4.673-0.48,6.72c-0.602,0.52-1.836,0.404-2.16,1.2c-0.897-1.161-2.939,0.255-3.12-1.68
	c-1.012,1.184-0.893,3.112-0.96,4.56c-0.427,9.19,1.648,19.884,2.16,30c0.053,1.045-0.08,2.139,0,3.12
	c0.248,3.018,1.583,5.884,0.24,8.88c-0.519,0.201-0.818,0.622-1.68,0.48c-1.653,1.566-3.256,3.477-5.521,4.56
	c-1.392,0.666-3.115,0.767-4.56,1.44c-1.963,0.914-3.484,2.471-5.521,2.88c-1.396,7.177-1.682,14.122-2.16,22.08
	c-0.19,3.169-1.186,6.089-1.439,9.12c-0.066,0.795,0.108,1.61,0,2.399c-0.076,0.551-0.442,1.138-0.48,1.681
	c-0.146,2.133,0.418,3.985,0.24,5.76c-0.185,1.843-0.614,5.579,0,7.92c0.42,1.602,1.602,2.904,2.16,4.8
	c0.643,2.183,0.333,4.766,0.479,7.2c-0.342,1.1-1.543,1.632-1.92,2.88c-1.303,4.315,1.376,11.16-0.479,14.88
	c-1.093-0.829-0.42-2.084-0.48-3.359c-0.191-4.021-1.59-8.854,0-12.48c0.292-0.908,0.952-1.448,1.44-2.16
	C93.685,358.333,93.141,354.965,91.76,352.8z M54.32,306.72c-0.071-0.631,0.931-0.188,0.72-0.96c-0.32,0-0.64,0-0.96,0
	C54.121,306.119,53.994,306.646,54.32,306.72z M56.24,344.64c1.002-0.008,1.072-0.926,0.479-1.439
	C56.582,343.702,56.125,343.885,56.24,344.64z"/>
<path fill-rule="evenodd" clip-rule="evenodd" d="M61.28,65.28c0.469,0.696,0.484,2.118,0.479,3.12
	c-0.006,1.286-0.312,2.597-0.24,3.84c-1.677-0.803-0.967-3.993-1.44-6C60.981,66.422,60.892,65.612,61.28,65.28z"/>
<path fill-rule="evenodd" clip-rule="evenodd" d="M42.08,88.32c3.363,2.637,3.974,8.026,7.68,10.32c0.39,1.61,1.94,2.06,2.4,3.6
	c0.795-0.005,0.244-1.356,0.72-1.68c0.891,0.742,0.65-0.026,1.68-0.24c0.526,1.273-0.169,2.277,0.24,3.6
	c-1.255,0.056-0.927-1.473-0.96-2.64c-0.785,0.652-0.636,2.577-0.48,3.12c0.662,2.295,5.503,4.069,9.12,4.32
	c0.697-0.343,0.595-1.484,1.2-1.92c0.895,0.592,1.333,0.314,2.64,0.24c0.135,1.335-1.346,1.054-2.4,1.2
	c0.007,1.193,1.633,0.767,2.16,1.44c-0.22,0.506-2.444,0.597-3.36,0.48c-0.799-0.103-2.313-0.859-3.36-0.96
	c-0.487,0.153-0.158,1.122-0.72,1.2c-1.345-0.03,0.158-1.423-0.96-1.68c-0.888-0.168-0.599,0.842-0.96,1.2
	c-0.516-0.204-0.849-0.591-0.72-1.44c-2.752-1.968-4.214-5.226-6.24-7.92c-0.571,0.148-0.394,1.046-1.44,0.72
	c0.817-2.172-0.757-3.397-2.16-4.08c-0.732,0.293,0.351,0.916-0.24,1.2c-2.432-0.904-2.276-3.421-2.16-6.48
	C43.222,90.698,42.322,89.837,42.08,88.32z M44.96,95.28c0.035-0.596,0.045-1.165-0.48-1.2C44.444,94.676,44.604,95.076,44.96,95.28
	z"/>
</svg>
