<?xml version="1.0" encoding="utf-8"?>
<!-- Generator: Adobe Illustrator 15.0.0, SVG Export Plug-In . SVG Version: 6.00 Build 0)  -->
<!DOCTYPE svg PUBLIC "-//W3C//DTD SVG 1.1//EN" "http://www.w3.org/Graphics/SVG/1.1/DTD/svg11.dtd">
<svg version="1.1" id="a1f75fc3-9e42-4fc1-bde4-b430080f0daf"
	 xmlns="http://www.w3.org/2000/svg" xmlns:xlink="http://www.w3.org/1999/xlink" x="0px" y="0px" width="442px" height="554.867px"
	 viewBox="2 0 442 554.867" enable-background="new 2 0 442 554.867" xml:space="preserve">
<circle fill="#FF6584" cx="329.28" cy="347.219" r="42.452"/>
<path fill="#FFFFFF" d="M443.727,378.871c0.095-0.02,0.164-0.082,0.273-0.066c-0.049-0.184-0.11-0.362-0.188-0.537
	c-0.133,0.185-0.271,0.372-0.394,0.537L443.727,378.871z"/>
<path fill="#E6E6E6" d="M161.001,447.693c0.248,9.262,1.8,18.442,4.607,27.271c0.063,0.204,0.133,0.405,0.199,0.611h17.198
	c-0.019-0.185-0.037-0.39-0.056-0.611c-1.147-13.185-7.76-93.419,0.146-107.141C182.406,368.936,159.667,405.807,161.001,447.693z"
	/>
<path fill="#E6E6E6" d="M162.291,474.965c0.144,0.204,0.294,0.407,0.446,0.611h12.9c-0.099-0.175-0.212-0.379-0.343-0.611
	c-2.132-3.847-8.44-15.35-14.296-27.271c-6.293-12.813-12.066-26.111-11.581-30.925
	C149.271,417.854,144.915,450.947,162.291,474.965z"/>
<path fill="#E6E6E6" d="M296.356,477.171c-0.217,8.073-1.567,16.076-4.019,23.772c-0.056,0.179-0.114,0.354-0.171,0.532h-14.994
	c0.016-0.159,0.032-0.339,0.049-0.532c1-11.493,6.765-81.443-0.128-93.405C277.694,408.509,297.52,440.651,296.356,477.171z"/>
<path fill="#E6E6E6" d="M295.231,500.945c-0.125,0.178-0.254,0.358-0.389,0.533h-11.245c0.084-0.152,0.183-0.329,0.296-0.533
	c1.859-3.354,7.36-13.379,12.465-23.772c5.486-11.171,10.521-22.768,10.097-26.965C306.585,451.154,310.381,480.006,295.231,500.945
	z"/>
<path fill="#3F3D56" d="M124.923,239.457l6.993-5.593c-5.433-0.598-7.664,2.364-8.578,4.708c-4.243-1.762-8.862,0.548-8.862,0.548
	l13.989,5.079C127.76,242.312,126.53,240.669,124.923,239.457z"/>
<path fill="#3F3D56" d="M333.522,210.67l6.991-5.592c-5.432-0.6-7.665,2.363-8.579,4.708c-4.242-1.762-8.862,0.547-8.862,0.547
	l13.989,5.079C336.356,213.527,335.129,211.882,333.522,210.67z"/>
<path fill="#3F3D56" d="M438.399,431.823c0,4.633-0.161,9.229-0.484,13.788c-2.49,35.959-14.959,70.513-36.006,99.776
	c-2.75,3.839-5.64,7.569-8.662,11.193c-7.839,9.401-16.542,18.047-25.996,25.823l-41.44-24.317l-24.776-57.828
	c0,0,36.968-74.852,137.301-73.496C438.373,428.445,438.396,430.13,438.399,431.823z"/>
<path fill="#28DF99" d="M437.914,445.61c-3.854,54.327-30.261,104.563-72.823,138.547l-38.499-22.589l-21.974-51.286
	C304.618,510.28,340.224,438.19,437.914,445.61z"/>
<path fill="#3F3D56" d="M401.908,545.389c-2.75,3.838-5.64,7.568-8.662,11.192c-20.271,24.354-46.178,43.405-75.467,55.496
	c-5.933,2.447-12.004,4.603-18.212,6.47c-44.843,11.928-92.349,8.91-135.322-8.59c-42.5-18.973-76.848-52.47-96.867-94.487
	c-2.689-5.655-5.109-11.455-7.257-17.397c37.47-27.448,111.305-66.758,191.778-28.562c22.26,10.564,42.136,20.196,59.627,28.891
	C355.911,520.402,385.454,536.265,401.908,545.389z"/>
<path fill="#28DF99" d="M393.244,556.581c-69.017,82.714-192.015,93.815-274.724,24.801c-21.603-18.024-39.05-40.513-51.145-65.913
	c31.294-24.748,103.473-69.22,182.683-31.629c20.373,9.668,38.558,18.479,54.56,26.438
	C351.266,533.4,380.001,549.113,393.244,556.581z"/>
<path fill="#3F3D56" d="M336.011,602.326c-6.554,3.635-13.308,6.889-20.23,9.751c-23.564,9.713-48.81,14.694-74.296,14.664
	c-61.14-0.024-118.729-28.711-155.585-77.489C132.448,544.343,261.129,537.723,336.011,602.326z"/>
<path fill="#28DF99" d="M315.778,612.079c-74.806,30.759-160.83,12.181-216.273-46.709
	C116.437,562.883,249.375,545.801,315.778,612.079z"/>
<path fill="#E6E6E6" d="M405.705,323.734v0.006c-139.181-102.905-298.64-30.477-299.872-29.918v-0.008
	c36.503-36.498,86.028-56.975,137.651-56.908C311.147,236.907,370.757,271.389,405.705,323.734z"/>
<ellipse transform="matrix(-0.1774 -0.9841 0.9841 -0.1774 -223.8 510.1728)" fill="#3F3D56" cx="101.315" cy="348.619" rx="88.374" ry="43.312"/>
<path fill="#28DF99" d="M123.048,491.706c-1.396-105.521-36.702-204.546-37.059-205.534l-3.221,1.162
	c0.354,0.98,35.467,99.488,36.855,204.418L123.048,491.706z"/>
<rect x="79.286" y="322.947" transform="matrix(-0.3077 0.9515 -0.9515 -0.3077 434.3373 374.2837)" fill="#28DF99" width="3.422" height="44.429"/>
<rect x="101.349" y="346.435" transform="matrix(-0.7839 0.6209 -0.6209 -0.7839 436.5857 544.3404)" fill="#28DF99" width="44.428" height="3.424"/>
<ellipse fill="#3F3D56" cx="230.208" cy="324.745" rx="46.873" ry="95.644"/>
<path fill="#28DF99" d="M225.879,481.298c18.773-112.64,0.189-224.872,0-225.991l-3.653,0.618c0.189,1.114,18.668,112.757,0,224.767
	L225.879,481.298z"/>
<rect x="207.404" y="293.099" transform="matrix(-0.4717 0.8817 -0.8817 -0.4717 587.5977 282.2232)" fill="#28DF99" width="3.704" height="48.07"/>
<rect x="229.97" y="326.646" transform="matrix(-0.8817 0.4719 -0.4719 -0.8817 632.9706 498.2658)" fill="#28DF99" width="48.08" height="3.705"/>
<path fill="#E6E6E6" d="M433.818,389.622c-17.198-9.654-35.167-17.871-53.722-24.562c-102.595-37.123-204.326-22.815-244.146,30.312
	c30.988-65.088,141.565-85.555,253.151-45.177c12.987,4.694,25.697,10.124,38.068,16.263
	C429.865,374.035,432.086,381.771,433.818,389.622z"/>
<path fill="#3F3D56" d="M295.259,284.885l6.992-5.593c-5.433-0.601-7.666,2.361-8.579,4.708c-4.243-1.763-8.861,0.547-8.861,0.547
	l13.988,5.081C298.094,287.741,296.865,286.096,295.259,284.885z"/>
<path fill="#28DF99" d="M150.711,82.307l-6.42,6.9v12.18h-6.42v-39.6h6.42v19.68l18.18-19.68h7.86l-15,16.199l15.359,23.4h-7.562
	L150.711,82.307z"/>
<path fill="#28DF99" d="M201.112,88.787h-21.961c0.358,2.64,1.3,4.649,2.818,6.029c1.521,1.38,3.48,2.07,5.88,2.07
	c1.959,0,3.593-0.35,4.893-1.05c1.299-0.699,2.188-1.71,2.67-3.03l5.34,2.22c-2.241,4.641-6.54,6.96-12.9,6.96
	c-4.72,0-8.409-1.38-11.067-4.14c-2.661-2.76-3.99-6.579-3.99-11.46c0-4.92,1.278-8.75,3.84-11.49
	c2.561-2.739,6.159-4.109,10.8-4.109c4.4,0,7.82,1.34,10.263,4.02c2.438,2.681,3.657,6.24,3.657,10.68
	C201.352,86.647,201.271,87.747,201.112,88.787z M181.821,77.927c-1.42,1.36-2.312,3.34-2.67,5.94h16.198
	c-0.317-2.521-1.17-4.479-2.55-5.881c-1.38-1.399-3.17-2.1-5.37-2.1C185.111,75.887,183.241,76.567,181.821,77.927z"/>
<path fill="#28DF99" d="M235.972,88.787h-21.96c0.36,2.64,1.299,4.649,2.82,6.029c1.52,1.38,3.479,2.07,5.88,2.07
	c1.96,0,3.59-0.35,4.89-1.05c1.303-0.699,2.19-1.71,2.671-3.03l5.343,2.22c-2.241,4.641-6.54,6.96-12.9,6.96
	c-4.72,0-8.41-1.38-11.07-4.14c-2.659-2.76-3.987-6.579-3.987-11.46c0-4.92,1.276-8.75,3.84-11.49
	c2.559-2.739,6.159-4.109,10.8-4.109c4.399,0,7.819,1.34,10.261,4.02c2.439,2.681,3.659,6.24,3.659,10.68
	C236.211,86.647,236.13,87.747,235.972,88.787z M216.681,77.927c-1.42,1.36-2.31,3.34-2.67,5.94h16.2
	c-0.32-2.521-1.17-4.479-2.55-5.881c-1.38-1.399-3.17-2.1-5.37-2.1C219.971,75.887,218.101,76.567,216.681,77.927z"/>
<path fill="#28DF99" d="M270.11,74.896c2.357,2.74,3.541,6.551,3.541,11.431s-1.184,8.71-3.541,11.489
	c-2.359,2.781-5.603,4.17-9.722,4.17c-2.157,0-4.091-0.479-5.791-1.439c-1.698-0.96-3.01-2.28-3.93-3.96v17.399h-6.42v-42.6h5.641
	l0.302,5.58c0.88-1.88,2.211-3.38,3.987-4.5c1.779-1.119,3.853-1.68,6.211-1.68C264.511,70.787,267.751,72.157,270.11,74.896z
	 M265.041,94.037c1.46-1.82,2.19-4.37,2.19-7.65c0-3.279-0.73-5.84-2.19-7.68s-3.49-2.761-6.09-2.761c-2.44,0-4.394,0.82-5.854,2.46
	c-1.461,1.641-2.27,3.921-2.43,6.841v2.279c0.16,2.88,0.969,5.141,2.43,6.78c1.46,1.641,3.41,2.46,5.854,2.46
	C261.551,96.767,263.581,95.857,265.041,94.037z"/>
<path fill="#28DF99" d="M306.171,74.927c2.64,2.76,3.96,6.58,3.96,11.46c0,4.881-1.32,8.7-3.96,11.46
	c-2.641,2.76-6.301,4.14-10.98,4.14c-4.679,0-8.34-1.38-10.979-4.14c-2.639-2.76-3.96-6.579-3.96-11.46c0-4.88,1.32-8.7,3.96-11.46
	c2.64-2.76,6.3-4.14,10.979-4.14C299.87,70.787,303.53,72.167,306.171,74.927z M288.921,78.557c-1.461,1.82-2.189,4.431-2.189,7.83
	c0,3.4,0.729,6.011,2.189,7.83c1.459,1.82,3.549,2.729,6.27,2.729c2.724,0,4.82-0.919,6.304-2.76c1.479-1.839,2.22-4.439,2.22-7.8
	c0-3.361-0.741-5.96-2.22-7.8c-1.48-1.84-3.58-2.76-6.304-2.76C292.47,75.826,290.38,76.737,288.921,78.557z"/>
<path fill="#FFFFFF" d="M160.011,132.007h-4.52v11.36h-2.141v-11.36h-4.521v-1.84h11.18L160.011,132.007L160.011,132.007z"/>
<path fill="#FFFFFF" d="M170.052,133.367v10h-1.9l-0.08-1.62c-0.68,1.213-1.864,1.82-3.56,1.82c-1.079,0-1.95-0.297-2.61-0.89
	c-0.657-0.593-0.987-1.503-0.987-2.729v-6.58h2.14v6.02c0,0.88,0.176,1.503,0.521,1.87c0.346,0.367,0.859,0.55,1.54,0.55
	c0.812,0,1.48-0.256,2.01-0.77c0.524-0.513,0.79-1.27,0.79-2.27v-5.4L170.052,133.367L170.052,133.367z"/>
<path fill="#FFFFFF" d="M193.772,133.577c0.562,0.273,1.008,0.69,1.342,1.25c0.333,0.56,0.5,1.247,0.5,2.06v6.48h-2.143v-6.14
	c0-0.787-0.187-1.366-0.56-1.74c-0.374-0.373-0.874-0.56-1.5-0.56c-0.733,0-1.353,0.267-1.853,0.8c-0.5,0.534-0.75,1.267-0.75,2.2
	v5.44h-2.14v-6.14c0-0.787-0.188-1.366-0.56-1.74c-0.374-0.373-0.874-0.56-1.5-0.56c-0.43,0-0.843,0.11-1.24,0.33
	c-0.4,0.22-0.729,0.563-0.98,1.03c-0.253,0.467-0.38,1.054-0.38,1.76v5.32h-2.14v-10h1.898l0.102,1.66
	c0.333-0.613,0.787-1.077,1.357-1.39c0.573-0.312,1.2-0.47,1.883-0.47c0.744,0,1.423,0.17,2.027,0.51
	c0.606,0.34,1.059,0.837,1.353,1.49c0.307-0.653,0.774-1.15,1.407-1.49c0.636-0.34,1.312-0.51,2.03-0.51
	C192.598,133.167,193.211,133.304,193.772,133.577z"/>
<path fill="#FFFFFF" d="M207.711,139.167h-7.32c0.12,0.88,0.436,1.55,0.94,2.01s1.16,0.69,1.96,0.69c0.653,0,1.196-0.117,1.63-0.35
	c0.433-0.233,0.73-0.57,0.89-1.01l1.78,0.74c-0.747,1.547-2.18,2.32-4.3,2.32c-1.574,0-2.804-0.46-3.69-1.38
	c-0.886-0.92-1.33-2.193-1.33-3.82c0-1.64,0.429-2.917,1.28-3.83c0.854-0.913,2.054-1.37,3.603-1.37c1.467,0,2.604,0.447,3.42,1.34
	c0.812,0.893,1.22,2.08,1.22,3.56C207.792,138.454,207.765,138.821,207.711,139.167z M201.281,135.547
	c-0.476,0.453-0.771,1.113-0.893,1.98h5.4c-0.107-0.84-0.392-1.493-0.853-1.96c-0.459-0.467-1.057-0.7-1.789-0.7
	C202.378,134.867,201.754,135.094,201.281,135.547z"/>
<path fill="#FFFFFF" d="M212.591,144.247c0,1.187-0.31,2.053-0.93,2.6c-0.62,0.546-1.403,0.82-2.353,0.82
	c-0.864,0-1.6-0.22-2.197-0.66l0.38-1.72c0.453,0.373,0.967,0.56,1.54,0.56c0.453,0,0.803-0.14,1.05-0.42
	c0.247-0.28,0.37-0.74,0.37-1.38v-10.68h2.14V144.247z M212.561,129.387c0.263,0.24,0.393,0.562,0.393,0.96s-0.13,0.724-0.393,0.97
	c-0.26,0.247-0.604,0.37-1.027,0.37c-0.44,0-0.79-0.123-1.052-0.37c-0.261-0.247-0.391-0.57-0.391-0.97s0.13-0.72,0.391-0.96
	c0.262-0.24,0.609-0.36,1.052-0.36C211.958,129.027,212.301,129.147,212.561,129.387z"/>
<path fill="#FFFFFF" d="M223.971,134.547c0.88,0.92,1.32,2.193,1.32,3.82s-0.44,2.9-1.32,3.82s-2.1,1.38-3.66,1.38
	c-1.56,0-2.777-0.46-3.657-1.38c-0.883-0.92-1.32-2.193-1.32-3.82c0-1.626,0.438-2.9,1.32-3.82c0.88-0.92,2.1-1.38,3.657-1.38
	C221.871,133.167,223.091,133.627,223.971,134.547z M218.221,135.757c-0.487,0.607-0.729,1.477-0.729,2.61
	c0,1.133,0.241,2.003,0.729,2.61c0.488,0.607,1.186,0.91,2.089,0.91c0.907,0,1.607-0.307,2.104-0.92
	c0.494-0.613,0.739-1.479,0.739-2.6s-0.246-1.986-0.739-2.6c-0.493-0.613-1.193-0.92-2.104-0.92
	C219.404,134.847,218.708,135.15,218.221,135.757z"/>
<path fill="#FFFFFF" d="M234.291,133.367l-0.34,1.96c-0.31-0.173-0.729-0.26-1.261-0.26c-0.429,0-0.829,0.113-1.209,0.34
	c-0.383,0.227-0.693,0.567-0.94,1.02c-0.247,0.454-0.37,1-0.37,1.64v5.3h-2.14v-10h1.817l0.183,1.8c0.56-1.333,1.61-2,3.159-2
	C233.657,133.167,234.024,133.234,234.291,133.367z"/>
<path fill="#FFFFFF" d="M251.771,141.887l-0.14,1.44c-0.36,0.16-0.772,0.24-1.24,0.24c-0.57,0-1.027-0.114-1.37-0.34
	c-0.34-0.226-0.562-0.606-0.67-1.14c-0.307,0.467-0.76,0.83-1.357,1.09c-0.603,0.26-1.273,0.39-2.021,0.39
	c-0.974,0-1.76-0.227-2.357-0.68c-0.603-0.453-0.899-1.1-0.899-1.938c0-0.787,0.326-1.45,0.979-1.99
	c0.65-0.54,1.627-0.923,2.92-1.15l2.54-0.44v-0.54c0-0.613-0.183-1.097-0.54-1.45c-0.36-0.353-0.86-0.53-1.5-0.53
	c-1.32,0-2.183,0.6-2.58,1.8l-1.66-0.88c0.24-0.8,0.729-1.433,1.471-1.9c0.739-0.467,1.649-0.7,2.729-0.7
	c1.293,0,2.317,0.3,3.08,0.9c0.76,0.6,1.14,1.48,1.14,2.64v4.52c0,0.253,0.057,0.44,0.171,0.56c0.112,0.12,0.303,0.18,0.569,0.18
	C251.323,141.967,251.57,141.94,251.771,141.887z M247.33,141.427c0.547-0.347,0.819-0.807,0.819-1.38v-1.2l-2.182,0.44
	c-0.69,0.133-1.207,0.32-1.54,0.56c-0.334,0.24-0.5,0.56-0.5,0.96c0,0.374,0.13,0.657,0.393,0.85c0.26,0.193,0.63,0.29,1.107,0.29
	C246.149,141.947,246.783,141.774,247.33,141.427z"/>
<path fill="#FFFFFF" d="M255.87,140.447c0,0.493,0.073,0.837,0.22,1.03c0.147,0.193,0.42,0.29,0.82,0.29
	c0.253,0,0.47-0.017,0.646-0.05c0.184-0.033,0.403-0.103,0.67-0.21l-0.236,1.72c-0.454,0.227-1.007,0.34-1.66,0.34
	c-0.896,0-1.55-0.227-1.97-0.68c-0.422-0.453-0.634-1.167-0.634-2.14v-11.88h2.144V140.447L255.87,140.447z"/>
<path fill="#FFFFFF" d="M260.05,131.337c-0.253-0.233-0.38-0.563-0.38-0.99c0-0.427,0.127-0.753,0.38-0.98
	c0.254-0.227,0.606-0.34,1.062-0.34c0.45,0,0.803,0.113,1.05,0.34c0.246,0.227,0.37,0.553,0.37,0.98c0,0.427-0.124,0.757-0.37,0.99
	c-0.247,0.233-0.6,0.35-1.05,0.35C260.656,131.687,260.304,131.571,260.05,131.337z M262.17,143.367h-2.14v-10h2.14V143.367z"/>
<path fill="#FFFFFF" d="M274.89,141.887l-0.14,1.44c-0.36,0.16-0.773,0.24-1.24,0.24c-0.573,0-1.03-0.114-1.37-0.34
	s-0.562-0.606-0.67-1.14c-0.307,0.467-0.76,0.83-1.357,1.09c-0.603,0.26-1.273,0.39-2.021,0.39c-0.974,0-1.76-0.227-2.359-0.68
	c-0.601-0.453-0.897-1.1-0.897-1.938c0-0.787,0.326-1.45,0.979-1.99c0.653-0.54,1.628-0.923,2.921-1.15l2.541-0.44v-0.54
	c0-0.613-0.182-1.097-0.541-1.45c-0.358-0.353-0.858-0.53-1.5-0.53c-1.318,0-2.181,0.6-2.578,1.8l-1.66-0.88
	c0.238-0.8,0.729-1.433,1.471-1.9c0.739-0.467,1.649-0.7,2.729-0.7c1.293,0,2.317,0.3,3.079,0.9c0.761,0.6,1.141,1.48,1.141,2.64
	v4.52c0,0.253,0.057,0.44,0.171,0.56c0.112,0.12,0.303,0.18,0.569,0.18C274.442,141.967,274.69,141.94,274.89,141.887z
	 M270.449,141.427c0.547-0.347,0.817-0.807,0.817-1.38v-1.2l-2.18,0.44c-0.693,0.133-1.207,0.32-1.54,0.56
	c-0.334,0.24-0.5,0.56-0.5,0.96c0,0.374,0.13,0.657,0.391,0.85c0.262,0.193,0.632,0.29,1.109,0.29
	C269.27,141.947,269.902,141.774,270.449,141.427z"/>
<path fill="#FFFFFF" d="M286.149,128.867v14.5h-1.883l-0.117-1.78c-0.293,0.6-0.736,1.08-1.33,1.44
	c-0.597,0.36-1.271,0.54-2.03,0.54c-1.373,0-2.456-0.457-3.25-1.37c-0.793-0.913-1.189-2.183-1.189-3.812
	c0-1.626,0.396-2.903,1.189-3.83c0.794-0.926,1.877-1.39,3.25-1.39c0.733,0,1.381,0.164,1.938,0.49
	c0.562,0.326,0.986,0.77,1.28,1.33v-6.12L286.149,128.867L286.149,128.867z M283.27,140.947c0.493-0.6,0.74-1.42,0.74-2.46v-0.24
	c0-1.04-0.247-1.856-0.74-2.45c-0.49-0.594-1.157-0.89-2-0.89c-0.864,0-1.544,0.303-2.027,0.91c-0.486,0.606-0.729,1.457-0.729,2.55
	c0,1.093,0.243,1.947,0.729,2.56c0.483,0.613,1.163,0.92,2.027,0.92C282.108,141.847,282.776,141.547,283.27,140.947z"/>
<path fill="#FFFFFF" d="M297.529,134.547c0.88,0.92,1.317,2.193,1.317,3.82s-0.438,2.9-1.317,3.82s-2.103,1.38-3.66,1.38
	c-1.562,0-2.779-0.46-3.659-1.38c-0.881-0.92-1.32-2.193-1.32-3.82c0-1.626,0.439-2.9,1.32-3.82c0.88-0.92,2.1-1.38,3.659-1.38
	C295.43,133.167,296.649,133.627,297.529,134.547z M291.779,135.757c-0.486,0.607-0.729,1.477-0.729,2.61
	c0,1.133,0.243,2.003,0.729,2.61c0.484,0.607,1.184,0.91,2.09,0.91c0.907,0,1.604-0.307,2.101-0.92c0.494-0.613,0.74-1.479,0.74-2.6
	s-0.247-1.986-0.74-2.6c-0.493-0.613-1.19-0.92-2.101-0.92C292.963,134.847,292.267,135.15,291.779,135.757z"/>
<path fill="#FFFFFF" d="M151.86,158.537c0.787,0.914,1.181,2.184,1.181,3.81c0,1.627-0.394,2.903-1.181,3.83
	c-0.785,0.927-1.866,1.39-3.239,1.39c-0.72,0-1.363-0.16-1.931-0.48c-0.566-0.32-1.002-0.76-1.312-1.32v5.8h-2.142v-14.2h1.882
	l0.1,1.86c0.294-0.626,0.736-1.126,1.33-1.5c0.595-0.373,1.283-0.56,2.07-0.56C149.995,157.167,151.075,157.624,151.86,158.537z
	 M150.171,164.917c0.486-0.606,0.73-1.457,0.73-2.55c0-1.093-0.244-1.947-0.73-2.56c-0.486-0.613-1.163-0.92-2.029-0.92
	c-0.812,0-1.464,0.273-1.951,0.82c-0.484,0.547-0.756,1.307-0.81,2.28v0.76c0.054,0.96,0.323,1.713,0.81,2.26
	c0.487,0.547,1.14,0.82,1.951,0.82C149.008,165.827,149.685,165.524,150.171,164.917z"/>
<path fill="#FFFFFF" d="M165.182,165.887l-0.14,1.44c-0.36,0.16-0.773,0.24-1.24,0.24c-0.574,0-1.029-0.114-1.37-0.34
	c-0.34-0.226-0.562-0.606-0.67-1.14c-0.307,0.467-0.76,0.83-1.36,1.09c-0.6,0.26-1.271,0.39-2.02,0.39
	c-0.974,0-1.76-0.227-2.359-0.68c-0.601-0.453-0.898-1.1-0.898-1.938c0-0.787,0.327-1.45,0.979-1.99
	c0.652-0.54,1.625-0.923,2.92-1.15l2.539-0.44v-0.54c0-0.613-0.18-1.097-0.539-1.45c-0.358-0.353-0.858-0.53-1.5-0.53
	c-1.318,0-2.181,0.6-2.58,1.8l-1.658-0.88c0.238-0.8,0.729-1.433,1.47-1.9c0.74-0.467,1.647-0.7,2.729-0.7
	c1.293,0,2.319,0.3,3.08,0.9c0.762,0.6,1.142,1.48,1.142,2.64v4.52c0,0.253,0.057,0.44,0.17,0.56c0.112,0.12,0.303,0.18,0.569,0.18
	C164.735,165.967,164.981,165.94,165.182,165.887z M160.742,165.427c0.546-0.347,0.819-0.807,0.819-1.38v-1.2l-2.182,0.44
	c-0.691,0.133-1.207,0.32-1.54,0.56c-0.333,0.24-0.5,0.56-0.5,0.96c0,0.374,0.13,0.657,0.392,0.85
	c0.261,0.193,0.631,0.29,1.108,0.29C159.562,165.947,160.194,165.774,160.742,165.427z"/>
<path fill="#FFFFFF" d="M173.461,157.367l-0.34,1.96c-0.308-0.173-0.728-0.26-1.261-0.26c-0.426,0-0.83,0.113-1.209,0.34
	c-0.381,0.227-0.693,0.567-0.94,1.02c-0.247,0.454-0.37,1-0.37,1.64v5.3h-2.14v-10h1.819l0.181,1.8c0.56-1.333,1.612-2,3.159-2
	C172.828,157.167,173.194,157.234,173.461,157.367z"/>
<path fill="#FFFFFF" d="M184.642,165.887l-0.14,1.44c-0.36,0.16-0.773,0.24-1.24,0.24c-0.574,0-1.03-0.114-1.37-0.34
	s-0.562-0.606-0.67-1.14c-0.307,0.467-0.76,0.83-1.359,1.09c-0.601,0.26-1.271,0.39-2.021,0.39c-0.974,0-1.76-0.227-2.36-0.68
	c-0.6-0.453-0.897-1.1-0.897-1.938c0-0.787,0.327-1.45,0.979-1.99s1.627-0.923,2.92-1.15l2.541-0.44v-0.54
	c0-0.613-0.182-1.097-0.541-1.45c-0.358-0.353-0.858-0.53-1.5-0.53c-1.318,0-2.181,0.6-2.58,1.8l-1.658-0.88
	c0.238-0.8,0.729-1.433,1.47-1.9c0.74-0.467,1.649-0.7,2.729-0.7c1.293,0,2.32,0.3,3.08,0.9c0.761,0.6,1.141,1.48,1.141,2.64v4.52
	c0,0.253,0.057,0.44,0.17,0.56s0.303,0.18,0.57,0.18C184.195,165.967,184.44,165.94,184.642,165.887z M180.202,165.427
	c0.546-0.347,0.82-0.807,0.82-1.38v-1.2l-2.183,0.44c-0.692,0.133-1.207,0.32-1.54,0.56c-0.333,0.24-0.5,0.56-0.5,0.96
	c0,0.374,0.132,0.657,0.393,0.85c0.26,0.193,0.629,0.29,1.107,0.29C179.022,165.947,179.655,165.774,180.202,165.427z"/>
<path fill="#FFFFFF" d="M202.162,165.887l-0.143,1.44c-0.357,0.16-0.771,0.24-1.237,0.24c-0.574,0-1.03-0.114-1.37-0.34
	s-0.563-0.606-0.67-1.14c-0.31,0.467-0.761,0.83-1.36,1.09c-0.6,0.26-1.273,0.39-2.02,0.39c-0.977,0-1.763-0.227-2.36-0.68
	c-0.6-0.453-0.9-1.1-0.9-1.938c0-0.787,0.327-1.45,0.98-1.99s1.626-0.923,2.92-1.15l2.54-0.44v-0.54c0-0.613-0.18-1.097-0.54-1.45
	s-0.86-0.53-1.5-0.53c-1.32,0-2.18,0.6-2.58,1.8l-1.66-0.88c0.24-0.8,0.73-1.433,1.473-1.9c0.737-0.467,1.647-0.7,2.729-0.7
	c1.293,0,2.32,0.3,3.08,0.9s1.14,1.48,1.14,2.64v4.52c0,0.253,0.06,0.44,0.172,0.56c0.111,0.12,0.304,0.18,0.568,0.18
	C201.715,165.967,201.961,165.94,202.162,165.887z M197.722,165.427c0.546-0.347,0.82-0.807,0.82-1.38v-1.2l-2.18,0.44
	c-0.694,0.133-1.207,0.32-1.54,0.56c-0.333,0.24-0.5,0.56-0.5,0.96c0,0.374,0.13,0.657,0.39,0.85c0.26,0.193,0.63,0.29,1.11,0.29
	C196.542,165.947,197.175,165.774,197.722,165.427z"/>
<path fill="#FFFFFF" d="M213.422,152.867v14.5h-1.88l-0.12-1.78c-0.293,0.6-0.737,1.08-1.33,1.44s-1.27,0.54-2.03,0.54
	c-1.373,0-2.457-0.457-3.25-1.37c-0.793-0.913-1.188-2.183-1.188-3.812c0-1.626,0.396-2.903,1.188-3.83
	c0.793-0.926,1.877-1.39,3.25-1.39c0.733,0,1.383,0.164,1.94,0.49c0.56,0.326,0.986,0.77,1.28,1.33v-6.12L213.422,152.867
	L213.422,152.867z M210.542,164.947c0.493-0.6,0.74-1.42,0.74-2.46v-0.24c0-1.04-0.247-1.856-0.74-2.45
	c-0.494-0.593-1.16-0.89-2-0.89c-0.867,0-1.543,0.303-2.03,0.91c-0.487,0.606-0.729,1.457-0.729,2.55
	c0,1.093,0.241,1.947,0.729,2.56c0.487,0.613,1.164,0.92,2.03,0.92C209.382,165.847,210.048,165.547,210.542,164.947z"/>
<path fill="#FFFFFF" d="M230.642,157.577c0.562,0.273,1.008,0.69,1.344,1.25c0.33,0.56,0.5,1.247,0.5,2.06v6.48h-2.144v-6.14
	c0-0.787-0.187-1.366-0.56-1.74c-0.374-0.373-0.874-0.56-1.5-0.56c-0.733,0-1.354,0.267-1.854,0.8c-0.5,0.534-0.75,1.267-0.75,2.2
	v5.44h-2.14v-6.14c0-0.787-0.188-1.366-0.562-1.74c-0.375-0.373-0.875-0.56-1.5-0.56c-0.429,0-0.842,0.11-1.238,0.33
	c-0.4,0.22-0.729,0.563-0.98,1.03c-0.253,0.467-0.38,1.054-0.38,1.76v5.32h-2.14v-10h1.897l0.103,1.66
	c0.333-0.613,0.785-1.077,1.356-1.39c0.573-0.312,1.2-0.47,1.882-0.47c0.745,0,1.424,0.17,2.028,0.51
	c0.606,0.34,1.058,0.837,1.353,1.49c0.308-0.653,0.774-1.15,1.408-1.49c0.635-0.34,1.312-0.51,2.029-0.51
	C229.469,157.167,230.082,157.304,230.642,157.577z"/>
<path fill="#FFFFFF" d="M235.741,155.337c-0.253-0.233-0.38-0.563-0.38-0.99c0-0.427,0.127-0.753,0.38-0.98
	c0.254-0.227,0.604-0.34,1.061-0.34c0.453,0,0.803,0.113,1.05,0.34c0.246,0.227,0.37,0.553,0.37,0.98c0,0.427-0.124,0.757-0.37,0.99
	c-0.247,0.233-0.597,0.35-1.05,0.35C236.348,155.687,235.995,155.571,235.741,155.337z M237.861,167.367h-2.143v-10h2.143V167.367z"
	/>
<path fill="#FFFFFF" d="M249.291,158.127c0.7,0.64,1.05,1.56,1.05,2.76v6.48h-2.14v-5.8c0-1.76-0.714-2.64-2.144-2.64
	c-0.746,0-1.387,0.257-1.92,0.771c-0.533,0.513-0.8,1.303-0.8,2.37v5.3h-2.14v-10h1.896l0.104,1.66
	c0.333-0.627,0.793-1.093,1.38-1.4c0.587-0.306,1.253-0.46,2-0.46C247.688,157.167,248.591,157.487,249.291,158.127z"/>
<path fill="#FFFFFF" d="M253.601,155.337c-0.253-0.233-0.38-0.563-0.38-0.99c0-0.427,0.127-0.753,0.38-0.98
	c0.254-0.227,0.606-0.34,1.062-0.34c0.453,0,0.803,0.113,1.05,0.34c0.246,0.227,0.37,0.553,0.37,0.98c0,0.427-0.124,0.757-0.37,0.99
	c-0.247,0.233-0.597,0.35-1.05,0.35C254.207,155.687,253.854,155.571,253.601,155.337z M255.721,167.367h-2.14v-10h2.14V167.367z"/>
<path fill="#FFFFFF" d="M259.99,167.047c-0.78-0.347-1.37-0.874-1.771-1.58l1.439-1.24c0.253,0.574,0.646,0.994,1.181,1.26
	c0.532,0.267,1.173,0.4,1.92,0.4c0.682,0,1.206-0.11,1.58-0.33c0.373-0.22,0.561-0.51,0.561-0.87c0-0.32-0.175-0.576-0.521-0.77
	c-0.348-0.193-0.947-0.376-1.801-0.55c-1.479-0.28-2.521-0.653-3.12-1.12c-0.6-0.466-0.899-1.126-0.899-1.98
	c0-0.546,0.166-1.057,0.5-1.53c0.333-0.473,0.816-0.853,1.45-1.14c0.633-0.287,1.383-0.43,2.25-0.43c1.106,0,1.993,0.184,2.659,0.55
	c0.667,0.367,1.181,0.938,1.54,1.71l-1.521,1.12c-0.237-0.587-0.574-1.017-1.01-1.29c-0.434-0.273-0.98-0.41-1.647-0.41
	c-0.603,0-1.1,0.124-1.49,0.37c-0.396,0.246-0.59,0.53-0.59,0.85c0,0.36,0.177,0.646,0.528,0.86c0.354,0.214,0.995,0.407,1.932,0.58
	c1.413,0.253,2.413,0.613,3,1.08s0.88,1.12,0.88,1.96c0,0.893-0.387,1.62-1.159,2.18c-0.771,0.56-1.841,0.84-3.2,0.84
	C261.667,167.567,260.771,167.394,259.99,167.047z"/>
<path fill="#FFFFFF" d="M276.12,166.707c-0.319,0.267-0.71,0.477-1.17,0.63c-0.46,0.153-0.957,0.23-1.489,0.23
	c-0.921,0-1.657-0.23-2.211-0.69c-0.553-0.46-0.836-1.176-0.851-2.15v-5.68H268.5v-1.68h1.899v-2.34l2.141-0.6v2.94h3.5v1.68h-3.5
	v5.32c0,0.48,0.131,0.837,0.391,1.07s0.616,0.35,1.069,0.35c0.613,0,1.153-0.213,1.62-0.64L276.12,166.707z"/>
<path fill="#FFFFFF" d="M284.38,157.367l-0.34,1.96c-0.307-0.173-0.727-0.26-1.26-0.26c-0.43,0-0.83,0.113-1.21,0.34
	c-0.38,0.227-0.693,0.567-0.94,1.02c-0.247,0.454-0.37,1-0.37,1.64v5.3h-2.14v-10h1.82l0.18,1.8c0.56-1.333,1.613-2,3.16-2
	C283.746,157.167,284.113,157.234,284.38,157.367z"/>
<path fill="#FFFFFF" d="M295.56,165.887l-0.14,1.44c-0.36,0.16-0.773,0.24-1.24,0.24c-0.573,0-1.03-0.114-1.37-0.34
	s-0.562-0.606-0.67-1.14c-0.307,0.467-0.76,0.83-1.357,1.09c-0.603,0.26-1.273,0.39-2.021,0.39c-0.974,0-1.76-0.227-2.357-0.68
	c-0.603-0.453-0.899-1.1-0.899-1.938c0-0.787,0.326-1.45,0.979-1.99c0.651-0.54,1.627-0.923,2.921-1.15l2.54-0.44v-0.54
	c0-0.613-0.183-1.097-0.54-1.45c-0.36-0.353-0.86-0.53-1.5-0.53c-1.32,0-2.183,0.6-2.58,1.8l-1.66-0.88
	c0.24-0.8,0.729-1.433,1.471-1.9c0.739-0.467,1.649-0.7,2.729-0.7c1.293,0,2.317,0.3,3.08,0.9c0.76,0.6,1.14,1.48,1.14,2.64v4.52
	c0,0.253,0.057,0.44,0.171,0.56c0.112,0.12,0.303,0.18,0.569,0.18C295.112,165.967,295.358,165.94,295.56,165.887z M291.119,165.427
	c0.547-0.347,0.817-0.807,0.817-1.38v-1.2l-2.18,0.44c-0.691,0.133-1.207,0.32-1.54,0.56c-0.334,0.24-0.5,0.56-0.5,0.96
	c0,0.374,0.13,0.657,0.392,0.85c0.261,0.193,0.631,0.29,1.108,0.29C289.94,165.947,290.572,165.774,291.119,165.427z"/>
<path fill="#FFFFFF" d="M303.839,157.367l-0.34,1.96c-0.307-0.173-0.727-0.26-1.26-0.26c-0.43,0-0.83,0.113-1.21,0.34
	c-0.38,0.227-0.693,0.567-0.94,1.02c-0.247,0.454-0.37,1-0.37,1.64v5.3h-2.14v-10h1.82l0.18,1.8c0.56-1.333,1.613-2,3.16-2
	C303.205,157.167,303.572,157.234,303.839,157.367z"/>
<path fill="#FFFFFF" d="M170.312,183.967l-2,0.8c-0.347-1.267-1.127-1.9-2.34-1.9c-0.894,0-1.587,0.307-2.08,0.92
	c-0.494,0.613-0.74,1.48-0.74,2.6c0,1.12,0.246,1.98,0.74,2.58c0.493,0.6,1.188,0.9,2.08,0.9c0.68,0,1.227-0.167,1.641-0.5
	c0.412-0.333,0.688-0.813,0.82-1.44l1.959,0.66c-0.293,0.933-0.812,1.663-1.56,2.19s-1.687,0.79-2.82,0.79
	c-1.573,0-2.804-0.46-3.69-1.38c-0.885-0.92-1.327-2.193-1.327-3.82c0-1.626,0.438-2.9,1.317-3.82c0.881-0.92,2.103-1.38,3.66-1.38
	C168.158,181.167,169.604,182.101,170.312,183.967z"/>
<path fill="#FFFFFF" d="M180.952,182.547c0.88,0.92,1.32,2.193,1.32,3.82s-0.44,2.9-1.32,3.82c-0.881,0.92-2.1,1.38-3.66,1.38
	s-2.78-0.46-3.66-1.38s-1.32-2.193-1.32-3.82c0-1.626,0.44-2.9,1.32-3.82s2.1-1.38,3.66-1.38S180.071,181.627,180.952,182.547z
	 M175.202,183.757c-0.487,0.607-0.73,1.477-0.73,2.61c0,1.133,0.243,2.003,0.73,2.61c0.486,0.607,1.183,0.91,2.09,0.91
	c0.906,0,1.605-0.307,2.1-0.92c0.493-0.613,0.74-1.479,0.74-2.6s-0.247-1.986-0.74-2.6c-0.494-0.613-1.19-0.92-2.1-0.92
	S175.688,183.15,175.202,183.757z"/>
<path fill="#FFFFFF" d="M193.101,182.127c0.7,0.64,1.053,1.56,1.053,2.76v6.48h-2.143v-5.8c0-1.76-0.713-2.64-2.14-2.64
	c-0.747,0-1.388,0.257-1.92,0.771c-0.534,0.513-0.8,1.303-0.8,2.37v5.3h-2.143v-10h1.9l0.1,1.66c0.333-0.627,0.793-1.093,1.38-1.4
	c0.586-0.306,1.253-0.46,2-0.46C191.498,181.167,192.401,181.487,193.101,182.127z"/>
<path fill="#FFFFFF" d="M206.651,176.867v14.5h-1.883l-0.117-1.78c-0.293,0.6-0.737,1.08-1.33,1.44
	c-0.596,0.36-1.271,0.54-2.03,0.54c-1.374,0-2.457-0.457-3.25-1.37c-0.793-0.913-1.19-2.183-1.19-3.812
	c0-1.626,0.396-2.903,1.19-3.83c0.793-0.926,1.876-1.39,3.25-1.39c0.733,0,1.38,0.164,1.94,0.49c0.56,0.326,0.983,0.77,1.277,1.33
	v-6.12L206.651,176.867L206.651,176.867z M203.771,188.947c0.493-0.6,0.74-1.42,0.74-2.46v-0.24c0-1.04-0.247-1.856-0.74-2.45
	c-0.491-0.593-1.157-0.89-2-0.89c-0.864,0-1.543,0.303-2.027,0.91c-0.487,0.606-0.73,1.457-0.73,2.55c0,1.093,0.243,1.947,0.73,2.56
	c0.484,0.613,1.164,0.92,2.027,0.92C202.611,189.847,203.277,189.547,203.771,188.947z"/>
<path fill="#FFFFFF" d="M218.031,182.547c0.88,0.92,1.316,2.193,1.316,3.82s-0.438,2.9-1.316,3.82s-2.103,1.38-3.66,1.38
	c-1.562,0-2.78-0.46-3.66-1.38s-1.32-2.193-1.32-3.82c0-1.626,0.44-2.9,1.32-3.82s2.1-1.38,3.66-1.38
	C215.931,181.167,217.151,181.627,218.031,182.547z M212.281,183.757c-0.487,0.607-0.73,1.477-0.73,2.61
	c0,1.133,0.243,2.003,0.73,2.61c0.483,0.607,1.183,0.91,2.09,0.91s1.604-0.307,2.1-0.92c0.493-0.613,0.74-1.479,0.74-2.6
	s-0.247-1.986-0.74-2.6c-0.494-0.613-1.19-0.92-2.1-0.92S212.768,183.15,212.281,183.757z"/>
<path fill="#FFFFFF" d="M235.99,181.577c0.561,0.273,1.007,0.69,1.341,1.25c0.333,0.56,0.5,1.247,0.5,2.06v6.48h-2.141v-6.14
	c0-0.787-0.188-1.366-0.562-1.74c-0.374-0.373-0.874-0.56-1.5-0.56c-0.73,0-1.351,0.267-1.851,0.8c-0.5,0.534-0.75,1.267-0.75,2.2
	v5.44h-2.143v-6.14c0-0.787-0.187-1.366-0.56-1.74c-0.374-0.373-0.874-0.56-1.5-0.56c-0.429,0-0.842,0.11-1.24,0.33
	c-0.4,0.22-0.727,0.563-0.98,1.03c-0.252,0.467-0.38,1.054-0.38,1.76v5.32h-2.14v-10h1.898l0.102,1.66
	c0.333-0.613,0.786-1.077,1.359-1.39c0.57-0.312,1.197-0.47,1.881-0.47c0.746,0,1.423,0.17,2.028,0.51
	c0.604,0.34,1.058,0.837,1.352,1.49c0.307-0.653,0.776-1.15,1.41-1.49c0.633-0.34,1.31-0.51,2.026-0.51
	C234.817,181.167,235.431,181.304,235.99,181.577z"/>
<path fill="#FFFFFF" d="M241.09,179.337c-0.253-0.233-0.38-0.563-0.38-0.99c0-0.427,0.127-0.753,0.38-0.98
	c0.254-0.227,0.606-0.34,1.062-0.34c0.45,0,0.803,0.113,1.05,0.34c0.246,0.227,0.37,0.553,0.37,0.98c0,0.427-0.124,0.757-0.37,0.99
	c-0.247,0.233-0.6,0.35-1.05,0.35C241.696,179.687,241.344,179.571,241.09,179.337z M243.21,191.367h-2.14v-10h2.14V191.367z"/>
<path fill="#FFFFFF" d="M254.64,182.127c0.7,0.64,1.051,1.56,1.051,2.76v6.48h-2.141v-5.8c0-1.76-0.714-2.64-2.141-2.64
	c-0.746,0-1.39,0.257-1.92,0.771c-0.533,0.513-0.803,1.303-0.803,2.37v5.3h-2.14v-10h1.899l0.101,1.66
	c0.333-0.627,0.793-1.093,1.38-1.4c0.587-0.306,1.253-0.46,2-0.46C253.036,181.167,253.94,181.487,254.64,182.127z"/>
<path fill="#FFFFFF" d="M258.949,179.337c-0.253-0.233-0.38-0.563-0.38-0.99c0-0.427,0.127-0.753,0.38-0.98
	c0.254-0.227,0.604-0.34,1.061-0.34c0.453,0,0.804,0.113,1.05,0.34c0.246,0.227,0.37,0.553,0.37,0.98c0,0.427-0.124,0.757-0.37,0.99
	c-0.247,0.233-0.597,0.35-1.05,0.35C259.556,179.687,259.203,179.571,258.949,179.337z M261.069,191.367h-2.143v-10h2.143V191.367z"
	/>
<path fill="#FFFFFF" d="M272.469,182.547c0.88,0.92,1.32,2.193,1.32,3.82s-0.44,2.9-1.32,3.82s-2.1,1.38-3.66,1.38
	c-1.56,0-2.776-0.46-3.659-1.38c-0.881-0.92-1.317-2.193-1.317-3.82c0-1.626,0.438-2.9,1.317-3.82c0.883-0.92,2.103-1.38,3.659-1.38
	C270.369,181.167,271.589,181.627,272.469,182.547z M266.719,183.757c-0.483,0.607-0.729,1.477-0.729,2.61
	c0,1.133,0.243,2.003,0.729,2.61c0.487,0.607,1.187,0.91,2.09,0.91c0.907,0,1.607-0.307,2.104-0.92
	c0.494-0.613,0.737-1.479,0.737-2.6s-0.244-1.986-0.737-2.6c-0.493-0.613-1.193-0.92-2.104-0.92
	C267.902,182.847,267.206,183.15,266.719,183.757z"/>
<path fill="#FFFFFF" d="M277.459,191.047c-0.78-0.347-1.37-0.874-1.771-1.58l1.439-1.24c0.253,0.574,0.646,0.994,1.181,1.26
	c0.532,0.267,1.174,0.4,1.92,0.4c0.683,0,1.206-0.11,1.58-0.33c0.373-0.22,0.562-0.51,0.562-0.87c0-0.32-0.174-0.576-0.521-0.77
	c-0.348-0.193-0.944-0.376-1.801-0.55c-1.479-0.28-2.52-0.653-3.12-1.12c-0.6-0.466-0.896-1.126-0.896-1.98
	c0-0.546,0.166-1.057,0.5-1.53c0.333-0.473,0.813-0.853,1.448-1.14c0.635-0.287,1.385-0.43,2.25-0.43
	c1.105,0,1.992,0.184,2.658,0.55c0.667,0.367,1.184,0.938,1.54,1.71l-1.52,1.12c-0.24-0.587-0.577-1.017-1.013-1.29
	c-0.434-0.273-0.98-0.41-1.647-0.41c-0.603,0-1.097,0.124-1.49,0.37c-0.393,0.246-0.59,0.53-0.59,0.85c0,0.36,0.177,0.646,0.53,0.86
	c0.353,0.214,0.996,0.407,1.93,0.58c1.413,0.253,2.413,0.613,3,1.08s0.88,1.12,0.88,1.96c0,0.893-0.387,1.62-1.159,2.18
	c-0.771,0.56-1.841,0.84-3.197,0.84C279.136,191.567,278.239,191.394,277.459,191.047z"/>
</svg>
