<?xml version="1.0" encoding="utf-8"?>
<!-- Generator: Adobe Illustrator 15.0.0, SVG Export Plug-In . SVG Version: 6.00 Build 0)  -->
<!DOCTYPE svg PUBLIC "-//W3C//DTD SVG 1.1//EN" "http://www.w3.org/Graphics/SVG/1.1/DTD/svg11.dtd">
<svg version="1.1" id="a1f75fc3-9e42-4fc1-bde4-b430080f0daf"
	 xmlns="http://www.w3.org/2000/svg" xmlns:xlink="http://www.w3.org/1999/xlink" x="0px" y="0px" width="442px" height="554.867px"
	 viewBox="0 0 442 554.867" enable-background="new 0 0 442 554.867" xml:space="preserve">
<circle fill="#FF6584" cx="331.332" cy="363.708" r="46.478"/>
<path fill="#FFFFFF" d="M458.822,398.361c0.103-0.02,0.18-0.09,0.299-0.072c-0.053-0.201-0.12-0.397-0.204-0.588
	c-0.146,0.201-0.298,0.407-0.431,0.588L458.822,398.361z"/>
<path fill="#E6E6E6" d="M147.092,473.711c0.272,10.141,1.971,20.192,5.045,29.858c0.07,0.224,0.146,0.443,0.219,0.669h18.83
	c-0.021-0.201-0.041-0.426-0.062-0.669c-1.256-14.436-8.494-102.279,0.16-117.302C170.527,387.484,145.632,427.852,147.092,473.711z
	"/>
<path fill="#E6E6E6" d="M148.505,503.569c0.157,0.224,0.321,0.446,0.488,0.669h14.125c-0.107-0.191-0.231-0.415-0.375-0.669
	c-2.334-4.212-9.241-16.806-15.652-29.858c-6.89-14.028-13.211-28.588-12.679-33.857C134.249,441.04,129.48,477.273,148.505,503.569
	z"/>
<path fill="#E6E6E6" d="M295.286,505.984c-0.237,8.839-1.717,17.602-4.399,26.027c-0.061,0.195-0.125,0.39-0.188,0.584h-16.416
	c0.018-0.176,0.035-0.371,0.054-0.584c1.095-12.583,7.405-89.168-0.141-102.265C274.854,430.811,296.559,466.001,295.286,505.984z"
	/>
<path fill="#E6E6E6" d="M294.055,532.014c-0.138,0.195-0.278,0.394-0.426,0.584h-12.312c0.092-0.167,0.199-0.36,0.324-0.584
	c2.035-3.672,8.059-14.647,13.646-26.027c6.007-12.23,11.519-24.927,11.054-29.521C306.483,477.501,310.64,509.089,294.055,532.014z
	"/>
<path fill="#3F3D56" d="M107.593,245.725l7.656-6.123c-5.947-0.655-8.392,2.588-9.392,5.154c-4.646-1.929-9.703,0.6-9.703,0.6
	l15.316,5.561C110.698,248.852,109.354,247.052,107.593,245.725z"/>
<path fill="#3F3D56" d="M338.165,214.208l7.655-6.123c-5.947-0.656-8.393,2.587-9.393,5.155c-4.646-1.929-9.704,0.599-9.704,0.599
	l15.317,5.561C341.27,217.336,339.925,215.535,338.165,214.208z"/>
<path fill="#3F3D56" d="M450.799,456.336c0,5.072-0.177,10.105-0.53,15.096c-2.727,39.37-16.378,77.2-39.421,109.241
	c-3.011,4.202-6.173,8.287-9.483,12.254c-8.582,10.294-18.111,19.759-28.462,28.273l-45.371-26.624l-27.127-63.313
	c0,0,40.475-81.95,150.323-80.466C450.771,452.638,450.797,454.482,450.799,456.336z"/>
<path fill="#28DF99" d="M450.269,471.431c-4.22,59.479-33.131,114.481-79.729,151.688l-42.15-24.731l-24.058-56.15
	C304.33,542.234,343.312,463.307,450.269,471.431z"/>
<path fill="#3F3D56" d="M410.848,580.672c-3.011,4.202-6.173,8.287-9.483,12.254c-22.194,26.666-50.558,47.522-82.624,60.76
	c-6.494,2.68-13.143,5.039-19.939,7.084c-49.095,13.059-101.106,9.755-148.156-9.405c-46.531-20.771-84.136-57.446-106.055-103.448
	c-2.945-6.192-5.594-12.542-7.946-19.049c41.024-30.052,121.862-73.088,209.966-31.271c24.371,11.566,46.133,22.111,65.282,31.631
	C360.488,553.316,392.833,570.683,410.848,580.672z"/>
<path fill="#28DF99" d="M401.362,592.926c-75.562,90.56-210.226,102.714-300.779,27.153c-23.651-19.734-42.753-44.354-55.995-72.164
	c34.262-27.096,113.287-75.785,200.01-34.629c22.305,10.585,42.213,20.232,59.732,28.946
	C355.402,567.547,386.863,584.75,401.362,592.926z"/>
<path fill="#3F3D56" d="M340.89,643.01c-7.175,3.979-14.569,7.542-22.149,10.676c-25.8,10.635-53.438,16.088-81.343,16.055
	c-66.938-0.026-129.99-31.434-170.341-84.838C118.021,579.527,258.906,572.279,340.89,643.01z"/>
<path fill="#28DF99" d="M318.738,653.688c-81.899,33.677-176.083,13.336-236.785-51.139
	C100.491,599.826,246.037,581.124,318.738,653.688z"/>
<path fill="#E6E6E6" d="M415.005,337.995v0.007C262.624,225.337,88.041,304.636,86.692,305.246v-0.008
	c39.965-39.96,94.188-62.377,150.707-62.305C311.479,242.933,376.742,280.686,415.005,337.995z"/>
<ellipse transform="matrix(0.9841 -0.1774 0.1774 0.9841 -63.5023 20.2984)" fill="#3F3D56" cx="81.758" cy="365.255" rx="47.422" ry="96.759"/>
<path fill="#28DF99" d="M105.539,521.898c-1.528-115.529-40.182-223.946-40.573-225.027l-3.525,1.271
	c0.388,1.074,38.831,108.924,40.351,223.806L105.539,521.898z"/>
<rect x="57.63" y="337.117" transform="matrix(0.3078 -0.9515 0.9515 0.3078 -302.7041 306.8135)" fill="#28DF99" width="3.747" height="48.644"/>
<rect x="81.778" y="362.853" transform="matrix(0.7839 -0.6209 0.6209 0.7839 -203.529 144.6957)" fill="#28DF99" width="48.64" height="3.749"/>
<ellipse fill="#3F3D56" cx="222.863" cy="339.102" rx="51.318" ry="104.715"/>
<path fill="#28DF99" d="M218.123,510.503c20.555-123.323,0.208-246.2,0-247.426l-3.999,0.678c0.207,1.22,20.438,123.451,0,246.083
	L218.123,510.503z"/>
<rect x="197.902" y="304.457" transform="matrix(0.4716 -0.8818 0.8818 0.4716 -186.0362 351.0811)" fill="#28DF99" width="4.057" height="52.631"/>
<rect x="222.579" y="341.182" transform="matrix(0.8817 -0.4719 0.4719 0.8817 -132.502 158.0673)" fill="#28DF99" width="52.637" height="4.057"/>
<path fill="#E6E6E6" d="M445.784,410.133c-18.829-10.57-38.502-19.566-58.815-26.891c-112.325-40.645-223.705-24.98-267.303,33.188
	c33.928-71.261,154.992-93.669,277.161-49.462c14.22,5.14,28.135,11.085,41.68,17.806
	C441.456,393.067,443.888,401.538,445.784,410.133z"/>
<path fill="#3F3D56" d="M294.083,295.461l7.655-6.123c-5.947-0.656-8.393,2.586-9.393,5.154c-4.646-1.93-9.701,0.6-9.701,0.6
	l15.314,5.562C297.188,298.589,295.843,296.787,294.083,295.461z"/>
<path fill="#28DF99" d="M145.333,105.307l-6.42,6.9v12.18h-6.42v-39.6h6.42v19.68l18.18-19.68h7.86l-15,16.199l15.359,23.4h-7.561
	L145.333,105.307z"/>
<path fill="#28DF99" d="M195.734,111.787h-21.961c0.359,2.64,1.3,4.649,2.819,6.029c1.521,1.38,3.48,2.07,5.88,2.07
	c1.959,0,3.592-0.35,4.892-1.05c1.299-0.699,2.188-1.71,2.67-3.03l5.34,2.22c-2.241,4.641-6.54,6.96-12.9,6.96
	c-4.72,0-8.409-1.38-11.068-4.14c-2.661-2.76-3.99-6.579-3.99-11.46c0-4.92,1.278-8.75,3.84-11.49
	c2.56-2.739,6.159-4.109,10.8-4.109c4.4,0,7.82,1.34,10.262,4.02c2.438,2.681,3.658,6.24,3.658,10.68
	C195.974,109.647,195.893,110.747,195.734,111.787z M176.443,100.927c-1.42,1.36-2.311,3.34-2.67,5.94h16.199
	c-0.318-2.521-1.17-4.479-2.55-5.881c-1.38-1.399-3.17-2.1-5.37-2.1C179.733,98.887,177.863,99.567,176.443,100.927z"/>
<path fill="#28DF99" d="M230.594,111.787h-21.96c0.36,2.64,1.299,4.649,2.82,6.029c1.52,1.38,3.479,2.07,5.88,2.07
	c1.96,0,3.59-0.35,4.89-1.05c1.302-0.699,2.19-1.71,2.671-3.03l5.342,2.22c-2.241,4.641-6.54,6.96-12.9,6.96
	c-4.72,0-8.41-1.38-11.07-4.14c-2.66-2.76-3.988-6.579-3.988-11.46c0-4.92,1.277-8.75,3.84-11.49
	c2.559-2.739,6.159-4.109,10.8-4.109c4.399,0,7.819,1.34,10.261,4.02c2.439,2.681,3.659,6.24,3.659,10.68
	C230.833,109.647,230.752,110.747,230.594,111.787z M211.303,100.927c-1.42,1.36-2.31,3.34-2.67,5.94h16.2
	c-0.32-2.521-1.17-4.479-2.55-5.881c-1.38-1.399-3.17-2.1-5.37-2.1C214.593,98.887,212.723,99.567,211.303,100.927z"/>
<path fill="#28DF99" d="M264.732,97.896c2.358,2.74,3.541,6.551,3.541,11.431s-1.183,8.71-3.541,11.489
	c-2.359,2.781-5.602,4.17-9.721,4.17c-2.158,0-4.091-0.479-5.791-1.439c-1.699-0.96-3.01-2.28-3.93-3.96v17.399h-6.42v-42.6h5.641
	l0.301,5.58c0.88-1.88,2.211-3.38,3.988-4.5c1.779-1.119,3.852-1.68,6.211-1.68C259.133,93.787,262.373,95.157,264.732,97.896z
	 M259.663,117.037c1.46-1.82,2.19-4.37,2.19-7.65c0-3.279-0.73-5.84-2.19-7.68s-3.49-2.761-6.09-2.761
	c-2.44,0-4.393,0.82-5.853,2.46c-1.461,1.641-2.27,3.921-2.43,6.841v2.279c0.16,2.88,0.969,5.141,2.43,6.78
	c1.46,1.641,3.41,2.46,5.853,2.46C256.173,119.767,258.203,118.857,259.663,117.037z"/>
<path fill="#28DF99" d="M300.793,97.927c2.64,2.76,3.96,6.58,3.96,11.46c0,4.881-1.32,8.7-3.96,11.46
	c-2.641,2.76-6.301,4.14-10.98,4.14c-4.679,0-8.34-1.38-10.979-4.14c-2.639-2.76-3.96-6.579-3.96-11.46c0-4.88,1.32-8.7,3.96-11.46
	c2.64-2.76,6.3-4.14,10.979-4.14C294.492,93.787,298.152,95.167,300.793,97.927z M283.543,101.557
	c-1.461,1.82-2.189,4.431-2.189,7.83c0,3.4,0.729,6.011,2.189,7.83c1.459,1.82,3.549,2.729,6.27,2.729
	c2.723,0,4.82-0.919,6.303-2.76c1.479-1.839,2.22-4.439,2.22-7.8c0-3.361-0.741-5.96-2.22-7.8c-1.48-1.84-3.58-2.76-6.303-2.76
	C287.092,98.826,285.002,99.737,283.543,101.557z"/>
<path fill="#FFFFFF" d="M154.633,155.007h-4.52v11.36h-2.141v-11.36h-4.521v-1.84h11.18L154.633,155.007L154.633,155.007z"/>
<path fill="#FFFFFF" d="M164.674,156.367v10h-1.9l-0.08-1.62c-0.68,1.213-1.865,1.82-3.56,1.82c-1.079,0-1.95-0.297-2.61-0.89
	c-0.658-0.593-0.988-1.503-0.988-2.729v-6.58h2.14v6.02c0,0.88,0.175,1.503,0.521,1.87c0.346,0.367,0.86,0.55,1.54,0.55
	c0.812,0,1.481-0.256,2.01-0.77c0.525-0.513,0.79-1.27,0.79-2.27v-5.4L164.674,156.367L164.674,156.367z"/>
<path fill="#FFFFFF" d="M188.395,156.577c0.561,0.273,1.007,0.69,1.341,1.25c0.333,0.56,0.5,1.247,0.5,2.06v6.48h-2.142v-6.14
	c0-0.787-0.187-1.366-0.56-1.74c-0.374-0.373-0.874-0.56-1.5-0.56c-0.733,0-1.352,0.267-1.852,0.8c-0.5,0.534-0.75,1.267-0.75,2.2
	v5.44h-2.14v-6.14c0-0.787-0.188-1.366-0.56-1.74c-0.374-0.373-0.874-0.56-1.5-0.56c-0.429,0-0.842,0.11-1.24,0.33
	c-0.4,0.22-0.729,0.563-0.98,1.03c-0.253,0.467-0.38,1.054-0.38,1.76v5.32h-2.14v-10h1.899l0.101,1.66
	c0.333-0.613,0.787-1.077,1.358-1.39c0.573-0.312,1.2-0.47,1.882-0.47c0.745,0,1.423,0.17,2.028,0.51
	c0.606,0.34,1.058,0.837,1.352,1.49c0.307-0.653,0.775-1.15,1.408-1.49c0.635-0.34,1.312-0.51,2.03-0.51
	C187.22,156.167,187.833,156.304,188.395,156.577z"/>
<path fill="#FFFFFF" d="M202.333,162.167h-7.32c0.12,0.88,0.435,1.55,0.94,2.01s1.16,0.69,1.96,0.69c0.653,0,1.196-0.117,1.63-0.35
	c0.433-0.233,0.73-0.57,0.89-1.01l1.78,0.74c-0.747,1.547-2.18,2.32-4.3,2.32c-1.574,0-2.804-0.46-3.69-1.38
	c-0.886-0.92-1.33-2.193-1.33-3.82c0-1.64,0.428-2.917,1.28-3.83c0.854-0.913,2.054-1.37,3.602-1.37c1.467,0,2.604,0.447,3.42,1.34
	c0.812,0.893,1.22,2.08,1.22,3.56C202.414,161.454,202.387,161.821,202.333,162.167z M195.903,158.547
	c-0.475,0.453-0.771,1.113-0.892,1.98h5.4c-0.107-0.84-0.391-1.493-0.852-1.96c-0.459-0.467-1.057-0.7-1.789-0.7
	C197,157.867,196.376,158.094,195.903,158.547z"/>
<path fill="#FFFFFF" d="M207.213,167.247c0,1.187-0.31,2.053-0.93,2.6c-0.62,0.546-1.403,0.82-2.352,0.82
	c-0.865,0-1.6-0.22-2.198-0.66l0.38-1.72c0.453,0.373,0.967,0.56,1.54,0.56c0.453,0,0.803-0.14,1.05-0.42
	c0.247-0.28,0.37-0.74,0.37-1.38v-10.68h2.14V167.247z M207.183,152.387c0.262,0.24,0.392,0.562,0.392,0.96s-0.13,0.724-0.392,0.97
	c-0.26,0.247-0.604,0.37-1.028,0.37c-0.44,0-0.79-0.123-1.051-0.37c-0.261-0.247-0.391-0.57-0.391-0.97s0.13-0.72,0.391-0.96
	c0.261-0.24,0.609-0.36,1.051-0.36C206.58,152.027,206.923,152.147,207.183,152.387z"/>
<path fill="#FFFFFF" d="M218.593,157.547c0.88,0.92,1.32,2.193,1.32,3.82s-0.44,2.9-1.32,3.82s-2.1,1.38-3.66,1.38
	c-1.56,0-2.778-0.46-3.658-1.38c-0.882-0.92-1.32-2.193-1.32-3.82c0-1.626,0.438-2.9,1.32-3.82c0.88-0.92,2.1-1.38,3.658-1.38
	C216.493,156.167,217.713,156.627,218.593,157.547z M212.843,158.757c-0.487,0.607-0.729,1.477-0.729,2.61
	c0,1.133,0.241,2.003,0.729,2.61s1.185,0.91,2.089,0.91c0.907,0,1.607-0.307,2.103-0.92c0.494-0.613,0.739-1.479,0.739-2.6
	s-0.246-1.986-0.739-2.6c-0.493-0.613-1.193-0.92-2.103-0.92C214.026,157.847,213.33,158.15,212.843,158.757z"/>
<path fill="#FFFFFF" d="M228.913,156.367l-0.34,1.96c-0.309-0.173-0.729-0.26-1.261-0.26c-0.428,0-0.829,0.113-1.209,0.34
	c-0.382,0.227-0.693,0.567-0.94,1.02c-0.247,0.454-0.37,1-0.37,1.64v5.3h-2.14v-10h1.818l0.182,1.8c0.56-1.333,1.611-2,3.159-2
	C228.279,156.167,228.646,156.234,228.913,156.367z"/>
<path fill="#FFFFFF" d="M246.393,164.887l-0.14,1.44c-0.36,0.16-0.772,0.24-1.24,0.24c-0.571,0-1.028-0.114-1.37-0.34
	c-0.34-0.226-0.562-0.606-0.67-1.14c-0.307,0.467-0.76,0.83-1.358,1.09c-0.602,0.26-1.273,0.39-2.021,0.39
	c-0.974,0-1.76-0.227-2.358-0.68c-0.602-0.453-0.899-1.1-0.899-1.938c0-0.787,0.326-1.45,0.979-1.99
	c0.651-0.54,1.627-0.923,2.92-1.15l2.54-0.44v-0.54c0-0.613-0.182-1.097-0.54-1.45c-0.36-0.353-0.86-0.53-1.5-0.53
	c-1.32,0-2.182,0.6-2.58,1.8l-1.66-0.88c0.24-0.8,0.729-1.433,1.471-1.9c0.739-0.467,1.649-0.7,2.729-0.7
	c1.293,0,2.318,0.3,3.08,0.9c0.76,0.6,1.14,1.48,1.14,2.64v4.52c0,0.253,0.057,0.44,0.171,0.56c0.112,0.12,0.303,0.18,0.569,0.18
	C245.945,164.967,246.192,164.94,246.393,164.887z M241.952,164.427c0.547-0.347,0.819-0.807,0.819-1.38v-1.2l-2.181,0.44
	c-0.691,0.133-1.207,0.32-1.54,0.56c-0.334,0.24-0.5,0.56-0.5,0.96c0,0.374,0.13,0.657,0.392,0.85c0.26,0.193,0.63,0.29,1.108,0.29
	C240.771,164.947,241.405,164.774,241.952,164.427z"/>
<path fill="#FFFFFF" d="M250.492,163.447c0,0.493,0.073,0.837,0.22,1.03c0.147,0.193,0.42,0.29,0.82,0.29
	c0.253,0,0.47-0.017,0.647-0.05c0.183-0.033,0.403-0.103,0.67-0.21l-0.237,1.72c-0.454,0.227-1.007,0.34-1.66,0.34
	c-0.896,0-1.55-0.227-1.97-0.68c-0.422-0.453-0.633-1.167-0.633-2.14v-11.88h2.143V163.447L250.492,163.447z"/>
<path fill="#FFFFFF" d="M254.672,154.337c-0.253-0.233-0.38-0.563-0.38-0.99c0-0.427,0.127-0.753,0.38-0.98
	c0.254-0.227,0.606-0.34,1.062-0.34c0.451,0,0.803,0.113,1.05,0.34c0.246,0.227,0.37,0.553,0.37,0.98c0,0.427-0.124,0.757-0.37,0.99
	c-0.247,0.233-0.599,0.35-1.05,0.35C255.278,154.687,254.926,154.571,254.672,154.337z M256.792,166.367h-2.14v-10h2.14V166.367z"/>
<path fill="#FFFFFF" d="M269.512,164.887l-0.14,1.44c-0.36,0.16-0.773,0.24-1.24,0.24c-0.573,0-1.03-0.114-1.37-0.34
	s-0.562-0.606-0.67-1.14c-0.307,0.467-0.76,0.83-1.358,1.09c-0.602,0.26-1.273,0.39-2.021,0.39c-0.974,0-1.76-0.227-2.36-0.68
	c-0.6-0.453-0.897-1.1-0.897-1.938c0-0.787,0.326-1.45,0.979-1.99c0.653-0.54,1.627-0.923,2.921-1.15l2.54-0.44v-0.54
	c0-0.613-0.181-1.097-0.54-1.45s-0.859-0.53-1.5-0.53c-1.319,0-2.181,0.6-2.579,1.8l-1.66-0.88c0.239-0.8,0.729-1.433,1.471-1.9
	c0.739-0.467,1.649-0.7,2.729-0.7c1.293,0,2.318,0.3,3.079,0.9s1.141,1.48,1.141,2.64v4.52c0,0.253,0.057,0.44,0.171,0.56
	c0.112,0.12,0.303,0.18,0.569,0.18C269.064,164.967,269.312,164.94,269.512,164.887z M265.071,164.427
	c0.547-0.347,0.818-0.807,0.818-1.38v-1.2l-2.18,0.44c-0.693,0.133-1.207,0.32-1.54,0.56c-0.334,0.24-0.5,0.56-0.5,0.96
	c0,0.374,0.13,0.657,0.391,0.85c0.261,0.193,0.631,0.29,1.109,0.29C263.892,164.947,264.524,164.774,265.071,164.427z"/>
<path fill="#FFFFFF" d="M280.771,151.867v14.5h-1.882l-0.118-1.78c-0.293,0.6-0.736,1.08-1.33,1.44
	c-0.596,0.36-1.271,0.54-2.03,0.54c-1.373,0-2.456-0.457-3.25-1.37c-0.793-0.913-1.189-2.183-1.189-3.812
	c0-1.626,0.396-2.903,1.189-3.83c0.794-0.926,1.877-1.39,3.25-1.39c0.733,0,1.381,0.164,1.938,0.49
	c0.561,0.326,0.986,0.77,1.28,1.33v-6.12L280.771,151.867L280.771,151.867z M277.892,163.947c0.493-0.6,0.74-1.42,0.74-2.46v-0.24
	c0-1.04-0.247-1.856-0.74-2.45c-0.491-0.594-1.158-0.89-2-0.89c-0.865,0-1.544,0.303-2.028,0.91
	c-0.486,0.606-0.729,1.457-0.729,2.55c0,1.093,0.243,1.947,0.729,2.56c0.484,0.613,1.163,0.92,2.028,0.92
	C276.73,164.847,277.398,164.547,277.892,163.947z"/>
<path fill="#FFFFFF" d="M292.151,157.547c0.88,0.92,1.318,2.193,1.318,3.82s-0.438,2.9-1.318,3.82s-2.102,1.38-3.66,1.38
	c-1.562,0-2.779-0.46-3.659-1.38c-0.881-0.92-1.32-2.193-1.32-3.82c0-1.626,0.439-2.9,1.32-3.82c0.88-0.92,2.1-1.38,3.659-1.38
	C290.052,156.167,291.271,156.627,292.151,157.547z M286.401,158.757c-0.486,0.607-0.729,1.477-0.729,2.61
	c0,1.133,0.243,2.003,0.729,2.61c0.485,0.607,1.184,0.91,2.09,0.91c0.907,0,1.605-0.307,2.101-0.92c0.494-0.613,0.74-1.479,0.74-2.6
	s-0.247-1.986-0.74-2.6c-0.493-0.613-1.191-0.92-2.101-0.92C287.585,157.847,286.889,158.15,286.401,158.757z"/>
<path fill="#FFFFFF" d="M146.482,181.537c0.787,0.914,1.181,2.184,1.181,3.81c0,1.627-0.394,2.903-1.181,3.83
	c-0.785,0.927-1.866,1.39-3.239,1.39c-0.72,0-1.363-0.16-1.931-0.48c-0.566-0.32-1.002-0.76-1.311-1.32v5.8h-2.141v-14.2h1.881
	l0.1,1.86c0.294-0.626,0.736-1.126,1.33-1.5c0.594-0.373,1.283-0.56,2.07-0.56C144.617,180.167,145.697,180.624,146.482,181.537z
	 M144.793,187.917c0.486-0.606,0.73-1.457,0.73-2.55c0-1.093-0.244-1.947-0.73-2.56c-0.486-0.613-1.163-0.92-2.029-0.92
	c-0.812,0-1.464,0.273-1.951,0.82c-0.485,0.547-0.756,1.307-0.81,2.28v0.76c0.054,0.96,0.323,1.713,0.81,2.26
	c0.487,0.547,1.139,0.82,1.951,0.82C143.63,188.827,144.307,188.524,144.793,187.917z"/>
<path fill="#FFFFFF" d="M159.804,188.887l-0.14,1.44c-0.36,0.16-0.773,0.24-1.24,0.24c-0.574,0-1.029-0.114-1.37-0.34
	c-0.34-0.226-0.562-0.606-0.67-1.14c-0.307,0.467-0.76,0.83-1.36,1.09c-0.6,0.26-1.271,0.39-2.02,0.39
	c-0.974,0-1.76-0.227-2.359-0.68c-0.601-0.453-0.899-1.1-0.899-1.938c0-0.787,0.327-1.45,0.979-1.99s1.625-0.923,2.92-1.15
	l2.539-0.44v-0.54c0-0.613-0.18-1.097-0.539-1.45s-0.859-0.53-1.5-0.53c-1.319,0-2.181,0.6-2.58,1.8l-1.659-0.88
	c0.239-0.8,0.729-1.433,1.47-1.9c0.74-0.467,1.648-0.7,2.729-0.7c1.293,0,2.32,0.3,3.08,0.9c0.762,0.6,1.142,1.48,1.142,2.64v4.52
	c0,0.253,0.057,0.44,0.17,0.56c0.112,0.12,0.303,0.18,0.569,0.18C159.357,188.967,159.604,188.94,159.804,188.887z M155.364,188.427
	c0.546-0.347,0.819-0.807,0.819-1.38v-1.2l-2.181,0.44c-0.692,0.133-1.207,0.32-1.54,0.56c-0.333,0.24-0.5,0.56-0.5,0.96
	c0,0.374,0.13,0.657,0.391,0.85c0.261,0.193,0.631,0.29,1.109,0.29C154.184,188.947,154.816,188.774,155.364,188.427z"/>
<path fill="#FFFFFF" d="M168.083,180.367l-0.34,1.96c-0.308-0.173-0.728-0.26-1.261-0.26c-0.426,0-0.83,0.113-1.209,0.34
	c-0.381,0.227-0.693,0.567-0.94,1.02c-0.247,0.454-0.37,1-0.37,1.64v5.3h-2.14v-10h1.819l0.181,1.8c0.56-1.333,1.612-2,3.159-2
	C167.45,180.167,167.816,180.234,168.083,180.367z"/>
<path fill="#FFFFFF" d="M179.264,188.887l-0.14,1.44c-0.36,0.16-0.773,0.24-1.24,0.24c-0.574,0-1.03-0.114-1.37-0.34
	s-0.562-0.606-0.67-1.14c-0.307,0.467-0.76,0.83-1.359,1.09c-0.601,0.26-1.272,0.39-2.021,0.39c-0.974,0-1.76-0.227-2.36-0.68
	c-0.6-0.453-0.898-1.1-0.898-1.938c0-0.787,0.327-1.45,0.979-1.99c0.653-0.54,1.627-0.923,2.92-1.15l2.541-0.44v-0.54
	c0-0.613-0.181-1.097-0.541-1.45c-0.358-0.353-0.858-0.53-1.5-0.53c-1.318,0-2.18,0.6-2.58,1.8l-1.658-0.88
	c0.238-0.8,0.729-1.433,1.47-1.9c0.74-0.467,1.649-0.7,2.729-0.7c1.293,0,2.32,0.3,3.08,0.9c0.761,0.6,1.141,1.48,1.141,2.64v4.52
	c0,0.253,0.057,0.44,0.17,0.56s0.303,0.18,0.57,0.18C178.817,188.967,179.062,188.94,179.264,188.887z M174.824,188.427
	c0.546-0.347,0.82-0.807,0.82-1.38v-1.2l-2.182,0.44c-0.693,0.133-1.207,0.32-1.54,0.56c-0.333,0.24-0.5,0.56-0.5,0.96
	c0,0.374,0.132,0.657,0.392,0.85c0.26,0.193,0.629,0.29,1.108,0.29C173.645,188.947,174.277,188.774,174.824,188.427z"/>
<path fill="#FFFFFF" d="M196.784,188.887l-0.142,1.44c-0.358,0.16-0.771,0.24-1.238,0.24c-0.574,0-1.03-0.114-1.37-0.34
	s-0.563-0.606-0.67-1.14c-0.309,0.467-0.761,0.83-1.36,1.09c-0.6,0.26-1.273,0.39-2.02,0.39c-0.976,0-1.762-0.227-2.36-0.68
	c-0.6-0.453-0.9-1.1-0.9-1.938c0-0.787,0.327-1.45,0.98-1.99s1.626-0.923,2.92-1.15l2.54-0.44v-0.54c0-0.613-0.18-1.097-0.54-1.45
	s-0.86-0.53-1.5-0.53c-1.32,0-2.18,0.6-2.58,1.8l-1.66-0.88c0.24-0.8,0.73-1.433,1.472-1.9c0.738-0.467,1.648-0.7,2.729-0.7
	c1.293,0,2.32,0.3,3.08,0.9s1.14,1.48,1.14,2.64v4.52c0,0.253,0.059,0.44,0.171,0.56s0.304,0.18,0.569,0.18
	C196.337,188.967,196.583,188.94,196.784,188.887z M192.344,188.427c0.546-0.347,0.82-0.807,0.82-1.38v-1.2l-2.18,0.44
	c-0.694,0.133-1.207,0.32-1.54,0.56c-0.333,0.24-0.5,0.56-0.5,0.96c0,0.374,0.13,0.657,0.39,0.85c0.26,0.193,0.63,0.29,1.11,0.29
	C191.164,188.947,191.797,188.774,192.344,188.427z"/>
<path fill="#FFFFFF" d="M208.044,175.867v14.5h-1.88l-0.12-1.78c-0.293,0.6-0.737,1.08-1.33,1.44s-1.27,0.54-2.03,0.54
	c-1.373,0-2.457-0.457-3.25-1.37c-0.793-0.913-1.188-2.183-1.188-3.812c0-1.626,0.396-2.903,1.188-3.83
	c0.793-0.926,1.877-1.39,3.25-1.39c0.733,0,1.382,0.164,1.94,0.49c0.56,0.326,0.986,0.77,1.28,1.33v-6.12L208.044,175.867
	L208.044,175.867z M205.164,187.947c0.493-0.6,0.74-1.42,0.74-2.46v-0.24c0-1.04-0.247-1.856-0.74-2.45
	c-0.494-0.593-1.16-0.89-2-0.89c-0.867,0-1.543,0.303-2.03,0.91c-0.487,0.606-0.729,1.457-0.729,2.55
	c0,1.093,0.241,1.947,0.729,2.56c0.487,0.613,1.164,0.92,2.03,0.92C204.004,188.847,204.67,188.547,205.164,187.947z"/>
<path fill="#FFFFFF" d="M225.264,180.577c0.562,0.273,1.008,0.69,1.343,1.25c0.331,0.56,0.5,1.247,0.5,2.06v6.48h-2.143v-6.14
	c0-0.787-0.187-1.366-0.56-1.74c-0.374-0.373-0.874-0.56-1.5-0.56c-0.733,0-1.353,0.267-1.853,0.8c-0.5,0.534-0.75,1.267-0.75,2.2
	v5.44h-2.14v-6.14c0-0.787-0.188-1.366-0.561-1.74c-0.375-0.373-0.875-0.56-1.5-0.56c-0.429,0-0.842,0.11-1.239,0.33
	c-0.4,0.22-0.729,0.563-0.98,1.03c-0.253,0.467-0.38,1.054-0.38,1.76v5.32h-2.14v-10h1.898l0.102,1.66
	c0.333-0.613,0.786-1.077,1.357-1.39c0.573-0.312,1.2-0.47,1.882-0.47c0.745,0,1.424,0.17,2.028,0.51
	c0.606,0.34,1.058,0.837,1.353,1.49c0.307-0.653,0.774-1.15,1.408-1.49c0.635-0.34,1.312-0.51,2.029-0.51
	C224.091,180.167,224.704,180.304,225.264,180.577z"/>
<path fill="#FFFFFF" d="M230.363,178.337c-0.253-0.233-0.38-0.563-0.38-0.99c0-0.427,0.127-0.753,0.38-0.98
	c0.254-0.227,0.604-0.34,1.061-0.34c0.453,0,0.803,0.113,1.05,0.34c0.246,0.227,0.37,0.553,0.37,0.98c0,0.427-0.124,0.757-0.37,0.99
	c-0.247,0.233-0.597,0.35-1.05,0.35C230.97,178.687,230.617,178.571,230.363,178.337z M232.483,190.367h-2.142v-10h2.142V190.367z"
	/>
<path fill="#FFFFFF" d="M243.913,181.127c0.7,0.64,1.05,1.56,1.05,2.76v6.48h-2.14v-5.8c0-1.76-0.714-2.64-2.143-2.64
	c-0.746,0-1.387,0.257-1.92,0.771c-0.533,0.513-0.8,1.303-0.8,2.37v5.3h-2.14v-10h1.897l0.103,1.66
	c0.333-0.627,0.793-1.093,1.38-1.4c0.587-0.306,1.253-0.46,2-0.46C242.31,180.167,243.213,180.487,243.913,181.127z"/>
<path fill="#FFFFFF" d="M248.223,178.337c-0.253-0.233-0.38-0.563-0.38-0.99c0-0.427,0.127-0.753,0.38-0.98
	c0.254-0.227,0.606-0.34,1.062-0.34c0.453,0,0.803,0.113,1.05,0.34c0.246,0.227,0.37,0.553,0.37,0.98c0,0.427-0.124,0.757-0.37,0.99
	c-0.247,0.233-0.597,0.35-1.05,0.35C248.829,178.687,248.477,178.571,248.223,178.337z M250.343,190.367h-2.14v-10h2.14V190.367z"/>
<path fill="#FFFFFF" d="M254.612,190.047c-0.78-0.347-1.37-0.874-1.771-1.58l1.439-1.24c0.253,0.574,0.646,0.994,1.181,1.26
	c0.532,0.267,1.173,0.4,1.92,0.4c0.682,0,1.206-0.11,1.58-0.33c0.373-0.22,0.561-0.51,0.561-0.87c0-0.32-0.175-0.576-0.521-0.77
	c-0.348-0.193-0.947-0.376-1.801-0.55c-1.479-0.28-2.521-0.653-3.12-1.12c-0.6-0.466-0.899-1.126-0.899-1.98
	c0-0.546,0.166-1.057,0.5-1.53c0.333-0.473,0.816-0.853,1.45-1.14c0.633-0.287,1.383-0.43,2.25-0.43c1.106,0,1.993,0.184,2.659,0.55
	c0.667,0.367,1.181,0.938,1.54,1.71l-1.521,1.12c-0.238-0.587-0.575-1.017-1.01-1.29c-0.434-0.273-0.981-0.41-1.648-0.41
	c-0.602,0-1.099,0.124-1.49,0.37c-0.395,0.246-0.59,0.53-0.59,0.85c0,0.36,0.177,0.646,0.529,0.86
	c0.354,0.214,0.995,0.407,1.931,0.58c1.413,0.253,2.413,0.613,3,1.08s0.88,1.12,0.88,1.96c0,0.893-0.387,1.62-1.159,2.18
	c-0.771,0.56-1.841,0.84-3.2,0.84C256.289,190.567,255.393,190.394,254.612,190.047z"/>
<path fill="#FFFFFF" d="M270.742,189.707c-0.319,0.267-0.71,0.477-1.17,0.63c-0.46,0.153-0.957,0.23-1.489,0.23
	c-0.921,0-1.657-0.23-2.211-0.69c-0.553-0.46-0.836-1.176-0.851-2.15v-5.68h-1.899v-1.68h1.899v-2.34l2.141-0.6v2.94h3.5v1.68h-3.5
	v5.32c0,0.48,0.131,0.837,0.391,1.07s0.616,0.35,1.069,0.35c0.613,0,1.153-0.213,1.62-0.64L270.742,189.707z"/>
<path fill="#FFFFFF" d="M279.002,180.367l-0.34,1.96c-0.307-0.173-0.727-0.26-1.26-0.26c-0.429,0-0.83,0.113-1.21,0.34
	c-0.38,0.227-0.693,0.567-0.94,1.02c-0.247,0.454-0.37,1-0.37,1.64v5.3h-2.14v-10h1.82l0.18,1.8c0.56-1.333,1.613-2,3.16-2
	C278.368,180.167,278.735,180.234,279.002,180.367z"/>
<path fill="#FFFFFF" d="M290.182,188.887l-0.14,1.44c-0.36,0.16-0.773,0.24-1.24,0.24c-0.573,0-1.03-0.114-1.37-0.34
	s-0.562-0.606-0.67-1.14c-0.307,0.467-0.76,0.83-1.358,1.09c-0.602,0.26-1.273,0.39-2.021,0.39c-0.974,0-1.76-0.227-2.358-0.68
	c-0.602-0.453-0.899-1.1-0.899-1.938c0-0.787,0.326-1.45,0.979-1.99c0.652-0.54,1.627-0.923,2.921-1.15l2.54-0.44v-0.54
	c0-0.613-0.182-1.097-0.54-1.45c-0.36-0.353-0.86-0.53-1.5-0.53c-1.32,0-2.182,0.6-2.58,1.8l-1.66-0.88
	c0.24-0.8,0.729-1.433,1.471-1.9c0.739-0.467,1.649-0.7,2.729-0.7c1.293,0,2.318,0.3,3.08,0.9c0.76,0.6,1.14,1.48,1.14,2.64v4.52
	c0,0.253,0.057,0.44,0.171,0.56c0.112,0.12,0.303,0.18,0.569,0.18C289.734,188.967,289.98,188.94,290.182,188.887z M285.741,188.427
	c0.547-0.347,0.818-0.807,0.818-1.38v-1.2l-2.18,0.44c-0.692,0.133-1.207,0.32-1.54,0.56c-0.334,0.24-0.5,0.56-0.5,0.96
	c0,0.374,0.13,0.657,0.391,0.85c0.261,0.193,0.631,0.29,1.109,0.29C284.562,188.947,285.194,188.774,285.741,188.427z"/>
<path fill="#FFFFFF" d="M298.461,180.367l-0.34,1.96c-0.307-0.173-0.727-0.26-1.26-0.26c-0.429,0-0.83,0.113-1.21,0.34
	c-0.38,0.227-0.693,0.567-0.94,1.02c-0.247,0.454-0.37,1-0.37,1.64v5.3h-2.14v-10h1.82l0.18,1.8c0.56-1.333,1.613-2,3.16-2
	C297.827,180.167,298.194,180.234,298.461,180.367z"/>
<path fill="#FFFFFF" d="M164.934,206.967l-2,0.8c-0.347-1.267-1.127-1.9-2.34-1.9c-0.894,0-1.587,0.307-2.08,0.92
	c-0.494,0.613-0.74,1.48-0.74,2.6c0,1.12,0.246,1.98,0.74,2.58c0.493,0.6,1.188,0.9,2.08,0.9c0.68,0,1.227-0.167,1.641-0.5
	c0.412-0.333,0.688-0.813,0.82-1.44l1.959,0.66c-0.293,0.933-0.812,1.663-1.56,2.19s-1.687,0.79-2.82,0.79
	c-1.573,0-2.804-0.46-3.69-1.38c-0.885-0.92-1.328-2.193-1.328-3.82c0-1.626,0.439-2.9,1.318-3.82c0.881-0.92,2.102-1.38,3.66-1.38
	C162.78,204.167,164.227,205.101,164.934,206.967z"/>
<path fill="#FFFFFF" d="M175.574,205.547c0.88,0.92,1.32,2.193,1.32,3.82s-0.44,2.9-1.32,3.82c-0.881,0.92-2.1,1.38-3.66,1.38
	s-2.78-0.46-3.66-1.38s-1.32-2.193-1.32-3.82c0-1.626,0.44-2.9,1.32-3.82s2.1-1.38,3.66-1.38S174.693,204.627,175.574,205.547z
	 M169.824,206.757c-0.487,0.607-0.73,1.477-0.73,2.61c0,1.133,0.243,2.003,0.73,2.61c0.486,0.607,1.183,0.91,2.09,0.91
	c0.906,0,1.605-0.307,2.1-0.92c0.493-0.613,0.74-1.479,0.74-2.6s-0.247-1.986-0.74-2.6c-0.494-0.613-1.191-0.92-2.1-0.92
	S170.311,206.15,169.824,206.757z"/>
<path fill="#FFFFFF" d="M187.723,205.127c0.7,0.64,1.052,1.56,1.052,2.76v6.48h-2.142v-5.8c0-1.76-0.713-2.64-2.14-2.64
	c-0.747,0-1.388,0.257-1.92,0.771c-0.534,0.513-0.8,1.303-0.8,2.37v5.3h-2.142v-10h1.9l0.1,1.66c0.333-0.627,0.793-1.093,1.38-1.4
	c0.586-0.306,1.253-0.46,2-0.46C186.12,204.167,187.023,204.487,187.723,205.127z"/>
<path fill="#FFFFFF" d="M201.273,199.867v14.5h-1.882l-0.118-1.78c-0.293,0.6-0.737,1.08-1.33,1.44
	c-0.595,0.36-1.271,0.54-2.03,0.54c-1.374,0-2.457-0.457-3.25-1.37c-0.793-0.913-1.19-2.183-1.19-3.812
	c0-1.626,0.396-2.903,1.19-3.83c0.793-0.926,1.876-1.39,3.25-1.39c0.733,0,1.38,0.164,1.94,0.49c0.56,0.326,0.984,0.77,1.278,1.33
	v-6.12L201.273,199.867L201.273,199.867z M198.393,211.947c0.493-0.6,0.74-1.42,0.74-2.46v-0.24c0-1.04-0.247-1.856-0.74-2.45
	c-0.492-0.593-1.158-0.89-2-0.89c-0.865,0-1.543,0.303-2.028,0.91c-0.487,0.606-0.73,1.457-0.73,2.55c0,1.093,0.243,1.947,0.73,2.56
	c0.485,0.613,1.164,0.92,2.028,0.92C197.233,212.847,197.899,212.547,198.393,211.947z"/>
<path fill="#FFFFFF" d="M212.653,205.547c0.88,0.92,1.317,2.193,1.317,3.82s-0.438,2.9-1.317,3.82s-2.102,1.38-3.66,1.38
	c-1.562,0-2.78-0.46-3.66-1.38s-1.32-2.193-1.32-3.82c0-1.626,0.44-2.9,1.32-3.82s2.1-1.38,3.66-1.38
	C210.553,204.167,211.773,204.627,212.653,205.547z M206.903,206.757c-0.487,0.607-0.73,1.477-0.73,2.61
	c0,1.133,0.243,2.003,0.73,2.61c0.484,0.607,1.183,0.91,2.09,0.91s1.604-0.307,2.1-0.92c0.493-0.613,0.74-1.479,0.74-2.6
	s-0.247-1.986-0.74-2.6c-0.494-0.613-1.191-0.92-2.1-0.92S207.39,206.15,206.903,206.757z"/>
<path fill="#FFFFFF" d="M230.612,204.577c0.561,0.273,1.007,0.69,1.341,1.25c0.333,0.56,0.5,1.247,0.5,2.06v6.48h-2.141v-6.14
	c0-0.787-0.188-1.366-0.562-1.74c-0.374-0.373-0.874-0.56-1.5-0.56c-0.731,0-1.351,0.267-1.851,0.8c-0.5,0.534-0.75,1.267-0.75,2.2
	v5.44h-2.142v-6.14c0-0.787-0.187-1.366-0.56-1.74c-0.374-0.373-0.874-0.56-1.5-0.56c-0.428,0-0.841,0.11-1.24,0.33
	c-0.4,0.22-0.727,0.563-0.98,1.03c-0.252,0.467-0.38,1.054-0.38,1.76v5.32h-2.14v-10h1.899l0.101,1.66
	c0.333-0.613,0.786-1.077,1.359-1.39c0.571-0.312,1.198-0.47,1.881-0.47c0.746,0,1.423,0.17,2.029,0.51
	c0.604,0.34,1.057,0.837,1.351,1.49c0.307-0.653,0.776-1.15,1.41-1.49c0.633-0.34,1.31-0.51,2.027-0.51
	C229.439,204.167,230.053,204.304,230.612,204.577z"/>
<path fill="#FFFFFF" d="M235.712,202.337c-0.253-0.233-0.38-0.563-0.38-0.99c0-0.427,0.127-0.753,0.38-0.98
	c0.254-0.227,0.606-0.34,1.062-0.34c0.451,0,0.803,0.113,1.05,0.34c0.246,0.227,0.37,0.553,0.37,0.98c0,0.427-0.124,0.757-0.37,0.99
	c-0.247,0.233-0.599,0.35-1.05,0.35C236.318,202.687,235.966,202.571,235.712,202.337z M237.832,214.367h-2.14v-10h2.14V214.367z"/>
<path fill="#FFFFFF" d="M249.262,205.127c0.7,0.64,1.051,1.56,1.051,2.76v6.48h-2.141v-5.8c0-1.76-0.714-2.64-2.141-2.64
	c-0.746,0-1.389,0.257-1.92,0.771c-0.533,0.513-0.802,1.303-0.802,2.37v5.3h-2.14v-10h1.899l0.101,1.66
	c0.333-0.627,0.793-1.093,1.38-1.4c0.587-0.306,1.253-0.46,2-0.46C247.658,204.167,248.562,204.487,249.262,205.127z"/>
<path fill="#FFFFFF" d="M253.571,202.337c-0.253-0.233-0.38-0.563-0.38-0.99c0-0.427,0.127-0.753,0.38-0.98
	c0.254-0.227,0.604-0.34,1.061-0.34c0.453,0,0.804,0.113,1.05,0.34c0.246,0.227,0.37,0.553,0.37,0.98c0,0.427-0.124,0.757-0.37,0.99
	c-0.247,0.233-0.597,0.35-1.05,0.35C254.178,202.687,253.825,202.571,253.571,202.337z M255.691,214.367h-2.142v-10h2.142V214.367z"
	/>
<path fill="#FFFFFF" d="M267.091,205.547c0.88,0.92,1.32,2.193,1.32,3.82s-0.44,2.9-1.32,3.82s-2.1,1.38-3.66,1.38
	c-1.56,0-2.777-0.46-3.659-1.38c-0.881-0.92-1.318-2.193-1.318-3.82c0-1.626,0.438-2.9,1.318-3.82c0.882-0.92,2.102-1.38,3.659-1.38
	C264.991,204.167,266.211,204.627,267.091,205.547z M261.341,206.757c-0.484,0.607-0.729,1.477-0.729,2.61
	c0,1.133,0.243,2.003,0.729,2.61c0.487,0.607,1.186,0.91,2.09,0.91c0.907,0,1.607-0.307,2.103-0.92
	c0.494-0.613,0.738-1.479,0.738-2.6s-0.245-1.986-0.738-2.6c-0.493-0.613-1.193-0.92-2.103-0.92
	C262.524,205.847,261.828,206.15,261.341,206.757z"/>
<path fill="#FFFFFF" d="M272.081,214.047c-0.78-0.347-1.37-0.874-1.771-1.58l1.439-1.24c0.253,0.574,0.646,0.994,1.181,1.26
	c0.532,0.267,1.174,0.4,1.92,0.4c0.682,0,1.206-0.11,1.58-0.33c0.373-0.22,0.562-0.51,0.562-0.87c0-0.32-0.174-0.576-0.521-0.77
	c-0.348-0.193-0.945-0.376-1.801-0.55c-1.479-0.28-2.52-0.653-3.12-1.12c-0.6-0.466-0.897-1.126-0.897-1.98
	c0-0.546,0.166-1.057,0.5-1.53c0.333-0.473,0.814-0.853,1.449-1.14c0.634-0.287,1.384-0.43,2.25-0.43
	c1.105,0,1.992,0.184,2.658,0.55c0.667,0.367,1.183,0.938,1.54,1.71l-1.52,1.12c-0.24-0.587-0.577-1.017-1.012-1.29
	c-0.434-0.273-0.981-0.41-1.648-0.41c-0.602,0-1.097,0.124-1.49,0.37c-0.393,0.246-0.59,0.53-0.59,0.85
	c0,0.36,0.177,0.646,0.53,0.86c0.353,0.214,0.996,0.407,1.93,0.58c1.413,0.253,2.413,0.613,3,1.08s0.88,1.12,0.88,1.96
	c0,0.893-0.387,1.62-1.159,2.18c-0.771,0.56-1.841,0.84-3.198,0.84C273.758,214.567,272.861,214.394,272.081,214.047z"/>
</svg>
