<?xml version="1.0" encoding="utf-8"?>
<!-- Generator: Adobe Illustrator 15.0.0, SVG Export Plug-In . SVG Version: 6.00 Build 0)  -->
<!DOCTYPE svg PUBLIC "-//W3C//DTD SVG 1.1//EN" "http://www.w3.org/Graphics/SVG/1.1/DTD/svg11.dtd">
<svg version="1.1" id="Capa_1" xmlns="http://www.w3.org/2000/svg" xmlns:xlink="http://www.w3.org/1999/xlink" x="0px" y="0px"
	 width="504px" height="583px" viewBox="0 0 504 583" enable-background="new 0 0 504 583" xml:space="preserve">
<g>
	<path fill-rule="evenodd" clip-rule="evenodd" d="M71.96,33.44c-0.312,3.337,4.281,3.29,2.88,6.24
		c3.139,2.043,4.539,5.371,4.32,9.6c-0.074,1.435-1.09,1.55-1.44,2.88c-0.446,1.694,0.771,3.418,0,4.8
		c-3.962,3.751-5.506,10.926-12.48,12c-1.01,0.155-4.706-0.164-6.72-0.48c-0.663-0.104-1.367-0.907-1.92-0.96
		c-2.35-0.225-4.792-0.079-7.68-0.96c-3.059-2.541-5.555-5.645-9.12-7.68c-4.161-10.104,0.123-21.925,7.2-26.4
		c3.659,0.779,3.896-1.863,5.76-2.88C60.493,27.889,67.68,30.171,71.96,33.44z M53.72,31.04c-1.979,0.803-1.8,3.066-3.84,3.36
		c-0.96,0-1.92,0-2.88,0c-5.617,4.113-9.824,15.572-5.28,24c3.838,1.907,6.896,6.617,12.48,7.68c0.748,0.143,2.004-0.562,2.88-0.48
		c0.695,0.065,1.621,0.824,2.4,0.96c1.945,0.341,4.908,0.725,6.24,0.48c6.015-1.109,6.503-7.745,10.56-11.52
		c0.369-1.809-0.585-2.294-0.48-3.84c3.647-3.655-0.069-9.81-2.88-11.52c1.038-2.587-3.014-3.081-2.88-6.24
		C66.333,31.969,58.901,28.938,53.72,31.04z"/>
	<path fill-rule="evenodd" clip-rule="evenodd" d="M171.8,35.84c1.057,3.104,3.705,4.615,6.24,6.24
		c7.078,11.37-0.744,25.965-10.56,29.28c-15.093-0.144-23.592-5.17-26.88-17.76c1.899-5.683,1.375-11.164,4.32-15.36
		C150.779,29.892,162.949,30.651,171.8,35.84z M164.6,34.4c-0.917-0.27-2.468,0.199-3.84,0c-1.889-0.274-3.329-1.108-4.8-0.96
		c-3.153,0.317-7.861,3.209-9.6,5.76c-2.587,3.794-2.074,8.963-3.84,14.4c1.171,4.017,3.129,6.614,5.28,10.56
		c5.418,3.852,11.47,4.951,19.68,5.28c6.578-3.135,13.949-11.782,11.52-21.12c-0.462-1.778-2.997-2.748-2.4-5.28
		C172.47,41.286,169.773,35.924,164.6,34.4z"/>
	<path fill-rule="evenodd" clip-rule="evenodd" d="M43.64,43.04c3.029-1.364,6.964-3.638,11.52-4.8
		c3.278,1.181,6.173-0.409,8.64-1.44c14.691,5.236,9.095,27.586-6.24,26.88c-9.405-0.433-11.885-8.057-15.36-15.36
		C42.989,46.869,44.099,45.739,43.64,43.04z M44.12,48.32c2.893,7.762,7.356,15.701,17.76,13.44c10.25-2.227,12.65-19.1,2.4-23.04
		c-4.559,2.393-9.483,1.449-14.88,2.88c-1.273,1.124-2.23,3.484-4.32,2.4C46.199,45.921,44.749,46.853,44.12,48.32z"/>
	<path fill-rule="evenodd" clip-rule="evenodd" d="M155.48,38.72c1.971-2.436,5.101,1.335,6.72,1.92c0.993,0.359,1.91-0.275,2.88,0
		c3.59,1.018,9.542,7.026,10.08,9.6c2.55,12.188-13.173,20.029-22.56,13.44C143.775,57.486,146.018,43.129,155.48,38.72z
		 M161.24,64.64c6.255-0.106,13.627-6.647,12.48-13.44c-0.358-2.122-3.868-6.255-6.24-7.68c-2.973-1.787-6.902-1.85-10.08-3.36
		c0.001-0.267-0.389-0.545-0.48,0C143.511,44.75,148.146,64.862,161.24,64.64z"/>
	<path fill-rule="evenodd" clip-rule="evenodd" d="M100.28,152c-10.096,1.318-16.52,1.495-25.92,1.92
		c-3.062,0.139-6.004,1.009-9.12,0.48c-3.965-0.672-9.324-4.707-11.04-7.68c-0.795-1.378-1.075-3.606-1.92-5.76
		c-0.709-1.808-1.953-3.599-2.4-5.28c-4.262-16.045,4.096-32.102,16.8-35.04c2.613-0.604,5.986-0.239,9.12-0.48
		c2.901-0.224,6.074-1.008,8.64-0.96c4.675,0.086,10.681,2.044,15.84,0.48c2.872-0.871,6.819-7.043,9.6-9.12
		c7.763-5.796,23.462-11.424,38.4-7.68c10.664,2.673,22.07,11.28,27.84,21.12c1.986,3.387,4.499,8.053,4.8,11.04
		c0.199,1.973-0.915,4.365-0.96,6.72c-0.04,2.055,0.424,4.494,0.48,6.72c0.03,1.2-0.631,2.282-0.48,3.36
		c0.196,1.401,1.024,1.518,0.96,2.88c-0.056,1.187-0.65,3.29-0.96,4.8c-3.992,19.488-24.794,34.837-50.88,31.2
		C115.861,168.877,108.548,161.439,100.28,152z M107,156.8c9.203,9.178,19.477,13.532,36.96,12
		c9.715-0.851,16.484-4.517,22.56-10.08c6.532-5.979,9.248-10.679,11.04-18.72c0.478-2.143,1.383-3.963,1.44-5.76
		c0.04-1.248-0.929-2.593-0.96-3.84c-0.033-1.308,0.921-2.739,0.96-4.32c0.091-3.729,0.471-8.009,0-11.52
		c-0.754-5.629-5.885-13.528-10.56-18.24c-7.219-7.277-18.13-12.226-28.8-12.96c-15.078-1.037-26.962,6.076-33.6,13.44
		c-0.392,0.435-3.511,1.704-1.44,2.88c3.619-0.46,8.169,1.989,12,1.44c3.039-0.436,5.752-3.355,8.16-4.32
		c8.533-3.419,20.334-3.59,28.32,0.48c1.341,0.683,2.284,2.127,3.84,3.36c7.788,6.167,12.24,13.301,14.4,24.96
		c-2.04,1.216-0.375,2.964-0.48,4.32c-1.292,16.614-14.021,29.157-29.28,30.72c-20.25,2.074-30.055-10.257-36-23.52
		c-3.01-0.67-6.939-0.421-10.08-0.96C96.712,144.61,101.554,151.368,107,156.8z M138.68,159.2
		c18.162-0.595,32.324-16.131,30.24-36.48c-0.945-9.23-10.153-20.801-16.8-24c-9.526-4.583-25.385-3.253-31.68,2.88
		c3.566-0.698,7.883,0.72,11.04,0.48c1.969-0.15,3.843-1.278,5.76-1.44c14.629-1.235,26.34,8.963,27.84,22.08
		c2.447,21.402-14.684,36.684-33.6,34.08c-7.473-1.028-12.985-5.682-16.32-10.56c-1.875-2.742-1.888-8.188-7.2-8.64
		C112.174,150.51,124.166,159.675,138.68,159.2z M140.6,149.6c7.036-0.808,10.125-5.47,12.48-11.04
		c0.933-2.206,1.483-5.212,2.4-8.16c0.984-3.164,2.36-6.155,2.4-7.68c0.092-3.502-2.501-8.837-3.84-11.04
		c-5.11-8.411-19.147-7.239-31.68-8.16c-6.985-0.514-13.456-2.184-20.16-2.4c-4.801-0.155-10.714,0.225-16.8,0
		c-12.743-0.472-24.776,1.901-30.24,9.12c-3.559,4.702-4.595,13.04-4.32,19.2c0.21,4.711,2.228,8.097,3.36,11.04
		c0.763,1.983,0.751,4.04,1.44,5.28c3.736,6.73,12,7.44,22.56,6.72c5.236-0.357,10.729-0.963,16.32-1.44
		c1.328-0.113,3.869-0.053,4.8-1.44c-10.311-0.607-22.533,3.466-33.6,1.44c-1.776-0.325-4.43-0.796-4.8-3.36
		c11.747,3.594,22.462,0.566,36.96,0.48c-1.61-3.83-3.475-7.405-4.32-12c-13.301-0.341-23.973,1.946-33.12,5.76
		c-2.578,1.193,1.647,4.212-1.44,4.32c-2.462-1.406-1.142-4.577,0-5.76c0.824-0.854,9.512-3.547,10.56-3.84
		c6.134-1.716,15.217-2.224,21.6-2.4c4.027-0.112,8.931,0.381,13.92,0.96c9.736,1.129,20.068,1.944,28.8,4.32
		c4.79,1.303,10.784,1.824,12,5.76c-0.467,2.269-3.446,2.66-5.76,2.88c-6.556,0.623-15.52-0.256-21.12,0.48
		C126.675,150.032,134.597,150.29,140.6,149.6z M163.64,129.92c1.36-14.772-9.25-28.812-25.92-27.84
		c0.333,1.833,2.622,0.872,3.36,0.96c12.779,1.529,17.027,8.623,18.72,20.64c-2.736,5.871-3.833,14.223-6.72,18.72
		c-0.707,1.101-1.351,2.551-1.92,3.36c-5.479,7.796-16.553,5.173-28.32,5.76C141.329,162.687,162.002,147.71,163.64,129.92z
		 M117.08,146.24c7.336,0.512,18.859,0.607,26.88-0.96c-0.515-2.035-3.109-1.845-4.8-2.4c-6.909-2.269-17.672-4.122-25.92-4.8
		C113.939,141.381,115.689,143.631,117.08,146.24z"/>
	<path fill-rule="evenodd" clip-rule="evenodd" d="M185.72,122.72c0.558-0.078,0.854,0.106,0.96,0.48
		c-1.669,3.744,2.347,7.232,0.96,10.56c-2.548-0.812-1.198-5.522-3.36-6.72C184.775,125.615,184.642,123.562,185.72,122.72z"/>
	<path fill-rule="evenodd" clip-rule="evenodd" d="M148.76,142.88c-1.997-0.002-3.348-1.935-5.28-2.88
		c-3.595-1.759-8.267-2.724-13.44-3.84c-9.211-1.988-21.951-2.31-33.12-2.4c-8.983-0.072-18.08-0.535-26.4,1.44
		c-2.366,0.562-4.459,1.757-6.72,2.4c-1.935,0.55-4.304,1.496-6.24,0.48c14.321-7.416,37.283-7.186,56.64-5.76
		c9.835,0.724,20.583,2.129,28.8,5.76C145.235,139.067,148.728,140.138,148.76,142.88z"/>
	<path fill-rule="evenodd" clip-rule="evenodd" d="M62.36,235.52c-2.366,0.655-3.913,1.315-5.76,3.36
		c-1.602,0.001-1.639-1.562-3.36-1.44c-11.878,2.042-17.163-6.461-23.52-11.52c0.005-4.11-2.001-7.47-1.44-11.04
		c0.1-0.632,1.204-4.098,1.92-5.28c0.273-0.452,1.45-0.803,2.4-1.92c3.039-3.572,5.868-8.263,11.04-10.08
		c0.894-0.314,3.457-1.001,4.32-0.96c1.279,0.06,2.532,1.331,3.84,1.44c1.558,0.13,3.146-0.724,4.8-0.48
		c7.401,1.09,13.453,8.998,14.4,15.84C72.372,223.346,66.896,229.444,62.36,235.52z M47,198.56c-6.963,0.095-11.158,8.407-15.36,12
		c-2.258,5.119-1.068,9.067,0,14.88c4.882,3.727,8.594,9.692,16.32,10.56c2.878,0.323,5.838-0.992,8.64,0.48
		c1.843-0.67,2.003-4.098,4.8-2.4c3.367-4.87,8.732-10.272,8.16-18.72c-0.585-8.649-8.367-18.071-17.76-15.36
		C49.818,199.316,49.036,198.532,47,198.56z"/>
	<path fill-rule="evenodd" clip-rule="evenodd" d="M150.2,201.44c12.18-1.605,22.716,7.548,23.04,19.2
		c0.358,12.903-10.475,21.53-20.64,21.6c-13.198,0.09-23.38-12.256-20.16-25.44C134.414,208.72,140.907,202.665,150.2,201.44z
		 M133.88,225.92c2.777,15.167,23.273,18.006,32.16,9.12c13.631-13.631,0.927-35.082-17.28-31.68
		C139.821,205.03,131.713,214.082,133.88,225.92z"/>
	<path fill-rule="evenodd" clip-rule="evenodd" d="M49.4,203.84c8.372-0.999,17.602,5.865,15.36,17.28
		c-1.337,6.809-9.117,11.684-16.32,10.56c-5.541-0.864-12.109-7.715-11.52-16.32C37.364,208.875,42.167,204.703,49.4,203.84z
		 M38.36,215.36c-0.335,5.097,3.961,10.692,6.24,12.48c1.351,1.06,3.268,2.231,4.8,2.4c18.15,2.004,18.344-28.589-1.44-24.48
		C42.743,206.844,38.645,211.027,38.36,215.36z"/>
	<path fill-rule="evenodd" clip-rule="evenodd" d="M151.16,207.68c9.903-1.335,15.981,5.031,15.84,13.92
		c-0.101,6.299-4.862,12.847-11.52,13.92c-13.411,2.16-22.156-15.097-12.48-24.48C144.964,209.135,147.779,208.136,151.16,207.68z
		 M141.08,216.8c-3.348,10.153,3.88,17.421,12,17.28c16.778-0.291,15.656-28.934-3.36-24.48
		C144.888,210.731,141.815,214.571,141.08,216.8z"/>
	<path fill-rule="evenodd" clip-rule="evenodd" d="M339.8,542.72c-0.106,6.299,0.142,13.305,0,20.16
		c-0.039,1.899,0.851,4.669-0.96,5.76c-2.519,0.047-1.372-3.361-1.439-4.8c-0.25-5.28,0.186-12.656,0-18.24c-19.2,0-38.4,0-57.601,0
		c-1.04,4.56-0.241,12.185-0.479,18.24c-0.058,1.447,0.864,4.843-0.96,4.32c-3.208,0.952-1.92-6.383-1.92-10.08
		c0-4.294,0-9.246,0-12.48c-19.04,0-38.081,0-57.121,0c-1.118,4.705-0.147,12.091-0.48,18.24c-0.085,1.573,0.902,4.657-1.44,4.8
		c-2.413-0.327-1.368-3.607-1.44-5.279c-0.239-5.589,0.179-13.278,0-19.2c-0.021-0.821,0.357-1.243,0.96-1.44
		C257.88,542.72,298.84,542.72,339.8,542.72z"/>
	<path fill-rule="evenodd" clip-rule="evenodd" d="M24.92,14.24c28.114,3.353,57.883,3.082,87.84,2.88
		c2.401-0.017,4.811,0.48,7.2,0.48c3.541,0,7.042-1.021,10.56-0.96c7.393,0.127,15.139,1.559,22.56,1.44
		c4.604-0.074,9.319,0.292,14.88,0.48c10.135,0.342,20.613-2.149,28.32,2.88c-1.3,27.826-1.662,60.733-3.36,89.76
		c12.177-1.304,28.298-1.023,42.72-0.96c5.16,0.022,10.103,0.522,13.92-0.48c1.62-0.425,0.701,0.339,2.4-0.96
		c2.13-1.628,5.161-2.221,9.12-0.96c2.201-1.479,2.504-4.855,4.8-6.24c10.21-1.152,28.03-3.624,32.16,6.24
		c5.839,0.081,9.7,2.14,12.479,5.28c19.382,2.961,44.051,2.877,60.961,3.36c1.712-14.865,3.996-26.091,8.159-37.92
		c1.301-3.695,2.428-8.051,4.32-11.04c1.099-1.735,3.517-3.461,5.28-5.28c6.51-6.713,15.205-14.006,27.84-15.36
		c2.457-0.263,5.369-0.058,8.16,0c9.667,0.201,19.24,1.748,27.359,5.28c3.574,1.555,5.778,2.96,8.641,4.8
		c4.291,2.758,8.52,7.36,12.479,11.52c1.438,1.511,2.738,2.416,3.36,3.36c2.274,3.454,3.756,8.951,5.76,13.92
		c3.955,9.805,4.923,19.772,6.72,32.16c3.348,23.076,0.433,43.572,1.921,67.2c0.761,12.085,0.51,26.551,0,41.76
		c-6.524,6.156-22.514,6.589-30.721,1.92c-6.239-3.55-4.468-6.267-4.319-13.92c0.09-4.667-0.737-10.101-0.96-15.36
		c-0.962-22.608,0.867-46.105-0.961-72.96c-0.71-10.443-1.506-21.3-3.84-29.28c-1.05-3.591-3.64-5.496-4.319-9.6
		c-5.362-3.497-12.303-7.851-20.641-5.28c-5.054,1.558-11.665,10.264-14.399,15.36c-1.631,3.037-4.346,9.427-4.801,12.96
		c-1.788,13.904,0.238,30.475-3.359,41.76c-6.222,1.946-12.932-0.526-20.16-0.96c-2.555-0.153-5.147,0.567-7.68,0.48
		c-4.396-0.152-8.993-1.279-13.44-1.44c-11.183-0.403-27.019,0.852-39.84,0.48c-3.194-0.093-7.569-1.64-10.56-0.96
		c-2.686,0.61-3.867,4.028-6.721,4.8c-2.641-0.239-6.289,0.529-8.16-0.48c-1.695,1.824-1.858,5.181-4.319,6.24
		c-8.618-0.696-20.682,1.017-26.88-1.92c-2.06-0.976-3.104-2.172-3.841-4.32c-2.77-0.203-7.329,0.313-9.6-0.48
		c-2.432-0.85-2.224-2.52-4.32-2.88c-17.693-1.776-38.364-1.876-55.68-5.28c-1.212,35.844-2.343,74.647-3.84,108.48
		c-22.944-0.754-45.619-3.598-67.68-3.84c-5.028-0.055-9.923,0.681-14.88,0.48c-4.912-0.199-9.829-1.17-14.88-0.96
		c-2.225,0.093-4.464,0.78-6.72,0.96c-10.921,0.871-22.816-0.728-34.56-0.96c-11.542-0.228-23.235,1.102-34.08-1.44
		c3.04-77.282,5.025-155.612,8.16-232.8C23.749,14.989,24.229,14.509,24.92,14.24z M153.08,20c-7.042,0.113-15.709-1.541-24-1.44
		c-2.73,0.033-5.401,0.902-8.16,0.96c-12.375,0.26-24.844-0.629-37.44-0.96c-18.172-0.477-38.299,0.258-57.6-2.4
		c-0.603,0.197-0.981,0.619-0.96,1.44c-2.641,76.557-5.368,153.033-7.68,229.92c15.561,0.957,31.162,0.505,47.52,0.96
		c5.637,0.157,11.245,1.156,16.8,0.96c3.519-0.125,7.028-1.413,10.56-1.44c4.169-0.032,8.417,0.819,12.48,0.96
		c4.598,0.159,8.925-0.462,13.44-0.48c24.529-0.099,47.637,3.757,68.64,3.84c1.411-34.909,2.201-70.439,3.84-105.12
		c-1.052-1.94-6.348-1.82-4.32-5.28c2.256-0.176,0.753,3.407,3.84,2.4c20.075,2.195,40.251,3.934,60.48,4.8
		c2.631-11.128,1.849-23.852,0-36.96c-12.635-0.462-26.451,0-40.32,0c-6.343,0-15.847-0.223-19.68,1.44
		c-2.088,0.905-2.324,3.314-4.32,3.36c-0.717-4.557,3.853-3.827,5.28-6.24c1.104-29.138,2.302-60.735,2.88-88.8
		C180.99,19.405,165.673,19.798,153.08,20z M489.56,154.88c-0.07-5.474,0.017-10.955,0-16.32c-0.014-4.507-0.573-8.943-0.96-13.44
		c-1.264-14.693-3.035-28.922-7.68-39.84c-1.718-4.038-3.039-8.66-4.8-11.521c-1.43-2.321-5.081-5.443-8.16-8.64
		c-4.784-4.967-8.658-8.376-14.88-11.04c-5.072-2.172-7.72-2.656-13.44-3.84c-5.324-1.102-12.111-1.984-18.239-1.92
		c-11.139,0.116-17.235,4.617-23.521,8.64c-3.839,2.458-4.675,4.017-7.68,7.2c-1.558,1.649-3.705,3.118-4.8,4.8
		c-2.565,3.938-4.115,10.942-5.761,15.84c-0.673,2.004-1.948,3.589-2.399,5.28c-1.025,3.845-1.278,8.799-1.92,12.96
		c-0.664,4.298-1.065,8.598-1.92,12.48c3.282,1.357,4.684,4.596,8.64,5.28c2.002,3.281,7.367,5.748,6.72,10.08
		c-3.027-2.092-4.446-5.794-7.2-8.16c-3.293-0.866-5.227-3.093-7.68-4.8c-24.551,0.245-40.079-0.503-63.84-2.88
		c0.068,12.833,2.134,22.785,0.96,33.12c6.737,1.677,13.352,0.691,20.16,0.48c13.967-0.433,28.264,0.825,42.72,0.96
		c0.906-2.294-0.726-7.126,1.92-7.68c1.486,2.286-1.04,6.2,0,8.16c7.92-1.114,17.157,2.063,24.96,0.96
		c0.903-1.969-3.95-4.552-2.399-7.2c2.121,0.24,3.382,6.052,4.319,4.32c1.673-11.754,0.493-24.729,1.92-36.48
		c0.496-4.086,2.117-6.59,3.36-9.6c3.306-8.003,9.694-17.235,14.88-20.16c7.841-4.422,19.522-0.651,24.96,5.28
		c8.263,15.692,8.183,36.279,9.12,57.12c0.117,2.606,0.913,5.237,0.96,7.68c0.257,13.412-1.119,26.164-0.96,38.88
		c0.143,11.397,1.587,22.595,0.48,32.64c5.805,8.265,24.001,8.765,32.64,2.4C490.08,202.429,489.825,175.427,489.56,154.88z
		 M266.36,103.52c-0.291,7.557,1.792,16.747,2.399,25.92c0.638,9.624-0.407,22.371-4.8,26.4c2.142,1.968,5.806,2.047,9.12,2.4
		c6.871,0.731,13.662,0.902,19.2,0.479c0.646-3.168,4.096-5.257,4.8-8.16c1.212-4.999,0.222-11.928,0-17.28
		c-0.415-10.033-2.462-19.718-1.44-26.88C289.707,100.806,275.77,101.988,266.36,103.52z M264.92,116.96
		c1.26,10.447,0.584,21.097,0.48,29.76c1.343-0.536,1.329-3.134,1.439-4.32c1.088-11.638-1.809-25.178-1.92-36
		c-0.027-0.292-0.071-0.568-0.479-0.48C262.523,108.811,264.435,112.935,264.92,116.96z M252.92,109.76
		c-0.353,12.713,3.622,29.565-1.92,42.24c4.321-0.321,6.891,1.109,11.04,0.96c3.108-3.209,1.458-8.949,1.44-13.92
		c-0.037-9.995,0.773-20.545-1.44-29.28C258.707,109.55,255.271,108.318,252.92,109.76z M309.56,148.16
		c1.763-6.142-0.58-20.529-0.96-26.88c-0.192-3.232-0.028-6.738-0.479-7.68c-1.544-3.223-6.889-3.976-11.04-3.84
		c0.466,14.702,2.912,29.879,1.439,43.2C302.907,153.399,308.251,152.723,309.56,148.16z"/>
	<path fill-rule="evenodd" clip-rule="evenodd" d="M155.96,400.64c3.433,14.007,6.579,28.302,7.2,45.12
		c8.222,4.258,18.264,6.695,25.92,11.521c22.865,1.775,44.88,4.399,65.76,8.16c1.971-0.271,2.319-2.282,4.8-2.881
		c2.783-0.67,6.45,0.1,9.12,0.48c1.438-0.962,1.443-3.356,3.36-3.84c9.94-0.181,18.101,1.419,26.399,2.88
		c1.271,1.13,1.071,3.729,1.921,5.28c2.839,1.665,5.771,0.598,9.119,1.92c2.062,0.813,3.5,3.077,5.761,3.84
		c4.894,1.651,11.782,1.031,18.239,1.92c11.685,1.608,22.989,3.199,34.561,5.28c5.688,1.022,11.479,3.3,16.32,3.359
		c2.276,0.028,4.755-1.189,7.199-1.439c7.466-0.765,15.104,1.342,23.04,1.92c10.18,0.741,22.373,0.073,32.641-0.48
		c3.549-0.191,7.52,0.439,10.08,0c3.71-0.636,5.888-3.927,11.04-4.319c10.878-0.831,21.054,5.386,21.6,15.84
		c0.492,9.43-5.221,18.638-11.521,21.6c-7.585,3.567-17.979,0.751-29.279,0.48c-9.78-0.234-19.816,0.114-29.28,0
		c-7.748-0.095-15.355-2.144-22.08-1.44c-3.628,0.38-6.15,2.349-11.04,2.4c-6.365,0.066-13.705-1.018-20.16-1.92
		c-17.956-2.511-38.62-5.733-57.6-7.2c-2.653,0.488-3.036,2.122-5.76,2.399c-2.507,0.256-4.639-1.518-6.721-0.96
		c-3.413,0.915-2.424,4.628-5.76,5.761c-9.371-0.549-18.449-1.391-25.439-4.32c-1.039,0.561,0.064,3.265-1.44,3.36
		c-4.484,0.476-6.244,3.676-9.12,5.76c-23.612-1.142-55.126,0.141-80.16-0.96c-2.944-0.13-6.278-1.167-9.12-0.48
		c-1.803,0.436-3.204,2.678-5.28,3.36c-3.868,1.271-12.396,0.754-18.24,0.96c-8.83,0.312-18.63,2.398-20.16-4.8
		c-34.765-0.436-69.054-1.346-104.16-1.44c-0.151-2.936-0.469-9.585,1.44-12c27.62-7.33,68.399-2.776,102.72-2.88
		c0.343-2.697,2.675-3.405,3.84-5.28c1.018-3.074-1.032-6.293-0.96-8.64c0.091-2.955,1.741-4.839,1.44-7.68
		c-0.39-3.674-3.733-5.477-3.84-9.601c-3.719-2.212-8.166-2.975-12.48-5.279c-2.562-1.369-7.333-5.571-7.68-8.641
		c-0.349-3.093,2.581-8.897,4.32-12.96c2.613-6.103,4.103-13.769,12.96-11.52c1.406-10.048-0.37-25.888,5.76-32.641
		C133.982,398.495,148.708,394.524,155.96,400.64z M126.68,401.6c-3.882,2.71-3.952,8.404-4.32,14.4
		c-0.412,6.706-2.086,14.68-1.44,21.12c1.579,15.735-0.954,34.757,6.72,42.72c0,1.76,0,3.521,0,5.28
		c3.428-0.835,8.541-2.407,12.96-2.88c2.393-0.256,5.753-0.458,7.2,0.479c-6.797,2.163-17.009,0.911-21.6,5.28
		c3.568-1.081,8.916-2.685,13.44-2.88c1.422-0.062,4.194-0.771,4.8,0.96c-6.007,1.353-14.308,0.412-17.76,4.32
		c3.405,0.147,10.255-2.82,15.36-0.96c-3.985,1.935-11.311,0.528-14.88,2.88c0,1.92,0,3.84,0,5.76
		c-0.112,2.447-3.494,1.626-3.36,4.32c10.726,0.732,21.932,0.277,34.08,0.479c-0.352-2.354-0.745-4.478,0-6.72
		c-2.94-0.26-5.347-1.053-5.76-3.84c0.688-2.353,2.363-3.718,2.88-6.24c-2.035-0.365-5.685,0.885-6.24-0.96
		c1.125-1.275,5.155,0.354,6.24-0.96c-1.431-0.01-2.925,0.045-2.88-1.44c0.718-0.081,1.771,0.172,1.92-0.479
		c-1.693-1.027-0.69-4.75-0.96-7.2c0.618-1.143,1.23-2.29,1.92-3.36c1.229-23.228-8.165-43.881-3.84-68.64
		c0.25-0.71,0.71-1.21,0.96-1.92c0.735-0.006,1.578-1.31,0-0.96C144.601,396.806,134.105,400.354,126.68,401.6z M160.76,438.56
		c0,1.44,0,2.88,0,4.32c0.204,4.228,0.339,2.025,0.48-0.479c0.592-10.513-2.023-20.17-3.84-27.841
		c-1.127-4.76-0.589-10.039-3.36-12.479c-2.222,1.5-2.21,5.579-2.4,8.64c-0.638,10.274,0.546,20.877,1.92,28.8
		c-0.156-4.267,0.207-8.984,0-13.439c-0.21-4.517-1.922-13.158,0.96-15.84C159.583,416.697,159.03,428.77,160.76,438.56z
		 M155.96,452.48c1.58,0.02,2.39,0.81,4.32,0.479c-1.405-13.955-1.267-29.453-5.76-40.32
		C154.866,426.055,154.704,439.977,155.96,452.48z M114.2,435.2c1.17,2.029,3.411,2.988,5.76,3.84
		c-1.085-2.031-1.727-2.507-0.48-4.8C117.33,434.17,115.372,434.292,114.2,435.2z M104.12,458.72
		c4.492-3.668,4.227-12.094,8.64-15.84c-1.384,7.097-5.022,11.938-7.2,18.24c4.303,3.856,10.351,5.969,15.84,8.64
		c-1.178-9.146-0.527-18.674-1.44-28.8c-2.581-1.739-5.984-2.655-7.2-5.76C109,441.853,104.541,450.324,104.12,458.72z M157.4,454.4
		c0.019-1.407-2.851,0.286-0.48,0c6.241,2.559,13.896,3.703,22.08,4.319c1.361-0.419,3.918-2.134,5.28-0.96
		c-7.921,5.177-21.534-0.918-28.32-1.439c2.457,8.828-0.96,15.951-1.44,24.479c6.331,7.027,17.813,6.391,28.32,7.2
		c5.396,0.416,11.126,2.18,16.8,3.36c16.855,3.504,34.681,7.138,51.84,9.12c-0.439-12.919,2.683-22.277,3.84-33.601
		c-21.317-3.963-44.516-6.044-67.2-8.64c-0.766,3.356-2.715,6.6-3.84,10.08c-1.218,3.769-0.817,8.115-3.36,11.04
		c0.128-9.152,4.208-14.353,5.76-22.08c-6.438-2.523-13.645-6.834-20.16-7.681c3.455,2.465,10.445,1.396,10.56,7.2
		C170.062,458.344,164.792,454.073,157.4,454.4z M162.2,453.44c4.832,0.447,8.112,2.448,13.44,2.399
		c-2.782-3.618-8.673-4.127-12.96-6.24C163.049,451.409,162.094,451.895,162.2,453.44z M272.12,460.64
		c-3.438,5.128-3.093,11.384-4.32,19.2c-1.67,10.637-5.134,19.964-2.399,30.72c7.064,2.855,15.938,3.901,25.439,4.32
		c0.668-1.412,2.344-1.816,2.4-3.84c-1.182,0.746-1.412-1.63-0.48-1.44c0.127-1.777-1.493,0.312-1.92-1.439
		c0.466-7.095,0.591-15.006,1.92-23.521c1.141-7.307,2.538-18.648,5.28-21.12C290.101,461.859,281.874,460.485,272.12,460.64z
		 M259.64,464c-0.979,0.142-0.94,1.299-1.92,1.44c-2.821,11.258-4.862,23.298-5.28,36.96c1.839,2.072,6.658,3.484,10.08,2.399
		c1.346-14.334,4.115-27.245,6.24-40.8C265.72,464,262.68,464,259.64,464z M296.6,474.56c-0.35-3.717,2.252-7.018,1.44-9.6
		C297.468,467.755,295.522,471.712,296.6,474.56z M294.2,509.6c4.275-1.586,8.399,1.629,12-0.479
		c-0.265-12.512,1.639-26.777,4.8-37.44c-3.595-1.525-8.333-1.907-12-3.359C296.103,480.782,294.426,494.466,294.2,509.6z
		 M397.88,489.92c-0.332-1.135-1.109-4.294,0-5.28c1.834-0.979,3.671-0.098,5.76,0c1.957-0.214,4.459,0.182,1.92-0.479
		c-4.37-1.139-14.8-0.624-17.279,0.479c1.43,0.01,2.925-0.044,2.88,1.44c-10.345-1.965-20.972-3.354-31.68-5.28
		c-10.603-1.906-21.211-4.583-32.16-5.28c-6.775-0.431-11.383-0.824-15.84-1.92c-1.735,10.746-4.21,20.751-3.841,33.601
		c15.26,2.248,34.701,4.004,52.801,6.24c10.019,1.237,18.931,3.837,27.84,3.359c4.72-0.253,8.729-1.893,9.6-4.8
		c1.381-5.499,1.44-12.319,1.44-19.2c-1.621-1.724-3.637-2.434-6.24-3.359c-2.301-0.818-5.464-0.789-6.72-2.881
		C389.992,486.039,395.019,488.089,397.88,489.92z M460.28,483.68c-3.51,2.774-7.197,11.542-6.721,17.28
		c0.685,8.229,8.979,13.716,17.761,12.96c7.011-0.603,16.86-8.645,17.279-17.28c0.546-11.242-10.146-16.646-20.64-15.359
		C464.473,481.707,462.146,482.204,460.28,483.68z M408.92,485.12c0.374,0.105,0.559,0.402,0.48,0.96
		c-2.354,0.475-7.162-0.431-10.561-0.48c-0.605,2.775,1.505,4.859,1.92,7.681c0.897,6.094-1.127,12.927-0.96,19.2
		c-0.258,0.481-2.487,2.122-0.479,1.92c20.107,1.93,43.384,1,63.359,1.92c-12.379-2.921-12.358-23.037-5.279-31.681
		C442.103,485.396,422.983,486.178,408.92,485.12z M158.36,488c-0.357-1.478,1.318-0.923,0.96-2.4c-0.567-0.069-1.088-0.854-1.44,0
		C159.086,485.368,156.723,487.801,158.36,488z M162.2,494.24c-0.709-2.308-1.454-5.007-0.48-7.681c-0.48,0-0.96,0-1.44,0
		C158.569,488.685,157.812,496.041,162.2,494.24z M293.24,495.68c0.582-1.93,1.582-8.186,0.479-8.64
		C293.836,490.196,292.875,492.274,293.24,495.68z M153.56,492.8c0.557,1.224,3.304,2.748,4.8,1.44
		c-1.887-1.312-1.526-4.873-2.4-7.2C155.976,489.775,153.756,490.275,153.56,492.8z M251.48,502.4
		c-11.73-2.164-23.038-4.012-34.56-6.24c-5.53-1.07-11.09-2.187-16.8-3.36c-5.616-1.154-11.625-2.931-17.28-3.359
		c-6.485-0.492-12.762-0.022-19.2-1.921c-0.026-0.504-0.615-0.377-0.48,0.48c-1.687,3.139,1.088,5.942,1.92,8.16
		c0.324,1.874-2.348,4.374-0.96,7.2c29.218,0.862,60.774,1.945,89.76,1.439C252.554,504.526,251.188,504.292,251.48,502.4z
		 M161.72,498.56c0.089-0.71,1.16-0.439,1.92-0.479c0.109-1.71-0.69-2.51-2.4-2.4C160.45,496.426,161.035,497.92,161.72,498.56z
		 M292.28,502.88c-0.317,6.715,2.165-6.859,0.479-6.24C293.1,499.729,292.351,501.38,292.28,502.88z M155,507.2
		c-0.618-1.033,0.516-1.698-1.92-1.44c-6.082-0.318-13.438,0.639-18.72-0.479c-0.057-1.978,3.755-0.086,4.32-1.44
		c-5.004-0.044-9.093,0.827-14.4,0.48c-0.684,1.775-0.928,2.924-3.36,1.92c-0.758-1.879,1.246-0.994,1.44-1.92
		c-30.545,0.498-64.668-3.944-92.16,0.96c14.222,0.974,27.99-2.928,41.76-0.96c2.075,0.296,3.794,1.625,5.76,1.92
		c6.798,1.019,14.53,0.169,21.6,0.479c6.871,0.303,13.951-0.304,20.64,0c38.812,1.763,78.592,1.183,117.12,2.4
		c3.148,0.366,4.274-0.761,0.48-0.48c-2.4,0-4.8,0-7.2,0c-5.532-0.932-13.833-0.337-19.68-0.479c-1.551-0.038-4.205,0.837-4.8-0.96
		c1.774-1.427,6.866,0.466,8.64-0.96c-16.575-0.706-33.639-0.921-50.88-0.96c-1.734,0.186-1.206,2.634-3.84,1.92
		c2.172-1.906,0.296-6.935-0.48-10.08C158.931,501.415,159.938,506.531,155,507.2z M162.2,502.4
		c-0.155-5.157-1.487-0.542,0.48,1.439C162.886,503.174,162.212,502.793,162.2,502.4z M62.84,505.28
		c-2.408,0.312-6.069-0.63-7.68,0.479C57.568,505.448,61.229,506.389,62.84,505.28z M471.8,515.36
		c-6.12,0.629-11.048-2.435-14.88-4.32c2.202,2.397,6.771,4.036,8.16,5.76c10.735,2.013,19.6-4.338,21.12-11.52
		C483.483,509.739,478.7,514.65,471.8,515.36z M195.8,509.6c-19.135-0.661-38.77-0.96-58.08-0.96
		c-39.044,0-78.015-2.936-116.16-1.92c-0.131,0.004-0.532-0.783-1.44,0.48c-1.078,2.064-1.542,6.957-0.96,9.12
		c78.179,0.54,157.069,2.93,234.24,2.88c-0.231-2.489,0.517-5.957-0.48-7.681C234.144,509.946,215.114,510.268,195.8,509.6z
		 M216.92,506.24c-0.718,0.081-1.771-0.172-1.92,0.479C215.718,506.639,216.771,506.892,216.92,506.24z M241.4,507.68
		c1.902,0.148-0.537,1.667,1.44,1.44c3.01-0.29,5.077,0.363,7.68,0.479c1.017-1.063,2.038-2.122,3.36-2.88
		c-11.157,0.597-22.197-1.481-32.64,0C228.358,506.643,234.954,507.086,241.4,507.68z M252.92,508.64
		c2.497,1.823,1.46,7.181,2.4,10.561c1.802-2.678,4.584-4.376,8.16-5.28c-0.337-2.097,0.816-2.703,0.479-4.8
		C261.524,506.11,256.612,507.731,252.92,508.64z M123.8,521.12c4.228,3.141,10.98,1.264,16.32,0.96
		c8.958-0.51,19.073,1.793,22.08-2.4c-13.332,0.372-25.216-0.704-38.4-0.479C123.8,519.84,123.8,520.48,123.8,521.12z"/>
</g>
</svg>
