<?xml version="1.0" encoding="utf-8"?>
<!-- Generator: Adobe Illustrator 15.0.0, SVG Export Plug-In . SVG Version: 6.00 Build 0)  -->
<!DOCTYPE svg PUBLIC "-//W3C//DTD SVG 1.1//EN" "http://www.w3.org/Graphics/SVG/1.1/DTD/svg11.dtd">
<svg version="1.1" id="Capa_1" xmlns="http://www.w3.org/2000/svg" xmlns:xlink="http://www.w3.org/1999/xlink" x="0px" y="0px"
	 width="537px" height="569px" viewBox="0 0 537 569" enable-background="new 0 0 537 569" xml:space="preserve">
<g>
	<path fill-rule="evenodd" clip-rule="evenodd" d="M88.44,34.88c0.752,3.888,1.38,7.9,1.92,12c-3.038-1.762-1.222-8.377-3.36-11.04
		c-2.829-0.531-5.91-0.81-7.68-2.4c-3.201,1.42-5.1,2.772-8.64,2.88c-3.346,0.102-6.395-1.523-9.6-0.96
		c-5.83,1.025-10.776,6.995-11.52,13.44c-0.176,1.528,0.246,3.192,0,4.8c-0.834,5.453-4.824,10.013-3.84,15.84
		c-1.493-0.75-1.316-3.879-0.96-6.24c0.55-3.652,3.327-7.08,3.84-11.52c0.14-1.21-0.212-2.549,0-3.84
		c1.158-7.05,6.553-13.021,12-13.92c4.743-0.782,12.496,3.514,16.32-1.44C82.129,31.911,83.681,34.999,88.44,34.88z"/>
	<path fill-rule="evenodd" clip-rule="evenodd" d="M204.6,63.68c6.717-2.803,11.418,3.23,12.96,8.64
		c1.441,0.639,3.672,0.488,5.76,0.48c1.354,1.526,3.81,1.95,4.8,3.84c1.693-0.827-1.386-0.786-0.48-2.4
		c1.95-0.03,2.391,1.449,2.88,2.88c2.073-0.312,2.69,0.829,3.84,1.44c-0.379-2.939,1.864-3.256,3.36-4.32
		c0.261,3.141-3.057,2.703-1.92,6.72c-5.362,1.03-2.532,10.621-4.8,13.44c-2.355-0.109,0.853-3.641-0.96-4.8
		c-7.686-0.202-3.318,7.9-5.28,12c-2.32-0.932-1.474-3.626,0-5.28c-1.068-1.171-1.053-3.427-0.96-5.76
		c2.001-0.879,3.267-2.493,6.72-1.92c1.343-2.657,0.237-7.763,3.36-8.64c-2.806-3.192-7.071-1.117-10.08,0.48
		c-0.95-1.301,1.291-2.618,2.88-2.88c-0.264-2.296-3.658-1.462-4.32-3.36c-10.037,1.097-6.932-13.036-17.76-9.6
		c0.876,2.173,4.761,3.867,3.36,6.72c-1.952-0.927-1.466-4.293-4.32-4.32c0.122-2.521-1.489-3.312-2.88-4.32
		c-3.3,0.38-4.611,2.749-7.68,3.36c-0.292-1.892,1.074-2.126,2.4-2.4c-2.01-0.618-7.256,0.171-9.12-1.92
		c-3.786,2.107-5.295,1.292-9.6,2.88c0.096,2.464,2.1,3.021,3.36,4.32c2.576-0.624,4.245-2.155,6.72-2.88
		c2.401,2.244,7.919,3.915,6.72,8.16c-1.456,0.016-1.196-1.685-1.44-2.88c-2.157-0.883-4.05-2.03-5.28-3.84
		c-2.26,0.62-2.971,2.789-6.24,2.4c-1.508,0.412-1.066,2.773-2.88,2.88c-0.1-1.379,0.122-2.438,0.96-2.88
		c-1.975-1.866-3.165-4.515-5.76-5.76c-2.535,0.824-3.88,2.84-6.72,3.36c-0.816-2.248,3.774-2.834,5.28-4.32
		c1.383,0.057,3.142-0.262,3.84,0.48c4.579-0.725,10.632-4.834,14.88-1.44c3.19-0.607,6.601,0.614,10.08-0.96
		C202.258,61.542,203.257,62.783,204.6,63.68z"/>
	<path fill-rule="evenodd" clip-rule="evenodd" d="M228.12,70.4c2.671-0.431,3.354,1.125,4.32,2.4
		c1.576-0.664,2.935-1.545,2.88-3.84c-1.367-1.513-6.965,1.205-5.76-2.88c1.988,1.568,3.464,1.309,6.72,0.96
		c1.476,4.552-0.856,6.892-4.32,6.72c-1.909-0.094-2.963-3.043-5.76-2.88c0.373-2.772-1.578-3.222-2.4-4.8
		c-1.488-0.632-2.662,1.422-3.36,0C223.4,62.053,227.378,67.613,228.12,70.4z"/>
	<path fill-rule="evenodd" clip-rule="evenodd" d="M89.4,66.08c0.558-0.078,0.854,0.106,0.96,0.48
		c-3.444,15.124,1.641,39.1-5.28,51.84c-2.232-1.806,1.403-5.036,1.92-7.2c1.018-4.259,0.707-10.261,0.96-15.84
		C88.44,84.79,86.656,74.062,89.4,66.08z"/>
	<path fill-rule="evenodd" clip-rule="evenodd" d="M116.76,66.08c1.914-0.153,3.546-0.026,4.32,0.96
		c-0.044,4.115-1.267,7.053-3.36,9.12c-0.83-3.959,3.836-6.144,0.96-9.12c-2.97,0.71-0.034,7.326-3.84,7.2
		C115.675,71.715,116.265,68.945,116.76,66.08z"/>
	<path fill-rule="evenodd" clip-rule="evenodd" d="M97.08,66.56c0.64,0,1.28,0,1.92,0c1.541,4.038-2.215,9.578,0.48,13.44
		c-4.852-1.236-1.102-8.518-0.96-12c-1.883,1.601-2.358,4.501-2.4,6.72c-1.517-0.083-1.301-1.898-1.44-3.36
		C95.087,69.367,97.128,69.008,97.08,66.56z"/>
	<path fill-rule="evenodd" clip-rule="evenodd" d="M101.4,85.76c-0.48-5.463-1.213-12.597,2.88-15.36
		c1.982,4.641-0.727,10.073,0,16.32c1.233,1.488,1.671,3.77,2.88,5.28c-1.224,5.024,4.028,9.749,0,12.96
		c0.269-5.97-1.01-12.983-4.32-16.8c-0.598-5.878,0.935-9.625,0.96-14.88c-2.672,3.44-0.818,10.438-1.92,14.4
		c-2.928-0.571-3.473-2.139-2.88-5.28C100.575,82.745,99.531,85.709,101.4,85.76z"/>
	<path fill-rule="evenodd" clip-rule="evenodd" d="M173.88,70.4c0.501,2.629,1.424,5.428,4.32,4.32
		c-0.872,5.709-5.471-1.007-5.76-3.36c-2.511,0.529-5.639,0.441-6.72,2.4c-3.252-1.438-5.541,1.591-8.64,0
		c1.688-1.337,5.194-2.376,7.68-1.44C166.77,70.65,169.786,69.985,173.88,70.4z"/>
	<path fill-rule="evenodd" clip-rule="evenodd" d="M129.24,71.84c0.25,0.71,0.71,1.21,0.96,1.92c-1.207,2.474-1.853,5.507-5.28,5.76
		c-0.403-0.557-0.633-1.287-0.48-2.4c2.602,1.291,3.686-1.713,4.32-3.84c-1.322,0.597-1.388,2.451-2.4,3.36
		C124.652,75.729,126.442,71.306,129.24,71.84z"/>
	<path fill-rule="evenodd" clip-rule="evenodd" d="M169.56,73.76c0.64,0,1.28,0,1.92,0c0.83,1.091,1.158,2.682,0.96,4.8
		c-1.394,0.366-1.245,2.275-3.36,1.92c-0.098,1.502,0.324,3.524-0.48,4.32c1.775,2.065,5.302,2.378,5.28,6.24
		c-2.272-1.728-4.327-3.673-6.72-5.28c-0.285-4.605,1.96-6.679,4.32-8.64c-0.066-0.894-0.316-1.604-0.96-1.92
		c-1.071,0.07,0.623,1.209,0,2.4C168.452,78.061,168.895,74.566,169.56,73.76z"/>
	<path fill-rule="evenodd" clip-rule="evenodd" d="M184.44,73.76c1.063,3.538-0.357,7.427,0,11.521
		c0.155,1.773,1.145,3.495,1.44,5.28c0.297,1.8,1.441,5.161-0.96,5.76c-0.531-7.688-2.85-12.993-0.96-21.12
		c-2.021,1.303-0.647,4.253-0.96,6.24c-0.522,3.314-1.909,5.838-3.36,7.68c-1.774,0.189,0.086-3.121,0.96-3.36
		c1.715-3.765,0.557-8.766,1.92-12C183.16,73.76,183.8,73.76,184.44,73.76z"/>
	<path fill-rule="evenodd" clip-rule="evenodd" d="M192.12,75.2c0.48,0,0.96,0,1.44,0c-1.531,5.276,1.135,15.349-1.92,17.76
		C191.703,86.754,191.423,79.398,192.12,75.2z"/>
	<path fill-rule="evenodd" clip-rule="evenodd" d="M240.12,76.16c1.549-0.43,0.674,1.565,1.44,1.92
		c1.764,1.756,4.498,2.542,7.2,3.36c0.351,2.85,2.471,3.929,1.92,7.68c-2.566-1.114-1.686-5.674-3.84-7.2
		C243.244,81.356,239.821,80.619,240.12,76.16z"/>
	<path fill-rule="evenodd" clip-rule="evenodd" d="M121.08,80c-0.116-1.237-0.826,0.659-1.92,0c0.373-1.067,1.008-1.872,0.96-3.36
		c4.706,0.044,1.451,6.563-0.96,6.72C119.126,81.566,119.931,80.611,121.08,80z"/>
	<path fill-rule="evenodd" clip-rule="evenodd" d="M136.92,77.12c-0.447,5.012,0.369,7.124-0.96,10.08c-1.12,0-2.24,0-3.36,0
		c-1.126-1.754-1.947-3.813-4.32-4.32c-1.638,0.122-2.493,1.027-2.4,2.88c-3.608,1.276-7.528,3.416-6.72,7.68
		c-1.74-0.339-0.662-3.499-0.96-5.28c2.423-1.897,6.423-2.217,7.2-5.76c4.741-2.245,6.429,2.026,9.12,3.36
		c1.878-0.842,0.441-4.999,1.44-6.72c-2.847,0.125-0.008,3.287-1.44,4.32C132.361,81.996,133.406,75.967,136.92,77.12z"/>
	<path fill-rule="evenodd" clip-rule="evenodd" d="M110.04,78.56c5.339,0.841,1.098,9.402-1.92,10.56
		c-1.244-1.484,0.979-2.576,1.92-3.36C107.238,84.582,109.869,81.02,110.04,78.56z M111,80.96c0.267,0.001,0.545-0.389,0-0.48
		C109.53,82.922,110.762,85.298,111,80.96z"/>
	<path fill-rule="evenodd" clip-rule="evenodd" d="M223.8,86.24c-1.456,0.176-0.996-1.564-1.44-2.4
		c-1.546-2.293-5.615-2.065-8.16-3.36c-1.943,0.618-2.645,2.476-4.8,2.88c1.739-6.583,11.9-3.462,14.4,0
		C223.8,84.32,223.8,85.28,223.8,86.24z"/>
	<path fill-rule="evenodd" clip-rule="evenodd" d="M198.84,83.36c1.403,2.141,1.716,5.263,1.44,8.64
		c-0.254,3.11,1.912,7.63-0.48,8.64c-1.355-6.41,0.394-10.612-1.44-15.84c-2.652-0.092-1.871,3.25-4.8,2.88
		C194.399,85.319,195.438,83.159,198.84,83.36z"/>
	<path fill-rule="evenodd" clip-rule="evenodd" d="M242.04,86.24c0.775-0.136,0.826,0.453,1.44,0.479
		c-0.488,1.912-0.699,4.101-0.96,6.24c-2.537,0.823-3.071,3.649-3.36,6.72c-1.436,0.804-2.283,2.197-3.36,3.36
		c-0.014,4.146,0.362,8.682-1.44,11.04c-1.991-1.217,0.482-4.302,0.48-6.72c-0.001-1.636-0.642-3.518,0-5.76
		c0.825-1.415,2.449-2.031,3.36-3.36C237.616,92.376,243.176,92.656,242.04,86.24z"/>
	<path fill-rule="evenodd" clip-rule="evenodd" d="M206.52,87.2c-3.294,4.131-1.231,11.875-3.36,16.32
		c-1.415-1.754,0.749-9.189,0.48-14.4C204.62,88.5,204.513,86.793,206.52,87.2z"/>
	<path fill-rule="evenodd" clip-rule="evenodd" d="M210.36,89.12c2.971,0.732,1.135,4.225,2.88,6.72
		c3.721-0.119,1.916-5.764,6.24-5.28c-0.591,3.889-1.249,7.711-3.36,10.08c0.23,2.665,2.044,4.881-0.48,5.76
		c-0.552-4.572-0.448-7.579,1.44-10.56c-1.616,0.304-2.461,1.379-4.8,0.96C211.49,94.598,210,90.913,210.36,89.12z"/>
	<path fill-rule="evenodd" clip-rule="evenodd" d="M32.28,90.08c0.48,0,0.96,0,1.44,0c-0.579,6.622-0.138,14.262-4.8,16.8
		c-0.026,4.618-0.663,9.276,0,12c-3.09-1.549-0.673-8.607-1.44-12.48C31.148,103.028,33.196,98.036,32.28,90.08z"/>
	<path fill-rule="evenodd" clip-rule="evenodd" d="M99.48,90.08c2.256,1.583,1.652,6.028,3.84,7.68c1.364,0.084-0.58-3.14,1.44-2.4
		c-0.012,4.401,2.363,10.205,0.48,13.44c-2.974-1.441-0.886-5.471-1.44-7.68C102.902,97.542,98.271,94.881,99.48,90.08z"/>
	<path fill-rule="evenodd" clip-rule="evenodd" d="M186.36,99.68c2.465-2.474,9.576-3.89,10.56,0.96
		c-2.419,0.02-3.137-1.663-4.8-2.4c-1.49,0.75-3.056,1.424-4.32,2.4c0.207,5.018-0.146,9.193-1.44,11.52
		c-1.468-0.348-1.412,0.828-2.88,0.48c-0.418-2.018,1.594-1.606,2.4-2.4c0.458-2.583,0.596-5.484,0.48-8.64
		c-1.424-1.616-2.776-3.303-4.8-4.32c-1.512-0.232-1.087,1.473-2.88,0.96c-0.715-0.565-1.355-1.205-1.92-1.92
		c-4.374,1.867-8.293,4.187-11.04,7.68c0.091,2.171,0.393,4.553-2.4,3.84c0.962-7.822,8.318-11.323,13.92-12.96
		c0.469,0.491,0.949,0.971,1.44,1.44C182.272,95.059,184.968,97.312,186.36,99.68z"/>
	<path fill-rule="evenodd" clip-rule="evenodd" d="M280.44,94.88c1.931-0.013,0.077,2.128,0,2.88c-0.136,1.316-0.062,2.998,0,4.32
		c0.361,7.835,2.592,17.226,6.72,21.12c12.983,0.103,18.06-10.009,33.6-7.2c5.921,1.07,12.137,6.505,19.2,8.16
		c3.317,0.777,6.226,0.487,9.12,1.44c1.875,0.617,3.239,1.734,4.8,2.4c1.67,0.713,3.648,0.446,4.8,1.92
		c-3.871,1.235-6.24-2.244-9.6-3.36c-3.181-1.057-7.002-0.547-10.561-1.44c-3.343-0.839-6.34-2.975-9.6-4.32
		c-3.238-1.336-7.009-3.365-10.08-3.84c-11.827-1.829-19.337,8.049-32.64,7.2c-5.887-5.918-7.256-18.494-6.72-29.28
		C279.8,94.88,280.12,94.88,280.44,94.88z"/>
	<path fill-rule="evenodd" clip-rule="evenodd" d="M97.56,96.8c0.48,0,0.96,0,1.44,0c1.347,3.587,5.316,9.025,1.92,12.96
		c0.615,7.335-3.627,9.813-2.4,17.76c-4.172-3.5,0.196-8.619,0.96-12.96c0.566-3.218-0.686-6.576,1.92-8.16
		c-0.844-2.196-1.604-4.476-2.4-6.72c-1.177,1.729,0.018,6.077-0.96,6.72C95.53,104.538,98.184,99.936,97.56,96.8z"/>
	<path fill-rule="evenodd" clip-rule="evenodd" d="M232.44,116.96c0.678-1.242,1.551-2.289,3.84-1.92
		c1.606-3.034,1.15-8.13,4.8-9.12c1.066-1.813,0.497-5.263,3.84-4.8c-1.56,5.32-6.558,7.202-6.72,13.92
		c3.119,0.399,2.867-2.573,6.24-1.92c0.72-5.52,1.032-11.448,2.4-16.32c1.368,0.588,0.696,3.399,0.48,4.8
		c-0.5,3.24-1.396,6.049-1.44,10.08c0.599,1.028,1.967-1.194,3.36-0.96c-0.621,4.18-6.964,2.637-8.64,5.76c-0.64,0-1.28,0-1.92,0
		c-0.403,1.993-2.217,6.62-4.32,3.84c0.829-1.174,2.731-1.001,2.88-3.84C235.876,114.886,233.56,118.229,232.44,116.96z"/>
	<path fill-rule="evenodd" clip-rule="evenodd" d="M210.84,97.76c0.48,0,0.96,0,1.44,0c0.855,7.19,0.012,13.116,3.36,17.76
		c0.108,1.972,2.519,1.641,2.4,3.84c-4.521-0.279-3.592-6.008-6.24-8.16C212.324,105.759,211.387,102.923,210.84,97.76z"/>
	<path fill-rule="evenodd" clip-rule="evenodd" d="M37.08,98.72c0.558-0.078,0.854,0.106,0.96,0.48
		c0.687,5.807-1.539,8.701-2.4,12.96c2.594,2.305,5.479,8.885,0.96,12.96c-2.273-1.857,1.517-3.919,1.44-6.24
		c-0.086-2.618-2.061-2.991-3.36-5.28C34.925,108.085,36.802,104.202,37.08,98.72z"/>
	<path fill-rule="evenodd" clip-rule="evenodd" d="M135.96,99.2c1.586,0.014,1.174,2.026,2.4,2.4
		c-1.422,7.732,0.701,13.822,0.96,19.68c-3.206-3.037-2.607-12.43-1.92-17.76C137.256,101.744,135.287,101.793,135.96,99.2z"/>
	<path fill-rule="evenodd" clip-rule="evenodd" d="M91.32,101.12c2.277-0.653,3.148,2.58,1.92,3.84
		c-1.676,0.43-0.82-1.565-0.48-1.92c-1.443-0.484-0.851,1.069-0.96,1.92C89.307,105.082,90.658,101.951,91.32,101.12z"/>
	<path fill-rule="evenodd" clip-rule="evenodd" d="M179.64,117.44c0.616,0.824,1.916,0.964,2.4,1.92
		c0.089,2.49-1.956,2.844-1.44,5.76c-2.519-0.752-0.795-3.392,0-4.8c-4.201-2.254-0.167-11.043-2.4-14.4
		c-1.512-0.232-1.087,1.473-2.88,0.96c-0.364-2.124,1.87-1.65,2.4-2.88C182.15,106.625,179.293,111.761,179.64,117.44z"/>
	<path fill-rule="evenodd" clip-rule="evenodd" d="M200.76,105.92c-2.862,2.985-4.34,13.07-2.88,19.68
		c0.316,1.43,1.433,2.511,1.44,3.84c0.015,2.541-1.946,5.232-2.4,8.16c-0.649,4.194,0.073,8.606,0,12.96
		c-0.013,0.772,1.419,3.755-1.44,3.84c-1.974-0.65-0.5-3.06,0.48-4.32c-1.954-6.733-0.212-14.232,1.92-20.64
		c-2.62-5.639-1.604-17.15,0-23.04C199.348,106.748,199.292,105.572,200.76,105.92z"/>
	<path fill-rule="evenodd" clip-rule="evenodd" d="M46.68,106.4c1.406,0.854-0.69,5.418-1.92,6.72
		c1.731,5.078,5.411,13.388,1.92,19.2c-0.237,2.149,1.841,3.777,1.92,6.24c0.049,1.524-1.16,2.648-1.44,4.8
		c-0.538,4.133,1.096,8.189-1.92,10.56c-0.592,2.992,0.873,5.945,0.48,7.2c-3.129-1.98-1.206-10.162,0.48-12
		c-0.124-2.116-0.767-3.713-0.48-6.24c0.105-1.814,1.509-2.331,1.92-3.84c-0.863-2.178-1.7-4.38-2.4-6.72
		c5.129-7.36-3.069-15.084-0.48-22.56c0.138-0.398,0.906-0.293,0.96-0.96C45.759,108.316,44.92,106.865,46.68,106.4z"/>
	<path fill-rule="evenodd" clip-rule="evenodd" d="M90.84,108.8c0.48,0,0.96,0,1.44,0c1.156,2.788-0.933,6.265,1.44,8.16
		c-0.849,0.892-1.401-0.208-2.4-0.48c1.767,4.24-2.308,6.917-3.36,9.6c-0.263,0.67,0.326,1.764,0,2.4
		c-1.044,2.037-2.508,3.625-4.32,4.8c-0.188-2.909,1.579-3.861,3.36-4.8c0-1.12,0-2.24,0-3.36c0.626-2.33,2.788-2.644,3.36-5.28
		C91.107,116.397,88.747,111.983,90.84,108.8z"/>
	<path fill-rule="evenodd" clip-rule="evenodd" d="M231.48,123.2c-1.356,0.396-1.244-0.677-2.4-0.48
		c1.577,2.103,2.968,4.392,7.2,3.84c0.441,2.141,0.827,5.971-0.96,7.2c0-1.92,0-3.84,0-5.76c-3.083,0.107-7.466-1.518-7.2-6.24
		c0.96,0,1.92,0,2.88,0c0-1.28,0-2.56,0-3.84c-4.068-0.731-5.609-3.991-6.72-7.68c3.353,1.287,2.856,6.424,7.68,6.24
		C233.016,118.262,232.363,121.825,231.48,123.2z"/>
	<path fill-rule="evenodd" clip-rule="evenodd" d="M143.16,111.68c0.775-0.135,0.826,0.454,1.44,0.48
		c-1.138,3.136-0.677,8.368-0.96,11.52c1.512,0.232,1.086-1.473,2.88-0.96c0,1.12,0,2.24,0,3.36c1.497-0.263,0.736-2.784,1.44-3.84
		c4.697-0.279,2.057,6.138,1.92,9.12c-2.535-0.997,0.976-5.352-0.96-7.2c-1.031,1.049-0.226,3.935-1.44,4.8
		c-1.971-0.109-1.819-2.34-1.92-4.32c-1.107-0.147-0.533,1.387-1.44,1.44C139.922,123.869,143.345,116.818,143.16,111.68z"/>
	<path fill-rule="evenodd" clip-rule="evenodd" d="M260.76,113.6c-0.219,2.021-3.125,1.355-3.36,3.36
		c0.666,7.55,1.729,12.256,1.92,19.68c-1.479,2.507-4.433,3.875-5.28,7.2c-0.97,3.807,1.026,8.26-0.48,12.48
		c0.09,2.01-2.283,1.557-3.36,2.4c-1.731,1.149-1.497,4.264-3.84,4.8c0.114-4.526,3.443-5.837,6.24-7.68
		c0.835-4.227-0.71-8.386,0-12c0.792-4.03,4.38-5.729,5.76-8.64c-0.862-6.462-2.637-14.153-1.44-21.12
		C257.618,113.338,259.377,113.657,260.76,113.6z"/>
	<path fill-rule="evenodd" clip-rule="evenodd" d="M250.2,116c0.775-0.135,0.826,0.454,1.44,0.48
		c-1.918,3.102-0.792,6.843-1.92,10.56c-0.461,1.521-2.014,2.604-2.4,4.32c-1.511,6.724,2.197,14.908-2.88,18.24
		c-1.397,4.043,1.25,12.13-2.88,13.44c1.194-3.368,0.925-6.306,0.96-10.08c0.039-4.196,3.25-5.866,3.84-9.12
		c0.816-4.505-0.974-9.467,0-13.92c0.306-1.397,1.569-2.272,1.92-3.36C249.449,122.938,248.926,119.657,250.2,116z"/>
	<path fill-rule="evenodd" clip-rule="evenodd" d="M167.64,140.96c-1.946,0.186-0.529-2.991-0.96-4.32
		c-0.61-1.951-2.284-2.836-3.84-3.84c-1.019-5.541-1.274-11.846-4.8-14.88c-1.517-0.237-0.178,2.382-1.92,1.92
		c-1.591-2.89,0.92-3.308,1.92-3.36c2.054-0.106,2.352,2.006,3.36,4.8c0.247,0.683,1.229,1.54,1.44,2.399
		c0.493,2.005-0.119,4.634,0.48,6.24C164.373,132.742,169.828,135.524,167.64,140.96z"/>
	<path fill-rule="evenodd" clip-rule="evenodd" d="M165.72,116.96c0.48,0,0.96,0,1.44,0c-0.541,2.621,0.792,3.369,1.92,4.32
		c-0.144,1.818-0.859,3.417,0.96,4.32c0.175,3.055-0.854,4.906-0.48,8.16c-2.503,0.059-0.611-4.957-0.48-6.72
		c0.147-1.107-1.387-0.533-1.44-1.44C168.719,121.001,164.85,121.35,165.72,116.96z"/>
	<path fill-rule="evenodd" clip-rule="evenodd" d="M124.92,118.4c0.138,2.538-2.261,2.539-2.88,4.32
		c0.354,1.747-0.514,2.966-0.48,4.32c0.121,4.767,3.922,8.406,4.32,12.96c0.449,5.136-0.437,9.904,0.96,15.36
		c-1.117-0.043-2.183-4.219-2.4-6.24c-0.592-5.507,1.538-12.556-2.88-14.88C120.5,127.776,118.674,120.449,124.92,118.4z"/>
	<path fill-rule="evenodd" clip-rule="evenodd" d="M193.56,120.8c0.502,1.098-0.433,4.168-0.96,5.76
		c-2.23-0.098-0.184-2.646-0.48-3.84c-2.817,1.664-1.652,7.309-2.4,11.04c-6.76,3.235-0.797,11.364-2.4,16.8
		c-1.797-0.806-0.679-2.638-0.96-4.32c-0.807-4.835-2.508-11.425,2.4-14.4C188.387,126.187,188.646,121.166,193.56,120.8z"/>
	<path fill-rule="evenodd" clip-rule="evenodd" d="M154.2,124.16c1.483,1.077,2.397,2.723,3.36,4.32
		c0.078,12.437-3.419,22.903-2.4,33.6c-1.878-1.192-0.835-4.097-0.96-5.76c-0.186-2.476-0.509-5.731,0-9.12
		c0.311-2.069,1.605-4.153,1.92-6.24c0.57-3.785-0.771-7.725,0.48-11.52C156.146,127.333,153.325,127.595,154.2,124.16z"/>
	<path fill-rule="evenodd" clip-rule="evenodd" d="M227.64,127.52c-2.505,10.621-1.727,18.397-1.44,30.24
		c-1.927-0.542-0.722-3.352-0.96-4.8c-0.375-2.274-1.088-4.546-1.92-5.76c1.88-6.08,1.121-12.214,2.88-18.72
		c-0.202-1.078-2.547-0.013-2.88-0.96C223.672,125.767,227.104,126.572,227.64,127.52z"/>
	<path fill-rule="evenodd" clip-rule="evenodd" d="M243.96,126.56c-0.13,3.87,0.67,8.67-1.44,10.56
		c0.362,4.248,0.26,13.919-3.36,9.6c-0.146-1.959,1.002-0.256,1.92-0.479c-0.217-7.004,1.602-11.341,1.92-18.72
		c-2.807,4.073-4.87,8.89-5.76,14.88c-1.106-1.294-0.171-4.629-0.48-6.72C240.27,133.75,238.16,126.2,243.96,126.56z"/>
	<path fill-rule="evenodd" clip-rule="evenodd" d="M219,128.48c2.098,3.237-2.98,12.04,0.96,15.84c0.146,4.306-0.076,8.245-0.48,12
		c-1.871-1.715-0.919-8.046-0.48-10.56C216.466,140.899,217.085,133.333,219,128.48z"/>
	<path fill-rule="evenodd" clip-rule="evenodd" d="M135.48,129.44c0.775-0.135,0.826,0.454,1.44,0.48
		c-1.113,6.622,0.841,13.29-1.92,18.72c0.53,3.237,0.057,6.152,0.48,8.64c0.378,2.226,2.173,3.856,1.44,5.76
		C130.742,156.113,136.496,140.185,135.48,129.44z"/>
	<path fill-rule="evenodd" clip-rule="evenodd" d="M115.32,129.92c1.125,0.69,1.021,3.343,0.96,5.28
		c-0.05,1.579-0.712,3.23-0.48,4.8C113.581,139.136,115.277,133.388,115.32,129.92z"/>
	<path fill-rule="evenodd" clip-rule="evenodd" d="M43.8,132.32c-0.683,3.157-3.595,4.085-5.76,5.76
		c-0.334,4.814,0.285,8.675,2.4,11.04c-0.846,3.812,2.949,5.023,0.96,7.2c-2.439-5.241-4.917-10.443-4.8-18.24
		C38.814,135.974,40.643,133.482,43.8,132.32z"/>
	<path fill-rule="evenodd" clip-rule="evenodd" d="M85.08,135.68c1.99-0.55,1.87,1.01,3.36,0.96c-0.397,3.277,0.372,5.388,1.44,7.2
		c-2.997,0.438-2.372-2.748-2.4-5.28C86.761,137.52,85.078,137.442,85.08,135.68z"/>
	<path fill-rule="evenodd" clip-rule="evenodd" d="M117.24,136.16c2.934,1.786,0.466,8.972,0.96,13.92
		c0.586,0.693,1.832,0.728,2.4,1.44c-0.664,5.67,4.396,8.02,2.88,12.96c-2.743-1.097-0.632-7.048-3.84-7.68c0-1.28,0-2.56,0-3.84
		c-0.049-1.231-1.789-0.771-2.4-1.44C117.082,145.504,117.788,141.575,117.24,136.16z"/>
	<path fill-rule="evenodd" clip-rule="evenodd" d="M94.68,136.64c1.021,1.077,0.342,3.163-0.96,3.36
		c-2.124-1.627-0.381,0.463-2.88,0.48C90.941,138.021,92.221,136.741,94.68,136.64z"/>
	<path fill-rule="evenodd" clip-rule="evenodd" d="M159.96,136.64c2.963,1.067,0.796,8.056,0.48,11.52
		c-0.74,1.021-1.732,1.787-2.4,2.88c-0.146,2.226,0.004,4.155,0.96,5.28c-0.956,1.444-1.152,3.648-3.36,3.84
		c2.169-2.993,0.35-6.093,0.96-9.12c0.354-1.759,1.663-1.745,2.4-3.36C160.46,144.483,159.646,140.925,159.96,136.64z"/>
	<path fill-rule="evenodd" clip-rule="evenodd" d="M108.6,140.48c2.56,0.96,0.659,6.381,1.92,8.64
		c2.804,0.084,2.045-3.395,2.88-5.28c3.462,5.059-4.287,6.799-2.4,13.44c-1.96-1.235-0.749-3.997-0.96-5.76
		C109.612,147.944,108.136,144.387,108.6,140.48z"/>
	<path fill-rule="evenodd" clip-rule="evenodd" d="M160.92,146.24c2.884,1.727,0.343,8.227,0.96,10.56
		c-1.847-1.035-0.905-3.381-0.96-5.28C160.876,149.992,160.939,148.031,160.92,146.24z"/>
	<path fill-rule="evenodd" clip-rule="evenodd" d="M491.64,344.48c3.332,3.299,2.136,8.076,3.36,12.479
		c0.606,2.181,2.851,3.931,3.84,6.24c0.343,0.8,0.087,2.394,0.48,3.359c0.847,2.08,1.86,2.89,1.439,5.761
		c0.36,2.532,3.521,4.088,4.8,6.72c0.77,1.581,0.52,3.807,1.44,5.76c1.341,2.843,4.177,5.091,4.8,9.12
		c0.589,3.802-0.279,7.187,0.48,10.561c0.749,3.327,3.404,6,2.399,9.6c0.316,1.604,1.493,2.348,1.92,3.84
		c-0.763,2.835,0.146,4.361,0,7.68c2.543,2.738,2.853,7.708,5.28,10.561c-0.352,3.071,0.447,4.992,1.44,6.72
		c-0.938,1.436-0.266,2.887-0.48,4.32c-0.866,5.772-3.626,12.802-5.28,19.2c-0.561,2.168-0.335,4.339-0.96,6.239
		c-0.76,2.314-2.494,3.998-2.88,6.24c-0.437,2.546,0.63,4.977,0,7.2c-1.378,4.869-8.727,7.11-13.439,7.68
		c-1.872,2.608-4.942,4.019-7.2,6.24c-6.852,1.385-10.917,0.147-17.28-0.96c-1.952-1.728-3.927-3.433-7.2-3.84
		c-4.592-4.367-8.016-9.904-11.04-15.84c-2.317-0.723-4.519-1.562-6.239-2.88c-1.229-2.932-1.347-6.975-3.84-8.641
		c-0.021-1.58-0.811-2.39-0.48-4.32c-1.584-2.206-4.467-1.656-7.2-2.399c-3.379-0.918-6.212-2.249-11.52-1.44
		c-4.773,0.728-10.116,2.147-13.44,3.84c-5.168-0.304-8.734,1.168-12.479,2.4c-1.899,0.625-4.038,0.25-5.28,1.92
		c-5.918,0.41-12.52-0.855-18.72-0.479c-3.945,0.238-9.8,2.012-15.36,1.92c-3.456-0.058-7.097-0.467-10.08-2.4
		c-6.642,0.838-13.302,3.814-19.68,3.36c-4.782,1.298-8.833,3.327-13.44,4.8c-1.095-0.813-2.514-0.729-3.359-0.96
		c-1.28-0.35-2.752-0.083-3.841-1.44c-3.07,2.21-7.864,2.695-10.08,5.761c-4.09-1.511-5.318,2.647-10.56,1.439
		c-1.671,2.169-1.584,6.096-2.88,8.641c-3.082,2.785-10.632,5.953-14.88,1.92c-3.328,0.533-4.919,6.51-11.04,5.279
		c-1.925-0.387-1.902-0.889-3.36-2.399c-3.895,0.504-8.007-1.981-9.6-5.28c-3.648,0.607-4.895-1.186-6.72-2.4
		c-7.045-1.8-13.574,0.066-19.68-1.439c-2.42,1.9-5.914,1.196-9.12,1.92c-1.953,0.44-3.682,1.635-5.76,1.92
		c-4.485,0.615-8.693-0.64-12.96-0.48c-1.791,0.29-2.354,1.806-4.32,1.921c-4.185,0.331-9.76-0.403-14.88,0.479
		c-2.872,0.495-4.667,2.523-6.72,2.88c-1.531,0.266-3.06-0.482-4.8-0.479c-4.313,0.007-9.221,1.508-13.44,1.439
		c-3.562-0.057-6.573-1.633-10.08-1.92c-2.973-0.243-6.751,0.96-10.56,0.96c-4.348,0-8.751-0.981-12.48-0.479
		c-4.994,0.672-9.217,3.367-13.44,3.84c-7.507,0.84-16.189-1.076-22.56-1.92c-3.388-0.449-7.248,0.238-10.56-0.48
		c-6.252-1.354-13.161-6.384-17.76-10.08c-5.511,0.67-9.188-3.356-13.92-3.84c-3.532-0.36-7.186,1.503-11.52,0
		c-3.029-3.211-7.171-5.309-8.16-10.56c2.443-4.118,6.955-6.166,8.64-11.04c5.115-1.445,8.622-4.498,12.48-7.2
		c7.562-2.167,16.423-5.181,23.52-7.2c2.395-0.682,4.816-0.646,8.64-0.96c4.647-0.381,9.353-2.123,14.4-2.88
		c4.715-0.707,9.937-0.504,14.4-1.44c4.652-0.976,8.427-4.211,12.96-5.76c2.05-0.7,4.846-1.272,7.2-1.92
		c2.283-0.627,5.224-1.65,7.2-1.92c2.073-0.282,4.247,0.395,6.24,0c1.921-0.38,3.348-1.788,5.28-2.4
		c4.198-1.33,8.964-1.058,13.44-1.92c8.069-1.553,13.107-7.701,18.72-11.52c5.454,0.21,9.336-3.779,13.92-5.28
		c4.12-1.349,10.42-1.849,15.36-1.439c2.391,0.197,4.561,1.619,7.2,1.439c2.466-0.168,4.371-1.901,6.72-2.399
		c1.427-0.304,3.104,0.266,4.8,0c2.004-0.315,3.798-2.161,6.24-2.4c1.453-0.143,3.062,0.152,4.8,0
		c5.173-0.453,10.517-3.211,13.44-3.36c3.31-0.168,6.523,1.629,9.6,1.44c4.57-0.281,8.319-2.706,12-4.8
		c1.73-0.985,4.078-1.658,5.28-2.4c2.001-1.235,3.193-3.631,4.8-3.84c2.819-0.367,5.288,3.045,7.68,2.4
		c2.106,0.134,1.609,2.87,3.36,3.359c7.301-0.732,14.783-0.906,20.16-3.84c1.117-0.609,1.732-1.862,2.88-2.4
		c0.65-0.305,1.706,0.209,2.399,0c0.896-0.269,2.764-1.809,4.32-1.92c1.963-0.14,4.467,1.417,7.2,1.44
		c1.21,0.011,2.663-0.563,3.84-0.48c7.625,0.538,15.01,2.102,19.68-2.88c4.29,0.447,8.264-2.006,12.48-2.399
		c2.354-0.22,4.632,0.563,7.2,0.479c0.691-0.022,1.443-0.848,2.399-0.96c0.961-0.112,1.801,0.589,2.4,0.48
		c3.973-0.724,8.12-2.846,12-3.36c1.886-0.25,4.197,0.082,6.24,0c2.231-0.09,4.862-0.615,6.72-0.48
		c1.635,0.119,3.256,1.261,4.8,1.44c2.268,0.265,5.728-0.412,8.641-0.479c2.962-0.069,6.183,0.333,8.64,0
		c1.277-0.174,2.418-1.211,3.84-1.44c1.361-0.22,3.111,0.236,4.32,0c1.398-0.274,2.81-1.367,4.319-1.44
		c4.032-0.195,10.169,2.357,15.36,0c2.154-3.049,0.043-6.348,0-9.6c-0.039-2.918,1.461-5.351,1.92-8.16
		c0.508-3.108-0.404-5.885,0.96-8.64c1.154-1.097,2.903-0.082,3.84,0.479c1.017-2.503,3.846-3.194,4.801-5.76
		C471.135,345.27,482.76,339.906,491.64,344.48z M462.36,485.6c2.445,0.425,2.631,3.545,4.8,5.761
		c1.495,1.527,4.201,2.675,6.24,3.84c3.248,1.855,8.506,3.814,12.479,3.84c5.959,0.038,13.619-3.553,13.92-9.6
		c0.04-0.808-2.109-1.936-0.479-3.36c-1.197-0.901-2.521-1.951-3.36-3.36c-0.353-0.593,0.278-1.761,0-2.399
		c-0.55-1.263-3.28-1.216-1.92-2.88c1.412-1.469,3.304-2.456,5.28-3.36c0.91-3.434,0.984-7.498,0.96-11.04
		c-2.847-1.08-5.885-4.218-8.16-5.28c-1.427-0.666-3.135-0.288-4.32-0.96c-4.628-2.622-5.479-8.485,1.44-8.16
		c-0.017-2.062-2.55-1.609-1.92-4.319c0.744-2.296,2.606-3.474,5.279-3.84c1.001,4.301,0.39,7.269,3.36,9.6
		c0.137,3.017,0.063,5.823-0.96,7.68c1.748,2.409,4.703,1.527,6.24,3.36c2.652,3.162-0.191,8.152,0,13.439
		c-1.362,1.679-4.011,2.07-5.28,3.841c2.32,1.68,2.218,5.781,4.8,7.199c1.197,0.454-1.291,2.474,0.96,2.4
		c2.054-4.667,3.639-9.801,7.681-12.48c0-1.439,0-2.88,0-4.319c-0.388-1.693-3.113-1.047-2.881-3.36
		c8.534,0.553,3.477,11.058,0.961,12.96c1.206,2.146,2.438,6.781-0.961,7.681c-1.155-1.342,1.997-4.411-0.479-5.761
		c-0.819,1.901-2.125,3.315-1.92,6.24c-0.437,1.323-3.41,0.11-2.88,2.4c4.358,0.833,8.449-2.747,10.56-5.761
		c0.027-0.292,0.072-0.567,0.48-0.479c-1.974-5.907,1.846-10.079,2.88-13.44c0.716-2.328,0.747-5.255,1.439-7.68
		c1.037-3.628,1.707-6.108,2.4-10.08c0.486-2.783,2.21-5.48,2.4-7.68c0.222-2.562-0.407-4.2-0.96-6.721
		c-0.26-1.181-0.202-2.536-0.48-3.359c-0.289-0.854-1.407-1.343-1.92-2.4c-1.743-3.594-1.239-5.922-3.36-7.68
		c0.216-3.488-0.789-5.246,0-8.16c-0.446-1.312-1.473-2.047-1.92-3.36c1.178-4.235-2.64-8.385-2.88-13.439
		c-0.097-2.033,0.767-4.185,0.48-6.24c-0.479-3.439-2.856-6.591-4.801-8.64c0.163-7.586-7.738-9.455-6.239-16.8
		c-2.618-1.596-1.814-5.143-3.36-7.681c-0.672-1.103-1.979-1.629-2.4-2.88c-1.368-4.077,0.108-9.054-2.88-12.479
		c-5.602-4.361-11.824-0.985-18.72,0c-3.792,0.541-7.63-0.366-10.56,1.439c-1.26,1.141-1.546,3.255-3.841,3.36
		c-0.101,1.701,2.252,0.948,1.921,2.88c-0.895,2.258,1.808,5.215-0.48,5.76c-2.021-0.059-0.477-3.684-0.96-5.28
		c-1.157-1.243-3.924-0.876-5.28-1.92c0.93,5.565-1.562,9.236-1.92,13.44c-0.429,5.04,1.907,11.05-0.96,13.439
		c-7.273,2.266-14.276-1.322-20.16,1.44c-8.824,0.457-18.114,2.284-27.359,1.44c-0.948-0.087-2.037-0.843-2.88-0.96
		c-4.531-0.631-9.334-0.173-13.44,0.479c-4.737,0.752-12.313,3.627-17.28,3.84c-5.665,0.243-11.664-1.155-16.319,2.4
		c5.039,1.892,9.212-4.269,13.439-1.44c-3.154,1.806-7.65,2.271-10.56,4.32c-1.218-1.983-5.391-1.01-7.2-2.4
		c-4.079,3.207-13.172,3.731-18.72,1.44c-3.954,1.915-6.511-0.316-11.04-0.48c-2.315,0.083-2.749,2.966-5.28,1.44
		c-5.77,5.398-15.538,6.291-24.96,6.24c-1.728,0.033-1.33,2.189-3.36,1.92c-1.334-1.685,1.855-2.054,1.44-4.32
		c-2.346-1.174-5.581-1.46-7.681-2.88c-2.137,7.508,3.523,8.933,7.2,12.96c2.366,2.591,3.233,5.051,5.28,6.72
		c0.527,3.312,1.805,5.876,2.88,8.641c0.821,1.03,4.218,1.191,2.88,2.88c-5.898-0.182-6.092-6.068-7.2-11.04
		c-2.646-1.206-3.394-4.27-5.279-6.24c-2.54-2.654-6.347-4.317-7.681-8.16c-0.783-0.775,0.429-2.008,0-3.84
		c-5.048,1.434-8.584,5.389-13.439,7.2c-0.699,0.261-1.672-0.18-2.4,0c-1.289,0.318-2.181,1.317-3.36,1.439
		c-3.632,0.379-7.414-1.264-11.52-0.96c-1.312,0.098-2.613,1.117-3.84,1.44c-4.479,1.181-8.645,1.172-13.92,1.92
		c-2.268,0.321-3.9,1.916-6.24,2.4c-1.8,0.372-3.639-0.315-5.28,0c-1.531,0.293-2.642,1.683-3.84,1.92
		c-3.242,0.641-5.345-0.767-9.6-0.96c-4.48-0.204-10.968-0.294-14.88,0.96c-1.961,0.628-3.528,2.574-5.28,3.359
		c-3.137,1.406-5.787,1.435-8.64,2.4c-5.189,3.755-10.425,9.495-18.24,11.04c-5.553,1.098-10.428,0.757-14.88,2.4
		c-1.792,0.661-2.877,2.092-4.8,2.399c-1.403,0.225-2.743-0.585-4.32-0.479c-2.103,0.141-5.259,1.213-7.68,1.92
		c-2.667,0.778-5.205,1.553-7.68,2.399c-4.664,1.597-9.145,4.839-13.92,5.761c-4.557,0.879-9.89,0.746-14.88,1.439
		c-4.747,0.66-9.351,2.443-13.92,2.88c-1.848,0.177-3.834-0.269-5.76,0c-3.634,0.507-7.592,2.482-10.56,3.36
		c-2.524,0.746-5.209,0.773-7.2,1.439c-0.986,0.33-1.84,1.567-2.88,1.92c-5.648,1.916-9.456,3.501-12.96,6.721
		c-1.764,0.155-2.656,1.184-4.32,1.439c-1.344,4.736-5.726,6.435-7.68,10.561c2.004,2.467,4.67,7.136,7.68,8.16
		c2.991,1.018,6.506-0.806,10.08-0.48c5.193,0.474,8.298,4.893,12.48,3.36c-3.151-1.777,0.63-5.624-1.44-7.681
		c2.099-2.39,5.714-1.407,8.64-2.399c2.599-0.882,5.1-4.604,8.16-2.4c-4.045,2.515-8.573,4.548-14.4,5.28
		c-0.278,3.77-0.665,6.227,1.44,8.64c2.9,3.324,12.58,8.189,16.32,9.12c4.405,1.096,9.127,0.465,13.44,0.96
		c7.517,0.862,13.817,2.283,20.64,1.44c4.241-0.524,8.417-3.186,13.44-3.84c8.485-1.106,16.992,1.617,24.48,0
		c7.076,3.969,18.587-1.362,25.44,0.96c5.03-3.895,15.05-3.834,22.56-3.841c1.703-0.216,2.22-1.619,3.84-1.92
		c4.838-0.17,9.659,1.215,14.88,0.48c1.167-0.164,2.175-1.142,3.36-1.44c10.877-2.741,24.654-2.683,33.6,0.96
		c-0.552-0.604-2.196-2.553-0.96-3.359c2.062-0.143,1.562,2.277,2.88,2.88c4.372-1.286,8.974,0.803,8.16,4.32
		c-2.653-0.227-1.9-3.86-5.76-2.881c0.877,3.442,3.998,4.643,7.68,5.28c2.347-3.31,0.66-5.863-1.44-8.16
		c-3.216,0.073-9.009,0.51-7.68-2.399c1.565,0.015,6.063,0.874,9.6,0.479c0.63-2.25,0.653-5.106,2.4-6.24
		c3.974,1.146,6.26,3.98,10.56,4.801c1.617-0.783,2.049-2.752,4.32-2.88c5.918,1.51,8.239-4.062,11.52-6.721
		c1.423-0.656,2.09,0.281,4.32,0c1.818-0.841,3.343-3.1,5.76-3.84c3.443-1.054,9.733,0.021,15.36-0.96
		c8.644-1.507,21.552-3.165,28.8-2.4c1.243,0.132,4.401-1.064,4.8,1.44c-7.608-0.651-16.849,0.957-25.439,1.44
		c-4.249,0.238-6.46,1.06-9.12,1.439c-5.115,0.73-10.847-0.591-14.88,0.96c-1.96,0.754-1.97,2.971-4.32,3.36c-1.28,0-2.56,0-3.84,0
		c-4.087,2.952-5.777,8.303-13.92,7.2c-0.811,2.709-2.297,4.742-3.84,6.72c2.046,2.836,5.263,4.982,9.6,4.32
		c2.211-0.338,3.142-2.555,5.28-2.4c1.543-2.937,1.229-7.73,3.84-9.6c0.481,0.074,0.571-0.48,0.96-0.48
		c8.76-0.006,13.478-4.592,20.64-6.72c3.069,1.219,5.213,0.761,8.641,1.92c2.876-2.564,8.029-2.851,11.52-4.8
		c6.166,1.284,13.26-3.414,20.16-2.88c3.441,0.266,6.609,2.415,10.08,2.399c1.305-0.006,2.614-0.811,3.84-0.96
		c3.878-0.471,7.771-0.677,10.08-0.96c4.813-0.59,10.126,0.184,14.88,0c3.323-0.128,5.14-0.874,7.2-1.439
		c2.779-0.764,5.895-1.851,8.64-2.4c2.203-0.441,4.484,0.006,6.721-0.48c0.997-0.216,1.775-1.114,2.88-1.439
		c1.65-0.487,3.554-0.096,5.279-0.48c4.056-0.903,9.477-2.532,14.881-1.92c1.443,0.316,1.675,1.845,3.84,1.44
		c1.06-0.7,0.95-2.57,2.399-2.88c4.452,0.612,4.216-3.465,7.681-3.84c0.441,1.798,1.956,2.523,2.399,4.319
		c-4.961,1.002-1.669,8.789-1.439,10.561c-4.336-0.544-3.35-9.969-1.44-12.48c-2.021,0.218-2.21,2.271-3.84,2.88
		c-1.535,0.065-3.673-0.473-3.36,1.44c1.57,1.629,4.304,2.097,5.28,4.319c0,0.961,0,1.921,0,2.881
		c2.265,1.734,2.899,5.101,3.36,8.64C456.736,477.464,461.84,479.24,462.36,485.6z M488.76,444.32
		c0.249,2.312,3.415,1.705,2.4,5.279c-1.745,0.976-5.224,0.217-5.28,2.881c1.434,2.405,4.472,3.208,7.68,3.84
		c3.553-5.555-3.466-6.908-1.92-13.44C489.783,442.463,489.933,444.053,488.76,444.32z M260.28,484.16
		c1.446,0.953,2.482,2.317,3.36,3.84c-1.582,0.659-1.94,2.54-2.4,4.32c4.139,3.964,9.266-0.925,11.04-3.84
		c-2.865-1.818-0.734-5.38,0.96-6.721c-4.961,0.001-7.098-2.822-10.56-4.319C262.069,479.869,261.535,482.375,260.28,484.16z"/>
	<path fill-rule="evenodd" clip-rule="evenodd" d="M465.72,347.36c0.641,0,1.28,0,1.92,0c0.683,2.132,0.033,3.734,2.4,3.359
		c0.279,1.72-1.421,1.46-2.88,1.44C466.764,350.476,465.889,349.271,465.72,347.36z"/>
	<path fill-rule="evenodd" clip-rule="evenodd" d="M475.32,356c1.387,1.443-1.146,1.676-0.48,3.84
		C472.361,360.049,473.219,355.479,475.32,356z"/>
	<path fill-rule="evenodd" clip-rule="evenodd" d="M476.28,364.16c1.899,1.548,3.46,5.7,2.88,8.16
		C477.1,370.795,475.203,367.311,476.28,364.16z"/>
	<path fill-rule="evenodd" clip-rule="evenodd" d="M467.16,368.48c0.295,2.146-3.015,2.395-4.32,1.439
		C463.252,368.48,466.036,367.707,467.16,368.48z"/>
	<path fill-rule="evenodd" clip-rule="evenodd" d="M477.24,374.24c0.775-0.136,0.826,0.453,1.439,0.479
		c0.071,1.19,0.09,2.329-0.96,2.4c2.469,1.537,3.089,7.464,2.4,10.56c-3.217-1.583-0.646-8.953-4.32-10.08
		C476.445,376.645,476.715,375.314,477.24,374.24z"/>
	<path fill-rule="evenodd" clip-rule="evenodd" d="M461.4,376.64c0.479,0,0.96,0,1.439,0c-0.568,4.409,1.293,6.388,1.92,9.601
		c1.354-0.565-0.536-4.377,1.44-4.32c2.021,0.059,0.477,3.684,0.96,5.28c-1.038,0.401-1.638,1.242-3.36,0.96
		C461.912,385.574,460.858,380.113,461.4,376.64z"/>
	<path fill-rule="evenodd" clip-rule="evenodd" d="M453.72,380.48c0.48,0,0.96,0,1.44,0c0,1.279,0,2.56,0,3.84
		C452.456,384.928,453.233,381.769,453.72,380.48z"/>
	<path fill-rule="evenodd" clip-rule="evenodd" d="M453.72,396.8c-7.365-0.154-8.239-6.8-9.12-13.439
		c-4.071,0.893-3.881,5.438-5.76,8.159c-2.081,3.016-5.337,3.057-8.16,5.28c0.013,2.093,0.286,4.446-0.96,5.28
		c-4.259-0.183-6.539-0.083-9.6-1.92c-1.309,0.441,0.671,1.5,0,2.88c-1.896,0.615-1.161-1.398-2.4-1.44
		c-1.614,1.036,0.631,2.205,0.48,3.36c1.38-1.926,6.187-1.832,6.24,1.44c-2.676-0.657-3.886-1.197-5.761,0.479
		c-1.934-0.626-2.706-2.414-5.279-2.399c-1.901,1.423,2.328,2.363,0.479,3.84c-2.808-0.455-3.722-4.006-1.439-5.761
		c1.112-0.152,1.843,0.077,2.399,0.48c0.694-1.546,1.121-3.358,3.36-3.36c-1.637-2.203-4.133-3.547-6.72-4.8
		c1.961-3.503,6.043,1.892,7.68,3.36c2.306-0.227,3.972,0.188,4.32,1.92c1.76,0,3.52,0,5.279,0c0.579-1.461,0.24-1.932,0.48-4.32
		c2.333-2.146,6.021-2.938,8.16-5.28c1.045-4.714,3.319-8.2,8.159-9.119c2.202,5.158,0.839,13.882,8.641,13.439
		c1.585,2.255,2.838,4.842,4.8,6.72c-0.397,5.747,0.656,8.875,0,14.881c-4.559,1.246-6.578,12.356-0.48,13.439
		c2.847,4.704,3.482,11.264,3.36,17.76c-4.591,1.511-5.75-4.024-10.56-3.84c-0.205-0.915-1.372-0.868-0.96-2.399
		c-1.148-0.293-3.483,0.603-3.841-0.48c-0.32-2.081,2.229-1.292,3.841-1.44c2.621,2.818,6.535,4.346,9.6,6.721
		c0.291-5.731-0.462-10.419-2.4-13.92c-1.745-1.945-4.425-3.363-4.8-6.721c-0.437-3.907,1.773-8.271,4.32-10.08
		c1.111-4.067-0.794-8.18,0.479-12C456.442,401.117,454.599,399.441,453.72,396.8z"/>
	<path fill-rule="evenodd" clip-rule="evenodd" d="M415.32,387.2c1.369-0.613,2.512-3.259,4.319-1.92
		c-0.757,2.282-2.458,3.622-5.76,3.359c-0.134-3.446-9.045-4.863-10.08-1.439c-1.929,0.203-0.798-3.261,0-3.36
		c3.136-1.104,7.595,0.323,10.561,0.96C414.85,385.431,414.83,386.569,415.32,387.2z"/>
	<path fill-rule="evenodd" clip-rule="evenodd" d="M397.56,383.84c0.641,0,1.28,0,1.921,0c1.167,4.707-0.908,9.744-6.24,7.68
		c-2.357,3.008-10.64,0.416-7.2-3.359c1.638,0.282,0.781,3.059,2.88,2.88c2.844-0.286,4.45-2.401,7.68-0.96
		C398.576,388.757,397.636,386.401,397.56,383.84z"/>
	<path fill-rule="evenodd" clip-rule="evenodd" d="M426.84,384.8c-0.407,1.033-1.182,1.698-2.88,1.44
		c-0.358,3.584,1.69,7.021-1.92,7.68c0.987-3.219-0.779-6.443,0.96-9.12C423.698,384.095,426.142,384.095,426.84,384.8z"/>
	<path fill-rule="evenodd" clip-rule="evenodd" d="M497.4,385.28c-0.131,1.63,0.371,3.892-0.48,4.8
		c-1.913,0.313-1.375-1.825-1.439-3.36c-4.634,0.967-4.095,7.106-10.08,6.721c0.09,1.349,1.565,1.313,1.92,2.399
		c2.022-2.087,7.142-5.281,11.04-2.399c0.906-0.054,0.333-1.587,1.439-1.44c2.678,0.683,5.272,1.448,6.72,3.36
		c0.116,3.156-0.845,5.234-0.479,8.64c-0.754,0.206-0.41,1.51-1.92,0.96c-0.123,1.883,1.736,1.784,1.439,3.84
		c-2.051,0.765-3.475-2.804-3.359-5.76c0.64,0,1.28,0,1.92,0c-0.362-2.922,0.767-4.353,0.479-7.2
		c-0.961-0.959-2.995-0.844-3.84-1.92c-1.396,1.777,0.365,5.973-0.479,7.2c-2.821-0.539-2.535-4.185-3.36-6.72
		c-5.152-0.992-6.352,1.968-9.12,3.359c-2.047-1.153-4.616-1.783-3.84-5.76C490.698,393.152,489.88,383.003,497.4,385.28z"/>
	<path fill-rule="evenodd" clip-rule="evenodd" d="M410.04,389.12c0.479,0,0.96,0,1.44,0c0.418,2.339-0.657,3.184-0.961,4.8
		c-2.516,0.044-3.866,1.254-4.319,3.36c-1.127,0.153-1.802,0.758-3.36,0.479c-0.076,1.235-2.705,2.693-3.84,4.32
		c-2.659-1.826-3.232,0.334-5.76,0.96c0.433,3.666,4.298,0.951,6.24,2.88c1.049-1.19,1.476-3.004,3.359-3.36
		c2.089-0.008,2.676,1.484,5.28,0.96c0.95-3.35-1.835-2.965-1.92-5.279c1.667-0.926,3.568,1.136,4.8,0.96
		c-0.181,0.962-1.072,4.875-2.4,6.24c-2.279,0.199-3.927-0.233-5.279-0.96c-1.688,0.552-1.758,2.722-3.36,3.359
		c-1.78-0.3-2.811-1.35-4.32-1.92c0.747,2.133,1.169,4.592,3.841,4.8c0,1.761,0,3.521,0,5.28c0.386,1.533,2.468,1.372,3.359,2.4
		c-0.592,2.716,0.111,4.776,1.44,6.72c1.939-1.429,3.12,0.846,4.8,0.479c3.648-0.795,4.055-4.367,2.88-8.64
		c3.462,0.648,6.893-1.25,3.84-4.8c1.125-0.955,0.541-3.619,2.4-3.84c1.122,2.582-0.346,4.801,0.479,7.68
		c0.522,0.178,4.501-0.281,5.28-1.44c-0.938-0.662-2.528-0.672-2.88-1.92c0.612-2.428,0.939-5.14,3.36-5.76
		c3.043-0.646,2.415,3.3,4.8,1.92c1.069-0.49-0.628-2.207,0-3.84c1.109-0.65,1.59-1.93,3.84-1.44
		c-0.615,2.105-2.872,2.568-1.92,6.24c-1.191,1.138-5.957,1.931-5.76-0.96c-1.65,0.11-2.092,1.429-2.4,2.88
		c0.07,1.071,1.209-0.623,2.4,0c1.295,2.497-0.698,4.347-1.44,6.24c-1.515,0.235-1.695-0.865-3.36-0.479
		c-1.867,0.531-1.161,3.639-1.92,5.279c-1.003,0.276-1.37,1.19-2.88,0.96c-1.297,8.619,9.375,4.668,8.641-0.96
		c1.519-0.659,1.604-0.104,3.359,0c5.296-2.265-0.473-15.938,8.16-13.92c0.969-2.711,2.692-4.667,3.36-7.68
		c3.478-0.124,4.923-4.565,8.16-3.36c-1.372,2.148-3.538,3.503-6.24,4.32c-1.479,2.521-2.672,5.328-3.84,8.16c-1.12,0-2.24,0-3.36,0
		c-2.185,1.527-2.012,5.637-1.44,8.64c-0.663,2.217-2.491,3.269-3.359,5.28c-0.96,0-1.92,0-2.88,0c-1.436,3.045-3,5.96-7.2,6.24
		c0.312,1.751-0.323,2.557-0.96,3.359c-1.184,0.063-2.313,0.073-2.88-0.479c-1.06,0.381-0.624,2.256-1.92,2.399
		c0.132,0.988,1.788,0.452,1.92,1.44c3.406-1.755,7.603-1.584,11.04,0c0.297-3.862,3.981-4.338,7.199-5.28
		c0.427,1.014,1.462,1.419,1.44,2.88c-2.202-0.77-3.093,0.134-5.76,0c-0.691,1.229-0.455,3.386-1.44,4.32
		c-4.069,0.173-6.388-2.679-10.56-0.96c3.354,3.432,11.711,1.964,16.319,2.88c1.602,0.001,1.639-1.562,3.36-1.44
		c1.722-0.121,1.759,1.441,3.36,1.44c3.586-0.733,2.829-5.811,4.8-8.16c2.274,0.354,3.3-0.54,5.28-0.479
		c1.485,1.074,1.559,3.561,1.92,5.76c-3.353,0.262-1.455-2.321-2.4-3.84c-1.78-0.34-2.06,0.82-3.84,0.479
		c-1.311,3.382-2.184,9.587-7.2,7.681c-2.703,5.456-7.592,8.728-13.439,11.04c-2.007-0.234-2.871-1.609-4.801-1.921
		c0.249-2.932,4.053-0.895,4.801,0c1.689-0.869,2.985-2.134,5.279-2.399c0.651-0.148,0.398-1.202,0.48-1.92
		c3.636-0.204,4.361-3.319,5.76-5.76c-4.865,3.036-10.83-0.205-16.8,0.479c-2.286-1.714-6.523-1.477-9.12-2.88
		c-0.483-1.444,1.069-0.851,1.92-0.96c-0.299-1.302-2.005-1.194-1.92-2.88c1.912,0.151,1.3-2.221,2.88-2.4
		c-0.173-1.81-3.007-2.763-1.439-4.8c2.205,0.675,1.885,3.875,4.8,3.84c-0.934-2.747-3.792-3.567-3.36-7.68
		c-1.049,1.19-2.169,2.311-3.36,3.359c-3.016-0.256-4.881-1.154-7.199-0.96c-1.113-1.927-2.986-3.093-2.4-6.72
		c-0.658-1.102-1.977-1.543-2.88-2.399c-0.051-1.649,0.083-3.364-0.48-4.801c-0.293-0.749-1.523-0.863-1.92-1.439
		c-1.637-2.381-1.758-6.401-4.8-7.2c-3.238-0.679-3.894,1.226-6.24,1.44c-0.459-3.35,4.415-3.894,6.721-2.881
		c1.496-1.223,3.443-1.995,4.8-3.359c1.094-0.135,1.805,0.115,1.92,0.96c1.354-0.087,0.599-2.281,2.4-1.92
		c0.314-1.782-2.106-3.298-0.48-4.8c1.665,0.574,1.194,3.285,4.32,2.399c1.497-0.263,0.736-2.783,1.439-3.84
		c1.467-0.347,1.749,0.491,2.88,0.48C409.333,391.612,410.33,391.01,410.04,389.12z M414.36,418.88
		c0.292,1.147-0.603,3.482,0.479,3.84c0.408-0.712,1.208-1.032,2.4-0.96c-0.628-1.633,1.069-3.35,0-3.84
		C416.799,418.758,415.739,418.979,414.36,418.88z"/>
	<path fill-rule="evenodd" clip-rule="evenodd" d="M428.76,390.56c0.482,1.603-0.666,1.574-1.92,1.44
		c-0.354,2.274,0.54,3.3,0.48,5.28C423.514,397.379,424.095,387.138,428.76,390.56z"/>
	<path fill-rule="evenodd" clip-rule="evenodd" d="M381.72,392c0.48,0,0.96,0,1.44,0c0.652,1.689-0.27,6.272,2.399,7.2
		c2.02-0.335-0.458-2.186,1.44-2.4c2.509,0.356,0.836,3.292,0,4.32c-2.435,0.194-3.342-1.139-4.8-1.92
		C382.349,396.491,381.349,394.932,381.72,392z"/>
	<path fill-rule="evenodd" clip-rule="evenodd" d="M339.48,393.92c-0.729,1.352-3.111,1.049-3.841,2.4
		c0.042,1.238,2.056,0.505,1.44,2.399c-2.072,0.312-2.69-0.829-3.84-1.439C334.136,395.093,337.052,391.593,339.48,393.92z"/>
	<path fill-rule="evenodd" clip-rule="evenodd" d="M473.88,392.96c0.558-0.078,0.854,0.105,0.96,0.48
		c-0.467,2.093-1.664,3.456-2.399,5.279c1.601,1.119,2.823,2.616,4.319,3.84c2.427,0.507,2.746-1.094,4.8-0.96
		c1.127,0.794,1.04,2.801,0.96,4.801c-2.011,0.411-1.051-2.149-1.92-2.881c-4.529,3.239-6.922-2.218-10.08-3.359
		C470.979,397.099,472.195,394.795,473.88,392.96z"/>
	<path fill-rule="evenodd" clip-rule="evenodd" d="M447,393.92c-0.132,1.948-2.18,1.98-2.88,3.36c-5.726-1.335-7.275,0.102-12,1.439
		c0.006-3.354,4.363-2.356,5.76-4.319c1.412,0.508,3.18,0.66,4.32,1.439C443.893,395.414,444.6,392.115,447,393.92z"/>
	<path fill-rule="evenodd" clip-rule="evenodd" d="M328.92,397.28c0.021,3.019,3.058,3.022,2.88,6.239
		c-1.87-1.329-4.575-1.824-4.319-5.279c-2.839,0.599-3.432-1.05-4.801-1.92c-1.921-0.196-2.853,2.187-4.319,0.96
		C320.788,391.681,325.688,396.62,328.92,397.28z"/>
	<path fill-rule="evenodd" clip-rule="evenodd" d="M423,394.4c0.48,0,0.96,0,1.44,0c0.552,0.566,0.543,1.696,0.479,2.88
		c-0.98,0.345-1.899,1.505-2.88,0.479C422.792,396.185,422.753,395.644,423,394.4z"/>
	<path fill-rule="evenodd" clip-rule="evenodd" d="M349.56,394.88c-0.004,4.165,4.001,4.32,5.28,7.2
		c-2.29,0.259-6.567-1.352-6.24-5.28c-1.966-0.467-3.075,1.188-4.319,0C344.513,394.633,347.354,395.073,349.56,394.88z"/>
	<path fill-rule="evenodd" clip-rule="evenodd" d="M363.48,400.16c-0.926,0.995-4.005-0.164-3.841,1.92
		c1.363,0.717,3.472,0.688,4.801,1.439c1.935-1.584,4.586-2.453,7.199-3.359c0.352,3.871-4.661,2.378-5.279,5.28
		c-2.492,0.566-5.466-1.817-8.16-1.44c-0.153-1.127-0.759-1.802-0.48-3.36c1.153-0.446,1.271-1.929,3.36-1.439
		c0.615-2.115-2.297-1.967-0.96-3.36C361.952,394.869,363.062,398.177,363.48,400.16z"/>
	<path fill-rule="evenodd" clip-rule="evenodd" d="M315.48,398.72c-2.691,0.244-4.209-0.493-7.2,0.96
		C308.474,395.973,314.584,395.414,315.48,398.72z"/>
	<path fill-rule="evenodd" clip-rule="evenodd" d="M500.28,414.56c3.063,0.457,4.362,2.679,4.319,6.24
		c-0.954,0.449-2.285,1.562-3.359,0.48c-0.421-1.541,1.244-0.995,1.439-1.92c0.091-2.812-2.808-2.633-4.8-3.36
		c1.937-3.837-0.875-4.914-2.88-7.2c1.848-3.466-1.496-6.762-3.84-4.319c-0.734,2.174,3.134-0.255,2.399,1.92
		c-0.697,0.742-2.457,0.422-3.84,0.479c-3.22-7.47,10.761-6.009,7.2,0.96C498.028,410.092,501.02,410.461,500.28,414.56z"/>
	<path fill-rule="evenodd" clip-rule="evenodd" d="M376.44,402.56c5.265,0.76,2.254,6.892,6.239,8.641
		c1.611,0.011,1.298-1.902,1.92-2.88c3.27,1.597-0.25,5.207-2.88,5.279C378.711,411.169,378.286,406.153,376.44,402.56z"/>
	<path fill-rule="evenodd" clip-rule="evenodd" d="M450.36,427.52c-2.428-1.345-0.315-5.93,0.96-6.72
		c0.796-2.915-1.472-4.653-0.48-6.24c0.98-1.024,1.899,0.136,2.88,0.48c0.553-0.567,0.544-1.696,0.48-2.88
		c-4.05-0.566-4.634-5.87-2.88-9.601c3.551-0.256,5.825,3.006,4.8,5.761c-2.135-0.106-1.288-3.192-2.88-3.84
		c-3.45,2.623,0.518,5.692,2.88,6.72c-0.311,2.569-0.269,5.491-2.88,5.76C453.671,421.871,451.214,423.894,450.36,427.52z"/>
	<path fill-rule="evenodd" clip-rule="evenodd" d="M319.8,405.92c2.444,0.102,5.663,1.496,4.32,3.84
		C322.705,408.454,319.687,408.754,319.8,405.92z"/>
	<path fill-rule="evenodd" clip-rule="evenodd" d="M368.28,412.16c1.695-0.225,2.627-1.213,3.84-1.92
		c0.419-1.859-2.096-0.784-1.44-2.88c5.441-0.655,2.564,6.386-1.439,6.72c-1.859-0.381-3.425-1.055-4.32-2.4
		c-1.124,1.113-3.128,0.499-4.32,0.96c-1.731,0.671-2.061,2.233-3.84,2.4c-1.223-3.479,4.441-4.027,6.24-4.8
		c-0.422-1.818-4.122-0.357-4.8-1.92c-2.066,2.094-5.072,3.247-6.24,6.239c-2.015-0.544-2.409-2.711-5.76-1.92
		c-2.705,1.384-0.87,4.029-1.44,6.24c-3.455-0.385-6.878-0.802-7.68-3.84c1.771-1.176,2.487,2.114,5.28,1.44
		c-0.096-1.796,1.58-3.564,2.399-5.761c2.486,0.073,5.61-0.489,6.24,1.44c1.234-2.605,4.882-2.798,5.76-5.76
		c2.313,0.566,4.288,1.472,7.2,1.439C364.65,410.03,366.623,410.938,368.28,412.16z"/>
	<path fill-rule="evenodd" clip-rule="evenodd" d="M484.44,428.96c-1.228,0.798,1.873,1.289,1.439,2.88
		c-0.599,2.441-3.112,2.968-4.8,4.32c-3.271-0.729-4.675-3.326-7.68-4.32c-0.002-1.602,1.561-1.639,1.439-3.359
		c-0.985-1.255-3.754-0.727-5.28-1.44c-1.868-6.031,1.614-11.017,0.96-18.72c-3.661-0.303-3.436,3.283-7.199,2.88
		c1.204-2.97,5.017-5.303,8.64-4.32c1.061,5.898-0.841,12.023-1.44,17.76c1.237,1.804,5.028,1.052,6.24,2.88
		c0.312,1.752-0.323,2.557-0.96,3.36c1.513,1.048,3.023,2.097,4.32,3.36c2.019,0.099,2.016-1.824,3.84-1.92
		c-0.357-1.883-2.83-1.65-2.88-3.84c1.046-1.515,4.308-0.812,6.72-0.961c0.982-0.777-0.021-3.541,0.96-4.319
		c4.777-0.617,4.043,4.276,8.16,4.319c0.713-1.371-2.972-2.453-3.36-4.319c1.86-4.55,7.697-2.39,7.681,2.399
		c-2.779,0.379-2.598-4.221-4.8-2.88c-0.96,2.253,3.942,2.769,2.88,6.721c-4.864,0.384-7.17-1.791-9.12-4.32
		c-1.09,0.511-0.183,3.018-0.48,4.32C488.104,429.136,485.262,430.059,484.44,428.96z"/>
	<path fill-rule="evenodd" clip-rule="evenodd" d="M508.92,407.36c1.531-0.412,1.484,0.755,2.4,0.96
		c-1.217,3.054,0.487,8.969-0.96,10.56c-2.908-1.136-0.822-6.282-0.96-9.12C509.335,408.428,507.982,408.15,508.92,407.36z"/>
	<path fill-rule="evenodd" clip-rule="evenodd" d="M410.04,407.84c0.072,2.633-2.42,2.7-3.84,3.84
		c-1.521-0.878-3.669-1.131-4.32-2.88c1.333-1.191,3.141,0.052,3.84,0.96C407.65,409.61,407.621,407.501,410.04,407.84z"/>
	<path fill-rule="evenodd" clip-rule="evenodd" d="M325.08,418.88c-2.988-1.172-4.4-3.92-7.2-5.28
		c-3.387,2.658-5.895-1.594-9.12-1.439c-2.921,0.139-6.018,4.434-9.6,1.439c-0.685,0.916-1.116,2.085-1.44,3.36
		c0.191,2.049,3.441,1.039,2.88,3.84c-2.167-0.393-3.725-1.396-4.8-2.88c0.307-2.573,1.324-4.437,2.4-6.24
		c2.234-0.154,3.203,0.957,5.28,0.96c3.353-2.635,8.218-2.906,11.52,0c1.405,0.126,1.475-1.085,2.88-0.96
		C320.581,413.514,325.312,415.692,325.08,418.88z"/>
	<path fill-rule="evenodd" clip-rule="evenodd" d="M412.92,411.68c1.913-0.312,1.375,1.825,1.44,3.36
		c-2.761,0.439-4.724,1.677-7.2,2.4c-0.171,2.684,1.979,4.122,0.96,6.239c-2.672-0.688-1.361-5.358-4.8-5.279
		c1.913-1.486,1.717-3.452,1.92-5.761c1.765-0.165,1.451,1.749,1.92,2.88c2.672,0.274,3.044-2.67,5.28-1.439
		C412.287,412.967,412.518,412.237,412.92,411.68z"/>
	<path fill-rule="evenodd" clip-rule="evenodd" d="M193.08,414.08c-0.893,2.467-3.834,2.886-7.2,2.88
		C187.157,415.095,191.072,413.652,193.08,414.08z"/>
	<path fill-rule="evenodd" clip-rule="evenodd" d="M284.76,414.56c-0.699,1.861-3.724,1.396-4.319,3.36
		c0.836,1.625,3.525-1.388,3.84,0.96c-0.394,1.688-2.869,1.291-4.8,1.44C277.033,417.577,281.354,412.821,284.76,414.56z"/>
	<path fill-rule="evenodd" clip-rule="evenodd" d="M495,416.48c-0.294,1.786,0.907,5.067-1.44,4.8
		c-0.742-0.698-0.422-2.458-0.479-3.84c-0.8-0.001-1.6,0-2.4,0c-1.336-0.217,0.377,2.616-0.96,2.399
		C484.936,417.254,492.387,413.45,495,416.48z"/>
	<path fill-rule="evenodd" clip-rule="evenodd" d="M394.68,416.48c0.775-0.136,0.826,0.453,1.44,0.479
		c-0.422,5.179-5.949,5.251-9.12,7.68c-1.895-1.358-3.73,0.496-5.76,0.48c-1.035-0.009-2.253-0.988-3.36-0.96
		c-0.888,0.022-1.528,0.831-2.399,0.96c-2.533,0.374-4.746-0.615-7.2-1.44c-1.274-0.165-1.62-1.26-1.92-2.399
		c-3.331,1.722-6.523,1.278-9.601,0.479c0-0.8,0-1.6,0-2.399c4.79,3.137,9.57-0.543,14.4-1.44c0.002,2.082-1.824,2.336-3.36,2.88
		c1.752,2.585,7.312,3.388,9.601,1.44C383.716,423.632,392.381,422.639,394.68,416.48z"/>
	<path fill-rule="evenodd" clip-rule="evenodd" d="M185.4,416.96c0.09,2.427-3.64,4.929-5.76,6.72
		C179.16,420.863,182.378,417.85,185.4,416.96z"/>
	<path fill-rule="evenodd" clip-rule="evenodd" d="M352.92,417.44c1.797-0.038,1.638,1.882,1.92,3.359
		c-2.273,2.063-7.262,0.391-7.68-2.399c1.7-0.975,3.475,1.467,5.28,1.92C353.686,419.914,351.517,418.215,352.92,417.44z"/>
	<path fill-rule="evenodd" clip-rule="evenodd" d="M321.72,419.36c1.837,2.262,3.384,1.864,5.761,3.359
		c-0.394,2.356-2.869-0.338-4.801,0.48C322.081,422.191,320.48,420.74,321.72,419.36z"/>
	<path fill-rule="evenodd" clip-rule="evenodd" d="M306.84,421.28c1.703,0.696,3.832,0.968,3.84,3.359
		c-3.386-0.506-4.851,0.909-4.8,3.841c-0.229,1.829,2.222,0.978,1.44,3.359C301.335,430.577,305.092,424.616,306.84,421.28z"/>
	<path fill-rule="evenodd" clip-rule="evenodd" d="M332.28,422.24c1.265-0.145,1.575,0.664,1.439,1.92
		c3.799,1.481,9.316,1.244,13.92,1.92c0.657,0.613,0.657,2.267,0,2.88c4.692,2.048,7.982-1.235,11.04-2.4
		c1.903,1.769,3.16,2.062,6.721,1.44c0.823,0.776,1.192,2.008,0.96,3.84c2.727-2.103,5.448-0.093,7.68,0.96
		c3.376-1.903,6.834-3.726,9.6-6.24c1.92,0,3.841,0,5.761,0c1.01-0.59,0.31-2.89,1.439-3.359c2.271-0.191,1.353,2.808,2.88,3.359
		c3.026-0.014,2.304-3.776,5.761-3.359c-0.45,2.431-2.326,3.435-3.841,4.8c-1.077,1.053-3.704-0.975-3.84-0.96
		c-1.599,0.169-2.718,2.805-6.24,0.96c-1.78-0.021-1.72,1.8-2.88,2.4c-4.545,0.184-4.864,4.256-8.64,4.319
		c-2.526,0.043-5.138-3.681-9.12-0.96c-0.742-0.697-0.423-2.457-0.479-3.84c-1.35-0.192-5.51,1.424-6.24-1.439
		c-2.31,2.902-8.749,3.906-12.48,1.439c-0.153-1.113,0.077-1.843,0.48-2.4c-5.228-0.372-10.805-0.396-14.4-2.399
		C331.736,423.937,331.728,422.808,332.28,422.24z"/>
	<path fill-rule="evenodd" clip-rule="evenodd" d="M444.6,430.4c-0.07-1.922,1.938-3.473,0.48-5.28
		c-1.525,0.715-0.517,3.964-3.84,2.88c-0.437,2.287,1.824,3.586,0.479,5.28c-3.331-1.501-7.716-0.623-9.12-4.8
		c1.812-1.218,2.988,1.613,4.801,1.92c1.498-0.422,1.979-1.861,2.399-3.36c0.558-0.403,1.287-0.633,2.4-0.48
		C443.348,417.97,451.8,429.18,444.6,430.4z"/>
	<path fill-rule="evenodd" clip-rule="evenodd" d="M260.76,424.64c0.48,0,0.96,0,1.44,0c0.34,1.78-0.82,2.061-0.48,3.841
		c-1.882,0.648-6.08,3.111-7.2,1.439c0.913-1.808,3.644-1.796,5.76-2.4C260.217,426.337,260.207,425.207,260.76,424.64z"/>
	<path fill-rule="evenodd" clip-rule="evenodd" d="M169.56,426.56c-1.097,1.623-2.765,2.676-4.8,3.36
		C164.422,427.169,167.743,425.561,169.56,426.56z"/>
	<path fill-rule="evenodd" clip-rule="evenodd" d="M325.56,428c2.805-0.258,7.323-0.164,5.761,2.4
		c-0.995,0.525-3.116-1.143-5.761-0.48C325.56,429.28,325.56,428.64,325.56,428z"/>
	<path fill-rule="evenodd" clip-rule="evenodd" d="M410.52,428c0.526,0.786,1.777,3.3,0.48,4.32c-1.888,0.607-1.428-1.133-1.44-2.4
		c-1.695-0.225-4.624,0.784-4.319-1.439C406.271,427.591,408.756,428.156,410.52,428z"/>
	<path fill-rule="evenodd" clip-rule="evenodd" d="M397.56,430.4c0.662,0.618,0.476,2.085,0.48,3.359
		c2.562,1.193,7.944,1.873,6.24,5.76c-1.296-0.464-2.316-1.203-2.4-2.88c-2.604,0.524-3.191-0.968-5.28-0.96
		c-0.152-1.127-0.758-1.802-0.479-3.359c-5.573-1.181-7.712,2.054-11.04,4.319c-1.433-1.127-3.679-1.441-5.76-1.92
		c-0.069-2.614,4.439-1.282,5.279-0.479C388.197,431.72,391.971,429.757,397.56,430.4z"/>
	<path fill-rule="evenodd" clip-rule="evenodd" d="M403.32,430.88c2.024,0.375,3.409,1.391,4.319,2.88
		C405.811,434.863,403.25,433.208,403.32,430.88z"/>
	<path fill-rule="evenodd" clip-rule="evenodd" d="M504.12,430.88c0.319,0,0.64,0,0.96,0c3.245,3.188,4.178,10.734,5.28,17.28
		c-0.744,0.536-1,1.561-2.4,1.439c-0.244,2.477-0.233,5.207-2.4,5.761c0.615,3.909-1.112,7.718-3.359,7.199
		c0.323-2.556,2.15-3.608,1.439-7.199c2.544-2.097,2.225-7.056,5.28-8.641c-1.459-3.661-2.018-8.222-3.36-12
		c-1.08,1-1.546,2.614-2.88,3.36c-2.506-0.533-3.607-2.473-3.359-5.76c1.469-0.031,2.5-1.763,3.84-0.48
		c0.378,1.979-2.299,0.902-1.92,2.88c0.17,0.631,0.845,0.755,0.96,1.44C503.186,434.746,504.511,433.671,504.12,430.88z"/>
	<path fill-rule="evenodd" clip-rule="evenodd" d="M461.88,431.36c3.639,0.2,2.71,3.766,2.88,6.72
		c0.193,3.353,2.703,5.521,3.36,8.16c-4.424,0.104-3.252-5.389-5.28-7.681c-0.38-1.659,0.534-2.026,0.96-2.88
		C463.078,434.322,461.859,433.461,461.88,431.36z"/>
	<path fill-rule="evenodd" clip-rule="evenodd" d="M315,433.28c2.053-0.133,2.446,1.393,3.36,2.399
		c2.434-0.877,4.613-2.812,7.199-2.399c1.106,0.176,7.639,4.784,7.2,7.2c6.174,0.985,9.478-0.267,9.601-6.24
		c3.386,1.258,0.043,6.231-0.96,7.68c-2.623,0.737-6.296,0.425-9.601,0.48c-0.748-4.053-4.454-5.146-6.72-7.681
		C322.068,436.194,315.208,439.5,315,433.28z"/>
	<path fill-rule="evenodd" clip-rule="evenodd" d="M142.68,435.68c-0.098,2.23-2.646,0.184-3.84,0.48
		c-1.469-0.002-3.479,1.924-4.8,0.479C135.343,434.203,140.789,433.484,142.68,435.68z"/>
	<path fill-rule="evenodd" clip-rule="evenodd" d="M468.6,434.24c2.057-0.137,2.122,1.718,2.4,3.359
		C468.896,437.853,467.655,435.535,468.6,434.24z"/>
	<path fill-rule="evenodd" clip-rule="evenodd" d="M150.84,434.72c0.91,2.402-3.3,2.675-2.88,0.48
		C148.527,434.647,149.657,434.656,150.84,434.72z"/>
	<path fill-rule="evenodd" clip-rule="evenodd" d="M315.48,441.44c3.002-1.99,8.58-1.81,10.56,0.96
		c-1.132,1.945-3.613-0.586-6.24-0.48c-1.672,0.067-2.52,1.187-4.319,0.96c-2.426-1.415-4.575-3.105-5.761-5.76
		C312.196,436.224,313.77,440.008,315.48,441.44z"/>
	<path fill-rule="evenodd" clip-rule="evenodd" d="M480.6,437.12c0.775-0.136,0.827,0.453,1.44,0.479
		c0.258,2.658-0.646,4.155-1.44,5.761c-0.19,3.8,2.43,10.776-2.399,11.04c-1.852-0.132-2.513-3.258-1.44-4.801
		c1.534,0.066,1.059,2.142,1.92,2.881c2.043-2.902-0.273-6.18,0-9.12C478.902,440.967,481.12,439.684,480.6,437.12z"/>
	<path fill-rule="evenodd" clip-rule="evenodd" d="M124.44,439.04c-1.064,1.496-2.325,2.795-4.8,2.88
		C119.476,439.502,122.752,438.012,124.44,439.04z"/>
	<path fill-rule="evenodd" clip-rule="evenodd" d="M384.6,438.56c2.475,2.485,4.91,5.011,6.721,8.16
		c5.095-0.345,7.205-3.674,10.08-6.239c3.056,1.734,5.192,0.171,7.68-0.961c0.603,3.595-4.216,3.952-6.72,2.881
		c-3.264,2.69-7.065,7.288-13.44,5.279c-1.921,1.92-2.45,5.229-6.72,4.801c-2.354,2.605-5.384,4.536-10.08,4.8
		c-2.788,3.383-7.876,1.8-11.04,4.319c-1.19-0.249-1.71-1.17-2.4-1.92c-3.317,0.362-5.083,2.276-7.68,3.36
		c-2.837-0.844-6.757-0.603-9.6-1.44c0.949-3.677,7.13,0.06,9.6-0.479c0.954-0.007,0.61-1.31,1.92-0.96
		c-0.057-5.704-2.444-9.076-4.32-12.96c4.22-0.22,3.095,4.905,5.761,6.24c0.105,1.545-0.85,2.03-0.48,3.84
		c1.123,3.55,6.124-2.091,6.72,2.399c5.162-1.078,2.933-9.547,4.32-14.399c2.121,4.18,0.714,9.016,0.48,12.96
		c3.592,0.712,3.83-1.931,5.76-2.88c4.534,0.534,6.211-1.789,9.12-2.88c-1.614-1.86-2.565-4.231-2.4-6.721
		c2.573,0.467,2.203,3.877,4.32,4.8c4.467,0.788,3.425-3.935,6.24-4.8C388.013,442.74,382.824,442.216,384.6,438.56z"/>
	<path fill-rule="evenodd" clip-rule="evenodd" d="M226.2,439.52c0.069,1.35-1.176,1.385-2.4,1.44c-0.254-0.386-0.5-0.779-0.48-1.44
		C223.653,439.145,225.998,438.451,226.2,439.52z"/>
	<path fill-rule="evenodd" clip-rule="evenodd" d="M471,440.96c4.56,1.28,3.041,6.834,3.84,11.04c-0.691,2.531-5.925,2.44-7.2,0.48
		c-1.587,1.028-2.225,2.559-1.439,4.8c0.76,0.04,1.831-0.231,1.92,0.479c2.042,0.282,0.928-2.592,3.36-1.92
		c0.162,2.242-1.33,2.83-2.4,3.84c-2.722-0.479-5.143-1.258-5.28-4.319c-1.545-0.106-2.031,0.849-3.84,0.479
		c-1.577,0.982-1.021,4.1-3.36,4.32c-0.912-1.913,1.287-4.327,1.92-6.24c2.097,0.629,4.338-1.066,5.28,0
		c1.792-0.608,1.971-2.83,2.88-4.32c2.334,0.227,1.974,3.146,5.28,2.4C474.744,447.849,470.903,443.608,471,440.96z"/>
	<path fill-rule="evenodd" clip-rule="evenodd" d="M212.28,441.44c0.64,0,1.28,0,1.92,0c0.203,1.003-0.329,1.271-0.48,1.92
		C212.455,443.505,212.145,442.695,212.28,441.44z"/>
	<path fill-rule="evenodd" clip-rule="evenodd" d="M208.92,443.84c-0.844-0.276-2.82,0.58-2.88-0.479
		C205.911,441.455,209.696,441.305,208.92,443.84z"/>
	<path fill-rule="evenodd" clip-rule="evenodd" d="M447.96,444.32c-1.192,0.952-3.617,0.062-3.84-1.44
		C445.18,442.061,448.027,442.526,447.96,444.32z"/>
	<path fill-rule="evenodd" clip-rule="evenodd" d="M205.08,443.36c-0.067,2.013-2.199,1.96-4.32,1.92c0-0.48,0-0.96,0-1.44
		C201.556,443.036,203.578,443.458,205.08,443.36z"/>
	<path fill-rule="evenodd" clip-rule="evenodd" d="M320.76,443.36c2.113-0.033,3.012,1.147,3.84,2.399
		c2.121-0.041,4.254-0.093,4.32,1.92C325.758,448.033,321.797,447.26,320.76,443.36z"/>
	<path fill-rule="evenodd" clip-rule="evenodd" d="M409.08,445.28c2.822-1.066,6.162,3.412,6.72,0c0.8,0,1.601,0,2.4,0
		c0.259,1.858-1.224,1.977-1.44,3.359c-1.253-0.187-2.634-0.246-3.359-0.96c-0.448,0.352-0.728,0.873-0.96,1.44
		c-1.577-0.503-3.931-0.229-5.28-0.96C407.05,445.389,409.913,448.574,409.08,445.28z"/>
	<path fill-rule="evenodd" clip-rule="evenodd" d="M446.52,447.68c-1.948,0.189-3.344-0.175-3.359-1.92
		C444.467,445.255,446.576,445.528,446.52,447.68z"/>
	<path fill-rule="evenodd" clip-rule="evenodd" d="M402.84,447.2c-0.126,2.048-1.443,0.588-2.399,0.96
		c-3.654,1.42-5.414,6.243-11.521,5.28c-3.26,2.02-6.367,4.192-10.56,5.279c-2.166,0.093-2.385,4.09-4.32,2.88
		c0.598-6.147,11.976-5.605,14.88-11.04C394.974,454.573,397.545,443.782,402.84,447.2z"/>
	<path fill-rule="evenodd" clip-rule="evenodd" d="M426.84,448.64c-1.832,0.909-2.949-1.002-5.76-0.479
		c0.078-0.559-0.105-0.854-0.48-0.96C421.686,445.317,426.692,446.524,426.84,448.64z"/>
	<path fill-rule="evenodd" clip-rule="evenodd" d="M443.16,449.6c-2.013,0.87-5.332-0.615-5.76-2.88
		C438.998,446.264,442.268,447.8,443.16,449.6z"/>
	<path fill-rule="evenodd" clip-rule="evenodd" d="M453.24,447.68c-0.067,1.373-2.002,0.878-3.36,0.96
		C450.088,446.477,452.48,445.503,453.24,447.68z"/>
	<path fill-rule="evenodd" clip-rule="evenodd" d="M459.48,452.96c-0.866,0.725-3.467,0.274-3.36-1.44
		C457.196,450.584,459.57,451.262,459.48,452.96z"/>
	<path fill-rule="evenodd" clip-rule="evenodd" d="M407.64,452.96c-2.505,1.377-5.809,0.606-8.64,2.4
		C399.462,451.422,405.23,451.006,407.64,452.96z"/>
	<path fill-rule="evenodd" clip-rule="evenodd" d="M413.88,452.96c0.117,1.741-4.646,1.082-5.28,0.48
		C409.912,451.433,412.403,451.865,413.88,452.96z"/>
	<path fill-rule="evenodd" clip-rule="evenodd" d="M435,452c1.616,0.304,4.458-0.618,5.28,0.48
		C440.35,455.028,434.605,454.196,435,452z"/>
	<path fill-rule="evenodd" clip-rule="evenodd" d="M416.28,453.92c3.814-0.614,4.512,1.888,7.2,2.4
		c-0.107,1.555-2.772,1.187-3.841,0.96c-0.614-0.131-0.635-1.292-0.96-1.44C417.64,455.364,415.747,456.372,416.28,453.92z"/>
	<path fill-rule="evenodd" clip-rule="evenodd" d="M412.44,454.88c1.041,1.392,0.073,3.981-2.4,3.36
		C410.23,456.511,410.822,455.182,412.44,454.88z"/>
	<path fill-rule="evenodd" clip-rule="evenodd" d="M405.24,455.84c0.067,1.794-2.78,2.26-3.84,1.44
		C401.278,455.433,404.409,455.249,405.24,455.84z"/>
	<path fill-rule="evenodd" clip-rule="evenodd" d="M479.64,456.32c3.112,0.618,4.075,5.232,3.36,8.16
		c-2.611,0.846-3.249-2.907-4.32-2.881c-1.716,0.043-0.998,2.263-3.359,2.881c-2.132-0.562-4.212-3.286-2.88-5.761
		c2.201-0.121,1.15,3.009,2.399,3.84c1.351-0.569,1.785-2.055,2.88-2.88c2.024,0.057,2.429,1.732,3.84,2.4
		C481.517,459.563,479.479,459.04,479.64,456.32z"/>
	<path fill-rule="evenodd" clip-rule="evenodd" d="M239.64,457.28c4.425,0.055,8,0.96,10.08,3.359c1.87,0.939,3.478-1.008,5.28-0.96
		c1.126,0.03,1.835,1.027,2.88,0.96c4.767-0.307,8.996-2.661,13.44,0.48c-1.972,2.538-3.608-0.008-5.76,0
		c-2.184,0.008-4.505,1.305-6.72,1.439c-1.03,0.063-2.017-0.896-3.36-0.96c-1.696-0.079-3.657,1.118-4.8,0.96
		c-3.743-0.516-6.143-4.746-10.56-3.359C239.747,458.772,239.604,458.116,239.64,457.28z"/>
	<path fill-rule="evenodd" clip-rule="evenodd" d="M392.76,457.76c-0.402,1.581-3.743,2.027-4.8,1.44
		C387.84,457.3,391.543,456.73,392.76,457.76z"/>
	<path fill-rule="evenodd" clip-rule="evenodd" d="M329.4,460.64c-0.383,2.119-3.175,1.558-4.801,1.92
		c-0.721,0.161-1.678,0.907-2.399,0.96c-2.512,0.186-4.098-0.815-6.24-0.96c-1.086-0.072-1.935,0.638-2.88,0.48
		c-1.184-0.197-1.733-1.116-2.88-1.44c-2.792-0.788-6.354,0.252-8.16-1.92c-1.678,0.402-2.119,2.041-3.36,2.88
		c-3.996-0.796-5.095,1.306-7.199,2.4c-6.152-0.583-13.387,1.641-17.28-2.88c2.753-1.024,6.177,1.088,8.64,1.92
		c1.93-1.11,5.03-1.05,8.16-0.96c1.855-0.064,1.894-1.946,3.36-2.4c0.96,0,1.92,0,2.88,0c3.852-4.514,6.528-0.889,12.96-0.96
		c1.486,0.114,1.864,1.336,2.88,1.92c1.359-0.08,2-0.879,3.36-0.96C319.925,463.604,326.059,459.32,329.4,460.64z"/>
	<path fill-rule="evenodd" clip-rule="evenodd" d="M405.72,458.24c-0.523,5.271-10.336,3.694-14.399,3.84
		c0.354-2.539,3.531-1.203,5.279-1.44C400.062,460.171,403.426,459.38,405.72,458.24z"/>
	<path fill-rule="evenodd" clip-rule="evenodd" d="M459.96,468.32c-0.707-1.693-0.917-3.884-1.92-5.28
		c1.108-2.034,3.618-4.882,5.76-4.32c-0.685,1.876-1.965,3.155-3.84,3.84c0.671,1.889,1.323,3.797,1.92,5.761
		c-0.332,1.908-2.11,2.369-2.88,3.84c1.053,2.137,1.229,4.458,2.4,6.24c0.751,1.145,2.441,1.242,2.399,2.88
		c2.559-1.552,6.304-3.708,10.08-2.88c2.308,0.506,3.008,2.746,4.8,3.359c0.063,1.184,0.073,2.312-0.479,2.88
		c3,1.804,7.198,4.956,5.76,9.601c-2.065-1.135-1.901-4.498-3.36-6.24c-1.78-0.3-2.811-1.35-4.319-1.92
		c2.58-7.725-9.337-6.347-12-2.88C459.557,481.521,455.094,472.307,459.96,468.32z"/>
	<path fill-rule="evenodd" clip-rule="evenodd" d="M383.64,460.64c-0.921,1.64-2.878,2.242-4.8,2.88
		C378.523,460.803,381.984,459.846,383.64,460.64z"/>
	<path fill-rule="evenodd" clip-rule="evenodd" d="M49.56,462.08c-0.009,1.591-2.713,0.487-3.36,1.439
		c-1.046,1.194-1.772,2.709-4.32,2.4C42.922,463.36,45.766,460.317,49.56,462.08z"/>
	<path fill-rule="evenodd" clip-rule="evenodd" d="M475.32,472.16c1.034-0.653,4.427,3.649,5.76,0c-0.646-2.395-0.57-5.51-3.36-5.76
		c-1.722,0.038-0.382,3.138-1.439,3.84c-2.062-0.612-0.833-3.594-0.96-5.28c3.926-0.636,5.812,0.285,7.199,4.32
		c0.371,1.078,0.559,2.477,0.48,2.88C482.212,476.24,474.799,477.197,475.32,472.16z"/>
	<path fill-rule="evenodd" clip-rule="evenodd" d="M270.36,469.28c1.519,0.078,1.604-1.276,3.36-0.96
		c0.393,2.633-2.105,2.374-3.84,2.88c-1.399-2.12-3.805-3.235-7.68-2.88c0-0.48,0-0.961,0-1.44
		C264.614,466.195,269.52,466.826,270.36,469.28z"/>
	<path fill-rule="evenodd" clip-rule="evenodd" d="M493.56,470.72c-0.749,2.132-0.835,4.925-2.88,5.761
		c0.298,1.782,1.965,2.195,1.44,4.8c-4.656-1.277-2.283-7.113-0.48-9.601c-0.436-1.964-2.734-2.065-4.319-2.88
		c-0.165,3.524,1.226,5.494,0.96,9.12c-1.513-0.231-1.087,1.474-2.88,0.96c0.139,3.156,3.573,5.257,2.88,7.68
		c-4.063-1.537-4.183-7.017-6.24-10.56c1.381-1.24,2.831,0.36,3.84,0.96c1.426-3.578-0.949-5.76-0.479-9.12
		C488.761,466.359,492.15,468.682,493.56,470.72z"/>
	<path fill-rule="evenodd" clip-rule="evenodd" d="M470.04,468.32c0.479,0,0.96,0,1.44,0c0.702,1.537,1.645,2.835,1.439,5.279
		c-2.088,0.047-4.598,3.514-6.24,0.96c-0.979,0.302-0.135,2.426-1.92,1.921c-0.977-2.516,0.924-3.369,0-6.721
		c1.854,0.066,1.967,1.874,1.92,3.84c0.725,0.848,2.984-0.828,4.32-0.96C471.535,470.345,469.505,470.615,470.04,468.32z"/>
	<path fill-rule="evenodd" clip-rule="evenodd" d="M29.88,471.2c2.671,0.049,3.532,1.907,4.8,3.359
		c2.752-0.192,4.183,0.937,6.24,1.44c3.75-1.53,4.929-5.631,8.64-7.2c-0.437,5.003-5.234,5.646-7.2,9.12
		c-3.241,0.041-4.44-1.96-8.16-1.439C33.12,474.36,29.818,474.463,29.88,471.2z"/>
	<path fill-rule="evenodd" clip-rule="evenodd" d="M318.84,525.44c-0.141,5.6,0.186,12.062,0,18.239
		c-0.044,1.453,0.844,4.178-0.96,4.801c-2.394,0.306-1.374-2.974-1.439-4.32c-0.22-4.458,0.163-11.068,0-15.84
		c-16.161-1.12-34.4-0.16-51.36-0.48c0,3.175,0,7.356,0,11.04c0,3.665,1.125,8.019-1.44,9.601c-1.8-0.491-0.914-2.91-0.96-4.32
		c-0.151-4.605,0.112-10.816,0-15.84c-16.164-1.117-34.397-0.163-51.36-0.48c-1.016,4.265-0.283,10.785-0.48,16.32
		c-0.047,1.338,0.835,3.883-0.96,4.32c-2.473,0.192-1.37-3.044-1.44-4.32c-0.273-4.944,0.203-11.99,0-17.28c0-0.479,0-0.96,0-1.439
		C245.24,525.44,282.04,525.44,318.84,525.44z"/>
	<path fill-rule="evenodd" clip-rule="evenodd" d="M81.24,12.32c2.385,0.603-0.071,4.788,0.96,5.76
		c3.815,0.709,7.128,1.049,12.48,1.44c2.203,2.753-0.004,5.9,0,9.12c0.004,3.934,1.971,9.172,2.4,13.92
		c0.249,2.752-0.384,5.381,0,7.68c0.5,2.999,2.968,5.529,2.88,8.16c3.92,0.399,6.222,2.418,10.08,2.88
		c1.721,0.121,1.759-1.441,3.36-1.44c1.895-0.615,1.162,1.398,2.4,1.44c4.382-2.898,13.359-0.623,15.36,3.36
		c2.817-2.623,7.587-3.292,12-4.32c1.4-2.759,5.933-2.386,7.68-4.8c2.607-1.037,4.525,0.622,6.72,0
		c4.133-1.171,4.206-6.098,11.04-5.28c3.214,0.385,5.493,4.104,8.64,5.28c2.191,0.818,4.868-0.058,7.2,0.48
		c1.258,0.29,2.1,1.552,3.36,1.92c2.835,0.828,6.404-0.142,8.64,2.4c2.135-2.041,5.115-0.33,7.68-0.48
		c3.54-0.206,7.261-2.156,11.04-0.48c3.25-1.448,4.716-5.084,8.16-4.8c3.349,0.276,4.022,4.415,7.2,5.76
		c5.166,0.127,7.559-4.269,12.48-2.88c2.69-0.99,3.875-3.485,5.76-5.28c3.583-0.452,5.663,1.189,7.68,0.96
		c1.163,1.237,1.372,3.428,1.92,5.28c-0.037,2.117,2.779,1.381,1.92,4.32c5.782,7.178,13.296,12.624,24,14.88
		c5.295-3.786,6.939,0.779,11.04,3.84c0.572,0.428,2,0.417,2.88,0.96c3.399,2.098,5.918,6.287,8.64,6.72
		c3.253,0.518,4.389-1.526,7.68-2.4c7.796-2.071,16.222-0.374,24.961,0.96c4.411-2.497,8.39,0.414,13.439,0.96
		c11.81,1.278,25.726-4.278,37.44-2.88c2.165,0.259,4.128,1.606,6.239,1.92c9.217,1.369,21.57-0.248,31.2,0.96
		c1.592,0.2,2.87,1.034,4.32,0.96c2.091-0.107,3.659-1.583,5.76-1.92c2.824-0.454,5.775,0.259,8.64,0
		c3.929-0.355,8.229-2.308,11.521,0.48c7.647-2.227,16.995,1.154,25.92,1.92c3.271,0.281,6.586-0.695,9.6-0.48
		c5.187,0.37,7.908,3.894,11.04,5.76c0.958,6.563,7.113,7.928,10.08,12.48c-0.681,6.359-3.808,10.272-6.72,14.4
		c-2.48,0.719-4.035,2.364-5.76,3.84c-3.542,1.949-7.132,2.466-10.561,4.32c-2.085,1.127-3.285,3.157-5.279,4.32
		c-1.787,1.042-5.08,1.276-8.16,2.4c-2.42,0.883-4.63,2.699-6.72,3.36c-0.778,0.246-1.831-0.185-2.881,0
		c-1.154,0.204-2.506,1.308-3.359,1.44c-1.338,0.207-3.239-0.098-4.8,0c-2.182,0.137-4.36,0.983-6.24,0.96
		c-1.603-0.02-3.166-1.044-4.8-0.96c-2.984,0.153-6.414,2.771-10.08,3.36c-1.436,0.23-3.071-0.284-4.32,0
		c-4.126,0.938-7.502,3.786-11.52,4.32c-12.177,1.618-27.463-0.584-36.961,4.8c-7.091,1.937-15.039,0.843-22.079,1.44
		c-1.234,0.105-2.233,0.89-3.36,0.96c-9.379,0.589-17.707,0.245-25.92-1.44c-4.011,1.447-7.217,5.083-12.48,5.76
		c-2.266,0.292-4.592-0.472-7.199-0.48c-4.277-0.014-8.605,1.509-12.961,1.92c-4.141,0.39-7.62-0.342-11.52,0
		c-3.046,0.267-8.588,0.461-11.04,0c-2.097-0.395-3.756-2.223-5.76-2.4c-1.247-0.11-3.427,0.637-4.8,0.48
		c-1.406-0.162-2.834-1.234-4.32-1.44c-2.741-0.38-5.532,1.303-7.68-0.48c-1.885,0.835-2.155,3.285-2.88,5.28
		c-2.12,1.88-6.603,1.397-8.16,3.84c-5.075-0.801-8.163,1.512-11.52,0.48c-4.706-1.446-6.493-5.068-11.04-8.16
		c-2.383,0.336-2.664,2.776-3.84,4.32c-3.955,2.082-7.763-1.426-10.56-3.36c-3.466,0.266-5.468-0.932-7.68-1.92
		c-2.49,1.348-6.104,1.062-8.16,0c-2.377,0.343-2.297,3.143-5.28,2.88c-1.677,4.437-8.208,8.269-11.04,2.4
		c-2.467,0.835-3.384,0.479-5.76,0.96c-2.722,5.516-12.192,5.047-16.32,6.72c-2.657,0.121-4.324-2.4-7.2-2.88
		c-1.314-0.22-2.606,0.457-3.84,0.479c-5.498,0.103-10.389-2.459-14.4-4.32c-2.69,1.181-5.678,2.157-9.6,0.96
		c-2.63-0.803-3.378-3.125-5.76-3.84c-1.581-0.475-3.761,0.259-5.28,0c-2.004-0.341-4.555-2.58-6.72-3.84
		c-2.26-1.315-3.122-1.554-3.84-4.32c-1.44,0-2.88,0-4.32,0c-0.54-1.38-1.009-2.832-1.92-3.84c-2.985,0.907-4.168,3.278-6.24,4.8
		c-3.87,2.842-8.975,4.331-12,8.64c-1.316,1.875-1.625,4.57-3.36,6.24c-3.108,2.989-8.87,3.846-12.96,5.76
		c-1.6,0.749-2.666,2.086-4.32,2.88c-5.071,0.271-8.908-0.691-12-2.4c-0.869-3.589,1.508-3.932,1.44-6.72
		c-0.726-1.451-2.106,0.398-3.36,0c-0.115-2.034,0.038-3.802,1.44-4.32c-2.296-2.504-3.638-5.962-4.8-9.6
		c-1.219-1.501-3.465-1.975-4.32-3.84c0.797-3.865-2.098-6.287,0-8.64c-0.686-1.074-1.541-1.979-2.4-2.88
		c-2.283-6.774-2.023-13.15-4.32-19.68c-0.142-1.618-2.128-1.392-2.4-2.88c-1.763-7.307-2.124-16.14-0.96-25.92
		c0.444-3.733,1.861-8.941,3.36-12c1.601-3.266,5.179-5.355,4.8-9.12c0.797-1.443,2.694-1.786,3.36-3.36
		c1.853-10.545,5.202-21.892,5.76-32.16c2.284-4.204,1.758-9.309,4.8-12.48c1.62-1.688,4.34-0.997,4.8-3.84
		c3.062,0.673,5.178-2.717,8.16-3.36c6.878-1.484,14.471-0.068,20.64,0.96C78.652,15.172,78.991,12.791,81.24,12.32z M262.2,83.36
		c6.671-4.105-1.512-9.75-0.48-16.8c-3.17-2.75-4.564-7.275-5.76-12c-1.632,0.012-4.223-0.55-6.24-1.44
		c-1.436,2.724-3.716,4.604-6.72,5.76c-5.493-1.006-7.475,3.562-13.92,2.4c0.343-1.284-0.848-0.566-1.44-0.96
		c-1.676-1.116-2.329-3.519-4.32-4.32c-3.278,0.562-4.484,3.195-7.2,4.32c-4.763-0.968-8.021,0.192-11.04,0.48
		c-1.383,0.132-3.156-0.613-4.8-0.48c-1.51,0.123-2.608,1.047-3.84,0.96c-1.222-0.087-2.591-1.025-4.32-1.44
		c-1.344-0.323-3.26-0.172-4.32-0.48c-1.118-0.324-2.263-1.673-3.36-1.92c-0.962-0.217-2.26,0.583-3.36,0.48
		c-0.563-0.052-0.677-0.722-1.44-0.96c-1.218-0.381-2.883-0.076-3.84-0.48c-3.212-1.355-4.766-4.462-7.2-4.8
		c-4.783-0.664-6.935,2.891-9.6,4.8c-1.947,1.394-3.808-0.496-6.72,0c-2.967,2.865-5.774,1.833-8.64,5.76
		c-1.782-0.35-3.844-0.618-4.8,0.96c2.233,0.928,6.57,1.355,8.64,0.96c3.741-3.461,11.307-5.651,18.24-4.32
		c-2.159,1.521-7.202,0.159-9.12,1.92c2.619,0.983,7.707,1.782,6.24,5.28c-1.764-2.462-7.356-5.466-11.52-4.32
		c-1.945,0.536-1.75,2.912-3.84,2.88c-1.65,0.21-2.69-0.19-3.84-0.48c1.229,1.661,4.285,4.021,2.88,6.72
		c-1.41-2.75-3.048-5.272-5.76-6.72c-1.177,0.422-2.768,0.432-2.88,1.92c-0.36,1.64,1.95,0.61,1.44,2.4
		c0.267,2.831,1.396,9.182,0,10.56c-1.553-2.267-0.327-5.733-0.96-9.6c-0.366-1.394-2.275-1.245-1.92-3.36
		c-0.407-2.007,1.3-1.9,1.92-2.88c-3.596-1.335-4.889,0.747-7.2,1.92c-3.196-3.164-8.987-6.234-13.92-3.84
		c4.661-0.822,5.987,1.692,9.6,1.92c2.31,4.89,8.328,6.072,10.56,11.04c-4.999-1.241-6.017-6.463-11.04-7.68c0-0.64,0-1.28,0-1.92
		c-3.919-0.315-6.543-3.434-9.6-1.92c-1.875-0.413-2.331-2.986-4.32-1.92c0.791,3.244-0.165,7.795-1.92,11.04
		c-1.131-0.011-1.413,0.827-2.88,0.48c0.221-3.38,0.034-6.013,1.44-7.2c1.426,1.614-0.268,4.191-0.48,5.76
		c2.479-0.881,1.789-4.931,3.36-6.72c-1.392-3.267-5.928-2.669-9.6-3.84c-0.343-0.109-0.508-1.248-0.96-1.44
		c-0.974-0.415-1.373,0.979-1.92,0c-0.974-2.825-3.317-5.96-3.84-9.6c-0.316-2.199,0.342-5.57,0-8.64
		c-0.754-6.757-3.229-13.79-0.96-19.68c-1.618-2.102-5.233-2.396-7.2-0.48c-2.253-2.191-3.058-1.933-6.24-0.96
		c-0.914-2.711-0.228-4.287-0.48-6.24c-3.884,3.119-2.852,11.314-8.16,12c-2.068,0.267-2.996-1.045-4.8-1.92
		c-1.357-0.658-3.25-1.011-4.32-2.4c3.74-1.403,5.14,3.429,9.6,2.88c2.337-1.343,2.549-4.811,3.84-7.2
		c-6.211-0.472-13.517-2.077-19.68-0.48c-0.906,0.235-2.188,1.65-3.84,2.4c-2.574,1.168-3.376,1.254-4.8,2.4
		c-3.773,3.035-5.292,3.714-6.72,8.64c-0.808,2.786-0.553,4.269-1.92,5.76c0.069,10.951-4.221,21.698-5.76,32.64
		c-0.988,1.252-2.57,1.91-3.36,3.36c0,0.96,0,1.92,0,2.88c-1.799-0.279-0.814,1.462-1.44,2.4c-0.77,1.153-2.227,1.62-2.88,2.88
		c-1.451,2.801-3.555,9.998-3.84,12.96c-0.138,1.427,0.561,3.183,0.48,4.8c-0.146,2.911-1.542,6.092-1.44,8.64
		c0.024,0.624,0.89,1.01,0.96,1.44c0.144,0.889-0.672,1.098-0.48,1.92c0.55,2.358,2.294,4.613,1.92,7.2
		c3.207,3.513,4.468,8.972,4.32,15.84c1.838,2.802,2.146,7.134,4.32,9.6c-1.082,3.232,1.045,5.106,0,8.16
		c5.229,2.611,5.986,9.693,9.6,13.92c0.2,1.097-2.498,2.995-0.48,2.88c2.976,0.901,4.272-3.182,6.24-4.8
		c-4.255-4.994,1.891-10.063,0.96-16.32c0.792-1.567,3.86-2.665,4.32-4.8c0.66-3.06-2.756-6.692-2.88-11.04
		c-0.043-1.508,0.557-3.132,0.48-4.32c-0.209-3.216-1.216-6.265-0.96-10.08c0.517-7.681,1.284-15.495,1.44-22.56
		c-3.796-0.585-5.29-1.747-9.6-0.96c-0.704,1.731,0.396,3.678,0.48,5.76c0.087,2.164,0.773,5.014-0.96,6.24
		c-0.587-3.726-1.183-8.937-0.48-12.48c-2.487-1.993-2.383-6.577-5.76-7.68c-0.731-2.309-0.872-5.208-2.4-6.72
		c-0.09,2.291-2.86,2.924-3.84,5.76c-1.31,3.792-0.128,9.658-4.8,9.12c-0.347-2.747,2.982-1.818,2.88-4.32
		c0.16-2.4,1.182-3.938,0.96-6.72c1.927-1.433,2.75-3.97,4.8-5.28c2.816,0.704,2.672,4.368,3.36,7.2
		c2.658,1.021,3.938,3.422,4.32,6.72C43,92,47.85,91.15,50.52,92.48c1.073-2.606,4.295-3.065,7.68-3.36
		c2.06-5.522,6.379-13.458,0-17.28c-2.265,0.935-3.936,1.285-4.32,3.36c-0.536,2.893,2.21,3.908,2.88,6.24
		c-3.735-0.424-4.411-3.909-4.32-8.16c2.225-0.976,3.269-3.132,6.72-2.88c2.057,2.263,4.18,4.46,3.84,9.12
		c4.338-0.782,5.976-4.264,9.6-5.76c0.771-4.709,2.938-6.385,1.92-12c0.658-1.102,1.977-1.543,2.88-2.4
		c0.64-0.8-0.174-3.054,1.44-2.88c0.97,4.49-2.705,4.335-3.36,7.2c0.695,2.202,0.602,4.241,0,5.76
		c-1.623,4.094-3.639,8.716-4.32,14.4c-0.342,2.855-4.21,5.269-4.8,7.2c0.352,3.551-0.537,5.863-0.48,9.12
		c1.176-0.424,1.761-1.439,3.84-0.96c1.911,6.897-2.886,10.127-3.36,14.4c-0.245,2.205,1.453,3.317,0.48,5.76
		c1.431,0.489,2.91,0.93,2.88,2.88c-0.641,5.76-6.239,8.357-3.36,14.88c-4.041,2.519-4.121,8.999-5.76,13.92
		c1.478,1.723,1.625,4.774,1.44,8.16c-1.778,1.422-3.748,2.652-6.24,3.36c-1.062,1.497-0.942,4.177-3.36,4.32
		c0.395-5.525,5.763-6.077,8.64-9.12c0.014-3.687-1.626-5.601-1.44-8.64c0.131-2.147,2.647-4.161,1.44-7.2
		c0.979-2.38,3.155-3.565,3.84-6.24c-3.454-5.812,3.582-8.263,3.36-13.92c-0.337-1.422-2.759-0.761-2.88-2.4
		c1.015-2.24-0.601-3.346-0.48-5.28c0.28-4.463,4.75-7.501,3.84-13.44c-0.817-1.095-3.066,2.97-4.32,1.44
		c0.281-7.399,0.592-14.768,5.28-17.76c-0.635-2.889,1.56-5.46,0.48-7.2c-1.817,2.183-5.1,2.9-7.68,4.32
		c-2.225,2.255-1.154,7.807-4.32,9.12c-2.156-0.236-3.597,0.243-5.28,0.48c-1.125,6.523-0.082,14.877-0.96,22.56
		c-0.524,4.585-0.247,7.689,0,12.48c0.125,2.42-0.357,4.854,0,6.72c0.584,3.05,3.06,5.298,2.88,8.16
		c-0.18,2.881-2.145,4.972-4.32,6.24c0.324,6.469-4.695,11.191-0.96,16.8c-3.682,2.398-5.416,6.744-7.2,11.04
		c6.505,5.517,16.583,1.565,17.28-6.72c5.209-2.791,9.205-6.795,11.04-12.96c-1.636-2.124,0.637-5.125-0.48-9.12
		c0.82-2.22,3.051-3.029,3.36-5.76c-0.362-1.558-3.098-0.742-3.36-2.4c-0.303-8.257,4.653-14.804,6.24-21.6
		c-0.328-0.952-2.859,0.299-2.4-1.44c0.312-6.319,4.383-13.6,5.28-20.64c0.638-5.008,0.072-9.871,0.48-13.92
		c0.255-2.523,0.128-5.656,1.92-6.72c-1.583,7.722-0.375,15.539-1.44,23.04c-0.159,1.122-1.098,1.712-1.44,2.88
		c-1.497,5.111-1.735,11.063-3.84,15.36c1.375-0.095,2.62-0.06,2.4,1.44c-1.038,7.922-5.448,12.472-6.24,20.64
		c0.394,1.366,2.865,0.655,3.36,1.92c1.022,4.364-2.914,6.195-3.36,9.12c-0.25,1.642,1.552,3.837,0.96,5.76
		c2.416-2.736,8.68-8.835,14.4-7.2c1.432,0.41,2.903,2.001,1.92,3.36c-5.912-6.286-11.528,3.058-16.8,4.8
		c-0.736,7.904-5.878,11.402-11.04,14.88c0.493,2.894-1.715,3.085-2.4,4.8c3.911-2.334,9.06-2.942,12-6.24
		c2.382-2.673,3.138-6.688,5.76-9.12c2.207-2.048,5.763-2.581,8.16-4.32c2.697-1.957,4.578-5.827,9.12-5.28
		c1.731,0.508,0.99,3.489,2.88,3.84c0.207-1.073,2.365-0.194,3.36-0.48c1.094,1.306,0.938,3.862,2.88,4.32
		c1.577-3.486,3.054-6.073,1.44-10.561c-0.854-0.287-1.993,1.407-2.4,0c0.364-1.236,1.532-1.667,3.36-1.439
		c0.072,2.647,1.47,3.97,1.44,6.72c-0.472,2.248-2.417,3.023-2.4,5.76c2.213,2.748,6.056,3.865,11.52,3.36
		c2.538,2.312,6.15,5.943,11.52,3.84c0-1.76,0-3.52,0-5.28c6.431-10.254,1.315-27.177,4.32-39.84c0.998,1.402,0.178,4.622,0.96,6.24
		c-3,5.472,0.725,13.22,0,20.64c-0.116,1.182-1.109,2.493-1.44,3.84c-0.489,1.993-0.08,4.426-0.48,6.24
		c-0.589,2.669-3.115,4.795-1.92,7.68c6.106-0.026,8.443,3.717,14.4,3.84c-0.072-2.648-1.258-4.182-2.4-5.76
		c1.428-6.601-0.804-14.556,1.92-19.2c-0.546-1.694-0.53-3.95-0.96-5.76c1.426-1.934,2.604-4.115,2.88-7.2
		c2.256,2.174,0.006,5.104-1.44,8.16c0.417,7.598-0.724,16.152-1.44,22.56c1.833,1.847,1.769,5.591,3.84,7.2
		c0.207-1.073,2.365-0.194,3.36-0.48c0.034-5.821-2.875-13.887,0.96-17.76c0.196-5.751-1.683-13.639,1.92-15.84
		c0.879-0.538,2.46,0.132,3.36,0c0.324,2.339-2.056,1.973-3.36,1.439c-1.955,4.849-0.67,9.633-0.48,15.84
		c-0.986,0.454-0.992,1.888-2.4,1.92c0.583,5.177,0.766,10.754,1.92,15.36c2.521-0.262,3.397,3.077,5.28,1.92
		c1.14-2.171-1.399-5.19,1.92-6.24c3.394,0.286,3.439,3.92,6.24,4.8c2.546-0.525,0.759-3.604,0.96-5.76
		c0.193-2.071,1.784-8.103,1.92-10.56c0.168-3.048-2.205-8.259,1.92-9.6c-1.43,7.833-2.48,17.071-1.44,24.48
		c4.074-2.006,4.223-7.937,7.68-10.56c1.714,0.846,3.708,1.412,5.76,1.92c0.782,1.979-1.992,8.333,1.92,7.2
		c2.113-1.514,0.005-4.444,0.48-7.2c-2.31-1.646-4.599-2.251-5.76-5.28c-0.981-2.559-0.594-6.51-0.96-10.08
		c-3.869-1.281-2.768-10.326-0.48-12.48c0.791-2.042-2.226-5.314,0.96-5.28c-0.67-2.797-4.041-2.713-4.8-6.24
		c-0.207-0.962,0.392-2.303,0.48-3.36c0.275-3.302-0.374-7.713,1.44-10.08c1.296,2.933-0.529,8.809-0.96,12.96
		c1.492,2.668,4.911,3.41,5.28,7.2c-0.195,1.621-1.861-1.277-1.44,0.96c0.795,5.755-2.388,7.532-1.44,13.44
		c1.023,0.582,1.473,1.25,1.92,2.4c1.389,3.575,0.072,10.6,2.88,12.96c1.122,0.943,2.56-0.543,3.36,1.44
		c0.933,1.467,1.096,3.704,0.96,6.24c1.994-1.686,3.632-3.728,6.24-4.8c-0.091-5.945,2.458-9.827,1.44-15.36
		c2.324-2.806-0.235-7.818,1.44-10.08c2.417,8.316-1.021,15.542-1.44,24c1.821,0.614,3.046,0.406,4.8,0.48
		c0.805,0.034,1.526,0.973,1.92,0.96c0.76-0.025,3.257-2.667,4.8-0.96c0.591-3.659-1.221-5.555-1.92-7.2
		c-1.871-4.399,0.029-13.59-1.44-17.76c1.8-2.041,1.771-5.909,3.84-7.68c0.055-3.465,0.793-6.247,0.48-10.08
		c-0.916-1.296-3.009-6.09-0.96-7.2c2.28,4.743,1.776,12.854,1.92,18.72c-5.946,4.504-2.566,14.08-2.88,23.04
		c3.68,0.917-0.34,8.779,4.32,9.6c-0.565-3.728-0.227-9.438-0.48-14.88c-0.19-4.078-2.292-10.055,0.48-11.52
		c0.414,9.13,0.454,15.793,0.96,24.96c3.417,2.173,7.323,6.812,12,4.8c0.433-3.153-1.03-4.41-3.36-4.8
		c-0.352-2.688-1.38-4.7-2.88-6.24c0.484-2.884-0.705-4.096-0.96-6.24c-0.171-1.462,1.211-2.565,1.44-4.32
		c0.738-5.653-4.368-16.201,2.88-15.36c-0.134,1.466-2.146,1.054-2.4,2.4c-1.46,5.352,2.238,11.774-0.48,16.8
		c0.301,2.096,1.702,4.013,0.48,6.24c1.879,1,3.185,2.575,2.88,5.76c2.12,0.12,3.189,1.29,3.84,2.88
		c0.821-0.779,1.747-1.453,3.36-1.44c3.801,2.439,5.66,6.82,10.56,8.16c-1.792-6.898,1.119-10.078,0-17.76
		c-1.528-0.712-3.829-0.651-4.32-2.4c-0.854-2.964-1.868-4.191-2.4-8.16c1.398,1.801,3.34,3.06,2.88,6.72
		c1.057,1.823,4.127,1.633,5.28,3.36c-1.203,2.63-0.014,5.763,0.48,8.16c-2.243,2.672-0.69,7.803-0.96,10.56
		c2.98-0.045,5.644-1.928,8.64-0.48c2.306-2.334,6.951-2.329,9.12-4.8c-0.13-1.89,0.185-3.335,1.44-3.84
		c1.168-0.928,4.016-0.462,5.28,0c2.816-5.824,2.962-14.318,11.521-14.4c2.763-1.972,3.966-5.635,5.76-9.12
		c1.518-2.946,3.253-7.565,6.72-7.2c-1.037,2.36-3.424,3.203-4.8,5.76c-1.302,2.418-1.428,5.478-2.88,7.68
		c-0.236,0.358-0.953,0.806-1.44,1.44c-1.459,1.903-3.308,3.2-6.24,2.88c-3.973,2.747-5.364,8.075-7.2,12.96
		c2.999-1.428,5.502,1.059,8.64,1.439c1.469,0.179,3.301-0.653,4.8-0.479c1.591,0.184,3.188,1.595,4.801,1.92
		c1.871,0.377,4.901,0.484,7.199,0.48c3.809-0.007,8.549,0.218,12.96,0c3.288-0.163,6.696-1.646,10.08-1.92
		c4.492-0.363,9.102,0.475,12,0c4.771-0.781,7.879-4.602,12-5.28c6.887-7.1,18.974-16.231,34.08-14.88
		c3.262,0.292,7.293,1.836,11.04,2.88c3.225,0.898,9.947,0.235,8.641,4.8c-2.478-3.011-7.102-3.347-11.04-4.32
		c-4.416-1.091-9.054-2.671-13.44-2.4c-1.646,0.102-3.443,1.172-5.28,1.44c-6.551,0.955-8.56,2.858-12.96,5.76
		c-3.431,2.263-7.452,3.832-9.12,6.72c10.625,3.558,23.192-0.167,35.521,0c1.168,0.016,1.77,0.564,2.88,0.48
		c7.977-0.605,14.223-4.457,20.64-5.28c8.833-1.132,16.952-0.293,24.48-0.96c4.687-0.416,8.751-3.225,13.439-4.32
		c2.12-0.495,4.356-0.028,6.24-0.48c2.85-0.684,4.922-2.605,7.681-2.88c6.262-0.622,12.133,0.414,17.76-0.48
		c2.223-0.353,3.761-2.125,6.24-1.44c4.02-3.346,9.341-2.894,13.439-5.28c1.688-0.982,2.7-2.783,4.32-3.84
		c4.339-2.83,10.142-2.833,13.92-6.72c-4.409-0.716-8.71-5.845-12.96-6.72c-2.598-0.535-8.096,0.091-8.16-3.36
		c2.918,1.562,7.028,1.932,10.56,2.88c3.686,0.953,8.194,6.645,12,6.24c4.685-0.498,7.511-9.704,8.641-13.92
		c-3.272-2.808-6.241-5.918-9.601-8.64c-3.024,7.732-16.419,8.995-23.52,9.6c1.669-3.123,6.958-1.528,10.56-2.4
		c6.391-1.546,10.883-5.007,12.96-10.08c-3.222-1.927-5.802-5.939-10.56-6.24c-1.471-0.093-3.184,0.872-4.8,0.96
		c-8.089,0.44-17.614-3.459-26.4-2.88c-1.388,1.738,1.684,2.225,0.96,4.8c-1.181,3.299-2.625,6.334-5.28,8.16
		c-2.35-0.301-4.723,1.73-7.199,1.92c-2.213,0.169-4.466-0.893-6.721-0.96c-3.951-0.118-8.485,0.659-12.96,0.48
		c-11.655-0.467-22.628-0.467-28.8,2.88c-2.322,1.259-3.621,4.125-6.24,3.84c6.205-7.97,20.9-9.889,35.04-8.16
		c1.305,0.159,2.532,0.95,3.84,0.96c5.149,0.039,10.671-2.338,14.881,0c2.418-1.102,5.361-1.678,8.159-2.4
		c1.553-2.761,4.746-5.373,3.36-9.6c-5.284-2.598-15.729-3.346-23.52-1.44c-1.264,0.309-2.183,1.316-3.36,1.44
		c-2.702,0.284-4.787-0.834-7.68-0.96c-6.515-0.282-13.614,0.188-20.641-0.48c-2.504-0.238-4.566,0.003-6.72,0
		c-4.82-0.007-9.839-2.5-15.36-2.4c-10.977,0.2-20.515,4.664-30.72,3.36c-3.604-0.46-6.563-3.18-10.56-1.44
		c5.143,2.416,7.211,8.545,11.52,11.52c2.486,1.716,5.699,1.929,7.68,3.84c1.161,1.12,1.317,2.999,2.4,4.32
		c1.129,1.377,3.057,2.542,4.32,3.84c1.423,1.464,2.748,2.894,3.84,4.32c1.374,1.795,2.172,4.294,3.84,6.24
		c1.711,1.996,4.755,3.061,6.24,5.28c4.233-1.979,6.324,2.855,9.6,3.36c4.733,0.729,12.57-3.37,16.8-3.84
		c6.149-0.683,12.453,1.151,16.32,0.48c4.896-0.85,11.219-2.051,13.92-3.36c7.245-3.51,14.649-9.073,24.48-7.2
		c-6.613,0.853-11.564,2.402-16.32,4.32c-2.902,1.171-5.31,3.163-8.16,4.32c-2.729,1.108-6.567,1.101-10.08,1.92
		c-1.598,0.373-2.818,1.312-4.319,1.44c-4.14,0.352-9.139-1.349-14.4-0.96c-6.192,0.458-12.847,4.807-20.16,3.84
		c-2.334-1.666-3.911-4.089-8.64-3.36c-1.946-2.133-4.843-3.359-6.721-5.76c-1.295-1.657-1.899-4.409-3.359-6.24
		c-2.604-3.268-6.722-5.405-9.12-8.64c-0.671-0.904-0.655-2.091-1.44-2.88c-1.894-1.904-4.396-2.084-7.199-3.84
		c-4.729-2.961-7.051-9.223-10.561-11.52c-1.093-0.715-3.327-1.509-4.8-1.92c-5.217-1.456-12.812-0.96-18.72-0.48
		c1.981,5.89,8.043,8.978,11.52,13.44c1.672,2.145,0.309,5.364,0.96,8.64c0.325,1.634,2.724,2.091,0.96,3.36
		c-3.498-1.346-1.772-5.534-1.92-9.6c-2.012-2.308-3.991-4.649-6.72-6.24c-2.244-3.196-4.535-6.345-7.2-9.12
		c-3.518-0.301-4.684,2.143-7.2,2.4c-6.888,0.705-8.457-4.306-12.479-7.2c-0.65-0.468-1.606-0.5-2.4-0.96
		c-2.484-1.438-4.197-3.877-6.24-4.8c-6.431,2.592-13.054-1.643-18.24-3.36c0.154,3.045-0.406,6.806,0.48,9.12
		c1.807,1.675,4.693,1.145,7.68,1.44c10.007,0.989,19.916,5.107,24.961,10.08c1.839,1.813,3.941,2.838,5.279,4.8
		c-4.731,0.188-5.966-4.582-9.12-6.72c-0.955-0.647-2.942-1.155-4.319-1.92c-3.274-1.819-4.684-2.021-9.12-2.88
		c-3.341-0.647-6.643-2.127-9.601-2.4c-3.912-0.361-5.739,0.259-7.2-2.4c-0.951-2.889-0.281-7.399-0.48-11.04
		c-2.15-1.05-3.652-2.748-5.76-3.84c0.225,5.215,3.979,6.9,2.88,13.44c-1.143,1.258-2.698,2.103-3.84,3.36
		c0.724,3.435,0.359,6.479,0.96,10.08c0.821,4.922,3.942,9.756,3.36,14.4c-0.273,2.181-2.538,3.769-2.88,5.76
		c-0.672,3.908,1.489,7.904,1.92,12c0.73,6.932,0.143,11.62-5.28,15.36c-0.504,1.896-0.517,4.283-1.92,5.28
		c-1.374-2.236,0.922-4.357,0.96-6.72c9.844-4.125,2.031-19.804,3.36-27.36c6.136-8.387-3.794-20.087-1.44-30.72
		c-2.344-1.092-4.038-0.282-6.24-0.96c0.954-8.474-4.24-10.8-8.64-13.92c-2.029,0.531-3.047,2.073-5.28,2.4
		c-1.468-0.202-3.065-3.504-0.96-4.32c0.824,0.616,0.01,2.87,1.44,2.88c7.188-5.237,16.167,3.739,14.4,12
		c1.998-0.501,4.653-0.639,5.28,1.44C261.346,83.254,261.642,83.438,262.2,83.36z M172.92,164c0.832-0.396,3.919-1.425,6.24-0.48
		c-0.278-1.558,0.327-2.233,0.48-3.36c-2.746,0.665-3.06-1.101-4.8-1.44C174.956,160.933,171.795,162.374,172.92,164z
		 M157.56,169.76c1.275-0.005,2.741,0.182,3.36-0.479c-0.358-1.882-2.066-2.414-3.36-3.36
		C156.608,166.865,157.254,168.662,157.56,169.76z"/>
	<path fill-rule="evenodd" clip-rule="evenodd" d="M151.8,71.36c0.8,0,1.6,0,2.4,0c-0.153,4.077,7.504,7.875,1.44,10.56
		c-0.417-1.856,0.803-2.077,1.44-2.88c-1.03-1.69-3.42-2.02-3.36-4.8c-0.9,1.02-0.307,3.533-1.44,4.32
		c-0.225,1.504,1.207,1.353,1.92,1.92C149.834,83.58,152.029,74.983,151.8,71.36z"/>
	<path fill-rule="evenodd" clip-rule="evenodd" d="M181.08,78.08c-0.975,4.145-1.303,8.937-4.32,11.04
		C178.185,85.857,175.499,76.544,181.08,78.08z M179.16,81.44C180.544,78.659,177.976,80.177,179.16,81.44L179.16,81.44z"/>
	<path fill-rule="evenodd" clip-rule="evenodd" d="M116.28,92c1.89,4.195-3.213,11.215-0.48,15.84
		c1.588,2.687,5.018,4.031,5.28-1.44c1.567-2.113,3.985-3.375,4.32-6.72c2.869-0.491,3.934-2.787,6.72-3.36
		c-0.535,2.345-2.395,3.365-4.8,3.84c-1.219,3.74-4.937,4.983-5.28,9.6c-2.525,1.955-5.57,3.39-7.68,5.76
		c0.134,4.614-2.415,6.545-4.32,9.12c-0.324,5.215,0.338,8.478-3.84,9.6c-0.158-3.029,1.049-4.781-0.48-6.72
		c-3.84,3.151-8.034,9.375-5.28,14.88c-2.159,1.521-4.306,3.054-5.28,5.76c-2.652-2.153,1.886-5.051,3.36-6.24
		c0.548-1.407,0.283-1.783-0.96-2.4c1.703-5.497,3.105-11.294,8.16-13.44c1.399,0.681,2.539,1.621,2.4,3.84
		c-0.469-7.028,4.564-8.555,4.8-14.88c1.278-1.122,1.806-2.995,3.84-3.36c-6.22-4.226-1.658-12.279-1.44-18.24
		c-2.475,3.125-3.159,8.041-3.36,13.44c-3.244,1.876-2.338,7.902-5.28,10.08c-0.524,2.604,0.968,3.191,0.96,5.28
		c-4.536-1.577-1.736-9.162,0.96-10.561c-0.626-3.506,1.01-4.749,2.4-6.24c-0.004-5.444,0.979-9.901,2.88-13.44
		C114.68,92,115.48,92,116.28,92z"/>
	<path fill-rule="evenodd" clip-rule="evenodd" d="M458.52,374.72c0.171,2.841,2.714,11.228-1.439,12
		c-1.089-1.103,2.361-4.808-1.44-4.8C455.396,378.213,454.6,375.064,458.52,374.72z"/>
</g>
</svg>
