<?xml version="1.0" encoding="utf-8"?>
<!-- Generator: Adobe Illustrator 15.0.0, SVG Export Plug-In . SVG Version: 6.00 Build 0)  -->
<!DOCTYPE svg PUBLIC "-//W3C//DTD SVG 1.1//EN" "http://www.w3.org/Graphics/SVG/1.1/DTD/svg11.dtd">
<svg version="1.1" id="Capa_1" xmlns="http://www.w3.org/2000/svg" xmlns:xlink="http://www.w3.org/1999/xlink" x="0px" y="0px"
	 width="317px" height="363px" viewBox="0 0 317 363" enable-background="new 0 0 317 363" xml:space="preserve">
<g>
	<path fill-rule="evenodd" clip-rule="evenodd" fill="#FFFFFF" d="M-0.76,1c105.677,0,211.363,0,317.04,0
		c0,120.319,0,240.644,0,360.96C210.603,361.8,104.274,362.28-1,361.72c0-120.004,0-239.992,0-360C-1.021,1.379-1.04,1.041-0.76,1z
		 M308.36,118.36c0.56-2.531-0.538-5.971-0.721-8.64c-0.21-3.084-0.191-6.253-0.72-8.88c-2-9.943-7.92-19.686-6.72-30
		c-2.423-4.744-1.854-9.461-2.88-15.12c-0.597-3.29-2.002-6.884-3.36-9.84c-1.346-2.928-3.748-5.412-4.56-8.4
		c-0.206-0.757,0.009-1.491-0.24-2.16c-1.066-2.858-3.268-3.677-5.04-5.52c-1.269-1.318-2.054-3.156-3.36-4.56
		c-1.292-1.39-2.905-2.467-4.319-3.84c-2.853-2.77-4.943-6.502-7.681-8.64c-5.168-4.036-13.307-5.713-22.56-5.04
		c-1.061,0.078-2.173,0.408-3.36,0.48c-6.964,0.422-14.642-2.1-21.359-1.44c-9.38,0.921-15.421,6.049-22.561,10.32
		c-2.507,1.5-5.182,2.888-7.68,4.32c-2.696,1.545-5.729,2.667-7.92,4.32c-5.424,4.094-7.953,9.291-11.761,14.64
		c-1.995,2.804-4.315,6.132-6.72,8.16c-3.516,2.965-7.553,3.294-12.24,5.04c-5.06,1.884-10.189,5.193-15.84,7.2
		c-5.64,2.003-11.298,3.979-17.04,6c-5.317,1.872-11.132,3.421-17.52,5.521c-7.181,2.359-18.49,3.789-17.52,12.96
		c1.477,1.952,6.351,1.553,9.36,1.2c-2.637,2.668-6.104,4.366-8.64,7.2c-3.597,4.02-5.347,9.498-8.4,14.88
		c-2.881,5.079-6.004,10.604-7.44,15.84c-1.27,4.63-1.489,10.733-4.32,13.44c-3.661,1.234-3.929,3.605-6.24,6.24
		c-3.506,3.997-8.23,7.888-12.96,11.76c-2.438,1.996-4.243,4.222-6.48,6c-2.46,1.955-5.194,2.747-8.16,4.32
		c-1.351,0.717-2.799,2.003-4.32,2.88c-1.601,0.922-3.554,1.452-4.8,2.4c-3.205,2.439-4.677,8.424-1.92,11.76
		c-3.85,6.311-7.825,12.494-11.28,19.2c-0.878,3.175-3.158,6.375-1.92,9.6c4.511,2.364,7.114-1.44,9.12-4.08
		c4.522-5.949,8.26-13.271,14.16-16.319c-0.09,1.449,0.29,2.43,0.96,3.119c9.64,1.205,10.747-6.494,17.04-9.359
		c2.371-1.08,9.742-1.558,13.68-1.2c8.922,0.81,15.807,2.721,20.4,6.479c1.63,3.811,4.747,6.134,5.76,10.561
		c-0.141,0.918-0.974,2.088-0.48,2.88c1.349,2.59,4.303,2.761,6.72,4.32c2.188,1.411,3.687,3.821,6,5.279
		c1.091,0.688,2.532,0.994,3.84,1.681c1.191,0.625,2.249,1.9,3.36,2.399c0.983,0.442,2.16,0.284,3.12,0.72
		c1.12,0.51,1.915,1.81,3.12,2.4c1.381,0.677,2.932,0.694,4.32,1.44c2.562,1.377,5.887,4.435,8.88,5.04
		c2.354,0.476,4.65-0.164,6.72,0.24c1.819,0.354,3.653,1.714,5.52,2.399c1.917,0.704,3.964,1.394,6.48,1.44
		c1.561,0.028,3.161-0.44,4.8-0.24c3.991,0.487,7.036,2.73,11.52,1.92c3.726-0.674,8.064-3.951,11.28-6.24
		c5.335-3.797,9.545-6.922,15.119-9.6c1.896,1.827,3.961,5.522,6.721,5.279c2.396-0.211,2.723-3.64,4.8-4.8
		c3.314,6.284,10.729,0.107,12.479-3.6c0.979-2.071,2.824-8.675,2.641-11.04c-0.124-1.593-1.654-2.664-1.44-4.32
		c0.213-1.647,3.018-2.999,3.601-3.84c0.729-1.055,0.757-2.582,1.439-3.6c2.021-3.016,4.777-4.817,6.72-6.96
		c5.646,1.89,7.962-2.858,9.601-6.48c2.711,0.964,4.337-2.7,8.64-1.68c3.258,1.933,7.148,5.549,11.76,4.08
		c1.316-0.419,2.859-2.851,4.32-4.32c1.687-1.695,3.455-2.796,4.561-4.08c2.184-2.538,4.03-6.31,6.239-9.6
		c2.558-3.809,6.178-5.433,6.721-9.84c8.075,4.811,18.852,4.654,24-1.92c1.121-1.432,2.017-3.411,3.119-5.04
		c1.211-1.787,2.355-3.646,2.881-5.28c0.774-2.413-0.209-6.433-0.48-9.84c-0.316-3.967-0.179-4.967-1.92-7.2
		C306.118,121.368,307.918,120.357,308.36,118.36z M94.52,301.72c-2.477,2.367-5.59,4.548-6.96,7.2
		c-0.688,1.332-0.726,2.835-1.44,4.08c-0.799,1.393-1.993,2.692-2.88,4.08c-0.915,1.431-1.67,3.056-2.64,4.32
		c-2.447,3.188-5.886,5.35-8.16,8.64c-1.44,2.084-4.776,8.526-2.88,11.28c2.538,3.687,10.03-0.704,11.76-0.96
		c2.854-0.423,6.222-0.216,8.88,0c7.945,0.643,15.541,3.543,22.32,5.04c3.259,0.719,6.453,2.043,9.36,2.399
		c4.667,0.573,9.452-0.41,14.16,0c2.203,0.192,4.289,1.034,6.48,1.2c8.206,0.623,15.292,0.607,21.84,2.4
		c1.967,0.538,3.681,1.771,5.76,2.399c10.005,3.021,22.165,0.044,32.16-1.68c8.302-1.432,16.193-3.191,23.279-6.24
		c3.335-1.435,6.625-4.15,10.08-6c8.891-4.758,17.238-9.458,24.48-15.6c1.522-1.292,3.537-2.498,4.56-3.601
		c1.72-1.853,3.095-5.317,4.561-7.92c3.714-6.594,7.709-11.691,9.6-20.16c1.715-7.684,3.939-13.88,4.561-22.8
		c0.229-3.296,0.371-6.731,0.239-9.84c-0.27-6.408-1.727-12.678-2.159-18.72c-0.123-1.713,0.155-3.406-0.24-5.04
		c-1.22-5.027-6.199-8.823-9.12-13.92c-2.626-4.582-5.001-10.165-7.92-14.641c-1.102-1.689-3.51-3.542-4.32-5.279
		c-0.254-0.544-0.204-1.481-0.479-2.16c-0.327-0.804-0.804-1.283-0.96-1.92c-0.313-1.272,0.124-3.237-0.24-4.8
		c-1.224-5.246-9.195-10.578-17.28-9.12c-2.777,0.5-11.208,6.353-12.72,9.12c-0.598,1.093-2.497,6.42-2.4,7.439
		c0.137,1.437,1.888,2.402,2.16,4.08c0.441,2.718-0.229,6.369-0.96,8.88c-1.27,4.366-5.38,8.247-8.4,10.08
		c-1.678,1.019-5.964,3.868-9.84,3.12c-3.812-0.736-3.993-5.362-8.16-5.52c-2.402-0.092-3.654,1.903-5.279,3.6
		c-3.34,3.485-5.851,5.623-8.88,8.88c-1.367,1.47-3.331,3.44-4.08,4.8c-1.604,2.91-3.708,11.406-3.12,15.36
		c0.302,2.035,1.815,4.397,2.88,5.76c3.573,4.575,9.725,7.024,9.36,15.6c-6.529,0.729-14.466,2.887-21.601,1.2
		c-1.318-0.312-2.56-1.453-3.84-1.68c-1.548-0.273-3.543,0.318-5.04,0c-1.88-0.399-2.413-1.978-4.08-2.4
		c-3.367-0.854-7.811,0.055-11.76,0c-3.285-0.045-6.023-1.858-9.12-2.88c-2.626-0.866-6.932-2.237-8.64-0.96
		c-1.77,1.323-0.712,5.547-1.2,7.2c-3.695,1.505-6.645,3.756-7.92,7.68C110.528,289.418,101.558,294.995,94.52,301.72z"/>
	<path fill-rule="evenodd" clip-rule="evenodd" d="M305,123.16c1.741,2.233,1.604,3.233,1.92,7.2c0.271,3.408,1.255,7.428,0.48,9.84
		c-0.525,1.633-1.67,3.493-2.881,5.28c-1.103,1.629-1.998,3.608-3.119,5.04c-5.148,6.574-15.925,6.73-24,1.92
		c-0.543,4.408-4.163,6.032-6.721,9.84c-2.209,3.29-4.056,7.062-6.239,9.6c-1.105,1.284-2.874,2.385-4.561,4.08
		c-1.461,1.469-3.004,3.901-4.32,4.32c-4.611,1.469-8.502-2.147-11.76-4.08c-4.303-1.021-5.929,2.644-8.64,1.68
		c-1.639,3.622-3.955,8.37-9.601,6.48c-1.942,2.143-4.698,3.944-6.72,6.96c-0.683,1.018-0.71,2.545-1.439,3.6
		c-0.583,0.841-3.388,2.192-3.601,3.84c-0.214,1.656,1.316,2.728,1.44,4.32c0.184,2.365-1.662,8.969-2.641,11.04
		c-1.751,3.707-9.165,9.884-12.479,3.6c-2.077,1.16-2.403,4.589-4.8,4.8c-2.76,0.243-4.825-3.452-6.721-5.279
		c-5.574,2.678-9.784,5.803-15.119,9.6c-3.216,2.289-7.555,5.566-11.28,6.24c-4.484,0.811-7.529-1.433-11.52-1.92
		c-1.639-0.2-3.24,0.269-4.8,0.24c-2.516-0.047-4.562-0.736-6.48-1.44c-1.867-0.686-3.701-2.046-5.52-2.399
		c-2.069-0.404-4.366,0.235-6.72-0.24c-2.994-0.605-6.318-3.663-8.88-5.04c-1.388-0.746-2.938-0.764-4.32-1.44
		c-1.205-0.591-2-1.891-3.12-2.4c-0.96-0.436-2.136-0.277-3.12-0.72c-1.112-0.499-2.169-1.774-3.36-2.399
		c-1.308-0.687-2.749-0.992-3.84-1.681c-2.313-1.458-3.812-3.868-6-5.279c-2.417-1.56-5.371-1.73-6.72-4.32
		c-0.494-0.792,0.339-1.962,0.48-2.88c-1.013-4.427-4.13-6.75-5.76-10.561c-4.593-3.759-11.478-5.67-20.4-6.479
		c-3.938-0.357-11.31,0.12-13.68,1.2c-6.293,2.865-7.4,10.564-17.04,9.359c-0.67-0.689-1.05-1.67-0.96-3.119
		c-5.9,3.049-9.638,10.37-14.16,16.319c-2.005,2.64-4.609,6.444-9.12,4.08c-1.238-3.225,1.042-6.425,1.92-9.6
		c3.455-6.706,7.43-12.89,11.28-19.2c-2.757-3.336-1.285-9.321,1.92-11.76c1.246-0.948,3.2-1.478,4.8-2.4
		c1.521-0.877,2.969-2.163,4.32-2.88c2.966-1.573,5.7-2.365,8.16-4.32c2.237-1.778,4.042-4.004,6.48-6
		c4.729-3.872,9.454-7.763,12.96-11.76c2.311-2.635,2.579-5.006,6.24-6.24c2.831-2.707,3.05-8.81,4.32-13.44
		c1.436-5.236,4.559-10.761,7.44-15.84c3.053-5.382,4.803-10.86,8.4-14.88c2.537-2.834,6.003-4.532,8.64-7.2
		c-3.009,0.353-7.883,0.752-9.36-1.2C83.71,76.069,95.02,74.64,102.2,72.28c6.388-2.1,12.203-3.648,17.52-5.521
		c5.741-2.021,11.4-3.997,17.04-6c5.651-2.006,10.781-5.315,15.84-7.2c4.687-1.746,8.724-2.075,12.24-5.04
		c2.404-2.028,4.725-5.356,6.72-8.16c3.808-5.35,6.337-10.546,11.761-14.64c2.19-1.653,5.224-2.774,7.92-4.32
		c2.498-1.432,5.173-2.82,7.68-4.32c7.14-4.271,13.181-9.399,22.561-10.32c6.718-0.66,14.396,1.862,21.359,1.44
		c1.188-0.072,2.3-0.403,3.36-0.48c9.253-0.673,17.392,1.004,22.56,5.04c2.737,2.138,4.828,5.871,7.681,8.64
		c1.414,1.374,3.027,2.451,4.319,3.84c1.307,1.404,2.092,3.242,3.36,4.56c1.772,1.843,3.974,2.662,5.04,5.52
		c0.249,0.669,0.034,1.403,0.24,2.16c0.812,2.988,3.214,5.472,4.56,8.4c1.358,2.956,2.764,6.55,3.36,9.84
		c1.025,5.659,0.457,10.376,2.88,15.12c-1.2,10.314,4.72,20.057,6.72,30c0.528,2.626,0.51,5.795,0.72,8.88
		c0.183,2.669,1.28,6.109,0.721,8.64C307.918,120.357,306.118,121.368,305,123.16z M294.92,56.92
		c-0.869-6.87-5.94-12.477-7.92-18.48c-0.605-1.834-0.64-3.343-1.68-4.56c-0.754-0.882-2.005-1.212-3.12-2.4
		c-1.348-1.435-2.399-3.282-3.84-4.8c-1.362-1.435-3.161-2.594-4.561-4.08c-2.422-2.572-4.366-6.139-6.72-7.92
		c-5.514-4.173-13.169-4.694-22.32-4.08c-8.413,0.564-16.558-1.999-23.52-1.2c-6.033,0.692-9.519,3.335-13.681,5.52
		c-7.844,4.118-14.624,8.968-22.56,12.72c-5.02,3.985-7.82,9.23-11.52,14.4c-1.993,2.785-4.271,6.146-6.961,8.4
		c-3.174,2.66-7.805,3.959-12.239,5.52c-13.004,4.577-25.514,11.545-38.88,14.88c-0.412,1.269-1.044,2.315-1.2,3.84
		c-1.89,1.387-2.775,6.08-6,4.56c0.106-3.334,4.13-4.028,3.6-7.2c-4.234,1.571-9.497,2.75-14.16,4.08
		c-4.344,1.239-9.607,3.091-10.56,7.68c3.806,1.442,8.713-1.525,11.28,0.24c1.031,2.952-3.2,4.82-5.04,6.24
		c-2.187,1.687-4.551,3.442-6,5.04c-3.256,3.591-4.554,8.35-6.96,12.96c-2.264,4.338-5.23,8.183-6.96,12.72
		c-2.838,7.444-2.305,17.932-9.36,20.4c-3.167,4.772-7.657,8.886-12.24,12.96c-4.349,3.866-8.757,8.341-13.68,11.52
		c-1.674,1.081-3.532,1.501-5.28,2.4c-1.253,0.645-2.516,1.861-3.84,2.64c-3.7,2.176-8.635,3.431-7.44,9.12
		c2.243,0.717,4.158,1.762,5.28,3.6c5.395-0.354,5.719,4.362,6.48,8.641c6.876-0.185,8.69-7.35,14.4-9.601
		c4.028-1.588,11.009-1.376,15.6-0.96c8.488,0.771,17.26,3.111,21.6,7.681c1.295,3.824,4.63,5.609,5.28,10.08
		c2.274,1.91,5.421,0.887,8.4,1.68c0.98,0.261,1.846,1.153,2.88,1.439c2.002,0.555,3.885,0.158,5.52,0.48
		c4.361,0.858,6.771,4.749,8.88,7.92c4.456,1.218,8.143-1.473,11.28-1.68c1.857-0.123,2.46,1.808,4.08,2.16
		c1.911,0.415,4.704-1.488,6.72-0.961c1.704,0.446,2.569,3.086,4.08,3.36c1.929,0.352,4.135-1.176,6.72-0.96
		c2.087,0.175,4.514,2.629,6.24,2.641c1.778,0.012,2.997-1.632,4.8-1.44c2.818,0.299,3.901,2.508,6.96,2.399
		c1.603-0.807,2.998-3.094,5.521-3.6c2.256-0.453,6.632,0.802,10.319,0.48c1.542-0.135,3.016-0.779,4.08-0.721
		c1.322,0.073,2.602,1.238,3.601,0.721c0.675-2.872-1.107-5.568-0.24-8.881c0.29-1.108,1.263-2.016,1.44-3.119
		c0.819-5.122-2.194-6.174-4.08-8.641c0.017-2.941-2.857-4.345-3.36-7.199c-0.312-1.773,0.54-4.067-0.48-6
		c-1.932-0.868-6.155,0.846-5.52-1.92c0.274-1.192,3.806-1.323,5.52-0.96c4.416,0.935,1.706,4.799,3.12,9.12
		c0.784,2.395,4.083,3.648,3.12,6c2.813,1.83,5.198,5.651,4.32,10.32c-0.244,1.299-1.476,2.392-1.68,3.6
		c-0.417,2.465,1.187,4.458,0.96,6.96c-0.132,1.45-1.544,2.828-1.681,4.08c0.725,1.356,1.981,2.18,3.36,2.88
		c1.499-1.196,1.868-3.45,3.6-4.079c2.916-1.061,3.829,1.55,6.24,2.64c1.323-0.837,2.396-1.925,3.36-3.12
		c-3.043-0.583-0.994-4.001,2.16-3.12c1.051-2.629,1.752-5.607,2.159-8.88c-2.945-3.271-0.486-8.305,2.641-9.6
		c0.016-1.665,1.186-2.175,1.439-3.601c1.109-0.526,1.675-2.017,2.641-3.12c0.8-0.915,2.679-1.827,2.16-2.64
		c-8.633,0.072-17.685,0.564-22.801-2.88c-0.506,1.61-1.729,2.415-1.92,3.84c-0.132,0.984,0.052,4.632,0.24,5.52
		c0.356,1.678,1.958,2.861,2.16,4.561c0.186,1.566-0.648,3.41-0.24,5.04c0.341,1.361,1.613,1.941,1.92,3.12
		c0.402,1.545,0.315,3.364-0.479,5.279c-0.262,0.63-5.213,6.386-6,3.12c-0.427-1.769,2.914-2.663,3.6-4.08
		c1.689-3.489-1.25-4.491-1.68-7.68c-0.206-1.522,0.499-3.228,0.239-4.8c-0.289-1.757-1.906-2.896-2.159-4.561
		c-0.11-0.72,0.261-1.521,0.239-2.399c-0.035-1.461-0.707-2.934-0.479-4.08c0.326-1.645,2.624-2.987,2.16-4.56
		c-2.387-0.509-5.642,1.008-6.721-0.48c0.363-2.571,4.641-2.609,6.96-2.16c2.035,0.394,3.971,2.628,6.48,3.6
		c6.074,2.351,13.328,0.413,20.88,0.72c1.148,0.852,3.168,0.832,5.04,0.96c2.322-1.927,4.839-4.909,3.84-9.36
		c-5.579,0.396-9.514,2.958-15.12,3.36c-7.919,0.567-16.704-0.37-21.359-4.08c-2.673-2.13-5.928-5.508-7.2-8.4
		c-0.68-1.545-1.684-5.136-1.2-6.96c0.712-2.686,5.959-4.299,9.84-3.6c1.393,0.251,2.176,1.347,3.36,1.68
		c5.776,1.625,9.349-1.89,13.68-2.4c0.792-0.706,2.416-2.392,3.601-1.2c0.099,3.651-4.07,3.696-7.2,4.8
		c-3.261,1.149-7.369,2.599-11.521,1.2c-0.949-0.32-1.654-1.262-2.64-1.44c-2.632-0.475-6.052,0.472-6.48,1.92
		c-0.442,1.498,0.519,4.038,0.961,5.04c0.917,2.082,3.568,4.716,5.52,6.48c4.162,3.765,13.489,4.984,21.36,4.32
		c6.075-0.513,10.305-4.423,16.08-2.88c1.977-3.636,6.261-5.115,9.359-7.68c1.186-0.981,2.612-2.677,3.36-4.08
		c0.808-1.517,0.294-3.765,3.12-3.6c0.7,2.727-1.059,5.517-2.4,7.2c-2.956,3.708-8.457,5.849-11.52,9.12
		c-0.69,0.335-1.22-0.654-1.44,0c0.611,0.829,0.816,2.063,0.72,3.6c3.199-0.828,5.966-2.598,9.36-1.44
		c2.865,0.978,5.233,5.132,9.6,4.08c6.585-5.976,12.139-12.981,16.801-20.88c1.542-1.18,3.942-2.854,3.359-5.52
		c-0.507-2.319-3.386-2.215-6-2.64c-1.106-0.18-1.947-0.978-2.64-0.96c-1.755,0.044-3.036,1.826-4.8,1.68
		c-2.32-0.192-4.046-3.049-4.08-4.32c-0.049-1.77,2.694-3.994,0-5.521c-2.977,0.464-5.551,1.33-7.44,2.88
		c0.062,1.058,0.384,1.856,0.24,3.12c1.75-0.258,6.153-1.405,5.52,1.2c-0.218,0.896-4.058,1.922-6,1.44
		c-2.689-0.667-2.129-3.906-2.159-7.2c2.057-1.343,7.161-4.881,10.56-4.08c2.2,0.519,3.397,4.042,3.12,6.48
		c-0.176,1.542-1.524,2.223,0,3.36c1.57,0.06,2.631-1.274,4.32-1.44c1.991-0.196,3.376,0.875,5.04,0.72
		c0.498-1.13,2.602-2.169,3.119-3.6c0.295-0.814-0.112-1.968,0-2.88c0.375-3.031,1.595-6.146,2.16-8.64
		c-1.673-0.389-4.647-5.589-1.68-5.76c1.461-0.084,0.989,1.301,1.68,2.4c4.777,1.857,1.059,6.891,0.48,12.24
		c-0.122,1.132,0.199,2.337,0,3.12c-0.497,1.947-2.839,2.482-2.641,3.84c1.514,0.966,2.916,2.044,3.841,3.6
		c2.964-0.662,4.172,1.622,6,2.16c5.279,1.556,11.137,0.261,14.159-1.92c2.021-1.457,6.986-9.109,7.44-11.52
		c0.749-3.979-1.038-7.606-0.72-12.24c-4.57-3.608,0.82-6.862,1.439-9.36c0.446-1.799-0.313-5.287-0.479-7.68
		c-0.408-5.885-1.293-10.643-2.4-15.12c-0.841-3.403-3.004-6.575-3.84-10.08c-0.975-4.088-1.337-8-1.2-12.24
		c-4.458-0.262-6.412-3.027-9.12-5.04c-1.259-0.261-2.815-0.225-2.64-1.92c4.746-2.45,6.757,3.704,10.8,4.32
		C295.562,65.5,295.48,61.35,294.92,56.92z M9.32,210.04c3.023-0.04,4.184-2.878,5.52-4.8c4.464-6.421,8.511-12.543,15.12-16.561
		c-0.284-0.915-0.878-1.521-1.2-2.399c-1.2,0-2.4,0-3.6,0c-1.138-0.542-0.904-2.456-2.16-2.88
		C18.582,192.422,11.875,199.155,9.32,210.04z M167.24,218.92c0.326,2.826-3.602,3.275-2.88-0.24
		c-0.769-0.191-1.212-0.709-2.16-0.72c-0.012,1.829,0.271,3.951-1.92,3.601c-1.33-0.591-0.345-3.496-0.96-4.801
		c-3.723-0.561-1.568,5.895-5.28,4.561c-0.464-0.967-0.136-2.298,0.24-3.12c-1.892-0.588-3.044-1.917-5.04-2.4
		c-0.211,1.921,1.996,4.795-0.24,5.761c-2.292-0.508-1.671-3.93-2.64-5.761c-0.793,0.247-1.833,0.246-2.4,0.72
		c-0.034,1.887,0.429,4.27-1.44,4.32c-1.432-0.487-1.241-2.6-1.2-4.56c-2.727-0.124-2.953-3.857-6-2.88
		c0.185,1.813,2.095,4.837,0,5.279c-1.917,0.406-1.883-2.611-2.4-4.56c-2.556,0.762-4.446-1.589-5.04-1.2
		c-0.119,1.161,0.34,2.899-0.48,3.36c-0.278,0.201-0.644,0.316-1.2,0.239c-1.303-0.746-0.604-2.132-0.72-3.84
		c-2.575,0.705-5.336,1.225-8.88,0.96c-0.717,0.644-0.808,1.913-2.4,1.681c-0.053-0.188-0.201-0.279-0.48-0.24
		c-0.485-0.886-0.101-1.693,0.24-2.4c-2.255-2.865-3.501-6.738-8.4-6.96c-0.244,1.116,0.015,2.735-1.2,2.88
		c-0.458,0.451-0.434-0.142-1.2,0c-0.742-0.761-0.356-2.167,0-3.119c-1.48-0.201-2.893-0.468-4.08-0.961
		c0.171,1.291-0.562,1.68-1.44,1.92c-0.041-0.279-0.379-0.26-0.72-0.239c-0.653-0.684-0.487-1.886,0-2.64
		c-2.485,0.217-4.85-0.873-6.48-0.721c1.357,1.791,3.451,2.458,5.28,3.6c1.937,1.21,3.077,2.719,4.8,4.08
		c2.629,2.078,6.183,2.612,8.64,5.041c2.727-0.452,3.827,1.889,5.76,2.879c1.274,0.654,2.923,0.73,4.32,1.44
		c1.261,0.641,2.075,1.804,3.36,2.64c2.959,1.928,5.399,2.05,9.84,2.4c4.343,0.343,8.159,3.492,12,3.84
		c2.108,0.191,4.179-0.453,6.24-0.24c3.449,0.357,6.678,2.828,11.28,1.92c9.157-3.962,15.741-10.498,24.24-15.119
		c-2.481,0.559-5.216,0.864-8.4,0.72c-0.563,0.876,0.278,3.158-0.96,3.36c-0.32,0-0.64,0-0.96,0
		c-1.177-0.264-0.575-2.305-0.72-3.601c-1.785-0.903-2.974,0.03-4.08,0.96c1.097,0.879,0.363,4.394-1.44,4.561
		c-1.477,0.159-0.743-2.496-0.96-2.881C168.384,218.784,167.854,218.895,167.24,218.92z"/>
	<path fill-rule="evenodd" clip-rule="evenodd" fill="#FFFFFF" d="M296.84,69.88c-4.043-0.616-6.054-6.77-10.8-4.32
		c-0.176,1.695,1.381,1.659,2.64,1.92c2.708,2.013,4.662,4.778,9.12,5.04c-0.137,4.24,0.226,8.152,1.2,12.24
		c0.836,3.505,2.999,6.677,3.84,10.08c1.107,4.478,1.992,9.235,2.4,15.12c0.166,2.394,0.926,5.881,0.479,7.68
		c-0.619,2.498-6.01,5.751-1.439,9.36c-0.318,4.634,1.469,8.262,0.72,12.24c-0.454,2.41-5.42,10.062-7.44,11.52
		c-3.022,2.181-8.88,3.476-14.159,1.92c-1.828-0.538-3.036-2.821-6-2.16c-0.925-1.556-2.327-2.634-3.841-3.6
		c-0.198-1.357,2.144-1.893,2.641-3.84c0.199-0.783-0.122-1.988,0-3.12c0.578-5.35,4.297-10.383-0.48-12.24
		c-0.69-1.099-0.219-2.484-1.68-2.4c-2.968,0.171,0.007,5.372,1.68,5.76c-0.565,2.493-1.785,5.608-2.16,8.64
		c-0.112,0.912,0.295,2.066,0,2.88c-0.518,1.431-2.621,2.47-3.119,3.6c-1.664,0.155-3.049-0.916-5.04-0.72
		c-1.689,0.166-2.75,1.5-4.32,1.44c-1.524-1.137-0.176-1.818,0-3.36c0.277-2.438-0.92-5.961-3.12-6.48
		c-3.398-0.801-8.503,2.737-10.56,4.08c0.03,3.294-0.53,6.532,2.159,7.2c1.942,0.482,5.782-0.544,6-1.44
		c0.634-2.605-3.77-1.458-5.52-1.2c0.144-1.263-0.178-2.062-0.24-3.12c1.89-1.55,4.464-2.416,7.44-2.88
		c2.694,1.526-0.049,3.751,0,5.521c0.034,1.271,1.76,4.128,4.08,4.32c1.764,0.146,3.045-1.636,4.8-1.68
		c0.692-0.018,1.533,0.78,2.64,0.96c2.614,0.425,5.493,0.321,6,2.64c0.583,2.666-1.817,4.34-3.359,5.52
		c-4.662,7.898-10.216,14.904-16.801,20.88c-4.366,1.052-6.734-3.103-9.6-4.08c-3.395-1.158-6.161,0.613-9.36,1.44
		c0.097-1.537-0.108-2.771-0.72-3.6c0.221-0.654,0.75,0.335,1.44,0c3.062-3.271,8.563-5.412,11.52-9.12
		c1.342-1.684,3.101-4.474,2.4-7.2c-2.826-0.165-2.312,2.083-3.12,3.6c-0.748,1.403-2.175,3.099-3.36,4.08
		c-3.099,2.564-7.383,4.044-9.359,7.68c-5.775-1.543-10.005,2.367-16.08,2.88c-7.871,0.665-17.198-0.555-21.36-4.32
		c-1.951-1.765-4.603-4.398-5.52-6.48c-0.442-1.002-1.403-3.542-0.961-5.04c0.429-1.448,3.849-2.395,6.48-1.92
		c0.985,0.178,1.69,1.12,2.64,1.44c4.151,1.398,8.26-0.051,11.521-1.2c3.13-1.104,7.299-1.148,7.2-4.8
		c-1.185-1.192-2.809,0.494-3.601,1.2c-4.331,0.51-7.903,4.025-13.68,2.4c-1.185-0.333-1.968-1.429-3.36-1.68
		c-3.881-0.699-9.128,0.914-9.84,3.6c-0.483,1.824,0.521,5.415,1.2,6.96c1.272,2.893,4.527,6.271,7.2,8.4
		c4.655,3.71,13.44,4.647,21.359,4.08c5.606-0.402,9.541-2.964,15.12-3.36c0.999,4.451-1.518,7.433-3.84,9.36
		c-1.872-0.128-3.892-0.108-5.04-0.96c-7.552-0.308-14.806,1.631-20.88-0.72c-2.51-0.972-4.445-3.206-6.48-3.6
		c-2.319-0.449-6.597-0.411-6.96,2.16c1.079,1.488,4.334-0.029,6.721,0.48c0.464,1.573-1.834,2.916-2.16,4.56
		c-0.228,1.146,0.444,2.619,0.479,4.08c0.021,0.879-0.35,1.68-0.239,2.399c0.253,1.664,1.87,2.804,2.159,4.561
		c0.26,1.572-0.445,3.277-0.239,4.8c0.43,3.188,3.369,4.19,1.68,7.68c-0.686,1.417-4.026,2.312-3.6,4.08
		c0.787,3.266,5.738-2.49,6-3.12c0.795-1.915,0.882-3.734,0.479-5.279c-0.307-1.179-1.579-1.759-1.92-3.12
		c-0.408-1.63,0.426-3.474,0.24-5.04c-0.202-1.699-1.804-2.883-2.16-4.561c-0.188-0.888-0.372-4.535-0.24-5.52
		c0.191-1.425,1.414-2.229,1.92-3.84c5.116,3.444,14.168,2.952,22.801,2.88c0.519,0.812-1.36,1.725-2.16,2.64
		c-0.966,1.104-1.531,2.594-2.641,3.12c-0.254,1.426-1.424,1.936-1.439,3.601c-3.127,1.295-5.586,6.328-2.641,9.6
		c-0.407,3.272-1.108,6.251-2.159,8.88c-3.154-0.881-5.203,2.537-2.16,3.12c-0.965,1.195-2.037,2.283-3.36,3.12
		c-2.411-1.09-3.324-3.7-6.24-2.64c-1.731,0.629-2.101,2.883-3.6,4.079c-1.379-0.7-2.636-1.523-3.36-2.88
		c0.137-1.252,1.549-2.63,1.681-4.08c0.227-2.502-1.377-4.495-0.96-6.96c0.204-1.208,1.436-2.301,1.68-3.6
		c0.878-4.669-1.507-8.49-4.32-10.32c0.963-2.352-2.336-3.605-3.12-6c-1.414-4.321,1.296-8.185-3.12-9.12
		c-1.714-0.362-5.245-0.232-5.52,0.96c-0.636,2.766,3.588,1.052,5.52,1.92c1.021,1.933,0.168,4.227,0.48,6
		c0.503,2.854,3.377,4.258,3.36,7.199c1.886,2.467,4.899,3.519,4.08,8.641c-0.178,1.104-1.15,2.011-1.44,3.119
		c-0.867,3.312,0.915,6.009,0.24,8.881c-0.999,0.518-2.278-0.647-3.601-0.721c-1.064-0.059-2.538,0.586-4.08,0.721
		c-3.688,0.321-8.063-0.934-10.319-0.48c-2.522,0.506-3.918,2.793-5.521,3.6c-3.059,0.108-4.142-2.101-6.96-2.399
		c-1.803-0.191-3.022,1.452-4.8,1.44c-1.727-0.012-4.153-2.466-6.24-2.641c-2.584-0.216-4.791,1.312-6.72,0.96
		c-1.511-0.274-2.376-2.914-4.08-3.36c-2.016-0.527-4.809,1.376-6.72,0.961c-1.62-0.353-2.223-2.283-4.08-2.16
		c-3.137,0.207-6.825,2.897-11.28,1.68c-2.109-3.171-4.519-7.062-8.88-7.92c-1.635-0.322-3.518,0.074-5.52-0.48
		c-1.034-0.286-1.899-1.179-2.88-1.439c-2.979-0.793-6.126,0.23-8.4-1.68c-0.65-4.471-3.985-6.256-5.28-10.08
		c-4.34-4.569-13.112-6.91-21.6-7.681c-4.59-0.416-11.572-0.628-15.6,0.96c-5.71,2.251-7.524,9.416-14.4,9.601
		c-0.761-4.278-1.085-8.995-6.48-8.641c-1.122-1.838-3.037-2.883-5.28-3.6c-1.195-5.689,3.74-6.944,7.44-9.12
		c1.324-0.778,2.586-1.995,3.84-2.64c1.749-0.899,3.606-1.319,5.28-2.4c4.923-3.179,9.331-7.654,13.68-11.52
		c4.583-4.074,9.073-8.188,12.24-12.96c7.055-2.468,6.521-12.956,9.36-20.4c1.73-4.537,4.696-8.382,6.96-12.72
		c2.406-4.61,3.704-9.37,6.96-12.96c1.449-1.597,3.813-3.353,6-5.04c1.84-1.42,6.071-3.289,5.04-6.24
		c-2.567-1.765-7.474,1.202-11.28-0.24c0.953-4.589,6.216-6.441,10.56-7.68c4.663-1.33,9.926-2.509,14.16-4.08
		c0.53,3.172-3.493,3.866-3.6,7.2c3.225,1.52,4.11-3.173,6-4.56c0.155-1.525,0.788-2.572,1.2-3.84
		c13.366-3.335,25.876-10.303,38.88-14.88c4.435-1.561,9.065-2.86,12.239-5.52c2.69-2.253,4.968-5.615,6.961-8.4
		c3.699-5.169,6.5-10.415,11.52-14.4c7.936-3.752,14.716-8.602,22.56-12.72c4.162-2.185,7.647-4.828,13.681-5.52
		c6.962-0.799,15.106,1.764,23.52,1.2c9.151-0.614,16.807-0.093,22.32,4.08c2.354,1.781,4.298,5.348,6.72,7.92
		c1.399,1.486,3.198,2.646,4.561,4.08c1.44,1.518,2.492,3.365,3.84,4.8c1.115,1.188,2.366,1.518,3.12,2.4
		c1.04,1.217,1.074,2.726,1.68,4.56c1.979,6.003,7.051,11.61,7.92,18.48C295.48,61.35,295.562,65.5,296.84,69.88z M252.92,63.16
		c1.147-0.676,3.234-0.602,3.12-2.16c-0.029-0.404-0.439-1.095-1.44-1.2c-2.472-0.259-3.746,2.074-5.52,3.6
		c-2.311,1.989-5.263,3.53-6.48,4.56c-1.058,0.895-1.186,4.315,0.96,4.08c0.721-0.319,1.14-0.94,0.96-2.16
		C247.514,68.489,250.086,64.829,252.92,63.16z M273.08,68.2c2.441-0.798,9.071-1.937,8.64-3.84c-0.58-2.564-7.536,1.125-9.84,1.44
		c-2.988,0.41-4.49-1.268-6.479-0.24C265.013,68.695,270.733,68.967,273.08,68.2z M239.72,75.88c-0.764-0.399-1.004-0.41-1.92-0.24
		c-1.523,4.396-3.491,8.349-6.96,10.8c-0.197,0.974-0.571,2.77,0.24,3.36c0.4,0,0.8,0,1.2,0
		C234.91,85.451,239.778,82.125,239.72,75.88z M290.12,88.36c0.418-0.018,0.746,0.054,0.96,0.24c1.369-2.311,2.618-4.742,3.36-7.68
		C291.677,79.189,288.852,85.313,290.12,88.36z M156.68,93.4c1.405,1.552,4.138,0.664,4.08-0.72c-0.1-2.34-4.554,0.044-6-1.2
		c-0.201,0.519-0.621,0.819-0.479,1.68c0.345,0.134,0.585,0.374,0.72,0.72C155.861,94.021,156.161,93.601,156.68,93.4z
		 M136.04,92.68c-1.105,4.015-4.586,5.654-4.56,10.8c1.653,1.228,1.523,4.237,1.92,6.72c-2.833-2.347-3.488-6.148-6.48-8.16
		c-1.306-0.878-3.082-1.269-4.56-2.16c-3.018-1.818-7.692-4.984-12.96-3.84c-2.367,0.514-4.906,3.061-6.72,4.32
		c-2.158,1.499-4.767,3.128-6.48,4.56c-1.372,1.146-5.242,4.529-6.24,6.48c-2.778,5.427,2.625,10.663,1.92,16.32
		c-0.272,2.182-2.129,4.153-1.68,6.48c0.189,0.979,1.386,1.901,2.16,3.12c0.714,1.124,1.599,2.362,2.16,3.36
		c0.682,1.212,0.836,2.71,1.44,3.601c0.392,0.578,1.333,0.968,1.92,1.68c2.036,2.47,3.601,4.859,6.72,6.72
		c1.801,1.075,5.786,3.222,7.2,3.601c5.933,1.588,6.972-2.296,10.8-3.84c1.724-0.695,4.337-1.803,6.24-1.68
		c2.216,0.144,4.092,2.546,6.24,3.36c1.952,0.739,4.654,0.444,7.68,1.2c3.567,0.891,7.978,3.203,12.24,3.6
		c4.961,0.462,11.678-0.254,17.28,0c3.722,0.169,5.643,0.551,7.68-1.44c1.305,0.472,4.519,1.725,5.521,0.24
		c0.414-2.334-2.203-1.638-3.36-2.4c-0.751-5.743-1.778-9.917-7.44-10.32c-2.106-4.693-6.375-7.225-9.12-11.28
		c-5.182-4.213-11.201-5.147-15.84-8.88c-2.511-2.02-3.749-5.178-6-7.68c-2.114-2.35-5.243-3.762-7.68-5.76
		c-0.327-3.273-0.281-6.918-1.92-8.88c0.264-4.104,5.222-5.913,3.6-10.32C136.962,92.162,136.271,92.191,136.04,92.68z M162.2,95.08
		c0.279,0.04,0.261,0.379,0.24,0.72c1.158,0.413,3.333,0.917,4.56,0.48c0.429,1.765,5.391,6.222,5.76,3.12
		c0.095-0.794-3.283-4.92-5.04-4.32c0.012-0.812-0.559-1.041-0.96-1.44C164.824,94.2,162.561,92.464,162.2,95.08z M229.64,94.12
		c-0.548-0.665-1.415-0.934-2.159-0.24c-0.488,4.152-3.831,5.45-5.521,8.4c0.324,0.235,0.479,0.64,0.72,0.96
		C226.657,101.857,229.382,99.222,229.64,94.12z M285.8,96.28c-0.04,0.279-0.379,0.26-0.72,0.24c-1.672,3.768-4.323,6.557-6.72,9.6
		c0.061,1.379-0.18,3.06,0.239,4.08c0.707,0.341,1.515,0.725,2.4,0.24c0.571-1.121-0.218-2.125,0-3.6
		c2.579-2.653,5.68-5.956,6-10.08C286.685,96.515,286.115,96.524,285.8,96.28z M177.56,101.32c0.705,1.215,2.492,1.348,4.08,1.68
		c0.703,1.937-0.066,5.347,2.88,5.04c1.113-2.017-0.443-4.808-0.72-6.96C181.961,100.893,177.867,97.98,177.56,101.32z
		 M214.52,103.96c-3.077,0.052-8.853-0.737-8.88,2.16c0.563,1.165,1.926,0.507,3.36,0.48c3.159-0.059,8.316,0.68,9.12-1.68
		C217.855,103.398,216.225,103.931,214.52,103.96z M198.2,112.36c1.558,2.236,4.344-0.776,4.56-2.88
		C200.904,107.646,198.759,110.621,198.2,112.36z M186.44,113.08c-0.029,1.664,3.481,3.535,5.279,4.32
		c0.598-0.363,1.098-0.823,1.2-1.68C191.936,114.254,186.497,109.792,186.44,113.08z M189.8,118.6c-1.279,0.7-4.592,4.841-5.04,6.48
		c0.399,0.401,0.629,0.972,1.44,0.96c1.729-1.711,3.648-3.231,5.04-5.28c1.152-0.048,1.873-0.526,1.68-1.92
		C192.169,117.68,190.605,118.159,189.8,118.6z M183.32,135.4c-1.222,0.059-2.038,0.522-2.16,1.68
		c4.479,3.538,5.653-2.979,4.08-6.72C182.346,128.962,182.542,133.745,183.32,135.4z M77.96,137.56
		c-1.025-0.061-1.462,0.772-1.44,2.16c0.013,0.821,1.145,3.131,1.92,4.8c0.957,2.06,2.825,4.122,3.6,6.24
		c0.865,2.362,2.055,6.152,0.24,7.68c-1.439-1.041-0.89-4.07-3.36-4.08c-1.783,2.254,0.956,5.382,2.4,6.72
		c9.662,0.229,1.503-15.041-0.48-17.52C79.729,142.049,79.799,137.67,77.96,137.56z M175.64,143.8
		c0.567,2.247,5.263-0.626,5.28-2.64C179.474,138.933,175.27,142.329,175.64,143.8z M190.04,147.16
		C195,150.235,191.445,141.488,190.04,147.16L190.04,147.16z M54.68,160.12c0.324,0.235,0.479,0.64,0.72,0.96
		c3.537-0.783,3.614-5.026,4.8-8.16C56.421,151.576,56.511,157.948,54.68,160.12z M128.12,152.68c-1.14,0.751-0.341,2.006-0.72,3.36
		c-0.864,3.084-4.396,6.75-0.24,7.92c1.518-0.443,0.447-1.717,0.72-2.88c0.589-2.513,2.922-4.536,1.92-7.92
		C129.281,152.959,128.981,152.539,128.12,152.68z M128.84,170.44c2.153,0.805,2.236,6.713,5.28,4.32
		c-0.419-3.421-2.751-4.929-3.36-8.16C127.999,166.288,128.937,168.316,128.84,170.44z M51.08,169.24
		c1.325,0.205,1.765-0.475,1.92-1.44C52.165,165.571,49.087,167.918,51.08,169.24z M130.28,178.84
		c-0.115-1.369-1.772-1.038-2.88-0.96c-2.744,0.193-5.37,1.287-7.92,0.24c-3.123-1.282-4.224-4.478-7.44-5.76
		c-3.957-1.578-9.168,0.782-13.68,0c-3.455-0.599-5.212-2.94-7.44-2.88c-3.553,2.337,5.792,5.25,7.68,5.52
		c4.32,0.617,8.701-1.71,12.48-0.24c0.973,0.379,1.669,1.817,2.4,2.4c2.47,1.968,4.19,2.767,6.48,3.6c1.476,1.57,3.211,5.149,6,3.84
		c0.65-2.374-2.387-2.193-1.92-3.6C125.204,180.343,130.467,181.07,130.28,178.84z M52.52,176.68c-0.598-1.642-0.533-3.946-1.2-5.52
		C46.973,170.949,50.046,180.309,52.52,176.68z M171.08,176.44c-5.508,0.45-13.668,0.517-18.96,1.92
		c-3.713,0.985-4.631,3.343-8.64,1.92c-1.173-0.417-5.571-3.85-5.76-0.96c-0.077,1.181,4.148,3.236,5.521,3.6
		c1.368,0.363,3.399,0.191,5.04,0.24c5.223-3.573,17.377-3.828,25.2-4.32c1.467-0.092,3.786,0.675,4.319-1.2
		C176.722,175.752,173.371,176.253,171.08,176.44z"/>
	<path fill-rule="evenodd" clip-rule="evenodd" d="M244.52,69.88c0.18,1.22-0.239,1.841-0.96,2.16
		c-2.146,0.235-2.018-3.185-0.96-4.08c1.218-1.03,4.17-2.571,6.48-4.56c1.773-1.526,3.048-3.859,5.52-3.6
		c1.001,0.105,1.411,0.796,1.44,1.2c0.114,1.558-1.973,1.484-3.12,2.16C250.086,64.829,247.514,68.489,244.52,69.88z"/>
	<path fill-rule="evenodd" clip-rule="evenodd" d="M265.4,65.56c1.989-1.028,3.491,0.649,6.479,0.24
		c2.304-0.315,9.26-4.004,9.84-1.44c0.432,1.903-6.198,3.042-8.64,3.84C270.733,68.967,265.013,68.695,265.4,65.56z"/>
	<path fill-rule="evenodd" clip-rule="evenodd" d="M232.28,89.8c-0.4,0-0.8,0-1.2,0c-0.812-0.59-0.438-2.386-0.24-3.36
		c3.469-2.451,5.437-6.404,6.96-10.8c0.916-0.17,1.156-0.16,1.92,0.24C239.778,82.125,234.91,85.451,232.28,89.8z"/>
	<path fill-rule="evenodd" clip-rule="evenodd" d="M294.44,80.92c-0.742,2.938-1.991,5.369-3.36,7.68
		c-0.214-0.187-0.542-0.258-0.96-0.24C288.852,85.313,291.677,79.189,294.44,80.92z"/>
	<path fill-rule="evenodd" clip-rule="evenodd" d="M155,93.88c-0.134-0.346-0.375-0.585-0.72-0.72
		c-0.142-0.861,0.279-1.161,0.479-1.68c1.446,1.244,5.9-1.14,6,1.2c0.059,1.383-2.675,2.271-4.08,0.72
		C156.161,93.601,155.861,94.021,155,93.88z"/>
	<path fill-rule="evenodd" clip-rule="evenodd" d="M137.72,92.2c1.622,4.407-3.335,6.216-3.6,10.32
		c1.639,1.961,1.593,5.607,1.92,8.88c2.437,1.998,5.566,3.411,7.68,5.76c2.251,2.501,3.489,5.66,6,7.68
		c4.639,3.732,10.658,4.667,15.84,8.88c2.745,4.056,7.014,6.587,9.12,11.28c5.662,0.402,6.689,4.577,7.44,10.32
		c1.157,0.762,3.774,0.065,3.36,2.4c-1.002,1.485-4.216,0.232-5.521-0.24c-2.037,1.991-3.958,1.609-7.68,1.44
		c-5.603-0.254-12.319,0.462-17.28,0c-4.262-0.397-8.673-2.709-12.24-3.6c-3.025-0.755-5.728-0.46-7.68-1.2
		c-2.148-0.814-4.024-3.217-6.24-3.36c-1.903-0.123-4.516,0.985-6.24,1.68c-3.828,1.544-4.868,5.429-10.8,3.84
		c-1.414-0.379-5.398-2.526-7.2-3.601c-3.119-1.86-4.684-4.25-6.72-6.72c-0.586-0.711-1.528-1.102-1.92-1.68
		c-0.604-0.891-0.758-2.388-1.44-3.601c-0.561-0.998-1.446-2.236-2.16-3.36c-0.773-1.218-1.971-2.14-2.16-3.12
		c-0.449-2.327,1.408-4.299,1.68-6.48c0.706-5.657-4.698-10.893-1.92-16.32c0.999-1.951,4.869-5.334,6.24-6.48
		c1.713-1.432,4.322-3.062,6.48-4.56c1.814-1.259,4.353-3.806,6.72-4.32c5.268-1.145,9.942,2.021,12.96,3.84
		c1.479,0.891,3.254,1.282,4.56,2.16c2.992,2.012,3.647,5.813,6.48,8.16c-0.397-2.483-0.267-5.493-1.92-6.72
		c-0.026-5.146,3.455-6.785,4.56-10.8C136.271,92.191,136.962,92.162,137.72,92.2z M172.76,146.92
		c-1.168-0.947-1.174-2.863-2.16-4.08c-0.908-1.122-2.618-2.194-3.84-3.6c-1.261-1.452-2.421-3.172-3.6-4.08
		c-5.112-3.938-10.763-4.824-15.36-8.64c-2.617-2.172-3.562-4.941-5.76-7.44c-3.391-3.856-9.504-4.979-12.48-9.12
		c-0.986-1.372-1.475-3.292-2.64-4.56c-1.383-1.504-3.359-2.054-5.52-3.36c-3.247-1.962-6.596-3.842-11.52-3.36
		c-3.432,2.292-8.139,4.942-12,8.16c-1.802,1.502-5.146,4.603-5.76,6.48c-1.49,4.56,3.118,9.556,2.16,15.36
		c-0.174,1.053-1.631,3.067-1.44,4.56c0.173,1.345,2.576,3.71,3.84,6c0.457,0.827,0.794,2.695,1.2,3.36
		c0.329,0.539,1.422,1.255,2.16,2.16c0.703,0.862,1.21,1.95,1.92,2.64c2.354,2.29,9.788,7.083,13.44,6.48
		c2.29-0.378,3.808-2.854,6.24-3.84c2.44-0.989,5.837-2.221,8.64-1.68c2.085,0.403,3.938,2.704,5.76,3.36
		c2.091,0.753,4.667,0.428,6.96,0.96c4.605,1.07,8.706,3.484,13.68,3.84c6.448,0.462,12.691-0.697,20.16,0
		c0.577-0.703,1.387-1.173,2.4-1.44c-0.679-1.402-0.3-3.86-0.721-5.52C177.35,147.635,174.364,148.221,172.76,146.92z"/>
	<path fill-rule="evenodd" clip-rule="evenodd" d="M166.76,93.64c0.401,0.399,0.972,0.628,0.96,1.44
		c1.757-0.6,5.135,3.525,5.04,4.32c-0.369,3.103-5.331-1.354-5.76-3.12c-1.227,0.437-3.401-0.068-4.56-0.48
		c0.021-0.34,0.039-0.68-0.24-0.72C162.561,92.464,164.824,94.2,166.76,93.64z"/>
	<path fill-rule="evenodd" clip-rule="evenodd" d="M222.68,103.24c-0.24-0.32-0.396-0.725-0.72-0.96
		c1.689-2.951,5.032-4.249,5.521-8.4c0.744-0.693,1.611-0.425,2.159,0.24C229.382,99.222,226.657,101.857,222.68,103.24z"/>
	<path fill-rule="evenodd" clip-rule="evenodd" d="M287,96.76c-0.32,4.125-3.421,7.427-6,10.08c-0.218,1.475,0.571,2.479,0,3.6
		c-0.886,0.485-1.693,0.101-2.4-0.24c-0.419-1.021-0.179-2.701-0.239-4.08c2.396-3.043,5.048-5.832,6.72-9.6
		c0.341,0.021,0.68,0.04,0.72-0.24C286.115,96.524,286.685,96.515,287,96.76z"/>
	<path fill-rule="evenodd" clip-rule="evenodd" fill="#FFFFFF" d="M178.52,149.56c0.421,1.66,0.042,4.118,0.721,5.52
		c-1.014,0.267-1.823,0.737-2.4,1.44c-7.469-0.697-13.712,0.462-20.16,0c-4.975-0.356-9.075-2.77-13.68-3.84
		c-2.293-0.532-4.869-0.207-6.96-0.96c-1.822-0.656-3.674-2.957-5.76-3.36c-2.803-0.541-6.2,0.691-8.64,1.68
		c-2.432,0.986-3.95,3.462-6.24,3.84c-3.652,0.603-11.085-4.19-13.44-6.48c-0.71-0.69-1.217-1.778-1.92-2.64
		c-0.738-0.904-1.832-1.621-2.16-2.16c-0.405-0.665-0.743-2.533-1.2-3.36c-1.264-2.29-3.667-4.655-3.84-6
		c-0.191-1.493,1.266-3.507,1.44-4.56c0.958-5.805-3.65-10.801-2.16-15.36c0.613-1.877,3.958-4.978,5.76-6.48
		c3.861-3.218,8.568-5.867,12-8.16c4.924-0.482,8.273,1.397,11.52,3.36c2.161,1.306,4.137,1.855,5.52,3.36
		c1.166,1.268,1.654,3.188,2.64,4.56c2.976,4.142,9.089,5.264,12.48,9.12c2.197,2.499,3.143,5.268,5.76,7.44
		c4.598,3.816,10.248,4.702,15.36,8.64c1.179,0.908,2.339,2.628,3.6,4.08c1.222,1.405,2.932,2.478,3.84,3.6
		c0.986,1.217,0.992,3.133,2.16,4.08C174.364,148.221,177.35,147.635,178.52,149.56z"/>
	<path fill-rule="evenodd" clip-rule="evenodd" d="M183.8,101.08c0.276,2.152,1.833,4.943,0.72,6.96
		c-2.946,0.307-2.177-3.103-2.88-5.04c-1.588-0.332-3.375-0.465-4.08-1.68C177.867,97.98,181.961,100.893,183.8,101.08z"/>
	<path fill-rule="evenodd" clip-rule="evenodd" d="M218.12,104.92c-0.804,2.36-5.961,1.621-9.12,1.68
		c-1.435,0.027-2.797,0.685-3.36-0.48c0.027-2.897,5.803-2.108,8.88-2.16C216.225,103.931,217.855,103.398,218.12,104.92z"/>
	<path fill-rule="evenodd" clip-rule="evenodd" d="M202.76,109.48c-0.216,2.104-3.002,5.116-4.56,2.88
		C198.759,110.621,200.904,107.646,202.76,109.48z"/>
	<path fill-rule="evenodd" clip-rule="evenodd" d="M192.92,115.72c-0.103,0.857-0.603,1.317-1.2,1.68
		c-1.798-0.785-5.309-2.656-5.279-4.32C186.497,109.792,191.936,114.254,192.92,115.72z"/>
	<path fill-rule="evenodd" clip-rule="evenodd" d="M192.92,118.84c0.193,1.394-0.527,1.872-1.68,1.92
		c-1.392,2.049-3.311,3.569-5.04,5.28c-0.812,0.012-1.041-0.559-1.44-0.96c0.448-1.639,3.761-5.78,5.04-6.48
		C190.605,118.159,192.169,117.68,192.92,118.84z"/>
	<path fill-rule="evenodd" clip-rule="evenodd" d="M185.24,130.36c1.573,3.742,0.398,10.258-4.08,6.72
		c0.122-1.158,0.938-1.621,2.16-1.68C182.542,133.745,182.346,128.962,185.24,130.36z"/>
	<path fill-rule="evenodd" clip-rule="evenodd" d="M80.84,143.56c1.983,2.479,10.142,17.749,0.48,17.52
		c-1.444-1.338-4.183-4.466-2.4-6.72c2.47,0.01,1.921,3.04,3.36,4.08c1.815-1.528,0.625-5.318-0.24-7.68
		c-0.775-2.118-2.643-4.18-3.6-6.24c-0.775-1.669-1.907-3.979-1.92-4.8c-0.022-1.387,0.415-2.221,1.44-2.16
		C79.799,137.67,79.729,142.049,80.84,143.56z"/>
	<path fill-rule="evenodd" clip-rule="evenodd" d="M180.92,141.16c-0.018,2.014-4.713,4.887-5.28,2.64
		C175.27,142.329,179.474,138.933,180.92,141.16z"/>
	<path fill-rule="evenodd" clip-rule="evenodd" d="M190.04,147.16C191.445,141.488,195,150.235,190.04,147.16L190.04,147.16z"/>
	<path fill-rule="evenodd" clip-rule="evenodd" d="M60.2,152.92c-1.186,3.134-1.263,7.377-4.8,8.16
		c-0.24-0.32-0.396-0.725-0.72-0.96C56.511,157.948,56.421,151.576,60.2,152.92z"/>
	<path fill-rule="evenodd" clip-rule="evenodd" d="M129.8,153.16c1.002,3.384-1.331,5.407-1.92,7.92
		c-0.272,1.163,0.798,2.437-0.72,2.88c-4.156-1.17-0.625-4.836,0.24-7.92c0.379-1.354-0.42-2.609,0.72-3.36
		C128.981,152.539,129.281,152.959,129.8,153.16z"/>
	<path fill-rule="evenodd" clip-rule="evenodd" d="M130.76,166.6c0.609,3.231,2.941,4.739,3.36,8.16
		c-3.044,2.393-3.127-3.515-5.28-4.32C128.937,168.316,127.999,166.288,130.76,166.6z"/>
	<path fill-rule="evenodd" clip-rule="evenodd" d="M53,167.8c-0.155,0.966-0.595,1.645-1.92,1.44
		C49.087,167.918,52.165,165.571,53,167.8z"/>
	<path fill-rule="evenodd" clip-rule="evenodd" d="M124.04,181c-0.467,1.406,2.57,1.226,1.92,3.6c-2.789,1.31-4.524-2.27-6-3.84
		c-2.29-0.833-4.01-1.631-6.48-3.6c-0.731-0.583-1.427-2.021-2.4-2.4c-3.779-1.47-8.16,0.857-12.48,0.24
		c-1.888-0.27-11.233-3.183-7.68-5.52c2.228-0.061,3.985,2.281,7.44,2.88c4.512,0.782,9.723-1.578,13.68,0
		c3.216,1.283,4.317,4.478,7.44,5.76c2.55,1.047,5.176-0.047,7.92-0.24c1.108-0.078,2.765-0.409,2.88,0.96
		C130.467,181.07,125.204,180.343,124.04,181z"/>
	<path fill-rule="evenodd" clip-rule="evenodd" d="M51.32,171.16c0.667,1.573,0.603,3.877,1.2,5.52
		C50.046,180.309,46.973,170.949,51.32,171.16z"/>
	<path fill-rule="evenodd" clip-rule="evenodd" d="M177.8,177.64c-0.533,1.875-2.853,1.107-4.319,1.2
		c-7.823,0.492-19.977,0.748-25.2,4.32c-1.641-0.049-3.672,0.123-5.04-0.24c-1.373-0.364-5.598-2.419-5.521-3.6
		c0.189-2.89,4.587,0.543,5.76,0.96c4.009,1.423,4.927-0.936,8.64-1.92c5.292-1.403,13.452-1.47,18.96-1.92
		C173.371,176.253,176.722,175.752,177.8,177.64z"/>
	<path fill-rule="evenodd" clip-rule="evenodd" fill="#FFFFFF" d="M23,183.4c1.256,0.424,1.022,2.338,2.16,2.88c1.2,0,2.4,0,3.6,0
		c0.322,0.878,0.916,1.484,1.2,2.399c-6.609,4.018-10.656,10.14-15.12,16.561c-1.336,1.922-2.497,4.76-5.52,4.8
		C11.875,199.155,18.582,192.422,23,183.4z"/>
	<path fill-rule="evenodd" clip-rule="evenodd" d="M118.28,283.72c1.276-3.924,4.225-6.175,7.92-7.68
		c0.488-1.653-0.57-5.877,1.2-7.2c1.708-1.277,6.014,0.094,8.64,0.96c3.097,1.021,5.835,2.835,9.12,2.88
		c3.949,0.055,8.393-0.854,11.76,0c1.667,0.423,2.2,2.001,4.08,2.4c1.497,0.318,3.492-0.273,5.04,0
		c1.28,0.227,2.521,1.368,3.84,1.68c7.135,1.687,15.071-0.471,21.601-1.2c0.364-8.575-5.787-11.024-9.36-15.6
		c-1.064-1.362-2.578-3.725-2.88-5.76c-0.588-3.954,1.516-12.45,3.12-15.36c0.749-1.359,2.713-3.33,4.08-4.8
		c3.029-3.257,5.54-5.395,8.88-8.88c1.625-1.696,2.877-3.691,5.279-3.6c4.167,0.157,4.349,4.783,8.16,5.52
		c3.876,0.748,8.162-2.102,9.84-3.12c3.021-1.833,7.131-5.714,8.4-10.08c0.73-2.511,1.401-6.162,0.96-8.88
		c-0.272-1.678-2.023-2.644-2.16-4.08c-0.097-1.02,1.803-6.347,2.4-7.439c1.512-2.768,9.942-8.62,12.72-9.12
		c8.085-1.458,16.057,3.874,17.28,9.12c0.364,1.562-0.073,3.527,0.24,4.8c0.156,0.637,0.633,1.116,0.96,1.92
		c0.275,0.679,0.226,1.616,0.479,2.16c0.811,1.737,3.219,3.59,4.32,5.279c2.919,4.476,5.294,10.059,7.92,14.641
		c2.921,5.097,7.9,8.893,9.12,13.92c0.396,1.634,0.117,3.327,0.24,5.04c0.433,6.042,1.89,12.312,2.159,18.72
		c0.132,3.108-0.011,6.544-0.239,9.84c-0.621,8.92-2.846,15.116-4.561,22.8c-1.891,8.469-5.886,13.566-9.6,20.16
		c-1.466,2.603-2.841,6.067-4.561,7.92c-1.022,1.103-3.037,2.309-4.56,3.601c-7.242,6.142-15.59,10.842-24.48,15.6
		c-3.455,1.85-6.745,4.565-10.08,6c-7.086,3.049-14.978,4.809-23.279,6.24c-9.995,1.724-22.155,4.701-32.16,1.68
		c-2.079-0.628-3.793-1.861-5.76-2.399c-6.548-1.793-13.635-1.777-21.84-2.4c-2.191-0.166-4.277-1.008-6.48-1.2
		c-4.708-0.41-9.493,0.573-14.16,0c-2.907-0.356-6.101-1.681-9.36-2.399c-6.779-1.497-14.375-4.397-22.32-5.04
		c-2.658-0.216-6.026-0.423-8.88,0c-1.729,0.256-9.222,4.646-11.76,0.96c-1.896-2.754,1.439-9.196,2.88-11.28
		c2.274-3.29,5.713-5.451,8.16-8.64c0.97-1.265,1.725-2.89,2.64-4.32c0.887-1.388,2.081-2.688,2.88-4.08
		c0.714-1.245,0.751-2.748,1.44-4.08c1.37-2.652,4.483-4.833,6.96-7.2C101.558,294.995,110.528,289.418,118.28,283.72z
		 M81.32,337.72c2.813-0.365,6.184-0.244,8.88,0c8.35,0.758,16.959,3.749,24.72,5.521c2.81,0.641,5.552,1.881,7.92,2.16
		c4.22,0.496,8.736-0.597,12.96-0.24c2.051,0.173,4.017,0.913,6,1.2c6.32,0.913,12.421,0.537,18.24,1.68
		c5.404,1.061,10.431,3.497,15.6,4.32c8.951,1.425,18.474-1.312,27.36-2.88c7.697-1.359,15.294-3.223,21.6-6
		c3.347-1.475,6.528-3.996,9.841-5.761c10.524-5.607,19.683-11.36,28.319-18.72c4.317-8.796,12.167-17.595,14.16-29.28
		c0.693-4.064,2.193-7.716,3.12-11.52c1.285-5.276,1.163-12.116,0.96-18c-0.209-6.029-1.42-11.841-1.92-17.28
		c-0.201-2.19,0.048-4.658-0.48-6.48c-1.278-4.415-6.198-8.362-8.88-13.199c-0.895-1.615-1.354-3.543-2.16-5.04
		c-1.673-3.109-4.694-5.489-5.279-9.12c-2.057-0.34-1.718-1.849-2.88-3.36c-0.559-0.726-1.161-0.934-1.44-1.439
		c-0.385-0.698-0.353-1.788-0.72-2.641c-0.394-0.911-0.977-1.324-1.2-2.159c-0.46-1.714-0.323-3.721-0.48-5.761
		c-1.842-4.255-9.47-9.202-15.119-6.239c-4.704,2.466-11.302,6.356-11.761,12.72c2.543,3.218,2.283,9.169,0.96,14.16
		c-1.282,4.839-5.572,9.295-9.6,11.76c-3.507,2.146-9.404,4.659-12.96,3.6c-0.688-0.205-0.596-0.688-1.44-1.439
		c-1.139-1.014-4.132-4.084-5.279-4.08c-1.469,0.005-2.858,2.675-4.08,3.84c-1.652,1.574-2.992,2.696-4.08,3.84
		c-2.139,2.247-6.206,5.566-7.681,8.4c-1.315,2.528-3.417,10.05-2.64,13.92c1.211,6.029,10.043,8.936,11.76,17.04
		c0.844,3.98,0.266,10.704,0.721,16.319c0.161,1.991,0.982,4.308,0.72,6.721c-0.542,4.982-5.891,7.066-12.48,6.479
		c-1.312-0.646-2.509-1.58-3.84-2.399c-1.265-0.78-3.322-1.022-3.84-2.641c2.966-3.202,5.888,2.103,8.88,2.641
		c6.328,1.137,10.221-3.054,8.16-9.841c-7.944,1.447-13.569,4.554-20.88,3.601c-1.685-0.22-3.486-1.042-5.521-1.44
		c-5.871-1.149-12.474-2.561-17.04-4.56c-2.162-0.946-3.979-2.798-6.24-3.36c-4.947-1.23-8.82,0.199-12-1.68
		c-1.273-0.752-1.679-1.993-3.12-2.16c-4.131-0.478-5.002,4.275-6.72,6.24c-0.836,0.956-2.665,1.791-4.08,2.88
		c-3.916,3.013-8.022,6.386-12,8.88c-5.85,3.668-10.422,8.369-14.4,13.44c-1.202,3.91-3.173,6.151-5.04,9.12
		c-4.327,6.881-11.885,10.664-13.2,20.159C75.567,340.912,78.165,338.13,81.32,337.72z M169.88,279.4
		c-1.394-0.211-2.479-1.305-3.84-1.681c-2.014-0.556-4.438,0.28-6.48-0.239c-1.289-0.329-2.385-2.115-3.359-2.4
		c-3.476-1.017-8.049,0.606-12.72,0c-5.792-0.753-9.832-4.821-14.4-4.08c-0.369,1.312-0.212,3.147-0.24,4.8
		c0.779,0.901,1.807,1.554,2.16,2.88c2.908,2.053,8.932,0.988,12.96,1.92c-0.148-4.135,3.746-1.367,2.88,1.44
		c1.681,1.199,3.565,2.194,6,2.64c-0.497-6.165,3.788-3.059,2.88,0.96c3.838,0.963,7.354,2.245,11.761,2.641
		c-0.207-3.59,4.027-3.152,2.88,0.96c1.227,0.452,3.203,0.156,4.8,0.24c-0.272-1.586-0.734-4.276,1.2-4.32
		c1.522,0.237,1.194,2.325,1.199,4.08c5.496-0.345,8.941-2.739,14.16-3.36c0.14-2.78-0.171-5.108-0.239-7.68
		C184.274,279.312,177.192,280.503,169.88,279.4z"/>
	<path fill-rule="evenodd" clip-rule="evenodd" fill="#FFFFFF" d="M71.72,339.64c1.314-9.495,8.873-13.278,13.2-20.159
		c1.867-2.969,3.838-5.21,5.04-9.12c3.978-5.071,8.55-9.772,14.4-13.44c3.978-2.494,8.084-5.867,12-8.88
		c1.416-1.089,3.244-1.924,4.08-2.88c1.718-1.965,2.589-6.718,6.72-6.24c1.441,0.167,1.847,1.408,3.12,2.16
		c3.18,1.879,7.053,0.449,12,1.68c2.261,0.562,4.078,2.414,6.24,3.36c4.565,1.999,11.168,3.41,17.04,4.56
		c2.034,0.398,3.836,1.221,5.521,1.44c7.311,0.953,12.936-2.153,20.88-3.601c2.061,6.787-1.832,10.978-8.16,9.841
		c-2.992-0.538-5.914-5.843-8.88-2.641c0.518,1.618,2.575,1.86,3.84,2.641c1.331,0.819,2.528,1.754,3.84,2.399
		c6.59,0.587,11.938-1.497,12.48-6.479c0.263-2.413-0.559-4.729-0.72-6.721c-0.455-5.615,0.123-12.339-0.721-16.319
		c-1.717-8.104-10.549-11.011-11.76-17.04c-0.777-3.87,1.324-11.392,2.64-13.92c1.475-2.834,5.542-6.153,7.681-8.4
		c1.088-1.144,2.428-2.266,4.08-3.84c1.222-1.165,2.611-3.835,4.08-3.84c1.147-0.004,4.141,3.066,5.279,4.08
		c0.845,0.751,0.752,1.234,1.44,1.439c3.556,1.06,9.453-1.454,12.96-3.6c4.027-2.465,8.317-6.921,9.6-11.76
		c1.323-4.991,1.583-10.942-0.96-14.16c0.459-6.363,7.057-10.254,11.761-12.72c5.649-2.963,13.277,1.984,15.119,6.239
		c0.157,2.04,0.021,4.047,0.48,5.761c0.224,0.835,0.807,1.248,1.2,2.159c0.367,0.853,0.335,1.942,0.72,2.641
		c0.279,0.506,0.882,0.714,1.44,1.439c1.162,1.512,0.823,3.021,2.88,3.36c0.585,3.631,3.606,6.011,5.279,9.12
		c0.806,1.497,1.266,3.425,2.16,5.04c2.682,4.837,7.602,8.784,8.88,13.199c0.528,1.822,0.279,4.29,0.48,6.48
		c0.5,5.439,1.711,11.251,1.92,17.28c0.203,5.884,0.325,12.724-0.96,18c-0.927,3.804-2.427,7.455-3.12,11.52
		c-1.993,11.686-9.843,20.484-14.16,29.28c-8.637,7.359-17.795,13.112-28.319,18.72c-3.312,1.765-6.494,4.286-9.841,5.761
		c-6.306,2.777-13.902,4.641-21.6,6c-8.887,1.568-18.409,4.305-27.36,2.88c-5.169-0.823-10.195-3.26-15.6-4.32
		c-5.819-1.143-11.92-0.767-18.24-1.68c-1.983-0.287-3.949-1.027-6-1.2c-4.224-0.356-8.74,0.736-12.96,0.24
		c-2.368-0.279-5.11-1.52-7.92-2.16c-7.761-1.771-16.37-4.763-24.72-5.521c-2.697-0.244-6.067-0.365-8.88,0
		C78.165,338.13,75.567,340.912,71.72,339.64z"/>
	<path fill-rule="evenodd" clip-rule="evenodd" fill="#FFFFFF" d="M191.48,278.2c0.068,2.571,0.379,4.899,0.239,7.68
		c-5.219,0.621-8.664,3.016-14.16,3.36c-0.005-1.755,0.323-3.843-1.199-4.08c-1.935,0.044-1.473,2.734-1.2,4.32
		c-1.597-0.084-3.573,0.212-4.8-0.24c1.147-4.112-3.087-4.55-2.88-0.96c-4.406-0.396-7.923-1.678-11.761-2.641
		c0.908-4.019-3.377-7.125-2.88-0.96c-2.435-0.445-4.319-1.44-6-2.64c0.866-2.808-3.028-5.575-2.88-1.44
		c-4.028-0.932-10.052,0.133-12.96-1.92c-0.353-1.326-1.381-1.979-2.16-2.88c0.028-1.652-0.128-3.488,0.24-4.8
		c4.568-0.741,8.608,3.327,14.4,4.08c4.671,0.606,9.245-1.017,12.72,0c0.974,0.285,2.07,2.071,3.359,2.4
		c2.042,0.52,4.467-0.316,6.48,0.239c1.36,0.376,2.446,1.47,3.84,1.681C177.192,280.503,184.274,279.312,191.48,278.2z"/>
	<path fill-rule="evenodd" clip-rule="evenodd" fill="#FFFFFF" d="M168.68,218.439c0.217,0.385-0.517,3.04,0.96,2.881
		c1.804-0.167,2.537-3.682,1.44-4.561c1.106-0.93,2.295-1.863,4.08-0.96c0.145,1.296-0.457,3.337,0.72,3.601c0.32,0,0.64,0,0.96,0
		c1.238-0.202,0.396-2.484,0.96-3.36c3.185,0.145,5.919-0.161,8.4-0.72c-8.499,4.621-15.083,11.157-24.24,15.119
		c-4.602,0.908-7.831-1.562-11.28-1.92c-2.061-0.213-4.132,0.432-6.24,0.24c-3.841-0.348-7.657-3.497-12-3.84
		c-4.44-0.351-6.88-0.473-9.84-2.4c-1.285-0.836-2.099-1.999-3.36-2.64c-1.397-0.71-3.046-0.786-4.32-1.44
		c-1.933-0.99-3.033-3.331-5.76-2.879c-2.458-2.429-6.011-2.963-8.64-5.041c-1.723-1.361-2.863-2.87-4.8-4.08
		c-1.829-1.142-3.923-1.809-5.28-3.6c1.63-0.152,3.995,0.938,6.48,0.721c-0.487,0.754-0.653,1.956,0,2.64
		c0.341-0.021,0.68-0.04,0.72,0.239c0.878-0.24,1.611-0.629,1.44-1.92c1.188,0.493,2.6,0.76,4.08,0.961
		c-0.356,0.952-0.742,2.358,0,3.119c0.766-0.142,0.742,0.451,1.2,0c1.215-0.145,0.956-1.764,1.2-2.88
		c4.898,0.222,6.145,4.095,8.4,6.96c-0.341,0.707-0.725,1.515-0.24,2.4c0.279-0.039,0.427,0.053,0.48,0.24
		c1.592,0.232,1.683-1.037,2.4-1.681c3.544,0.265,6.305-0.255,8.88-0.96c0.116,1.708-0.583,3.094,0.72,3.84
		c0.556,0.077,0.921-0.038,1.2-0.239c0.82-0.461,0.361-2.199,0.48-3.36c0.594-0.389,2.484,1.962,5.04,1.2
		c0.517,1.948,0.482,4.966,2.4,4.56c2.095-0.442,0.185-3.466,0-5.279c3.047-0.978,3.273,2.756,6,2.88
		c-0.041,1.96-0.232,4.072,1.2,4.56c1.869-0.051,1.406-2.434,1.44-4.32c0.566-0.474,1.606-0.473,2.4-0.72
		c0.969,1.831,0.348,5.253,2.64,5.761c2.236-0.966,0.029-3.84,0.24-5.761c1.996,0.483,3.148,1.812,5.04,2.4
		c-0.376,0.822-0.704,2.153-0.24,3.12c3.712,1.334,1.558-5.121,5.28-4.561c0.615,1.305-0.37,4.21,0.96,4.801
		c2.191,0.351,1.908-1.771,1.92-3.601c0.948,0.011,1.392,0.528,2.16,0.72c-0.722,3.516,3.206,3.066,2.88,0.24
		C167.854,218.895,168.384,218.784,168.68,218.439z"/>
</g>
</svg>
