<?xml version="1.0" encoding="utf-8"?>
<!-- Generator: Adobe Illustrator 15.0.0, SVG Export Plug-In . SVG Version: 6.00 Build 0)  -->
<!DOCTYPE svg PUBLIC "-//W3C//DTD SVG 1.1//EN" "http://www.w3.org/Graphics/SVG/1.1/DTD/svg11.dtd">
<svg version="1.1" id="Capa_1" xmlns="http://www.w3.org/2000/svg" xmlns:xlink="http://www.w3.org/1999/xlink" x="0px" y="0px"
	 width="1080px" height="2160px" viewBox="0 0 1080 2160" enable-background="new 0 0 1080 2160" xml:space="preserve">
<g>
	<path fill-rule="evenodd" clip-rule="evenodd" fill="#FFFFFF" d="M610.92,1001.72c0.865,0.096,1.529,0.391,1.68,1.2
		c0.548,0.067,0.902-0.058,0.96-0.48c0.373,1.354,1.653,2.234,0.721,3.6C612.34,1005.42,611.708,1003.492,610.92,1001.72z"/>
	<path fill-rule="evenodd" clip-rule="evenodd" d="M558.6,1005.56c0.49,2.129-0.256,4.368,0.96,6c-1.56,0.671-3.72,0.522-5.76,0.48
		c-0.733-2.612-0.528-6.271,1.681-7.44C555.893,1005.037,557.167,1005.485,558.6,1005.56z M554.52,1006.52
		c0.524,1.684-0.496,3.433,0.48,4.56c0.588-0.727,1.562,0.182,2.4,0c0.669-1.063,0.059-1.982,0.96-2.88
		c-0.413,0.013-0.615-0.185-0.721-0.48c0.24,0,0.48,0,0.721,0C557.786,1006.105,556.024,1005.365,554.52,1006.52z"/>
	<path fill-rule="evenodd" clip-rule="evenodd" fill="#FFFFFF" d="M558.36,1007.72c-0.24,0-0.48,0-0.721,0
		c0.105,0.295,0.308,0.493,0.721,0.48c-0.901,0.897-0.291,1.816-0.96,2.88c-0.838,0.182-1.812-0.727-2.4,0
		c-0.977-1.127,0.044-2.876-0.48-4.56C556.024,1005.365,557.786,1006.105,558.36,1007.72z"/>
	<path fill-rule="evenodd" clip-rule="evenodd" fill="#FFFFFF" d="M545.64,1016.6c0.968,2.129,4.255,5.09,1.681,7.2
		c-0.32,0-0.641,0-0.96,0C545.791,1021.244,540.674,1017.129,545.64,1016.6z"/>
	<path fill-rule="evenodd" clip-rule="evenodd" d="M560.76,1020.2c-0.64,0-1.279,0-1.92,0c0.537,2.396,2.129,1.404,3.601,0.72
		c-0.029-0.691-1.023-0.417-0.96-1.2c0.716-0.596,1.553,0.224,1.92,0.72c-0.38,2.969-5.896,2.781-5.761,0
		C557.707,1019.077,560.142,1017.599,560.76,1020.2z"/>
	<path fill-rule="evenodd" clip-rule="evenodd" d="M535.32,1021.64c0.525,1.715,2.688,1.792,3.12,3.6
		c-1.42,0.329-3.074-1.048-3.36-2.64c-0.458,0.102-0.435,0.686-1.2,0.48c0.06,0.608-0.092,2.251-1.44,2.16
		C533.407,1023.678,532.771,1021.785,535.32,1021.64z"/>
	<path fill-rule="evenodd" clip-rule="evenodd" d="M551.64,1023.32c2.577,1.03,1.445,3.971,3.12,5.28
		c-0.159,0.96-0.899,1.34-0.96,2.4c-2.396-0.004-2.493-2.307-4.8-2.4C548.082,1025.042,551.905,1026.226,551.64,1023.32z
		 M550.2,1026.2c0.676,0.242-0.066,1.019,0,1.44c1.176,0.938,1.726,1.014,2.88,1.92c1.472-1.253-0.245-3.785-1.68-4.32
		C551.401,1026.404,550.56,1025.814,550.2,1026.2z"/>
	<path fill-rule="evenodd" clip-rule="evenodd" fill="#FFFFFF" d="M551.4,1025.24c1.435,0.535,3.151,3.066,1.68,4.32
		c-1.154-0.906-1.704-0.981-2.88-1.92c-0.066-0.421,0.676-1.198,0-1.44C550.56,1025.814,551.401,1026.404,551.4,1025.24z"/>
	<path fill-rule="evenodd" clip-rule="evenodd" d="M557.16,1031.72c-1.229-2.405,1.946-2.115,1.92-4.08
		c1.172-0.206,1.522-0.493,3.12-0.48c1.543,1.517,3.302,2.915,4.319,4.32c-0.072,5.402-3.214,1.598-4.8,0.96
		c-0.377-0.152-1.214,0.291-1.439,0.24C558.979,1032.389,558.341,1031.399,557.16,1031.72z M560.04,1028.36
		c-0.303,1.297-1.534,1.666-2.16,2.64c1.885,0.081,2.696,1.089,4.32,0.24c1.12,0.4,0.929,2.111,2.88,1.68
		C564.799,1030.9,563.404,1028.08,560.04,1028.36z"/>
	<path fill-rule="evenodd" clip-rule="evenodd" fill="#FFFFFF" d="M565.08,1032.92c-1.951,0.431-1.76-1.28-2.88-1.68
		c-1.624,0.849-2.436-0.159-4.32-0.24c0.626-0.974,1.857-1.343,2.16-2.64C563.404,1028.08,564.799,1030.9,565.08,1032.92z"/>
	<path fill-rule="evenodd" clip-rule="evenodd" d="M553.08,1033.16c0.891,0.604,3.132,0.952,2.4,2.4
		c-0.234-0.007-0.187-0.294-0.24-0.48c-0.377,0.103-0.205,0.755-0.96,0.48C554.32,1034.32,552.988,1034.451,553.08,1033.16z"/>
	<path fill-rule="evenodd" clip-rule="evenodd" fill="#FFFFFF" d="M623.64,1034.12c0.534,1.324,0.5,1.692,0.48,3.36
		c-0.931-0.921-1.769-0.459-3.36-0.72c0.237-0.963,0.793-1.607,1.2-2.4C622.718,1034.478,622.808,1033.928,623.64,1034.12z"/>
	<path fill-rule="evenodd" clip-rule="evenodd" d="M564.12,1036.28c0.688,1.231,0.747,3.093,2.16,3.6
		c-0.419,7.59-11.994,2.017-5.521-2.16c-0.076-0.563-0.379-0.9-0.24-1.68C561.163,1035.983,563.099,1036.258,564.12,1036.28z
		 M559.8,1040.6c0.304,0.416,0.812,0.629,0.72,1.44c1.191-0.231,1.28,0.64,2.16,0.72c0.958-0.802,1.935-1.586,2.641-2.64
		c-0.554,0.073-0.267-0.693-0.721-0.72c-0.098,0.302-0.309,0.491-0.72,0.48c0.067-1.027-0.733-1.187-0.479-2.4
		C561.375,1036.164,560.95,1039.556,559.8,1040.6z"/>
	<path fill-rule="evenodd" clip-rule="evenodd" fill="#FFFFFF" d="M563.4,1037.48c-0.254,1.213,0.547,1.373,0.479,2.4
		c0.411,0.011,0.622-0.178,0.72-0.48c0.454,0.027,0.167,0.793,0.721,0.72c-0.706,1.054-1.683,1.837-2.641,2.64
		c-0.88-0.08-0.969-0.951-2.16-0.72c0.092-0.811-0.416-1.024-0.72-1.44C560.95,1039.556,561.375,1036.164,563.4,1037.48z"/>
	<path fill-rule="evenodd" clip-rule="evenodd" d="M616.92,1039.4c1.929,0.792,3.805,1.635,4.08,4.08
		c-0.431,0.031-0.506-0.293-0.96-0.24c1.153,1.111,3.202,3.256,1.92,5.28c-1.857-0.357,0.259-3.244-2.16-3.6
		c-0.821,0.191-0.034,1.401-0.479,1.68c-1.296-0.438-0.608-1.398-0.721-2.88c0.279-0.201,0.644-0.316,1.2-0.24
		c0.142-0.861-0.278-1.161-0.479-1.68c-4.194-0.064-0.79,6.03-2.641,7.44c-1.539-1.895-0.238-5.681-0.239-7.68
		c0.283-0.276,0.848-0.272,1.439-0.24c-0.143-1.407-0.921-0.216-1.68-0.24C616.14,1040.219,616.921,1040.201,616.92,1039.4z"/>
	<path fill-rule="evenodd" clip-rule="evenodd" fill="#FFFFFF" d="M510.12,1041.32c-0.985,1.033-2.43,0.197-3.6,0.72
		c-2.222,0.993-3.993,5.708-3.6,7.92c0.29,1.628,2.771,3.286,4.08,4.32c0.846,0.668,1.168,1.766,1.92,2.4
		c1.024,0.864,2.335,1.039,3.6,1.68c1.639,0.831,2.195,1.844,4.32,2.16c4.162,0.62,8.552-0.13,12-0.72
		c1.322,0.54,2.287,0.303,3.84,0c-3.911,2.97-7.799,5.961-9.12,11.52c-1.903-0.717-3.762-0.051-6-0.48
		c-1.026-0.196-2.4-1.438-3.84-1.92c-2.291-0.768-4.611-0.943-6.96-1.92c-0.822-0.342-1.848-0.972-2.88-1.44
		c-7.708-3.498-7.123-10.52-5.52-20.88c-0.184-0.697-0.379-1.38-0.96-1.68C501.055,1040.966,505.486,1039.467,510.12,1041.32z"/>
	<path fill-rule="evenodd" clip-rule="evenodd" fill="#FFFFFF" d="M594.84,1040.36c0.204-0.044,0.227,0.094,0.24,0.24
		c0.562,1.117,2.355,1.004,3.12,1.92c-0.813,0.787-1.6,1.6-2.641,2.16c0.12,3.194,3.647,5.668,0.721,8.4
		c-0.417-1.903-1.851-2.79-3.12-3.84c-0.925,2.436-1.625,5.095-2.641,7.44c-2.713-1.014-1.476-4.356-2.399-7.68
		c-0.498-1.79-2.281-2.769-1.68-5.76c1.872-1.646,3.988-2.078,6.96-1.44C593.304,1040.744,595.098,1041.578,594.84,1040.36z"/>
	<path fill-rule="evenodd" clip-rule="evenodd" d="M634.68,1045.64c-1.339-0.553-1.201-1.113-2.16-1.92
		c-1.389,1.083-0.002,3.667,0,5.521c-0.43-0.031-0.506,0.293-0.96,0.24c-1.273-1.862-0.191-5.027-0.479-6.24
		C632.464,1042.321,634.492,1043.878,634.68,1045.64z"/>
	<path fill-rule="evenodd" clip-rule="evenodd" d="M524.52,1043c1.259,0.501,2.33,1.19,2.16,3.12c0.947,0.733,2.027,1.333,2.4,2.64
		c0.457-0.103,0.603-0.517,1.2-0.479c-0.559,0.481-0.747,1.333-1.2,1.92c-1.866-0.294-1.017-3.304-3.36-3.12
		c0.138-1.338-0.109-2.291-0.72-2.88c-0.646-0.09-1.959,1.182-2.16,0C523.695,1044.158,523.278,1043.482,524.52,1043z"/>
	<path fill-rule="evenodd" clip-rule="evenodd" d="M524.52,1044.92c0.107,1.067-0.65,1.27-0.96,1.92
		c-0.197,0.917,1.157,0.283,0.96,1.2c-0.773-0.053-1.016,0.424-1.92,0.24C522.582,1046.502,522.964,1045.124,524.52,1044.92z"/>
	<path fill-rule="evenodd" clip-rule="evenodd" d="M612.12,1051.16c-0.976,0.724-0.93-1.623-1.92-1.68
		c-1.453,1.375,0.592,2.971,0.479,4.56c-1.48-1.323-3.011-3.953-1.199-6C611.556,1047.885,611.667,1049.693,612.12,1051.16z"/>
	<path fill-rule="evenodd" clip-rule="evenodd" d="M554.04,1052.6c-0.872,0.072-0.32-1.28-0.72-1.68
		c-1.946-0.186-1.602,1.919-3.36,1.92C549.491,1049.214,556.033,1048.972,554.04,1052.6z"/>
	<path fill-rule="evenodd" clip-rule="evenodd" d="M537.96,1052.84c-1.306-1.019-3.853-1.389-5.04,0c0-0.56,0-1.12,0-1.68
		C535.163,1050.156,537.382,1050.621,537.96,1052.84z"/>
	<path fill-rule="evenodd" clip-rule="evenodd" fill="#FFFFFF" d="M484.2,1052.12c-0.309,1.131-1.279,1.602-2.4,1.92
		C482.541,1053.34,483.147,1052.508,484.2,1052.12z"/>
	<path fill-rule="evenodd" clip-rule="evenodd" d="M622.2,1055.24c-1.179-0.022-1.07-1.33-2.16-1.44
		c0.163,1.542,0.917,1.809,1.2,3.6c-1.989-0.297-2.354-3.064-1.681-4.8C621.214,1052.706,621.812,1053.869,622.2,1055.24z"/>
	<path fill-rule="evenodd" clip-rule="evenodd" fill="#FFFFFF" d="M546.12,1054.76c0.532,0.699,0.975,0.095,2.16,0.24
		c0.572,0.627,0.886,1.514,1.68,1.92c-1.452,0.379-3.029,0.504-5.04,0.72c0.269-0.295,0.209-0.493-0.24-0.48
		C545.242,1056.405,546.743,1055.983,546.12,1054.76z"/>
	<path fill-rule="evenodd" clip-rule="evenodd" d="M633.24,1055.48c1.316,0.609-0.741,3.624-1.44,1.68
		C631.846,1056.166,633.067,1056.348,633.24,1055.48z"/>
	<path fill-rule="evenodd" clip-rule="evenodd" fill="#FFFFFF" d="M473.4,1059.32c0.011-3.369,4.089-2.696,1.68,0
		C474.219,1059.121,473.919,1059.861,473.4,1059.32z"/>
	<path fill-rule="evenodd" clip-rule="evenodd" fill="#FFFFFF" d="M463.08,1063.4c-1.385,2.943-3.065,4.948-4.32,8.4
		c-0.585-0.614-1.093-1.307-1.44-2.16c-3.055-3.425-7.635-4.568-11.76-6.24c-1.407-0.57-2.534-1.775-4.08-2.16
		c-1.974-0.491-4.711-0.281-6.48-0.48c-3.98-0.449-8.059,0.794-11.04-1.44c-0.118-0.758,1.191-0.089,0.96-0.96
		c5.788-0.453,11.363-0.093,18.24-0.24c2.864-0.062,5.62,1.071,7.92,1.2C454.872,1059.532,459.274,1061.446,463.08,1063.4z"/>
	<path fill-rule="evenodd" clip-rule="evenodd" fill="#FFFFFF" d="M659.4,1058.6c0.928,1.88-1.504,5.02-0.721,8.4
		c0.678,2.924,3.858,3.539,5.521,5.52c-9.727,3.71-12.967,13.183-26.88,12.24c3.262-1.857,7.209-3.03,9.12-6.24
		c0.193,0.207,0.657,0.143,0.72,0.48c0.593-0.927,1.598-1.442,2.64-1.92c-0.065-1.265,1.584-1.274,0.96-2.4
		c2.579-1.309,2.06-4.31,2.88-6.72c0.505-1.483,2.258-2.698,3.36-4.56C658.108,1061.529,657.915,1059.74,659.4,1058.6z"/>
	<path fill-rule="evenodd" clip-rule="evenodd" fill="#FFFFFF" d="M480.36,1059.08c0.415,0.545,0.993,0.927,0.96,1.92
		C480.737,1060.623,480.421,1059.979,480.36,1059.08z"/>
	<path fill-rule="evenodd" clip-rule="evenodd" fill="#FFFFFF" d="M624.84,1061.48c0.946,0.334,1.661,0.899,2.641,1.2
		c0.048,1.888-0.588,3.092-1.921,3.6c-0.104-0.295-0.307-0.493-0.72-0.48C625.308,1064.475,624.288,1062.408,624.84,1061.48z"/>
	<path fill-rule="evenodd" clip-rule="evenodd" fill="#FFFFFF" d="M470.52,1062.68c0.01,1.05-0.686,1.394-1.2,1.92
		C468.735,1063.921,469.711,1062.761,470.52,1062.68z"/>
	<path fill-rule="evenodd" clip-rule="evenodd" fill="#FFFFFF" d="M652.44,1067.24c0.408-0.088,0.452,0.187,0.479,0.479
		c-1.829,3.131-2.086,7.834-5.76,9.12C648.385,1073.105,649.376,1069.136,652.44,1067.24z"/>
	<path fill-rule="evenodd" clip-rule="evenodd" fill="#FFFFFF" d="M576.36,1068.44c-4.607,1.795-11.677,5.281-12.24,10.8
		c-0.061,0.593,0.014,2.139,0.24,2.88c0.451,1.477,1.838,2.37,2.399,3.6c0.547,1.196,0.938,2.069,1.92,3.12
		c-1.902-0.02-3.254-2.664-6.479-2.16c-6.178-3.262-10.084-8.796-18.96-9.36c4.804-3.817,10.28-5.553,17.52-6.48
		c2.146-1.912,6.706-1.258,9.12-1.2C570.622,1067.088,573.743,1068.396,576.36,1068.44z"/>
	<path fill-rule="evenodd" clip-rule="evenodd" fill="#FFFFFF" d="M491.64,1069.88c3.125,1.995,5.49,6.83,10.8,7.44
		C496.985,1077.654,494.355,1073.085,491.64,1069.88z"/>
	<path fill-rule="evenodd" clip-rule="evenodd" fill="#FFFFFF" d="M477.96,1072.04c0.71,0.33,1.734,0.346,2.16,0.96
		c-0.373,0.827-1.281,1.119-2.16,1.44c0.112-0.512-0.343-0.457-0.72-0.48C477.072,1072.912,477.933,1072.893,477.96,1072.04z"/>
	<path fill-rule="evenodd" clip-rule="evenodd" fill="#FFFFFF" d="M622.44,1076.36c-0.046,0.195-0.241,0.239-0.24,0.48
		c-2.112,1.428-5.437,1.493-7.681,3.36c-1.411,1.175-2.863,2.42-2.399,5.28c0.224,1.376,2.021,2.139,1.2,4.319
		c2.305,0.495,3.496,2.104,5.76,2.64c-4.797,2.118-12.63,1.223-15.12-2.879c-1.91,0.972-4.104-0.864-6.72-1.2
		c-5.339-0.687-11.235,0.048-16.561-1.681c6.743-3.036,15.858,3.341,22.32,1.44c-0.188-1.207-0.23-1.316,0.48-1.92
		c-0.15-0.57-1.478,0.037-1.681-0.48c-1.214-2.261-1.878-5.052,0.96-7.2c0.343-0.259,2.501-0.731,3.36-1.2
		c0.575-0.314,1.505-1.254,2.16-1.44c1.287-0.365,3.034,0.055,4.319-0.24c2.417-0.554,4.499-1.567,6.721-0.96
		C619.982,1076.526,621.463,1074.925,622.44,1076.36z"/>
	<path fill-rule="evenodd" clip-rule="evenodd" fill="#FFFFFF" d="M483.72,1074.68c0.344,0.295,0.455,0.825,0.48,1.44
		C483.292,1076.326,483.351,1075.046,483.72,1074.68z"/>
	<path fill-rule="evenodd" clip-rule="evenodd" fill="#FFFFFF" d="M488.28,1074.68c1.292-0.051,0.62,1.99,0.24,2.4
		C487.412,1077.088,487.69,1075.033,488.28,1074.68z"/>
	<path fill-rule="evenodd" clip-rule="evenodd" fill="#FFFFFF" d="M466.44,1075.88c-0.349,0.531-0.162,1.599-0.72,1.92
		c-0.661-0.139-1.003-0.597-1.68-0.72C463.942,1075.479,465.489,1075.184,466.44,1075.88z"/>
	<path fill-rule="evenodd" clip-rule="evenodd" fill="#FFFFFF" d="M506.28,1077.8c-0.618,0.153-3.303,0.187-3.36-0.24
		C502.858,1077.098,505.697,1077.247,506.28,1077.8z"/>
	<path fill-rule="evenodd" clip-rule="evenodd" fill="#FFFFFF" d="M521.4,1081.88c-2.415-0.608-4.856-1.068-7.68-2.16
		C515.704,1078.785,520.333,1079.698,521.4,1081.88z"/>
	<path fill-rule="evenodd" clip-rule="evenodd" fill="#FFFFFF" d="M478.2,1079.48c0.863-0.174,2.44,0.417,3.12,0.72
		C480.657,1080.679,479.282,1079.884,478.2,1079.48z"/>
	<path fill-rule="evenodd" clip-rule="evenodd" fill="#FFFFFF" d="M488.28,1081.16c1.149,1.21-1.206,2.692-1.2,4.32
		C486.298,1083.812,488.021,1082.584,488.28,1081.16z"/>
	<path fill-rule="evenodd" clip-rule="evenodd" fill="#FFFFFF" d="M522.36,1082.36c0.587-0.179,2.618,0.255,2.88,1.2
		C523.979,1083.461,523.289,1082.791,522.36,1082.36z"/>
	<path fill-rule="evenodd" clip-rule="evenodd" fill="#FFFFFF" d="M493.32,1083.8c-0.565-0.005-0.707,0.413-1.44,0.24
		c0.198-0.679-0.338-0.622-0.24-1.2C492.454,1082.293,493.687,1082.097,493.32,1083.8z"/>
	<path fill-rule="evenodd" clip-rule="evenodd" fill="#FFFFFF" d="M476.04,1086.439c0.009,1.758-3.261,3.418-5.28,1.921
		C470.579,1085.343,474.757,1083.924,476.04,1086.439z"/>
	<path fill-rule="evenodd" clip-rule="evenodd" fill="#FFFFFF" d="M507.72,1087.88c2.87,4.71-4.75,8.873-5.76,4.56
		C501.13,1088.898,504.846,1088.07,507.72,1087.88z"/>
	<path fill-rule="evenodd" clip-rule="evenodd" fill="#FFFFFF" d="M526.68,1088.36c0.387-0.068,0.413,0.227,0.72,0.239
		c0.253,1.693-0.975,1.905-1.2,3.12C524.934,1090.853,527.358,1090.17,526.68,1088.36z"/>
	<path fill-rule="evenodd" clip-rule="evenodd" fill="#FFFFFF" d="M517.56,1089.32c-0.017,0.863-1.001,0.758-1.92,0.72
		C515.655,1089.192,516.846,1088.726,517.56,1089.32z"/>
	<path fill-rule="evenodd" clip-rule="evenodd" fill="#FFFFFF" d="M491.64,1090.28c0.153,0.953-0.305,1.295-0.72,1.68
		c-0.419-0.221-0.53-0.75-0.48-1.44C491.018,1090.618,490.962,1090.082,491.64,1090.28z"/>
	<path fill-rule="evenodd" clip-rule="evenodd" fill="#FFFFFF" d="M480.36,1091.72c-0.231,0.889-0.718,1.522-1.68,1.681
		C478.272,1092.801,479.317,1090.868,480.36,1091.72z"/>
	<path fill-rule="evenodd" clip-rule="evenodd" fill="#FFFFFF" d="M525.72,1091.96c-0.498,3.423-3.758,6.161-6.96,7.68
		C520.702,1096.701,523.465,1094.585,525.72,1091.96z"/>
	<path fill-rule="evenodd" clip-rule="evenodd" fill="#FFFFFF" d="M570.84,1099.88c-7.625-1.366-11.814-4.821-18.479-6.96
		c2.41-0.458,6.065,0.568,7.68,2.641c2.906,0.704,4.646,1.104,6.72,2.64C568.851,1098.029,570.5,1098.3,570.84,1099.88z"/>
	<path fill-rule="evenodd" clip-rule="evenodd" fill="#FFFFFF" d="M530.76,1098.439c0.14-3.319,6.33-5.341,6.72-1.92
		C537.85,1099.762,532.682,1101.896,530.76,1098.439z"/>
	<path fill-rule="evenodd" clip-rule="evenodd" fill="#FFFFFF" d="M513.96,1096.28c0.476,0.454,0.117,1.134,0,1.68
		c-1.208-0.232-2.081,1.391-2.64-0.72C512.626,1097.303,512.519,1096.488,513.96,1096.28z"/>
	<path fill-rule="evenodd" clip-rule="evenodd" fill="#FFFFFF" d="M479.4,1097.24c-1.366,0.485-4.504,0.014-4.32,0.72
		c-1.093-0.442-3.407-0.077-5.04-0.24C471.297,1097.131,478.065,1096.222,479.4,1097.24z"/>
	<path fill-rule="evenodd" clip-rule="evenodd" fill="#FFFFFF" d="M547.8,1099.4c0.807-0.247,0.374,0.746,0.48,1.199
		c-0.788-0.037-1.059,1.074-1.681,0.48C546.46,1099.98,547.401,1099.961,547.8,1099.4z"/>
	<path fill-rule="evenodd" clip-rule="evenodd" fill="#FFFFFF" d="M564.12,1099.4c1.023,0.157,2.643,2.074,3.36,0.96
		c0.412,2.015-3.798,1.48-4.801,2.88c-5.516-1.691-9.544,1.87-12.479,4.32c1.258-4.104,7.169-5.631,12.72-6.24
		C563.688,1101.047,563.536,1099.856,564.12,1099.4z"/>
	<path fill-rule="evenodd" clip-rule="evenodd" fill="#FFFFFF" d="M611.4,1101.32c0.455,0.984,1.492,1.387,2.159,2.16
		c-3.601-0.511-8.493-2.775-12.96-2.4c-1.064,0.09-2.033,0.853-3.119,0.96c-2.188,0.217-4.945-0.767-7.2,0.479
		c-3.805-1.494-9.256-0.166-12.24-2.159c2.524-1.439,4.304,0.004,6.96-0.24c2.499,1.532,7.277,1.176,10.56,0
		c0.929-0.209,0.854,0.586,1.44,0.72c1.438-1.351,5.243,0.562,6-0.72C605.086,1101.08,608.534,1102.013,611.4,1101.32z"/>
	<path fill-rule="evenodd" clip-rule="evenodd" fill="#FFFFFF" d="M515.4,1101.08c-1.945,1.12-6.601,3.465-8.88,1.2
		C509.947,1102.017,512.075,1100.916,515.4,1101.08z"/>
	<path fill-rule="evenodd" clip-rule="evenodd" fill="#FFFFFF" d="M475.32,1103c-0.054,0.666-0.761,0.679-0.96,1.2
		c-0.898,0.019-0.819-0.941-0.96-1.681C474.271,1101.952,474.974,1101.965,475.32,1103z"/>
	<path fill-rule="evenodd" clip-rule="evenodd" fill="#FFFFFF" d="M519,1102.04c1.196,0.563,2.508,1.012,2.16,3.12
		C520.379,1104.182,519.819,1102.981,519,1102.04z"/>
	<path fill-rule="evenodd" clip-rule="evenodd" fill="#FFFFFF" d="M524.28,1103c0.56,0.08,1.034,0.246,1.2,0.72
		c-0.109,0.851-0.589,1.331-1.44,1.44C523.488,1104.537,524.049,1103.572,524.28,1103z"/>
	<path fill-rule="evenodd" clip-rule="evenodd" fill="#FFFFFF" d="M566.76,1103.24c0.03,0.431-0.294,0.506-0.24,0.96
		c-0.578,0.099-0.521-0.438-1.199-0.24C565.459,1103.379,566.227,1103.426,566.76,1103.24z"/>
	<path fill-rule="evenodd" clip-rule="evenodd" fill="#FFFFFF" d="M594.6,1103.48c0.48,0,0.96,0,1.44,0
		c6.836,6.852,1.826,20.494-7.44,20.64c3.985-2.175,7.7-4.62,9.841-8.64c-0.038-1.99-0.489-4.71-0.96-6.961
		c-0.9-0.62-1.242-1.798-1.44-3.119C595.735,1104.585,594.709,1104.491,594.6,1103.48z"/>
	<path fill-rule="evenodd" clip-rule="evenodd" fill="#FFFFFF" d="M481.32,1103.72c0.646,0.284-0.001,1.252,0,1.681
		C480.674,1105.116,481.321,1104.148,481.32,1103.72z"/>
	<path fill-rule="evenodd" clip-rule="evenodd" fill="#FFFFFF" d="M502.44,1104.439c0.994-0.903,1.755,1.488,1.2,2.16
		C502.718,1106.402,503.567,1104.433,502.44,1104.439z"/>
	<path fill-rule="evenodd" clip-rule="evenodd" fill="#FFFFFF" d="M492.12,1104.92c-1.235,1.405-2.108,3.173-4.56,3.36
		c-0.106-0.214-0.211-0.43-0.48-0.48C487.523,1105.604,489.666,1105.105,492.12,1104.92z"/>
	<path fill-rule="evenodd" clip-rule="evenodd" fill="#FFFFFF" d="M539.88,1106.36c1.199-0.239,1.175,0.745,2.16,0.72
		c-0.085,0.796-0.719,1.041-1.2,1.439C539.855,1108.514,539.263,1107.211,539.88,1106.36z"/>
	<path fill-rule="evenodd" clip-rule="evenodd" fill="#FFFFFF" d="M503.88,1106.84c0.573,0.23,0.932,1.397,0.48,1.92
		C503.611,1108.488,504.304,1107.73,503.88,1106.84z"/>
	<path fill-rule="evenodd" clip-rule="evenodd" fill="#FFFFFF" d="M523.08,1107.561c1.502,1.457,2.324,3.596,4.56,4.319
		C524.941,1112.577,524.072,1109.37,523.08,1107.561z"/>
	<path fill-rule="evenodd" clip-rule="evenodd" fill="#FFFFFF" d="M571.08,1108.04c2.064-0.303,3.384,2.214,4.32,3.84
		C573.27,1111.291,572.718,1109.122,571.08,1108.04z"/>
	<path fill-rule="evenodd" clip-rule="evenodd" fill="#FFFFFF" d="M548.04,1108.28c0.074-0.326,0.601-0.199,0.96-0.24
		c-0.285,1.235-1.804,1.236-1.68,2.88c-5.107,1.58-8.533,2.309-14.16,2.4c0.318-1.271,2.175-0.977,3.12-0.48
		C540.222,1112.251,546.201,1110.079,548.04,1108.28z"/>
	<path fill-rule="evenodd" clip-rule="evenodd" fill="#FFFFFF" d="M512.76,1112.84c-0.88,0-1.76,0-2.64,0
		c-0.614-1.26-1.094-1.54-0.48-3.12c2.15-1.287,4.403-1.301,4.08,1.44C513.631,1111.916,513.153,1112.05,512.76,1112.84z"/>
	<path fill-rule="evenodd" clip-rule="evenodd" fill="#FFFFFF" d="M588.36,1108.52c0.388-0.067,0.413,0.228,0.72,0.24
		c-0.038,2.441-1.432,3.528-3.12,4.32C584.509,1111.019,587.513,1109.824,588.36,1108.52z"/>
	<path fill-rule="evenodd" clip-rule="evenodd" fill="#FFFFFF" d="M606.36,1109c1.314,0.445,1.846,1.674,3.359,1.92
		c0.441,0.279-0.126,1.566,0.96,1.2c-0.598,1.481-0.644,3.516-2.88,3.36C606.663,1113.741,605.07,1111.196,606.36,1109z"/>
	<path fill-rule="evenodd" clip-rule="evenodd" fill="#FFFFFF" d="M503.88,1109.48c0.687,0.033,0.439,1.001,0.48,1.68
		C503.448,1111.353,504.055,1110.025,503.88,1109.48z"/>
	<path fill-rule="evenodd" clip-rule="evenodd" fill="#FFFFFF" d="M480.36,1109.72c0.646-0.066,0.684,1.69,0.24,1.92
		C479.485,1111.592,480.508,1110.316,480.36,1109.72z"/>
	<path fill-rule="evenodd" clip-rule="evenodd" fill="#FFFFFF" d="M495.24,1111.64c0.315,0.245,0.884,0.235,1.2,0.48
		c-0.075,0.899-0.803,0.975-1.44,0.72C494.923,1112.283,495.039,1111.919,495.24,1111.64z"/>
	<path fill-rule="evenodd" clip-rule="evenodd" fill="#FFFFFF" d="M503.64,1111.64c0.986,0.693,1.146,2.215,1.44,3.601
		C504.162,1114.479,503.719,1113.241,503.64,1111.64z"/>
	<path fill-rule="evenodd" clip-rule="evenodd" fill="#FFFFFF" d="M567.96,1114.52c1.029,1.886-0.42,2.769-1.92,3.36
		C563.825,1117.062,566.011,1112.793,567.96,1114.52z"/>
	<path fill-rule="evenodd" clip-rule="evenodd" fill="#FFFFFF" d="M524.52,1115.96c-0.909,2.423-4.737,4.146-3.36,8.4
		C518.742,1121.92,522.243,1117.883,524.52,1115.96z"/>
	<path fill-rule="evenodd" clip-rule="evenodd" fill="#FFFFFF" d="M592.44,1116.439c-0.529,0.508,0.308,0.71,0.239,1.44
		c-1.419-0.264-1.579,1.556-2.399-0.96C591.234,1116.994,591.485,1116.365,592.44,1116.439z"/>
	<path fill-rule="evenodd" clip-rule="evenodd" fill="#FFFFFF" d="M588.12,1118.12c-0.175,1.265-0.428,2.452-1.92,2.399
		C586.179,1119.053,586.772,1117.486,588.12,1118.12z"/>
	<path fill-rule="evenodd" clip-rule="evenodd" fill="#FFFFFF" d="M537,1118.12c0.074,1.434-0.349,2.371-1.92,2.16
		C534.853,1118.692,535.246,1117.727,537,1118.12z"/>
	<path fill-rule="evenodd" clip-rule="evenodd" fill="#FFFFFF" d="M563.4,1118.36c0.692,0.106,0.567,1.032,1.199,1.2
		c-0.42,0.379-1.278,0.32-1.92,0.479C562.927,1119.486,563.506,1119.266,563.4,1118.36z"/>
	<path fill-rule="evenodd" clip-rule="evenodd" fill="#FFFFFF" d="M509.88,1119.32c0.15,1.35-0.523,1.876-1.44,2.16
		C507.893,1120.569,508.532,1119.102,509.88,1119.32z"/>
	<path fill-rule="evenodd" clip-rule="evenodd" fill="#FFFFFF" d="M598.44,1120.28c0.821-0.102,0.721,0.719,1.199,0.96
		c-0.619,1.099-0.655,1.504-0.479,3.12C598.098,1123.422,598.35,1121.907,598.44,1120.28z"/>
	<path fill-rule="evenodd" clip-rule="evenodd" fill="#FFFFFF" d="M606.12,1122.2c-0.538,0.421-0.929,0.991-1.2,1.68
		c-0.844-0.276-0.925-1.315-1.439-1.92C603.614,1120.35,606.256,1120.452,606.12,1122.2z"/>
	<path fill-rule="evenodd" clip-rule="evenodd" fill="#FFFFFF" d="M526.68,1121c0.32,0,0.64,0,0.96,0
		c0.111,0.751-0.208,1.071-0.96,0.96C526.68,1121.64,526.68,1121.32,526.68,1121z"/>
	<path fill-rule="evenodd" clip-rule="evenodd" fill="#FFFFFF" d="M502.68,1121.24c0.535,0.245-0.314,1.104,0,1.92
		c-1.03,0.069-1.586-0.334-2.16-0.721C501.247,1122.047,502.534,1122.215,502.68,1121.24z"/>
	<path fill-rule="evenodd" clip-rule="evenodd" fill="#FFFFFF" d="M572.52,1121.48c1.098,0.022,1.004,1.236,1.2,2.159
		c-1.318-0.075,0.075,2.025-1.68,1.921c0.519-0.904-0.376-1.017-0.48-1.921C572.639,1123.679,572.21,1122.21,572.52,1121.48z"/>
	<path fill-rule="evenodd" clip-rule="evenodd" fill="#FFFFFF" d="M543,1122.439c6.244-0.225,0.688,8.31-0.72,3.36
		C541.869,1124.355,542.793,1123.829,543,1122.439z"/>
	<path fill-rule="evenodd" clip-rule="evenodd" fill="#FFFFFF" d="M644.76,1141.64c-6.328,3.477-14.681,4.227-21.84,4.32
		c-2.906,0.038-6.117-0.943-7.92-2.88c-4.585,0.866-9.346-1.055-12.96,0.479c-1.942,0.825-5.357,3.525-6.48,4.801
		c-2.424,2.753-3.122,7.188-4.319,10.56c-3.637-6.961-4.227-15.892-6.48-24c4.194-1.91,11.033-2.502,17.76-3.12
		c2.524-3.477,7.252-4.748,10.561-7.439c0.204-0.045,0.227,0.093,0.24,0.239c1.941,0.219,2.232,2.088,4.56,1.92
		c1.979,3.331,5.993,4.143,9.12,6.961c1.581,1.424,5.168,4.342,7.68,5.52c1.269,0.595,2.633,1.058,3.601,1.44
		C640.231,1141.211,642.802,1140.37,644.76,1141.64z"/>
	<path fill-rule="evenodd" clip-rule="evenodd" d="M491.4,1124.6c2.066,0.906,0.193,3.515-1.92,3.12
		c-1.046-0.938-0.792-3.299,1.2-3.12c0.005,0.886-0.107,1.653-0.96,1.681C490.626,1127.059,491.55,1124.939,491.4,1124.6z"/>
	<path fill-rule="evenodd" clip-rule="evenodd" fill="#FFFFFF" d="M564.36,1125.08c1.176,1.303-0.697,2.089-1.44,2.88
		C561.339,1127.181,562.724,1124.845,564.36,1125.08z"/>
	<path fill-rule="evenodd" clip-rule="evenodd" fill="#FFFFFF" d="M595.56,1126.76c1.329,0.583-0.198,2.104-0.72,2.4
		c-0.517-0.204-0.849-0.591-0.72-1.44C594.964,1127.764,595.153,1127.153,595.56,1126.76z"/>
	<path fill-rule="evenodd" clip-rule="evenodd" fill="#FFFFFF" d="M532.68,1127.72c0.173,2.181-1.978,3.912-3.36,2.4
		c0.146-0.575,0.345-1.095,0.24-1.92C530.787,1129.019,531.314,1126.716,532.68,1127.72z"/>
	<path fill-rule="evenodd" clip-rule="evenodd" d="M506.76,1131.561c-0.283,1.876-1.036,3.283-3.36,3.119
		c-2.354-1.467,1.282-5.683,1.92-3.359C505.325,1131.745,506.452,1130.938,506.76,1131.561z M505.56,1132.04
		c-0.458-0.103-0.434-0.686-1.2-0.479c-0.211,0.771,0.792,0.328,0.72,0.959c-0.733,0.174-0.875-0.245-1.44-0.239
		c-0.254,0.968-0.315,1.726,0.96,1.68c-0.187-1.155,1.673-1.514,1.2-2.16C505.786,1131.946,505.764,1132.084,505.56,1132.04z"/>
	<path fill-rule="evenodd" clip-rule="evenodd" fill="#FFFFFF" d="M578.04,1132.28c0.494,0.065,0.226,0.894,0.72,0.96
		c-0.069,0.729-1.269,0.33-1.439,0.96C576.547,1133.488,578.044,1133.018,578.04,1132.28z"/>
	<path fill-rule="evenodd" clip-rule="evenodd" d="M532.44,1138.28c1.152,2.159,0.221,3.188,0,5.52
		c-3.92,1.382-5.472-2.341-3.6-5.28C530.214,1138.195,530.85,1137.945,532.44,1138.28z M529.32,1142.36
		c0.561,0.079,0.992,0.288,1.44,0.479c1.111-0.769,1.806-2.217,0.72-3.359C529.325,1138.976,528.636,1140.773,529.32,1142.36z"/>
	<path fill-rule="evenodd" clip-rule="evenodd" fill="#FFFFFF" d="M531.48,1139.48c1.085,1.143,0.391,2.591-0.72,3.359
		c-0.448-0.191-0.879-0.4-1.44-0.479C528.636,1140.773,529.325,1138.976,531.48,1139.48z"/>
	<path fill-rule="evenodd" clip-rule="evenodd" d="M525.48,1144.52c-0.079,0.562-0.289,0.992-0.48,1.44
		c-0.896,0.257-0.684-0.596-1.44-0.479C523.207,1143.653,524.894,1143.551,525.48,1144.52z"/>
	<path fill-rule="evenodd" clip-rule="evenodd" fill="#FFFFFF" d="M399.24,959c93.995,0,188.007,0,282,0
		c0,80.959,0,161.921,0,242.88c-94.078,0-188.164,0-282.24,0c0-80.723,0-161.437,0-242.16
		C398.979,959.379,398.96,959.041,399.24,959z M652.44,1081.16c0.456,0.449,0.603,0.026,1.199,0c3.558-2.523,6.891-5.85,11.04-7.92
		c1.881-0.939,4.193-0.931,5.761-2.64c-1.311-1.457-4.169,0.312-6,0c-2.02-1.86-4.26-2.476-4.561-5.52
		c-0.028-0.29,0.465-0.902,0.48-1.2c0.128-2.504,0.397-5.814,0.96-8.64c-0.454-0.688-1.382,0.833-1.681,0.24
		c0.282-2.893-2.025-5.137-2.88-7.68c-5.151-2.699-9.749-6.72-17.04-4.8c-2.02-8.62-3.258-18.022-7.2-24.72
		c-5.796-5.804-10.372-12.828-17.76-17.04c-4.254-2.425-8.585-4.359-12.96-6.48c-7.805-3.784-15.477-8.296-27.12-7.44
		c-5.039,0.771-12.229,0.172-17.52,0.24c-1.002,0.013-2.492,0.273-3.36,0.48c-4.919,1.17-9.304,4.093-12,7.68
		c-7.576,3.626-17.861,6.618-24.24,12.24c-1.104,0.016-1.432,0.808-2.4,0.96c-1.479-0.182-2.647-0.128-3.6,0.72
		c-0.218-0.422-0.841-0.439-1.2-0.72c-2.944,1.536-5.513,3.446-9.36,4.08c-1.82,2.66-4.752,4.208-7.44,6
		c-2.502,2.222-2.819,5.361-4.56,8.64c-0.393,0.74-1.023,0.998-1.2,1.68c-0.358,1.38,0.026,3.469,0,5.28
		c-0.063,4.45,2.207,9.555,0.24,13.44c-4.454-0.838-8.793,0.848-12,2.64c-6.222,1.66-8.357,8.273-12,11.76
		c-1.765-1.502-3.767-1.72-6.24-2.88c-1.284-0.602-2.414-1.69-3.6-1.92c-2.197-0.425-4.84-0.225-7.2-0.48
		c-6.168-0.666-10.704-0.473-16.56-0.72c-4.787-0.202-7.585,1.045-10.08,3.12c0.183,1.337,1.889,1.151,3.36,1.2
		c0.125,0.596,0.585,0.855,0.96,1.2c6.504,0.158,11.133,3.562,14.88,7.2c1.341,2.988,2.65,8.235,2.88,13.68
		c-1.152,3.941-2.911,8.564-7.2,10.08c-0.334,0.306-0.104,1.176-0.72,1.2c-0.661,0.288-1.002,0.521-1.68,0.24
		c-0.375,1.146-1.963,1.076-2.4,2.159c-2.28,0.842-5.349,2.971-8.16,4.08c-3.683,3.681-7.253,6.01-9.12,11.521
		c-0.948,0.196-1.42,1.238-0.96,2.16c4.958-2.444,11.7-2.329,17.52-2.88c8.13,0.561,13.399,4.566,15.36,11.279
		c0.802,2.748-1.041,4.5-0.24,7.2c-1.15,1.367-3.045,4.152-2.4,5.76c-0.418-0.018-0.747,0.054-0.96,0.24
		c-2.889,6.694-1.658,14.447,0.48,20.4c1.127,3.139,1.612,6.927,3.84,8.399c0.063-0.337,0.526-0.273,0.72-0.479
		c-0.907-1.786,0.124-4.075-1.44-5.04c1.349-8.039,6.074-16.113,12.96-20.641c5.006,6.679,13.628,11.008,23.28,12.24
		c1.532,4.031,2.083,9.779,3.12,12.96c0.003-0.242,0.421-0.302,0.48,0c-0.293,0.027-0.568,0.072-0.48,0.48
		c2.223,6.576,7.339,10.261,12.96,13.439c0.771-1.006-0.288-1.84-0.72-2.399c-3.34-6.681-1.738-14.094,1.92-19.681
		c5.337,4.013,14.111,4.869,22.32,6.721c0.053,1.067,1.774,0.465,1.92,1.439c1.098-0.946,3.457,0.544,4.56-0.72
		c0.715,1.045,0.897,2.623,2.64,2.64c0.729,1.612,2.942,3.762,4.08,5.761c2.155,0.492,3.023,1.312,4.56,1.92
		c2.73,1.077,6.265,1.394,9.12,1.92c0.603,0.706,1.714,1.388,2.641,0.479c-1.88-3.488-5.173-7-4.08-10.8
		c8.007,1.388,13.542,0.359,19.92-0.24c2.378-2.342,7.474-1.966,9.84-4.319c2.321,0.081,2.854-1.626,4.32-2.4
		c2.867,1.532,4.486,4.313,5.76,7.44c2.789,1.858,7.051,3.498,11.04,3.359c0.723,1.117,4.123,1.613,6,1.44
		c-0.019-0.418,0.054-0.747,0.24-0.96c-3.301-1.538-6.047-4.783-8.881-6c0.385-0.995-1.574-2.025-1.439-4.08
		c8.59-2.77,16.612-6.108,21.84-12.24c0.864,0.145,0.707-0.732,1.44-0.72c6.138,1.629,12.167,1.28,18,0.24
		c1.772,0.629,5.366-1.017,6.96-2.16c1.73,0.699,5.698-1.6,5.52-3.601c-2.958-1.395-5.567-2.895-7.2-5.04
		c0.684-0.234,1.219,1.528,1.44,0.24c-3.302-1.974-4.533-5.175-4.08-9.84c0.454,0.054,0.529-0.271,0.96-0.24
		c0.222-2.939,2.702-4.76,3.84-6c4.756,0.078,8.849-4.13,12.96-6.239c0.748-3.173,4.51-3.331,5.04-6.721
		c0.895,0.577,2.217-1.306,1.44-2.4c-2.18,0.621-3.861,1.739-5.04,3.36c1.136-0.432,1.473-0.228,2.16,0
		c-0.97,1.427-4.952,3.154-3.36,4.8c-0.734,0.175-0.706-0.414-1.44-0.239c-3.665,2.574-6.95,5.528-12.479,6.239
		c-2.107,1.653-3.724,3.797-4.8,6.48c-0.237,1.062-0.037,0.628,0.239,1.439c-1.139,0.701-1.048,2.633-1.199,4.32
		c2.372,3.227,3.795,5.925,6.239,8.16c-2.634,0.845-4.246-1.332-6.72-1.44c-1.339-1.381-3.064-2.375-5.04-3.12
		c-0.949-1.239-2.937-2.623-4.32-2.64c-2.766-2.371-5.232-6.263-9.119-6.72c-0.417-0.863-1.365-1.195-1.921-1.92
		c1.719-2.256,3.221-5.753,3.841-9.12c0.114-0.625-0.211-1.31,0-1.92c0.501-1.453,2.161-0.876,2.64-0.96
		c2.416-0.426,5.67-2.129,6.48-0.96c0.75,0.073-0.61-0.693,0.239-0.72c3.16,0.558,4.433,0.331,6.96,0
		c-0.863-1.361-2.683-1.064-4.08-0.24c0.06-0.36,0.365-0.413-0.239-0.48c-2.269-0.251-6.261-0.124-9.12,0.48
		c-0.91,0.192-2.103,0.572-2.641,1.439c0.027-3.235-2.53-4.867-4.8-6.479c1.438,0.25,4.37-0.474,4.561-1.44
		c5.248,0.367,11.035-2.69,15.12-0.96c0.022,0.377-0.032,0.832,0.479,0.72c2.787,1.266,6.309,2.354,7.2,3.601
		c0.152-0.523-0.681-0.764,0.24-0.72c-0.292,0.822,2.77,2.227,3.119,0.96c-0.222,0.577-0.438,1.162-0.72,1.68
		c-1.322-0.122-2.383,0.018-2.88,0.72c-0.022-0.377,0.032-0.832-0.479-0.72c-1.608,0.364-2.689,0.445-5.521,0.479
		c1.247,1.564,4.116,0.833,4.561,0.24c1.512,0.429,3.391,0.272,5.279,0c-0.23-0.271-0.626-1.583-0.24-1.68
		c0.366,0.435,1.646-0.046,1.44,0.96c-0.425,0.055-1.202-0.242-0.96,0.479c2.602,0.056,5.689,0.975,7.2-1.199
		c0.637-0.077-0.225,1.344,0.72,0.96c1.104-1.229,2.602-0.401,3.6-0.96c-0.684-1.369-2.02-0.61-2.88-0.48
		c-8.709,1.321-13.604-3.89-21.12-6.72c3.398-2.338,8.343-3.039,7.681-8.64c-0.185-1.557-1.44-3.264-1.681-5.28
		c4.747,0.177,11.248-0.982,12.961-4.32C651.913,1082.433,653.061,1081.862,652.44,1081.16z"/>
	<path fill-rule="evenodd" clip-rule="evenodd" d="M651.48,1081.88c-1.713,3.338-8.214,4.497-12.961,4.32
		c0.24,2.017,1.496,3.724,1.681,5.28c0.662,5.601-4.282,6.302-7.681,8.64c7.516,2.83,12.411,8.041,21.12,6.72
		c0.86-0.13,2.196-0.889,2.88,0.48c-0.998,0.559-2.496-0.27-3.6,0.96c-0.944,0.384-0.083-1.037-0.72-0.96
		c-1.511,2.174-4.599,1.255-7.2,1.199c-0.242-0.722,0.535-0.425,0.96-0.479c0.206-1.006-1.074-0.525-1.44-0.96
		c-0.386,0.097,0.01,1.408,0.24,1.68c-1.889,0.272-3.768,0.429-5.279,0c-0.444,0.593-3.313,1.324-4.561-0.24
		c2.831-0.034,3.912-0.115,5.521-0.479c0.512-0.112,0.457,0.343,0.479,0.72c0.497-0.702,1.558-0.842,2.88-0.72
		c0.282-0.518,0.498-1.103,0.72-1.68c-0.35,1.267-3.411-0.138-3.119-0.96c-0.921-0.044-0.088,0.196-0.24,0.72
		c-0.892-1.246-4.413-2.335-7.2-3.601c-0.512,0.112-0.457-0.343-0.479-0.72c-4.085-1.73-9.872,1.327-15.12,0.96
		c-0.19,0.967-3.123,1.69-4.561,1.44c2.27,1.612,4.827,3.244,4.8,6.479c0.538-0.867,1.73-1.247,2.641-1.439
		c2.859-0.604,6.852-0.731,9.12-0.48c0.604,0.067,0.299,0.12,0.239,0.48c1.397-0.824,3.217-1.121,4.08,0.24
		c-2.527,0.331-3.8,0.558-6.96,0c-0.85,0.026,0.511,0.793-0.239,0.72c-0.811-1.169-4.064,0.534-6.48,0.96
		c-0.479,0.084-2.139-0.493-2.64,0.96c-0.211,0.61,0.114,1.295,0,1.92c-0.62,3.367-2.122,6.864-3.841,9.12
		c0.556,0.725,1.504,1.057,1.921,1.92c3.887,0.457,6.354,4.349,9.119,6.72c1.384,0.017,3.371,1.4,4.32,2.64
		c1.976,0.745,3.701,1.739,5.04,3.12c2.474,0.108,4.086,2.285,6.72,1.44c-2.444-2.235-3.867-4.934-6.239-8.16
		c0.151-1.688,0.061-3.619,1.199-4.32c-0.276-0.812-0.477-0.377-0.239-1.439c1.076-2.684,2.692-4.827,4.8-6.48
		c5.529-0.711,8.814-3.665,12.479-6.239c0.734-0.175,0.706,0.414,1.44,0.239c-1.592-1.646,2.391-3.373,3.36-4.8
		c-0.688-0.228-1.024-0.432-2.16,0c1.179-1.621,2.86-2.739,5.04-3.36c0.776,1.095-0.546,2.978-1.44,2.4
		c-0.53,3.39-4.292,3.548-5.04,6.721c-4.111,2.109-8.204,6.317-12.96,6.239c-1.138,1.24-3.618,3.061-3.84,6
		c-0.431-0.03-0.506,0.294-0.96,0.24c-0.453,4.665,0.778,7.866,4.08,9.84c-0.222,1.288-0.757-0.475-1.44-0.24
		c1.633,2.146,4.242,3.646,7.2,5.04c0.179,2.001-3.789,4.3-5.52,3.601c-1.594,1.144-5.188,2.789-6.96,2.16
		c-5.833,1.04-11.862,1.389-18-0.24c-0.733-0.013-0.576,0.864-1.44,0.72c-5.228,6.132-13.25,9.471-21.84,12.24
		c-0.135,2.055,1.824,3.085,1.439,4.08c2.834,1.217,5.58,4.462,8.881,6c-0.187,0.213-0.259,0.542-0.24,0.96
		c-1.877,0.173-5.277-0.323-6-1.44c-3.989,0.139-8.251-1.501-11.04-3.359c-1.273-3.127-2.893-5.908-5.76-7.44
		c-1.466,0.774-1.999,2.481-4.32,2.4c-2.366,2.354-7.462,1.978-9.84,4.319c-6.378,0.6-11.913,1.628-19.92,0.24
		c-1.093,3.8,2.2,7.312,4.08,10.8c-0.927,0.908-2.038,0.227-2.641-0.479c-2.854-0.526-6.39-0.843-9.12-1.92
		c-1.537-0.607-2.405-1.428-4.56-1.92c-1.138-1.999-3.351-4.148-4.08-5.761c-1.743-0.017-1.925-1.595-2.64-2.64
		c-1.103,1.264-3.462-0.227-4.56,0.72c-0.146-0.975-1.867-0.372-1.92-1.439c-8.209-1.852-16.982-2.708-22.32-6.721
		c-3.658,5.587-5.26,13-1.92,19.681c0.432,0.56,1.491,1.394,0.72,2.399c-5.621-3.179-10.737-6.863-12.96-13.439
		c-0.088-0.408,0.187-0.453,0.48-0.48c-0.059-0.302-0.477-0.242-0.48,0c-1.038-3.181-1.588-8.929-3.12-12.96
		c-9.652-1.232-18.274-5.562-23.28-12.24c-6.886,4.527-11.611,12.602-12.96,20.641c1.563,0.965,0.533,3.254,1.44,5.04
		c-0.194,0.206-0.657,0.143-0.72,0.479c-2.228-1.473-2.712-5.261-3.84-8.399c-2.138-5.953-3.369-13.706-0.48-20.4
		c0.213-0.187,0.542-0.258,0.96-0.24c-0.645-1.607,1.25-4.393,2.4-5.76c-0.8-2.7,1.042-4.452,0.24-7.2
		c-1.961-6.713-7.23-10.719-15.36-11.279c-5.82,0.551-12.562,0.436-17.52,2.88c-0.46-0.922,0.012-1.964,0.96-2.16
		c1.866-5.511,5.437-7.84,9.12-11.521c2.811-1.109,5.88-3.238,8.16-4.08c0.437-1.083,2.025-1.014,2.4-2.159
		c0.678,0.281,1.02,0.048,1.68-0.24c0.616-0.024,0.386-0.895,0.72-1.2c4.289-1.516,6.048-6.139,7.2-10.08
		c-0.229-5.444-1.539-10.691-2.88-13.68c-3.747-3.639-8.375-7.042-14.88-7.2c-0.375-0.345-0.835-0.604-0.96-1.2
		c-1.472-0.048-3.178,0.138-3.36-1.2c2.495-2.075,5.293-3.322,10.08-3.12c5.856,0.248,10.392,0.054,16.56,0.72
		c2.36,0.255,5.003,0.055,7.2,0.48c1.186,0.229,2.315,1.318,3.6,1.92c2.473,1.16,4.475,1.377,6.24,2.88
		c3.643-3.487,5.778-10.1,12-11.76c3.207-1.792,7.546-3.478,12-2.64c1.966-3.885-0.303-8.99-0.24-13.44
		c0.026-1.811-0.358-3.9,0-5.28c0.177-0.682,0.808-0.94,1.2-1.68c1.741-3.279,2.058-6.418,4.56-8.64c2.688-1.792,5.62-3.34,7.44-6
		c3.847-0.634,6.416-2.544,9.36-4.08c0.359,0.281,0.982,0.298,1.2,0.72c0.953-0.848,2.122-0.902,3.6-0.72
		c0.968-0.152,1.295-0.944,2.4-0.96c6.379-5.622,16.664-8.614,24.24-12.24c2.696-3.587,7.081-6.509,12-7.68
		c0.868-0.207,2.358-0.467,3.36-0.48c5.291-0.068,12.48,0.53,17.52-0.24c11.644-0.856,19.315,3.656,27.12,7.44
		c4.375,2.121,8.706,4.056,12.96,6.48c7.388,4.212,11.964,11.236,17.76,17.04c3.942,6.697,5.181,16.1,7.2,24.72
		c7.291-1.92,11.889,2.101,17.04,4.8c0.854,2.543,3.162,4.787,2.88,7.68c0.299,0.593,1.227-0.928,1.681-0.24
		c-0.562,2.826-0.832,6.136-0.96,8.64c-0.016,0.298-0.509,0.911-0.48,1.2c0.301,3.044,2.541,3.66,4.561,5.52
		c1.831,0.312,4.689-1.457,6,0c-1.567,1.709-3.88,1.701-5.761,2.64c-4.149,2.07-7.482,5.397-11.04,7.92
		c-0.597,0.026-0.743,0.449-1.199,0C653.061,1081.862,651.913,1082.433,651.48,1081.88z M549.48,991.64
		c-5.776,2.543-9.51,7.13-12.48,12.48c-1.2,0.16-1.625,1.095-1.92,2.16c-3.954,4.286-7.95,8.529-9.36,15.36
		c-0.593,0.606-1.195,1.205-1.2,2.4c0.864-0.064,1.157,0.443,1.92,0.48c-0.005,0.565,0.414,0.707,0.24,1.44
		c1.327-0.613,0.837,0.573,1.92,0.72c2.803-2,3.868-10.899,6.48-12.24c2.271-1.166,7.702,0.316,7.92,2.16
		c1.111-0.949,2.529-0.585,3.84-0.48c0.334,1.026,0.521,2.198,1.68,2.4c-0.292,0.027-0.567,0.072-0.479,0.48
		c4.129,2.086-1.715,9.752-3.6,3.6c-0.76,5.744,4.829,7.998,5.279,12.48c-1.815-2.638-4.148-5.14-5.76-7.92
		c-1.154-1.992,0.1-5.378-2.16-6.96c1.296-4.466-3.771-5.985-7.2-4.08c0.932,1.668-1.61,2.242-0.96,4.56
		c-2.128,0.733-1.272,4.397-3.12,4.8c-0.013,1.667-1.18,2.18-2.16,2.88c-1.504-1.376-2.427-3.333-5.28-3.36
		c-0.33,2.188-2.656,2.701-2.16,5.04c-2.406,0.234-1.612,3.668-3.84,4.08c-0.478,3.371,3.897,4.091,3.84,8.4
		c2.382-1.35,1.821-4.189,5.28-4.32c-0.242-0.003-0.302-0.421,0-0.48c0.984,0.786,2.255,2.305,1.92,4.08
		c-1.479-0.121-1-2.199-1.68-3.12c-1.635-0.096-1.95,0.634-2.64,0.96c0.86,0.347,2.378,1.293,2.16,1.92
		c-0.688-0.36-2.627-0.722-3.12-0.48c0.114,0.365-0.809,1.743-0.72,2.88c-0.32,0-0.64,0-0.96,0c-0.672,1.997,1.306,2.29,0.48,4.32
		c3.006,4.033,7.754,6.326,11.76,9.36c2.369-0.625,5.135,1.064,6.96,0c3.699,1.82,6.376,4.664,10.56,6
		c8.185-1.145,13.73-1.011,21.6,0.96c0.347,0.534,0.604,1.157,0.48,2.16c2.967-0.132,5.168,1.264,8.4,1.2
		c-0.521,0.5,0.029,0.776,0.239,1.2c1.71-0.109,2.496,0.704,3.841,0.96c-0.14-0.779,0.163-1.117,0.239-1.68
		c1.187-0.574,1.623-1.897,2.4-2.88c3.628-1.412,3.239-6.841,8.64-6.48c2.321-1.679,5.859-2.141,6.721-5.28
		c0.307,0.014,0.332,0.308,0.72,0.24c0.622-2.029,2.47-5.2,1.68-6.96c-0.027,0.293-0.071,0.568-0.479,0.48
		c0.073-3.046,1.926-4.314,2.64-6.72c0.632-0.072,0.788,0.333,0.72,0.96c1.194-0.486,2.044-1.316,3.36-1.68
		c-0.653-1.185,0.385-4.695,2.16-4.08c-0.232,1.768-1.658,2.342-1.44,4.56c-1.154,1.707-2.716,0.94-4.08,1.92
		c-0.382,0.275-1.758,1.938-1.92,2.4c-0.496,1.42,0.641,2.497,0.48,4.32c-0.165,1.879-1.524,2.926-2.16,3.84
		c-0.627,0.9-0.449,1.839-1.2,2.4c-0.799,0.597-0.052-0.003-0.72,0.96c-1.839,2.651-5.955,2.718-9.12,4.08
		c-2.154,3.766-5.966,5.875-7.68,10.08c2.911,1.53,6.335,1.232,9.84,2.16c0.098-0.301,0.31-0.49,0.72-0.479
		c-1.745-4.737,2.835-7.419,6.24-7.68c-0.032-0.766,0.528-2.173,0.96-1.68c-0.63,1.37,0.231-0.276,0.72,0.48
		c0.412,1.292-1.088,0.672-1.439,1.2c1.901,0.418,1.393,3.247,3.359,3.6c0.899-0.541,1.549-1.331,2.88-1.44
		c0.56-2.69,1.395-3.625,3.36-5.52c2.962,0.317,5.377,1.183,5.52,4.32c0.679,0.039,0.56-0.721,1.2-0.72
		c1.163,0.6,3.702,3.112,1.92,4.32c-0.964-0.637-0.427-2.773-2.16-2.64c-0.897,0.163,0.178,0.797-0.72,0.96
		c-0.204-0.356-0.604-0.516-1.2-0.48c-0.69,0.51-1.128,1.272-1.439,2.16c1.372,0.693-0.302,2.171-0.72,2.64
		c-1.307-1.775,0.672-4.805,1.439-6.72c-1.413-4.47-6.236-1.265-6,2.64c-2.96,2.662-7.179,2.084-7.2-1.92
		c-2.028,0.271-3.688,1.715-5.279,1.68c-0.161,2.047-1.731,3.979-0.721,5.76c5.8,1.096,10.247,1.394,15.601,0.479
		c-0.929-0.568-0.048-1.885,0.96-1.92c-0.125,0.755-0.266,1.495-0.96,1.68c5.785-0.485,12.701-3.475,19.199-4.56
		c6.654-1.111,12.417-3.603,11.04-12.72c-1.302-1.978-2.913-3.647-4.079-5.76c-1.528-0.665-2.558-1.868-2.881-3.6
		c-0.18-0.968,0.277-1.711,0.24-2.64c-0.059-1.485-1.112-3.07-1.439-5.04c-0.256-1.541,0.219-3.322,0-4.56
		c-0.125-0.707-1.075-1.441-0.721-2.16c-2.013-0.867-2.343-3.417-4.08-4.56c-1.267-4.653-4.816-7.023-9.119-8.64
		c-0.397,0.803-0.083,2.317-0.48,3.12c2.246,1.994,3.614,6.527,1.92,10.56c3.582,0.736,0.984,6.194,3.12,8.4
		c-0.289,0.271-0.435,0.685-1.2,0.48c0.358-1.958-1.282-1.917-1.2-3.6c-0.823,0.267-1.938-1.202-2.159,0
		c0.171,1.191,1.645,3.153,2.399,4.56c-0.477,0.003-0.305,0.655-0.96,0.48c-1.504-1.696-1.872-4.527-3.36-6.24
		c0.454-0.906,0.637-2.083,1.2-2.88c-2.245,0.875-3.344,2.896-6.24,3.12c-0.447-0.427,0.195-0.61,0-1.44
		c1.772-0.628,3.615-1.185,4.561-2.64c0.396,0.003,0.134,0.666,0.479,0.72c0.214-1.386,2.033-1.167,2.641-2.16
		c1.671-5.737-4.792-8.728-1.44-13.92c8.398,0.484,10.333,9.506,15.12,14.4c-0.884-4.477-2.938-7.782-4.08-12
		c-1.31-1.09-2.528-2.272-3.12-4.08c-4.96-3.279-6.913-9.567-12.96-11.76c-1.278,6.137-6.491-0.8-6.239-4.32
		c-9.405-3.107-17.125-9.759-27.601-11.04c-3.065-0.375-6.627,0.032-10.08,0c-3.694-0.035-7.501,0.941-11.04,0.72
		c-4.192-0.262-7.505-0.563-10.319,1.92c0.973,1.044,2.101,1.748,2.399,2.88c3.912,0.801,8.37-0.527,10.8-2.64
		c3.555,0.958,6.222-0.11,10.801-0.48c0.499-0.46,1.003-0.917,1.199-1.68c0.359,0.362,1.368,0.072,1.2,0.96
		c-1.857,3.529-7.713,2.186-12.24,3.36c-0.116-0.284-0.256-0.544-0.479-0.72c-3.072,2.487-7.668,3.274-12,2.4
		c-0.409-1.206-2.082-2.562-1.44-3.36C550.273,992.325,549.511,992.684,549.48,991.64z M515.64,1010.12
		c-0.825,0.868-1.788,0.12-3.12,0.48c0.017,1.983,0.884,3.115,1.2,4.8c-1.629,13.067-21.82,10.81-19.68,27.12
		c2.986-0.686,5.345-2.622,8.4-3.36c6.691-1.618,12.883,2.537,17.04,5.76c0.42-4.893-2.911-7.916-6-10.08
		c-1.715-2.346-1.378-7.329,0.72-9.12c2.647-1.112,6.094-1.425,7.92-3.36c0.182-1.945-1.084-3.711-0.48-5.28
		c2.08,0.877,1.604,3.437,1.92,5.52c1.103-1.819,1.351-4.276,2.16-6.24c0.435-1.053,1.229-2.955,1.92-3.6
		c0.253-0.236,0.754,0.059,0.96-0.24c0.469-0.68,0.361-1.575,0.72-2.16c0.624-1.015,1.833-1.468,2.64-2.4
		c-0.053,0.061-0.588-0.105-0.48-0.24c0.057-0.07,0.831-0.11,1.2-0.479c0.605-0.606,0.357-2.055,1.44-1.2
		c0.458-2.544,4.1-3.869,4.32-7.44c-6.991,3.729-15.642,5.798-20.88,11.28c1.527,0.93,1.986,2.939,4.32,4.08
		c-0.981,0.418,0.385,1.779-0.72,2.16c-0.45-1.562-2.698-2.294-2.64-3.6C517.542,1012.692,516.621,1010.744,515.64,1010.12z
		 M614.28,1006.04c0.933-1.366-0.348-2.246-0.721-3.6c-0.058,0.422-0.412,0.547-0.96,0.48c-0.15-0.809-0.814-1.104-1.68-1.2
		C611.708,1003.492,612.34,1005.42,614.28,1006.04z M546.36,1023.8c0.319,0,0.64,0,0.96,0c2.574-2.11-0.713-5.07-1.681-7.2
		C540.674,1017.129,545.791,1021.244,546.36,1023.8z M621.96,1034.36c-0.407,0.792-0.963,1.437-1.2,2.4
		c1.592,0.261,2.43-0.201,3.36,0.72c0.02-1.667,0.054-2.036-0.48-3.36C622.808,1033.928,622.718,1034.478,621.96,1034.36z
		 M637.32,1040.12c-0.307-0.676,0.061-3.212-0.96-2.88C637.132,1037.748,636.381,1039.779,637.32,1040.12z M497.4,1043
		c0.581,0.3,0.776,0.983,0.96,1.68c-1.603,10.36-2.188,17.382,5.52,20.88c1.032,0.468,2.058,1.098,2.88,1.44
		c2.349,0.977,4.669,1.152,6.96,1.92c1.44,0.482,2.814,1.724,3.84,1.92c2.238,0.429,4.097-0.237,6,0.48
		c1.321-5.559,5.209-8.55,9.12-11.52c-1.554,0.303-2.518,0.54-3.84,0c-3.448,0.59-7.838,1.34-12,0.72
		c-2.125-0.316-2.681-1.329-4.32-2.16c-1.265-0.641-2.576-0.816-3.6-1.68c-0.752-0.634-1.074-1.732-1.92-2.4
		c-1.309-1.034-3.791-2.692-4.08-4.32c-0.393-2.212,1.378-6.927,3.6-7.92c1.17-0.523,2.615,0.313,3.6-0.72
		C505.486,1039.467,501.055,1040.966,497.4,1043z M481.8,1054.04c1.122-0.318,2.091-0.789,2.4-1.92
		C483.147,1052.508,482.541,1053.34,481.8,1054.04z M475.08,1059.32c2.409-2.696-1.669-3.369-1.68,0
		C473.919,1059.861,474.219,1059.121,475.08,1059.32z M451.08,1059.32c-2.3-0.128-5.056-1.261-7.92-1.2
		c-6.877,0.147-12.452-0.213-18.24,0.24c0.231,0.871-1.078,0.202-0.96,0.96c2.981,2.234,7.06,0.991,11.04,1.44
		c1.769,0.2,4.506-0.011,6.48,0.48c1.546,0.384,2.673,1.59,4.08,2.16c4.125,1.672,8.705,2.815,11.76,6.24
		c0.347,0.853,0.854,1.545,1.44,2.16c1.255-3.452,2.935-5.457,4.32-8.4C459.274,1061.446,454.872,1059.532,451.08,1059.32z
		 M657,1063.4c-1.103,1.862-2.855,3.077-3.36,4.56c-0.82,2.411-0.301,5.411-2.88,6.72c0.624,1.126-1.025,1.135-0.96,2.4
		c-1.042,0.478-2.047,0.993-2.64,1.92c-0.062-0.337-0.526-0.273-0.72-0.48c-1.911,3.209-5.858,4.382-9.12,6.24
		c13.913,0.943,17.153-8.529,26.88-12.24c-1.662-1.981-4.843-2.596-5.521-5.52c-0.783-3.38,1.648-6.52,0.721-8.4
		C657.915,1059.74,658.108,1061.529,657,1063.4z M481.32,1061c0.033-0.993-0.545-1.375-0.96-1.92
		C480.421,1059.979,480.737,1060.623,481.32,1061z M435.96,1064.6c1.325-0.154,1.819,1.183,2.64,2.16
		c4.179,2.978,5.488,9.497,4.8,16.32c-0.632,6.272-4.428,9.767-9.12,11.76c-1.377,2.482-4.542,3.033-6.96,4.32
		c-3.352,1.783-5.915,4.071-8.64,6.24c-0.487,1.513-2.062,1.938-2.4,3.6c0.492,0.253,1.366-1.378,1.92,0
		c0.021-0.896,0.269-0.684,0-1.439c3.117-1.11,6.762-3.288,11.04-3.121c0.23-0.409,0.754-0.525,1.2-0.72
		c0.69-0.335,1.219,0.654,1.44,0c-0.242-0.003-0.302-0.421,0-0.479c0.642-0.159,1.5-0.101,1.92-0.48
		c2.021-0.573,4.336-1.637,6.72-1.92c8.314-0.987,15.284,0.347,24,0.721c-0.307-11.255-5.985-16.486-5.52-27.841
		c-0.704-0.344-1.126-2.223-1.68-1.92c0.497,0.608-0.324-0.506-0.96-0.24c-2.04-3.423-5.52-5.2-9.36-6.24
		c0.013-0.307,0.308-0.332,0.24-0.72c-0.734-0.174-0.706,0.414-1.44,0.24c-2.83-2.44-9.46-2.021-12.24-2.64
		C434.245,1063.115,435.776,1063.184,435.96,1064.6z M469.32,1064.6c0.514-0.526,1.21-0.87,1.2-1.92
		C469.711,1062.761,468.735,1063.921,469.32,1064.6z M647.16,1076.84c3.674-1.286,3.931-5.989,5.76-9.12
		c-0.027-0.292-0.071-0.568-0.479-0.479C649.376,1069.136,648.385,1073.105,647.16,1076.84z M569.88,1069.64
		c-2.414-0.058-6.975-0.712-9.12,1.2c-7.239,0.927-12.716,2.663-17.52,6.48c8.876,0.563,12.782,6.098,18.96,9.36
		c3.226-0.504,4.577,2.141,6.479,2.16c-0.982-1.051-1.373-1.924-1.92-3.12c-0.562-1.229-1.948-2.123-2.399-3.6
		c-0.227-0.741-0.301-2.287-0.24-2.88c0.563-5.52,7.633-9.005,12.24-10.8C573.743,1068.396,570.622,1067.088,569.88,1069.64z
		 M525.96,1069.16c-1.815,6.766,5.273,5.956,9.6,6.48c2.269,0.275,5.274,1.735,6.24-0.24c-0.89,0.283-3.238-0.234-3.36-0.72
		C534.298,1075.154,527.298,1074.127,525.96,1069.16z M502.44,1077.32c-5.31-0.61-7.674-5.445-10.8-7.44
		C494.355,1073.085,496.985,1077.654,502.44,1077.32z M568.92,1073.48c0,0.4,0,0.8,0,1.2c-0.738-0.179-0.461,0.659-1.2,0.48
		c-0.444,2.346-2.903,3.165-2.16,6c2.661,3.1,3.812,7.708,6.96,10.32c0.102-1.739,1.895-1.786,1.681-3.841
		c1.009-0.271,1.727-0.833,2.88-0.96c-2.762-3.244-6.427-9.512-2.64-14.399c0.513-0.519,2.649-1.731,1.68-2.16
		c-0.614,0.356-3.593,1.405-4.561,1.44C571.522,1072.531,570.033,1073.541,568.92,1073.48z M477.24,1073.96
		c0.377,0.023,0.832-0.032,0.72,0.48c0.879-0.321,1.787-0.613,2.16-1.44c-0.426-0.614-1.45-0.63-2.16-0.96
		C477.933,1072.893,477.072,1072.912,477.24,1073.96z M619.32,1074.68c-2.222-0.607-4.304,0.406-6.721,0.96
		c-1.285,0.294-3.032-0.125-4.319,0.24c-0.655,0.186-1.585,1.126-2.16,1.44c-0.859,0.469-3.018,0.941-3.36,1.2
		c-2.838,2.148-2.174,4.939-0.96,7.2c0.203,0.518,1.53-0.09,1.681,0.48c-0.711,0.604-0.668,0.713-0.48,1.92
		c-6.462,1.9-15.577-4.477-22.32-1.44c5.325,1.729,11.222,0.994,16.561,1.681c2.616,0.336,4.81,2.172,6.72,1.2
		c2.49,4.102,10.323,4.997,15.12,2.879c-2.264-0.536-3.455-2.145-5.76-2.64c0.82-2.181-0.977-2.943-1.2-4.319
		c-0.464-2.86,0.988-4.105,2.399-5.28c2.244-1.867,5.568-1.933,7.681-3.36c-0.001-0.241,0.194-0.285,0.24-0.48
		C621.463,1074.925,619.982,1076.526,619.32,1074.68z M484.2,1076.12c-0.025-0.615-0.136-1.145-0.48-1.44
		C483.351,1075.046,483.292,1076.326,484.2,1076.12z M488.52,1077.08c0.38-0.41,1.052-2.451-0.24-2.4
		C487.69,1075.033,487.412,1077.088,488.52,1077.08z M464.04,1077.08c0.677,0.123,1.019,0.581,1.68,0.72
		c0.558-0.321,0.371-1.389,0.72-1.92C465.489,1075.184,463.942,1075.479,464.04,1077.08z M502.92,1077.56
		c0.057,0.426,2.742,0.393,3.36,0.24C505.697,1077.247,502.858,1077.098,502.92,1077.56z M622.92,1078.52
		c-0.941,0.739-3.396-0.037-3.84,1.2c-2.2-0.8-2.554,2.217-4.32,2.641c-0.076,0.804-0.247,1.513-0.72,1.92
		c-0.334-0.301-0.104-1.357-0.72-0.72c0.599,2.157,0.777,4.851,3.6,5.039c2.863,0.192,5.043-2.1,6.96-3.359
		c3.34-0.383,6.896,0.764,9.36-0.24C629.086,1083.554,626.45,1080.59,622.92,1078.52z M513.72,1079.72
		c2.824,1.092,5.266,1.552,7.68,2.16C520.333,1079.698,515.704,1078.785,513.72,1079.72z M469.08,1081.88
		c0.64-1.44,2.968-1.192,3.6-2.64c-0.739,0.168-0.461,0.168-1.2,0c0.045,0.849-1.142,1.188-1.68,0.72
		C469.809,1080.702,468.586,1081.448,469.08,1081.88z M481.32,1080.2c-0.68-0.303-2.257-0.895-3.12-0.72
		C479.282,1079.884,480.657,1080.679,481.32,1080.2z M501.96,1079.24c-0.098,0.578,0.438,0.521,0.24,1.199
		c0.667,0.09,1.578-0.796,1.2-0.959C503.261,1079.981,502.494,1079.134,501.96,1079.24z M483.48,1082.12
		c-0.306-0.494-0.383-1.218-1.2-1.2C482.081,1081.736,484.077,1082.452,483.48,1082.12z M487.08,1085.48
		c-0.006-1.628,2.349-3.11,1.2-4.32C488.021,1082.584,486.298,1083.812,487.08,1085.48z M499.32,1083.32
		c0.915-0.292,2.156-1.516,1.92-2.16C500.523,1081.804,499.683,1082.323,499.32,1083.32z M525.24,1083.561
		c-0.263-0.945-2.293-1.379-2.88-1.2C523.289,1082.791,523.979,1083.461,525.24,1083.561z M491.64,1082.84
		c-0.098,0.578,0.438,0.521,0.24,1.2c0.733,0.173,0.875-0.245,1.44-0.24C493.687,1082.097,492.454,1082.293,491.64,1082.84z
		 M536.28,1088.36c-2.692-1.229-6.196-1.645-8.88-2.88c-0.103-0.457-0.517-0.604-0.48-1.2c-0.44,0.035-1.688-0.845-1.2-0.24
		c1.198,1.362,2.563,2.558,4.08,3.6c4.876,0.485,8.98,3.02,13.681,2.88C541.352,1089.603,539.175,1087.743,536.28,1088.36z
		 M470.76,1088.36c2.02,1.497,5.289-0.163,5.28-1.921C474.757,1083.924,470.579,1085.343,470.76,1088.36z M486.6,1086.92
		c-0.187-0.053-0.279-0.201-0.24-0.48c-2.928-3.249-0.021,1.483,0.24,2.16C486.6,1088.04,486.6,1087.48,486.6,1086.92z
		 M501.96,1092.439c1.011,4.313,8.63,0.15,5.76-4.56C504.846,1088.07,501.13,1088.898,501.96,1092.439z M526.2,1091.72
		c0.225-1.215,1.453-1.427,1.2-3.12c-0.307-0.013-0.333-0.308-0.72-0.239C527.358,1090.17,524.934,1090.853,526.2,1091.72z
		 M515.64,1090.04c0.918,0.038,1.903,0.144,1.92-0.72C516.846,1088.726,515.655,1089.192,515.64,1090.04z M490.44,1090.52
		c-0.05,0.69,0.061,1.22,0.48,1.44c0.416-0.385,0.874-0.727,0.72-1.68C490.962,1090.082,491.018,1090.618,490.44,1090.52z
		 M478.68,1093.4c0.962-0.158,1.448-0.792,1.68-1.681C479.317,1090.868,478.272,1092.801,478.68,1093.4z M518.76,1099.64
		c3.202-1.519,6.462-4.257,6.96-7.68C523.465,1094.585,520.702,1096.701,518.76,1099.64z M487.08,1095.08
		c0.192,0.832-0.357,0.923-0.24,1.68c1.414-2.719,7.088-1.044,6.96-4.32C492.463,1094.757,489.692,1094.214,487.08,1095.08z
		 M566.76,1098.2c-2.074-1.536-3.813-1.936-6.72-2.64c-1.614-2.072-5.27-3.099-7.68-2.641c6.665,2.139,10.854,5.594,18.479,6.96
		C570.5,1098.3,568.851,1098.029,566.76,1098.2z M537.48,1096.52c-0.39-3.421-6.581-1.399-6.72,1.92
		C532.682,1101.896,537.85,1099.762,537.48,1096.52z M501.72,1102.28c-2.733-1.827-4.189-4.932-6.48-7.2
		C497.129,1097.591,498.774,1101.625,501.72,1102.28z M511.32,1097.24c0.559,2.11,1.432,0.487,2.64,0.72
		c0.117-0.546,0.476-1.226,0-1.68C512.519,1096.488,512.626,1097.303,511.32,1097.24z M470.04,1097.72
		c1.633,0.163,3.947-0.202,5.04,0.24c-0.185-0.706,2.954-0.234,4.32-0.72C478.065,1096.222,471.297,1097.131,470.04,1097.72z
		 M546.6,1101.08c0.622,0.594,0.893-0.518,1.681-0.48c-0.106-0.453,0.326-1.446-0.48-1.199
		C547.401,1099.961,546.46,1099.98,546.6,1101.08z M562.92,1101.32c-5.551,0.609-11.462,2.137-12.72,6.24
		c2.936-2.45,6.964-6.012,12.479-4.32c1.003-1.399,5.213-0.865,4.801-2.88c-0.718,1.114-2.337-0.803-3.36-0.96
		C563.536,1099.856,563.688,1101.047,562.92,1101.32z M603,1100.12c-0.757,1.281-4.562-0.631-6,0.72
		c-0.586-0.134-0.512-0.929-1.44-0.72c-3.282,1.176-8.061,1.532-10.56,0c-2.656,0.244-4.436-1.199-6.96,0.24
		c2.984,1.993,8.436,0.665,12.24,2.159c2.255-1.246,5.012-0.263,7.2-0.479c1.086-0.107,2.055-0.87,3.119-0.96
		c4.467-0.375,9.359,1.89,12.96,2.4c-0.667-0.773-1.704-1.176-2.159-2.16C608.534,1102.013,605.086,1101.08,603,1100.12z
		 M481.56,1103.48c0.459-0.59,1.31-2.039,0.96-2.641C482.322,1101.689,480.908,1102.577,481.56,1103.48z M506.52,1102.28
		c2.279,2.265,6.935-0.08,8.88-1.2C512.075,1100.916,509.947,1102.017,506.52,1102.28z M458.04,1103
		c-1.248-0.15-2.291-0.993-3.6-1.2c-3.018-0.477-6.266,0.966-10.08,0.24c0.001-0.134-0.194-0.272-0.24,0
		c0.133-0.001,0.272,0.194,0,0.24c-6.66-0.468-11.919,2.618-18,4.08c-2.731-0.094-5.661,1.266-7.44,2.88
		c-1.793,0.002-1.782,0.563-2.4,1.92c-0.841-0.037-1.843,0.486-1.44,0.96c2.597-1.588,6.716-1.853,10.56-1.681
		c1.911,0.086,3.59-0.356,5.28-0.239c6.005,0.416,12.303,2.792,13.44,8.16c2.903,2.118,3.274,8.73,1.2,11.52
		c-0.683,5.034-5.249,10.253-4.56,16.8c0.116,1.104,0.957,2.312,1.2,3.601c0.639,3.382,0.665,5.563,2.16,7.68
		c0.333-6.646,3.268-11.905,4.08-17.28c2.11-3.97,4.449-7.711,6.24-12c6.433-6.13,12.497-13.898,21.84-16.319
		c-1.425-1.935-4.317-2.402-5.76-4.32c0.585-0.352-0.639-1.575-0.96-0.96c0.293,0.027,0.568,0.071,0.48,0.48
		c-1.459-1.956-3.179-2.226-4.32-4.561C463.096,1102.873,460.61,1103.31,458.04,1103z M473.4,1102.52
		c0.141,0.739,0.062,1.699,0.96,1.681c0.199-0.521,0.906-0.534,0.96-1.2C474.974,1101.965,474.271,1101.952,473.4,1102.52z
		 M521.16,1105.16c0.348-2.108-0.964-2.557-2.16-3.12C519.819,1102.981,520.379,1104.182,521.16,1105.16z M524.04,1105.16
		c0.851-0.109,1.331-0.59,1.44-1.44c-0.166-0.474-0.64-0.64-1.2-0.72C524.049,1103.572,523.488,1104.537,524.04,1105.16z
		 M565.32,1103.96c0.678-0.198,0.621,0.339,1.199,0.24c-0.054-0.454,0.271-0.529,0.24-0.96
		C566.227,1103.426,565.459,1103.379,565.32,1103.96z M596.04,1105.4c0.198,1.321,0.54,2.499,1.44,3.119
		c0.471,2.251,0.922,4.971,0.96,6.961c-2.141,4.02-5.855,6.465-9.841,8.64c9.267-0.146,14.276-13.788,7.44-20.64
		c-0.48,0-0.96,0-1.44,0C594.709,1104.491,595.735,1104.585,596.04,1105.4z M481.32,1105.4c-0.001-0.429,0.646-1.396,0-1.681
		C481.321,1104.148,480.674,1105.116,481.32,1105.4z M503.64,1106.6c0.555-0.672-0.206-3.063-1.2-2.16
		C503.567,1104.433,502.718,1106.402,503.64,1106.6z M487.08,1107.8c0.269,0.051,0.374,0.267,0.48,0.48
		c2.452-0.188,3.325-1.955,4.56-3.36C489.666,1105.105,487.523,1105.604,487.08,1107.8z M540.84,1108.52
		c0.481-0.398,1.115-0.644,1.2-1.439c-0.985,0.025-0.961-0.959-2.16-0.72C539.263,1107.211,539.855,1108.514,540.84,1108.52z
		 M504.36,1108.76c0.452-0.522,0.093-1.689-0.48-1.92C504.304,1107.73,503.611,1108.488,504.36,1108.76z M527.64,1111.88
		c-2.236-0.724-3.058-2.862-4.56-4.319C524.072,1109.37,524.941,1112.577,527.64,1111.88z M575.4,1111.88
		c-0.937-1.626-2.256-4.143-4.32-3.84C572.718,1109.122,573.27,1111.291,575.4,1111.88z M536.28,1112.84
		c-0.945-0.496-2.802-0.79-3.12,0.48c5.627-0.092,9.053-0.82,14.16-2.4c-0.124-1.644,1.395-1.645,1.68-2.88
		c-0.359,0.041-0.886-0.086-0.96,0.24C546.201,1110.079,540.222,1112.251,536.28,1112.84z M513.72,1111.16
		c0.323-2.741-1.93-2.728-4.08-1.44c-0.614,1.58-0.134,1.86,0.48,3.12c0.88,0,1.76,0,2.64,0
		C513.153,1112.05,513.631,1111.916,513.72,1111.16z M585.96,1113.08c1.688-0.792,3.082-1.879,3.12-4.32
		c-0.307-0.013-0.332-0.308-0.72-0.24C587.513,1109.824,584.509,1111.019,585.96,1113.08z M607.8,1115.48
		c2.236,0.155,2.282-1.879,2.88-3.36c-1.086,0.366-0.519-0.921-0.96-1.2c-1.514-0.246-2.045-1.475-3.359-1.92
		C605.07,1111.196,606.663,1113.741,607.8,1115.48z M504.36,1111.16c-0.041-0.679,0.207-1.646-0.48-1.68
		C504.055,1110.025,503.448,1111.353,504.36,1111.16z M480.6,1111.64c0.444-0.229,0.405-1.986-0.24-1.92
		C480.508,1110.316,479.485,1111.592,480.6,1111.64z M495,1112.84c0.637,0.255,1.365,0.18,1.44-0.72
		c-0.315-0.245-0.885-0.235-1.2-0.48C495.039,1111.919,494.923,1112.283,495,1112.84z M505.08,1115.24
		c-0.294-1.386-0.454-2.907-1.44-3.601C503.719,1113.241,504.162,1114.479,505.08,1115.24z M478.68,1112.6
		c-11.071,4.449-19.939,11.102-24.96,21.601c-1.784,0.741-1.307,2.162-1.92,3.84c-0.113,0.311-1.067,0.123-0.96,0.72
		c0.178,0.986,0.316-0.109-0.48,0.721c-0.987,1.029-0.74,2.481-1.2,4.079c-0.303,1.052-1.488,1.911-0.96,2.641
		c-0.001,0.24,0.194,0.285,0.24,0.479c2.841-3.879,5.742-7.698,9.84-10.319c3.106-0.569,7.445-2.725,12-2.88
		c3.737-0.128,10.728,0.477,11.76,3.84c0.268,0.872-0.068,2.189,0,3.359c0.246,4.247,1.251,10.107,1.44,12.96
		c1.231,0.886,0.771,5,1.2,7.2c0.058,0.297,0.639,0.429,0.72,0.72c1.29,4.652,3.363,9.812,7.68,11.28
		c0.143-0.845-0.89-1.835,0.48-2.16c-1.819-6.265-3.297-12.186-3.12-18.239c0.153-5.217,2.023-9.613,2.88-14.4
		c2.583-4.857,5.566-9.314,10.08-12.24C495.507,1121.206,486.5,1116.469,478.68,1112.6z M578.04,1115.96
		c0.538,2.781,2.615,4.46,2.4,6.72c0.946,0.261,2.247,1.424,3.359,0.721c-0.56-0.801-1.956-0.765-2.399-1.681
		c-0.79-2.57-2.505-4.216-3.601-6.479c0.197-1.088-0.526-2.5-1.2-1.92C576.6,1114.17,576.733,1115.759,578.04,1115.96z
		 M566.04,1117.88c1.5-0.592,2.949-1.475,1.92-3.36C566.011,1112.793,563.825,1117.062,566.04,1117.88z M521.16,1124.36
		c-1.377-4.254,2.451-5.978,3.36-8.4C522.243,1117.883,518.742,1121.92,521.16,1124.36z M550.2,1131.561
		c0.763-0.197,1.22-0.701,1.68-1.2c-0.542-1.701-0.681-3.213,0.48-4.561c-0.914-3.407-1.835-8.084-3.841-9.6
		C551.336,1120.319,552.086,1126.038,550.2,1131.561z M590.28,1116.92c0.82,2.516,0.98,0.696,2.399,0.96
		c0.068-0.73-0.769-0.933-0.239-1.44C591.485,1116.365,591.234,1116.994,590.28,1116.92z M586.2,1120.52
		c1.492,0.053,1.745-1.135,1.92-2.399C586.772,1117.486,586.179,1119.053,586.2,1120.52z M535.08,1120.28
		c1.571,0.211,1.994-0.727,1.92-2.16C535.246,1117.727,534.853,1118.692,535.08,1120.28z M562.68,1120.04
		c0.642-0.159,1.5-0.101,1.92-0.479c-0.632-0.168-0.507-1.094-1.199-1.2C563.506,1119.266,562.927,1119.486,562.68,1120.04z
		 M508.44,1121.48c0.917-0.284,1.59-0.811,1.44-2.16C508.532,1119.102,507.893,1120.569,508.44,1121.48z M599.16,1124.36
		c-0.176-1.616-0.14-2.021,0.479-3.12c-0.479-0.241-0.378-1.062-1.199-0.96C598.35,1121.907,598.098,1123.422,599.16,1124.36z
		 M603.48,1121.96c0.515,0.604,0.596,1.644,1.439,1.92c0.271-0.688,0.662-1.259,1.2-1.68
		C606.256,1120.452,603.614,1120.35,603.48,1121.96z M526.68,1121.96c0.751,0.111,1.071-0.209,0.96-0.96c-0.32,0-0.64,0-0.96,0
		C526.68,1121.32,526.68,1121.64,526.68,1121.96z M500.52,1122.439c0.574,0.387,1.13,0.79,2.16,0.721
		c-0.314-0.816,0.535-1.675,0-1.92C502.534,1122.215,501.247,1122.047,500.52,1122.439z M571.56,1123.64
		c0.104,0.904,0.999,1.017,0.48,1.921c1.755,0.104,0.361-1.996,1.68-1.921c-0.196-0.923-0.103-2.137-1.2-2.159
		C572.21,1122.21,572.639,1123.679,571.56,1123.64z M542.28,1125.8c1.407,4.949,6.964-3.585,0.72-3.36
		C542.793,1123.829,541.869,1124.355,542.28,1125.8z M638.28,1140.44c-0.968-0.383-2.332-0.846-3.601-1.44
		c-2.512-1.178-6.099-4.096-7.68-5.52c-3.127-2.818-7.142-3.63-9.12-6.961c-2.327,0.168-2.618-1.701-4.56-1.92
		c-0.014-0.146-0.036-0.284-0.24-0.239c-3.309,2.691-8.036,3.963-10.561,7.439c-6.727,0.618-13.565,1.21-17.76,3.12
		c2.254,8.108,2.844,17.039,6.48,24c1.197-3.372,1.896-7.807,4.319-10.56c1.123-1.275,4.538-3.976,6.48-4.801
		c3.614-1.534,8.375,0.387,12.96-0.479c1.803,1.937,5.014,2.918,7.92,2.88c7.159-0.094,15.512-0.844,21.84-4.32
		C642.802,1140.37,640.231,1141.211,638.28,1140.44z M562.92,1127.96c0.743-0.791,2.616-1.577,1.44-2.88
		C562.724,1124.845,561.339,1127.181,562.92,1127.96z M521.88,1127.96c-0.351-0.646,0.092-1.564-0.72-2.16
		C520.96,1125.986,521.556,1128.333,521.88,1127.96z M539.88,1162.76c-0.943-2.543-1.231-5.189-1.92-7.92
		c-0.818-3.242-2.533-6.514-2.88-9.359c-0.19-1.559-0.138-7.527,0.72-6.961c-1.198-0.744,0.321-2.269-0.24-3.359
		c-3.574,0.704-7.275-0.135-11.04-0.96c-0.321,0.239-0.471,0.648-0.96,0.72c-1.091-0.35-1.561-1.318-1.92-2.4
		c-0.058,0.423-0.413,0.548-0.96,0.48c-6.252-1.873-10.432-4.488-15.84-6.96c-0.714,0.726-1.68,1.2-2.64,1.68
		c0.51,0.077-0.343,0.743-0.48,0.96c-5.152,2.848-6.358,9.643-9.12,14.88c-0.058,2.47,0.204,5.048-0.48,6.24
		c-0.988,1.724-0.126,8.642,0.24,10.32c0.416,1.906-0.125,4.062,1.44,4.32c0.173-3.291,2.709-7.052,2.88-10.32
		c1.042,0.034,0.942-1.072,1.44-0.96c0.014-1.571,2.744-4.459,4.56-5.76c2.173-1.558,7.129-2.968,9.84-3.36
		c3.098-0.448,5.097,1.206,6.72,3.36c1.696,2.25,3.186,4.586,5.28,6.239c0.321,1.439,1.517,2.004,1.2,4.08
		c3.741,5.939,7.837,11.522,14.16,14.88c1.82-0.594,4.688,0.994,6.96,0.96C543.681,1170.886,541.547,1167.258,539.88,1162.76z
		 M594.12,1127.72c-0.129,0.85,0.203,1.236,0.72,1.44c0.521-0.296,2.049-1.817,0.72-2.4
		C595.153,1127.153,594.964,1127.764,594.12,1127.72z M529.56,1128.2c0.105,0.825-0.095,1.345-0.24,1.92
		c1.382,1.512,3.533-0.22,3.36-2.4C531.314,1126.716,530.787,1129.019,529.56,1128.2z M577.32,1134.2
		c0.171-0.63,1.37-0.23,1.439-0.96c-0.494-0.066-0.226-0.895-0.72-0.96C578.044,1133.018,576.547,1133.488,577.32,1134.2z
		 M575.16,1135.64c-0.001-0.24,0.194-0.285,0.24-0.479c-1.892,1.52-4.349-0.447-6.721-0.721c-0.341-0.039-0.858,0.316-1.199,0.24
		c-0.169-0.037-0.235-0.658-0.48-0.72c-6.404-1.6-13.699-1.663-19.92-0.72c0.094-0.343,0.288-0.405,0-0.721
		c-2.037,0.24-3.568,0.274-5.28,0.48c0.413-0.013,0.615,0.185,0.72,0.48c-0.812,0.058-2.912-0.234-1.68,0.479
		c-3.602-0.577-3.801,2.521-4.8,5.76c0.616,0.024,0.386,0.895,0.72,1.2c-0.476,2.088-0.423,3.774,0,5.76
		c1.635,7.677,4.804,17.73,8.4,23.04c-0.636-2.578,0.346-4.262-0.96-6.239c1.54-2.089,2.372-4.984,4.319-6.721
		c0.978-0.871,2.712-1.138,4.08-2.16c0.501-0.373,0.714-1.051,1.2-1.439c2.593-2.069,5.618-2.815,8.88-3.36
		c2.779-2.674,7.431-2.019,11.521-1.2c1.184,1.617,2.748,2.853,4.319,4.08c0.846,2.969,3.925,3.902,5.761,6
		c1.65,1.888,2.15,4.684,4.08,6.48c2.364,0.915,5.276,1.283,7.199,2.64c0.072-1.017,1.01,0.155,1.2-0.479
		c-4.874-3.977-7.914-9.479-9.84-15.84c-0.834-6.882-1.927-10.121-3.36-16.801C580.502,1135.241,576.758,1134.873,575.16,1135.64z"
		/>
	<path fill-rule="evenodd" clip-rule="evenodd" fill="#FFFFFF" d="M550.68,992.36c-0.642,0.797,1.031,2.154,1.44,3.36
		c4.332,0.875,8.928,0.087,12-2.4c0.224,0.176,0.363,0.437,0.479,0.72c4.527-1.174,10.383,0.169,12.24-3.36
		c0.168-0.888-0.841-0.599-1.2-0.96c-0.196,0.763-0.7,1.22-1.199,1.68c-4.579,0.37-7.246,1.438-10.801,0.48
		c-2.43,2.113-6.888,3.441-10.8,2.64c-0.299-1.132-1.427-1.835-2.399-2.88c2.814-2.484,6.127-2.182,10.319-1.92
		c3.539,0.222,7.346-0.754,11.04-0.72c3.453,0.032,7.015-0.375,10.08,0c10.476,1.281,18.195,7.933,27.601,11.04
		c-0.252,3.52,4.961,10.457,6.239,4.32c6.047,2.193,8,8.481,12.96,11.76c0.592,1.808,1.811,2.99,3.12,4.08
		c1.142,4.218,3.196,7.523,4.08,12c-4.787-4.895-6.722-13.916-15.12-14.4c-3.352,5.192,3.111,8.183,1.44,13.92
		c-0.607,0.993-2.427,0.774-2.641,2.16c-0.346-0.054-0.083-0.716-0.479-0.72c-0.945,1.455-2.788,2.012-4.561,2.64
		c0.195,0.83-0.447,1.014,0,1.44c2.896-0.224,3.995-2.246,6.24-3.12c-0.563,0.796-0.746,1.974-1.2,2.88
		c1.488,1.713,1.856,4.544,3.36,6.24c0.655,0.175,0.483-0.477,0.96-0.48c-0.755-1.407-2.229-3.368-2.399-4.56
		c0.221-1.202,1.336,0.267,2.159,0c-0.082,1.682,1.559,1.642,1.2,3.6c0.766,0.205,0.911-0.209,1.2-0.48
		c-2.136-2.206,0.462-7.664-3.12-8.4c1.694-4.033,0.326-8.566-1.92-10.56c0.397-0.803,0.083-2.317,0.48-3.12
		c4.303,1.616,7.853,3.986,9.119,8.64c1.737,1.143,2.067,3.693,4.08,4.56c-0.354,0.719,0.596,1.454,0.721,2.16
		c0.219,1.238-0.256,3.019,0,4.56c0.327,1.97,1.381,3.555,1.439,5.04c0.037,0.929-0.42,1.671-0.24,2.64
		c0.323,1.732,1.353,2.935,2.881,3.6c1.166,2.113,2.777,3.783,4.079,5.76c1.377,9.117-4.386,11.609-11.04,12.72
		c-6.498,1.085-13.414,4.075-19.199,4.56c0.694-0.186,0.835-0.925,0.96-1.68c-1.008,0.035-1.889,1.352-0.96,1.92
		c-5.354,0.914-9.801,0.616-15.601-0.479c-1.011-1.781,0.56-3.713,0.721-5.76c1.591,0.035,3.251-1.409,5.279-1.68
		c0.021,4.004,4.24,4.582,7.2,1.92c-0.236-3.904,4.587-7.11,6-2.64c-0.768,1.915-2.746,4.945-1.439,6.72
		c0.418-0.469,2.092-1.946,0.72-2.64c0.312-0.888,0.749-1.65,1.439-2.16c0.597-0.036,0.996,0.124,1.2,0.48
		c0.897-0.163-0.178-0.797,0.72-0.96c1.733-0.133,1.196,2.003,2.16,2.64c1.782-1.208-0.757-3.721-1.92-4.32
		c-0.641-0.001-0.521,0.759-1.2,0.72c-0.143-3.137-2.558-4.002-5.52-4.32c-1.966,1.894-2.801,2.829-3.36,5.52
		c-1.331,0.109-1.98,0.899-2.88,1.44c-1.967-0.354-1.458-3.182-3.359-3.6c0.352-0.528,1.852,0.092,1.439-1.2
		c-0.488-0.756-1.35,0.89-0.72-0.48c-0.432-0.493-0.992,0.915-0.96,1.68c-3.405,0.261-7.985,2.943-6.24,7.68
		c-0.41-0.011-0.622,0.178-0.72,0.479c-3.505-0.927-6.929-0.629-9.84-2.16c1.714-4.206,5.525-6.314,7.68-10.08
		c3.165-1.362,7.281-1.429,9.12-4.08c0.668-0.963-0.079-0.363,0.72-0.96c0.751-0.561,0.573-1.5,1.2-2.4
		c0.636-0.914,1.995-1.961,2.16-3.84c0.16-1.823-0.977-2.9-0.48-4.32c0.162-0.462,1.538-2.125,1.92-2.4
		c1.364-0.98,2.926-0.213,4.08-1.92c-0.218-2.218,1.208-2.792,1.44-4.56c-1.775-0.615-2.813,2.896-2.16,4.08
		c-1.316,0.363-2.166,1.194-3.36,1.68c0.068-0.627-0.088-1.032-0.72-0.96c-0.714,2.406-2.566,3.674-2.64,6.72
		c0.408,0.088,0.452-0.187,0.479-0.48c0.79,1.76-1.058,4.931-1.68,6.96c-0.388,0.067-0.413-0.227-0.72-0.24
		c-0.861,3.139-4.399,3.601-6.721,5.28c-5.4-0.361-5.012,5.068-8.64,6.48c-0.777,0.982-1.214,2.306-2.4,2.88
		c-0.076,0.563-0.379,0.901-0.239,1.68c-1.345-0.256-2.131-1.069-3.841-0.96c-0.21-0.424-0.761-0.701-0.239-1.2
		c-3.232,0.063-5.434-1.333-8.4-1.2c0.123-1.002-0.134-1.626-0.48-2.16c-7.869-1.971-13.415-2.105-21.6-0.96
		c-4.184-1.336-6.86-4.18-10.56-6c-1.825,1.064-4.591-0.625-6.96,0c-4.006-3.034-8.753-5.327-11.76-9.36
		c0.826-2.03-1.152-2.324-0.48-4.32c0.32,0,0.64,0,0.96,0c-0.089-1.137,0.834-2.515,0.72-2.88c0.493-0.242,2.432,0.12,3.12,0.48
		c0.218-0.627-1.3-1.573-2.16-1.92c0.69-0.326,1.005-1.056,2.64-0.96c0.68,0.92,0.201,2.999,1.68,3.12
		c0.335-1.775-0.936-3.294-1.92-4.08c-0.302,0.06-0.242,0.478,0,0.48c-3.459,0.131-2.898,2.97-5.28,4.32
		c0.057-4.309-4.318-5.029-3.84-8.4c2.228-0.412,1.434-3.846,3.84-4.08c-0.496-2.339,1.831-2.852,2.16-5.04
		c2.853,0.027,3.776,1.984,5.28,3.36c0.98-0.7,2.147-1.212,2.16-2.88c1.848-0.402,0.992-4.066,3.12-4.8
		c-0.65-2.318,1.892-2.892,0.96-4.56c3.428-1.905,8.496-0.386,7.2,4.08c2.26,1.582,1.006,4.968,2.16,6.96
		c1.611,2.78,3.944,5.282,5.76,7.92c-0.45-4.482-6.039-6.736-5.279-12.48c1.885,6.152,7.729-1.514,3.6-3.6
		c-0.088-0.408,0.188-0.453,0.479-0.48c-1.158-0.202-1.346-1.374-1.68-2.4c-1.311-0.105-2.729-0.469-3.84,0.48
		c-0.218-1.844-5.649-3.326-7.92-2.16c-2.612,1.341-3.677,10.241-6.48,12.24c-1.083-0.147-0.593-1.333-1.92-0.72
		c0.173-0.733-0.246-0.875-0.24-1.44c-0.763-0.037-1.056-0.544-1.92-0.48c0.004-1.195,0.607-1.793,1.2-2.4
		c1.41-6.831,5.407-11.074,9.36-15.36c0.295-1.065,0.72-2,1.92-2.16c2.971-5.35,6.704-9.937,12.48-12.48
		C549.511,992.684,550.273,992.325,550.68,992.36z M566.52,1010.36c0.364,1.541,3.947,5.095,6.24,6
		c0.869,0.343,1.883,0.139,2.641,0.48c3.634,1.639,4.63,5.631,6.479,9.12c1.79,1.199,4.443,3.815,6.72,4.08
		c3.314,0.385,9.248-2.599,9.841-5.28c-1.139-3.629,2.032-6.52,2.159-8.16c-0.373-2.267-0.684-4.597-1.439-6.48
		c-2.301-2.669-4.657-3.695-7.92-5.52c-1.607-0.899-3.002-2.453-4.32-2.88c-2.254-0.73-5.82-0.514-7.2-0.24
		c-2.676,0.532-3.559,2.822-6.239,4.08c-0.521,0.245-2.646-0.341-3.36,0.96c0.609,0.632,0.972-0.045,1.2-0.48
		c0.333,1.738,1.608-0.061,2.399,0.96c0.954-0.807,2.564-0.956,2.88-2.4c1.707-0.534,2.717-1.764,4.561-2.16
		c1.275,0.667,4.543,0.728,5.52,0.24c2.721,3.809,9.947,4.487,11.761,9.12c0.392,1.003,1.011,3.813,0.479,5.76
		c-0.493,1.808-2.689,3.169-1.92,6.72c-1.074,3.166-4.838,3.642-8.16,4.56c-2.229-1.861-4.831-1.798-6.24-4.08
		c-1.352-2.19-1.904-4.794-3.6-6.72c-1.045-1.187-2.528-1.515-3.6-2.64c-1.096,0.121-1.36-0.417-2.16,0
		c-0.628-1.532-3.08-1.24-3.12-3.36c-2.419,0.019-2.479-2.322-2.88-4.32c0.83-0.53,2.394-0.326,3.12-0.96
		c-0.874-1.12-2.066-0.309-3.36,0C566.591,1007.952,566.268,1009.291,566.52,1010.36z M555.48,1004.6
		c-2.209,1.168-2.414,4.828-1.681,7.44c2.04,0.042,4.2,0.191,5.76-0.48c-1.216-1.632-0.47-3.871-0.96-6
		C557.167,1005.485,555.893,1005.037,555.48,1004.6z M615.48,1006.76c-0.202,0.998-0.82,1.581-0.721,2.88
		c1.615,2.785,3.466,5.334,6,7.2c0.511-0.37,0.894-0.866,1.44-1.2c-0.362-4.278-3.025-6.255-5.28-8.64
		c-0.648,3.294,4.483,4.649,3.84,8.16c-0.939-0.98-2.144-1.696-2.16-3.6C615.232,1011.409,617.707,1007.248,615.48,1006.76z
		 M569.64,1024.76c0.18,1.74-1.346,2.885-0.72,5.04c2.439,1.561,4.308,3.692,5.76,6.24c-0.466,0.494-0.455,1.464-1.68,1.2
		c-0.49-0.311-0.437-1.164-1.44-0.96c-0.848,0.992-1.798,1.882-1.92,3.6c2.812,2.634,4.139,8.014,7.681,9.12
		c-0.304-0.816-1.054-1.103-1.681-1.92c-0.979-1.276-1.555-3.186-2.399-4.56c-0.736-1.198-1.727-1.353-1.92-2.64
		c0.018,0.12,0.111-1.99,0.96-2.16c0.567,0.472,1.163,0.917,2.399,0.72c0.562-0.318,0.11-1.65,0.96-1.68
		c2.136,3.817-0.935,9.136,2.88,12c-0.306,0.334-1.175,0.104-1.199,0.72c0.998,0.281,0.997,1.563,2.16,1.68
		c0.519-3.934-3.812-6.343-1.44-10.32c-1.057-1.628-0.624-3.416-1.68-4.8c0.432-3.367,0.378-7.083,0.96-9.84c0.319,0,0.64,0,0.96,0
		c-0.052-2.828-2.194-3.566-3.12-5.52c-1.06-0.301-1.966-0.754-2.4-1.68c-2.353-0.345-3.137-2.398-4.56-3.36
		c-2.42-1.636-5.77-1.731-6.48-4.56c0.187-0.054,0.474-0.007,0.48-0.24c-1.707,0.344-0.634-1.002-1.44-1.2
		c-0.082,1.188-0.63-0.2-1.2,0c0.181,1.1,0.198,2.362,0.48,3.36c0.596-0.035,1.165-0.045,1.2,0.48
		c-1.415,1.866,1.658,2.646,2.16,4.56c0.742,0.644,0.932-0.649,1.439,0c-0.021,0.378-0.612,0.188-0.479,0.72
		c0.33,0.645,1.196,0.581,1.439,0.72C565.988,1021.784,569.363,1022.074,569.64,1024.76z M552.84,1013
		c-0.846,1.48-2.272,3.575-0.72,5.28c1.443-0.254,3.05-0.777,4.32-0.96c-0.176-1.424-1.285-1.915-1.921-2.88
		c-0.272,1.293,0.08,1.006,0.24,2.16c-0.954-0.075-1.205,0.554-2.16,0.48c0.111-1.009,0.005-2.235,0.721-2.64
		c1.112-0.206,0.251,0.378,0.72,0.48c0.051-0.269,0.267-0.374,0.479-0.48C554.365,1013.555,553.699,1013.181,552.84,1013z
		 M535.56,1020.68c1.026-0.094,1.353-0.887,2.4-0.96c-0.082,1.211,0.875,2.363,1.68,1.92c-0.007-1.041-1.317-2.033-0.48-3.12
		c1.229-0.028,0.944,1.455,1.92,1.68C542.369,1016.343,536.09,1017.844,535.56,1020.68z M557.64,1020.44
		c-0.136,2.781,5.381,2.969,5.761,0c-0.367-0.497-1.204-1.316-1.92-0.72c-0.063,0.784,0.931,0.509,0.96,1.2
		c-1.472,0.684-3.063,1.677-3.601-0.72c0.641,0,1.28,0,1.92,0C560.142,1017.599,557.707,1019.077,557.64,1020.44z M532.44,1025.24
		c1.348,0.091,1.5-1.552,1.44-2.16c0.766,0.206,0.742-0.378,1.2-0.48c0.286,1.592,1.939,2.969,3.36,2.64
		c-0.433-1.808-2.595-1.885-3.12-3.6C532.771,1021.785,533.407,1023.678,532.44,1025.24z M549,1028.6
		c2.307,0.093,2.404,2.396,4.8,2.4c0.061-1.06,0.801-1.44,0.96-2.4c-1.675-1.309-0.543-4.25-3.12-5.28
		C551.905,1026.226,548.082,1025.042,549,1028.6z M533.4,1027.88c-0.745,0.025-0.685-0.755-1.68-0.48
		c-0.399,1.869-3.042,2.68-2.16,5.04c0.534-0.186,1.301-0.139,1.44-0.72c-0.321-0.166,0.119-0.64-0.24-1.2
		c1.25,0.209,0.741-1.339,1.44-1.68c0.978,0.294,1.84,1.068,2.64,0.24c0.772,0.268,0.096,1.984,0.96,2.16
		C536.889,1029.84,535.291,1025.673,533.4,1027.88z M560.28,1032.68c0.226,0.05,1.062-0.392,1.439-0.24
		c1.586,0.638,4.728,4.442,4.8-0.96c-1.018-1.405-2.776-2.803-4.319-4.32c-1.598-0.013-1.948,0.274-3.12,0.48
		c0.026,1.965-3.149,1.674-1.92,4.08C558.341,1031.399,558.979,1032.389,560.28,1032.68z M528.12,1032.92
		c-1.098,1.17-3.298,2.424-2.88,4.32c0.794-0.05,0.449-1.7,1.2-0.48c0.434-0.926,1.045-1.675,1.68-2.4
		c0.808,0.392,2.018,0.382,1.68,1.92c1.257-0.217,0.903,1.177,2.16,0.96C532.283,1035.127,529.938,1033.684,528.12,1032.92z
		 M554.28,1035.56c0.755,0.275,0.583-0.377,0.96-0.48c0.054,0.186,0.006,0.473,0.24,0.48c0.731-1.448-1.51-1.795-2.4-2.4
		C552.988,1034.451,554.32,1034.32,554.28,1035.56z M544.44,1043.96c1.766,3.412,5.239,5.927,10.56,5.04
		c0.83-1.091,2.372,0.033,3.36,0.24c-0.448,0.427,0.194,0.61,0,1.44c-1.052,1.472-2.017,1.548-3.841,2.16
		c-0.067,2.375-1.949,3.767-4.079,4.08c-1.166-2.59-1.045-5.144-3.36-6.72c-1.756-0.036-4.496,3.28-1.92,3.84
		c-0.049-1.568,0.409-2.631,1.92-2.64c0.219,0.821,0.593,1.487,0.72,2.4c-2.12-0.58-2.974,1.914-4.319,2.88
		c-2.223-0.683-4.904-2.049-2.641-4.08c1.108,0.272,1.11,2.314,2.4,1.68c0.506-1.521-1.197-2.763-2.641-3.12
		c-1.213,0.787-1.68,2.319-2.64,3.36c-2.204-0.195-4.535-0.016-7.2-0.24c1.897,1.716,5.559,1.775,7.68,1.439
		c4.184,2.946,9.132,3.527,14.64,1.92c2.143-1.447,1.562-4.306,5.04-4.56c0.231-1.359,2.874-2.412,1.439-4.8
		c-2.685-1.725-6.126-0.451-9.84-0.72c-1.985-0.734-2.606-2.833-4.08-4.08c2.19-1.73,2.031-5.809,2.641-9.12
		c-0.308-0.013-0.333-0.308-0.721-0.24C546.872,1037.371,546.307,1040.911,544.44,1043.96z M552.6,1036.52
		c0.457-0.45,0.604-0.026,1.2,0c0.054-0.854-0.161-1.438-0.72-1.68c-2.981,1.918-0.809,6.331,2.4,5.76
		c1.447-1.272,1.829-3.626-0.24-4.56c0.395,1.3,0.807,2.116,0.24,2.88C554.727,1039.7,552.387,1038.768,552.6,1036.52z
		 M560.52,1036.04c-0.139,0.779,0.164,1.116,0.24,1.68c-6.474,4.177,5.102,9.75,5.521,2.16c-1.413-0.507-1.473-2.368-2.16-3.6
		C563.099,1036.258,561.163,1035.983,560.52,1036.04z M589.08,1041.56c-0.054-0.454,0.271-0.53,0.24-0.96
		c-1.571,0.109-2.252,1.108-3.601,1.44c-1.907,5.04,2.456,7.44,1.44,12.48c1.39,1.329,1.194,3.672,3.359,3.36
		c2.391-0.344,1.94-4.592,3.12-6.72c1.142,0.555,1.009,1.986,0.48,3.12c1.283,0.446,3.227-0.192,4.08-1.2
		c0.101-0.12,0.718-1.843,0.72-1.92c0.043-1.892-1.793-3.111-2.16-5.04c0.834-2.085,3.269-1.669,2.88-4.56
		C597.118,1039.616,590.959,1039.259,589.08,1041.56z M522.84,1044.2c0.201,1.182,1.514-0.09,2.16,0
		c0.61,0.589,0.857,1.542,0.72,2.88c2.344-0.184,1.494,2.826,3.36,3.12c0.454-0.587,0.642-1.438,1.2-1.92
		c-0.597-0.037-0.743,0.377-1.2,0.479c-0.373-1.307-1.453-1.907-2.4-2.64c0.17-1.93-0.901-2.619-2.16-3.12
		C523.278,1043.482,523.695,1044.158,522.84,1044.2z M522.6,1048.28c0.904,0.184,1.147-0.293,1.92-0.24
		c0.197-0.917-1.157-0.283-0.96-1.2c0.31-0.65,1.067-0.853,0.96-1.92C522.964,1045.124,522.582,1046.502,522.6,1048.28z
		 M549.96,1052.84c1.759-0.001,1.414-2.106,3.36-1.92c0.399,0.4-0.152,1.752,0.72,1.68
		C556.033,1048.972,549.491,1049.214,549.96,1052.84z M532.92,1051.16c0,0.56,0,1.12,0,1.68c1.188-1.389,3.734-1.019,5.04,0
		C537.382,1050.621,535.163,1050.156,532.92,1051.16z M629.4,1036.52c-0.803-1.223-3.521-0.641-3.36,1.2
		c1.293,0.333,1.006-0.914,2.16-0.72c1.32,0.76,1.006,3.154,2.399,3.84c0.694-1.826-1.041-4.499,0.48-6.72
		c1.823,0.977,1.802,3.798,2.88,5.52c0.902-2.761-1.1-4.818-2.4-6.72C628.953,1032.233,629.953,1035.153,629.4,1036.52z
		 M616.2,1041.08c0.759,0.024,1.537-1.167,1.68,0.24c-0.592-0.032-1.156-0.036-1.439,0.24c0.001,2-1.3,5.786,0.239,7.68
		c1.851-1.411-1.554-7.504,2.641-7.44c0.201,0.519,0.621,0.819,0.479,1.68c-0.557-0.077-0.921,0.039-1.2,0.24
		c0.112,1.482-0.575,2.442,0.721,2.88c0.445-0.279-0.342-1.489,0.479-1.68c2.419,0.356,0.303,3.243,2.16,3.6
		c1.282-2.024-0.767-4.168-1.92-5.28c0.454-0.054,0.529,0.271,0.96,0.24c-0.275-2.445-2.151-3.288-4.08-4.08
		C616.921,1040.201,616.14,1040.219,616.2,1041.08z M631.08,1043.24c0.288,1.213-0.794,4.378,0.479,6.24
		c0.454,0.054,0.53-0.271,0.96-0.24c-0.002-1.853-1.389-4.437,0-5.521c0.959,0.808,0.821,1.367,2.16,1.92
		C634.492,1043.878,632.464,1042.321,631.08,1043.24z M630.36,1048.76c0.144-1.158-1.29-1.428-2.16-0.479
		c0.543,1.118-0.362,0.997-0.48,1.2c-0.891,1.524,0.056,5.138,1.92,4.32C628.116,1052.15,628.295,1048.327,630.36,1048.76z
		 M609.48,1048.04c-1.812,2.047-0.281,4.677,1.199,6c0.112-1.589-1.933-3.186-0.479-4.56c0.99,0.058,0.944,2.404,1.92,1.68
		C611.667,1049.693,611.556,1047.885,609.48,1048.04z M617.4,1051.16c-0.478-0.562-0.508-1.572-1.681-1.44
		c-1.173,0.716-1.557,3.121-0.239,3.84c0.904-0.229-0.205-2.705,0.479-2.88C616.412,1050.73,617.207,1051.642,617.4,1051.16z
		 M619.56,1052.6c-0.674,1.736-0.309,4.502,1.681,4.8c-0.283-1.791-1.037-2.058-1.2-3.6c1.09,0.11,0.981,1.418,2.16,1.44
		C621.812,1053.869,621.214,1052.706,619.56,1052.6z M606.36,1056.2c0.673-0.127,0.467-1.133,1.199-1.2
		c1.262,0.085,0.875,2.875,2.16,2.16C611.529,1052.999,604.605,1052.414,606.36,1056.2z M631.8,1057.16
		c0.699,1.943,2.757-1.071,1.44-1.68C633.067,1056.348,631.846,1056.166,631.8,1057.16z M619.8,1061
		c-1.027,0.1-1.628,1.882-1.439,2.4c-0.073-0.98,0.501-0.128,0.96-0.24c0.268-0.826,0.617-1.835,1.68-1.2
		c0.068-1.513-2.084-2.069-1.2-3.6c0.733,0.307,1.199,0.881,2.16,0.96c-0.854-0.905-1.745-1.775-3.12-2.16
		C618.202,1058.792,619.782,1059.332,619.8,1061z M608.04,1061.24c0.002-1.132-0.964-0.176-1.2-0.72
		c0.585-0.679-0.391-1.839-1.2-1.92c-1.022,0.657-1.497,1.863-1.439,3.6c1.279-0.081,0.912-1.808,1.92-2.16
		C606.294,1060.857,607.468,1061.578,608.04,1061.24z M625.56,1067.48c1.757,0.293,3.276-2.696,3.12-4.32
		c-0.224-2.332-2.617-3.187-4.319-3.36C623.817,1062.232,623.173,1067.081,625.56,1067.48z"/>
	<path fill-rule="evenodd" clip-rule="evenodd" fill="#FFFFFF" d="M518.52,1012.52c-0.058,1.306,2.19,2.038,2.64,3.6
		c1.105-0.381-0.262-1.742,0.72-2.16c-2.333-1.141-2.793-3.15-4.32-4.08c5.238-5.482,13.889-7.551,20.88-11.28
		c-0.22,3.571-3.862,4.896-4.32,7.44c-1.083-0.854-0.834,0.594-1.44,1.2c-0.37,0.37-1.144,0.409-1.2,0.479
		c-0.108,0.135,0.427,0.301,0.48,0.24c-0.807,0.932-2.016,1.385-2.64,2.4c-0.359,0.585-0.25,1.48-0.72,2.16
		c-0.206,0.298-0.707,0.003-0.96,0.24c-0.691,0.646-1.486,2.547-1.92,3.6c-0.809,1.964-1.057,4.421-2.16,6.24
		c-0.315-2.083,0.16-4.643-1.92-5.52c-0.604,1.569,0.662,3.335,0.48,5.28c-1.826,1.935-5.272,2.248-7.92,3.36
		c-2.099,1.791-2.436,6.774-0.72,9.12c3.089,2.164,6.42,5.188,6,10.08c-4.157-3.223-10.349-7.378-17.04-5.76
		c-3.055,0.738-5.414,2.674-8.4,3.36c-2.141-16.31,18.05-14.053,19.68-27.12c-0.315-1.685-1.183-2.817-1.2-4.8
		c1.333-0.36,2.295,0.388,3.12-0.48C516.621,1010.744,517.542,1012.692,518.52,1012.52z"/>
	<path fill-rule="evenodd" clip-rule="evenodd" fill="#FFFFFF" d="M566.04,1015.64c2.359,2.645,8.874,5.173,11.04,9.6
		c-1.43,2.176-1.708,6.658-1.2,9.36c-0.876-0.164-1.17-0.91-1.92-1.2c-0.186-2.854-3.69-2.39-4.32-4.8
		c3.756-5.035-2.014-7.06-3.84-10.56c-1.478-1.322-3.454-2.146-4.08-4.32C563.294,1013.99,564.764,1016.641,566.04,1015.64z"/>
	<path fill-rule="evenodd" clip-rule="evenodd" d="M554.52,1014.44c-0.213,0.106-0.429,0.211-0.479,0.48
		c-0.469-0.102,0.393-0.686-0.72-0.48c-0.716,0.405-0.609,1.631-0.721,2.64c0.955,0.074,1.206-0.555,2.16-0.48
		C554.6,1015.446,554.247,1015.733,554.52,1014.44c0.636,0.965,1.745,1.456,1.921,2.88c-1.271,0.184-2.877,0.707-4.32,0.96
		c-1.553-1.705-0.126-3.8,0.72-5.28C553.699,1013.181,554.365,1013.555,554.52,1014.44z"/>
	<path fill-rule="evenodd" clip-rule="evenodd" fill="#FFFFFF" d="M636.36,1037.24c1.021-0.333,0.653,2.204,0.96,2.88
		C636.381,1039.779,637.132,1037.748,636.36,1037.24z"/>
	<path fill-rule="evenodd" clip-rule="evenodd" d="M629.64,1053.8c-1.864,0.818-2.811-2.795-1.92-4.32
		c0.118-0.203,1.023-0.082,0.48-1.2c0.87-0.948,2.304-0.679,2.16,0.479C628.295,1048.327,628.116,1052.15,629.64,1053.8z"/>
	<path fill-rule="evenodd" clip-rule="evenodd" d="M615.96,1050.68c-0.685,0.175,0.425,2.651-0.479,2.88
		c-1.317-0.719-0.934-3.125,0.239-3.84c1.173-0.132,1.203,0.878,1.681,1.44C617.207,1051.642,616.412,1050.73,615.96,1050.68z"/>
	<path fill-rule="evenodd" clip-rule="evenodd" d="M547.56,1034.12c0.388-0.068,0.413,0.227,0.721,0.24
		c-0.609,3.312-0.45,7.39-2.641,9.12c1.474,1.247,2.095,3.346,4.08,4.08c3.714,0.27,7.155-1.004,9.84,0.72
		c1.435,2.388-1.208,3.441-1.439,4.8c-3.478,0.254-2.897,3.113-5.04,4.56c-5.508,1.606-10.456,1.025-14.64-1.92
		c-2.122,0.336-5.783,0.276-7.68-1.439c2.666,0.224,4.996,0.045,7.2,0.24c0.959-1.041,1.427-2.573,2.64-3.36
		c1.443,0.357,3.146,1.599,2.641,3.12c-1.29,0.634-1.292-1.408-2.4-1.68c-2.264,2.031,0.418,3.397,2.641,4.08
		c1.346-0.966,2.199-3.46,4.319-2.88c-0.127-0.913-0.501-1.579-0.72-2.4c-1.511,0.009-1.969,1.072-1.92,2.64
		c-2.576-0.56,0.164-3.876,1.92-3.84c2.315,1.576,2.194,4.13,3.36,6.72c2.13-0.313,4.012-1.705,4.079-4.08
		c1.824-0.611,2.789-0.688,3.841-2.16c0.194-0.83-0.448-1.013,0-1.44c-0.988-0.207-2.53-1.331-3.36-0.24
		c-5.32,0.887-8.794-1.628-10.56-5.04C546.307,1040.911,546.872,1037.371,547.56,1034.12z M544.68,1057.16
		c0.449-0.013,0.509,0.185,0.24,0.48c2.011-0.216,3.588-0.341,5.04-0.72c-0.794-0.406-1.107-1.292-1.68-1.92
		c-1.186-0.146-1.628,0.458-2.16-0.24C546.743,1055.983,545.242,1056.405,544.68,1057.16z"/>
	<path fill-rule="evenodd" clip-rule="evenodd" d="M618.84,1057.16c1.375,0.385,2.266,1.254,3.12,2.16
		c-0.961-0.079-1.427-0.653-2.16-0.96c-0.884,1.531,1.269,2.087,1.2,3.6c-1.062-0.635-1.412,0.374-1.68,1.2
		c-0.459,0.112-1.033-0.74-0.96,0.24c-0.188-0.518,0.412-2.3,1.439-2.4C619.782,1059.332,618.202,1058.792,618.84,1057.16z"/>
	<path fill-rule="evenodd" clip-rule="evenodd" d="M606.12,1060.04c-1.008,0.353-0.641,2.079-1.92,2.16
		c-0.058-1.737,0.417-2.943,1.439-3.6c0.81,0.081,1.785,1.241,1.2,1.92c0.236,0.544,1.202-0.412,1.2,0.72
		C607.468,1061.578,606.294,1060.857,606.12,1060.04z"/>
	<path fill-rule="evenodd" clip-rule="evenodd" fill="#FFFFFF" d="M433.56,1062.2c2.78,0.618,9.41,0.199,12.24,2.64
		c0.734,0.174,0.706-0.414,1.44-0.24c0.067,0.388-0.227,0.413-0.24,0.72c3.84,1.04,7.32,2.817,9.36,6.24
		c0.636-0.266,1.457,0.848,0.96,0.24c0.554-0.303,0.976,1.576,1.68,1.92c-0.465,11.354,5.213,16.586,5.52,27.841
		c-8.716-0.374-15.686-1.708-24-0.721c-2.384,0.283-4.7,1.347-6.72,1.92c-0.42,0.38-1.278,0.321-1.92,0.48
		c-0.302,0.059-0.242,0.477,0,0.479c-0.221,0.654-0.75-0.335-1.44,0c-0.446,0.194-0.97,0.311-1.2,0.72
		c-4.278-0.167-7.923,2.011-11.04,3.121c0.269,0.756,0.021,0.543,0,1.439c-0.555-1.378-1.429,0.253-1.92,0
		c0.339-1.661,1.914-2.087,2.4-3.6c2.725-2.169,5.288-4.457,8.64-6.24c2.418-1.287,5.583-1.838,6.96-4.32
		c4.692-1.993,8.488-5.487,9.12-11.76c0.688-6.824-0.621-13.342-4.8-16.32c-0.821-0.977-1.315-2.313-2.64-2.16
		C435.776,1063.184,434.245,1063.115,433.56,1062.2z"/>
	<path fill-rule="evenodd" clip-rule="evenodd" fill="#FFFFFF" d="M538.44,1074.68c0.122,0.485,2.47,1.002,3.36,0.72
		c-0.966,1.975-3.971,0.515-6.24,0.24c-4.327-0.524-11.416,0.286-9.6-6.48C527.298,1074.127,534.298,1075.154,538.44,1074.68z"/>
	<path fill-rule="evenodd" clip-rule="evenodd" fill="#FFFFFF" d="M571.56,1071.56c0.968-0.035,3.946-1.083,4.561-1.44
		c0.97,0.429-1.167,1.641-1.68,2.16c-3.787,4.887-0.122,11.155,2.64,14.399c-1.153,0.127-1.871,0.689-2.88,0.96
		c0.214,2.055-1.579,2.102-1.681,3.841c-3.147-2.612-4.299-7.221-6.96-10.32c-0.743-2.835,1.716-3.654,2.16-6
		c0.739,0.179,0.462-0.659,1.2-0.48c0-0.4,0-0.8,0-1.2C570.033,1073.541,571.522,1072.531,571.56,1071.56z"/>
	<path fill-rule="evenodd" clip-rule="evenodd" fill="#FFFFFF" d="M469.8,1079.96c0.539,0.468,1.725,0.129,1.68-0.72
		c0.739,0.168,0.461,0.168,1.2,0c-0.632,1.447-2.96,1.199-3.6,2.64C468.586,1081.448,469.809,1080.702,469.8,1079.96z"/>
	<path fill-rule="evenodd" clip-rule="evenodd" fill="#FFFFFF" d="M503.4,1079.48c0.378,0.164-0.532,1.049-1.2,0.959
		c0.198-0.678-0.338-0.621-0.24-1.199C502.494,1079.134,503.261,1079.981,503.4,1079.48z"/>
	<path fill-rule="evenodd" clip-rule="evenodd" fill="#FFFFFF" d="M482.28,1080.92c0.817-0.018,0.894,0.706,1.2,1.2
		C484.077,1082.452,482.081,1081.736,482.28,1080.92z"/>
	<path fill-rule="evenodd" clip-rule="evenodd" fill="#FFFFFF" d="M501.24,1081.16c0.235,0.645-1.005,1.868-1.92,2.16
		C499.683,1082.323,500.523,1081.804,501.24,1081.16z"/>
	<path fill-rule="evenodd" clip-rule="evenodd" fill="#FFFFFF" d="M543.48,1090.52c-4.701,0.14-8.805-2.395-13.681-2.88
		c-1.517-1.042-2.882-2.237-4.08-3.6c-0.488-0.604,0.76,0.275,1.2,0.24c-0.037,0.597,0.377,0.743,0.48,1.2
		c2.684,1.235,6.188,1.651,8.88,2.88C539.175,1087.743,541.352,1089.603,543.48,1090.52z"/>
	<path fill-rule="evenodd" clip-rule="evenodd" fill="#FFFFFF" d="M486.6,1088.6c-0.261-0.677-3.168-5.409-0.24-2.16
		c-0.039,0.279,0.053,0.428,0.24,0.48C486.6,1087.48,486.6,1088.04,486.6,1088.6z"/>
	<path fill-rule="evenodd" clip-rule="evenodd" fill="#FFFFFF" d="M493.8,1092.439c0.128,3.276-5.546,1.602-6.96,4.32
		c-0.117-0.757,0.433-0.848,0.24-1.68C489.692,1094.214,492.463,1094.757,493.8,1092.439z"/>
	<path fill-rule="evenodd" clip-rule="evenodd" fill="#FFFFFF" d="M495.24,1095.08c2.291,2.269,3.747,5.373,6.48,7.2
		C498.774,1101.625,497.129,1097.591,495.24,1095.08z"/>
	<path fill-rule="evenodd" clip-rule="evenodd" fill="#FFFFFF" d="M482.52,1100.84c0.35,0.602-0.501,2.051-0.96,2.641
		C480.908,1102.577,482.322,1101.689,482.52,1100.84z"/>
	<path fill-rule="evenodd" clip-rule="evenodd" fill="#FFFFFF" d="M465.72,1103c1.141,2.335,2.861,2.604,4.32,4.561
		c0.088-0.409-0.187-0.453-0.48-0.48c0.321-0.615,1.545,0.608,0.96,0.96c1.442,1.918,4.334,2.386,5.76,4.32
		c-9.343,2.421-15.407,10.189-21.84,16.319c-1.791,4.289-4.13,8.03-6.24,12c-0.812,5.375-3.747,10.634-4.08,17.28
		c-1.496-2.116-1.521-4.298-2.16-7.68c-0.243-1.289-1.084-2.497-1.2-3.601c-0.689-6.547,3.877-11.766,4.56-16.8
		c2.075-2.789,1.704-9.401-1.2-11.52c-1.137-5.368-7.435-7.744-13.44-8.16c-1.69-0.117-3.369,0.325-5.28,0.239
		c-3.844-0.172-7.963,0.093-10.56,1.681c-0.403-0.474,0.599-0.997,1.44-0.96c0.618-1.356,0.607-1.918,2.4-1.92
		c1.779-1.614,4.708-2.974,7.44-2.88c6.081-1.462,11.34-4.548,18-4.08c0.272-0.046,0.133-0.241,0-0.24
		c0.045-0.272,0.241-0.134,0.24,0c3.814,0.726,7.062-0.717,10.08-0.24c1.309,0.207,2.352,1.05,3.6,1.2
		C460.61,1103.31,463.096,1102.873,465.72,1103z"/>
	<path fill-rule="evenodd" clip-rule="evenodd" fill="#FFFFFF" d="M576.6,1113.32c0.674-0.58,1.397,0.832,1.2,1.92
		c1.096,2.264,2.811,3.909,3.601,6.479c0.443,0.916,1.84,0.88,2.399,1.681c-1.112,0.703-2.413-0.46-3.359-0.721
		c0.215-2.26-1.862-3.938-2.4-6.72C576.733,1115.759,576.6,1114.17,576.6,1113.32z"/>
	<path fill-rule="evenodd" clip-rule="evenodd" fill="#FFFFFF" d="M548.52,1116.2c2.006,1.516,2.927,6.192,3.841,9.6
		c-1.161,1.348-1.022,2.859-0.48,4.561c-0.46,0.499-0.917,1.003-1.68,1.2C552.086,1126.038,551.336,1120.319,548.52,1116.2z"/>
	<path fill-rule="evenodd" clip-rule="evenodd" fill="#FFFFFF" d="M503.4,1125.8c-4.514,2.926-7.497,7.383-10.08,12.24
		c-0.856,4.787-2.727,9.184-2.88,14.4c-0.177,6.054,1.301,11.975,3.12,18.239c-1.37,0.325-0.337,1.315-0.48,2.16
		c-4.317-1.469-6.39-6.628-7.68-11.28c-0.081-0.291-0.662-0.423-0.72-0.72c-0.429-2.2,0.031-6.314-1.2-7.2
		c-0.189-2.853-1.194-8.713-1.44-12.96c-0.068-1.17,0.268-2.487,0-3.359c-1.033-3.363-8.023-3.968-11.76-3.84
		c-4.555,0.155-8.894,2.311-12,2.88c-4.098,2.621-6.999,6.44-9.84,10.319c-0.045-0.194-0.241-0.239-0.24-0.479
		c-0.528-0.729,0.657-1.589,0.96-2.641c0.46-1.598,0.212-3.05,1.2-4.079c0.796-0.83,0.658,0.266,0.48-0.721
		c-0.107-0.597,0.847-0.409,0.96-0.72c0.614-1.678,0.137-3.099,1.92-3.84c5.021-10.499,13.889-17.151,24.96-21.601
		C486.5,1116.469,495.507,1121.206,503.4,1125.8z M489.72,1126.28c0.853-0.027,0.965-0.795,0.96-1.681
		c-1.992-0.179-2.247,2.182-1.2,3.12c2.113,0.395,3.986-2.214,1.92-3.12C491.55,1124.939,490.626,1127.059,489.72,1126.28z
		 M484.92,1137.08c1.475,0.272,3.796-0.603,2.88-2.641c-1.382,0.792-0.623-0.04-1.44-0.479c-0.295,0.744,0.921,1.825-0.24,1.92
		c0.075-0.324,0.341-0.458,0.24-0.96C485.26,1134.369,484.722,1135.626,484.92,1137.08z M484.2,1148.36
		c0.865,0.335,1.387,1.013,2.4,1.199c-0.043-0.523,0.196-0.763,0.72-0.72c0.049-1.009,0.086-2.006-0.72-2.16
		c0.031,0.432-0.238,0.562-0.72,0.48c0.054-0.454-0.271-0.529-0.24-0.96C486.495,1145.68,483.365,1146.587,484.2,1148.36z"/>
	<path fill-rule="evenodd" clip-rule="evenodd" fill="#FFFFFF" d="M521.16,1125.8c0.812,0.596,0.369,1.515,0.72,2.16
		C521.556,1128.333,520.96,1125.986,521.16,1125.8z"/>
	<path fill-rule="evenodd" clip-rule="evenodd" fill="#FFFFFF" d="M546.84,1173.56c-2.271,0.034-5.14-1.554-6.96-0.96
		c-6.323-3.357-10.419-8.94-14.16-14.88c0.317-2.076-0.878-2.641-1.2-4.08c-2.094-1.653-3.583-3.989-5.28-6.239
		c-1.624-2.154-3.623-3.809-6.72-3.36c-2.71,0.393-7.667,1.803-9.84,3.36c-1.816,1.301-4.546,4.188-4.56,5.76
		c-0.498-0.112-0.397,0.994-1.44,0.96c-0.171,3.269-2.708,7.029-2.88,10.32c-1.565-0.259-1.024-2.414-1.44-4.32
		c-0.366-1.679-1.228-8.597-0.24-10.32c0.684-1.192,0.422-3.771,0.48-6.24c2.762-5.237,3.968-12.032,9.12-14.88
		c0.137-0.217,0.99-0.883,0.48-0.96c0.96-0.479,1.925-0.954,2.64-1.68c5.409,2.472,9.588,5.087,15.84,6.96
		c0.547,0.067,0.902-0.058,0.96-0.48c0.359,1.082,0.829,2.051,1.92,2.4c0.489-0.071,0.639-0.48,0.96-0.72
		c3.765,0.825,7.466,1.664,11.04,0.96c0.561,1.091-0.958,2.615,0.24,3.359c-0.857-0.566-0.91,5.402-0.72,6.961
		c0.347,2.846,2.062,6.117,2.88,9.359c0.689,2.73,0.977,5.377,1.92,7.92C541.547,1167.258,543.681,1170.886,546.84,1173.56z
		 M505.32,1131.32c-0.638-2.323-4.273,1.893-1.92,3.359c2.324,0.164,3.077-1.243,3.36-3.119
		C506.452,1130.938,505.325,1131.745,505.32,1131.32z M528.84,1138.52c-1.872,2.939-0.32,6.662,3.6,5.28
		c0.221-2.332,1.152-3.36,0-5.52C530.85,1137.945,530.214,1138.195,528.84,1138.52z M505.08,1142.12
		c-0.058-0.343-0.396-0.405-0.48-0.72c0.583-0.703,2.813-1.02,2.4-1.92c-1.493,0.613-3.29,0.048-3.12,2.64
		c0.844,0.036,0.577,1.184,1.68,0.96c0.309-0.571,1.076-0.685,1.68-0.96c-0.144-0.807,0.086-1.616,0.72-0.96
		c0.035-0.596,0.045-1.165-0.48-1.2C507.183,1141.184,506.337,1141.856,505.08,1142.12z M496.44,1139.96
		c-3.908,3.675,4.023,7.568,3.36,3.12c-0.183,0.777-1.483,0.437-1.68,1.2c-0.861-0.579-1.519-1.361-1.44-2.88
		c0.716-0.004,0.816-0.624,1.44-0.721c0.588,0.612,1.905,0.495,1.68,1.92c0.739-0.168,0.461-0.168,1.2,0
		c-0.095-0.784-0.208-1.551-0.96-1.68c-0.095,0.413,0.356,0.615,0,0.72c-0.918-1.011-0.241-0.709-0.96-1.92
		C497.052,1139.416,497.724,1140.347,496.44,1139.96z M523.56,1145.48c0.756-0.116,0.543,0.736,1.44,0.479
		c0.191-0.448,0.401-0.879,0.48-1.44C524.894,1143.551,523.207,1143.653,523.56,1145.48z"/>
	<path fill-rule="evenodd" clip-rule="evenodd" fill="#FFFFFF" d="M505.8,1131.8c0.474,0.646-1.386,1.005-1.2,2.16
		c-1.275,0.046-1.214-0.712-0.96-1.68c0.565-0.006,0.707,0.413,1.44,0.239c0.071-0.631-0.931-0.188-0.72-0.959
		c0.766-0.206,0.743,0.377,1.2,0.479C505.764,1132.084,505.786,1131.946,505.8,1131.8z"/>
	<path fill-rule="evenodd" clip-rule="evenodd" d="M507.48,1139.96c0.525,0.035,0.515,0.604,0.48,1.2
		c-0.634-0.656-0.863,0.153-0.72,0.96c-0.604,0.275-1.372,0.389-1.68,0.96c-1.104,0.224-0.836-0.924-1.68-0.96
		c-0.169-2.592,1.627-2.026,3.12-2.64c0.413,0.9-1.817,1.217-2.4,1.92c0.084,0.314,0.422,0.377,0.48,0.72
		C506.337,1141.856,507.183,1141.184,507.48,1139.96z"/>
	<path fill-rule="evenodd" clip-rule="evenodd" d="M499.08,1139.72c0.719,1.211,0.042,0.909,0.96,1.92
		c0.356-0.104-0.095-0.307,0-0.72c0.751,0.129,0.865,0.896,0.96,1.68c-0.739-0.168-0.461-0.168-1.2,0
		c0.226-1.425-1.092-1.308-1.68-1.92c-0.624,0.097-0.724,0.717-1.44,0.721c-0.079,1.519,0.579,2.301,1.44,2.88
		c0.197-0.764,1.497-0.423,1.68-1.2c0.664,4.448-7.268,0.555-3.36-3.12C497.724,1140.347,497.052,1139.416,499.08,1139.72z"/>
	<path fill-rule="evenodd" clip-rule="evenodd" d="M485.64,1146.2c-0.031,0.431,0.293,0.506,0.24,0.96
		c0.482,0.081,0.751-0.049,0.72-0.48c0.806,0.154,0.769,1.151,0.72,2.16c-0.523-0.043-0.763,0.196-0.72,0.72
		c-1.013-0.187-1.535-0.864-2.4-1.199C483.365,1146.587,486.495,1145.68,485.64,1146.2z"/>
	<path fill-rule="evenodd" clip-rule="evenodd" d="M567,1006.76c1.294-0.309,2.486-1.12,3.36,0c-0.727,0.634-2.29,0.43-3.12,0.96
		c0.401,1.998,0.461,4.339,2.88,4.32c0.04,2.12,2.492,1.828,3.12,3.36c0.8-0.417,1.064,0.121,2.16,0
		c1.071,1.125,2.555,1.454,3.6,2.64c1.695,1.926,2.248,4.53,3.6,6.72c1.409,2.282,4.011,2.219,6.24,4.08
		c3.322-0.918,7.086-1.394,8.16-4.56c-0.77-3.551,1.427-4.913,1.92-6.72c0.531-1.947-0.088-4.757-0.479-5.76
		c-1.813-4.633-9.04-5.311-11.761-9.12c-0.977,0.488-4.244,0.427-5.52-0.24c-1.844,0.396-2.854,1.626-4.561,2.16
		c-0.315,1.444-1.926,1.593-2.88,2.4c-0.791-1.021-2.066,0.778-2.399-0.96c-0.229,0.435-0.591,1.112-1.2,0.48
		c0.714-1.301,2.839-0.715,3.36-0.96c2.681-1.258,3.563-3.548,6.239-4.08c1.38-0.274,4.946-0.491,7.2,0.24
		c1.318,0.428,2.713,1.981,4.32,2.88c3.263,1.825,5.619,2.851,7.92,5.52c0.756,1.883,1.066,4.213,1.439,6.48
		c-0.127,1.64-3.298,4.531-2.159,8.16c-0.593,2.681-6.526,5.665-9.841,5.28c-2.276-0.265-4.93-2.881-6.72-4.08
		c-1.85-3.489-2.846-7.481-6.479-9.12c-0.758-0.341-1.771-0.137-2.641-0.48c-2.293-0.905-5.876-4.459-6.24-6
		C566.268,1009.291,566.591,1007.952,567,1006.76z"/>
	<path fill-rule="evenodd" clip-rule="evenodd" d="M618.6,1011.56c0.017,1.904,1.221,2.62,2.16,3.6
		c0.644-3.511-4.488-4.866-3.84-8.16c2.255,2.385,4.918,4.362,5.28,8.64c-0.547,0.333-0.93,0.83-1.44,1.2
		c-2.534-1.866-4.385-4.415-6-7.2c-0.1-1.3,0.519-1.882,0.721-2.88C617.707,1007.248,615.232,1011.409,618.6,1011.56z"/>
	<path fill-rule="evenodd" clip-rule="evenodd" d="M565.8,1019.48c-0.243-0.139-1.109-0.076-1.439-0.72
		c-0.133-0.532,0.458-0.341,0.479-0.72c-0.508-0.649-0.697,0.644-1.439,0c-0.502-1.914-3.575-2.694-2.16-4.56
		c-0.035-0.525-0.604-0.515-1.2-0.48c-0.282-0.998-0.3-2.26-0.48-3.36c0.57-0.2,1.118,1.188,1.2,0c0.807,0.198-0.267,1.544,1.44,1.2
		c-0.007,0.233-0.294,0.187-0.48,0.24c0.711,2.829,4.061,2.924,6.48,4.56c1.423,0.962,2.207,3.015,4.56,3.36
		c0.435,0.926,1.341,1.379,2.4,1.68c0.926,1.954,3.068,2.692,3.12,5.52c-0.32,0-0.641,0-0.96,0c-0.582,2.757-0.528,6.473-0.96,9.84
		c1.056,1.384,0.623,3.171,1.68,4.8c-2.371,3.978,1.959,6.386,1.44,10.32c-1.163-0.117-1.162-1.399-2.16-1.68
		c0.024-0.616,0.894-0.386,1.199-0.72c-3.814-2.864-0.744-8.183-2.88-12c-0.85,0.03-0.397,1.362-0.96,1.68
		c-1.236,0.197-1.832-0.248-2.399-0.72c-0.849,0.17-0.942,2.28-0.96,2.16c0.193,1.287,1.184,1.442,1.92,2.64
		c0.845,1.375,1.421,3.284,2.399,4.56c0.627,0.817,1.377,1.104,1.681,1.92c-3.542-1.106-4.868-6.486-7.681-9.12
		c0.122-1.718,1.072-2.608,1.92-3.6c1.004-0.204,0.95,0.649,1.44,0.96c1.225,0.264,1.214-0.706,1.68-1.2
		c-1.452-2.548-3.32-4.68-5.76-6.24c-0.626-2.155,0.899-3.3,0.72-5.04C569.363,1022.074,565.988,1021.784,565.8,1019.48z
		 M561.72,1013.72c0.626,2.174,2.603,2.998,4.08,4.32c1.826,3.5,7.596,5.525,3.84,10.56c0.63,2.41,4.135,1.945,4.32,4.8
		c0.75,0.291,1.044,1.037,1.92,1.2c-0.508-2.702-0.229-7.184,1.2-9.36c-2.166-4.427-8.681-6.956-11.04-9.6
		C564.764,1016.641,563.294,1013.99,561.72,1013.72z"/>
	<path fill-rule="evenodd" clip-rule="evenodd" d="M541.08,1020.2c-0.976-0.225-0.691-1.708-1.92-1.68
		c-0.837,1.087,0.473,2.079,0.48,3.12c-0.806,0.442-1.762-0.709-1.68-1.92c-1.047,0.073-1.374,0.866-2.4,0.96
		C536.09,1017.844,542.369,1016.343,541.08,1020.2z"/>
	<path fill-rule="evenodd" clip-rule="evenodd" d="M535.8,1031.24c-0.864-0.176-0.188-1.893-0.96-2.16
		c-0.799,0.828-1.662,0.054-2.64-0.24c-0.699,0.341-0.19,1.89-1.44,1.68c0.359,0.56-0.081,1.034,0.24,1.2
		c-0.139,0.582-0.906,0.534-1.44,0.72c-0.883-2.36,1.761-3.171,2.16-5.04c0.995-0.275,0.936,0.505,1.68,0.48
		C535.291,1025.673,536.889,1029.84,535.8,1031.24z"/>
	<path fill-rule="evenodd" clip-rule="evenodd" d="M631.56,1032.92c1.301,1.902,3.303,3.959,2.4,6.72
		c-1.078-1.722-1.057-4.543-2.88-5.52c-1.521,2.221,0.214,4.894-0.48,6.72c-1.394-0.686-1.079-3.08-2.399-3.84
		c-1.154-0.194-0.867,1.053-2.16,0.72c-0.161-1.841,2.558-2.423,3.36-1.2C629.953,1035.153,628.953,1032.233,631.56,1032.92z"/>
	<path fill-rule="evenodd" clip-rule="evenodd" d="M531.96,1037.24c-1.257,0.217-0.903-1.177-2.16-0.96
		c0.338-1.538-0.872-1.528-1.68-1.92c-0.635,0.725-1.246,1.474-1.68,2.4c-0.75-1.219-0.406,0.43-1.2,0.48
		c-0.418-1.896,1.782-3.15,2.88-4.32C529.938,1033.684,532.283,1035.127,531.96,1037.24z"/>
	<path fill-rule="evenodd" clip-rule="evenodd" d="M555.48,1038.92c0.566-0.764,0.154-1.58-0.24-2.88
		c2.069,0.934,1.688,3.288,0.24,4.56c-3.209,0.57-5.382-3.842-2.4-5.76c0.559,0.242,0.773,0.826,0.72,1.68
		c-0.597-0.026-0.743-0.45-1.2,0C552.387,1038.768,554.727,1039.7,555.48,1038.92z"/>
	<path fill-rule="evenodd" clip-rule="evenodd" d="M599.64,1041.56c0.389,2.891-2.046,2.475-2.88,4.56
		c0.367,1.929,2.203,3.148,2.16,5.04c-0.002,0.077-0.619,1.8-0.72,1.92c-0.854,1.008-2.797,1.646-4.08,1.2
		c0.528-1.134,0.661-2.565-0.48-3.12c-1.18,2.128-0.729,6.375-3.12,6.72c-2.165,0.312-1.97-2.031-3.359-3.36
		c1.016-5.04-3.348-7.44-1.44-12.48c1.349-0.332,2.029-1.331,3.601-1.44c0.03,0.43-0.294,0.506-0.24,0.96
		C590.959,1039.259,597.118,1039.616,599.64,1041.56z M593.4,1041.8c-2.972-0.638-5.088-0.205-6.96,1.44
		c-0.602,2.991,1.182,3.97,1.68,5.76c0.924,3.324-0.313,6.666,2.399,7.68c1.016-2.345,1.716-5.004,2.641-7.44
		c1.27,1.05,2.703,1.937,3.12,3.84c2.927-2.731-0.601-5.206-0.721-8.4c1.041-0.56,1.827-1.373,2.641-2.16
		c-0.765-0.916-2.558-0.803-3.12-1.92c-0.014-0.146-0.036-0.284-0.24-0.24C595.098,1041.578,593.304,1040.744,593.4,1041.8z"/>
	<path fill-rule="evenodd" clip-rule="evenodd" d="M609.72,1057.16c-1.285,0.714-0.898-2.075-2.16-2.16
		c-0.732,0.067-0.526,1.073-1.199,1.2C604.605,1052.414,611.529,1052.999,609.72,1057.16z"/>
	<path fill-rule="evenodd" clip-rule="evenodd" d="M624.36,1059.8c1.702,0.174,4.096,1.028,4.319,3.36
		c0.156,1.624-1.363,4.613-3.12,4.32C623.173,1067.081,623.817,1062.232,624.36,1059.8z M624.84,1065.8
		c0.413-0.013,0.615,0.185,0.72,0.48c1.333-0.508,1.969-1.712,1.921-3.6c-0.979-0.301-1.694-0.866-2.641-1.2
		C624.288,1062.408,625.308,1064.475,624.84,1065.8z"/>
	<path fill-rule="evenodd" clip-rule="evenodd" fill="#FFFFFF" d="M633.24,1085c-2.465,1.004-6.021-0.143-9.36,0.24
		c-1.917,1.26-4.097,3.552-6.96,3.359c-2.822-0.188-3.001-2.882-3.6-5.039c0.615-0.638,0.386,0.419,0.72,0.72
		c0.473-0.407,0.644-1.116,0.72-1.92c1.767-0.424,2.12-3.44,4.32-2.641c0.443-1.236,2.898-0.461,3.84-1.2
		C626.45,1080.59,629.086,1083.554,633.24,1085z"/>
	<path fill-rule="evenodd" clip-rule="evenodd" d="M486.36,1134.92c0.102,0.502-0.165,0.636-0.24,0.96
		c1.161-0.095-0.056-1.176,0.24-1.92c0.817,0.439,0.058,1.271,1.44,0.479c0.917,2.038-1.405,2.913-2.88,2.641
		C484.722,1135.626,485.26,1134.369,486.36,1134.92z"/>
	<path fill-rule="evenodd" clip-rule="evenodd" fill="#FFFFFF" d="M583.56,1134.68c1.434,6.68,2.526,9.919,3.36,16.801
		c1.926,6.361,4.966,11.863,9.84,15.84c-0.19,0.635-1.128-0.537-1.2,0.479c-1.923-1.356-4.835-1.725-7.199-2.64
		c-1.93-1.797-2.43-4.593-4.08-6.48c-1.836-2.098-4.915-3.031-5.761-6c-1.571-1.228-3.136-2.463-4.319-4.08
		c-4.09-0.818-8.741-1.474-11.521,1.2c-3.262,0.545-6.287,1.291-8.88,3.36c-0.486,0.389-0.699,1.066-1.2,1.439
		c-1.368,1.022-3.103,1.289-4.08,2.16c-1.947,1.736-2.779,4.632-4.319,6.721c1.306,1.978,0.324,3.661,0.96,6.239
		c-3.597-5.31-6.765-15.363-8.4-23.04c-0.423-1.985-0.476-3.672,0-5.76c-0.334-0.306-0.104-1.176-0.72-1.2
		c0.999-3.238,1.198-6.337,4.8-5.76c-1.232-0.714,0.867-0.422,1.68-0.479c-0.104-0.296-0.307-0.493-0.72-0.48
		c1.712-0.206,3.243-0.24,5.28-0.48c0.288,0.315,0.094,0.378,0,0.721c6.221-0.943,13.516-0.88,19.92,0.72
		c0.245,0.062,0.312,0.683,0.48,0.72c0.341,0.076,0.858-0.279,1.199-0.24c2.372,0.273,4.829,2.24,6.721,0.721
		c-0.046,0.194-0.241,0.239-0.24,0.479C576.758,1134.873,580.502,1135.241,583.56,1134.68z"/>
</g>
</svg>
