<?xml version="1.0" encoding="utf-8"?>
<!-- Generator: Adobe Illustrator 15.0.0, SVG Export Plug-In . SVG Version: 6.00 Build 0)  -->
<!DOCTYPE svg PUBLIC "-//W3C//DTD SVG 1.1//EN" "http://www.w3.org/Graphics/SVG/1.1/DTD/svg11.dtd">
<svg version="1.1" id="Capa_1" xmlns="http://www.w3.org/2000/svg" xmlns:xlink="http://www.w3.org/1999/xlink" x="0px" y="0px"
	 width="301.25px" height="140px" viewBox="0 0 301.25 140" enable-background="new 0 0 301.25 140" xml:space="preserve">
<path fill-rule="evenodd" clip-rule="evenodd" d="M272.65,35c-0.036,0.524-0.605,0.515-1.2,0.48
	C271.653,35.123,272.223,35.133,272.65,35z"/>
<path fill-rule="evenodd" clip-rule="evenodd" d="M273.85,35C273.323,35.733,272.312,34.723,273.85,35L273.85,35z"/>
<path fill-rule="evenodd" clip-rule="evenodd" d="M270.25,35.48c-0.421,0.379-1.278,0.321-1.92,0.48
	C268.384,35.213,269.524,35.555,270.25,35.48z"/>
<path fill-rule="evenodd" clip-rule="evenodd" d="M267.37,35.72c-0.296,0.905-2.16,0.241-2.64,0.96
	C264.296,35.995,266.27,35.668,267.37,35.72z"/>
<path fill-rule="evenodd" clip-rule="evenodd" d="M287.05,37.16c0.247,0.806-0.746,0.374-1.2,0.48
	C286.054,37.284,286.454,37.124,287.05,37.16z"/>
<path fill-rule="evenodd" clip-rule="evenodd" d="M285.37,37.64c-0.035,0.524-0.604,0.515-1.2,0.48
	C284.374,37.764,284.774,37.604,285.37,37.64z"/>
<path fill-rule="evenodd" clip-rule="evenodd" d="M283.93,38.12c-0.453,0.427-0.969,0.791-1.92,0.72
	C282.417,38.367,283.126,38.196,283.93,38.12z"/>
<path fill-rule="evenodd" clip-rule="evenodd" d="M281.53,38.6c0.694,0.332-0.403,0.849-0.96,0.72
	C280.186,38.375,281.606,39.236,281.53,38.6z"/>
<path fill-rule="evenodd" clip-rule="evenodd" d="M280.33,39.08c-3.457,1.153-8.642,1.416-12,1.92c0.169-0.941,1.331-0.39,1.92-0.48
	C272.956,40.106,277.049,39.438,280.33,39.08z"/>
<path fill-rule="evenodd" clip-rule="evenodd" d="M125.77,39.32C126.596,39.94,124.536,39.9,125.77,39.32L125.77,39.32z"/>
<path fill-rule="evenodd" clip-rule="evenodd" d="M126.49,39.56c0.03-0.53,1.018-0.102,1.44-0.24
	C127.9,39.85,126.912,39.422,126.49,39.56z"/>
<path fill-rule="evenodd" clip-rule="evenodd" d="M265.69,40.76c-0.829,1.009-2.457,0.599-3.841,0.72
	c-1.713,0.151-3.611,0.56-5.279,0.48C259.89,40.849,262.826,41.57,265.69,40.76z"/>
<path fill-rule="evenodd" clip-rule="evenodd" d="M267.85,40.76C266.132,41.477,265.095,40.492,267.85,40.76L267.85,40.76z"/>
<path fill-rule="evenodd" clip-rule="evenodd" d="M43.93,42.68c0.945-0.298,2.095,1.26,3.12,1.68
	C46.105,44.658,44.955,43.1,43.93,42.68z"/>
<path fill-rule="evenodd" clip-rule="evenodd" d="M135.13,42.92c-0.663,0.537-1.902,0.498-3.12,0.48
	C132.765,42.955,133.897,42.887,135.13,42.92z"/>
<path fill-rule="evenodd" clip-rule="evenodd" d="M104.41,43.16c-2.397,0.722-4.594,1.646-7.2,2.16
	C99.347,44.337,101.539,43.408,104.41,43.16z"/>
<path fill-rule="evenodd" clip-rule="evenodd" d="M130.09,43.16c-0.755,0.444-1.887,0.513-3.12,0.48
	C126.085,43.366,129.226,43.255,130.09,43.16z"/>
<path fill-rule="evenodd" clip-rule="evenodd" d="M130.33,43.4c0.03-0.53,1.018-0.102,1.44-0.24
	C131.74,43.69,130.752,43.262,130.33,43.4z"/>
<path fill-rule="evenodd" clip-rule="evenodd" d="M126.25,43.88c-1-0.196-2.003,0.327-2.4,0
	C124.747,43.657,126.054,43.023,126.25,43.88z"/>
<path fill-rule="evenodd" clip-rule="evenodd" d="M121.45,44.12c1.33-0.485,2.843-0.171,1.2,0
	C122.114,44.176,122.077,44.526,121.45,44.12z"/>
<path fill-rule="evenodd" clip-rule="evenodd" d="M116.17,44.6c-1.02-0.845,6.933-0.417,3.36-0.24c-0.24,0-0.48,0-0.72,0
	C117.968,44.479,117.248,44.718,116.17,44.6z"/>
<path fill-rule="evenodd" clip-rule="evenodd" d="M110.65,44.84c1.249-0.511,3.018-0.502,4.8-0.48c0.272,0.046,0.133,0.241,0,0.24
	C113.272,44.526,112.93,44.912,110.65,44.84z"/>
<path fill-rule="evenodd" clip-rule="evenodd" d="M108.97,45.08c-0.041-0.521,0.851-0.109,1.2-0.24
	C110.21,45.36,109.319,44.949,108.97,45.08z"/>
<path fill-rule="evenodd" clip-rule="evenodd" d="M108.25,45.08C106.979,45.815,105.945,44.781,108.25,45.08L108.25,45.08z"/>
<path fill-rule="evenodd" clip-rule="evenodd" d="M161.29,45.56c0.15-0.513,1.478-0.225,1.68,0
	C162.606,46.286,161.917,45.361,161.29,45.56z"/>
<path fill-rule="evenodd" clip-rule="evenodd" d="M100.33,46.28c-1.721,0.839-4.029,1.091-6.48,1.2
	c-0.341,0.021-0.68,0.04-0.72-0.24c0.32,0,0.64,0,0.96,0C95.71,47.132,98.12,46.513,100.33,46.28z"/>
<path fill-rule="evenodd" clip-rule="evenodd" d="M74.89,61.64c-2.288-0.206-8.069-1.284-10.32,0.48
	c-0.358-0.839,1.155-0.752,1.92-0.96C68.66,60.571,72.696,60.608,74.89,61.64z"/>
<path fill-rule="evenodd" clip-rule="evenodd" d="M72.73,67.16c0.431-0.031,0.506,0.293,0.96,0.24
	C73.767,67.824,72.346,67.828,72.73,67.16z"/>
<path fill-rule="evenodd" clip-rule="evenodd" d="M61.93,69.32C61.403,70.053,60.393,69.043,61.93,69.32L61.93,69.32z"/>
<path fill-rule="evenodd" clip-rule="evenodd" d="M72.73,73.64c1.573,0.428,3.005,0.995,4.8,1.2
	C76.139,75.187,73.552,74.661,72.73,73.64z"/>
<path fill-rule="evenodd" clip-rule="evenodd" d="M87.61,82.76c-4.208,0.049-7.654-0.666-11.04-1.439
	c1.811,4.505,3.529,8.843,5.76,12.72c3.854,6.696,8.252,12.358,13.92,17.521c2.312,2.104,4.835,4.258,7.2,5.76
	c5.279,3.352,9.974,7.34,15.12,10.8c-1.782-0.282-3.142-1.783-4.56-2.88c-1.448-1.12-3.08-2.178-4.56-3.36
	c-2.969-2.373-6.395-4.148-9.36-6.479c-3.278-2.578-5.822-5.854-8.88-8.4c5.796,7.484,13.102,15.537,19.92,22.8
	c-1.201-0.042-1.691-1.412-2.4-2.16c-5.334-5.628-11.069-12.237-16.32-18.239c4.922,7.157,9.84,14.319,15.36,20.88
	c-4.725-4.521-8.407-10.184-12.24-15.601c-3.863-5.458-7.291-11.258-11.28-16.56c-1.52,2.396-2.506,5.171-3.84,7.68
	c-0.878,1.652-1.768,3.526-3.36,4.561c-4.682,3.04-13.392,1.507-19.44,0.239c-1.183-4.764-4.145-9.202-3.84-14.399
	c0.2-3.403,1.844-7.087,2.88-10.32c1.125-3.509,2.258-6.815,3.6-9.6c-1.171-1.31-2.786-2.175-4.32-3.12
	c-1.203-1.549-2.433-2.94-3.6-4.56c-1.111-1.542-2.688-2.751-3.84-4.32c-3.038-4.137-2.543-9.891-3.12-16.8
	c-2.286-0.777-4.763-1.827-7.2-2.16c-0.701-0.096-1.516,0.152-2.16,0c-0.926-0.218-1.71-0.992-2.64-1.2
	c-1.581-0.354-3.342-0.317-5.04-0.72c-1.615-0.383-3.308-0.613-4.8-1.2c-1.338-0.527-2.57-1.562-3.84-2.16
	c-2.548-1.2-5.022-2.598-7.92-3.6c-1.311-0.454-3.04-0.475-4.08-1.68c6.537,1.267,11.777,5.683,18,7.68
	c2.232,0.717,4.551,0.67,7.2,1.2c1.508,0.302,2.975,1.134,4.56,1.44c4.735,0.914,9.418,2.323,14.4,3.12
	c-0.13-1.18-0.682-2.688-1.44-4.32c-0.68-1.464-1.479-3.07-1.92-4.56c-3.178-2.662-8.673-3.007-12.96-4.56
	c1.883,2.278,5.267,5.133,8.16,7.2c-2.069-0.431-3.265-2.263-4.8-3.6c-1.423-1.239-3.029-3.164-4.8-4.08
	c-2.677-1.385-6.558-1.775-10.08-2.64c-1.68-0.413-3.32-0.783-5.04-1.2c-1.79-0.434-3.602-0.585-5.28-0.96
	c-0.75-0.167-1.406-0.771-2.16-0.96c-2.448-0.613-4.579-0.696-6.48-1.92c1.025-0.69,2.66,0.854,3.84,1.2
	c2.421,0.709,5.015,0.938,7.68,1.44c2.363,0.445,4.803,1.331,7.2,1.92c2.466,0.605,5.012,0.987,7.44,1.68
	c2.323,0.663,4.472,1.817,6.72,2.4c3.721,0.964,7.548,1.21,10.56,3.36c2.048-1.222,3.281-3.104,6-3.36
	c3.795-0.357,6.344,2.463,7.92,5.04c2.023,0.205,3.941,1.427,6,1.439c3.432,0.022,6.161-1.824,9.6-1.439
	c0.968,0.108,2.079,0.868,3.12,0.96c1.202,0.105,2.672-0.553,4.08-0.48c1.049,0.054,2.169,0.717,3.12,0.72
	c2.284,0.007,4.587-1.488,6.96-1.92c5.141-0.937,10.31-0.093,16.08-0.48c7.992-0.536,15.941-3.024,24.24-2.4
	c-1.717,0.967-3.675,0.365-5.52,0.48c-3.187,0.198-6.47,0.604-9.6,0.96c-3.095,0.353-6.069,1.218-9.12,1.44
	c-2.643,0.192-5.317-0.308-7.92-0.24c-5.372,0.139-10.322,1.519-15.12,2.64c-0.742,1.578-1.374,3.266-2.16,4.8
	c3.438-0.642,7.699-0.461,10.56-1.68c0.083,0.773-1.417,0.776-2.16,0.96c-0.943,0.233-1.89,0.372-2.88,0.48
	c-2.17,0.236-4.596,0.157-6,0.96c2.374,0.41,3.448-0.128,6.48,0c-1.741,0.739-4.73,0.229-6.72,0.72
	c0.141,0.861-0.279,1.161-0.48,1.68c2.468,0.362,4.898-0.524,7.44-0.72c7.386-0.569,15.146-0.069,22.56-0.48
	c6.258-0.347,12.275-1.526,18.72-2.16c-0.702,0.801-1.939,0.592-2.88,0.72c-5.979,0.813-12.774,1.948-19.92,2.16
	c-7.658,0.227-16.148-0.304-23.04,0.96c-0.983,1.817-1.21,4.39-1.92,6.48c0.292,0.348,0.958,0.322,0.96,0.96
	c0.242,2.341,1.275,3.746,1.44,5.76c0.148,1.815-0.558,3.326-0.72,5.04c-0.152,1.613,0.197,3.436,0.24,5.28
	c0.074,3.131-0.323,6.569,0.24,8.88c0.264,1.081,1.213,2.222,1.68,3.36c0.536,1.307,0.736,2.812,1.2,3.84
	c1.542,3.419,4.085,6.503,6.24,9.84c2.034,3.15,4.838,6.205,7.2,8.88c5.06,5.73,10.73,10.932,15.84,16.08
	c-1.569-0.094-2.238-1.688-3.12-2.64c-4.93-5.327-11.177-10.748-16.08-16.8c-1.266-1.563-2.856-3.132-3.84-4.561
	c-0.568-0.825-0.803-1.931-1.44-2.88c-1.099-1.636-2.45-3.091-3.6-5.04C90.418,89.87,89.505,86.304,87.61,82.76z M55.21,47.24
	c1.553,1.58,5.595,4.009,7.44,5.04c1.789,0.999,3.959-0.193,6-0.48c-4.376-1.765-6.787-6.242-8.4-10.8
	c-0.742-2.097-0.933-4.341-2.64-5.04c-1.123-0.46-3.115-0.312-4.56,0.24c-0.137,0.716,0.906,1.469,0.48,1.68
	c-0.644-0.315-0.479-1.441-1.44-1.44c-0.883,0.557-1.833,1.047-2.16,2.16C51.71,40.787,52.682,44.667,55.21,47.24z M59.05,50.12
	c-1.644-1.021-2.989-1.665-4.32-3.12c-2.238-2.448-3.317-5.52-5.28-8.4c-0.879,1.842,1.262,4.38,1.92,6.24
	c0.07,0.5,0.649-0.356,0.72,0.48c2.002,3.918,5.524,6.316,8.64,9.12c0.538-0.743,1.588-0.972,2.64-1.2
	C62.083,51.992,60.479,51.007,59.05,50.12z M65.29,48.68c-2.954-2.407-2.166-9.834-5.76-10.8
	C61.356,41.415,62.318,47.091,65.29,48.68z M66.97,49.88c0.033-0.847,0.687-1.073,0.72-1.92c-0.425-0.055-1.202,0.242-0.96-0.48
	c0.865,0.065,1.66,0.06,1.44-0.96c-1.331-0.029-2.919,0.2-3.36-0.72c1.255,0.105,2.103,0.618,3.6,0.48
	c0.019-1.489,0.493-2.737,0-4.08c-2.215-0.186-3.815-0.985-5.76-1.44C63.637,44.253,64.278,48.092,66.97,49.88z M68.89,42.2
	c0.716,3.145-0.592,6.05-1.68,8.16c1.135,1.729,3.2,1.175,4.8,1.92c1.381,0.644,2.113,2.431,2.88,3.84
	c1.043,1.916,1.449,2.627,1.2,5.28c5.086-4.587,9.173-12.105,11.52-19.68c-2.002-0.718-4.476-0.309-6.72,0
	c-1.479,4.55-2.927,10.568-5.52,13.2c2.324-3.916,3.717-8.763,5.28-13.44C77.066,39.994,72.29,41.355,68.89,42.2z M58.33,55.88
	c0.438-0.682,1.54-0.7,1.92-1.44c-1.068-1.437-2.92-2.019-4.32-3.36c-1.715-1.643-2.77-4.134-4.32-5.28
	C53.377,49.633,56.137,52.473,58.33,55.88z M54.49,60.2c-0.241-1.681,1.298-1.582,1.2-3.12c-1.237-3.003-2.354-6.125-4.32-8.4
	c-2.062-0.098-3.503-0.817-5.28-1.2c-0.222,6.097,0.307,12.78,2.88,16.8c3.532,2.19,4.373,6.279,7.68,8.88
	c0.72,0.566,1.791,1.033,2.64,1.68c2.208,1.681,3.884,2.467,6.72,3.6c4.342,1.734,9.622,2.529,14.64,3.36
	c2.243,0.371,4.642,0.78,6.96,0.24c-0.414-1.349,0.018-3.913-0.48-5.76c-1.458,0.274-2.985,0.344-4.32,0.239
	c-1.258-0.098-3.678-0.489-4.56-1.439c2.167,0.994,6.186,1.276,9.12,0.72c-0.004-3.083,0.004-4.702-0.48-7.2
	c-3.654,1.051-9.695,0.302-12.96-1.2c3.901,0.933,8.682,1.602,13.44,0.96c1.13-3.958-0.285-7.32-0.96-10.8
	c-1.363-0.003-1.42,1.3-2.4,1.68c-1.706,1.334-4.013,1.948-6.48,2.88c-2.185,0.825-4.49,2.177-6.96,2.4
	c-2.672,0.241-5.958-0.611-8.64-0.48c0.854,0.272,2.821,0.689,2.64,1.2c-2.496-0.227-4.386-2.211-6.48-2.88
	c-0.625-0.2-1.369,0.011-1.92-0.24c-1.977-0.901-3.474-2.898-4.8-4.56c-1.46-1.829-3.15-3.609-3.84-5.76
	C49.703,54.747,51.632,57.938,54.49,60.2z M56.17,57.32c0.508-0.292,0.697-0.903,1.44-0.96c-1.278-3.122-3.191-5.609-5.52-7.68
	C53.673,51.337,55.125,54.125,56.17,57.32z M84.73,50.6c-2.098,4.222-5.74,8.179-7.92,11.52c3.613-3.747,8.354-6.366,10.32-11.76
	C86.082,50.192,85.778,50.768,84.73,50.6z M71.29,52.52c-6.59-0.422-10.296,1.865-13.68,4.32c-1.309,0.95-2.89,2.062-2.64,3.84
	c4.651,2.887,14.418,4.667,20.4,1.92C76.421,57.76,73.96,54.431,71.29,52.52z M78.25,61.64c3.508-1.612,8.408-3.112,7.68-8.16
	C83.885,56.555,80.081,59.15,78.25,61.64z M56.89,86.36c-1.505,4.563-3.563,9.367-1.92,13.92c2.429-8.69,7.833-14.407,12.48-20.88
	c-2.522-0.758-4.737-1.823-6.96-2.881C59.314,79.563,58.073,82.772,56.89,86.36z M68.17,79.64c-0.386,0.053-0.553,0.494-0.72,0.721
	c-1.552,2.096-7.304,7.817-7.44,10.8c-0.103,2.259,2.356,5.222,3.6,6.96c0.93,1.299,2.35,3.533,3.36,4.56
	c0.667,0.678,0.486,0.685,1.44,0.721c1.7,0.063,4.521-3.741,5.52-6.48c1.906-5.224-0.208-11.083-0.48-16.08
	C71.835,80.295,69.595,80.375,68.17,79.64z M75.13,94.76c0.55-2.784,3.649-4.217,3.6-6.96c-0.037-2.049-2.67-4.661-2.88-6.72
	c-0.825,0.105-1.345-0.095-1.92-0.24C74.665,85.165,75.116,90.439,75.13,94.76z M76.09,93.32c-2.345,4.027-4.246,10.802-8.88,11.04
	c-2.714,0.935-5.268,2.736-7.2,4.319c-0.594,0.487-2.009,0.91-1.68,1.92c6.473,0.505,14.266,2.416,18.72-0.72
	c3.666-2.58,4.303-8.641,6.96-12.479c-2.117-2.522-3.506-5.774-5.04-8.881C78.385,90.558,77.203,91.408,76.09,93.32z M55.21,101.48
	c-0.011,3.045,2.064,5.366,2.4,8.399c2.963-2.156,5.559-4.681,9.6-5.76c-2.431-4.529-6.444-7.477-7.68-13.2
	C58.24,94.115,55.225,97.469,55.21,101.48z"/>
<path fill-rule="evenodd" clip-rule="evenodd" d="M251.05,40.04c2.487,0.252,4.045-1.954,6-2.4c3.707-0.847,6.836-2.275,10.561-3.36
	c8.798-2.563,18.619-4.828,26.88-6.96c-0.954,1.048-2.552,1.125-3.84,1.44c-9.146,2.232-19.264,4.755-28.08,7.68
	c0.18,0.779,1.866-0.905,1.68,0.24c-5.517,0.163-8.521,2.838-13.2,3.84c0.023,2.537,3.546,1.559,5.28,1.2
	c-0.705,0.975-2.482,0.878-4.08,0.96c-0.16,0.728,0.542,2.652,0.96,3.6c4.639-0.517,11.246-1.048,16.08-2.16
	c-0.879,0.893-2.375,1.004-3.6,1.2c-4.3,0.689-8.118,0.941-12.24,1.2c-0.159,1.119,0.378,1.542,0.479,2.4
	c14.284-3.957,28.967-7.514,40.561-14.16c-10.794,7.446-26.284,10.196-40.08,14.64c-0.083,5.835-0.008,10.67-2.16,14.64
	c-0.929,1.713-2.989,3.52-4.56,5.28c-2.634,2.95-4.601,5.412-7.921,7.439c2.85,6.271,4.641,13.601,6.24,21.12
	c-1.553,4.082-0.86,9.348-3.6,12.48c-1.707,1.951-6.128,3.359-10.08,3.359c-2.374,0-5.61-0.357-7.44-0.96
	c-1.555-0.512-2.77-1.998-4.319-1.68c-1.138-4.702-3.42-8.26-4.561-12.96c-1.938,2.715-3.48,5.574-5.279,8.399
	c-1.748,2.744-4.053,5.107-6,7.681c-1.983,2.619-3.633,5.465-5.761,7.92c-2.128,2.456-4.275,4.806-6.96,6.72
	c9.053-9.188,16.84-19.64,23.521-31.2c-0.814-4.146-3.283-9.106-1.681-13.439c-1.066,0.104-0.854,1.381-1.199,2.16
	c-0.352,0.794-1.043,1.552-1.2,2.64c-0.351,2.429,0.891,4.982,0.479,6.96c-0.463,2.23-3.438,5.29-5.04,6.96
	c-2.105,2.195-4.082,4.703-5.52,6.48c-3.732,4.613-8.461,8.422-11.76,12.239c-2.519,2.914-4.253,6.254-6.96,8.641
	c5.382-7.948,13.843-15.714,20.64-23.761c0.933-1.104,1.779-1.967,2.88-3.119c1.507-1.579,5.228-5.668,5.521-8.16
	c0.204-1.743-0.795-3.56-0.721-5.28c0.098-2.26,1.308-3.612,1.92-5.76c-1.19,1.874-2.171,3.74-2.399,6
	c-0.121,1.196,0.393,2.43,0.24,3.6c-0.327,2.501-3.539,4.985-5.28,6.96c-2.165,2.456-3.475,5.255-5.04,7.2
	c-2.729,3.391-7.162,7.022-10.561,10.08c-3.791,3.411-7.626,6.5-10.56,10.08c2.271-3.853,6.347-6.722,10.08-10.08
	c2.627-2.363,5.303-5.017,7.92-7.68c0.833-0.848,1.949-1.566,2.64-2.4c1.632-1.968,2.832-4.425,5.04-6.96
	c1.565-1.797,4.905-4.69,5.28-6.72c0.225-1.216-0.33-2.423-0.24-3.601c0.123-1.596,0.748-2.751,1.2-4.319
	c-1.669,1.687-1.156,4.553-2.4,6.72c-0.886,1.545-2.734,2.815-4.079,4.32c-2.58,2.886-4.656,6.253-7.2,9.359
	c-1.304,1.592-2.38,3.229-3.601,4.561c-1.195,1.304-2.791,2.319-4.08,3.6c-3.185,3.164-6.205,6.502-9.6,9.6
	c-0.286,0.262-1.53,1.92-1.92,0.961c2.687-2.224,5.336-4.856,8.16-7.681c2.541-2.542,5.481-5.032,7.92-7.92
	c3.451-4.087,6.723-8.991,10.56-13.2c1.308-1.434,2.952-2.734,3.601-4.08c0.552-1.145,0.415-2.798,0.96-4.319
	c0.59-1.651,1.973-2.979,2.16-4.32c0.179-1.286-0.308-3.04-0.24-4.56c0.131-2.989,1.074-5.951,0.72-9.601
	c-0.089-0.914-0.631-1.752-0.72-2.64c-0.289-2.878,1.229-5.572,1.2-8.64c0.196-0.763,0.7-1.22,1.199-1.68
	c-0.502-1.738-0.862-3.618-1.199-5.52c-6.363,0.114-12.536-0.147-18.48-0.72c-1.917-0.185-3.882-0.624-5.76-0.72
	c-2.861-0.146-5.625,0.226-8.4,0c-3.529-0.287-7.164-1.672-10.8-1.92c-1.831-0.125-3.688,0.015-5.52-0.24
	c-0.476-0.066-1.656,0.118-1.681-0.72c2.1,0.538,4.139,0.125,6.24,0.24c3.93,0.215,7.674,1.837,11.52,2.16
	c3.526,0.295,7.332-0.331,11.04,0c0.554,0.049,1.132,0.388,1.681,0.48c6.11,1.028,12.357-0.448,18.96-0.48
	c0.143-0.315-0.515-1.876-0.24-3.12c-5.81-1.707-11.697,1.135-17.76,1.68c-2.627,0.236-5.624,0.009-8.4,0
	c-2.886-0.01-5.7,0.181-8.399,0c-2.671-0.179-5.108-1.006-7.681-1.44c-1.974-0.333-3.959,0.154-5.76-0.72
	c6.832,0.331,18.273,3.056,28.08,1.44c6.569-1.083,12.59-3.407,19.44-3.36c0.016,0,0.941,0.474,0.72-0.24
	c0.192-0.884-1.652-0.701-2.88-0.96c-1.788-0.378-3.452-1.032-5.761-1.2c-5.292-0.385-11.343,0.261-17.279,0
	c-5.706-0.251-13.331-0.586-18.721-1.44c-0.562-0.089-1.366-0.169-1.92-0.24c-0.486-0.062-1.595,0.427-1.68-0.48
	c6.622,1.141,15.025,1.229,22.8,1.68c-5.604-1.776-12.509-2.561-18.72-3.36c-1.316-0.169-3.087,0.218-4.08-0.96
	c5.692,1.038,11.443,1.094,17.28,2.16c1.944,0.355,4.042,0.815,6.479,1.44c0.562,0.144,1.125,0.632,1.681,0.72
	c4.262,0.675,9.451-0.373,14.159,0c3.2,0.253,6.296,1.613,9.12,1.68c1.266,0.03,2.571-0.542,3.84-0.48
	c0.797,0.039,1.571,0.513,2.4,0.48c2.88-0.115,6.426-2.708,9.36,0.24c4.01,0.001,7.866,0.314,10.56-1.92
	c0.021-0.393-0.399-1.044,0-0.48c1.174-1.147,2.787-1.853,3.601-3.36C245.33,35.684,249.462,36.936,251.05,40.04z M253.21,59
	c0.135-2.367-1.281-6.396-1.92-9.12c-0.824-3.519-0.944-6.925-1.68-9.36c-1.174-3.885-4.824-4.217-8.16-2.64
	c0.947,4.079,1.533,7.731,1.92,11.52c0.149,1.464,0.102,3.122,0.479,4.56c1.001,3.804,3.869,7.033,4.32,10.56
	c0.169,1.321-0.218,2.523,0,3.6C249.701,65.939,252.969,63.227,253.21,59z M250.33,43.64c0.738,4.731,2.367,9.61,3.36,13.92
	c-0.063-2.52,0.655-5.029,0.239-7.68c-0.232-1.484-1.423-3.328-1.92-5.04c-0.769-2.649-1.281-5.161-2.88-6
	C250.228,40.022,250.05,41.846,250.33,43.64z M240.73,39.08c-0.894,0.655-3.356,1.933-2.4,2.88c1.601-0.715,3.223,0.613,3.84,1.68
	C241.788,42.021,241.949,39.861,240.73,39.08z M220.09,42.68c-1.514,4.327-2.831,8.849-3.6,13.92c3.977-0.664,6.78-2.5,9.84-4.08
	c0.981-3.579,4.477-4.643,4.56-9.12c-0.851-0.348-2.509-0.348-3.359,0c-0.655,1.585,0.096,4.576-1.2,5.52
	c0.266-1.894,0.598-3.722,0.72-5.76C225.326,41.881,222.271,41.736,220.09,42.68z M240.97,42.68c-2.195-0.306-4.87-1.031-6.239,0.72
	c2.513,0.847,4.808,1.913,7.439,2.64c-4.562,0.1-6.162-3.279-10.8-2.4c-0.183,1.817-0.817,3.183-1.44,4.56
	c3.848,1.454,7.231,4.307,12.96,3.12C242.905,47.785,242.528,44.642,240.97,42.68z M214.33,42.92
	c-1.061,3.184-1.441,8.471-0.72,11.76c0.188,0.862,0.491,2.144,1.199,2.4c1.56-0.233,1.664-2.13,1.921-3.36
	c0.834-4.001,1.542-7.639,2.64-10.56c0.133,0,0.272-0.194,0-0.24C217.901,43.663,216.095,42.68,214.33,42.92z M211.93,43.4
	c-0.29,2.709-0.49,5.657,0.96,7.2c-0.037-2.758,0.244-5.196,0.721-7.44C212.973,43.163,212.239,43.069,211.93,43.4z M201.37,45.56
	c-2.419,0.54-4.677,0.656-6.96,1.2c-0.558,0.133-1.663,0.215-1.92,0.96c4.208-0.317,9.176-2.281,13.68-2.4
	c1.652-0.043,5.276,1.45,5.28-0.72C207.829,43.934,204.403,44.883,201.37,45.56z M233.77,50.36c-1.384-0.593-2.711-1.366-4.079-1.68
	c-0.014-0.146-0.036-0.284-0.24-0.24c-0.554,1.046-1.724,1.476-1.92,2.88c3.022,0.787,6.555,0.913,9.359,0.72
	C236.224,51.067,234.877,50.834,233.77,50.36z M212.41,50.6c-0.399-1.737-2.818-0.186-4.08-0.72c-0.317,0.003-0.22,0.421-0.48,0.48
	c-2.271-0.589-5.146,0.291-7.68,0.24c0.001-0.133-0.194-0.272-0.24,0C204.203,51.218,208.667,50.528,212.41,50.6z M237.85,52.28
	c0,0.479,0,0.96,0,1.439c2.437,0.294,3.084,0.294,5.521,0c-0.146-0.575-0.345-1.095-0.24-1.92
	C241.498,52.116,238.826,52.029,237.85,52.28z M223.69,61.64c0.334-0.891,0.053-1.956,0.239-2.64c0.81-2.961,3.831-3.958,3.601-6.96
	c-3.684,2.796-8.056,4.904-13.92,5.52c-0.568,3.279-2.218,7.469-1.2,10.8c1.377-0.223,2.162-1.038,3.6-1.2
	c-0.761,1.079-2.724,0.956-3.6,1.92c1.003,1.68,0,4.766-0.24,6.72c1.301,0.418,2.357-0.197,3.12,0.48
	c-1.223,0.228-1.897,0.228-3.12,0c-0.04,2.306-0.624,5.261,0,7.439c0.859-0.02,1.387-0.373,2.16-0.479
	c1.859-4.42,3.442-9.331,5.76-12.96c0.745-1.167,2.282-2.071,2.16-3.6c-2.631,2.649-4.989,5.571-6.96,8.88
	c0.493-1.845,1.226-2.479,2.16-3.841c0.499-0.727,0.949-1.818,1.439-2.399c0.932-1.105,2.45-1.822,3.36-2.88
	c0.688-0.799,1.771-2.236,1.2-3.6c-1.131,1.191-3.306,2.612-4.32,3.12C220.195,64.253,222.85,63.877,223.69,61.64z M228.01,53.96
	c1.57-2.063,4.264,0.077,6.721,0c0.624-0.02,2.595,0.151,2.399-1.2c-2.022-0.47-5.857,0.118-8.64-0.72
	C228.514,52.72,227.539,53.627,228.01,53.96z M232.57,54.92c-0.258-0.141,0.041,0.102,0.239,0.24
	c2.929,2.042,7.188,3.694,10.801,5.76c0.318-1.157-1.073-1.501-1.681-1.92c-0.767-0.528-1.643-0.931-2.399-1.44
	c-1.247-0.837-3.284-2.707-4.561-3.12c-0.754-0.244-1.368,0.151-2.16,0c-0.06-0.011-0.131-0.403-0.479-0.48
	c-0.919-0.203-1.986-0.04-2.88-0.48C230.073,54.307,231.754,54.473,232.57,54.92z M228.49,54.2c-2.524,1.503-5.185,5.066-3.84,8.88
	c2.402-1.502,5.814-1.862,9.119-1.44c3.684,0.471,6.47,3.448,8.881,4.56c0.628-1.372,1.26-2.74,1.199-4.8
	C238.407,59.323,234.57,55.64,228.49,54.2z M239.53,54.2c-1.979,0.016-2.933,0.062-3.84,0.24
	C236.427,55.271,238.889,54.924,239.53,54.2z M243.61,54.44c-2.021-0.628-3.813,0.745-6,0.72c1.831,1.921,3.609,2.916,6.239,4.32
	C243.858,57.291,244.675,55.987,243.61,54.44z M244.09,64.52c-0.229,0.798-1.016,1.545-1.2,2.4c-0.249,1.155,0.245,2.496-0.239,3.6
	c-0.866,0.766-1.364,1.815-2.16,2.641c-0.787,0.816-2.165,1.328-2.4,2.64c2.008,1.298,3.874-1.067,5.28-2.399
	c1.627-1.543,3.247-3.31,4.32-4.8c0-1.6,0-3.2,0-4.8c-1.396-1.885-1.562-4.998-3.12-6.72C244.079,59.584,244.81,62.016,244.09,64.52
	z M225.61,63.08c1.345,0.341,2.974,0.974,3.84,1.44c2.749,1.48,9.166,3.665,12.24,1.68C237.794,62.781,231.259,60.401,225.61,63.08z
	 M223.93,65c0.014,0.146,0.036,0.284,0.24,0.24c0-0.24,0-0.48,0-0.72c0.444,0.036,0.147,0.812,0.48,0.96
	c2.79,0.01,4.602,0.999,6,2.4c3.006-0.396,4.712,3.407,6.239,3.601c1.798,0.227,3.79-1.769,3.601-3.84
	c-4.612-0.046-7.81-1.18-10.561-2.4c-1.575-0.699-3.507-2.104-5.76-1.44C224.368,64.479,223.832,64.422,223.93,65z M223.69,65.72
	c-2.052,3.022-3.721,5.934-5.521,9.601c-1.6,3.259-3.259,6.794-4.08,10.08c-0.991,3.968,0.966,8.805,2.16,12.479
	c1.066,3.28,2.773,6.342,3.6,9.84c0.635-0.507,0.919-1.469,1.2-2.159c0.318-0.781,0.599-1.574,0.96-2.4
	c0.639-1.46,1.666-3.133,2.16-4.8c1.486-5.015,0.241-11.453,0.72-16.8c0.121-1.353,1.043-3.059,1.2-4.801
	c0.107-1.184-0.13-2.32,0-3.359c0.355-2.834,2.122-4.483,3.12-6.24C227.664,66.385,225.753,65.977,223.69,65.72z M240.97,66.92
	c0.369,1.488,0.623,3.201,0.721,4.32c0.501-1.063,1.679-3.311,0.479-4.56C242.211,67.2,241.318,66.789,240.97,66.92z M230.41,68.36
	c-0.005-0.036-1.078-0.379-0.96-0.72c-1.305,1.896-3.431,4.248-2.641,7.44C227.449,73.252,230.688,70.438,230.41,68.36z
	 M236.41,71.72c-1.609-1.032-3.086-3.471-5.28-3.12C232.898,69.406,233.729,73.389,236.41,71.72z M230.17,74.84
	c1.361,0.846,3.741,1.18,5.76,1.92c1.863,0.684,3.195,1.618,4.32,1.92c-0.492-0.388-0.605-1.154-0.96-1.68
	c-0.72-0.425-1.499-1.159-1.92-1.2c-1.862-2.618-4.605-4.354-6.48-6.96c-0.601,1.559-1.585,2.734-2.159,4.32
	C229.072,73.915,229.676,74.533,230.17,74.84z M235.45,72.68c0.321,1.358,1.8,1.561,2.399,2.641c0.952-1.814,4.457-3.482,2.881-6.24
	C239.892,71.201,237.722,71.991,235.45,72.68z M225.61,81.561c2.235-0.405,4.008-1.272,6-1.921c-1.255-1.865-2.412-3.828-3.36-6
	C226.416,75.325,226.273,78.704,225.61,81.561z M234.25,81.8c1.72,2.114,3.56,4.279,5.28,5.761c-1.231-5.01-5.179-7.302-7.2-11.521
	c-1.354,0.153-1.878-0.522-2.64-0.96C230.354,77.77,232.601,79.771,234.25,81.8z M238.33,83.48c1.806,3.184,2.208,7.616,0.96,11.52
	c-0.97,3.031-4.146,7.244-6.24,9.12c-0.691,0.62-1.719,0.871-2.399,1.44c-2.243,1.874-3.547,4.615-5.761,5.76
	c0.005,0.351-1.012,0.761,0,0.72c3.624,0.771,7.794,1.849,11.521,0.96c1.522-0.363,4.935-2.111,5.76-3.12
	c0.913-1.117,1.726-3.659,2.16-5.52c0.492-2.112,1.009-4.863,0.96-6.721c-0.036-1.401-0.677-2.972-0.96-4.56
	c-0.886-4.965-2.442-9.811-3.84-13.44c-1.894-1.548-5.234-2.924-7.681-3.12C234.272,79.1,236.879,80.922,238.33,83.48z M225.61,87.8
	c0.167,1.756,1.088,3.636,0.96,5.28c-0.081,1.034-0.932,1.891-0.96,2.88c-0.077,2.616,2.31,7.702,4.319,7.92
	c1.06,0.114,3.998-1.762,5.04-2.88c0.65-0.697,1.3-1.976,1.92-2.88c0.761-1.108,1.687-2.236,1.92-2.88
	c0.41-1.132,1.121-5.173,0.96-6c-0.233-1.205-2.36-3.142-3.6-4.561c-1.781-2.039-3.106-3.891-4.32-4.8
	c-1.803,0.997-3.926,1.674-6.239,2.16C225.795,84.087,225.42,85.803,225.61,87.8z M225.37,95.24c0.689-1.288,0.817-2.953,0.24-4.561
	C225.657,92.011,225.057,93.93,225.37,95.24z M220.81,107.24c0.87,1.689,1.778,3.342,3.12,4.56c2.381-2.019,4.575-4.225,6.48-6.72
	c-3.757-0.804-3.814-5.306-5.28-8.4C223.892,100.401,221.942,103.413,220.81,107.24z M229.93,104.6
	c1.656,0.726,3.429-1.436,3.601-2.16C232.716,103.546,230.993,103.743,229.93,104.6z M228.73,103.88
	C230.477,105.106,228.517,103.275,228.73,103.88L228.73,103.88z M222.25,110.36c-0.844-0.284-1.09-2.421-1.92-1.921
	C220.688,109.208,221.159,111.121,222.25,110.36z"/>
<path fill-rule="evenodd" clip-rule="evenodd" d="M5.53,29c1.978,0.902,3.586,2.174,5.76,2.88C10.557,32.104,6.579,30.408,5.53,29z"
	/>
<path fill-rule="evenodd" clip-rule="evenodd" d="M294.01,30.68c-5.283,2.515-12.823,3.217-18.24,4.32
	c0.28-0.796,1.371-0.604,1.921-0.72C282.939,33.175,289.206,32.289,294.01,30.68z"/>
<path fill-rule="evenodd" clip-rule="evenodd" d="M12.25,32.6c-0.429,0.067-0.493-0.227-0.24-0.24
	c7.022,2.738,11.734,7.786,18.96,10.32C23.991,41.019,18.773,35.517,12.25,32.6z"/>
<path fill-rule="evenodd" clip-rule="evenodd" d="M53.77,38.12c1.089,1.15,1.894,2.586,2.64,4.08
	C55.206,41.165,54.536,39.594,53.77,38.12z"/>
<path fill-rule="evenodd" clip-rule="evenodd" d="M125.05,39.56c-1.273,0.806-3.299,0.861-5.04,1.2
	C121.246,39.916,123.433,40.022,125.05,39.56z"/>
<path fill-rule="evenodd" clip-rule="evenodd" d="M119.77,41c-1.631,0.129-2.772,0.748-4.32,0.96c0.631-0.468,1.95-1.006,2.88-1.2
	C118.704,40.682,119.888,40.444,119.77,41z"/>
<path fill-rule="evenodd" clip-rule="evenodd" d="M114.49,41.96c-2.446,1.115-6.253,0.735-9.6,1.44
	c-0.183-0.698,1.341-0.657,2.16-0.72C109.452,42.497,112.411,42.352,114.49,41.96z"/>
<path fill-rule="evenodd" clip-rule="evenodd" d="M47.29,44.6c1.517,0.483,2.37,1.63,3.84,2.16
	C50.07,47.01,48.213,45.426,47.29,44.6z"/>
<path fill-rule="evenodd" clip-rule="evenodd" d="M106.33,45.08c-1.375,1.025-4.031,0.769-5.76,1.44
	C101.712,45.263,104.604,45.755,106.33,45.08z"/>
<path fill-rule="evenodd" clip-rule="evenodd" d="M63.61,61.88c0.909,0.409-0.521,0.395-0.48,0.72
	C62.39,62.359,63.65,62.204,63.61,61.88z"/>
<path fill-rule="evenodd" clip-rule="evenodd" d="M67.45,65.96c1.388,0.372,2.902,0.617,4.08,1.2
	C70.723,67.162,68.116,66.897,67.45,65.96z"/>
<path fill-rule="evenodd" clip-rule="evenodd" d="M69.37,71.96c-2.328-0.286-4.475-1.374-6.96-2.16
	C63.421,69.714,67.41,71.097,69.37,71.96z"/>
</svg>
