<?xml version="1.0" encoding="utf-8"?>
<!-- Generator: Adobe Illustrator 15.0.0, SVG Export Plug-In . SVG Version: 6.00 Build 0)  -->
<!DOCTYPE svg PUBLIC "-//W3C//DTD SVG 1.1//EN" "http://www.w3.org/Graphics/SVG/1.1/DTD/svg11.dtd">
<svg version="1.1" id="Capa_1" xmlns="http://www.w3.org/2000/svg" xmlns:xlink="http://www.w3.org/1999/xlink" x="0px" y="0px"
	 width="1526px" height="1512px" viewBox="0 0 1526 1512" enable-background="new 0 0 1526 1512" xml:space="preserve">
<path fill-rule="evenodd" clip-rule="evenodd" d="M507,52c19.037-0.746,22.781,14.914,16,39c-11.018,39.134-31.032,36.23-59,51
	c-16.055,8.479-20.976,45.518,1,50c43.906,8.956,84.99-3.297,110,35c18.227,27.911,6.129,68.463-14,86
	c-14.062,12.252-96.04,73.518-110,41c-16.814-39.165,87.666-50.035,74-89c-8.241-23.497-88.186,4.185-107-4
	c-20.387-8.869-44.084-54.438-42-79C379.992,134.952,443.688,54.48,507,52z"/>
<path fill-rule="evenodd" clip-rule="evenodd" d="M275,116c25.547-6.852,46.635,47.885,54,61c14.845,26.432,27.312,71.422,39,97
	c9.859,21.574,34.005,54.971,18,80c-25.688,40.171-68.779-64.333-82-63c-16.986,1.712-12.177,74.999-45,78
	c-28.41,2.598-28.643-96.597-25-118C238.28,225.856,228.495,128.473,275,116z M293,214c-1.219-1.219-6.285-2.773-11-1
	C249.094,225.373,317.923,238.923,293,214z"/>
<path fill-rule="evenodd" clip-rule="evenodd" d="M1229,187c49.304-11.282,285.242,30.593,228,118
	c-26.445,40.381-89.035,44.823-141,73c-31.579,17.123-111.006,63.581-86,118c25.127,54.683,157.656-18.726,169,68
	c10.996,84.061-98.039,52.612-138,73c-20.455,10.436-126.763,64.168-57,112c32.726,22.438,144.669-35.502,147,25
	c2.276,59.098-130.454,58.416-162,68c-22.007,6.687-66.988-21.193-79-32c-47.146-42.416,10.758-101.969,3-156
	c-3.579-24.929-46.274-29.281-37-62c6.008-21.193,33.783-24.742,50-32c55.732-24.944,51-165.408,64-210
	C1205.108,298.174,1152.396,204.528,1229,187z"/>
<path fill-rule="evenodd" clip-rule="evenodd" d="M984,897c-101.532,10.997-107.127-154.393-124-255
	c-19.519-116.382-55.488-243.694-30-380c8.92-47.704,99.863-37.11,141-44c34.475-5.774,31.682-38.777,76-23
	c144.854,51.568,121.425,305.618,0,381c-14.625,9.079-66.994,26.218-71-2c-2.411-16.985,24.823-37.793,34-49
	c24.487-29.904,54.172-88.386,49-123c1.929-91.036-52.476-43.583-73,9c-37.295,95.551-38.194,303.637-16,397
	C974.388,826.457,988.383,872.413,984,897z"/>
<path fill-rule="evenodd" clip-rule="evenodd" d="M496,427c42.219-29.118,88.647-74.998,142-108c27.741-17.16,142.641-101.863,132,3
	c-7.36,72.535-116.931,96.233-161,144c-56.581,61.329,22.57,57.436,60,30c30.286-22.2,101.357-79.292,121-22
	c13.298,38.786-37.246,87.159-62,101c-59.747,33.408-82.734,71.653-65,150c5.507,24.33,13.4,49.402,12,69
	c-3.73,52.224,31.499,32.983,46,2c16.675-35.629,36.207-75.456,57-107c6.9-10.469,34.378-72.452,57-40
	c28.871,41.417-13.915,125.181-15,160c-16.807,26.559-102.858,194.104-165,150c-17.082-12.123-24.836-56.984-34-73
	c-16.281-28.453-29.013-72.837-39-104c-11.072-34.548-14.391-86.515-41-90c-28.608-3.747-54.126-26.382-47-64
	C507.44,557.05,432.979,475.141,496,427z"/>
<path fill-rule="evenodd" clip-rule="evenodd" d="M461,752c-13.669,25.205-26.939,54.713-52,70c-58.369,35.605,53.666,113.27,67,130
	c24.641,30.917,107.937,123.55,82,176c-7.818,15.81-36.002,8.61-41,1c-83.211-126.712-251.787-218.065-340-341
	c-18.349-25.571-71.07-84.843-79-116c-16.873-66.296,82.062-84.023,112-86c33.982-2.243,59.321-11.664,94-14
	c37.083-2.498,58.996-34.005,102-16C469.51,582.591,494.122,690.926,461,752z M276,702c-1.371,16.224,18.186,62.145,31,62
	c46.284-0.523,79.454-144.318,24-127C307.084,644.469,278.25,675.379,276,702z"/>
<path fill-rule="evenodd" clip-rule="evenodd" d="M127,260c-3.887,2.588,14.749,11.919,19,17c24.624,29.43,57.647,159.948,93,159
	c6.586-0.177,80.896-88.522,78-41c-4.502,73.872-81.721,130.829-138,75c-34.456-34.181-69.349-78.323-99-114
	c-13.923-16.752-45.948-71.114-18-94C78.113,248.806,109.634,267.4,127,260z"/>
<path fill-rule="evenodd" clip-rule="evenodd" d="M1189,1063c0.076-0.719-14.625,84.613-1,93c14.733,9.069,48.285-35.207,64-31
	c23.117,6.189,8.293,51.553,4,65c-17.363,54.386-50.296,91.962-89,121c-2.534,1.901,19.104,59.811,44,66
	c22.127,5.501,103.264,11.52,67,33c-10.949,6.485-53.699,2.335-68-2c-31.118-9.434-51.052-77.649-77-78
	c-18.79-0.254-66.244,28.452-88,43c-15.055,10.067-7.295,33.338-16,46c-5.821,8.467-86.104,35.189-87,20
	c-1.339-22.7,52.944-19.029,66-37c34.689-47.75-80.191-18.627-97-15c-28.695,6.193-40.844-6.733-46,21
	c-2.003,10.772-76.074,49.506-95,45c-12-2.856-11.356-22.039-4-27c7.107-4.792,89.942-31.162,58-32
	c-49.228-1.291-141.597-12.582-161-61c-22.15-55.273,32.508-35.218,64-31c24.401,3.269,94.745,23.406,90-12
	c-5.52-41.187-14.778-76.495-10-122c2.15-20.473,9.765-96.296,24-101c14.027-4.636,72.628,60.999,84,74
	c7.967,9.108,16.432,21.042,22,28c8.311,10.385,39.073,65.265,48,68c36.742,11.261,85.064-67.055,133-66
	c4.62,0.102,29.789,10.466,38,1c9.677-11.156,4.537-61.944,4-71c-2.303-38.863-53.413-137.151-90-145
	c-17.369-3.727-48.429,22.809-49,5c-1.434-44.688,76.023-11.553,88,0c16.746,16.153,37.971,52.928,47,70
	c26.236,49.607,21.87-33.347,43-67c6.03-9.604,20.136-26.102,35-27c23.99-1.45,24.63,6.721,4,14
	C1210.802,960.598,1191.406,1040.256,1189,1063z M833,1222c0.244,5.225,4.257,75.2,14,80c6.464,3.185,36.998-13.729,43-16
	c9.423-3.564,76.656-29.952,77-31c5.088-15.525-52.185-79.045-65-93c-7.354-8.008-56.066-63.207-61-59
	C822.372,1118.882,831.937,1199.282,833,1222z"/>
</svg>
